<?xml version="1.0" encoding="UTF-8"?>
<svg xmlns="http://www.w3.org/2000/svg" xmlns:xlink="http://www.w3.org/1999/xlink" viewBox="0 0 2895.68 2000">
  <defs>
    <linearGradient id="linear-gradient" x1="1788.16" y1="945.99" x2="1788.13" y2="925.71" gradientTransform="translate(-69.38 128.77) rotate(-3.88)" gradientUnits="userSpaceOnUse">
      <stop offset="0" stop-color="#2bb673"/>
      <stop offset=".06" stop-color="#25a676"/>
      <stop offset=".29" stop-color="#136d81"/>
      <stop offset=".46" stop-color="#074a88"/>
      <stop offset=".55" stop-color="#033d8b"/>
      <stop offset=".6" stop-color="#05377d"/>
      <stop offset=".66" stop-color="#073371"/>
      <stop offset=".75" stop-color="#08306a"/>
      <stop offset="1" stop-color="#093069"/>
    </linearGradient>
    <linearGradient id="linear-gradient-2" x1="1715.01" y1="945.25" x2="1714.97" y2="924.97" xlink:href="#linear-gradient"/>
    <linearGradient id="linear-gradient-3" x1="1510.02" y1="573.5" x2="1528.75" y2="591.65" gradientTransform="translate(2006.22 -964.7) rotate(86.99)" gradientUnits="userSpaceOnUse">
      <stop offset="0" stop-color="#772828"/>
      <stop offset=".82" stop-color="#491010"/>
    </linearGradient>
    <linearGradient id="linear-gradient-4" x1="1440.48" y1="566.81" x2="1463.45" y2="594.57" gradientTransform="translate(1938.99 -900.91) rotate(86.99)" xlink:href="#linear-gradient-3"/>
    <linearGradient id="linear-gradient-5" x1="1436.69" y1="652.71" x2="1475.47" y2="697.19" gradientTransform="matrix(1,0,0,1,0,0)" xlink:href="#linear-gradient-3"/>
    <linearGradient id="linear-gradient-6" x1="1791.99" y1="947.62" x2="1791.93" y2="916.28" xlink:href="#linear-gradient"/>
    <linearGradient id="linear-gradient-7" x1="1715.36" y1="946.55" x2="1715.3" y2="915.22" xlink:href="#linear-gradient"/>
  </defs>
  <g id="Layer_1" data-name="Layer 1">
    <path d="M828.61,1153.49h95.15v148.5h-95.15v167.5h-180.79v-167.5H252.96v-138.99l323.51-550.02h252.15v540.52ZM438.5,1153.49h209.33v-357.58l-209.33,357.58Z" fill="#a4aabc"/>
    <path d="M1093.72,1392c-66.7-70.07-107.37-174.22-123.08-311.13-15.84-138.09,1.39-248.87,51.94-330,50.55-81.13,124.21-127.84,222.29-139.09,98.07-11.25,180.39,17.58,245.91,87.78,66.7,70.07,107.24,173.04,122.94,309.95,15.97,139.27-1.25,250.05-50.49,332.23-49.37,80.99-123.03,127.71-221.1,138.95-99.26,11.38-181.71-18.62-248.41-88.69ZM1426.52,1036.96c-12.05-105.04-32.25-176.86-59.58-216.77-27.32-39.91-62.85-57.36-105.38-52.48-99.26,11.38-123.74,111.05-103.71,285.72,23.69,206.54,80.02,280.19,165.1,270.44,99.26-11.38,123.61-112.23,103.57-286.9Z" fill="#a4aabc"/>
    <path d="M2326.05,1153.49h95.15v148.5h-95.15v167.5h-180.79v-167.5h-394.87v-138.99l323.51-550.02h252.15v540.52ZM1935.93,1153.49h209.33v-357.58l-209.33,357.58Z" fill="#a4aabc"/>
    <path d="M1605.12,1512.58l-1458.98-.59c-10.18,0-18.43-8.26-18.43-18.44h0c0-10.18,8.26-18.44,18.44-18.44h1447.3s12.96,11.63,12.96,11.63l-11.11,5.93,11.7,10.52-1.89,9.39Z" fill="#d7dadd"/>
    <path d="M2453.86,1480.79l-782.13,32.19,1.7-9.43-11.91-10.29,10.99-6.14-13.19-11.41,793.03-31.79c10.17-.41,18.75,7.5,19.17,17.67h0c.42,10.18-7.49,18.77-17.67,19.19Z" fill="#d7dadd"/>
    <polygon points="1674.46 1520.78 1662.61 1531.15 1676.83 1534.71 1674.46 1520.78" fill="#d7dadd"/>
    <polygon points="1651.64 1572.64 1643.49 1575.67 1640.53 1584.71 1652.24 1585.45 1651.64 1572.64" fill="#d7dadd"/>
    <polygon points="1618.12 1525.52 1609.98 1528.56 1607.01 1537.6 1618.72 1538.34 1618.12 1525.52" fill="#d7dadd"/>
    <polygon points="1690.64 1630.71 1682.49 1633.75 1679.53 1642.78 1691.24 1643.52 1690.64 1630.71" fill="#d7dadd"/>
  </g>
  <g id="Layer_3" data-name="Layer 3">
    <path d="M1550.98,1167.81c-8.48-12.92-11.15-30.51-7.92-52.29,1.03-6.92,2.51-13.85,3.94-20.56,2.17-10.15,4.41-20.65,5.05-31.1,1.37-22.24-4.43-44.61-10.03-66.25-6.14-23.72-12.5-48.25-9.57-72.92,1.16-9.76,3.76-19.33,6.28-28.59,1.63-5.99,3.31-12.19,4.58-18.34,3.84-18.72,2.48-33.99-4.06-45.38-3.98-6.94-9.75-12.41-15.86-18.2-3.58-3.39-7.28-6.9-10.56-10.72-25.32-29.43-24.27-76.79-19.91-119.23l3.98.41c-4.28,41.59-5.37,87.93,18.96,116.21,3.15,3.66,6.77,7.1,10.28,10.42,6.05,5.74,12.31,11.67,16.58,19.11,7.03,12.26,8.55,28.47,4.5,48.18-1.29,6.27-2.99,12.53-4.63,18.58-2.48,9.12-5.04,18.55-6.17,28.02-2.84,23.92,3.42,48.09,9.47,71.45,5.68,21.94,11.56,44.63,10.15,67.5-.66,10.75-2.93,21.39-5.13,31.68-1.42,6.65-2.89,13.52-3.89,20.31-3.08,20.77-.62,37.43,7.31,49.5l-3.34,2.2Z" fill="#772828"/>
    <ellipse cx="1476.43" cy="679.48" rx="20.22" ry="21.39" fill="#2d2dad"/>
    <ellipse cx="1514.93" cy="681.42" rx="20.22" ry="21.39" fill="#2d2dad"/>
    <g>
      <circle cx="1688.62" cy="1096.69" r="42.08"/>
      <circle cx="1663.18" cy="1139.62" r="42.08"/>
      <circle cx="1724.61" cy="1156.4" r="42.08"/>
      <circle cx="1681.37" cy="1203.63" r="42.08"/>
      <circle cx="1696.43" cy="975.41" r="41.81"/>
      <circle cx="1663.95" cy="1019.79" r="42.08"/>
      <circle cx="1722.53" cy="1035.17" r="42.08"/>
      <circle cx="1641.72" cy="1077.69" r="42.08"/>
      <circle cx="1754.34" cy="1203.23" r="44.64"/>
    </g>
    <path d="M1755.6,796.23h0c57.01,0,103.3,46.29,103.3,103.3v258.22c0,35.98-29.21,65.18-65.18,65.18h-76.23c-35.98,0-65.18-29.21-65.18-65.18v-258.22c0-57.01,46.29-103.3,103.3-103.3Z" transform="translate(-5.48 9.6) rotate(-.31)"/>
    <g>
      <circle cx="1854.67" cy="1118.65" r="42.08"/>
      <circle cx="1880.53" cy="1153.19" r="42.08"/>
      <circle cx="1819.34" cy="1178.75" r="42.08"/>
      <circle cx="1834.88" cy="1192.63" r="42.08"/>
      <circle cx="1845.55" cy="998.89" r="41.81"/>
      <circle cx="1879.91" cy="1040.07" r="42.08"/>
      <circle cx="1825.78" cy="1061.73" r="42.08"/>
      <circle cx="1901.56" cy="1087.02" r="42.08"/>
      <circle cx="1791.49" cy="1225.9" r="44.64"/>
    </g>
    <path d="M1789.62,1012.18l-56.58,3.83,2.6,38.32,56.58-3.83-2.6-38.32Z" fill="#e5876a"/>
    <circle cx="1757.77" cy="1214.65" r="42.53"/>
    <path d="M1748.86,828.26h12.83c41.18,0,74.6,33.43,74.6,74.6v55.19c0,34.94-28.36,63.3-63.3,63.3h-35.67c-34.81,0-63.07-28.26-63.07-63.07v-55.42c0-41.18,33.43-74.6,74.6-74.6Z" transform="translate(-58.52 120.8) rotate(-3.88)" fill="#f9bb9b"/>
    <circle cx="1735.77" cy="958.67" r="6.5" fill="#e5876a"/>
    <path d="M1635.86,956.88h10.16c8,0,14.5,6.5,14.5,14.5v181.04h-39.16v-181.04c0-8,6.5-14.5,14.5-14.5Z" transform="translate(3290.76 13.94) rotate(115.03)" fill="#f9bb9b"/>
    <path d="M1729.54,1096.01h0c4.56-9.76.3-21.47-9.46-26.02l-80.59-37.63-15.54,35.96,79.56,37.15c9.76,4.56,21.47.3,26.02-9.46Z" fill="#f9bb9b"/>
    <circle cx="1547.46" cy="1007.36" r="28.36" fill="#f9bb9b"/>
    <path d="M1881.68,932.64h39.16v171.87c0,8-6.5,14.5-14.5,14.5h-10.16c-8,0-14.5-6.5-14.5-14.5v-171.87h0Z" transform="translate(1757.38 -1129.72) rotate(57.83)" fill="#f9bb9b"/>
    <circle cx="1983.56" cy="970.84" r="28.36" fill="#f9bb9b"/>
    <path d="M1790.44,1200.84l28.73,119.29c1.89,7.85,12.58,12,23.88,9.28h0c11.3-2.72,18.93-11.29,17.04-19.14l-28.73-119.29c-1.89-7.85-12.58-12-23.88-9.28h0c-11.3,2.72-18.93,11.29-17.04,19.14Z" fill="#77daff"/>
    <rect x="1813.41" y="1269.93" width="159.5" height="42.08" rx="21.04" ry="21.04" transform="translate(-340.16 778.2) rotate(-21.36)" fill="#77daff"/>
    <rect x="1597.22" y="1298.52" width="293.3" height="42.08" transform="translate(278.89 2943.19) rotate(-85.05)" fill="#8de1ff"/>
    <path d="M1689.83,1453.39h60.22c4.12,0,7.46,3.34,7.46,7.46v13.88c0,2.38-1.93,4.31-4.31,4.31h-74.11c-4.12,0-7.46-3.34-7.46-7.46h0c0-10.04,8.15-18.2,18.2-18.2Z" transform="translate(45.23 -51.3) rotate(1.74)" fill="#19359b"/>
    <path d="M1859.72,1102.5l2.62,38.71c1.82,26.88-13.01,51.03-35.69,62.33-7.43,3.73-15.72,6.06-24.53,6.66l-38.48,2.61c-35.69,2.42-66.56-24.55-68.98-60.23l-2.62-38.71c-1.53-22.61,8.73-43.29,25.55-56.02,5.1-3.88,10.81-7.01,16.97-9.24,5.57-2.02,11.51-3.3,17.71-3.72l38.48-2.61c4.7-.32,9.32-.13,13.8.53,29.53,4.32,53.08,28.72,55.18,59.69Z" fill="#77daff"/>
    <path d="M1722.97,1061.45l-36.36-20.71c-2.28-1.3-5.18-.54-6.53,1.72l-26.38,48.63c-1.24,2.29-.14,5.14,2.31,6.01l56.37,19.95,10.59-55.6Z" fill="#77daff"/>
    <path d="M1815.72,1048.93l45.37-35.54c2.23-1.92,5.64-1.47,7.29.97l27.16,46.57c1.68,2.88.46,6.57-2.59,7.89l-49.04,21.21-28.18-41.1Z" fill="#77daff"/>
    <path d="M1862.23,1139.57l.11,1.63c1.82,26.88-13.01,51.03-35.69,62.33-9.57,3.99-20.05,6.35-30.15,7.04l-32.85,2.23c-35.68,2.42-66.57-24.55-68.99-60.23l-1.69-24.87c-.11-1.56.32-3.1,1.22-4.38l25.37-36.24-2.23-34.19c-.13-1.95,1.21-3.64,3.01-3.76l11.03-.75c1.79-.12,3.34,1.37,3.47,3.32l1.47,22.91c.12,1.75,1.52,3.09,3.13,2.98l51.84-1.89c1.62-.11,2.81-1.63,2.69-3.38l-1.31-26.61c-.03-.48.03-.95.16-1.38.4-1.31,1.5-2.29,2.84-2.39l11.03-.75c1.79-.12,3.34,1.37,3.47,3.32l4.24,36.64,47.8,58.42Z" fill="#19359b"/>
    <path d="M1740.67,1113.55h48.28c1.21,0,2.19.98,2.19,2.19v20.17c0,10.76-8.74,19.5-19.5,19.5h-13.66c-10.76,0-19.5-8.74-19.5-19.5v-20.17c0-1.21.98-2.19,2.19-2.19Z" transform="translate(-72.67 121.93) rotate(-3.88)" fill="none" stroke="#6ec8f1" stroke-miterlimit="10"/>
    <g>
      <path d="M1751.83,811.88h0v8.96c0,47.31-38.41,85.73-85.73,85.73h0v-8.96c0-47.31,38.41-85.73,85.73-85.73Z" transform="translate(-54.19 117.52) rotate(-3.88)"/>
      <path d="M1751.4,821.24h0c47.41,0,85.9,38.49,85.9,85.9v8.98h-29.62c-31.07,0-56.29-25.22-56.29-56.29v-38.59h0Z" transform="translate(3643.32 1614.03) rotate(176.12)"/>
    </g>
    <path d="M1949.15,1261.4h52.66c3.9,0,7.07,3.17,7.07,7.07v12.54c0,3.34-2.71,6.04-6.04,6.04h-65.21c-3.9,0-7.07-3.17-7.07-7.07h0c0-10.26,8.33-18.59,18.59-18.59Z" transform="translate(1758.81 3610.68) rotate(-117.74)" fill="#19359b"/>
    <circle cx="1781.34" cy="927.16" r="24.56" fill="#fff"/>
    <path d="M1760.69,913.69c11.65-20.12,42.04-14.65,46.73,7.96,1.37,6.73-.34,14.02-4.55,19.13-.18.21-.49.25-.71.07-.18-.15-.23-.4-.13-.61,5.62-11.1,2.64-25.47-7.89-32.25-10.35-7.07-25.41-4.01-32.61,6.24-.34.5-1.16-.02-.84-.54h0Z" fill="#070782"/>
    <circle cx="1777.85" cy="940.12" r="11.1" fill="url(#linear-gradient)"/>
    <circle cx="1700.12" cy="932.66" r="24.56" fill="#fff"/>
    <path d="M1718,917.18c-8.51-9.18-23.85-10.18-33.15-1.78-9.52,8.13-10.54,22.77-3.47,33.02.15.23.09.54-.14.7-.2.13-.45.1-.62-.05-4.87-4.5-7.54-11.48-7.09-18.34.39-6.88,3.85-13.49,9.12-17.9,10.6-9.14,27.8-7.55,36.11,3.71.36.5-.32,1.09-.76.65h0Z" fill="#070782"/>
    <path d="M1746.98,810.02c-13.67,1.15-27.16,5.16-38.93,12.23l-.04.02c-.15.09-.29.18-.44.26-6.69,4.08-12.9,8.95-18.55,14.38-9.72,9.35-17.99,20.56-23.02,33.13-2.77,6.91-4.54,14.29-4.65,21.76l-.08,5.01c.62-39.1,46.57-81.98,85.66-81.36,48.31-2,104.65,63.53,104.03,102.63l.08-5.01c.15-9.48-4.7-25.16-8.32-33.85-4.28-10.29-9.88-23-17.01-31.56-7.57-9.09-14.69-16.43-24.73-22.71-13.71-8.57-27.96-14.99-44.11-15.25-3.3-.05-6.6.05-9.9.33Z" fill="#77daff"/>
    <path d="M1750.56,980.82c-4.79,2.37-10.43,1.72-15.76,2.03-2.61.15-5.41.65-7.24,2.52-.8.82-1.36,1.86-1.81,2.92-.69,1.63-1.16,3.4-1.06,5.17.19,3.4,2.5,6.41,5.38,8.21,4.4,2.76,10.86,4.64,15.74,2.03,2.7-1.44,4.22-3.32,7.49-3.68,4.41-.49,9.01.42,13.21-1.69,5.98-3.01,14.52-12.29,9.6-19.31-2.07-2.96-5.62-4.83-9.08-5.67-7.34-1.77-10.71,4.61-16.49,7.46Z" fill="#a92c2c"/>
    <circle cx="1704.82" cy="944.33" r="11.1" fill="url(#linear-gradient-2)"/>
    <circle cx="1837.34" cy="927.95" r="20.92" fill="#f9bb9b"/>
    <ellipse cx="1592.72" cy="279.69" rx="20.22" ry="21.39" fill="#fff"/>
    <ellipse cx="1631.21" cy="281.64" rx="20.22" ry="21.39" fill="#fff"/>
    <path d="M1602.02,576.05c0,58.19-47.18,105.37-105.37,105.37-3.5,0-6.95-.17-10.35-.51-53.34-5.2-95.02-50.17-95.02-104.86,0-58.19,47.18-105.37,105.37-105.37,32.24,0,61.11,14.49,80.42,37.3,15.57,18.36,24.95,42.11,24.95,68.07Z" fill="#f59c4e" stroke="#5e0606" stroke-miterlimit="10" stroke-width="2"/>
    <path d="M1448.85,477.1c1.86-4.13,2.84-8.54,2.42-13.03-1.01-10.67-9.25-19.41-19.45-22.12-5.04-1.34-14.98-2.68-13.89,5.5.28,2.09,1.13,4.81.41,6.88-1.24,3.54-5.42,2.02-7.14-.29-5.7-7.67-6.57-19.95-2.35-28.46,4.78-9.64,16.95-13.93,26.72-16.28,13.76-3.32,28.65-2.92,42.28.81,18.86,5.17,35.75,17.25,46.73,33.42.41.61,1.77-5.29,1.81-5.61.37-3.17,2.48-11.32,6.79-6.56,23.99,26.57,40.03,58.65,44.13,94.47.38,3.33.66,6.67.83,10.02.07,1.39-.66,8.78.19,9.53,1.46,2.12,4.82,1.04,6.85-.55,2.03-1.59,4.42-3.64,6.84-2.75,1.96.72,2.76,3.02,3.16,5.07,2.67,13.72-2.48,28.69-13.02,37.87-5.77,5.02-14.77,8.2-20.86,3.58-2.61-1.98-4.15-5.03-5.65-7.95-7.16-13.87-15.52-27.12-24.98-39.55-2.31-3.04-4.72-6.06-7.68-8.46-2.71-2.2-5.83-3.84-9.06-5.14-22.2-8.93-47.67-1.58-71.08-6.51-4.56-.96-9.43-2.69-11.82-6.7-1.33-2.23-2.01-4.76-2.73-7.23-.43-1.47-2.29-4.98-1.62-6.42.34-.73,1-1.25,1.64-1.73,4.1-3.13,8.5-6.03,12.08-9.75,2.39-2.48,8.47-8.34,8.47-12.06Z" fill="#f59c4e"/>
    <path d="M1571.94,503.03c-6.91-25.73-20.21-49.61-39.52-71-.56-.62-1.35-1.3-2.03-1.09-1.49.48-2.72,4.42-3.03,7.09,0,.06-1.01,6.15-2.48,6.51l-.68.17-.47-.62c-10.8-15.91-27.63-27.94-46.17-33.02-13.62-3.73-28.46-4.02-41.78-.81-13.94,3.36-22.46,8.52-26.05,15.76-4.14,8.34-3.17,20.13,2.26,27.42.94,1.27,2.7,2.15,3.91,1.96.71-.11,1.19-.57,1.48-1.4.46-1.33.12-3.17-.18-4.79-.11-.57-.21-1.12-.27-1.63-.34-2.53.25-4.49,1.76-5.82,3.42-3.01,10.49-1.55,13.38-.78,11.05,2.94,19.17,12.19,20.19,23,.41,4.33-.4,8.81-2.42,13.35-.09,1.76-1.2,3.96-3.4,6.69l-1.56-1.25c2.45-3.06,2.96-4.77,2.96-5.67v-.22l.09-.2c1.93-4.27,2.71-8.49,2.33-12.52-.93-9.83-8.62-18.57-18.71-21.25-4.13-1.1-9.34-1.59-11.54.35-.99.87-1.35,2.19-1.1,4.05.06.48.16,1,.26,1.53.35,1.87.74,3.99.1,5.82-.54,1.53-1.62,2.5-3.07,2.72-2.22.34-4.61-1.12-5.82-2.75-5.84-7.85-6.89-20.54-2.44-29.5,3.87-7.8,12.82-13.3,27.38-16.81,13.64-3.29,28.83-3,42.78.82,18.45,5.05,35.24,16.83,46.33,32.44.42-1.4.89-3.41.96-3.79.03-.29.92-7.63,4.4-8.74,1.35-.43,2.74.12,4.12,1.65,19.52,21.62,32.97,45.78,39.96,71.82l-1.93.52Z" fill="#5e0606"/>
    <path d="M1602.02,576.05c0,58.19-47.18,105.37-105.37,105.37-3.5,0-6.95-.17-10.35-.51,5.35-1.38,10.62-3.02,15.89-4.65,10.95-3.38,21.98-6.81,32.01-12.34,16.41-9.02,31.55-23.56,42.45-38.71,9.67-13.45,14.57-29.7,15.93-46.09,1.32-15.81-.82-31.87-6.08-46.72-1.76-4.95-3.85-9.77-6.29-14.39-1.28-2.44-3.4-6.67-3.14-10.03,15.57,18.36,24.95,42.11,24.95,68.07Z" fill="#e88943"/>
    <ellipse cx="1511.51" cy="574.95" rx="27.79" ry="9.26" transform="translate(857.92 2054.15) rotate(-86.99)" fill="url(#linear-gradient-3)"/>
    <path d="M1496.65,682.42c-3.49,0-7-.17-10.45-.51-26.16-2.55-50.36-14.69-68.15-34.19-17.91-19.63-27.77-45.08-27.77-71.67,0-39,21.3-74.82,55.58-93.49.49-.26,1.09-.08,1.36.4.26.48.08,1.09-.4,1.36-33.64,18.31-54.54,53.46-54.54,91.73,0,53.98,40.46,98.64,94.12,103.87,3.38.33,6.83.5,10.25.5,57.55,0,104.37-46.82,104.37-104.37,0-24.69-8.78-48.63-24.71-67.42-1.49-1.76-3.06-3.5-4.67-5.16-.38-.4-.37-1.03.02-1.41.4-.38,1.03-.37,1.41.02,1.64,1.69,3.24,3.46,4.76,5.26,16.24,19.15,25.18,43.56,25.18,68.72,0,58.65-47.72,106.37-106.37,106.37Z" fill="#5e0606"/>
    <ellipse cx="1444.28" cy="571.41" rx="27.79" ry="9.26" transform="translate(797.76 1983.66) rotate(-86.99)" fill="url(#linear-gradient-4)"/>
    <path d="M1450.08,623.39c-14.44,33.23-20.9,65.54-23.67,97.44,12.35,3.09,53.73-46.09,59.01-87.14,0,0-8.58-32.94-35.34-10.29Z" fill="url(#linear-gradient-5)"/>
    <g>
      <circle cx="1781.34" cy="935.19" r="17.15" fill="url(#linear-gradient-6)"/>
      <circle cx="1768.74" cy="924.93" r="2.78" fill="#fff"/>
    </g>
    <circle cx="1704.82" cy="939.31" r="17.15" fill="url(#linear-gradient-7)"/>
    <circle cx="1692.22" cy="929.05" r="2.78" fill="#fff"/>
  </g>
</svg>