<svg width="459" height="324" viewBox="0 0 459 324" fill="none" xmlns="http://www.w3.org/2000/svg">
<path d="M119.9 239V217H59.9V197L89.9 107H120.7L87.3 194H119.9L121.5 160L147.1 159.6V194H159.3V217H147.1V239H119.9ZM216.233 241.2C207.699 241.2 200.299 240.067 194.033 237.8C187.766 235.4 182.566 231.6 178.433 226.4C174.433 221.067 171.366 214.133 169.233 205.6C167.233 197.067 166.233 186.6 166.233 174.2C166.233 161.4 167.233 150.533 169.233 141.6C171.366 132.667 174.499 125.533 178.633 120.2C182.766 114.733 187.899 110.8 194.033 108.4C200.299 106 207.633 104.8 216.033 104.8C224.699 104.8 232.166 106 238.433 108.4C244.699 110.8 249.833 114.733 253.833 120.2C257.966 125.533 260.966 132.667 262.833 141.6C264.833 150.4 265.833 161.267 265.833 174.2C265.833 190.6 264.033 203.733 260.433 213.6C256.966 223.333 251.566 230.4 244.233 234.8C236.899 239.067 227.566 241.2 216.233 241.2ZM216.233 218C219.966 218 223.166 217.4 225.833 216.2C228.633 214.867 230.966 212.6 232.833 209.4C234.699 206.2 236.033 201.733 236.833 196C237.766 190.267 238.233 183 238.233 174.2C238.233 164.867 237.766 157.2 236.833 151.2C236.033 145.2 234.766 140.533 233.033 137.2C231.299 133.733 229.033 131.333 226.233 130C223.433 128.533 220.099 127.8 216.233 127.8C212.366 127.8 209.033 128.533 206.233 130C203.433 131.333 201.099 133.667 199.233 137C197.499 140.333 196.166 145.067 195.233 151.2C194.299 157.2 193.833 164.933 193.833 174.4C193.833 183.2 194.299 190.467 195.233 196.2C196.299 201.933 197.766 206.4 199.633 209.6C201.499 212.667 203.766 214.867 206.433 216.2C209.233 217.4 212.499 218 216.233 218ZM334.166 239V217H274.166V197L304.166 107H334.966L301.566 194H334.166L335.766 160L361.366 159.6V194H373.566V217H361.366V239H334.166Z" fill="#1D7C4E"/>
<path d="M441.828 39.666C441.828 39.2978 442.126 38.9993 442.494 38.9993H442.5C442.869 38.9993 443.167 39.2978 443.167 39.666C443.167 40.0342 442.869 40.3327 442.5 40.3327H442.494C442.126 40.3327 441.828 40.0342 441.828 39.666Z" fill="#B3B3B3"/>
<path d="M442 37.666C442 37.9422 442.224 38.166 442.5 38.166C442.776 38.166 443 37.9422 443 37.666V34.9993C443 34.7232 442.776 34.4993 442.5 34.4993C442.224 34.4993 442 34.7232 442 34.9993V37.666Z" fill="#B3B3B3"/>
<path fill-rule="evenodd" clip-rule="evenodd" d="M441.408 30.3427C442.117 30.1071 442.882 30.1071 443.592 30.3427C444.298 30.5773 444.853 31.1336 445.411 31.9153C445.966 32.6944 446.58 33.7807 447.372 35.181L447.403 35.236C448.194 36.6365 448.808 37.7228 449.191 38.6037C449.575 39.4889 449.766 40.2532 449.614 40.9874C449.46 41.7267 449.081 42.399 448.528 42.9071C447.977 43.414 447.227 43.6278 446.282 43.7306C445.343 43.8327 444.114 43.8327 442.532 43.8327H442.467C440.886 43.8327 439.657 43.8327 438.717 43.7306C437.773 43.6278 437.022 43.414 436.471 42.9071C435.919 42.399 435.539 41.7267 435.386 40.9874C435.233 40.2532 435.424 39.4889 435.809 38.6037C436.191 37.7227 436.805 36.6365 437.597 35.236L437.628 35.181C438.419 33.7807 439.033 32.6944 439.589 31.9153C440.146 31.1336 440.701 30.5773 441.408 30.3427ZM443.277 31.2918C442.772 31.1241 442.228 31.1241 441.723 31.2918C441.325 31.4237 440.926 31.7624 440.403 32.4959C439.882 33.227 439.293 34.267 438.483 35.7006C437.673 37.1342 437.085 38.175 436.726 39.002C436.366 39.8305 436.276 40.358 436.365 40.7837C436.476 41.3208 436.751 41.8062 437.148 42.1712C437.46 42.4578 437.945 42.6407 438.825 42.7364C439.704 42.832 440.879 42.8327 442.5 42.8327C444.121 42.8327 445.295 42.832 446.174 42.7364C447.054 42.6407 447.54 42.4578 447.851 42.1712C448.248 41.8062 448.523 41.3208 448.635 40.7837C448.723 40.358 448.633 39.8305 448.273 39.002C447.914 38.175 447.327 37.1342 446.517 35.7006C445.706 34.267 445.118 33.227 444.597 32.4959C444.073 31.7624 443.674 31.4237 443.277 31.2918Z" fill="#B3B3B3"/>
<path d="M323.828 275.666C323.828 275.298 324.126 274.999 324.494 274.999H324.5C324.869 274.999 325.167 275.298 325.167 275.666C325.167 276.034 324.869 276.333 324.5 276.333H324.494C324.126 276.333 323.828 276.034 323.828 275.666Z" fill="#B3B3B3"/>
<path d="M324 273.666C324 273.942 324.224 274.166 324.5 274.166C324.776 274.166 325 273.942 325 273.666V270.999C325 270.723 324.776 270.499 324.5 270.499C324.224 270.499 324 270.723 324 270.999V273.666Z" fill="#B3B3B3"/>
<path fill-rule="evenodd" clip-rule="evenodd" d="M323.408 266.343C324.117 266.107 324.882 266.107 325.592 266.343C326.298 266.577 326.853 267.134 327.411 267.915C327.966 268.694 328.58 269.781 329.372 271.181L329.403 271.236C330.194 272.636 330.808 273.723 331.191 274.604C331.575 275.489 331.766 276.253 331.614 276.987C331.46 277.727 331.081 278.399 330.528 278.907C329.977 279.414 329.227 279.628 328.282 279.731C327.343 279.833 326.114 279.833 324.532 279.833H324.467C322.886 279.833 321.657 279.833 320.717 279.731C319.773 279.628 319.022 279.414 318.471 278.907C317.919 278.399 317.539 277.727 317.386 276.987C317.233 276.253 317.424 275.489 317.809 274.604C318.191 273.723 318.805 272.636 319.597 271.236L319.628 271.181C320.419 269.781 321.033 268.694 321.589 267.915C322.146 267.134 322.701 266.577 323.408 266.343ZM325.277 267.292C324.772 267.124 324.228 267.124 323.723 267.292C323.325 267.424 322.926 267.762 322.403 268.496C321.882 269.227 321.293 270.267 320.483 271.701C319.673 273.134 319.085 274.175 318.726 275.002C318.366 275.83 318.276 276.358 318.365 276.784C318.476 277.321 318.751 277.806 319.148 278.171C319.46 278.458 319.945 278.641 320.825 278.736C321.704 278.832 322.879 278.833 324.5 278.833C326.121 278.833 327.295 278.832 328.174 278.736C329.054 278.641 329.54 278.458 329.851 278.171C330.248 277.806 330.523 277.321 330.635 276.784C330.723 276.358 330.633 275.83 330.273 275.002C329.914 274.175 329.327 273.134 328.517 271.701C327.706 270.267 327.118 269.227 326.597 268.496C326.073 267.762 325.674 267.424 325.277 267.292Z" fill="#B3B3B3"/>
<path fill-rule="evenodd" clip-rule="evenodd" d="M85.9697 282.47C86.2626 282.177 86.7374 282.177 87.0303 282.47L93.5 288.939L99.9697 282.47C100.263 282.177 100.737 282.177 101.03 282.47C101.323 282.763 101.323 283.237 101.03 283.53L94.5607 290L101.03 296.47C101.323 296.763 101.323 297.237 101.03 297.53C100.737 297.823 100.263 297.823 99.9697 297.53L93.5 291.061L87.0303 297.53C86.7374 297.823 86.2626 297.823 85.9697 297.53C85.6768 297.237 85.6768 296.763 85.9697 296.47L92.4393 290L85.9697 283.53C85.6768 283.237 85.6768 282.763 85.9697 282.47Z" fill="#B3B3B3"/>
<path fill-rule="evenodd" clip-rule="evenodd" d="M19.4804 133.98C19.6757 133.785 19.9923 133.785 20.1875 133.98L24.5007 138.294L28.8138 133.98C29.009 133.785 29.3256 133.785 29.5209 133.98C29.7161 134.176 29.7161 134.492 29.5209 134.688L25.2078 139.001L29.5209 143.314C29.7161 143.509 29.7161 143.826 29.5209 144.021C29.3256 144.216 29.009 144.216 28.8138 144.021L24.5007 139.708L20.1875 144.021C19.9923 144.216 19.6757 144.216 19.4804 144.021C19.2852 143.826 19.2852 143.509 19.4804 143.314L23.7935 139.001L19.4804 134.688C19.2852 134.492 19.2852 134.176 19.4804 133.98Z" fill="#B3B3B3"/>
<path d="M215.03 37.4697C214.737 37.1768 214.263 37.1768 213.97 37.4696C213.677 37.7625 213.677 38.2374 213.97 38.5303L216.439 41.0003L213.97 43.4697C213.677 43.7626 213.677 44.2375 213.97 44.5304C214.263 44.8232 214.738 44.8232 215.031 44.5303L217.5 42.061L219.969 44.5303C220.262 44.8232 220.737 44.8232 221.03 44.5304C221.323 44.2375 221.323 43.7626 221.03 43.4697L218.561 41.0003L221.03 38.5303C221.323 38.2374 221.323 37.7625 221.03 37.4696C220.737 37.1768 220.263 37.1768 219.97 37.4697L217.5 39.9396L215.03 37.4697Z" fill="#B3B3B3"/>
<path fill-rule="evenodd" clip-rule="evenodd" d="M217.5 51.75C211.563 51.75 206.75 46.9371 206.75 41C206.75 35.0629 211.563 30.25 217.5 30.25C223.437 30.25 228.25 35.0629 228.25 41C228.25 46.9371 223.437 51.75 217.5 51.75ZM208.25 41C208.25 46.1086 212.391 50.25 217.5 50.25C222.609 50.25 226.75 46.1086 226.75 41C226.75 35.8914 222.609 31.75 217.5 31.75C212.391 31.75 208.25 35.8914 208.25 41Z" fill="#B3B3B3"/>
<path d="M151.853 313.647C151.658 313.452 151.341 313.452 151.146 313.647C150.951 313.842 150.951 314.159 151.146 314.354L152.793 316.001L151.147 317.647C150.951 317.842 150.951 318.159 151.147 318.354C151.342 318.549 151.658 318.549 151.854 318.354L153.5 316.708L155.146 318.354C155.341 318.549 155.658 318.549 155.853 318.354C156.048 318.159 156.048 317.842 155.853 317.647L154.207 316.001L155.853 314.354C156.048 314.159 156.048 313.842 155.853 313.647C155.658 313.452 155.341 313.452 155.146 313.647L153.5 315.294L151.853 313.647Z" fill="#B3B3B3"/>
<path fill-rule="evenodd" clip-rule="evenodd" d="M153.5 323.167C149.542 323.167 146.333 319.959 146.333 316.001C146.333 312.043 149.542 308.834 153.5 308.834C157.458 308.834 160.666 312.043 160.666 316.001C160.666 319.959 157.458 323.167 153.5 323.167ZM147.333 316.001C147.333 319.406 150.094 322.167 153.5 322.167C156.905 322.167 159.666 319.406 159.666 316.001C159.666 312.595 156.905 309.834 153.5 309.834C150.094 309.834 147.333 312.595 147.333 316.001Z" fill="#B3B3B3"/>
<path d="M450.03 126.53C450.323 126.237 450.323 125.763 450.03 125.47C449.737 125.177 449.263 125.177 448.97 125.47L446.5 127.939L444.03 125.47C443.737 125.177 443.263 125.177 442.97 125.47C442.677 125.763 442.677 126.238 442.97 126.531L445.439 129L442.97 131.469C442.677 131.762 442.677 132.237 442.97 132.53C443.263 132.823 443.737 132.823 444.03 132.53L446.5 130.061L448.97 132.53C449.263 132.823 449.737 132.823 450.03 132.53C450.323 132.237 450.323 131.763 450.03 131.47L447.56 129L450.03 126.53Z" fill="#B3B3B3"/>
<path fill-rule="evenodd" clip-rule="evenodd" d="M446.557 118.75H446.443C444.252 118.75 442.531 118.75 441.188 118.931C439.811 119.116 438.719 119.503 437.861 120.361C437.003 121.219 436.616 122.311 436.431 123.688C436.25 125.031 436.25 126.752 436.25 128.943V129.057C436.25 131.248 436.25 132.969 436.431 134.312C436.616 135.689 437.003 136.781 437.861 137.639C438.719 138.497 439.811 138.884 441.188 139.069C442.531 139.25 444.252 139.25 446.443 139.25H446.557C448.748 139.25 450.469 139.25 451.812 139.069C453.189 138.884 454.281 138.497 455.139 137.639C455.997 136.781 456.384 135.689 456.569 134.312C456.75 132.969 456.75 131.248 456.75 129.057V128.943C456.75 126.752 456.75 125.031 456.569 123.688C456.384 122.311 455.997 121.219 455.139 120.361C454.281 119.503 453.189 119.116 451.812 118.931C450.469 118.75 448.748 118.75 446.557 118.75ZM438.922 121.422C439.455 120.889 440.178 120.58 441.388 120.417C442.62 120.252 444.24 120.25 446.5 120.25C448.76 120.25 450.38 120.252 451.612 120.417C452.822 120.58 453.545 120.889 454.078 121.422C454.611 121.955 454.92 122.678 455.083 123.888C455.248 125.12 455.25 126.74 455.25 129C455.25 131.26 455.248 132.88 455.083 134.112C454.92 135.322 454.611 136.045 454.078 136.578C453.545 137.111 452.822 137.42 451.612 137.583C450.38 137.748 448.76 137.75 446.5 137.75C444.24 137.75 442.62 137.748 441.388 137.583C440.178 137.42 439.455 137.111 438.922 136.578C438.389 136.045 438.08 135.322 437.917 134.112C437.752 132.88 437.75 131.26 437.75 129C437.75 126.74 437.752 125.12 437.917 123.888C438.08 122.678 438.389 121.955 438.922 121.422Z" fill="#B3B3B3"/>
<path d="M410.53 278.53C410.823 278.237 410.823 277.763 410.53 277.47C410.237 277.177 409.763 277.177 409.47 277.47L407 279.939L404.53 277.47C404.237 277.177 403.763 277.177 403.47 277.47C403.177 277.763 403.177 278.238 403.47 278.531L405.939 281L403.47 283.469C403.177 283.762 403.177 284.237 403.47 284.53C403.763 284.823 404.237 284.823 404.53 284.53L407 282.061L409.47 284.53C409.763 284.823 410.237 284.823 410.53 284.53C410.823 284.237 410.823 283.763 410.53 283.47L408.06 281L410.53 278.53Z" fill="#B3B3B3"/>
<path fill-rule="evenodd" clip-rule="evenodd" d="M407.057 270.75H406.943C404.752 270.75 403.031 270.75 401.688 270.931C400.311 271.116 399.219 271.503 398.361 272.361C397.503 273.219 397.116 274.311 396.931 275.688C396.75 277.031 396.75 278.752 396.75 280.943V281.057C396.75 283.248 396.75 284.969 396.931 286.312C397.116 287.689 397.503 288.781 398.361 289.639C399.219 290.497 400.311 290.884 401.688 291.069C403.031 291.25 404.752 291.25 406.943 291.25H407.057C409.248 291.25 410.969 291.25 412.312 291.069C413.689 290.884 414.781 290.497 415.639 289.639C416.497 288.781 416.884 287.689 417.069 286.312C417.25 284.969 417.25 283.248 417.25 281.057V280.943C417.25 278.752 417.25 277.031 417.069 275.688C416.884 274.311 416.497 273.219 415.639 272.361C414.781 271.503 413.689 271.116 412.312 270.931C410.969 270.75 409.248 270.75 407.057 270.75ZM399.422 273.422C399.955 272.889 400.678 272.58 401.888 272.417C403.12 272.252 404.74 272.25 407 272.25C409.26 272.25 410.88 272.252 412.112 272.417C413.322 272.58 414.045 272.889 414.578 273.422C415.111 273.955 415.42 274.678 415.583 275.888C415.748 277.12 415.75 278.74 415.75 281C415.75 283.26 415.748 284.88 415.583 286.112C415.42 287.322 415.111 288.045 414.578 288.578C414.045 289.111 413.322 289.42 412.112 289.583C410.88 289.748 409.26 289.75 407 289.75C404.74 289.75 403.12 289.748 401.888 289.583C400.678 289.42 399.955 289.111 399.422 288.578C398.889 288.045 398.58 287.322 398.417 286.112C398.252 284.88 398.25 283.26 398.25 281C398.25 278.74 398.252 277.12 398.417 275.888C398.58 274.678 398.889 273.955 399.422 273.422Z" fill="#B3B3B3"/>
<path d="M286.033 13.8342C285.273 13.8342 284.7 13.2542 284.473 13.0275C284.167 12.7208 283.233 11.7942 283.907 10.6342C284.02 10.4342 284.18 10.2741 284.473 9.98081L285.64 8.81415C286.02 8.43415 286.32 8.13417 286.32 8.00083C286.32 7.8675 286.02 7.56752 285.64 7.18752L284.467 6.01418C284.173 5.72085 284.013 5.56082 283.9 5.36082C283.233 4.20082 284.16 3.27417 284.467 2.96751C284.773 2.66084 285.7 1.72748 286.86 2.40082C287.06 2.51415 287.22 2.67417 287.513 2.96751L288.68 4.13417C289.06 4.51417 289.36 4.81415 289.493 4.81415C289.627 4.81415 289.927 4.51417 290.307 4.13417L291.473 2.96751C291.767 2.67417 291.927 2.51415 292.127 2.40082C293.28 1.73415 294.213 2.66084 294.52 2.96751C294.827 3.27417 295.76 4.20082 295.087 5.36082C294.973 5.56082 294.813 5.72085 294.52 6.01418L293.353 7.18085C292.973 7.56085 292.673 7.86083 292.673 7.99416C292.673 8.12749 292.973 8.42751 293.353 8.80751L294.52 9.97418C294.813 10.2675 294.973 10.4275 295.087 10.6275C295.753 11.7875 294.827 12.7142 294.52 13.0209C294.213 13.3275 293.287 14.2608 292.127 13.5875C291.927 13.4742 291.767 13.3142 291.473 13.0209L290.307 11.8542C289.927 11.4742 289.627 11.1742 289.493 11.1742C289.36 11.1742 289.06 11.4742 288.68 11.8542L287.513 13.0209C287.22 13.3142 287.06 13.4742 286.86 13.5875C286.567 13.7542 286.287 13.8208 286.033 13.8208V13.8342ZM286.033 3.1675C285.813 3.1675 285.553 3.30084 285.18 3.67417C284.6 4.25417 284.593 4.55415 284.767 4.86082C284.813 4.94749 284.953 5.08085 285.173 5.30751L286.34 6.47418C286.947 7.08085 287.313 7.44749 287.313 7.99416C287.313 8.54083 286.947 8.90751 286.34 9.51418L285.173 10.6808C284.947 10.9075 284.813 11.0408 284.76 11.1275C284.587 11.4342 284.593 11.7341 285.167 12.3141C285.747 12.8941 286.047 12.9009 286.353 12.7275C286.44 12.6809 286.573 12.5408 286.8 12.3208L287.967 11.1542C288.573 10.5475 288.94 10.1808 289.487 10.1808C290.033 10.1808 290.4 10.5475 291.007 11.1542L292.173 12.3208C292.4 12.5475 292.533 12.6808 292.62 12.7341C292.927 12.9075 293.227 12.9008 293.807 12.3275C294.387 11.7475 294.393 11.4475 294.22 11.1408C294.173 11.0542 294.033 10.9208 293.813 10.6942L292.647 9.52748C292.04 8.92082 291.673 8.55417 291.673 8.00751C291.673 7.46084 292.04 7.09415 292.647 6.48749L293.82 5.31415C294.047 5.08748 294.18 4.95416 294.233 4.86749C294.407 4.56083 294.4 4.26085 293.827 3.68085C293.247 3.10085 292.947 3.09418 292.64 3.26752C292.553 3.31418 292.42 3.45417 292.193 3.67417L291.027 4.84084C290.42 5.44751 290.053 5.81415 289.507 5.81415C288.96 5.81415 288.593 5.44751 287.987 4.84084L286.82 3.67417C286.593 3.44751 286.46 3.31418 286.373 3.26084C286.267 3.20084 286.16 3.16083 286.04 3.16083L286.033 3.1675Z" fill="#B3B3B3"/>
<path d="M64.2999 87.7503C63.1599 87.7503 62.3 86.8803 61.96 86.5403C61.5 86.0803 60.0999 84.6903 61.1099 82.9503C61.2799 82.6503 61.52 82.4102 61.96 81.9702L63.71 80.2202C64.28 79.6502 64.7299 79.2003 64.7299 79.0003C64.7299 78.8003 64.28 78.3503 63.71 77.7803L61.9499 76.0203C61.5099 75.5803 61.2699 75.3403 61.0999 75.0403C60.0999 73.3003 61.4899 71.9103 61.9499 71.4503C62.4099 70.9903 63.7999 69.5902 65.5399 70.6002C65.8399 70.7702 66.08 71.0103 66.52 71.4503L68.27 73.2003C68.84 73.7703 69.2899 74.2202 69.4899 74.2202C69.6899 74.2202 70.14 73.7703 70.71 73.2003L72.46 71.4503C72.9 71.0103 73.1399 70.7702 73.4399 70.6002C75.1699 69.6002 76.57 70.9903 77.03 71.4503C77.49 71.9103 78.8899 73.3003 77.8799 75.0403C77.7099 75.3403 77.47 75.5803 77.03 76.0203L75.28 77.7703C74.71 78.3403 74.2599 78.7903 74.2599 78.9903C74.2599 79.1903 74.71 79.6403 75.28 80.2103L77.03 81.9603C77.47 82.4003 77.7099 82.6403 77.8799 82.9403C78.8799 84.6803 77.49 86.0703 77.03 86.5303C76.57 86.9903 75.1799 88.3903 73.4399 87.3803C73.1399 87.2103 72.9 86.9703 72.46 86.5303L70.71 84.7803C70.14 84.2103 69.6899 83.7603 69.4899 83.7603C69.2899 83.7603 68.84 84.2103 68.27 84.7803L66.52 86.5303C66.08 86.9703 65.8399 87.2103 65.5399 87.3803C65.0999 87.6303 64.6799 87.7303 64.2999 87.7303V87.7503ZM64.2999 71.7503C63.9699 71.7503 63.58 71.9503 63.02 72.5103C62.15 73.3803 62.14 73.8303 62.4 74.2903C62.47 74.4203 62.6799 74.6203 63.0099 74.9603L64.7599 76.7103C65.6699 77.6203 66.2199 78.1703 66.2199 78.9903C66.2199 79.8103 65.6699 80.3603 64.7599 81.2703L63.0099 83.0203C62.6699 83.3603 62.47 83.5603 62.39 83.6903C62.13 84.1503 62.1399 84.6002 62.9999 85.4702C63.8699 86.3402 64.32 86.3503 64.78 86.0903C64.91 86.0203 65.1099 85.8103 65.4499 85.4803L67.1999 83.7303C68.1099 82.8203 68.6599 82.2703 69.4799 82.2703C70.2999 82.2703 70.8499 82.8203 71.7599 83.7303L73.5099 85.4803C73.8499 85.8203 74.0499 86.0202 74.1799 86.1002C74.6399 86.3602 75.09 86.3503 75.96 85.4903C76.83 84.6203 76.84 84.1703 76.58 83.7103C76.51 83.5803 76.2999 83.3803 75.9699 83.0403L74.2199 81.2903C73.3099 80.3803 72.7599 79.8303 72.7599 79.0103C72.7599 78.1903 73.3099 77.6403 74.2199 76.7303L75.9799 74.9702C76.3199 74.6302 76.5199 74.4303 76.5999 74.3003C76.8599 73.8403 76.8499 73.3903 75.9899 72.5203C75.1199 71.6503 74.67 71.6403 74.21 71.9003C74.08 71.9703 73.8799 72.1803 73.5399 72.5103L71.7899 74.2603C70.8799 75.1703 70.3299 75.7202 69.5099 75.7202C68.6899 75.7202 68.1399 75.1703 67.2299 74.2603L65.4799 72.5103C65.1399 72.1703 64.9399 71.9703 64.8099 71.8903C64.6499 71.8003 64.4899 71.7403 64.3099 71.7403L64.2999 71.7503Z" fill="#B3B3B3"/>
<path fill-rule="evenodd" clip-rule="evenodd" d="M269.5 319.75C263.563 319.75 258.75 314.937 258.75 309C258.75 303.063 263.563 298.25 269.5 298.25C275.437 298.25 280.25 303.063 280.25 309C280.25 314.937 275.437 319.75 269.5 319.75ZM260.25 309C260.25 314.109 264.391 318.25 269.5 318.25C271.784 318.25 273.875 317.422 275.489 316.05L262.45 303.011C261.078 304.625 260.25 306.716 260.25 309ZM276.55 314.989C277.922 313.375 278.75 311.284 278.75 309C278.75 303.891 274.609 299.75 269.5 299.75C267.216 299.75 265.125 300.578 263.511 301.95L276.55 314.989Z" fill="#B3B3B3"/>
<path fill-rule="evenodd" clip-rule="evenodd" d="M363.5 47.75C357.563 47.75 352.75 42.9371 352.75 37C352.75 31.0629 357.563 26.25 363.5 26.25C369.437 26.25 374.25 31.0629 374.25 37C374.25 42.9371 369.437 47.75 363.5 47.75ZM354.25 37C354.25 42.1086 358.391 46.25 363.5 46.25C365.784 46.25 367.875 45.422 369.489 44.0497L356.45 31.011C355.078 32.6247 354.25 34.7157 354.25 37ZM370.55 42.989C371.922 41.3753 372.75 39.2843 372.75 37C372.75 31.8914 368.609 27.75 363.5 27.75C361.216 27.75 359.125 28.578 357.511 29.9503L370.55 42.989Z" fill="#B3B3B3"/>
<path fill-rule="evenodd" clip-rule="evenodd" d="M450.5 213.167C446.542 213.167 443.333 209.959 443.333 206.001C443.333 202.043 446.542 198.834 450.5 198.834C454.458 198.834 457.666 202.043 457.666 206.001C457.666 209.959 454.458 213.167 450.5 213.167ZM444.333 206.001C444.333 209.406 447.094 212.167 450.5 212.167C452.023 212.167 453.417 211.615 454.492 210.7L445.8 202.008C444.885 203.084 444.333 204.478 444.333 206.001ZM455.199 209.993C456.114 208.917 456.666 207.524 456.666 206.001C456.666 202.595 453.905 199.834 450.5 199.834C448.977 199.834 447.583 200.386 446.507 201.301L455.199 209.993Z" fill="#B3B3B3"/>
<path d="M9.53033 221.47C9.23744 221.177 8.76256 221.177 8.46967 221.47C8.17678 221.763 8.17678 222.237 8.46967 222.53L10.9393 225L8.46967 227.47C8.17678 227.763 8.17678 228.237 8.46967 228.53C8.76256 228.823 9.23744 228.823 9.53033 228.53L12 226.061L14.4697 228.53C14.7626 228.823 15.2374 228.823 15.5303 228.53C15.8232 228.237 15.8232 227.763 15.5303 227.47L13.0607 225L15.5303 222.53C15.8232 222.237 15.8232 221.763 15.5303 221.47C15.2374 221.177 14.7626 221.177 14.4697 221.47L12 223.939L9.53033 221.47Z" fill="#B3B3B3"/>
<path fill-rule="evenodd" clip-rule="evenodd" d="M2.25 225C2.25 219.615 6.61522 215.25 12 215.25C17.3848 215.25 21.75 219.615 21.75 225C21.75 227.422 20.8666 229.639 19.4043 231.344L23.5303 235.47C23.8232 235.763 23.8232 236.237 23.5303 236.53C23.2374 236.823 22.7626 236.823 22.4697 236.53L18.3437 232.404C16.6385 233.867 14.4224 234.75 12 234.75C6.61522 234.75 2.25 230.385 2.25 225ZM12 216.75C7.44365 216.75 3.75 220.444 3.75 225C3.75 229.556 7.44365 233.25 12 233.25C16.5563 233.25 20.25 229.556 20.25 225C20.25 220.444 16.5563 216.75 12 216.75Z" fill="#B3B3B3"/>
<path d="M111.187 25.9804C110.991 25.7852 110.675 25.7852 110.479 25.9804C110.284 26.1757 110.284 26.4923 110.479 26.6875L112.126 28.334L110.479 29.9804C110.284 30.1757 110.284 30.4923 110.479 30.6875C110.675 30.8828 110.991 30.8828 111.187 30.6875L112.833 29.0411L114.479 30.6875C114.675 30.8828 114.991 30.8828 115.187 30.6875C115.382 30.4923 115.382 30.1757 115.187 29.9804L113.54 28.334L115.187 26.6875C115.382 26.4923 115.382 26.1757 115.187 25.9804C114.991 25.7852 114.675 25.7852 114.479 25.9804L112.833 27.6269L111.187 25.9804Z" fill="#B3B3B3"/>
<path fill-rule="evenodd" clip-rule="evenodd" d="M106.333 28.334C106.333 24.7441 109.243 21.834 112.833 21.834C116.423 21.834 119.333 24.7441 119.333 28.334C119.333 29.9489 118.744 31.4263 117.769 32.5631L120.52 35.3138C120.715 35.509 120.715 35.8256 120.52 36.0209C120.325 36.2161 120.008 36.2161 119.813 36.0209L117.062 33.2702C115.925 34.245 114.448 34.834 112.833 34.834C109.243 34.834 106.333 31.9238 106.333 28.334ZM112.833 22.834C109.795 22.834 107.333 25.2964 107.333 28.334C107.333 31.3716 109.795 33.834 112.833 33.834C115.871 33.834 118.333 31.3716 118.333 28.334C118.333 25.2964 115.871 22.834 112.833 22.834Z" fill="#B3B3B3"/>
</svg>
