<svg width="13" height="12" viewBox="0 0 13 12" fill="none" xmlns="http://www.w3.org/2000/svg">
<path fill-rule="evenodd" clip-rule="evenodd" d="M12.1318 4.01503C11.8138 2.86921 11.6534 1.66957 11.5065 0.505836C11.4757 0.255186 11.6476 0.0224751 11.8898 0.00457162C12.1321 -0.0312354 12.3538 0.147905 12.3846 0.380651C12.526 1.50857 12.6774 2.6722 12.9835 3.76431C13.0499 3.99706 12.9132 4.24781 12.6781 4.31943C12.4432 4.39104 12.1983 4.24778 12.1318 4.01503Z" fill="#2BB572"/>
<path fill-rule="evenodd" clip-rule="evenodd" d="M7.6239 7.48848C5.76313 5.64441 4.14187 3.5676 2.23118 1.75935C2.05273 1.59821 2.04317 1.31176 2.20976 1.13272C2.37652 0.953687 2.65694 0.935854 2.83539 1.11489C4.75157 2.92315 6.37813 4.99996 8.24439 6.84402C8.41859 7.02306 8.42107 7.30944 8.2497 7.48848C8.07851 7.64961 7.7981 7.66751 7.6239 7.48848Z" fill="#2BB572"/>
<path fill-rule="evenodd" clip-rule="evenodd" d="M0.466611 10.9435C1.53163 10.9972 2.59665 11.0508 3.66184 11.1045C3.90579 11.1045 4.09415 11.3194 4.08229 11.5701C4.07025 11.8207 3.8626 11.9997 3.61847 11.9997C2.55168 11.9459 1.48507 11.8923 0.418458 11.8386C0.17451 11.8207 -0.0126123 11.6059 0.000665057 11.3552C0.0139424 11.1225 0.22284 10.9256 0.466611 10.9435Z" fill="#2BB572"/>
</svg>
