<?xml version="1.0" encoding="UTF-8"?>
<svg xmlns="http://www.w3.org/2000/svg" xmlns:xlink="http://www.w3.org/1999/xlink" viewBox="0 0 1017.33 806.04">
  <defs>
    <linearGradient id="linear-gradient" x1="142.63" y1="428.66" x2="876.39" y2="428.66" gradientUnits="userSpaceOnUse">
      <stop offset=".12" stop-color="#3213e9" />
      <stop offset=".25" stop-color="#4750eb" />
      <stop offset=".34" stop-color="#662d91" />
      <stop offset=".53" stop-color="#914b79" />
      <stop offset=".6" stop-color="#ed8c45" />
      <stop offset=".78" stop-color="#e07700" />
      <stop offset="1" stop-color="#e05140" />
    </linearGradient>
    <linearGradient id="linear-gradient-2" x1="606.76" y1="287.72" x2="995.5" y2="287.72"
      gradientUnits="userSpaceOnUse">
      <stop offset="0" stop-color="#f59c4e" />
      <stop offset="1" stop-color="#dd7026" />
    </linearGradient>
    <linearGradient id="linear-gradient-3" x1="339.01" y1="223.96" x2="547.36" y2="223.96"
      gradientUnits="userSpaceOnUse">
      <stop offset="0" stop-color="#3150b5" />
      <stop offset="1" stop-color="#6446c1" />
    </linearGradient>
    <linearGradient id="linear-gradient-4" x1="523.5" y1="630.94" x2="726.17" y2="630.94"
      xlink:href="#linear-gradient-3" />
    <linearGradient id="linear-gradient-5" x1="12.01" y1="633.35" x2="460.63" y2="633.35"
      gradientTransform="translate(74.95 -23.11) rotate(6.65)" xlink:href="#linear-gradient-3" />
    <clipPath id="clippath-3">
      <path
        d="M302.88,498.44c-1.42.16-2.41,1.52-2.09,2.92,2.64,11.52,13.57,19.46,25.59,18.1s20.89-11.56,20.88-23.38c0-1.43-1.27-2.53-2.69-2.37l-41.69,4.74Z"
        fill="#af1137" />
    </clipPath>
  </defs>
  <g id="Layer_2" data-name="Layer 2">
    <path
      d="M665.18,192.87c1.32.12,2.18.45,3.17-.46,4.24-3.92-20.28-17.13-23.6-18.46-15.91-6.41-34.94-6.25-51.78-5.68-88.89,2.99-182.07,35.76-246.49,98.33-61.5,59.73-95.7,142.7-102.06,227.56-.27,3.67-.51,7.34-.71,11.01-21.88,400.76-178.92,10.84-38.04,48.56,2.86.76-51.69-5.79-52.58-1.17-1.11,5.8,55.07,20.22,58.5,23.09,17.03,14.26,29.06,33.07,43.04,50.08,15.52,18.88,31.51,30.03,54.4,38.39,77.53,28.3,165.39,32.67,245.62,13.6,74.18-17.64,141.91-59.49,192.04-116.79,56.91-65.04,74.83-137.31,92.02-219.57,2.73-13.06,6.53-25.96,13.06-37.67,10.2-18.3,2.86-29.11,11.32-48.27,8.97-20.33,4.42-33.35,7.35-55.73,6.59-50.3-22.77,66.5-28.95,65.63.02,0-.43.27-.45.29,1.73-2.84,14.67-21.47,15.13-21.18,0,0-62.33-39.54-190.98-51.54Z"
      fill="none" stroke="url(#linear-gradient)" stroke-miterlimit="12" stroke-width="10" />
  </g>
  <g id="Layer_6" data-name="Layer 6">
    <rect x="606.76" y="142.05" width="388.74" height="291.35" rx="9.78" ry="9.78" fill="url(#linear-gradient-2)" />
    <path
      d="M980.77,143.27v264.35c0,7.46-6.03,13.5-13.5,13.5h-361.74c-7.46,0-13.5-6.05-13.5-13.5V143.27c0-7.46,6.05-13.5,13.5-13.5h361.74c7.47,0,13.5,6.05,13.5,13.5Z"
      fill="#fff1e1" stroke="#f9c198" stroke-miterlimit="10" />
    <g>
      <circle cx="443.18" cy="223.96" r="104.17" fill="url(#linear-gradient-3)" />
      <g>
        <rect x="423.58" y="181.11" width="39.91" height="75.97" rx="15.59" ry="15.59" fill="none" stroke="#fff"
          stroke-miterlimit="10" stroke-width="3" />
        <path d="M409.77,236.55s-.51,32.04,33.13,34.92c0,0,30.88-1.51,33.37-32.78" fill="none" stroke="#fff"
          stroke-linecap="round" stroke-miterlimit="10" stroke-width="3" />
        <line x1="442.89" y1="271.47" x2="442.89" y2="283.8" fill="none" stroke="#fff" stroke-miterlimit="10"
          stroke-width="3" />
        <line x1="423.82" y1="286.53" x2="461.95" y2="286.53" fill="none" stroke="#fff" stroke-linecap="round"
          stroke-miterlimit="10" stroke-width="3" />
      </g>
      <path d="M499.27,181.35s15.96,38.09,3.79,69.01" fill="none" stroke="#fff" stroke-linecap="round"
        stroke-miterlimit="10" stroke-width="3" />
      <path d="M384.16,181.35s-15.96,38.09-3.79,69.01" fill="none" stroke="#fff" stroke-linecap="round"
        stroke-miterlimit="10" stroke-width="3" />
    </g>
    <rect x="531.77" y="300.04" width="110.74" height="42.05" rx="18.68" ry="18.68"
      transform="translate(-29.71 61.62) rotate(-5.86)" fill="#f9bb9b" />
    <rect x="600.04" y="278.34" width="153.18" height="42.22" rx="18.75" ry="18.75"
      transform="translate(1413.76 363.73) rotate(161.11)" fill="#f9bb9b" />
    <circle cx="540.88" cy="326.31" r="31.04" fill="#f9bb9b" />
    <path
      d="M711.11,42.12h73.21c32.92,0,59.65,26.73,59.65,59.65v43.03c0,29.05-23.59,52.64-52.64,52.64h-88.85c-28.65,0-51.92-23.26-51.92-51.92v-42.86c0-33.42,27.13-60.55,60.55-60.55Z"
      transform="translate(-8.17 74.25) rotate(-5.66)" fill="#601d1c" />
    <path
      d="M826.54,150.83l2.55,25.71c.33,3.31.39,6.57.21,9.79-1.68,30.46-25.36,55.97-56.65,59.07l-27.52,2.73c-38.69,3.83-73.16-24.43-77-63.12l-1.81-18.32c-3.83-38.69,24.43-73.16,63.12-77l20.1-1.99c38.7-3.83,73.18,24.43,77.01,63.13Z"
      fill="#f9bb9b" />
    <path
      d="M723.99,244.14h69.59c2.51,0,4.55,2.04,4.55,4.55v19.96c0,1.2-.98,2.18-2.18,2.18h-74.81c-.94,0-1.7-.76-1.7-1.7v-20.44c0-2.51,2.04-4.55,4.55-4.55Z"
      transform="translate(-21.69 76.06) rotate(-5.66)" fill="#ed8c45" />
    <rect x="694.31" y="267.93" width="138.36" height="72.29" rx="32.11" ry="32.11"
      transform="translate(-26.26 76.75) rotate(-5.66)" fill="#ed8c45" />
    <polygon
      points="838 421.13 768.14 421.13 768.04 427.31 768.03 428.22 766.77 421.13 751.68 336.01 769.4 334.73 769.61 334.71 821.54 330.96 838 421.13"
      fill="#19359b" />
    <polygon
      points="769.61 334.59 769.61 334.71 769.58 336.48 768.14 421.13 768.04 427.31 768.03 428.22 766.77 421.13 705.35 421.13 713.59 334.79 769.61 334.59"
      fill="#19359b" />
    <rect x="708.62" y="329.59" width="115.7" height="17.62" rx="1.56" ry="1.56"
      transform="translate(-29.63 77.21) rotate(-5.66)" fill="#fff" />
    <rect x="715.3" y="333.51" width="12.98" height="22.02" rx="1.13" ry="1.13"
      transform="translate(-30.45 72.84) rotate(-5.66)" fill="#19359b" />
    <rect x="750.54" y="329.19" width="16.66" height="22.02" rx="1.69" ry="1.69"
      transform="translate(-29.84 76.47) rotate(-5.66)" fill="#19359b" />
    <rect x="803.63" y="323.47" width="15.32" height="22.02" rx="1.47" ry="1.47"
      transform="translate(-29.02 81.61) rotate(-5.66)" fill="#19359b" />
    <g>
      <g>
        <circle cx="765.46" cy="153.94" r="24.91" fill="#fff" />
        <path
          d="M746.19,138.03c14.02-18.94,44-9.98,46.17,13.32.62,6.94-1.92,14.07-6.74,18.76-.2.19-.52.19-.71,0-.17-.17-.19-.43-.06-.62,6.95-10.55,5.57-25.39-4.29-33.42-9.64-8.3-25.18-6.92-33.59,2.61-.39.46-1.15-.15-.78-.63h0Z"
          fill="#601d1c" />
        <circle cx="759.99" cy="159.75" r="17.96" fill="#601d1c" />
      </g>
      <circle cx="777.71" cy="152.52" r="4.33" fill="#fff" />
    </g>
    <g>
      <g>
        <circle cx="692.53" cy="159.57" r="24.91" fill="#fff" />
        <path
          d="M711.3,144.62c-8.24-9.67-23.75-11.33-33.54-3.2-10,7.85-11.64,22.66-4.88,33.33.15.24.07.55-.17.69-.2.12-.46.09-.62-.07-4.74-4.77-7.15-11.95-6.41-18.87.69-6.95,4.46-13.5,9.98-17.74,11.12-8.82,28.47-6.49,36.42,5.25.34.51-.37,1.07-.79.62h0Z"
          fill="#601d1c" />
        <circle cx="689.13" cy="164.34" r="17.96" fill="#601d1c" />
      </g>
      <circle cx="703.36" cy="153.92" r="4.33" fill="#fff" />
    </g>
    <circle cx="725.34" cy="186.91" r="4.86" fill="#e89c7c" />
    <path
      d="M752.78,355.26h3.66c4.66,0,8.45,3.78,8.45,8.45v24.58c0,.64-.52,1.17-1.17,1.17h-10.94c-.64,0-1.17-.52-1.17-1.17v-31.86c0-.64.52-1.17,1.17-1.17Z"
      transform="translate(1549.52 668.14) rotate(174.34)" fill="#4262bc" />
    <path
      d="M759.83,69.66l-26.84,2.66c.06.18.14.37.2.55l-13.61,1.35c-37.8,3.74-65.84,35.92-64.66,72.98.09,2.88.63,5.74,1.52,8.48l1.71,5.25c9.63-13.97,19.28-28.9,33.86-35.33,15.61-6.9,30.41-16.59,41.82-29.36,1.56-1.75,3.02-3.59,4.44-5.45.58-.76,1.7-3.67,2.81-2,1.36,2.03,2.74,4.03,4.21,5.97,1.52,2,3.13,4.65,5.08,6.24,5.72,6.59,12.13,12.58,19.09,17.86,2.04,1.55,4.13,3.04,6.26,4.47,20.44,13.69,44.82,40.02,64.81,56.86.21-3.58.14-7.21-.23-10.89l-3.65-36.84c-3.81-38.5-38.21-66.62-76.84-62.79Z"
      fill="#601d1c" />
    <circle cx="765.96" cy="53.82" r="43.48" fill="#601d1c" />
    <circle cx="829.15" cy="161.36" r="22.51" fill="#f9bb9b" />
    <path d="M731.88,218.79s27.99,4,42.61-19.32" fill="none" stroke="#601d1c" stroke-linecap="round"
      stroke-miterlimit="10" stroke-width="2" />
    <g>
      <circle cx="624.83" cy="630.94" r="101.34" fill="url(#linear-gradient-4)" />
      <g>
        <rect x="569.87" y="596.47" width="82.19" height="68.94" rx="6.06" ry="6.06" fill="none" stroke="#fff"
          stroke-miterlimit="10" stroke-width="3" />
        <path
          d="M657.53,619.11v22.81c0,2.4,1.27,4.59,3.28,5.67l18.17,9.79c3.94,2.12,8.62-.86,8.7-5.55l.77-42.72c.09-4.79-4.65-7.96-8.68-5.8l-18.94,10.12c-2.02,1.08-3.3,3.28-3.3,5.68Z"
          fill="none" stroke="#fff" stroke-miterlimit="10" stroke-width="3" />
      </g>
    </g>
    <rect x="735.56" y="364.66" width="103.24" height="35.17" rx="15.62" ry="15.62"
      transform="translate(45.24 846.24) rotate(-57.92)" fill="#f9bb9b" />
    <rect x="758.84" y="301.11" width="102.79" height="35.17" rx="15.62" ry="15.62"
      transform="translate(1241.18 -437.83) rotate(98.2)" fill="#f9bb9b" />
    <circle cx="758.87" cy="418.9" r="21.78" fill="#f9bb9b" />
    <g>
      <rect x="26.23" y="487.76" width="420.19" height="291.17" rx="11.32" ry="11.32"
        transform="translate(-71.77 31.64) rotate(-6.65)" fill="url(#linear-gradient-5)" />
      <path
        d="M459.73,737.74l-66.52,7.75-2.6.31-31.63,3.7-11.85,1.38-33.44,3.9-15.27,1.78-24,2.8-21.92,2.55-7.71.89-4.17.48-171.7,20.04c-7.33.84-13.97-4.41-14.83-11.75l-30.62-262.63c-.86-7.35,4.39-13.98,11.73-14.85l390.79-45.58c7.35-.85,13.97,4.41,14.83,11.75l30.64,262.63c.85,7.35-4.41,13.98-11.74,14.85Z"
        fill="#e6effc" stroke="#b8bbf4" stroke-miterlimit="10" />
      <rect x="213.9" y="543.65" width="187.56" height="204.86" rx="57.61" ry="57.61"
        transform="translate(7.16 -3.36) rotate(.63)" fill="#19359b" />
      <g>
        <circle cx="354.74" cy="474.53" r="21.52" fill="#5b1111" />
        <circle cx="364.17" cy="461.41" r="21.52" fill="#5b1111" />
        <circle cx="261.03" cy="487.14" r="21.52" fill="#5b1111" />
        <circle cx="242.94" cy="473.47" r="21.52" fill="#5b1111" />
        <circle cx="245.7" cy="468.12" r="21.52" fill="#5b1111" />
      </g>
      <g>
        <circle cx="256.71" cy="477.57" r="11.64" fill="#fca072" />
        <circle cx="256.71" cy="477.57" r="4.22" fill="#ea6d42" />
      </g>
      <circle cx="365.87" cy="465.16" r="11.64" fill="#fca072" />
      <g>
        <g>
          <polygon points="488.1 522.5 535.2 495.52 558.03 527.33 508.58 555.14 488.1 522.5" fill="#086465" />
          <path
            d="M358.91,596.5c-9.17,5.25-11.54,16.71-5.26,25.46h0c6.28,8.75,18.92,11.61,28.09,6.35l141.76-81.63-21.66-32.05-142.93,81.87Z"
            fill="#009161" />
        </g>
        <g>
          <path
            d="M514.68,505.85l22.97,33.33c.43.63.25,1.43-.41,1.8l-5.66,3.1c-.66.36-1.55.14-1.98-.49l-22.97-33.33c-.43-.63-.25-1.43.41-1.8l5.66-3.1c.66-.36,1.55-.14,1.98.49Z"
            fill="#232323" />
          <path
            d="M515.66,502.52l1.95,2.83c.93,1.35.53,3.07-.88,3.85l-9.57,5.23c-1.42.77-3.32.31-4.25-1.04l-1.95-2.83c-.93-1.35-.53-3.07.88-3.85l9.57-5.23c1.42-.77,3.32-.31,4.25,1.04Z"
            fill="#191919" />
          <path
            d="M515.13,503.46l.06.09c.93,1.35.53,3.07-.88,3.85l-7.85,4.29c-1.42.77-3.32.31-4.25-1.04l-.06-.09c-.93-1.35-.53-3.07.88-3.85l7.85-4.29c1.42-.77,3.32-.31,4.25,1.04Z"
            fill="#2d2d2d" />
        </g>
      </g>
      <path
        d="M363.39,572.15l-88.01.61-7.51-26.96c.04-3.96.65-7.37,4.56-7.33l92.99,1.03c3.68.04,6.64,3.1,6.59,6.82l-8.62,25.83Z"
        fill="#03514f" />
      <path
        d="M285.71,564.29h67.56c29.7,0,53.81,24.11,53.81,53.81v96.13c0,5.09-4.13,9.22-9.22,9.22h-156.74c-5.09,0-9.22-4.13-9.22-9.22v-96.13c0-29.7,24.11-53.81,53.81-53.81Z"
        transform="translate(7.14 -3.49) rotate(.63)" fill="#009969" />
      <path
        d="M397.32,724.33l-.25,23.31-33.23,3.88-12.45,1.45-35.13,4.09-16.04,1.87-25.21,2.94-23.03,2.68-8.1.93-4.38.51c-.05-1.17-.07-2.35-.06-3.52l.46-39.92,157.42,1.76Z"
        fill="#01243d" />
      <path
        d="M327.21,582.91l-3.25,1.43-3.5-.66c-12.76,1.45-24.28-7.72-25.73-20.48l-4.56-40.14,52.97-6.02,4.56,40.14c1.45,12.76-7.72,24.28-20.48,25.73Z"
        fill="#ff865c" />
      <circle cx="372.39" cy="446.01" r="21.52" fill="#5b1111" />
      <path
        d="M276.92,420.23h69.94c9.16,0,16.59,7.43,16.59,16.59v63.33c0,19.89-16.14,36.03-36.03,36.03h-27.92c-21.62,0-39.17-17.55-39.17-39.17v-60.18c0-9.16,7.43-16.59,16.59-16.59Z"
        transform="translate(-51.99 38.26) rotate(-6.48)" fill="#fca072" />
      <rect x="322.2" y="478.26" width="6.71" height="8.59" rx="2.7" ry="2.7"
        transform="translate(-52.39 39.83) rotate(-6.48)" fill="#f77754" />
      <circle cx="281.87" cy="367.16" r="38.8" fill="#5b1111" />
      <circle cx="281.29" cy="404.3" r="29.07" fill="#5b1111" />
      <circle cx="321.14" cy="396" r="29.07" fill="#5b1111" />
      <circle cx="360.43" cy="383.98" r="27.25" fill="#5b1111" />
      <circle cx="334.92" cy="356.84" r="23.15" fill="#5b1111" />
      <circle cx="238.63" cy="394.04" r="27.54" fill="#5b1111" />
      <circle cx="240.95" cy="435.05" r="34.23" fill="#5b1111" />
      <circle cx="363.82" cy="407.59" r="27.25" fill="#5b1111" />
      <circle cx="253.07" cy="462.78" r="22.95" fill="#5b1111" />
      <g>
        <rect x="288.51" y="449.34" width="22.67" height="29.12" rx="8.17" ry="8.17"
          transform="translate(-50.45 36.81) rotate(-6.48)" fill="#fff" />
        <rect x="292.71" y="453.31" width="14.06" height="21.8" rx="5.95" ry="5.95"
          transform="translate(-50.48 36.8) rotate(-6.48)" fill="#19359b" />
        <circle cx="294.43" cy="456.19" r="2.29" fill="#fff" />
      </g>
      <g>
        <rect x="332.29" y="444.07" width="22.67" height="29.12" rx="7.55" ry="7.55"
          transform="translate(-49.57 41.72) rotate(-6.48)" fill="#fff" />
        <rect x="336.49" y="448.04" width="14.06" height="21.8" rx="5.95" ry="5.95"
          transform="translate(-49.61 41.71) rotate(-6.48)" fill="#19359b" />
        <circle cx="338.21" cy="450.92" r="2.29" fill="#fff" />
      </g>
      <rect x="325.84" y="431.33" width="25.64" height="9.28" rx="2.85" ry="2.85"
        transform="translate(-47.05 41.01) rotate(-6.48)" fill="#5b1111" />
      <rect x="281.21" y="433.85" width="25.64" height="9.28" rx="2.85" ry="2.85"
        transform="translate(-47.62 35.99) rotate(-6.48)" fill="#5b1111" />
      <g>
        <g>
          <circle cx="300.09" cy="465.01" r="17.71" transform="translate(-153.55 147.99) rotate(-22.22)" fill="#99fff5"
            opacity=".43" />
          <path
            d="M296.97,445.13c-10.98,1.73-18.48,12.02-16.75,23,1.73,10.98,12.02,18.48,23,16.75,10.98-1.73,18.48-12.02,16.75-23-1.73-10.98-12.02-18.48-23-16.75ZM302.84,482.51c-9.66,1.52-18.73-5.08-20.25-14.75-1.52-9.66,5.08-18.73,14.75-20.25,9.66-1.52,18.73,5.08,20.25,14.75,1.52,9.66-5.08,18.73-14.75,20.25Z"
            fill="#19359b" />
          <path
            d="M340.14,438.52c-10.98,1.73-18.48,12.02-16.75,23s12.02,18.48,23,16.75c10.98-1.73,18.48-12.02,16.75-23-1.73-10.98-12.02-18.48-23-16.75ZM346.02,475.89c-9.66,1.52-18.73-5.08-20.25-14.75-1.52-9.66,5.08-18.73,14.75-20.25,9.66-1.52,18.73,5.08,20.25,14.75s-5.08,18.73-14.75,20.25Z"
            fill="#19359b" />
          <circle cx="343.27" cy="458.39" r="17.71" transform="translate(-147.84 163.83) rotate(-22.22)" fill="#99fff5"
            opacity=".43" />
        </g>
        <g>
          <rect x="317.85" y="460.62" width="7.22" height="3.1" rx=".98" ry=".98"
            transform="translate(-67.88 55.53) rotate(-8.93)" fill="#3c66dd" />
          <path
            d="M279.82,470.22l-7.38,1.23c-.84.13-1.64-.44-1.77-1.29h0c-.13-.84.44-1.64,1.29-1.77l7.14-1.12c.84-.13,1.64.44,1.77,1.29h0c.13.84-.2,1.53-1.05,1.67Z"
            fill="#19359b" />
        </g>
      </g>
      <g>
        <circle cx="357.72" cy="491.43" r="2.13" fill="#ff865c" />
        <circle cx="351.83" cy="488.34" r=".89" fill="#ff865c" />
        <circle cx="354.17" cy="482.17" r="1.42" fill="#ff865c" />
        <circle cx="356.58" cy="475.09" r="1.07" fill="#ff865c" />
        <circle cx="346.23" cy="481.64" r="1.42" fill="#ff865c" />
        <circle cx="337.87" cy="480.44" r="1.07" fill="#ff865c" />
        <circle cx="291.43" cy="487.51" r="1.78" fill="#ff865c" />
        <circle cx="283.67" cy="490" r="1.24" fill="#ff865c" />
        <circle cx="288.27" cy="495.92" r="1.24" fill="#ff865c" />
        <circle cx="283.22" cy="500.25" r="1.78" fill="#ff865c" />
        <circle cx="280.55" cy="484.63" r=".89" fill="#ff865c" />
        <circle cx="277.93" cy="493.24" r="1.39" fill="#ff865c" />
        <circle cx="275.46" cy="487.91" r="1.39" fill="#ff865c" />
        <circle cx="276.71" cy="498.99" r="1.39" fill="#ff865c" />
        <circle cx="271.88" cy="493.46" r=".93" fill="#ff865c" />
        <circle cx="343.87" cy="485.28" r=".93" fill="#ff865c" />
        <circle cx="361.7" cy="477.65" r=".93" fill="#ff865c" />
        <circle cx="360.59" cy="484.32" r=".93" fill="#ff865c" />
      </g>
      <g>
        <path
          d="M302.88,498.44c-1.42.16-2.41,1.52-2.09,2.92,2.64,11.52,13.57,19.46,25.59,18.1s20.89-11.56,20.88-23.38c0-1.43-1.27-2.53-2.69-2.37l-41.69,4.74Z"
          fill="#af1137" />
        <g clip-path="url(#clippath-3)">
          <path d="M303.4,495.31h40.49v3.27c0,2.87-2.33,5.2-5.2,5.2h-30.08c-2.87,0-5.2-2.33-5.2-5.2v-3.27h0Z"
            transform="translate(-54.32 39.73) rotate(-6.48)" fill="#fff" />
          <path d="M305.18,511h40.49v3.27c0,2.87-2.33,5.2-5.2,5.2h-30.08c-2.87,0-5.2-2.33-5.2-5.2v-3.27h0Z"
            transform="translate(706.93 990.44) rotate(173.52)" fill="#fff" />
        </g>
      </g>
      <g>
        <path
          d="M374.74,572.75c1.15-.28,1.98-1.27,2.03-2.45.18-4.04.22-13.91-2.47-27.04-.6-2.95-3.69-4.7-6.53-3.68-10.65,3.82-13.65,13.91-23.77,43.27-.08.22.13.45.35.39l30.38-10.49Z"
          fill="#036162" />
        <path
          d="M265.69,571.52c-1.15-.29-1.97-1.29-2.01-2.47-.14-4.04-.07-13.91,2.91-26.98.67-2.94,3.79-4.62,6.61-3.54,10.57,4.06,61.65,15.13,71.15,44.71.07.22-.13.44-.36.39-29.9,3.89-57.41,2.8-78.3-12.11Z"
          fill="#036162" />
      </g>
      <g>
        <rect x="333.47" y="579.09" width="3.69" height="79.58" rx="1.13" ry="1.13"
          transform="translate(6.86 -3.67) rotate(.63)" fill="#fff" />
        <rect x="327.46" y="636.53" width="15.28" height="3.16" rx=".97" ry=".97"
          transform="translate(7.08 -3.67) rotate(.63)" fill="#fff" />
        <rect x="329.02" y="639.17" width="12.12" height="3.16" rx=".97" ry=".97"
          transform="translate(7.11 -3.67) rotate(.63)" fill="#fff" />
      </g>
      <g>
        <path
          d="M351.04,580.75c.01-1.02.85-1.84,1.86-1.82h0c1.02.01,1.84.85,1.82,1.86l-.84,75.89c-.01,1.02-.85,1.84-1.86,1.82h0c-1.02-.01-1.84-.85-1.82-1.86"
          fill="#fff" />
        <rect x="344.61" y="636.37" width="15.28" height="3.16" rx=".97" ry=".97"
          transform="translate(7.08 -3.86) rotate(.63)" fill="#fff" />
        <rect x="346.16" y="639.01" width="12.12" height="3.16" rx=".97" ry=".97"
          transform="translate(7.11 -3.86) rotate(.63)" fill="#fff" />
      </g>
      <g>
        <path
          d="M390.36,714l-1.46-.02c-3.44-.04-6.21-2.86-6.17-6.31,5.03-47.54,6.96-91.51,1.4-126.86.04-3.44,2.86-6.21,6.31-6.17l1.46.02c3.44.04,6.21,2.86,6.17,6.31,3.98,36.71,2.56,80.19-1.4,126.86-.04,3.44-2.86,6.21-6.31,6.17Z"
          fill="#19359b" />
        <rect x="274.97" y="576.13" width="13.93" height="139.34" rx="4.28" ry="4.28"
          transform="translate(7.16 -3.08) rotate(.63)" fill="#19359b" />
      </g>
      <circle cx="558.03" cy="505.19" r="26.31" fill="#fca072" />
      <g>
        <path
          d="M309.76,758.42c-9.87,8.45-24.71,7.33-33.16-2.53l-18.2-21.19-21.8-25.4c-8.46-9.85-7.33-24.7,2.53-33.16,3.75-3.22,8.23-5.05,12.8-5.53,7.44-.79,15.13,1.95,20.36,8.06l21.8,25.4,18.2,21.19c8.45,9.86,7.33,24.7-2.53,33.16Z"
          fill="#028958" />
        <path
          d="M309.76,758.42c-9.87,8.45-24.71,7.33-33.16-2.53l-18.2-21.19,35.69-30.64,18.2,21.19c8.45,9.86,7.33,24.7-2.53,33.16Z"
          fill="#086465" />
        <circle cx="306.64" cy="753.56" r="26.31" fill="#fca072" />
      </g>
      <rect x="233.41" y="581.17" width="45.13" height="132.45" rx="18.19" ry="18.19"
        transform="translate(36.79 -13.36) rotate(3.22)" fill="#028958" />
    </g>
  </g>
</svg>