<svg width="192" height="101" viewBox="0 0 192 101" fill="none" xmlns="http://www.w3.org/2000/svg">
<g clip-path="url(#clip0_17548_17911)">
<path d="M30.1113 4.67773H72.3079" stroke="white" stroke-width="1.5" stroke-miterlimit="10"/>
<path d="M71.41 39.4276H31.009C30.5132 39.4276 30.1113 39.0251 30.1113 38.5285V1.06319C30.1113 0.566642 30.5132 0.164062 31.009 0.164062H71.41C71.9057 0.164062 72.3077 0.566642 72.3077 1.06319V38.5283C72.3077 39.0251 71.9057 39.4276 71.41 39.4276Z" stroke="white" stroke-width="1.5" stroke-miterlimit="10"/>
<path d="M34.5115 2.46761C34.5115 2.81543 34.23 3.09754 33.8826 3.09754C33.5353 3.09754 33.2539 2.81565 33.2539 2.46761C33.2539 2.11957 33.5353 1.83789 33.8826 1.83789C34.23 1.83767 34.5115 2.11978 34.5115 2.46761Z" fill="#3B3332"/>
<path d="M36.9548 2.46761C36.9548 2.81543 36.6734 3.09754 36.3259 3.09754C35.9785 3.09754 35.6973 2.81565 35.6973 2.46761C35.6973 2.11957 35.9787 1.83789 36.3259 1.83789C36.6732 1.83789 36.9548 2.11978 36.9548 2.46761Z" fill="#3B3332"/>
<path d="M39.3982 2.46761C39.3982 2.81543 39.1168 3.09754 38.7693 3.09754C38.422 3.09754 38.1406 2.81565 38.1406 2.46761C38.1406 2.11957 38.422 1.83789 38.7693 1.83789C39.1168 1.83767 39.3982 2.11978 39.3982 2.46761Z" fill="#3B3332"/>
<path d="M69.0037 7.12109H33.5449V31.236H69.0037V7.12109Z" fill="white"/>
<path d="M69.0044 30.6523H33.4805V36.8566H69.0044V30.6523Z" fill="#3B3332"/>
<mask id="mask0_17548_17911" style="mask-type:luminance" maskUnits="userSpaceOnUse" x="33" y="7" width="37" height="24">
<path d="M69.0037 7.12109H33.5449V30.6527H69.0037V7.12109Z" fill="white"/>
</mask>
<g mask="url(#mask0_17548_17911)">
<path d="M48.1403 26.3633L42.9109 29.0734C41.1316 29.9955 39.7982 31.5968 39.2117 33.5155L39.1406 33.7481H61.6266C61.1542 31.4262 59.6087 29.4672 57.4627 28.4699L53.3887 26.5768L48.1403 26.3633Z" fill="#223CB1"/>
<path d="M55.1135 9.84375C55.1135 9.84375 57.4476 10.8879 55.9646 13.1906L53.3887 10.974L55.1135 9.84375Z" fill="#B2763F"/>
<path d="M47.7773 18.291L48.6605 20.1622L49.2892 18.3661L47.7773 18.291Z" fill="#B2763F"/>
<path d="M54.3344 18.4188C54.3558 17.8878 54.4614 17.3615 54.6676 16.8634C54.9506 16.1805 55.2291 15.563 55.9984 15.832C57.5437 16.3721 56.312 18.6689 55.0492 18.9331C54.6777 19.0108 54.3208 18.753 54.3344 18.4188Z" fill="#D89170"/>
<path d="M48.8268 17.9961L48.1406 26.3631L53.3893 26.5769L53.0029 19.606L48.8268 17.9961Z" fill="#EBB392"/>
<path d="M53.24 24.0257L49.8301 21.1157L53.0819 20.4551L53.24 24.0257Z" fill="black"/>
<path d="M56.1089 12.7561L55.9055 17.2992C55.9055 17.2992 56.0168 21.9155 53.2371 22.0042C50.0328 22.1065 48.5741 20.4068 48.7988 18.7472L48.1706 16.049L48.1074 11.9494C48.1356 10.8207 49.1266 9.44715 51.3988 9.53958L53.9996 9.64537C55.2281 9.69553 56.1541 11.6392 56.1089 12.7561Z" fill="#EBB392"/>
<path d="M50.2395 13.8145L52.1686 13.457C52.4721 13.4323 52.6881 13.151 52.6343 12.8507C52.5856 12.5796 52.333 12.3945 52.0603 12.4302L50.1494 12.9589C49.9185 12.9892 49.7538 13.1979 49.7777 13.4298C49.8017 13.6627 50.0068 13.8335 50.2395 13.8145Z" fill="#B2763F"/>
<path d="M55.9371 14.0258L54.7567 13.5702C54.4591 13.506 54.2816 13.1987 54.3743 12.9081C54.458 12.6457 54.7327 12.4954 54.9984 12.5664L56.1383 13.1895C56.3633 13.2498 56.4993 13.4784 56.4451 13.7051C56.391 13.9327 56.1654 14.0751 55.9371 14.0258Z" fill="#B2763F"/>
<path d="M53.5488 18.171L53.7397 18.1292C54.005 18.0709 54.1618 17.7958 54.0771 17.5375L53.7146 16.4297" stroke="black" stroke-width="0.3592" stroke-miterlimit="10" stroke-linecap="round" stroke-linejoin="round"/>
<path d="M52.4318 16.3066L51.6367 16.5662" stroke="#D89170" stroke-width="0.3066" stroke-miterlimit="10" stroke-linecap="round" stroke-linejoin="round"/>
<path d="M54.2148 16.332L54.8667 16.6939" stroke="#D89170" stroke-width="0.3066" stroke-miterlimit="10" stroke-linecap="round" stroke-linejoin="round"/>
<path d="M52.4306 15.8282C52.4306 15.8282 51.9211 15.2353 50.6797 15.5893" stroke="black" stroke-width="0.511" stroke-miterlimit="10" stroke-linecap="round" stroke-linejoin="round"/>
<path d="M54.2148 15.8813C54.2148 15.8813 54.748 15.326 55.6478 15.6423" stroke="black" stroke-width="0.48" stroke-miterlimit="10" stroke-linecap="round" stroke-linejoin="round"/>
<path d="M54.4377 18.8543L51.9473 18.7188C51.9473 18.7188 52.1312 19.5898 53.1602 19.665C54.2925 19.7478 54.4377 18.8543 54.4377 18.8543Z" fill="white"/>
<path d="M55.8139 9.30843C55.6571 7.57808 53.5448 7.62758 52.1127 8.27022C50.6807 8.91286 45.5477 8.3195 46.6579 12.6425L47.3821 15.9394L48.6718 16.5476L48.8266 15.8356C49.0866 14.6401 49.1446 13.4111 49.0033 12.1988H49.0053C49.0053 12.1988 49.3142 10.2971 51.3752 10.5937C53.4363 10.8903 55.9704 11.0386 55.8139 9.30843Z" fill="#B2763F"/>
<path d="M48.9607 18.3609C48.9823 17.83 48.9198 17.2969 48.7545 16.7837C48.5277 16.0799 48.1361 15.3944 47.3594 15.6412C45.4283 16.2549 46.969 18.4494 48.2065 18.8154C48.5703 18.923 48.9471 18.695 48.9607 18.3609Z" fill="#EBB392"/>
<path d="M47.3301 16.625L48.383 17.5868" stroke="black" stroke-width="0.3592" stroke-miterlimit="10" stroke-linecap="round" stroke-linejoin="round"/>
<path d="M48.1406 26.3633L53.6381 28.9945L53.3893 26.5771L48.1406 26.3633Z" fill="#EBB392"/>
</g>
<path d="M51.6796 36.4525C52.8952 36.4525 53.8807 35.4654 53.8807 34.2477C53.8807 33.0301 52.8952 32.043 51.6796 32.043C50.464 32.043 49.4785 33.0301 49.4785 34.2477C49.4785 35.4654 50.464 36.4525 51.6796 36.4525Z" fill="#2247DB"/>
<path d="M50.9941 33.5195L52.4083 34.9358" stroke="white" stroke-width="1.0865" stroke-miterlimit="10"/>
<path d="M52.4083 33.5195L50.9941 34.9358" stroke="white" stroke-width="1.0865" stroke-miterlimit="10"/>
<path d="M158.211 17.4219H118.586" stroke="white" stroke-width="1.5" stroke-miterlimit="10"/>
<path d="M119.457 56.0708H157.34C157.821 56.0708 158.211 55.6803 158.211 55.1986V13.9152C158.211 13.4335 157.821 13.043 157.34 13.043H119.457C118.976 13.043 118.586 13.4335 118.586 13.9152V55.1986C118.586 55.6805 118.976 56.0708 119.457 56.0708Z" stroke="white" stroke-width="1.5" stroke-miterlimit="10"/>
<path d="M167.368 42.5384H131.6C131.011 42.5384 130.533 42.0598 130.533 41.4696V30.5064C130.533 29.9161 131.011 29.4375 131.6 29.4375H167.368C167.957 29.4375 168.435 29.9161 168.435 30.5064V41.4696C168.435 42.0598 167.957 42.5384 167.368 42.5384Z" fill="#F8E7C1"/>
<path d="M167.368 42.5384H131.6C131.011 42.5384 130.533 42.0598 130.533 41.4696V30.5064C130.533 29.9161 131.011 29.4375 131.6 29.4375H167.368C167.957 29.4375 168.435 29.9161 168.435 30.5064V41.4696C168.435 42.0598 167.957 42.5384 167.368 42.5384Z" stroke="white" stroke-width="1.5" stroke-miterlimit="10"/>
<path d="M139.471 39.0695C141.34 38.3031 142.235 36.1636 141.47 34.2909C140.705 32.4182 138.569 31.5215 136.7 32.288C134.83 33.0544 133.935 35.1939 134.7 37.0666C135.465 38.9393 137.601 39.836 139.471 39.0695Z" fill="#2247DB"/>
<path d="M145.113 34.6172H164.82" stroke="black" stroke-width="0.7029" stroke-miterlimit="10" stroke-linecap="round" stroke-linejoin="round"/>
<path d="M145.113 37.2949H152.252" stroke="black" stroke-width="0.7029" stroke-miterlimit="10" stroke-linecap="round" stroke-linejoin="round"/>
<path d="M105.665 39.2395C105.609 39.3052 105.502 39.2651 105.502 39.1788L105.508 37.3766V33.7722C105.508 33.4159 105.796 33.127 106.152 33.127H120.999C121.355 33.127 121.643 33.4159 121.643 33.7722V37.6248C121.643 37.9811 121.355 38.27 120.999 38.27H106.494L105.665 39.2395Z" fill="white"/>
<path d="M108.264 34.9844H119.019" stroke="black" stroke-width="0.7029" stroke-miterlimit="10" stroke-linecap="round" stroke-linejoin="round"/>
<path d="M108.264 36.5117H112.799" stroke="black" stroke-width="0.7029" stroke-miterlimit="10" stroke-linecap="round" stroke-linejoin="round"/>
<path d="M110.039 21.4792H134.557C135.188 21.4792 135.698 20.9675 135.698 20.3362V2.62142C135.698 1.99017 135.188 1.47852 134.557 1.47852H110.039C109.409 1.47852 108.898 1.99017 108.898 2.62142V20.3365C108.898 20.9675 109.409 21.4792 110.039 21.4792Z" fill="#F8E7C1"/>
<path d="M110.039 21.4792H134.557C135.188 21.4792 135.698 20.9675 135.698 20.3362V2.62142C135.698 1.99017 135.188 1.47852 134.557 1.47852H110.039C109.409 1.47852 108.898 1.99017 108.898 2.62142V20.3365C108.898 20.9675 109.409 21.4792 110.039 21.4792Z" stroke="white" stroke-width="1.5" stroke-miterlimit="10"/>
<path d="M116.171 15.7693C116.093 15.86 115.945 15.8048 115.945 15.6854L115.953 13.195V8.48933C115.953 7.99695 116.352 7.59766 116.843 7.59766H127.675C128.167 7.59766 128.565 7.99673 128.565 8.48911V13.538C128.565 14.0304 128.167 14.4295 127.675 14.4295H117.316L116.171 15.7693Z" fill="#3B3332"/>
<path d="M124.385 10.936C124.384 11.2501 124.637 11.5055 124.951 11.5066C125.264 11.5075 125.519 11.2538 125.52 10.9397C125.521 10.6256 125.268 10.3702 124.954 10.3691C124.641 10.368 124.386 10.6219 124.385 10.936Z" fill="white"/>
<path d="M121.949 10.9284C121.948 11.2425 122.202 11.4979 122.515 11.499C122.829 11.5001 123.084 11.2462 123.085 10.9319C123.086 10.6178 122.832 10.3624 122.519 10.3613C122.205 10.3605 121.95 10.6143 121.949 10.9284Z" fill="white"/>
<path d="M119.514 10.9206C119.513 11.2347 119.766 11.4901 120.08 11.4912C120.393 11.492 120.648 11.2384 120.649 10.9241C120.65 10.61 120.397 10.3546 120.083 10.3535C119.77 10.3526 119.515 10.6065 119.514 10.9206Z" fill="white"/>
<path d="M25.0473 65.6281H49.5655C50.1957 65.6281 50.7065 65.1164 50.7065 64.4852V49.6175C50.7065 48.9863 50.1957 48.4746 49.5655 48.4746H25.0473C24.4171 48.4746 23.9062 48.9863 23.9062 49.6175V64.4852C23.9062 65.1164 24.4171 65.6281 25.0473 65.6281Z" stroke="white" stroke-width="1.5" stroke-miterlimit="10"/>
<path d="M38.8414 60.6894H32.8827C32.3498 60.6894 31.918 60.2568 31.918 59.723V54.5718C31.918 54.0381 32.3498 53.6055 32.8827 53.6055H38.8412C39.3741 53.6055 39.8059 54.0381 39.8059 54.5718V59.723C39.8061 60.2566 39.3743 60.6894 38.8414 60.6894Z" fill="#2247DB"/>
<path d="M40.5293 55.9133V58.0609C40.5293 58.177 40.5929 58.2839 40.695 58.3388L43.2198 59.6995C43.4297 59.8127 43.6842 59.6602 43.6842 59.4215V54.9077C43.6842 54.6847 43.4596 54.5321 43.2526 54.6144L40.7278 55.62C40.608 55.6677 40.5293 55.7838 40.5293 55.9133Z" fill="#2247DB"/>
<path d="M162.585 66.6386H159.632C159.481 66.6386 159.359 66.5164 159.359 66.3655V63.4079C159.359 63.257 159.481 63.1348 159.632 63.1348H162.585C162.735 63.1348 162.857 63.257 162.857 63.4079V66.3655C162.857 66.5164 162.735 66.6386 162.585 66.6386Z" fill="white"/>
<path d="M23.0283 24.424H20.0754C19.9248 24.424 19.8027 24.3018 19.8027 24.1509V21.1931C19.8027 21.0421 19.9248 20.9199 20.0754 20.9199H23.0281C23.1787 20.9199 23.3007 21.0421 23.3007 21.1931V24.1506C23.301 24.3015 23.1787 24.424 23.0283 24.424Z" fill="white"/>
<path d="M149.038 6.37523H147.011C146.908 6.37523 146.824 6.29134 146.824 6.18774V4.15819C146.824 4.05459 146.908 3.9707 147.011 3.9707H149.038C149.141 3.9707 149.225 4.05459 149.225 4.15819V6.18774C149.225 6.29134 149.141 6.37523 149.038 6.37523Z" fill="white"/>
<path d="M165.262 7.69531V19.3668" stroke="#2247DB" stroke-width="3" stroke-miterlimit="10" stroke-linecap="round" stroke-linejoin="round"/>
<path d="M23.082 33.5V39.9954" stroke="#2247DB" stroke-width="3" stroke-miterlimit="10" stroke-linecap="round" stroke-linejoin="round"/>
<path d="M192 80H0V101H192V80Z" fill="#C5D9FC"/>
<path d="M44.016 89.7913C48.2328 89.7913 51.6512 89.051 51.6512 88.1378C51.6512 87.2247 48.2328 86.4844 44.016 86.4844C39.7992 86.4844 36.3809 87.2247 36.3809 88.1378C36.3809 89.051 39.7992 89.7913 44.016 89.7913Z" fill="#F8E7C1"/>
<path d="M47.6048 77.5742C47.6048 77.5742 49.5262 89.3518 40.752 89.7806C31.9776 90.2095 34.0387 77.5742 34.0387 77.5742H47.6048Z" fill="white"/>
<path d="M33.4366 86.4819C31.3447 86.5445 29.5916 84.8904 29.5291 82.7947C29.4665 80.6992 31.1179 78.9433 33.2101 78.8806C35.3021 78.8182 37.0551 80.4723 37.1177 82.5678C37.1802 84.6635 35.5288 86.4195 33.4366 86.4819ZM33.2464 80.096C31.8233 80.1385 30.7 81.3331 30.7424 82.7586C30.7849 84.184 31.9775 85.3092 33.4006 85.2667C34.8236 85.2242 35.9469 84.0296 35.9045 82.6042C35.8621 81.1787 34.6695 80.0535 33.2464 80.096Z" fill="white"/>
<path d="M47.6051 77.5742C47.6051 78.053 44.5683 78.4411 40.8221 78.4411C37.0759 78.4411 34.0391 78.053 34.0391 77.5742C34.0391 77.0954 37.0759 76.707 40.8221 76.707C44.5683 76.707 47.6051 77.0954 47.6051 77.5742Z" fill="black"/>
<path d="M102.71 49.7691C105.132 53.7216 114.412 69.4112 117.414 76.7083C118.703 79.8387 117.121 83.4172 113.952 84.5938C111.086 85.6577 107.881 84.3873 106.517 81.6474L92.4618 55.4804C90.9501 52.442 92.3139 48.7563 95.4374 47.4389C98.1038 46.3141 101.197 47.2991 102.71 49.7691Z" fill="#9C6752"/>
<path d="M103.773 48.0387C105.534 50.4587 110.034 57.3598 110.034 57.3598L94.3928 66.9198L89.4483 56.568C87.8982 53.3226 88.5894 49.4479 91.1657 46.9411C94.8243 43.381 100.769 43.9095 103.773 48.0387Z" fill="white"/>
<path d="M101.514 50.2549C101.615 47.4701 101.207 45.2925 98.5188 44.5749C96.3818 44.0044 92.7828 43.3906 92.7828 43.3906H82.9168C82.9168 43.3906 73.0461 44.6422 71.0392 45.2863C67.9497 46.2779 67.5876 50.2573 67.6726 53.5057L66.1953 80.2418H100.168L101.514 50.2549Z" fill="white"/>
<path d="M100.945 62.9165L101.373 54.0332" stroke="black" stroke-width="0.7029" stroke-miterlimit="10" stroke-linecap="round" stroke-linejoin="round"/>
<path d="M80.5391 43.6327L82.9171 43.3906H93.0219L95.3577 43.8679C95.3577 43.8679 97.8959 49.0684 89.9188 48.905C81.9416 48.7418 80.5391 43.6327 80.5391 43.6327Z" fill="#9C6752"/>
<path d="M67.8683 50.7645C65.6648 54.8429 56.5945 69.7009 53.9928 77.1506C52.8765 80.3464 54.6499 83.8336 57.8787 84.8359C60.7979 85.7421 63.711 84.2989 64.9235 81.4887L78.4119 55.9089C79.7565 52.7927 78.1944 49.1866 75.004 48.0413C72.2805 47.0637 69.2454 48.2158 67.8683 50.7645Z" fill="#9C6752"/>
<path d="M66.4261 48.4625C64.6654 50.8826 59.2617 58.7717 59.2617 58.7717L74.9384 66.9201L80.7507 56.9916C82.3009 53.7462 81.6097 49.8716 79.0333 47.3647C75.3748 43.8048 69.4302 44.3333 66.4261 48.4625Z" fill="white"/>
<path d="M73.082 66.016L74.9376 66.9212L80.1653 58.0879" stroke="black" stroke-width="0.7029" stroke-miterlimit="10" stroke-linecap="round" stroke-linejoin="round"/>
<path d="M92.1363 78.8773C92.1363 78.8773 100.749 73.8823 104.853 83.5253H90.3574L92.1363 78.8773Z" fill="#9C6752"/>
<path d="M59.084 85.0785C59.084 85.0785 73.6157 85.9312 90.3568 83.5251L92.1359 78.877L62.6373 75.123L59.084 85.0785Z" fill="#9C6752"/>
<path d="M61.8613 75.0254L67.8167 75.7832" stroke="black" stroke-width="0.7029" stroke-miterlimit="10" stroke-linecap="round" stroke-linejoin="round"/>
<path d="M82.8281 27.1406L83.7085 32.7448L85.0756 27.1406H82.8281Z" fill="black"/>
<path d="M94.948 27.2442C94.9902 26.2054 95.1964 25.1753 95.6003 24.201C96.1539 22.8645 96.6991 21.6565 98.2046 22.1827C101.228 23.2395 98.8184 27.7338 96.347 28.2507C95.62 28.4027 94.9215 27.8983 94.948 27.2442Z" fill="#804B3B"/>
<path d="M84.1707 26.416L82.8281 44.5805L93.0985 44.9986L92.3425 29.5661L84.1707 26.416Z" fill="#9C6752"/>
<path d="M92.7985 39.0089L87.0371 33.6505L92.4268 31.3086L92.7985 39.0089Z" fill="black"/>
<path d="M98.417 16.1652L97.9759 27.0359C97.9759 27.0359 98.1683 34.7458 92.7292 34.9193C86.4592 35.1195 83.6731 31.1362 84.1127 27.8891L82.8835 22.6091L82.7598 14.5873C82.8149 12.3786 84.7542 9.69083 89.2002 9.87197L94.2892 10.0792C96.6934 10.1766 98.5055 13.9799 98.417 16.1652Z" fill="#9C6752"/>
<path d="M86.7228 17.5961L90.5606 17.6821C91.1519 17.7562 91.678 17.3034 91.694 16.7068C91.7086 16.168 91.2982 15.7124 90.7616 15.6719L86.8901 15.9216C86.4359 15.8872 86.0371 16.2214 85.9907 16.6753C85.9444 17.1304 86.2695 17.5396 86.7228 17.5961Z" fill="black"/>
<path d="M98.6442 18.0567L96.1755 17.8799C95.5818 17.9301 95.0742 17.4565 95.0821 16.8599C95.0891 16.3208 95.5173 15.8823 96.0552 15.8633L98.5441 16.3767C98.9993 16.3605 99.3844 16.7107 99.4126 17.1661C99.4406 17.6225 99.0995 18.0183 98.6442 18.0567Z" fill="black"/>
<path d="M93.4121 26.759L93.7856 26.6769C94.3045 26.5628 94.6115 26.0246 94.446 25.5191L93.7364 23.3516" stroke="black" stroke-width="0.7029" stroke-miterlimit="10" stroke-linecap="round" stroke-linejoin="round"/>
<path d="M91.2238 23.1113L89.668 24.0573" stroke="#804B3B" stroke-width="0.6282" stroke-miterlimit="10" stroke-linecap="round" stroke-linejoin="round"/>
<path d="M94.7129 23.1621L95.9886 23.87" stroke="#804B3B" stroke-width="0.6282" stroke-miterlimit="10" stroke-linecap="round" stroke-linejoin="round"/>
<path d="M89.918 27.5371C89.918 27.5371 91.7478 28.4494 94.759 28.1999C94.759 28.1999 92.3384 30.125 89.918 27.5371Z" fill="white"/>
<path d="M92.2129 29.9219H93.5684" stroke="#804B3B" stroke-width="0.6282" stroke-miterlimit="10" stroke-linecap="round" stroke-linejoin="round"/>
<path d="M87.2305 21.9881L91.4719 22.5896C91.4719 22.5896 91.4667 20.8133 89.4346 20.6753C87.4026 20.5373 87.2305 21.9881 87.2305 21.9881Z" fill="white"/>
<mask id="mask1_17548_17911" style="mask-type:luminance" maskUnits="userSpaceOnUse" x="87" y="20" width="5" height="3">
<path d="M87.2305 21.9881L91.4719 22.5896C91.4719 22.5896 91.4667 20.8133 89.4346 20.6753C87.4026 20.5373 87.2305 21.9881 87.2305 21.9881Z" fill="white"/>
</mask>
<g mask="url(#mask1_17548_17911)">
<path d="M90.4922 21.4615C90.5285 21.9898 90.1305 22.4475 89.6031 22.4839C89.0757 22.5203 88.6187 22.1216 88.5824 21.5933C88.5461 21.065 88.944 20.6072 89.4715 20.5707C89.9989 20.5343 90.4559 20.9332 90.4922 21.4615Z" fill="black"/>
</g>
<path d="M91.4717 22.5888C91.4717 22.5888 91.2673 20.8815 89.5147 20.6846C87.6188 20.4717 87.2305 21.9874 87.2305 21.9874" stroke="black" stroke-width="0.7029" stroke-miterlimit="10" stroke-linecap="round" stroke-linejoin="round"/>
<path d="M97.7362 22.3882L94.6582 22.5551C94.6582 22.5551 94.8723 20.7943 96.3293 20.8633C97.786 20.9321 97.7362 22.3882 97.7362 22.3882Z" fill="white"/>
<mask id="mask2_17548_17911" style="mask-type:luminance" maskUnits="userSpaceOnUse" x="94" y="20" width="4" height="3">
<path d="M97.7362 22.3882L94.6582 22.5551C94.6582 22.5551 94.8723 20.7943 96.3293 20.8633C97.786 20.9321 97.7362 22.3882 97.7362 22.3882Z" fill="white"/>
</mask>
<g mask="url(#mask2_17548_17911)">
<path d="M95.4858 21.536C95.3975 22.0562 95.6255 22.5505 95.9951 22.6399C96.3646 22.7295 96.7359 22.3803 96.8243 21.8601C96.9126 21.3399 96.6845 20.8456 96.315 20.7562C95.9452 20.6666 95.5741 21.0158 95.4858 21.536Z" fill="black"/>
</g>
<path d="M94.6582 22.5555C94.6582 22.5555 95.0052 20.8832 96.2711 20.8654C97.6404 20.8464 97.7362 22.3886 97.7362 22.3886" stroke="black" stroke-width="0.5943" stroke-miterlimit="10" stroke-linecap="round" stroke-linejoin="round"/>
<path d="M84.3348 13.8203L85.075 18.0216L83.8653 23.5834L82.018 22.3932L81.6152 14.5871L84.3348 13.8203Z" fill="black"/>
<path d="M84.4319 27.1292C84.4741 26.0903 84.3518 25.0469 84.0284 24.043C83.5848 22.666 82.8183 21.3244 81.2984 21.8076C77.5196 23.0088 80.5348 27.3027 82.9561 28.0187C83.6683 28.2292 84.4054 27.783 84.4319 27.1292Z" fill="#9C6752"/>
<path d="M81.2422 23.7324L83.3022 25.6143" stroke="black" stroke-width="0.7029" stroke-miterlimit="10" stroke-linecap="round" stroke-linejoin="round"/>
<path d="M81.5919 14.5867H98.4215V14.5624C98.4215 11.2165 96.6884 7.45898 92.4874 7.45898H87.526C83.6519 7.45898 81.5787 11.2314 81.5919 14.5867Z" fill="#223CB1"/>
<path d="M104.803 13.5684H81.5918V14.5875H104.803C105.084 14.5875 105.312 14.3593 105.312 14.0778C105.312 13.7964 105.084 13.5684 104.803 13.5684Z" fill="#2247DB"/>
<path d="M114.626 52.0091L103.945 83.4924H145.047L155.234 52.3153C155.507 51.0318 154.53 49.8223 153.22 49.8223H117.361C116.051 49.8223 114.916 50.7299 114.626 52.0091Z" fill="#3B3332"/>
<path d="M145.269 83.4922H103.945V86.1206H145.269V83.4922Z" fill="#554847"/>
<path d="M82.6699 86.1206H103.946V83.4922H85.2939C83.8446 83.4922 82.6699 84.6688 82.6699 86.1206Z" fill="#1D161A"/>
<path d="M136.145 68.0257C136.777 66.3653 136.082 64.5582 134.593 63.9894C133.103 63.4207 131.384 64.3057 130.752 65.9662C130.12 67.6266 130.815 69.4337 132.304 70.0024C133.794 70.5712 135.513 69.6861 136.145 68.0257Z" fill="#554847"/>
</g>
<defs>
<clipPath id="clip0_17548_17911">
<rect width="192" height="101" fill="white"/>
</clipPath>
</defs>
</svg>
