<svg width="16" height="17" viewBox="0 0 16 17" fill="none"
    xmlns="http://www.w3.org/2000/svg">
    <path d="M14.6654 4.66732V8.0673C14.6654 8.91397 14.3854 9.62731 13.8854 10.1206C13.392 10.6206 12.6787 10.9006 11.832 10.9006V12.1073C11.832 12.5606 11.3254 12.834 10.952 12.5806L10.3054 12.154C10.3654 11.9473 10.392 11.7206 10.392 11.4806V8.76733C10.392 7.40733 9.48537 6.50065 8.12537 6.50065H3.59869C3.50536 6.50065 3.4187 6.50733 3.33203 6.514V4.66732C3.33203 2.96732 4.46536 1.83398 6.16536 1.83398H11.832C13.532 1.83398 14.6654 2.96732 14.6654 4.66732Z" stroke="#666666" stroke-miterlimit="10" stroke-linecap="round" stroke-linejoin="round"/>
    <path d="M10.392 8.76668V11.48C10.392 11.72 10.3654 11.9467 10.3054 12.1533C10.0587 13.1333 9.24537 13.7467 8.12537 13.7467H6.31203L4.2987 15.0867C3.9987 15.2933 3.59869 15.0733 3.59869 14.7133V13.7467C2.91869 13.7467 2.35203 13.52 1.9587 13.1267C1.5587 12.7267 1.33203 12.16 1.33203 11.48V8.76668C1.33203 7.50002 2.1187 6.62668 3.33203 6.51335C3.4187 6.50668 3.50536 6.5 3.59869 6.5H8.12537C9.48537 6.5 10.392 7.40668 10.392 8.76668Z" stroke="#666666" stroke-miterlimit="10" stroke-linecap="round" stroke-linejoin="round"/>
</svg>
