<svg width="60" height="60" viewBox="0 0 60 60" fill="none" xmlns="http://www.w3.org/2000/svg">
<path d="M40.475 5H19.525C10.425 5 5 10.425 5 19.525V40.45C5 49.575 10.425 55 19.525 55H40.45C49.55 55 54.975 49.575 54.975 40.475V19.525C55 10.425 49.575 5 40.475 5ZM42.05 27.05C41.325 27.775 40.125 27.775 39.4 27.05L31.875 19.525V45C31.875 46.025 31.025 46.875 30 46.875C28.975 46.875 28.125 46.025 28.125 45V19.525L20.6 27.05C19.875 27.775 18.675 27.775 17.95 27.05C17.575 26.675 17.4 26.2 17.4 25.725C17.4 25.25 17.6 24.75 17.95 24.4L28.675 13.675C29.025 13.325 29.5 13.125 30 13.125C30.5 13.125 30.975 13.325 31.325 13.675L42.05 24.4C42.775 25.125 42.775 26.3 42.05 27.05Z" fill="#437DFA"/>
</svg>
