<svg width="100%" height="100%" viewBox="0 0 407 463" fill="none" xmlns="http://www.w3.org/2000/svg">
  <g clip-path="url(#clip0_8310_128254)">
    <path
      d="M403.356 459.969H3.64844C3.64844 448.044 4.69047 436.076 6.8601 424.194C10.6641 403.221 17.9227 382.52 28.8281 362.855C45.8859 332.164 69.8094 307.721 97.63 290.384C102.098 287.577 106.68 284.978 111.348 282.557C136.47 269.518 164.119 261.921 192.404 260.342C192.654 260.328 192.904 260.3 193.153 260.293C194.881 260.2 196.608 260.128 198.356 260.093C201.811 259.993 205.265 259.993 208.712 260.078C232.179 260.664 255.789 265.419 278.449 274.638C285.929 277.666 293.323 281.186 300.553 285.221C302.116 286.085 303.657 286.956 305.178 287.877C306.105 288.413 307.019 288.977 307.911 289.534C368.998 326.908 403.292 392.46 403.356 459.969Z"
      fill="#27A568" />
    <path
      d="M23.2837 430.26C27.0875 409.287 34.3461 388.586 45.2517 368.92C62.3095 338.23 86.233 313.787 114.054 296.449C118.521 293.643 123.104 291.044 127.771 288.623C152.894 275.584 180.543 267.986 208.827 266.408C209.077 266.394 209.327 266.365 209.577 266.359C211.304 266.266 213.031 266.194 214.78 266.158C218.234 266.059 221.688 266.059 225.136 266.144C243.077 266.592 261.101 269.487 278.721 274.94C277.85 274.573 276.977 274.211 276.102 273.857C253.442 264.638 229.833 259.883 206.366 259.297C202.918 259.211 199.464 259.211 196.01 259.311C194.261 259.347 192.534 259.418 190.807 259.511C190.557 259.518 190.307 259.547 190.057 259.561C161.773 261.139 134.124 268.737 109.001 281.776C104.334 284.197 99.7515 286.796 95.2837 289.602C67.4631 306.94 43.5396 331.383 26.4817 362.074C15.5762 381.739 8.31759 402.44 4.51373 423.413C2.34395 435.295 1.30176 447.263 1.30176 459.188H20.1992C20.5242 449.534 21.5289 439.869 23.2837 430.26Z"
      fill="#1D7C4E" />
    <path
      d="M286.76 351.12C288.061 341.574 271.914 331.489 250.694 328.594C229.473 325.699 211.216 331.091 209.915 340.637C208.614 350.183 224.762 360.269 245.982 363.164C267.202 366.059 285.459 360.667 286.76 351.12Z"
      fill="#27A568" />
    <path
      d="M380.526 459.968H333.471C341.014 446.691 351.621 437.736 361.492 437.711C371.265 437.686 378.435 446.716 380.526 459.968Z"
      fill="#1D7C4E" />
    <path
      d="M113.89 357.389C124.836 356.687 133.224 348.545 132.625 339.203C132.027 329.862 122.668 322.858 111.722 323.56C100.776 324.263 92.3877 332.405 92.9865 341.746C93.5852 351.088 102.944 358.091 113.89 357.389Z"
      fill="#1D7C4E" />
    <path
      d="M121.34 357.462C129.068 354.6 133.462 347.223 131.154 340.984C128.846 334.745 120.71 332.007 112.982 334.869C105.253 337.731 100.859 345.108 103.167 351.347C105.475 357.586 113.611 360.324 121.34 357.462Z"
      fill="#27A568" />
    <path
      d="M113.386 359.1C104.557 360.312 94.4975 355.721 90.9932 347.106C87.0509 337.815 92.4635 327.418 101.074 323.187C113.176 316.678 131.714 321.727 134.624 336.306C135.263 339.685 134.812 343.186 133.325 346.251C132.856 347.26 132.205 348.16 131.606 349.067C131.38 349.41 130.919 349.504 130.576 349.278C130.237 349.056 130.147 348.607 130.349 348.268C132.204 344.705 132.727 340.624 131.592 337.01C128.183 325.631 113.004 322.253 103.376 327.591C92.1868 333.492 91.0958 347.083 102.123 353.9C105.38 355.949 109.286 357.036 113.31 357.252C114.432 357.303 114.491 358.959 113.386 359.1Z"
      fill="#05150D" />
    <path
      d="M138.442 328.441C144.217 335.127 145.059 345.455 140.872 353.268C136.844 361.262 128.771 366.66 120.211 368.625C111.676 370.577 102.357 369.423 94.86 364.796C87.4086 360.428 81.9151 352.062 82.3844 343.311C82.4424 342.404 83.7665 342.366 83.8728 343.263C84.3918 347.204 85.8971 350.878 88.1867 353.945C98.8187 367.903 121.795 368.017 133.663 355.628C137.515 351.57 139.959 346.146 139.948 340.506C139.978 336.728 138.874 332.933 136.927 329.499C136.373 328.538 137.726 327.589 138.442 328.441Z"
      fill="#05150D" />
    <path
      d="M58.9684 386.184C85.0353 388.624 98.2781 416.663 91.5548 440.33C89.5438 447.963 85.8181 455.075 80.6893 460.843C80.3704 461.202 79.8217 461.234 79.4632 460.915C79.1511 460.637 79.0885 460.182 79.2875 459.833C82.9833 453.339 85.622 446.407 86.899 439.29C91.0117 417.479 80.8283 394.868 58.5725 388.293C57.3683 387.945 57.6902 386.076 58.9684 386.184Z"
      fill="#05150D" />
    <path
      d="M74.2527 438.981C72.4228 447.998 67.3685 455.409 60.7583 459.968H29.9729C20.6488 453.192 15.6819 440.451 18.3334 427.323C21.819 410.061 37.1681 398.677 52.6167 401.89C68.0532 405.116 77.7381 421.719 74.2527 438.981Z"
      fill="#1D7C4E" />
    <path
      d="M70.8939 445.138C67.875 451.75 63.2287 456.835 57.9187 459.969H41.1749C32.8316 450.601 30.7976 435.034 37.0711 421.259C41.1249 412.391 47.8124 406.007 55.2707 402.965C57.1549 403.365 59.0106 404.036 60.7878 404.986C73.4277 411.684 77.9526 429.657 70.8939 445.138Z"
      fill="#27A568" />
    <path
      d="M25.2377 460.454C22.1865 458.921 19.8451 456.016 18.7962 452.784C18.5203 451.914 19.661 451.251 20.2795 451.904C21.4146 453.054 22.4017 454.222 23.4486 455.338C24.3785 456.361 25.6888 457.693 26.5547 458.768C27.288 459.649 26.2517 460.951 25.2377 460.454Z"
      fill="#05150D" />
    <path
      d="M18.5733 421.62C25.1349 404.96 45.6594 394.719 61.958 404.399C75.8479 412.649 78.8472 431.092 71.917 444.943C70.8716 447.181 69.5671 449.279 68.0854 451.23C65.0969 455.108 61.3476 458.383 57.0786 460.594C56.1504 461.059 55.3244 459.771 56.1542 459.133C66.6285 451.176 72.6308 437.093 69.4857 424.185C68.4055 419.656 66.0956 415.325 62.6563 412.149C53.93 403.705 40.1099 404.872 30.702 411.681C26.6132 414.552 23.249 418.277 20.4877 422.587C19.8204 423.693 18.0759 422.832 18.5733 421.62Z"
      fill="#05150D" />
    <path
      d="M167.341 461.039C162.605 456.564 159.85 450.429 158.157 444.255C157.617 442.211 157.208 440.138 157.013 438.033C156.974 437.609 157.285 437.234 157.709 437.195C158.034 437.165 158.332 437.344 158.47 437.621L161.182 443.115C163.829 448.408 166.823 453.513 170.438 458.166C172.004 460.226 169.26 462.753 167.341 461.039Z"
      fill="#05150D" />
    <path
      d="M282.091 424.924C284.762 437.101 282.779 450.756 275.103 460.8C273.454 462.984 270.143 460.756 271.553 458.405C273.105 455.902 274.553 453.39 275.756 450.8C278.179 445.552 279.338 439.737 280.056 433.995C280.391 431.062 280.575 428.09 280.611 425.079C280.612 424.214 281.911 424.069 282.091 424.924Z"
      fill="#05150D" />
    <path
      d="M238.986 459.969H199.2C188.394 453.791 180.627 442.656 179.245 429.317C176.954 407.297 192.938 387.606 214.947 385.314C236.956 383.035 256.638 399.027 258.928 421.035C260.609 437.313 252.318 452.321 238.986 459.969Z"
      fill="#1D7C4E" />
    <path
      d="M260.622 435.21C258.866 445.709 252.418 454.49 243.542 459.97H199.723C191.768 455.013 186.03 447.478 183.677 438.859C189.602 419.778 210.093 407.224 231.865 410.213C244.165 411.919 254.435 418.209 260.97 426.94C261.194 429.643 261.095 432.42 260.622 435.21Z"
      fill="#27A568" />
    <path
      d="M224.216 385.762C241.437 387.21 257.442 401.065 259.626 418.63C261.885 433.048 254.187 447.965 241.927 455.541C224.041 467.099 198.634 463.545 185.274 446.736C173.82 432.82 174.289 412.238 186.894 399.244C187.635 398.49 188.796 399.518 188.147 400.339C185.639 403.511 183.67 407.064 182.369 410.82C179.785 418.267 179.855 426.592 182.788 433.887C193.524 461.044 232.951 464.864 249.234 440.987C258.365 427.784 256.188 409.949 244.73 398.752C239.2 393.155 231.821 389.412 223.916 387.807C222.647 387.55 222.92 385.653 224.216 385.762Z"
      fill="#05150D" />
    <path
      d="M279.628 350.251C286.642 345.635 291.861 339.389 294.379 331.819C298.943 318.102 293.381 303.98 281.438 292.237C273.603 284.533 262.928 278.198 250.347 274.475C218.592 265.077 186.722 275.873 179.164 298.589C176.352 307.042 177.302 315.955 181.24 324.298C187.886 338.377 203.256 350.032 223.196 355.933"
      fill="#27A568" />
    <path
      d="M293.361 331.48C297.021 318.59 290.91 305.491 281.894 296.318C263.666 277.758 234.922 269.829 209.675 275.782C197.114 278.862 184.956 286.406 179.983 298.862C179.807 299.308 179.299 299.525 178.855 299.345C178.444 299.179 178.23 298.733 178.344 298.316C179.256 294.95 180.73 291.704 182.697 288.771C188.624 279.899 198.34 274.117 208.402 271.145C240.637 261.467 285.143 277.616 296.154 311.218C297.14 314.65 297.671 318.237 297.544 321.806C297.438 325.374 296.685 328.895 295.395 332.157C295.177 332.709 294.553 332.979 294.002 332.761C293.488 332.557 293.219 332.001 293.361 331.48Z"
      fill="#05150D" />
    <path
      d="M281.744 322.819C284.681 304.765 266.933 286.853 242.105 282.811C217.276 278.769 194.768 290.128 191.832 308.182C188.896 326.236 206.643 344.148 231.472 348.19C256.3 352.232 278.808 340.873 281.744 322.819Z"
      fill="#1D7C4E" />
    <path
      d="M272.205 309.573C273.278 296.163 256.916 283.912 235.66 282.21C214.404 280.507 196.303 289.997 195.23 303.407C194.157 316.817 210.519 329.068 231.775 330.77C253.031 332.473 271.132 322.982 272.205 309.573Z"
      fill="#27A568" />
    <path
      d="M204.714 289.519C194.282 296.941 190.608 309.608 196.529 321.097C205.974 339.116 228.425 347.777 248.008 346.444C263.446 345.566 280.638 335.769 279.132 318.471C277.169 301.798 261.801 290.442 246.835 285.127C245.81 284.772 246.273 283.215 247.324 283.469C263.969 287.548 281.325 299.787 283.875 317.958C285.865 332.783 275.036 344.927 261.63 349.408C248.932 353.908 234.729 353.033 222.196 348.577C205.789 342.731 189.146 328.496 189.666 309.687C189.904 305.087 191.362 300.572 193.857 296.791C196.319 293.037 199.719 289.995 203.535 287.727C204.73 287.044 205.799 288.718 204.714 289.519Z"
      fill="#05150D" />
    <path
      d="M368.961 459.966H333.794C339.881 449.952 347.824 443.264 355.118 443.09C362.625 442.903 367.629 449.641 368.961 459.966Z"
      fill="#27A568" />
    <path
      d="M377.517 450.497C371.762 442.814 363.729 439.92 354.852 443.143C346.27 446.286 339.404 453.024 333.273 459.912C332.651 460.652 331.407 459.886 331.809 458.993C337.553 445.318 353.381 431.366 369.029 437.847C371.572 438.981 373.812 440.693 375.554 442.723C377.283 444.769 378.601 447.062 379.409 449.487C379.599 450.057 379.291 450.673 378.721 450.863C378.272 451.012 377.793 450.849 377.517 450.497Z"
      fill="#05150D" />
    <g opacity="0.6">
      <path
        d="M310.272 329.829C311.263 353.997 350.745 373.807 366.074 436.618C372.577 463.263 394.299 432.84 372.93 382.873C353.125 336.562 309.573 312.795 310.272 329.829Z"
        fill="#F2F2F2" />
    </g>
    <g opacity="0.6">
      <path
        d="M251.058 297.183C256.669 304.273 274.157 306.731 289.688 317.091C306.291 328.167 318.155 318.673 293.124 295.167C266.442 270.11 240.481 283.816 251.058 297.183Z"
        fill="#F2F2F2" />
    </g>
    <path
      d="M3.64456 462.706C2.13391 462.706 0.908868 461.481 0.907303 459.969C0.896667 447.828 1.98954 435.628 4.15698 423.709C8.11475 401.949 15.6101 381.029 26.4355 361.527C43.1218 331.497 67.2385 306.092 96.1776 288.061C100.664 285.248 105.343 282.576 110.082 280.121C135.391 266.986 163.803 259.199 192.247 257.602L192.591 257.583C192.74 257.573 192.889 257.565 193.038 257.559C194.886 257.458 196.616 257.389 198.286 257.35C201.69 257.256 205.22 257.254 208.774 257.339C233.127 257.952 256.911 262.92 279.469 272.103C287.094 275.188 294.637 278.797 301.881 282.826C303.396 283.675 305 284.579 306.581 285.525C307.5 286.063 308.432 286.635 309.355 287.208C339.26 305.505 363.994 331.391 380.869 362.056C397.306 391.925 406.026 425.724 406.085 459.797C406.087 460.524 405.799 461.221 405.286 461.736C404.772 462.251 404.076 462.54 403.35 462.54L3.64613 462.706C3.64535 462.706 3.64456 462.706 3.64456 462.706ZM203.692 262.755C201.914 262.755 200.154 262.778 198.426 262.825C196.802 262.863 195.127 262.931 193.295 263.03L192.931 263.05C192.794 263.058 192.656 263.067 192.519 263.073C164.877 264.624 137.23 272.202 112.6 284.984C107.993 287.372 103.444 289.969 99.0783 292.706C70.9191 310.252 47.4568 334.968 31.2204 364.187C20.6875 383.164 13.3938 403.52 9.54297 424.689C7.5978 435.389 6.54153 446.321 6.39872 457.228L400.588 457.063C399.553 388.983 364.522 327.383 306.483 291.871C305.586 291.314 304.695 290.766 303.794 290.239C302.251 289.315 300.686 288.434 299.214 287.609C292.172 283.693 284.834 280.182 277.411 277.179C255.462 268.244 232.326 263.411 208.64 262.814C206.982 262.775 205.329 262.755 203.692 262.755Z"
      fill="#05150D" />
    <path
      d="M295.56 221.473C295.144 230.379 294.113 238.732 292.401 245.471C291.045 250.792 286.772 254.824 281.378 255.833C275.355 256.962 266.112 257.675 253.831 255.719L244.99 146.675C244.99 146.675 254.65 145.811 264.968 147.183C272.12 148.13 279.582 150.147 284.386 154.255C292.378 161.1 296.863 193.943 295.56 221.473Z"
      fill="#F2F2F2" />
    <path
      d="M268.623 259.439C264.236 259.439 259.16 259.101 253.439 258.19C252.301 258.009 251.435 257.073 251.342 255.924L242.5 146.88C242.39 145.512 243.402 144.311 244.768 144.189C245.174 144.153 254.823 143.315 265.297 144.708C274.536 145.932 281.505 148.506 286.009 152.358C295.105 160.148 299.344 194.361 298.055 221.593C297.615 231.03 296.496 239.502 294.822 246.089C293.233 252.325 288.136 257.114 281.837 258.293C278.594 258.901 274.158 259.439 268.623 259.439ZM256.161 253.543C267.411 255.114 275.781 254.342 280.917 253.379C285.313 252.557 288.87 249.211 289.981 244.856C291.572 238.592 292.639 230.466 293.065 221.359C293.065 221.359 293.065 221.358 293.065 221.357C294.407 193.001 289.496 161.924 282.761 156.156C279.005 152.943 272.907 150.758 264.64 149.663C257.781 148.751 251.146 148.86 247.686 149.017L256.161 253.543Z"
      fill="#05150D" />
    <g opacity="0.2">
      <path
        d="M295.561 221.473C295.145 230.379 294.114 238.732 292.402 245.471C291.046 250.792 286.773 254.824 281.379 255.833C275.356 256.962 266.113 257.675 253.832 255.719L244.991 146.675C244.991 146.675 254.651 145.811 264.969 147.183C255.302 159.743 226.998 204.252 295.561 221.473Z"
        fill="#05150D" />
    </g>
    <path
      d="M277.944 235.702C274.468 235.702 271.352 233.249 270.654 229.724C270.079 226.823 269.712 223.81 269.561 220.769C269.493 219.391 270.554 218.218 271.932 218.149C273.302 218.082 274.482 219.143 274.551 220.522C274.689 223.32 275.027 226.089 275.554 228.753C275.813 230.06 277.096 230.92 278.414 230.657L286.13 229.155C287.059 228.975 287.789 228.285 288.036 227.354C291.079 215.919 289.565 201.94 288.773 196.46C288.725 196.131 288.446 195.891 288.117 195.891C288.108 195.891 288.1 195.891 288.091 195.891C278.556 196.262 277.007 196.614 276.861 196.654C275.532 197.011 274.158 196.225 273.798 194.894C273.438 193.564 274.218 192.194 275.547 191.832C276.028 191.7 277.492 191.301 287.898 190.896C290.775 190.768 293.301 192.867 293.717 195.744C294.554 201.529 296.145 216.313 292.865 228.639C292.132 231.392 289.864 233.521 287.085 234.062L279.368 235.564C278.891 235.657 278.414 235.702 277.944 235.702Z"
      fill="#05150D" />
    <path
      d="M287.539 215.111C286.213 220.492 281.016 231.021 260.652 225.063C260.652 225.063 272.016 252.729 254.591 281.533C241.514 303.143 234.272 328.308 231.469 339.534C229.984 345.461 226.165 350.616 220.756 353.466C216.673 355.618 211.635 356.581 206.483 353.413C194.596 346.106 194.482 343.165 194.482 343.051C194.482 343.051 187.997 343.422 182.686 341.406L182.679 341.399C179.353 340.14 176.489 337.942 175.982 334.13C175.951 333.948 175.936 333.766 175.921 333.576C175.603 329.187 176.876 325.488 179.118 322.669C182.202 318.742 187.141 316.521 192.21 316.521C192.21 316.521 198.21 291.258 202.755 277.235L187.194 276.523L187.187 276.515L186.278 276.477C186.278 276.477 168.853 314.755 162.224 335.6C162.224 335.6 161.406 342.172 139.935 340.398C122.329 338.95 109.904 336.987 105.661 331.939C105.646 331.916 105.639 331.901 105.624 331.886C104.714 330.794 104.192 329.559 104.078 328.149C103.449 320.19 109.381 309.699 125.541 313.489C128.011 294.29 131.64 276.924 139.557 266.373L136.572 198.708C136.572 198.708 142.761 169.222 165.376 161.832C187.983 154.442 245.75 156.147 245.75 156.147C245.75 156.147 263.743 159.171 274.539 177.272C279.425 185.458 282.637 193.402 284.698 199.633V199.655C286.259 204.385 287.16 208.122 287.607 210.26C287.948 211.866 287.933 213.519 287.539 215.111Z"
      fill="#F2F2F2" />
    <path
      d="M213.414 357.947C210.553 357.947 207.78 357.146 205.174 355.544C198.791 351.621 194.634 348.236 192.903 345.579C190.466 345.559 185.868 345.29 181.8 343.745C181.749 343.726 181.701 343.706 181.653 343.684C175.654 341.364 173.91 337.424 173.511 334.501C173.473 334.264 173.451 334.027 173.431 333.78C173.084 328.993 174.375 324.62 177.163 321.115C180.254 317.18 185.033 314.646 190.217 314.125C191.564 308.562 195.769 291.465 199.399 279.585L187.854 279.057C184.556 286.387 170.449 318.057 164.657 336.193C164.195 338.55 160.944 344.645 139.729 342.891C121.074 341.357 108.547 339.259 103.749 333.55C103.711 333.505 103.675 333.458 103.64 333.411C102.429 331.928 101.739 330.227 101.587 328.352C101.158 322.905 103.256 317.63 107.203 314.238C110.077 311.769 115.149 309.264 123.411 310.534C125.603 294.307 129.043 276.797 137.022 265.609L134.075 198.821C134.066 198.612 134.083 198.402 134.126 198.197C134.391 196.936 140.885 167.209 164.599 159.459C187.358 152.019 243.446 153.582 245.822 153.652C245.937 153.655 246.051 153.666 246.163 153.685C246.944 153.816 265.425 157.118 276.683 175.994C280.889 183.04 284.383 190.73 287.068 198.851C287.088 198.911 287.106 198.972 287.121 199.033C288.767 204.042 289.663 207.891 290.051 209.75C290.476 211.752 290.446 213.76 289.963 215.714C289.11 219.171 287.027 223.906 281.941 226.836C277.45 229.423 271.57 230.002 264.422 228.573C266.963 237.774 270.639 259.833 256.727 282.83C243.627 304.479 236.394 330.122 233.892 340.143C232.198 346.901 227.834 352.563 221.919 355.68C219.052 357.191 216.191 357.947 213.414 357.947ZM196.943 342.624C197.158 343.067 198.747 345.727 207.79 351.285C211.439 353.529 215.299 353.521 219.591 351.257C224.251 348.802 227.697 344.308 229.045 338.929C232.221 326.21 239.486 301.673 252.453 280.241C268.981 252.92 258.448 226.278 258.339 226.012C257.977 225.123 258.155 224.105 258.798 223.393C259.44 222.681 260.43 222.395 261.352 222.667C269.191 224.959 275.279 224.905 279.448 222.503C283.009 220.452 284.494 217.028 285.112 214.515C285.113 214.514 285.113 214.513 285.113 214.513C285.414 213.298 285.431 212.042 285.163 210.781C284.79 208.999 283.927 205.296 282.325 200.441C282.306 200.382 282.289 200.324 282.273 200.265C279.709 192.548 276.386 185.245 272.393 178.556C262.863 162.576 247.179 158.988 245.479 158.642C241.764 158.543 187.436 157.25 166.151 164.21C146.353 170.68 139.792 195.944 139.081 198.938L142.051 266.266C142.077 266.844 141.901 267.413 141.553 267.877C133.442 278.686 130.159 297.163 128.018 313.811C127.927 314.512 127.544 315.143 126.964 315.546C126.382 315.949 125.658 316.087 124.969 315.925C118.769 314.473 113.752 315.2 110.458 318.029C107.231 320.803 106.332 324.975 106.568 327.954C106.638 328.833 106.948 329.575 107.542 330.288L107.542 330.289C107.571 330.324 107.6 330.36 107.627 330.397C111.589 334.973 125.59 336.712 140.139 337.909C156.887 339.294 159.59 335.385 159.789 335.043C159.804 334.976 159.822 334.91 159.843 334.844C166.441 314.097 183.828 275.827 184.003 275.443C184.425 274.518 185.367 273.944 186.382 273.982L187.291 274.02C187.358 274.023 187.425 274.028 187.491 274.037L202.868 274.741C203.647 274.776 204.365 275.173 204.808 275.814C205.252 276.454 205.371 277.266 205.131 278.008C200.669 291.774 194.699 316.85 194.639 317.102C194.372 318.228 193.366 319.023 192.209 319.023C187.795 319.023 183.635 320.964 181.082 324.215C179.079 326.734 178.159 329.905 178.412 333.398C178.42 333.494 178.426 333.606 178.445 333.718C178.45 333.746 178.454 333.774 178.458 333.803C178.573 334.669 178.924 337.308 183.562 339.063C183.608 339.08 183.654 339.099 183.698 339.119C188.409 340.862 194.283 340.563 194.341 340.557C195.041 340.528 195.699 340.766 196.197 341.238C196.591 341.611 196.85 342.097 196.943 342.624ZM196.98 343.046C196.98 343.048 196.98 343.051 196.98 343.053C196.98 343.051 196.98 343.049 196.98 343.046ZM196.98 343.041C196.98 343.042 196.98 343.043 196.98 343.044C196.98 343.043 196.98 343.042 196.98 343.041ZM159.748 335.268C159.748 335.268 159.748 335.269 159.748 335.27C159.748 335.269 159.748 335.268 159.748 335.268Z"
      fill="#05150D" />
    <path
      d="M239.687 248.943L199.989 269.507C198.209 270.432 196.201 270.826 194.201 270.644L129.631 264.846L124.547 264.391C120.812 264.057 117.57 261.677 116.13 258.213L95.4856 208.55C94.8189 206.958 95.0462 205.139 96.069 203.76L99.3646 199.295C100.304 198.022 101.796 197.287 103.372 197.309L172.458 198.333C175.64 198.378 178.458 200.402 179.526 203.404L191.959 238.392L236.581 241.462L238.74 241.614L239.687 248.943Z"
      fill="#CCCCCC" />
    <g opacity="0.61">
      <path
        d="M103.046 204.776C102.024 206.155 101.804 207.974 102.463 209.566L123.108 259.229C124.176 261.806 126.252 263.785 128.782 264.77L124.547 264.391C120.812 264.057 117.57 261.677 116.13 258.213L95.4856 208.55C94.8189 206.958 95.0462 205.139 96.069 203.76L99.3646 199.295C100.304 198.022 101.796 197.287 103.372 197.309L172.458 198.333C173.746 198.348 174.973 198.689 176.049 199.295L110.35 198.325C108.774 198.302 107.281 199.045 106.342 200.311L103.046 204.776Z"
        fill="#F2F2F2" />
    </g>
    <path
      d="M195.15 273.19C194.761 273.19 194.372 273.173 193.982 273.138L124.327 266.884C119.65 266.463 115.624 263.508 113.821 259.17L93.1764 209.511C92.1843 207.124 92.522 204.35 94.0578 202.273L97.3541 197.81C98.7678 195.896 101.054 194.752 103.41 194.811L172.491 195.832C176.699 195.894 180.474 198.601 181.883 202.568L193.765 236.012L238.913 239.121C240.1 239.202 241.066 240.112 241.218 241.294L242.165 248.621C242.3 249.662 241.769 250.677 240.836 251.16L201.136 271.73C199.279 272.693 197.23 273.19 195.15 273.19ZM103.3 199.808C102.541 199.808 101.823 200.17 101.372 200.781L98.075 205.244C97.577 205.918 97.4678 206.817 97.7894 207.591L118.434 257.251C119.522 259.869 121.951 261.652 124.773 261.905L194.428 268.159C195.953 268.299 197.479 267.997 198.839 267.292L236.986 247.527L236.526 243.967L191.787 240.887C190.795 240.819 189.938 240.168 189.605 239.23L177.175 204.242C176.462 202.233 174.55 200.862 172.417 200.829L103.336 199.808C103.324 199.808 103.311 199.808 103.3 199.808Z"
      fill="#05150D" />
    <path
      d="M201.979 270.977C200.933 270.977 199.958 270.315 199.609 269.267L189.589 239.181C189.153 237.871 189.86 236.456 191.169 236.02C192.479 235.583 193.893 236.292 194.329 237.601L204.349 267.687C204.785 268.997 204.078 270.412 202.769 270.848C202.507 270.935 202.24 270.977 201.979 270.977Z"
      fill="#05150D" />
    <path
      d="M199.307 262.345C198.608 262.345 197.937 261.958 197.607 261.288C197.144 260.35 197.53 259.214 198.468 258.751L236.785 239.837C237.725 239.374 238.859 239.759 239.321 240.698C239.784 241.636 239.398 242.773 238.46 243.236L200.143 262.15C199.874 262.283 199.588 262.345 199.307 262.345Z"
      fill="#05150D" />
    <path
      d="M186.277 271.812C186.038 271.812 185.797 271.799 185.556 271.774C184.516 271.666 183.76 270.735 183.867 269.694C183.976 268.653 184.914 267.899 185.947 268.004C187.015 268.121 188.019 267.696 188.693 266.856C189.366 266.015 189.557 264.947 189.214 263.925L172.289 213.313C171.532 211.051 169.422 209.531 167.038 209.531L101.08 208.371C100.304 208.352 99.5928 208.712 99.1368 209.346C98.6817 209.981 98.5717 210.766 98.8351 211.501L99.3072 212.82C99.66 213.805 99.1475 214.89 98.1624 215.243C97.1795 215.594 96.0935 215.082 95.7406 214.097L95.2685 212.779C94.5903 210.882 94.886 208.773 96.0598 207.137C97.233 205.5 99.1492 204.516 101.147 204.581L167.072 205.741C171.054 205.741 174.607 208.3 175.882 212.11L192.807 262.722C193.554 264.956 193.121 267.387 191.649 269.226C190.328 270.875 188.359 271.811 186.277 271.812Z"
      fill="#05150D" />
    <path d="M179.01 201.493L172.262 207.253L175.993 199.202C177.504 196.447 181.255 199.298 179.01 201.493Z"
      fill="#05150D" />
    <path
      d="M154.927 234.353C154.927 241.849 149.396 247.928 142.57 247.928C140.008 247.928 137.626 247.07 135.654 245.601C134.645 244.851 134.969 243.305 136.185 242.99C140.72 241.816 144.04 238.023 144.04 233.519C144.04 229.555 141.462 226.137 137.747 224.576C136.578 224.084 136.469 222.453 137.612 221.902C139.127 221.173 140.804 220.77 142.57 220.77C149.396 220.77 154.927 226.849 154.927 234.353Z"
      fill="#05150D" />
    <g opacity="0.61">
      <path
        d="M156.443 236.626C156.443 244.123 150.913 250.202 144.087 250.202C141.526 250.202 139.14 249.346 137.17 247.875C136.617 247.466 136.466 246.814 136.64 246.261C138.397 247.322 140.42 247.928 142.572 247.928C149.398 247.928 154.928 241.849 154.928 234.353C154.928 231.859 154.315 229.517 153.239 227.508C155.239 229.918 156.443 233.117 156.443 236.626Z"
        fill="#F2F2F2" />
    </g>
    <g opacity="0.2">
      <path
        d="M239.688 248.755L199.99 269.32C198.21 270.244 196.202 270.639 194.202 270.457L129.631 264.658L129.586 264.582C132.616 263.657 179.08 258.109 172.262 209.598L179.08 206.285L193.005 241.35C193.005 241.35 197.907 259.466 216.96 250.802C225.491 246.929 231.991 243.677 236.582 241.274L238.741 241.426L239.688 248.755Z"
        fill="#05150D" />
    </g>
    <path
      d="M192.441 314.037C201.152 315.956 209.319 319.907 216.391 325.274C214.436 324.329 212.476 323.43 210.452 322.707C204.558 320.548 198.237 319.162 191.982 319.014C188.341 318.88 188.827 313.506 192.441 314.037Z"
      fill="#05150D" />
    <path
      d="M193.297 340.859C196.984 339.882 200.586 340.061 204.301 340.058C201.957 341.216 199.635 342.426 197.471 343.844C196.789 344.3 196.093 344.793 195.67 345.258C194.692 346.334 193.027 346.413 191.952 345.434C190.309 343.952 191.171 341.259 193.297 340.859Z"
      fill="#05150D" />
    <path
      d="M126.239 311.098C131.209 313.516 136.292 315.755 140.822 318.93C139.535 318.466 138.216 318.165 136.888 317.878C132.914 317.051 128.855 316.435 124.847 315.899C123.463 315.719 122.486 314.45 122.666 313.065C122.854 311.393 124.733 310.369 126.239 311.098Z"
      fill="#05150D" />
    <path
      d="M173.269 306.901C172.098 306.901 171.052 306.073 170.82 304.88C169.239 296.766 164.476 290.137 157.408 286.214C150.075 282.143 141.139 281.457 133.506 284.375C132.218 284.869 130.773 284.222 130.281 282.933C129.788 281.643 130.433 280.199 131.722 279.706C140.716 276.265 151.225 277.065 159.832 281.843C168.212 286.495 173.855 294.336 175.723 303.923C175.988 305.278 175.104 306.591 173.75 306.854C173.589 306.886 173.428 306.901 173.269 306.901Z"
      fill="#05150D" />
    <path
      d="M186.278 278.978C185.736 278.978 185.196 278.802 184.753 278.46C183.38 277.704 174.483 274.012 166.468 270.797C165.187 270.283 164.565 268.828 165.078 267.547C165.592 266.265 167.047 265.643 168.327 266.157C187.311 273.772 187.735 274.303 188.227 274.917C189.088 275.995 188.914 277.568 187.837 278.43C187.376 278.799 186.825 278.978 186.278 278.978ZM184.326 278.041C184.327 278.042 184.328 278.042 184.329 278.044C184.328 278.042 184.327 278.042 184.326 278.041Z"
      fill="#05150D" />
    <path
      d="M240.701 308.795C239.866 308.795 239.05 308.376 238.577 307.615C233.776 299.885 220.506 282.834 201.047 291.403C199.783 291.957 198.31 291.385 197.754 290.122C197.199 288.858 197.772 287.383 199.034 286.827C215.021 279.789 231.388 286.572 242.82 304.977C243.548 306.149 243.189 307.689 242.017 308.418C241.607 308.674 241.151 308.795 240.701 308.795Z"
      fill="#05150D" />
    <path
      d="M232.425 228.292C231.494 228.292 230.522 228.181 229.517 227.93C224.404 226.651 219.52 224.401 216.121 221.756C213.095 219.404 211.404 215.774 211.446 211.936C209.678 213.449 207.954 214.868 207.119 215.396C205.467 216.441 203.217 216.328 201.387 215.108C200.165 214.294 197.43 211.784 198.397 206.055C199.693 198.374 214.535 190.181 217.497 188.617C221.13 186.698 235.097 187.753 241.151 188.321L254.502 187.532C254.664 187.522 254.829 187.528 254.989 187.551C261.762 188.483 267.198 192.902 269.902 199.677C273.409 208.463 271.682 219.139 265.503 226.876C264.642 227.953 263.07 228.13 261.992 227.268C261.969 227.25 261.946 227.231 261.924 227.211C261.385 227.533 260.726 227.651 260.068 227.495L242.937 223.413C241.148 225.202 237.343 228.292 232.425 228.292ZM214.972 203.014C215.389 203.014 215.809 203.118 216.19 203.332C217.123 203.854 217.62 204.911 217.428 205.962L216.571 210.65C216.066 213.419 217.068 216.162 219.187 217.809C222.016 220.01 226.331 221.981 230.728 223.08C235.861 224.365 240.084 219.145 240.127 219.092C240.729 218.335 241.722 217.986 242.666 218.21L261.226 222.632C261.566 222.713 261.872 222.86 262.136 223.056C266.701 216.844 267.968 208.308 265.262 201.53C263.245 196.479 259.444 193.293 254.542 192.537L241.255 193.322C241.127 193.33 240.999 193.328 240.872 193.315C232.153 192.492 221.614 192.185 219.823 193.041C212.289 197.021 203.941 203.228 203.324 206.888C203.028 208.64 203.244 210.046 203.918 210.747C204.184 211.023 204.437 211.094 204.549 211.105C205.883 210.204 210.579 206.099 213.302 203.653C213.772 203.231 214.369 203.014 214.972 203.014Z"
      fill="#05150D" />
    <path
      d="M240.743 221.978L236.392 216.009L237.653 215.77L234.938 220.105L236.23 215.156C236.406 214.554 237.082 214.506 237.491 214.916L243.43 219.306C245.686 221.167 242.593 224.248 240.743 221.978Z"
      fill="#05150D" />
    <path d="M237.617 191.645L234.938 180.219L241.758 189.767L237.617 191.645Z" fill="#05150D" />
    <path d="M159.572 197.31L161.845 186.66L164.118 197.31H159.572Z" fill="#05150D" />
    <path
      d="M179.458 203.752C178.12 203.752 177.012 202.692 176.963 201.343C176.913 199.964 177.99 198.805 179.368 198.754L204.243 197.85C205.634 197.798 206.779 198.877 206.83 200.257C206.88 201.636 205.803 202.795 204.425 202.846L179.55 203.75C179.519 203.751 179.488 203.752 179.458 203.752Z"
      fill="#05150D" />
    <path
      d="M189.346 233.312C188.132 233.312 187.125 232.353 187.076 231.129C187.026 229.874 188.002 228.816 189.257 228.766L214.047 227.779C215.459 227.723 216.566 226.57 216.566 225.156V220.641C216.566 219.385 217.583 218.367 218.839 218.367C220.094 218.367 221.111 219.385 221.111 220.641V225.156C221.111 229.021 218.088 232.169 214.227 232.324L189.437 233.311C189.407 233.312 189.376 233.312 189.346 233.312Z"
      fill="#05150D" />
    <path
      d="M187.918 226.584C186.706 226.584 185.7 225.628 185.649 224.406C185.595 223.151 186.569 222.091 187.824 222.038L204.437 221.337C204.98 221.314 205.48 221.079 205.845 220.676C206.21 220.273 206.393 219.752 206.363 219.209L205.928 211.543C205.857 210.289 206.814 209.215 208.068 209.144C209.32 209.083 210.394 210.031 210.466 211.285L210.901 218.95C211.002 220.719 210.403 222.416 209.215 223.729C208.026 225.041 206.397 225.806 204.628 225.88L188.015 226.582C187.983 226.583 187.95 226.584 187.918 226.584Z"
      fill="#05150D" />
    <path
      d="M209.783 220.698L216.771 227.4L207.496 224.628C206.258 224.258 205.555 222.954 205.925 221.717C206.373 220.062 208.585 219.495 209.783 220.698Z"
      fill="#05150D" />
    <path
      d="M278.579 155.985C275.761 158.964 271.82 160.756 267.72 160.892C270.531 157.904 274.482 156.131 278.579 155.985Z"
      fill="#05150D" />
    <g opacity="0.3">
      <path
        d="M179.117 322.672C178.224 326.386 177.178 330.32 175.981 334.133C175.951 333.951 175.936 333.769 175.921 333.58C175.602 329.191 176.875 325.492 179.117 322.672Z"
        fill="#040B16" />
    </g>
    <g opacity="0.2">
      <path
        d="M187.186 276.52L186.277 276.482C186.277 276.482 168.852 314.76 162.223 335.605C162.223 335.605 161.405 342.177 139.935 340.403C122.328 338.955 109.903 336.992 105.661 331.944C105.63 331.898 105.615 331.876 105.615 331.876C105.615 331.876 111.653 322.052 130.593 328.199C149.533 334.339 152.942 313.494 152.942 313.494C152.942 313.494 172.64 279.969 161.844 267.742L187.186 276.52Z"
        fill="#05150D" />
    </g>
    <g opacity="0.2">
      <path
        d="M287.213 215.307C285.887 220.689 280.69 231.217 260.326 225.259C260.326 225.259 271.69 252.926 254.265 281.729C241.189 303.339 233.946 328.505 231.143 339.73C229.658 345.658 225.84 350.812 220.431 353.662C216.347 355.815 211.309 356.777 206.157 353.609C194.271 346.302 194.157 343.361 194.157 343.247C194.157 343.247 187.672 343.619 182.361 341.602L182.354 341.595C182.354 341.595 208.877 344.9 210.574 334.091C212.271 323.274 210.574 322.41 210.574 322.41C210.574 322.41 233.969 281.813 237.295 272.671C240.628 263.538 235.825 260.642 235.825 260.642L204.006 270.109L240.371 248.12L239.363 233.393C239.363 233.393 224.196 235.083 219.476 225.98L216.446 229.353L208.067 220.962L208.317 209.342L216.446 204.915C216.446 204.915 223.045 218.794 234.613 211.601L239.363 208.834C239.363 208.834 286.357 221.318 284.372 199.852C285.933 204.582 286.834 208.319 287.281 210.456C287.622 212.063 287.607 213.715 287.213 215.307Z"
        fill="#05150D" />
    </g>
    <g opacity="0.2">
      <path d="M201.979 179.273C201.979 179.273 247.074 190.074 262.415 162.408L249.065 157.016" fill="#05150D" />
    </g>
    <path
      d="M129.778 139.743C136.68 150.688 146.391 159.956 158.356 166.397C160.797 167.709 163.322 168.905 165.938 169.971C167.209 170.494 168.511 170.982 169.831 171.449C173.816 172.836 177.839 173.882 181.875 174.602C185.351 175.232 188.838 175.613 192.304 175.769C196.489 175.959 200.652 175.806 204.756 175.339C206.252 175.164 207.739 174.95 209.218 174.698C236.261 170.024 260.124 151.469 270.053 124.095C284.687 83.7733 263.536 39.6019 222.823 25.43C214.98 22.7061 206.977 21.2801 199.071 21.069C198.147 21.0357 197.219 21.0288 196.291 21.0411C193.811 21.0576 191.344 21.1901 188.898 21.4378C183.241 22.013 177.689 23.1979 172.344 24.9406C166.999 26.677 161.848 28.978 156.999 31.791C155.457 32.6846 153.944 33.6279 152.461 34.6279C150.241 36.1275 148.092 37.7323 146.025 39.4619C135.707 48.0423 127.474 59.3504 122.602 72.7841C114.182 95.9783 117.607 120.442 129.778 139.743Z"
      fill="#F2F2F2" />
    <path
      d="M195.799 176.067C194.626 176.067 193.457 176.04 192.294 175.988C188.77 175.829 185.251 175.436 181.836 174.818C177.762 174.09 173.698 173.027 169.758 171.656C168.312 171.144 167.036 170.659 165.854 170.173C163.289 169.128 160.731 167.922 158.251 166.589C146.562 160.297 136.651 151.053 129.591 139.859C116.857 119.665 114.234 95.1891 122.394 72.7067C127.11 59.7035 135.232 48.1482 145.883 39.2905C147.895 37.6071 150.067 35.9765 152.339 34.4436C153.794 33.4618 155.325 32.5042 156.888 31.5979C161.752 28.7768 166.929 26.4652 172.276 24.7291C177.674 22.9693 183.259 21.7879 188.876 21.2164C191.318 20.9696 193.812 20.8352 196.29 20.8183C197.279 20.8053 198.194 20.8152 199.079 20.8472C207.147 21.062 215.161 22.5336 222.896 25.2197C242.722 32.1214 258.557 46.2684 267.486 65.0568C276.344 83.6963 277.329 104.689 270.259 124.168C260.665 150.623 237.289 170.068 209.255 174.913C207.788 175.163 206.283 175.38 204.782 175.556C201.795 175.896 198.787 176.067 195.799 176.067ZM129.964 139.623C136.984 150.754 146.837 159.945 158.461 166.201C160.926 167.526 163.469 168.725 166.021 169.765C167.197 170.248 168.467 170.73 169.904 171.239C173.821 172.603 177.862 173.66 181.914 174.384C185.31 174.998 188.809 175.389 192.314 175.548C196.417 175.731 200.595 175.589 204.731 175.118C206.225 174.943 207.722 174.728 209.181 174.479C237.059 169.661 260.305 150.325 269.845 124.018C276.874 104.651 275.895 83.7785 267.088 65.2468C258.21 46.5661 242.464 32.4992 222.751 25.6374C215.06 22.9652 207.09 21.5026 199.064 21.2879C198.185 21.2566 197.279 21.2466 196.294 21.2604C193.829 21.2765 191.348 21.4102 188.921 21.6554C183.335 22.2239 177.781 23.3992 172.412 25.1482C167.095 26.8759 161.946 29.1744 157.11 31.9802C155.554 32.8812 154.032 33.8325 152.585 34.809C150.327 36.3334 148.167 37.9556 146.165 39.6292C135.574 48.4373 127.498 59.9275 122.809 72.8574C114.694 95.2107 117.303 119.546 129.964 139.623Z"
      fill="#05150D" />
    <g opacity="0.2">
      <path
        d="M270.052 124.088C260.126 151.464 236.26 170.021 209.216 174.691C207.738 174.945 206.252 175.159 204.758 175.333C200.653 175.802 196.49 175.951 192.305 175.764C188.839 175.606 185.351 175.227 181.877 174.598C177.84 173.879 173.818 172.833 169.83 171.446C168.512 170.974 167.211 170.489 165.937 169.969C163.321 168.901 160.798 167.701 158.356 166.391C146.391 159.95 136.679 150.685 129.777 139.736C125.984 133.724 123.039 127.205 121.038 120.383C127.867 130.678 137.231 139.392 148.646 145.538C151.085 146.855 153.611 148.048 156.227 149.116C157.496 149.638 158.797 150.123 160.119 150.593C164.108 151.979 168.129 153.026 172.162 153.747C175.64 154.374 179.124 154.755 182.59 154.913C186.775 155.1 190.942 154.948 195.043 154.482C196.541 154.306 198.027 154.092 199.505 153.837C226.549 149.168 250.411 130.613 260.342 103.235C266.139 87.2646 266.316 70.6922 261.894 55.6213C274.86 75.1463 278.692 100.289 270.052 124.088Z"
        fill="#05150D" />
    </g>
    <path
      d="M195.799 177.544C194.604 177.544 193.413 177.518 192.228 177.464C188.639 177.303 185.054 176.902 181.574 176.272C177.427 175.532 173.287 174.448 169.274 173.051C167.798 172.529 166.498 172.036 165.293 171.541C162.683 170.477 160.078 169.249 157.553 167.892C145.639 161.478 135.539 152.057 128.342 140.648C115.363 120.064 112.689 95.1176 121.007 72.203C125.812 58.9537 134.087 47.1801 144.94 38.1549C146.988 36.4418 149.2 34.7804 151.513 33.2194C152.996 32.2185 154.557 31.2426 156.149 30.3203C161.102 27.4465 166.375 25.093 171.821 23.324C177.318 21.5329 183.006 20.3285 188.727 19.747C191.215 19.4949 193.756 19.3587 196.281 19.342C197.289 19.329 198.224 19.3374 199.133 19.3711C207.339 19.5897 215.503 21.0889 223.381 23.8244C243.584 30.8574 259.721 45.2751 268.82 64.4235C277.85 83.4228 278.854 104.82 271.649 124.674C261.873 151.625 238.063 171.435 209.507 176.37C208.012 176.625 206.482 176.845 204.954 177.024C201.909 177.371 198.842 177.544 195.799 177.544ZM131.214 138.835C138.098 149.751 147.761 158.764 159.161 164.9C161.579 166.2 164.075 167.377 166.579 168.397C167.736 168.872 168.983 169.346 170.397 169.847C174.234 171.182 178.199 172.219 182.173 172.929C185.509 173.533 188.942 173.916 192.381 174.071C196.411 174.254 200.507 174.113 204.565 173.651C206.028 173.479 207.499 173.267 208.934 173.022C236.287 168.295 259.097 149.324 268.458 123.514C275.35 104.521 274.391 84.054 265.755 65.8814C257.048 47.5607 241.604 33.7642 222.267 27.033C214.719 24.4121 206.9 22.9762 199.027 22.7661C198.157 22.734 197.276 22.724 196.314 22.7377C193.886 22.7545 191.452 22.8852 189.07 23.126C183.59 23.6838 178.14 24.837 172.871 26.5539C167.65 28.2495 162.598 30.5052 157.851 33.2591C156.324 34.1432 154.831 35.077 153.412 36.0352C151.195 37.5307 149.076 39.1223 147.114 40.7637C136.721 49.4067 128.798 60.6785 124.198 73.3623C116.241 95.2827 118.798 119.146 131.214 138.835Z"
      fill="#05150D" />
    <path
      d="M195.798 178.035C194.596 178.035 193.397 178.008 192.204 177.954C188.593 177.792 184.986 177.387 181.485 176.754C177.314 176.01 173.149 174.919 169.111 173.514C167.625 172.988 166.317 172.492 165.105 171.993C162.481 170.923 159.86 169.688 157.32 168.323C145.331 161.869 135.167 152.389 127.926 140.908C114.864 120.194 112.173 95.0904 120.543 72.032C125.378 58.701 133.705 46.8538 144.624 37.7729C146.684 36.0498 148.91 34.3786 151.237 32.8075C152.73 31.8003 154.299 30.8193 155.901 29.8908C160.884 27 166.189 24.632 171.668 22.8523C177.197 21.0505 182.921 19.8393 188.677 19.2541C191.18 19.0004 193.737 18.8636 196.277 18.8461C197.287 18.8323 198.234 18.8423 199.15 18.8758C207.402 19.0958 215.616 20.6035 223.541 23.3559C243.87 30.4326 260.107 44.9404 269.265 64.2087C278.35 83.328 279.361 104.86 272.11 124.839C262.276 151.956 238.319 171.887 209.59 176.852C208.086 177.109 206.547 177.33 205.011 177.511C201.945 177.86 198.86 178.035 195.798 178.035ZM131.63 138.57C138.468 149.413 148.068 158.368 159.393 164.464C161.796 165.755 164.276 166.924 166.763 167.938C167.914 168.411 169.154 168.882 170.561 169.379C174.37 170.705 178.309 171.737 182.26 172.442C185.574 173.041 188.985 173.423 192.402 173.577C196.403 173.759 200.476 173.616 204.508 173.158C205.961 172.988 207.424 172.777 208.85 172.534C236.029 167.837 258.694 148.988 267.994 123.344C274.842 104.476 273.889 84.1429 265.309 66.0902C256.66 47.8893 241.316 34.1831 222.103 27.4955C214.604 24.8907 206.835 23.4639 199.012 23.2553C198.146 23.224 197.272 23.214 196.32 23.2278C193.904 23.2437 191.485 23.3738 189.119 23.6137C183.673 24.1669 178.258 25.313 173.022 27.0194C167.835 28.7044 162.814 30.9456 158.097 33.6819C156.58 34.5614 155.096 35.4891 153.686 36.4404C151.484 37.9266 149.378 39.5077 147.428 41.139C137.102 49.727 129.23 60.9253 124.66 73.5274C116.756 95.3029 119.297 119.012 131.63 138.57Z"
      fill="#05150D" />
    <path
      d="M142.459 155.023C190.159 183.655 251.145 157.065 251.185 102.287C251.213 65.0193 214.292 36.4767 178.053 38.9947C151.677 40.8274 126.658 54.0084 118.058 95.2014C118.058 95.2014 117.098 113.998 122.962 126.089C128.825 138.18 136.6 148.948 136.6 148.948L142.459 155.023Z"
      fill="#05150D" />
    <path
      d="M251.184 102.286C251.145 157.062 190.157 183.652 142.459 155.023L141.272 153.791C192.216 159.397 240.679 126.328 241.763 70.9377C247.685 80.1152 251.19 90.7851 251.184 102.286Z"
      fill="#040B16" />
    <path
      d="M183.619 176.807C183.022 176.807 182.428 176.801 181.83 176.788L181.49 176.755C177.314 176.01 173.149 174.919 169.111 173.514C167.625 172.988 166.317 172.492 165.105 171.993C162.481 170.924 159.86 169.688 157.32 168.323C145.331 161.869 135.167 152.389 127.926 140.908C114.864 120.194 112.173 95.0905 120.543 72.032C125.378 58.7011 133.705 46.8539 144.624 37.773L144.797 37.6293L144.996 37.5239C154.152 32.6517 164.945 29.7535 177.076 28.9106C198.926 27.3945 221.859 35.745 238.456 51.2507C253.408 65.2183 261.635 83.3267 261.619 102.24C261.602 122.825 254.207 140.938 240.234 154.623C225.784 168.775 205.233 176.807 183.619 176.807ZM182.091 172.411C203.138 172.788 223.194 165.179 237.17 151.493C250.284 138.649 257.223 121.617 257.24 102.237C257.254 84.5524 249.522 67.5826 235.468 54.4532C219.741 39.762 198.029 31.8494 177.381 33.2815C165.955 34.0754 155.819 36.7689 147.251 41.2872C137.015 49.8525 129.204 60.9964 124.66 73.5275C116.756 95.303 119.298 119.012 131.63 138.57C138.469 149.413 148.069 158.367 159.394 164.464C161.796 165.755 164.276 166.924 166.765 167.938C167.915 168.411 169.154 168.882 170.561 169.379C174.316 170.686 178.198 171.707 182.091 172.411Z"
      fill="#05150D" />
    <path
      d="M183.869 167.477C169.626 167.477 155.112 163.532 142.057 155.696L141.896 155.568L135.967 149.408C135.889 149.3 128.083 138.445 122.258 126.433C116.375 114.3 117.237 95.9392 117.277 95.1636L117.293 95.0435C124.688 59.6208 145.112 40.5015 177.999 38.2151C197.116 36.8962 217.194 44.2005 231.73 57.7792C244.792 69.9809 251.979 85.7883 251.967 102.289C251.95 126.248 240.216 146.626 219.774 158.197C208.822 164.396 196.451 167.477 183.869 167.477ZM142.95 154.406C167.039 168.825 196.17 169.758 219.004 156.834C238.942 145.549 250.386 125.668 250.403 102.287C250.415 86.2261 243.404 70.825 230.662 58.9222C216.439 45.6362 196.789 38.4765 178.107 39.7769C146.024 42.0066 126.082 60.6889 118.836 95.3018C118.786 96.4678 118.12 114.313 123.665 125.749C129.243 137.253 136.655 147.681 137.203 148.447L142.95 154.406Z"
      fill="#05150D" />
    <path
      d="M285.664 96.6369C287.512 111.779 280.004 125.614 268.89 127.536C257.777 129.459 247.269 118.741 245.421 103.6C245.407 103.505 245.398 103.404 245.39 103.308C243.669 88.2805 251.158 74.6081 262.194 72.7C270.78 71.2143 279.003 77.2729 283.154 87.0848C284.374 89.9741 285.243 93.1934 285.664 96.6369Z"
      fill="#F2F2F2" />
    <g opacity="0.2">
      <path
        d="M285.664 96.6344C287.513 111.776 280.004 125.611 268.891 127.534C257.777 129.456 247.269 118.739 245.421 103.597C245.407 103.503 245.398 103.401 245.39 103.306C246.801 104.648 248.89 105.849 251.403 104.888C255.805 103.202 262.715 92.0641 262.715 92.0641C262.715 92.0641 271.564 89.846 283.154 87.0823C284.374 89.9716 285.244 93.1909 285.664 96.6344Z"
        fill="#05150D" />
    </g>
    <path
      d="M266.272 129.951C262.344 129.951 258.488 128.61 254.976 125.999C248.667 121.31 244.392 113.24 243.248 103.862C241.262 87.603 249.596 72.6544 261.824 70.54C266.769 69.6841 271.711 70.9609 276.112 74.2331C282.42 78.9226 286.695 86.9917 287.84 96.3699C289.825 112.63 281.491 127.578 269.263 129.692C268.265 129.865 267.266 129.951 266.272 129.951ZM264.786 74.6662C264.047 74.6662 263.308 74.7296 262.57 74.8573C252.606 76.5805 245.888 89.3537 247.595 103.33C248.58 111.403 252.316 118.563 257.588 122.483C261.002 125.02 264.784 126.021 268.518 125.375C278.482 123.652 285.199 110.878 283.492 96.9017C282.507 88.8286 278.772 81.6687 273.5 77.7495C270.76 75.713 267.784 74.6662 264.786 74.6662Z"
      fill="#05150D" />
    <path
      d="M273.818 123.507C282.289 122.965 288.511 112.446 287.715 100.012C286.919 87.5791 279.407 77.9399 270.936 78.4825C262.466 79.0252 256.244 89.5442 257.039 101.977C257.835 114.411 265.347 124.05 273.818 123.507Z"
      fill="#F2F2F2" />
    <g opacity="0.2">
      <path
        d="M274.991 123.369C283.376 121.852 288.987 110.61 287.529 98.2554C287.373 96.9139 287.133 95.6148 286.831 94.3674C285.616 103.147 280.749 110.096 274.23 111.27C266.868 112.594 259.81 106.109 257.144 96.2609C256.876 98.6571 256.873 101.18 257.174 103.75C258.632 116.105 266.61 124.885 274.991 123.369Z"
        fill="#05150D" />
    </g>
    <path
      d="M273.087 125.73C270.173 125.73 267.299 124.728 264.663 122.776C259.555 118.994 255.944 111.977 255.003 104.006C253.386 90.317 259.676 78.2269 269.324 76.4816C273.01 75.8129 276.717 76.7644 280.045 79.2272C285.153 83.0089 288.764 90.0259 289.705 97.9972C291.322 111.685 285.03 123.776 275.384 125.522C274.618 125.661 273.852 125.73 273.087 125.73ZM271.592 80.6591C271.094 80.6591 270.597 80.7034 270.104 80.7927C262.975 82.0826 258.051 92.4778 259.352 103.492C260.154 110.285 263.113 116.177 267.268 119.254C269.6 120.981 272.14 121.656 274.604 121.211C281.732 119.92 286.656 109.524 285.356 98.5107C284.554 91.7176 281.594 85.8253 277.44 82.7489C275.575 81.3683 273.578 80.6591 271.592 80.6591Z"
      fill="#05150D" />
    <g opacity="0.5">
      <path
        d="M197.959 54.5703C197.959 54.5703 165.449 53.5212 148.281 73.7981C148.263 73.8194 148.245 73.8408 148.227 73.8621C144.617 78.1327 141.454 88.7616 140.512 94.2336C139.267 101.47 139.481 105.065 139.846 109.599C140.964 123.387 144.101 129.623 144.101 129.623C135.566 123.021 130.419 115.136 129.372 103.661C129.272 102.529 129.211 101.359 129.187 100.155C129.18 99.8777 129.18 99.6026 129.184 99.3252C129.178 99.3232 129.18 99.3169 129.187 99.3086C129.312 96.8658 129.598 95.2257 130.227 91.6353C132.117 80.805 137.089 66.4627 150.029 58.8925C174.225 44.737 198.993 53.0313 197.959 54.5703Z"
        fill="#F2F2F2" />
    </g>
    <g opacity="0.5">
      <path
        d="M227.093 105.699C232.521 103.688 235.049 97.0005 232.74 90.7624C230.431 84.5243 224.159 81.0976 218.731 83.1088C213.303 85.1199 210.775 91.8072 213.084 98.0453C215.393 104.283 221.665 107.71 227.093 105.699Z"
        fill="#F2F2F2" />
    </g>
    <g opacity="0.5">
      <path
        d="M232.454 121.037C234.607 120.003 235.389 117.156 234.2 114.679C233.011 112.202 230.302 111.033 228.148 112.068C225.995 113.103 225.213 115.95 226.402 118.426C227.591 120.903 230.3 122.072 232.454 121.037Z"
        fill="#F2F2F2" />
    </g>
    <path
      d="M352.946 142.9L358.016 151.609L368.061 152.368C370.922 152.584 372.294 155.989 370.382 158.13L363.67 165.645L366.052 175.438C366.731 178.227 363.918 180.584 361.293 179.427L352.075 175.362L343.502 180.656C341.06 182.163 337.95 180.215 338.24 177.359L339.255 167.332L331.574 160.811C329.386 158.953 330.277 155.392 333.081 154.785L342.927 152.652L346.752 143.328C347.842 140.673 351.502 140.42 352.946 142.9Z"
      fill="#1D7C4E" />
    <g opacity="0.2">
      <path
        d="M370.381 158.13L363.669 165.644L366.05 175.433C366.728 178.225 363.917 180.579 361.296 179.427L352.076 175.363L343.5 180.65C341.246 182.049 338.413 180.48 338.229 177.978C338.738 177.928 339.247 177.766 339.734 177.469L348.304 172.182L357.523 176.246C360.151 177.398 362.963 175.045 362.285 172.253L359.904 162.463L366.615 154.95C367.308 154.172 367.569 153.225 367.484 152.32L368.064 152.363C370.925 152.582 372.295 155.989 370.381 158.13Z"
        fill="#05150D" />
    </g>
    <g opacity="0.61">
      <path
        d="M353.609 144.046C352.471 144.208 351.412 144.915 350.903 146.152L347.074 155.475L337.233 157.61C334.428 158.217 333.538 161.78 335.721 163.639L343.407 170.156L342.39 180.185C342.355 180.496 342.369 180.8 342.418 181.09C340.242 181.585 337.996 179.804 338.236 177.358L339.253 167.328L331.574 160.811C329.384 158.952 330.274 155.39 333.079 154.782L342.927 152.648L346.749 143.324C347.844 140.674 351.504 140.419 352.945 142.9L353.609 144.046Z"
        fill="#F2F2F2" />
    </g>
    <path
      d="M341.684 183.297C340.66 183.297 339.635 183.011 338.723 182.441C336.909 181.304 335.915 179.275 336.131 177.144L337.034 168.226L330.203 162.426C328.571 161.041 327.88 158.89 328.399 156.813C328.919 154.736 330.54 153.164 332.632 152.71L341.389 150.814L344.792 142.522C345.604 140.541 347.436 139.218 349.57 139.071C351.707 138.932 353.701 139.982 354.778 141.832L359.287 149.578L368.22 150.252C370.355 150.414 372.177 151.748 372.978 153.734C373.777 155.72 373.389 157.946 371.962 159.542L365.992 166.226L368.112 174.935C368.618 177.015 367.913 179.162 366.272 180.536C364.632 181.912 362.394 182.229 360.438 181.365L352.24 177.751L344.616 182.459C343.71 183.018 342.697 183.297 341.684 183.297ZM349.957 143.299C349.922 143.299 349.89 143.3 349.862 143.302C349.613 143.319 348.999 143.435 348.713 144.132L344.887 153.456C344.622 154.101 344.057 154.575 343.375 154.723L333.53 156.855C332.793 157.015 332.573 157.599 332.512 157.843C332.45 158.086 332.371 158.705 332.945 159.193L340.626 165.714C341.158 166.165 341.433 166.85 341.363 167.545L340.348 177.572C340.273 178.321 340.759 178.712 340.972 178.845C341.185 178.98 341.75 179.247 342.39 178.85L350.961 173.557C351.556 173.189 352.291 173.138 352.929 173.421L362.147 177.485C362.835 177.788 363.358 177.447 363.551 177.285C363.743 177.124 364.172 176.67 363.994 175.938L361.611 166.146C361.446 165.468 361.625 164.752 362.09 164.232L368.802 156.716C369.304 156.154 369.14 155.552 369.046 155.319C368.952 155.086 368.653 154.538 367.902 154.481L357.857 153.722C357.161 153.67 356.536 153.278 356.185 152.676L351.115 143.967C350.777 143.387 350.246 143.299 349.957 143.299Z"
      fill="#05150D" />
    <path
      d="M46.8037 174.768L51.8734 183.477L61.9182 184.236C64.7795 184.452 66.1509 187.857 64.2391 189.997L57.5272 197.513L59.9098 207.305C60.5885 210.094 57.7757 212.452 55.15 211.294L45.932 207.23L37.3597 212.523C34.9179 214.031 31.8079 212.083 32.0971 209.226L33.1121 199.199L25.4315 192.678C23.2437 190.821 24.1345 187.259 26.9388 186.652L36.7841 184.519L40.6093 175.195C41.6991 172.54 45.3595 172.287 46.8037 174.768Z"
      fill="#1D7C4E" />
    <g opacity="0.2">
      <path
        d="M64.2383 190.005L57.5269 197.519L59.9076 207.309C60.5859 210.1 57.7741 212.454 55.1531 211.302L45.9337 207.238L37.3572 212.525C35.1035 213.924 32.2705 212.355 32.0869 209.853C32.5956 209.804 33.1042 209.641 33.5916 209.344L42.1611 204.057L51.3805 208.121C54.0086 209.274 56.8203 206.92 56.1421 204.128L53.7613 194.338L60.4728 186.825C61.1651 186.047 61.4264 185.1 61.3417 184.195L61.921 184.238C64.7823 184.457 66.1528 187.864 64.2383 190.005Z"
        fill="#05150D" />
    </g>
    <g opacity="0.61">
      <path
        d="M47.466 175.913C46.3286 176.075 45.2688 176.782 44.7602 178.019L40.9312 187.342L31.09 189.477C28.2853 190.085 27.3952 193.647 29.5782 195.506L37.2646 202.023L36.2473 212.053C36.212 212.364 36.226 212.668 36.2756 212.957C34.0997 213.452 31.8531 211.671 32.0934 209.225L33.1107 199.195L25.4314 192.678C23.2414 190.819 24.1316 187.257 26.9362 186.649L36.7844 184.515L40.6064 175.192C41.7015 172.541 45.361 172.287 46.8022 174.768L47.466 175.913Z"
        fill="#F2F2F2" />
    </g>
    <path
      d="M35.5409 215.169C34.516 215.169 33.491 214.882 32.5791 214.311C30.7651 213.175 29.7724 211.146 29.9884 209.016L30.891 200.097L24.0601 194.298C22.4279 192.912 21.7375 190.762 22.2569 188.684C22.7762 186.607 24.3984 185.036 26.4903 184.582L35.2467 182.686L38.6484 174.393C39.461 172.412 41.2925 171.09 43.4272 170.943C45.5681 170.799 47.5583 171.853 48.6352 173.703L53.1443 181.45L62.0778 182.124C64.2116 182.286 66.0348 183.62 66.8344 185.606C67.634 187.592 67.2453 189.817 65.8194 191.413L59.85 198.097L61.9686 206.807C62.475 208.887 61.7708 211.034 60.1303 212.408C58.4898 213.785 56.2528 214.101 54.2952 213.237L46.0964 209.623L38.472 214.33C37.5671 214.889 36.5537 215.168 35.5409 215.169ZM43.8147 175.171C43.7787 175.171 43.7474 175.172 43.7199 175.174C43.4693 175.191 42.856 175.307 42.5696 176.004L38.7448 185.327C38.4798 185.973 37.9145 186.447 37.2326 186.594L27.3872 188.727C26.6509 188.887 26.4302 189.471 26.3691 189.714C26.3079 189.958 26.2286 190.576 26.802 191.064L34.4831 197.585C35.0154 198.037 35.2911 198.721 35.2209 199.416L34.2059 209.444C34.1296 210.193 34.6161 210.584 34.8283 210.717C35.0414 210.85 35.6051 211.117 36.2465 210.721L44.8188 205.429C45.4115 205.061 46.147 205.01 46.7862 205.293L56.0045 209.357C56.6928 209.66 57.2158 209.319 57.4084 209.157C57.6007 208.997 58.0285 208.542 57.8506 207.811L55.4684 198.017C55.3033 197.339 55.4821 196.623 55.9473 196.103L62.6591 188.587C63.1609 188.026 62.9966 187.424 62.9028 187.191C62.8088 186.958 62.5094 186.41 61.7586 186.353L51.7138 185.594C51.018 185.541 50.3933 185.15 50.0419 184.547L44.9721 175.838C44.6349 175.258 44.104 175.171 43.8147 175.171Z"
      fill="#05150D" />
    <path
      d="M84.7472 4.5332L89.8169 13.2422L99.8617 14.0011C102.723 14.2172 104.094 17.6222 102.183 19.7629L95.4707 27.2782L97.8534 37.0707C98.532 39.8602 95.7192 42.2173 93.0935 41.0595L83.8755 36.9952L75.3032 42.2885C72.8614 43.7963 69.7514 41.8483 70.0404 38.9919L71.0554 28.9647L63.3748 22.4436C61.187 20.586 62.0778 17.0249 64.8822 16.4174L74.7274 14.2845L78.5527 4.9609C79.6426 2.30536 83.3032 2.05246 84.7472 4.5332Z"
      fill="#1D7C4E" />
    <g opacity="0.2">
      <path
        d="M102.182 19.7633L95.4702 27.2767L97.851 37.0663C98.5292 39.8582 95.7175 42.212 93.0965 41.0598L83.8771 36.9955L75.3005 42.2824C73.0469 43.682 70.2139 42.1128 70.0303 39.6106C70.5389 39.5612 71.0476 39.3986 71.535 39.1017L80.1045 33.8147L89.3239 37.879C91.952 39.0313 94.7637 36.6775 94.0855 33.8856L91.7047 24.096L98.4161 16.5825C99.1084 15.8049 99.3698 14.8578 99.285 13.9531L99.8644 13.9955C102.726 14.2146 104.096 17.6216 102.182 19.7633Z"
        fill="#05150D" />
    </g>
    <g opacity="0.61">
      <path
        d="M85.4094 5.67836C84.2719 5.84096 83.2122 6.54768 82.7035 7.78461L78.8745 17.1077L69.0334 19.2423C66.2287 19.8501 65.3385 23.4126 67.5216 25.2714L75.208 31.7884L74.1907 41.8183C74.1553 42.1293 74.1695 42.4332 74.219 42.723C72.0431 43.2177 69.7965 41.4365 70.0368 38.9909L71.0541 28.9611L63.3747 22.444C61.1848 20.585 62.0749 17.0226 64.8796 16.4149L74.7278 14.2804L78.5498 4.95724C79.6448 2.3067 83.3043 2.05224 84.7455 4.53314L85.4094 5.67836Z"
        fill="#F2F2F2" />
    </g>
    <path
      d="M73.4848 44.9301C72.4606 44.9301 71.4356 44.6444 70.5237 44.0735C68.7098 42.9372 67.7162 40.9078 67.9316 38.7773L68.8343 29.8591L62.0034 24.0593C60.3719 22.6739 59.6808 20.5229 60.2002 18.446C60.7195 16.3692 62.3418 14.7974 64.4337 14.3442L73.19 12.4468L76.5925 4.15454C77.4051 2.17395 79.2365 0.851268 81.3713 0.703694C83.5106 0.564571 85.5016 1.61449 86.5785 3.46456L91.0876 11.2105L100.021 11.8853C102.156 12.0465 103.978 13.3808 104.778 15.3667C105.578 17.3526 105.189 19.5786 103.763 21.1748L97.7933 27.8587L99.9127 36.5682C100.419 38.649 99.7141 40.7954 98.0728 42.1701C96.4323 43.5439 94.1953 43.8625 92.2385 42.9984L84.0405 39.384L76.4168 44.0918C75.511 44.6513 74.4984 44.9301 73.4848 44.9301ZM81.7578 4.93184C81.7227 4.93184 81.6905 4.93342 81.6631 4.93482C81.4134 4.95235 80.8002 5.06784 80.5137 5.76549L76.6881 15.0886C76.4231 15.7343 75.8578 16.208 75.1758 16.3556L65.3305 18.4891C64.5942 18.6489 64.3735 19.2318 64.3124 19.4756C64.2512 19.7194 64.1719 20.3384 64.7461 20.8258L72.4272 27.347C72.9587 27.7986 73.2344 28.4833 73.1642 29.1778L72.1492 39.2047C72.0737 39.9543 72.5601 40.3455 72.7731 40.4785C72.9862 40.613 73.5499 40.8804 74.1907 40.4831L82.7623 35.19C83.3565 34.8216 84.0912 34.772 84.7304 35.054L93.9481 39.1184C94.6423 39.4225 95.1602 39.0802 95.352 38.9189C95.5443 38.7577 95.9729 38.3037 95.7949 37.571L93.4121 27.7787C93.2471 27.1009 93.4259 26.385 93.891 25.8646L100.603 18.3495C101.105 17.787 100.941 17.185 100.847 16.9518C100.753 16.7188 100.454 16.1709 99.7025 16.1143L89.6577 15.3554C88.9619 15.3027 88.3372 14.9115 87.9859 14.3085L82.9162 5.59976C82.578 5.01964 82.0471 4.93184 81.7578 4.93184Z"
      fill="#05150D" />
  </g>
  <defs>
    <clipPath id="clip0_8310_128254">
      <rect width="406" height="463" fill="white" transform="translate(0.5)" />
    </clipPath>
  </defs>
</svg>