<svg width="100%" height="100%" viewBox="0 0 363 363" fill="none" xmlns="http://www.w3.org/2000/svg">
  <path
    d="M267.821 339.067C319.924 307.528 354.918 249.099 354.918 182.222C354.918 81.8812 276.157 0.539062 179 0.539062C81.8425 0.539062 3.08105 81.8812 3.08105 182.222C3.08105 249.099 38.0758 307.528 90.1791 339.067C117.036 338.568 147.166 338.288 179 338.288C210.833 338.288 240.964 338.568 267.821 339.067Z"
    fill="#0E2D58" />
  <path
    d="M286.767 291.308C282.929 281.167 277.457 271.504 270.494 262.575V251.252C270.494 245.59 268.163 240.201 263.898 235.933L264.04 234.735C264.571 230.237 263.178 225.863 260.117 222.418C256.896 218.794 252.197 216.716 247.225 216.716H246.732C247.149 216.181 247.559 215.642 247.962 215.1C248.473 214.526 248.893 214.013 249.245 213.536C254.502 206.396 258.468 198.569 261.05 190.248C266.104 189.521 270.712 187.085 274.185 183.269C278.15 178.913 280.18 173.274 279.904 167.39L279.139 151.16C278.862 145.275 276.31 139.852 271.953 135.888C268.089 132.371 263.14 130.354 257.938 130.161C253.914 120.777 248.264 112.235 241.126 104.747C225.297 88.1405 203.947 78.6929 181.011 78.1441C180.291 78.1266 179.561 78.1172 178.842 78.1172C156.747 78.1172 135.741 86.5421 119.692 101.84C109.26 111.785 101.492 124.161 97.1485 137.729C91.9763 138.399 87.2567 140.853 83.707 144.754C79.7427 149.11 77.7118 154.749 77.9887 160.633L78.753 176.863C79.2964 188.399 88.5754 197.488 100.027 197.866C102.93 204.609 106.669 210.924 111.185 216.716H110.775C105.804 216.716 101.105 218.794 97.884 222.418C94.9715 225.696 93.5689 229.815 93.8973 234.081C92.2803 235.387 90.8523 236.864 89.6389 238.486C86.7821 242.284 85.2699 246.701 85.2699 251.252V265.711C79.4186 273.759 74.7398 282.367 71.356 291.308C66.0513 305.325 65.8155 316.331 70.6552 324.023H69.0348C75.7031 329.545 82.7678 334.578 90.1801 339.065C117.037 338.566 147.167 338.286 179.001 338.286C210.834 338.286 240.965 338.566 267.822 339.065C275.234 334.578 282.299 329.545 288.967 324.023H287.468C292.308 316.33 292.072 305.324 286.767 291.308Z"
    fill="#F2F2F2" />
  <path
    d="M285.437 81.521C285.513 91.301 289.165 100.686 295.721 107.948C296.075 108.34 296.123 108.905 295.842 109.386L290.055 119.296C288.498 121.963 288.936 125.35 291.12 127.534C292.404 128.818 294.112 129.525 295.929 129.525C297.132 129.525 298.316 129.204 299.356 128.598L314.252 119.901C314.416 119.805 314.599 119.754 314.779 119.754C314.859 119.754 314.938 119.764 315.013 119.785C318.268 120.659 321.638 121.117 325.03 121.146L325.363 121.148C331.753 121.148 337.81 119.608 343.192 116.896C333.703 91.4778 318.848 68.8156 300.049 50.3984C291.061 57.8152 285.34 69.0548 285.437 81.521Z"
    fill="#F2F2F2" />
  <path
    d="M265.795 251.256V310.056C265.795 312.795 265.09 315.405 263.815 317.752C260.332 324.211 252.614 328.726 243.706 328.726H112.056C104.567 328.726 97.9194 325.538 93.9203 320.683C91.4314 317.663 89.9668 314 89.9668 310.056V251.256C89.9668 247.607 91.2264 244.195 93.3967 241.308C97.3122 236.075 104.225 232.586 112.056 232.586H243.706C244.768 232.586 245.807 232.65 246.832 232.778C257.516 234.068 265.795 241.886 265.795 251.256Z"
    fill="#F2F2F2" />
  <path
    d="M243.705 330.702H112.056C104.264 330.702 96.913 327.426 92.3931 321.939C89.5114 318.442 87.9883 314.332 87.9883 310.054V251.254C87.9883 247.298 89.3114 243.447 91.8153 240.117C96.2699 234.163 103.838 230.605 112.056 230.605H243.705C244.84 230.605 245.974 230.675 247.077 230.813C258.872 232.236 267.773 241.024 267.773 251.254V310.054C267.773 313.074 267.026 315.981 265.553 318.695C261.62 325.987 253.043 330.702 243.705 330.702ZM112.056 234.562C105.078 234.562 98.695 237.526 94.9806 242.491C92.9938 245.134 91.9448 248.163 91.9448 251.254V310.054C91.9448 313.403 93.1557 316.643 95.4468 319.423C99.2239 324.009 105.433 326.746 112.056 326.746H243.705C251.608 326.746 258.818 322.847 262.073 316.812C263.231 314.679 263.817 312.407 263.817 310.054V251.254C263.817 243.024 256.413 235.925 246.594 234.741C245.646 234.622 244.677 234.562 243.705 234.562H112.056V234.562Z"
    fill="#07162C" />
  <path
    d="M179.558 216.238C224.537 223.675 266.489 251 282.373 292.973C295.211 326.896 271.894 328.724 271.894 328.724H178.634H179.489H86.2291C86.2291 328.724 62.9127 326.896 75.7503 292.973C91.6349 251 133.586 223.675 178.566 216.238"
    fill="#F2F2F2" />
  <g opacity="0.35">
    <path
      d="M271.891 328.727H86.2258C86.2258 328.727 69.9141 327.446 72.0953 307.178C72.126 307.423 72.1602 307.663 72.1976 307.9C73.767 317.823 87.2756 319.764 91.7863 310.787L93.8265 306.727H264.156L266.342 311.001C270.899 319.913 284.267 317.927 285.899 308.051C285.946 307.766 285.989 307.475 286.026 307.178C288.207 327.446 271.891 328.727 271.891 328.727Z"
      fill="#07162C" />
  </g>
  <path
    d="M78.6289 308.414C78.6289 308.414 87.5105 281.632 111.43 281.555C133.5 281.484 141.927 292.493 136.756 307.61C134.183 315.133 106.692 322.245 93.8262 306.726"
    fill="#F2F2F2" />
  <g opacity="0.35">
    <path
      d="M136.759 307.612C134.182 315.134 106.693 322.242 93.8281 306.726C93.8281 304.009 96.8396 302.417 99.1157 303.901C113.027 312.969 134.496 306.684 136.759 300.079C137.253 298.64 137.619 297.235 137.867 295.875C138.599 299.347 138.228 303.314 136.759 307.612Z"
      fill="#07162C" />
  </g>
  <path
    d="M78.0039 308.203C78.0511 305.057 79.1261 302.233 80.5202 299.596C81.8882 296.937 83.6765 294.499 85.6713 292.251C87.687 290.021 89.8309 287.875 92.2759 286.06C94.7126 284.243 97.4 282.719 100.267 281.623C103.131 280.516 106.171 279.863 109.222 279.657L111.509 279.574C112.25 279.586 112.99 279.586 113.732 279.609C115.216 279.668 116.702 279.756 118.189 279.934C121.16 280.276 124.143 280.872 127.034 281.943C129.917 282.994 132.73 284.561 135.049 286.814C137.382 289.044 139.057 292.051 139.74 295.209C140.441 298.369 140.295 301.599 139.635 304.604C139.49 305.365 139.273 306.099 139.075 306.84L138.729 307.931L138.643 308.204C138.613 308.297 138.549 308.435 138.502 308.548L138.182 309.254C137.188 310.965 135.859 312.045 134.534 312.961C131.85 314.756 128.965 315.811 126.04 316.61C120.18 318.11 114.027 318.394 108.045 317.14C107.299 316.981 106.555 316.809 105.822 316.585C105.081 316.394 104.359 316.125 103.633 315.875C102.906 315.626 102.199 315.312 101.475 315.043C100.776 314.71 100.047 314.433 99.3709 314.044C98.6909 313.664 98.0094 313.28 97.4011 312.784C96.7638 312.333 96.1877 311.798 95.6456 311.235C94.5664 310.106 93.7194 308.733 93.3197 307.143C93.2218 306.753 93.4583 306.357 93.8485 306.259C93.9901 306.224 94.1326 306.232 94.261 306.276L94.335 306.301C95.1083 306.564 95.711 306.933 96.3411 307.255C96.98 307.566 97.5176 307.958 98.1074 308.282C98.3935 308.454 98.6678 308.637 98.938 308.824C99.2183 308.997 99.5104 309.154 99.783 309.336C100.068 309.5 100.326 309.701 100.614 309.861C100.9 310.022 101.179 310.196 101.457 310.372C103.662 311.831 106.242 312.704 108.868 313.27C114.143 314.386 119.775 314.136 125.031 312.784C127.638 312.081 130.215 311.102 132.314 309.686C133.35 308.994 134.257 308.147 134.71 307.358C134.745 307.263 134.784 307.171 134.828 307.08C134.85 307.028 134.872 307.007 134.897 306.929L134.973 306.688L135.278 305.725C135.449 305.078 135.643 304.434 135.765 303.782C136.338 301.186 136.424 298.537 135.881 296.08C135.341 293.622 134.103 291.392 132.282 289.643C130.472 287.885 128.168 286.565 125.663 285.655C123.161 284.726 120.471 284.178 117.739 283.865C116.373 283.7 114.989 283.619 113.603 283.564L111.517 283.531L109.497 283.604C106.815 283.785 104.174 284.354 101.676 285.32C96.6811 287.244 92.2257 290.621 88.7925 294.892C87.9419 295.965 87.1274 297.069 86.3606 298.21C85.5775 299.338 84.822 300.49 84.0774 301.654C82.606 303.994 81.1498 306.355 79.256 308.618L79.2238 308.657C78.9792 308.949 78.5437 308.988 78.2513 308.743C78.0863 308.605 78.0022 308.403 78.0039 308.203Z"
    fill="#07162C" />
  <path
    d="M279.354 308.414C279.354 308.414 270.472 281.632 246.553 281.555C224.483 281.484 216.056 292.493 221.226 307.61C223.799 315.133 251.291 322.245 264.156 306.726"
    fill="#F2F2F2" />
  <path
    d="M279.354 308.414C279.354 308.414 270.472 281.632 246.553 281.555C224.483 281.484 216.056 292.493 221.226 307.61C223.799 315.133 251.291 322.245 264.156 306.726L279.354 308.414Z"
    fill="#F2F2F2" />
  <g opacity="0.35">
    <path
      d="M264.156 306.726C251.292 322.242 223.802 315.135 221.225 307.612C219.756 303.314 219.385 299.347 220.118 295.875C220.365 297.235 220.731 298.64 221.225 300.079C223.488 306.684 244.957 312.969 258.868 303.901C261.145 302.418 264.156 304.009 264.156 306.726Z"
      fill="#07162C" />
  </g>
  <path
    d="M278.728 308.622C276.834 306.359 275.377 303.997 273.906 301.657C273.161 300.493 272.406 299.342 271.623 298.214C270.856 297.073 270.042 295.969 269.191 294.895C265.758 290.625 261.302 287.248 256.307 285.324C253.809 284.358 251.168 283.789 248.487 283.608L246.467 283.535L244.381 283.568C242.995 283.623 241.611 283.704 240.245 283.869C237.513 284.182 234.822 284.73 232.32 285.658C229.815 286.569 227.511 287.889 225.701 289.647C223.881 291.395 222.643 293.625 222.103 296.083C221.559 298.54 221.645 301.19 222.219 303.786C222.34 304.437 222.535 305.082 222.705 305.729L223.01 306.691L223.086 306.932C223.112 307.011 223.134 307.031 223.156 307.084C223.2 307.175 223.239 307.267 223.274 307.362C223.726 308.151 224.634 308.997 225.67 309.69C227.768 311.105 230.346 312.085 232.953 312.788C238.208 314.14 243.841 314.39 249.115 313.274C251.741 312.708 254.321 311.835 256.527 310.376C256.804 310.199 257.083 310.026 257.369 309.864C257.658 309.705 257.916 309.504 258.201 309.339C258.473 309.158 258.765 309.001 259.045 308.827C259.316 308.641 259.59 308.458 259.876 308.286C260.466 307.961 261.004 307.57 261.643 307.259C262.273 306.937 262.875 306.568 263.649 306.305L263.723 306.28C264.104 306.15 264.518 306.354 264.647 306.735C264.694 306.873 264.697 307.015 264.664 307.147C264.264 308.737 263.417 310.11 262.338 311.239C261.796 311.802 261.22 312.337 260.583 312.788C259.974 313.284 259.293 313.668 258.613 314.048C257.937 314.437 257.207 314.714 256.509 315.047C255.784 315.316 255.077 315.63 254.351 315.879C253.624 316.129 252.903 316.398 252.162 316.589C251.428 316.813 250.684 316.985 249.938 317.144C243.957 318.398 237.803 318.114 231.944 316.613C229.018 315.815 226.134 314.76 223.45 312.965C222.125 312.049 220.796 310.969 219.801 309.258L219.481 308.552C219.434 308.439 219.37 308.3 219.341 308.208L219.254 307.935L218.909 306.844C218.711 306.103 218.493 305.369 218.348 304.608C217.689 301.603 217.542 298.373 218.243 295.213C218.927 292.055 220.602 289.048 222.934 286.818C225.254 284.565 228.066 282.998 230.949 281.947C233.84 280.876 236.823 280.28 239.794 279.938C241.281 279.76 242.768 279.672 244.252 279.613C244.994 279.59 245.734 279.591 246.475 279.578L248.761 279.661C251.813 279.867 254.853 280.52 257.716 281.626C260.584 282.723 263.271 284.246 265.707 286.064C268.153 287.879 270.296 290.025 272.312 292.255C274.307 294.503 276.095 296.941 277.463 299.599C278.858 302.237 279.932 305.061 279.979 308.207C279.985 308.588 279.681 308.902 279.299 308.908C279.084 308.911 278.891 308.815 278.762 308.663L278.728 308.622Z"
    fill="#07162C" />
  <path
    d="M271.971 330.705L86.0732 330.699C85.7309 330.672 77.6366 329.958 72.9929 322.638C68.5934 315.704 68.8983 305.489 73.8987 292.276C89.0224 252.313 129.004 222.43 178.242 214.289C178.523 214.242 178.801 214.257 179.061 214.325C179.32 214.257 179.598 214.242 179.879 214.289C229.117 222.43 269.099 252.313 284.223 292.276C289.223 305.489 289.527 315.704 285.128 322.638C280.485 329.958 272.39 330.672 272.048 330.699L271.971 330.705ZM179.488 326.748H271.801C272.508 326.673 278.408 325.894 281.817 320.472C285.429 314.726 284.981 305.46 280.522 293.676C265.896 255.028 227.084 226.104 179.234 218.193C179.175 218.183 179.117 218.171 179.06 218.156C179.004 218.17 178.946 218.183 178.887 218.193C131.037 226.104 92.2255 255.028 77.5995 293.676C73.1396 305.46 72.6921 314.726 76.3046 320.471C79.7049 325.88 85.5839 326.669 86.3224 326.748H179.488Z"
    fill="#07162C" />
  <path
    d="M258.692 185.761C257.78 185.804 257.005 185.1 256.962 184.187L254.721 136.593C254.678 135.681 255.383 134.906 256.295 134.863C265.869 134.412 273.995 141.808 274.446 151.381L275.21 167.611C275.661 177.184 268.266 185.311 258.692 185.761Z"
    fill="#F2F2F2" />
  <path
    d="M258.614 186.119C257.548 186.119 256.658 185.278 256.607 184.204L254.366 136.61C254.313 135.503 255.172 134.56 256.278 134.508C266.038 134.048 274.342 141.611 274.801 151.365L275.565 167.594C275.788 172.319 274.157 176.848 270.973 180.346C267.79 183.845 263.434 185.894 258.709 186.116C258.677 186.118 258.645 186.119 258.614 186.119ZM257.12 135.199C256.852 135.199 256.582 135.205 256.312 135.218C255.596 135.252 255.042 135.861 255.075 136.577L257.317 184.17C257.351 184.886 257.961 185.435 258.676 185.406C268.038 184.965 275.296 176.99 274.855 167.627L274.091 151.398C273.662 142.306 266.129 135.199 257.12 135.199Z"
    fill="#07162C" />
  <g opacity="0.35">
    <path
      d="M274.851 160L275.211 167.612C275.661 177.182 268.266 185.31 258.691 185.765C257.779 185.808 257.004 185.099 256.96 184.187L256.36 171.535C256.644 172.099 257.24 172.47 257.91 172.444L259.038 172.388C266.604 172.033 272.813 166.88 274.851 160Z"
      fill="#07162C" />
  </g>
  <path
    d="M258.613 187.744C256.687 187.744 255.077 186.225 254.986 184.282L252.744 136.688C252.65 134.688 254.201 132.984 256.201 132.889C266.842 132.387 275.92 140.642 276.422 151.29L277.186 167.52C277.688 178.168 269.433 187.238 258.785 187.74H258.785C258.727 187.742 258.67 187.744 258.613 187.744ZM256.712 136.829L258.923 183.769C267.234 183.204 273.628 176.066 273.234 167.706L272.469 151.477C272.076 143.116 265.028 136.604 256.712 136.829Z"
    fill="#07162C" />
  <path
    d="M99.1996 142.264C100.112 142.221 100.887 142.925 100.93 143.838L103.171 191.432C103.214 192.344 102.509 193.119 101.597 193.162C92.0233 193.613 83.8968 186.217 83.446 176.644L82.6817 160.414C82.2307 150.841 89.6261 142.714 99.1996 142.264Z"
    fill="#F2F2F2" />
  <path
    d="M100.771 193.537C91.3849 193.537 83.537 186.133 83.0911 176.66L82.3267 160.431C82.1042 155.706 83.7349 151.177 86.9188 147.679C90.1023 144.18 94.4579 142.131 99.183 141.909C100.295 141.855 101.232 142.715 101.285 143.821L103.526 191.415C103.578 192.522 102.72 193.465 101.614 193.517C101.332 193.53 101.05 193.537 100.771 193.537ZM99.2162 142.618C89.8539 143.059 82.5956 151.035 83.0367 160.398L83.801 176.627C84.2423 185.989 92.2137 193.241 101.58 192.807C102.295 192.773 102.85 192.163 102.816 191.448L100.575 143.854C100.541 143.139 99.9174 142.578 99.2162 142.618Z"
    fill="#07162C" />
  <g opacity="0.35">
    <path
      d="M102.553 178.229L103.173 191.432C103.217 192.344 102.507 193.119 101.595 193.163C96.5702 193.397 91.9392 191.473 88.611 188.203C85.6054 185.249 83.6623 181.193 83.4475 176.647L83.125 169.809C86.125 175.681 92.3768 179.575 99.3959 179.246L101.133 179.164C101.767 179.133 102.289 178.757 102.553 178.229Z"
      fill="#07162C" />
  </g>
  <path
    d="M100.77 195.157C90.5234 195.157 81.9566 187.075 81.4696 176.734L80.7053 160.505C80.2038 149.857 88.4585 140.786 99.1065 140.285H99.1069C101.109 140.198 102.811 141.742 102.906 143.742L105.148 191.336C105.242 193.337 103.691 195.041 101.69 195.136C101.383 195.15 101.075 195.157 100.77 195.157ZM98.9689 144.256C90.6571 144.82 84.2639 151.958 84.6577 160.319L85.422 176.548C85.8155 184.909 92.8553 191.413 101.18 191.195L98.9689 144.256Z"
    fill="#07162C" />
  <path
    d="M178.955 245.207C223.797 245.207 260.148 208.855 260.148 164.014C260.148 119.172 223.797 82.8203 178.955 82.8203C134.113 82.8203 97.7617 119.172 97.7617 164.014C97.7617 208.855 134.113 245.207 178.955 245.207Z"
    fill="#F2F2F2" />
  <path
    d="M178.983 245.563C178.323 245.563 177.668 245.555 177.004 245.539C132.051 244.463 96.3542 207.015 97.4299 162.062C97.951 140.286 106.921 120.016 122.688 104.987C138.454 89.9573 159.129 81.9743 180.906 82.4882C202.683 83.0092 222.953 91.9794 237.982 107.746C253.012 123.513 261.002 144.188 260.481 165.965C259.421 210.254 223.048 245.563 178.983 245.563ZM178.905 83.1753C158.048 83.1753 138.329 91.0593 123.178 105.501C107.549 120.4 98.6573 140.493 98.1407 162.08C97.0742 206.641 132.46 243.762 177.021 244.828C221.571 245.896 258.703 210.509 259.77 165.948C260.287 144.361 252.366 123.866 237.468 108.237C222.569 92.6073 202.476 83.7155 180.889 83.1988C180.228 83.1829 179.564 83.1753 178.905 83.1753Z"
    fill="#07162C" />
  <g opacity="0.35">
    <path
      d="M259.616 154.699C260.046 158.382 260.217 162.139 260.127 165.955C259.048 210.782 221.839 246.253 177.012 245.184C132.184 244.105 96.7139 206.896 97.7823 162.069C97.8124 160.78 97.8731 159.49 97.9654 158.221C102.492 197.865 135.668 229.098 176.684 230.081C220.223 231.119 256.568 197.693 259.616 154.699Z"
      fill="#07162C" />
  </g>
  <path
    d="M178.984 247.184C178.31 247.184 177.642 247.176 176.965 247.159C131.118 246.062 94.7104 207.869 95.8074 162.022C96.9047 116.174 135.071 79.7711 180.945 80.8638C203.155 81.3954 223.828 90.5439 239.157 106.625C254.485 122.705 262.634 143.792 262.103 166.002C261.022 211.173 223.925 247.184 178.984 247.184ZM178.906 84.7964C158.468 84.7964 139.144 92.5221 124.298 106.674C108.983 121.274 100.269 140.963 99.7632 162.117C98.7183 205.783 133.393 242.159 177.06 243.204C220.715 244.254 257.102 209.574 258.147 165.907C259.193 122.24 224.517 85.8647 180.85 84.8198C180.202 84.804 179.552 84.7964 178.906 84.7964Z"
    fill="#07162C" />
  <path
    d="M259.816 168.031C259.676 183.919 254.388 198.623 245.46 210.75C238.767 219.841 211.443 235.614 177.874 235.619C146.748 235.624 118.577 218.781 112.045 209.573C103.332 197.291 98.3052 182.495 98.4452 166.608C98.8161 124.564 135.092 107.453 179.655 107.846C224.219 108.239 260.187 125.988 259.816 168.031Z"
    fill="#07162C" />
  <path
    d="M177.861 237.6C145.66 237.6 117.277 220.369 110.432 210.72C101.157 197.646 96.3282 182.387 96.4678 166.592C96.6493 146.015 105.039 130.223 121.406 119.654C135.694 110.426 155.843 105.648 179.674 105.871C203.504 106.081 223.566 111.202 237.689 120.68C253.866 131.536 261.977 147.474 261.795 168.051C261.656 183.845 256.558 199.017 247.054 211.925C240.465 220.875 213.409 237.594 177.875 237.6C177.871 237.6 177.865 237.6 177.861 237.6ZM178.161 109.821C155.754 109.821 136.897 114.36 123.552 122.978C108.375 132.779 100.593 147.465 100.424 166.627C100.292 181.584 104.869 196.04 113.659 208.431C119.901 217.23 147.454 233.644 177.861 233.644C177.867 233.644 177.868 233.644 177.874 233.644C211.577 233.638 237.885 217.705 243.868 209.579C252.875 197.345 257.706 182.973 257.838 168.016C258.296 116.124 203.303 110.036 179.638 109.827C179.145 109.823 178.652 109.821 178.161 109.821Z"
    fill="#07162C" />
  <g opacity="0.7">
    <path
      d="M243.89 164.032C245.374 156.236 241.998 149.045 236.348 147.969C230.699 146.894 224.917 152.342 223.433 160.138C221.949 167.934 225.326 175.126 230.975 176.201C236.624 177.276 242.406 171.828 243.89 164.032Z"
      fill="#F2F2F2" />
  </g>
  <g opacity="0.7">
    <path
      d="M225.991 192.253C227.16 188.804 225.708 185.194 222.747 184.191C219.787 183.188 216.439 185.171 215.271 188.621C214.102 192.071 215.554 195.68 218.515 196.683C221.475 197.686 224.822 195.703 225.991 192.253Z"
      fill="#F2F2F2" />
  </g>
  <g opacity="0.35">
    <path
      d="M244.469 128.672C254.25 138.171 259.962 151.145 259.815 168.031C259.675 183.922 254.384 198.625 245.463 210.752C238.767 219.843 211.44 235.615 177.872 235.624C166.019 235.629 154.598 233.187 144.633 229.649C185.896 228.759 219.183 209.398 227.483 198.122C238.815 182.732 245.525 164.067 245.7 143.906C245.751 138.518 245.32 133.444 244.469 128.672Z"
      fill="#164383" />
  </g>
  <path
    d="M253.194 133.078C252.754 133.078 252.311 132.931 251.944 132.629L251.736 132.457L251.57 132.227C238.045 112.905 211.689 101.659 179.258 101.372C146.674 101.069 120.119 112.222 106.476 131.926L106.376 132.057C105.682 132.901 104.43 133.028 103.587 132.332C102.768 131.658 102.626 130.467 103.255 129.627C117.665 108.856 145.402 97.1108 179.293 97.416C212.996 97.7141 240.508 109.56 254.783 129.918C255.311 130.631 255.312 131.64 254.723 132.354C254.331 132.831 253.765 133.078 253.194 133.078Z"
    fill="#07162C" />
  <g opacity="0.7">
    <path
      d="M116.345 191.782C116.345 191.782 103.689 150.191 126.188 133.86C148.687 117.529 180.845 117.879 180.075 119.935C180.075 119.935 144.397 128.24 130.218 156.263C119.284 177.873 116.345 191.782 116.345 191.782Z"
      fill="#F2F2F2" />
  </g>
  <path
    d="M19.9308 344.093C26.5586 343.044 33.1865 342.793 39.8143 342.664C43.1283 342.593 46.4422 342.579 49.7561 342.597C53.0702 342.592 56.384 342.64 59.698 342.674C66.3258 342.736 72.9538 342.752 79.5818 342.742H99.4652H179H258.534H298.302L308.243 342.738L313.214 342.69L318.185 342.606C324.813 342.582 331.441 342.643 338.069 344.093C338.442 344.175 338.678 344.544 338.597 344.917C338.537 345.189 338.324 345.388 338.069 345.445C331.441 346.895 324.813 346.956 318.185 346.932L313.214 346.848L308.243 346.8L298.302 346.796H258.534H179H99.4652H79.5818C72.9539 346.786 66.326 346.802 59.698 346.864C56.384 346.898 53.0702 346.946 49.7561 346.941C46.4424 346.959 43.1283 346.945 39.8143 346.874C33.1865 346.745 26.5586 346.494 19.9308 345.445C19.5576 345.386 19.3029 345.036 19.362 344.662C19.4095 344.362 19.6462 344.139 19.9308 344.093Z"
    fill="#07162C" />
  <path
    d="M307.118 343.972H50.8815C46.738 343.972 43.3789 340.613 43.3789 336.469V336.225C43.3789 332.082 46.738 328.723 50.8815 328.723H307.118C311.261 328.723 314.62 332.082 314.62 336.225V336.469C314.62 340.613 311.261 343.972 307.118 343.972Z"
    fill="#27A568" />
  <path
    d="M307.118 344.258H50.8815C46.5873 344.258 43.0938 340.764 43.0938 336.469V336.225C43.0938 331.931 46.5873 328.438 50.8815 328.438H307.118C311.412 328.438 314.905 331.931 314.905 336.225V336.469C314.905 340.764 311.412 344.258 307.118 344.258ZM50.8815 329.009C46.9017 329.009 43.6641 332.246 43.6641 336.225V336.47C43.6641 340.449 46.9017 343.686 50.8815 343.686H307.118C311.097 343.686 314.335 340.449 314.335 336.47V336.225C314.335 332.246 311.097 329.009 307.118 329.009H50.8815Z"
    fill="#07162C" />
  <path
    d="M307.117 345.951H50.8812C45.6534 345.951 41.4004 341.698 41.4004 336.471V336.226C41.4004 330.999 45.6534 326.746 50.8812 326.746H307.117C312.345 326.746 316.598 330.999 316.598 336.226V336.471C316.598 341.698 312.345 345.951 307.117 345.951ZM50.8812 330.703C47.8352 330.703 45.3569 333.181 45.3569 336.226V336.471C45.3569 339.517 47.8352 341.995 50.8812 341.995H307.117C310.163 341.995 312.642 339.517 312.642 336.471V336.226C312.642 333.181 310.163 330.703 307.117 330.703H50.8812Z"
    fill="#07162C" />
  <g opacity="0.5">
    <path
      d="M307.238 330.984H93.0848H75.1551H50.7616C47.897 330.984 45.5664 333.391 45.5664 336.35C45.5664 338.518 46.8207 340.386 48.6173 341.231C48.0729 340.383 47.7538 339.367 47.7538 338.276C47.7538 335.317 50.0843 332.91 52.949 332.91H74.9196C76.0568 334.214 79.7406 335.169 84.12 335.169C88.4993 335.169 92.1831 334.214 93.3204 332.91H309.425C310.19 332.91 310.915 333.087 311.57 333.395C310.639 331.944 309.045 330.984 307.238 330.984Z"
      fill="#F2F2F2" />
  </g>
  <path
    d="M251.495 328.116H106.413C99.8287 328.116 94.4912 322.779 94.4912 316.194V315.586H263.417V316.194C263.417 322.779 258.079 328.116 251.495 328.116Z"
    fill="#D3E2F8" />
  <g opacity="0.35">
    <path
      d="M263.418 315.586V316.194C263.418 322.777 258.077 328.119 251.494 328.119H106.415C99.8269 328.119 94.4902 322.777 94.4902 316.194V315.586H95.0194C96.518 320.453 101.053 323.994 106.415 323.994H251.494C256.85 323.994 261.39 320.453 262.889 315.586H263.418Z"
      fill="#07162C" />
  </g>
  <path
    d="M251.496 330.092H106.414C98.749 330.092 92.5137 323.857 92.5137 316.192V313.605H265.395V316.192C265.395 323.857 259.16 330.092 251.496 330.092ZM96.5644 317.562C97.2338 322.399 101.396 326.136 106.414 326.136H251.496C256.514 326.136 260.675 322.399 261.345 317.562H96.5644Z"
    fill="#07162C" />
  <g opacity="0.6">
    <path
      d="M102.105 319.538H260.591C260.794 318.994 260.954 318.429 261.061 317.844H96.8457C97.5276 321.548 100.223 324.524 103.707 325.508C102.436 324.5 101.414 323.174 100.761 321.643C100.338 320.652 101.056 319.538 102.105 319.538Z"
      fill="#F2F2F2" />
  </g>
  <path
    d="M237.347 327.981H120.653C114.425 327.981 109.193 323.576 108.504 317.754L98.6261 234.183C97.821 227.372 103.489 221.414 110.775 221.414H247.225C254.51 221.414 260.178 227.372 259.373 234.183L249.495 317.754C248.807 323.577 243.575 327.981 237.347 327.981Z"
    fill="#7CA9E9" />
  <g opacity="0.6">
    <path
      d="M187.154 283.782C187.177 283.772 187.2 283.763 187.223 283.753C187.942 283.453 188.611 284.235 188.204 284.899C187.035 286.804 185.263 288.366 183.013 289.265C177.93 291.295 172.029 289.122 169.489 284.273C166.559 278.679 169.018 271.87 174.706 269.382C176.857 268.441 179.149 268.259 181.282 268.718C181.986 268.869 182.087 269.83 181.428 270.118L181.405 270.127C177.479 271.844 175.792 276.553 177.841 280.406C179.604 283.722 183.674 285.194 187.154 283.782Z"
      fill="#F2F2F2" />
  </g>
  <path
    d="M239.259 243.114C239.219 242.022 239.197 240.916 238.823 239.856C238.711 239.752 238.606 239.644 238.495 239.539C238.167 239.474 237.842 239.373 237.507 239.341C235.143 239.096 232.801 239.211 230.487 239.766C227.47 240.49 224.807 241.856 222.688 244.163C221.921 244.995 221.243 245.907 220.544 246.797C220.356 247.039 220.202 247.15 219.873 247.057C219.102 246.837 218.302 246.808 217.506 246.887C215.372 247.111 213.585 248.08 211.988 249.453C210.258 250.945 208.961 252.787 207.786 254.726C207.285 255.547 207.646 256.326 208.601 256.495C209.202 256.596 209.804 256.693 210.406 256.794C211.848 257.032 213.286 257.266 214.724 257.504C214.727 257.547 214.734 257.569 214.731 257.591C214.724 257.619 214.716 257.652 214.702 257.681C214.241 258.502 214.482 259.162 215.181 259.71C215.257 259.771 215.325 259.847 215.394 259.915C215.772 260.283 216.158 260.654 216.558 261.036C216.154 261.457 215.751 261.825 215.408 262.247C215.235 262.459 215.098 262.751 215.062 263.025C214.997 263.468 215.282 263.869 215.693 264.034C216.129 264.215 216.54 264.142 216.871 263.818C217.293 263.411 217.689 262.978 218.115 262.539C218.659 263.069 219.174 263.569 219.689 264.063C220.281 264.625 220.637 264.683 221.372 264.355C221.506 264.29 221.639 264.24 221.798 264.175C221.834 264.337 221.866 264.467 221.891 264.589C222.288 266.557 222.677 268.528 223.084 270.489C223.275 271.419 224.083 271.75 224.868 271.22C225.578 270.745 226.285 270.247 226.973 269.728C228.559 268.528 229.957 267.141 230.98 265.422C232.26 263.259 232.804 260.978 232.015 258.499C231.982 258.401 232.04 258.217 232.119 258.153C232.815 257.54 233.535 256.956 234.231 256.34C235.802 254.941 236.981 253.255 237.81 251.327C238.938 248.707 239.363 245.954 239.259 243.114ZM215.574 255.457C213.909 255.18 212.183 254.892 210.41 254.596C211.877 252.477 213.48 250.578 215.866 249.518C216.897 249.061 218.144 248.898 218.922 249.086C217.816 251.198 216.706 253.309 215.574 255.457ZM230.152 261.602C229.943 262.95 229.33 264.114 228.523 265.191C227.517 266.518 226.274 267.581 224.908 268.586C224.544 266.777 224.184 265.008 223.831 263.274C225.942 262.063 228.007 260.881 230.083 259.692C230.26 260.287 230.253 260.946 230.152 261.602ZM236.596 248.149C236.131 249.961 235.417 251.655 234.26 253.144C233.366 254.286 232.303 255.256 231.164 256.146C228.076 258.56 224.656 260.42 221.124 262.089C220.951 262.168 220.839 262.175 220.695 262.027C220.382 261.699 220.039 261.389 219.711 261.069C219.69 261.05 219.679 261.018 219.643 260.957C219.726 260.867 219.816 260.777 219.906 260.683C221.773 258.744 223.65 256.809 225.517 254.866C226.058 254.311 225.964 253.511 225.33 253.136C224.887 252.873 224.368 252.956 223.964 253.367C222.84 254.528 221.719 255.688 220.598 256.852C219.762 257.717 218.933 258.578 218.064 259.479C217.661 259.09 217.275 258.737 216.918 258.359C216.857 258.29 216.879 258.092 216.933 257.987C217.805 256.139 218.666 254.283 219.589 252.456C220.501 250.643 221.589 248.931 222.829 247.324C223.989 245.806 225.287 244.426 226.962 243.468C228.036 242.851 229.168 242.372 230.364 242.058C230.473 242.026 230.649 242.112 230.743 242.203C232.22 243.615 233.683 245.032 235.15 246.452C235.59 246.873 236.026 247.306 236.477 247.72C236.61 247.846 236.642 247.965 236.596 248.149ZM236.992 245.803C235.529 244.386 234.102 243.01 232.671 241.626C232.667 241.59 232.671 241.546 232.671 241.507C234.087 241.463 235.507 241.424 236.941 241.381C237.143 242.901 237.129 244.325 236.992 245.803Z"
    fill="#07162C" />
  <path
    d="M236.476 247.719C236.026 247.305 235.589 246.873 235.15 246.451C233.683 245.031 232.22 243.615 230.742 242.202C230.649 242.112 230.472 242.025 230.364 242.058C229.167 242.371 228.036 242.851 226.962 243.467C225.286 244.425 223.989 245.806 222.828 247.323C221.589 248.93 220.5 250.642 219.588 252.455C218.666 254.282 217.805 256.138 216.932 257.987C216.878 258.091 216.857 258.289 216.918 258.358C217.275 258.736 217.66 259.089 218.064 259.479C218.933 258.578 219.761 257.716 220.598 256.851C221.718 255.687 222.839 254.527 223.964 253.366C224.367 252.956 224.886 252.873 225.329 253.136C225.964 253.511 226.057 254.311 225.517 254.866C223.65 256.808 221.772 258.743 219.906 260.682C219.815 260.776 219.725 260.866 219.643 260.956C219.679 261.017 219.689 261.05 219.711 261.068C220.039 261.388 220.381 261.698 220.695 262.026C220.839 262.174 220.951 262.167 221.124 262.088C224.656 260.419 228.076 258.56 231.164 256.145C232.303 255.255 233.366 254.285 234.26 253.143C235.417 251.655 236.13 249.961 236.595 248.148C236.642 247.964 236.61 247.845 236.476 247.719ZM233.139 250.721C231.708 252.181 229.38 252.228 227.928 250.819C226.468 249.413 226.432 247.085 227.845 245.611C229.232 244.166 231.564 244.133 233.027 245.539C234.476 246.937 234.53 249.298 233.139 250.721Z"
    fill="#F2F2F2" />
  <path
    d="M236.992 245.804C235.528 244.39 234.101 243.011 232.671 241.628C232.669 241.59 232.671 241.55 232.67 241.509C234.087 241.468 235.507 241.427 236.943 241.383C237.145 242.902 237.128 244.327 236.992 245.804Z"
    fill="#2BB572" />
  <path
    d="M218.924 249.085C217.815 251.195 216.705 253.308 215.576 255.458C213.908 255.178 212.182 254.891 210.41 254.596C211.878 252.474 213.481 250.575 215.867 249.517C216.897 249.058 218.143 248.897 218.924 249.085Z"
    fill="#2BB572" />
  <path
    d="M228.521 265.193C227.516 266.519 226.274 267.583 224.907 268.587C224.542 266.779 224.183 265.01 223.83 263.275C225.942 262.065 228.007 260.884 230.085 259.691C230.261 260.288 230.251 260.946 230.153 261.605C229.944 262.952 229.331 264.115 228.521 265.193Z"
    fill="#2BB572" />
  <path
    d="M233.027 245.541C231.564 244.136 229.232 244.168 227.845 245.613C226.432 247.087 226.468 249.415 227.928 250.821C229.38 252.23 231.708 252.183 233.139 250.724C234.53 249.3 234.476 246.939 233.027 245.541ZM231.849 249.545C231.124 250.287 229.899 250.305 229.139 249.585C228.353 248.842 228.346 247.577 229.12 246.799C229.845 246.064 231.095 246.056 231.834 246.784C232.605 247.541 232.609 248.767 231.849 249.545Z"
    fill="#07162C" />
  <path
    d="M231.848 249.543C231.124 250.286 229.899 250.304 229.137 249.582C228.355 248.84 228.346 247.577 229.12 246.798C229.846 246.064 231.095 246.055 231.833 246.782C232.605 247.54 232.611 248.766 231.848 249.543Z"
    fill="#7CA9E9" />
  <g opacity="0.35">
    <path
      d="M243.855 317.992L253.733 234.422C254.004 232.139 253.298 229.885 251.747 228.075C249.99 226.026 247.39 224.827 244.572 224.73C244.574 224.724 244.576 224.717 244.578 224.711C240.539 238.588 218.016 315.976 111.294 318.916C112.239 322.912 116.095 325.823 120.653 325.823H234.328C239.231 325.823 243.327 322.457 243.855 317.992Z"
      fill="#07162C" />
  </g>
  <g opacity="0.6">
    <path
      d="M114.104 319.397L104.226 235.827C103.94 233.408 104.684 231.023 106.322 229.113C108.241 226.874 111.114 225.59 114.203 225.59H250.653C251.715 225.59 252.747 225.752 253.727 226.042C253.524 225.739 253.307 225.442 253.064 225.159C251.145 222.921 248.273 221.637 245.185 221.637H108.734C105.645 221.637 102.773 222.921 100.854 225.159C99.2157 227.07 98.4713 229.454 98.7571 231.873L108.635 315.444C109.074 319.16 111.852 322.145 115.532 323.235C114.776 322.1 114.27 320.802 114.104 319.397Z"
      fill="#F2F2F2" />
  </g>
  <path
    d="M237.347 329.961H120.653C113.414 329.961 107.347 324.814 106.54 317.988L96.6616 234.417C96.2223 230.702 97.3782 227.083 99.9162 224.227C102.621 221.183 106.579 219.438 110.775 219.438H247.225C251.42 219.438 255.378 221.183 258.083 224.227C260.621 227.083 261.777 230.702 261.338 234.417L251.46 317.988C250.653 324.814 244.586 329.961 237.347 329.961ZM110.775 223.394C107.709 223.394 104.829 224.656 102.874 226.856C101.097 228.855 100.286 231.375 100.591 233.953L110.469 317.523C111.041 322.359 115.419 326.005 120.653 326.005H237.346C242.58 326.005 246.958 322.358 247.53 317.523L257.408 233.953C257.713 231.375 256.902 228.855 255.126 226.856C253.17 224.656 250.29 223.394 247.224 223.394H110.775Z"
    fill="#07162C" />
  <g opacity="0.35">
    <path
      d="M54.8542 343.975H307.238C311.315 343.975 314.62 340.562 314.62 336.351C314.62 332.14 311.315 328.727 307.238 328.727H205.617C201.601 330.991 171.494 345.021 47.207 341.383L54.8542 343.975Z"
      fill="#07162C" />
  </g>
  <g opacity="0.15">
    <path
      d="M133.454 275.301H125.844C123.113 275.301 120.899 273.087 120.899 270.356V245.23C120.899 242.499 123.113 240.285 125.844 240.285H133.454C136.185 240.285 138.399 242.499 138.399 245.23V270.356C138.399 273.087 136.185 275.301 133.454 275.301Z"
      fill="#F2F2F2" />
  </g>
  <path
    d="M188.514 282.422C188.537 282.413 188.561 282.403 188.584 282.394C189.303 282.094 189.971 282.876 189.564 283.54C188.395 285.445 186.623 287.007 184.374 287.905C179.29 289.936 173.389 287.762 170.85 282.913C167.92 277.319 170.378 270.51 176.066 268.023C178.218 267.082 180.509 266.899 182.643 267.359C183.346 267.51 183.448 268.471 182.788 268.758L182.766 268.768C178.84 270.485 177.153 275.193 179.202 279.047C180.965 282.363 185.034 283.834 188.514 282.422Z"
    fill="#07162C" />
  <path
    d="M295.928 124.762C295.4 124.762 294.878 124.558 294.485 124.164C293.829 123.509 293.698 122.494 294.165 121.693L299.952 111.782C301.278 109.511 300.998 106.687 299.254 104.755C293.48 98.3597 290.263 90.094 290.196 81.4809C290.047 62.3004 305.519 46.3958 324.685 46.0262C324.917 46.0218 325.147 46.0195 325.378 46.0195C334.881 46.0195 343.785 49.7499 350.452 56.5234C357.118 63.2955 360.706 72.2619 360.555 81.7716C360.253 100.856 344.47 116.384 325.374 116.384C325.373 116.384 325.071 116.383 325.071 116.383C322.083 116.357 319.114 115.954 316.247 115.184C315.769 115.056 315.275 114.991 314.778 114.991C313.756 114.991 312.744 115.266 311.852 115.787L296.956 124.484C296.635 124.671 296.28 124.762 295.928 124.762Z"
    fill="#27A568" />
  <path
    d="M325.378 48.0605C343.86 48.0605 358.81 63.1907 358.516 81.7405C358.231 99.7538 343.356 114.345 325.374 114.345C325.279 114.345 325.183 114.345 325.088 114.344C322.215 114.319 319.43 113.928 316.776 113.215C316.118 113.039 315.447 112.952 314.778 112.952C313.401 112.952 312.034 113.319 310.823 114.026L295.927 122.723L301.714 112.812C303.473 109.798 303.107 105.98 300.768 103.389C295.52 97.5762 292.302 89.8983 292.236 81.4657C292.096 63.4098 306.67 48.4148 324.724 48.0667C324.943 48.0625 325.16 48.0605 325.378 48.0605ZM325.378 43.9805C325.134 43.9805 324.891 43.9828 324.646 43.9874C304.367 44.3781 287.999 61.2051 288.156 81.4977C288.227 90.6109 291.631 99.3563 297.739 106.123C298.886 107.392 299.067 109.254 298.19 110.755L292.404 120.666C291.469 122.267 291.731 124.297 293.042 125.608C293.828 126.394 294.873 126.803 295.929 126.803C296.633 126.803 297.343 126.621 297.984 126.246L312.88 117.55C313.46 117.211 314.116 117.032 314.778 117.032C315.096 117.032 315.412 117.073 315.718 117.155C318.752 117.97 321.893 118.397 325.054 118.424L325.374 118.425C345.578 118.425 362.275 101.997 362.595 81.805C362.754 71.7442 358.958 62.2578 351.906 55.0932C344.853 47.9271 335.431 43.9805 325.378 43.9805Z"
    fill="#07162C" />
  <g opacity="0.2">
    <path
      d="M358.477 79.6606C358.461 79.2968 358.439 78.9345 358.41 78.5738C358.396 78.389 358.381 78.2043 358.363 78.0203C358.329 77.6551 358.286 77.2924 358.239 76.9309C358.219 76.7744 358.203 76.6168 358.18 76.4609C358.112 75.9804 358.032 75.5035 357.942 75.0298C357.903 74.8235 357.858 74.6195 357.815 74.4147C357.756 74.1341 357.696 73.8541 357.631 73.5761C357.573 73.3308 357.512 73.0868 357.448 72.8437C357.389 72.6169 357.327 72.3915 357.263 72.1666C357.188 71.9025 357.114 71.6381 357.033 71.3767C356.984 71.2199 356.93 71.0654 356.879 70.9095C356.68 70.3012 356.466 69.7 356.233 69.1075C356.2 69.0234 356.169 68.9382 356.135 68.8543C356.003 68.5261 355.864 68.2015 355.721 67.8786C355.678 67.781 355.635 67.6835 355.591 67.5862C355.439 67.2492 355.283 66.9143 355.12 66.5834C355.107 66.5577 355.094 66.5324 355.081 66.5067C354.336 65.0059 353.482 63.5688 352.527 62.207C354.153 66.2107 355.024 70.6018 354.951 75.2059C354.706 90.6781 343.694 103.617 329.198 106.962C313.829 110.366 304.883 107.492 299.44 102.123C299.413 102.092 297.231 96.8855 297.203 96.8548C296.293 95.8465 295.448 94.7786 294.666 93.664C294.666 93.6645 294.667 93.6651 294.667 93.6657C294.791 93.9705 294.921 94.2718 295.054 94.5718C295.051 94.5689 295.05 94.5663 295.047 94.5635C296.482 97.812 298.42 100.789 300.768 103.39C303.107 105.981 303.473 109.798 301.714 112.813L295.927 122.724L310.823 114.027C312.621 112.977 314.765 112.676 316.776 113.216C319.43 113.928 322.215 114.32 325.088 114.345C325.609 114.349 326.127 114.338 326.642 114.318C327.121 114.3 327.596 114.267 328.07 114.228C328.141 114.223 328.214 114.22 328.285 114.214C328.719 114.175 329.15 114.123 329.58 114.068C329.689 114.054 329.798 114.044 329.907 114.029C330.311 113.973 330.711 113.904 331.111 113.833C331.242 113.81 331.375 113.791 331.506 113.766C331.886 113.694 332.263 113.61 332.639 113.525C332.786 113.492 332.934 113.462 333.079 113.427C333.441 113.34 333.798 113.242 334.155 113.143C334.312 113.099 334.47 113.059 334.626 113.013C334.971 112.912 335.312 112.801 335.652 112.689C335.816 112.635 335.981 112.584 336.143 112.527C336.473 112.413 336.799 112.289 337.124 112.165C337.292 112.1 337.462 112.038 337.63 111.97C337.945 111.844 338.256 111.709 338.567 111.573C338.739 111.497 338.912 111.423 339.083 111.345C339.384 111.207 339.681 111.062 339.977 110.915C340.152 110.828 340.328 110.742 340.501 110.652C340.789 110.503 341.073 110.348 341.355 110.191C341.531 110.093 341.707 109.996 341.881 109.896C342.156 109.736 342.427 109.572 342.697 109.405C342.873 109.296 343.049 109.187 343.222 109.075C343.484 108.907 343.742 108.734 343.998 108.558C344.174 108.438 344.349 108.317 344.522 108.194C344.771 108.017 345.016 107.835 345.26 107.652C345.434 107.521 345.606 107.389 345.777 107.254C346.013 107.069 346.246 106.88 346.477 106.688C346.649 106.546 346.819 106.402 346.988 106.256C347.211 106.064 347.431 105.868 347.649 105.67C347.818 105.516 347.984 105.361 348.149 105.204C348.36 105.004 348.569 104.802 348.774 104.597C348.938 104.432 349.1 104.266 349.261 104.099C349.459 103.892 349.655 103.684 349.848 103.473C350.008 103.298 350.165 103.12 350.321 102.942C350.507 102.729 350.691 102.516 350.871 102.299C351.025 102.113 351.176 101.925 351.326 101.736C351.499 101.518 351.671 101.3 351.839 101.078C351.987 100.881 352.132 100.681 352.276 100.481C352.436 100.259 352.596 100.036 352.751 99.8102C352.892 99.6031 353.03 99.3926 353.167 99.182C353.314 98.9559 353.462 98.7297 353.603 98.4997C353.738 98.2817 353.867 98.06 353.997 97.8388C354.132 97.6089 354.267 97.3794 354.396 97.1461C354.523 96.9176 354.643 96.6855 354.765 96.4537C354.886 96.2212 355.009 95.9892 355.126 95.7535C355.244 95.5144 355.355 95.2716 355.467 95.0294C355.576 94.7941 355.687 94.5598 355.791 94.3217C355.899 94.0728 356 93.8198 356.102 93.5678C356.199 93.3304 356.297 93.0941 356.389 92.8541C356.487 92.5952 356.576 92.3321 356.668 92.0702C356.752 91.8312 356.839 91.5935 356.917 91.3521C357.005 91.0827 357.083 90.8092 357.163 90.5368C357.234 90.2976 357.309 90.0598 357.374 89.8184C357.451 89.5365 357.517 89.2506 357.586 88.9658C357.644 88.7289 357.706 88.4938 357.758 88.255C357.823 87.958 357.877 87.6569 357.934 87.357C357.978 87.1258 358.027 86.8962 358.066 86.6634C358.119 86.3465 358.16 86.0255 358.204 85.7055C358.234 85.4852 358.271 85.2668 358.296 85.0451C358.338 84.6862 358.367 84.3232 358.397 83.9609C358.412 83.775 358.435 83.591 358.447 83.4041C358.483 82.8531 358.507 82.2986 358.516 81.7407C358.524 81.2098 358.516 80.6824 358.5 80.1573C358.494 79.9911 358.485 79.826 358.477 79.6606Z"
      fill="#07162C" />
  </g>
  <g opacity="0.5">
    <path
      d="M340.999 71.5623C337.364 67.926 331.29 68.0274 327.161 71.6772C325.309 70.0406 323.006 69.0589 320.604 68.8948C317.822 68.7059 315.232 69.6522 313.321 71.5627C309.362 75.5223 309.362 81.9651 313.321 85.9244L324.494 97.0975C325.206 97.8096 326.153 98.2018 327.16 98.2018C328.168 98.2018 329.115 97.8093 329.826 97.0972L340.999 85.9247C344.959 81.9649 344.959 75.5219 340.999 71.5623Z"
      fill="#F2F2F2" />
  </g>
  <g opacity="0.5">
    <path
      d="M294.019 83.8404C293.878 65.7846 308.453 50.7891 326.506 50.4414C337.065 50.2379 346.525 54.974 352.733 62.4944C346.647 53.6129 336.354 47.8409 324.724 48.0649C306.671 48.4126 292.096 63.4081 292.236 81.4639C292.298 89.3458 295.115 96.5675 299.767 102.224C296.187 96.9801 294.072 90.6574 294.019 83.8404Z"
      fill="#F2F2F2" />
  </g>
  <path
    d="M312.588 70.8267C315.974 67.4407 321.464 68.0474 324.85 71.4334L325.377 71.9604L325.904 71.4334C329.29 68.0474 334.78 67.4407 338.166 70.8267C341.552 74.2127 341.552 79.7025 338.166 83.0885L337.639 83.6155L326.993 94.261C326.101 95.1537 324.653 95.1537 323.761 94.261L313.115 83.6155L312.588 83.0885C309.202 79.7025 309.202 74.2127 312.588 70.8267Z"
    fill="#F2F2F2" />
  <path
    d="M325.378 96.289C324.444 96.289 323.511 95.934 322.8 95.2235L311.627 84.0507C309.733 82.1561 308.689 79.6374 308.689 76.9582C308.689 74.279 309.733 71.7603 311.627 69.8661C315.241 66.2529 321.294 66.3801 325.378 70.06C329.461 66.3801 335.515 66.2523 339.128 69.8661C343.039 73.7767 343.039 80.1398 339.128 84.0507L327.956 95.2232C327.245 95.9337 326.311 96.289 325.378 96.289ZM318.163 69.9419C316.443 69.9419 314.789 70.551 313.55 71.7891C312.17 73.17 311.409 75.0055 311.409 76.9582C311.409 78.9109 312.17 80.7466 313.55 82.1275L324.723 93.3001C325.084 93.6606 325.671 93.661 326.032 93.2998L337.205 82.1273C340.055 79.2771 340.055 74.6392 337.205 71.7891C334.521 69.106 329.883 69.3782 326.866 72.3957L326.339 72.9227C325.809 73.4539 324.947 73.4539 324.416 72.9227L323.889 72.3957C322.264 70.771 320.169 69.9419 318.163 69.9419Z"
    fill="#07162C" />
  <g opacity="0.3">
    <path
      d="M355.8 350.025C355.8 356.916 276.186 362.507 177.98 362.507C79.7747 362.507 0.160156 356.916 0.160156 350.025C0.160156 348.09 6.4556 346.251 17.6964 344.617H338.264C349.505 346.251 355.8 348.09 355.8 350.025Z"
      fill="#07162C" />
  </g>
  <path
    d="M74.5554 214.357L69.7717 215.096C68.8133 215.244 68.0613 215.996 67.9133 216.954L67.1747 221.738L66.436 216.954C66.2881 215.996 65.536 215.244 64.5776 215.096L59.7939 214.357L64.5776 213.619C65.536 213.471 66.2881 212.718 66.436 211.76L67.1747 206.977L67.9133 211.76C68.0613 212.718 68.8133 213.471 69.7717 213.619L74.5554 214.357Z"
    fill="#FFF2CC" />
  <path
    d="M55.5677 245.894L51.0795 246.587C50.1802 246.725 49.4747 247.431 49.3358 248.33L48.6428 252.819L47.9497 248.33C47.8108 247.431 47.1053 246.725 46.206 246.587L41.7178 245.894L46.206 245.201C47.1053 245.062 47.8108 244.356 47.9497 243.457L48.6428 238.969L49.3358 243.457C49.4747 244.356 50.1802 245.062 51.0795 245.201L55.5677 245.894Z"
    fill="#FFF2CC" />
  <path
    d="M40.3992 191.164L37.052 191.681C36.3814 191.784 35.8552 192.311 35.7516 192.981L35.2348 196.329L34.718 192.981C34.6145 192.311 34.0883 191.785 33.4175 191.681L30.0703 191.164L33.4175 190.647C34.0882 190.544 34.6143 190.018 34.718 189.347L35.2348 186L35.7516 189.347C35.8551 190.018 36.3814 190.544 37.052 190.647L40.3992 191.164Z"
    fill="#FFF2CC" />
  <path
    d="M323.104 201.934L328.019 202.693C329.004 202.845 329.776 203.618 329.928 204.602L330.687 209.517L331.446 204.602C331.598 203.618 332.371 202.845 333.355 202.693L338.27 201.934L333.355 201.175C332.371 201.023 331.598 200.251 331.446 199.266L330.687 194.352L329.928 199.266C329.776 200.251 329.004 201.023 328.019 201.175L323.104 201.934Z"
    fill="#FFF2CC" />
  <path
    d="M293.541 233.56L298.152 234.272C299.076 234.414 299.801 235.139 299.943 236.063L300.655 240.674L301.367 236.063C301.51 235.139 302.235 234.414 303.159 234.272L307.77 233.56L303.159 232.848C302.235 232.705 301.51 231.98 301.367 231.056L300.655 226.445L299.943 231.056C299.801 231.98 299.076 232.705 298.152 232.848L293.541 233.56Z"
    fill="#FFF2CC" />
  <path
    d="M304.084 175.165L307.523 175.696C308.212 175.802 308.752 176.343 308.859 177.032L309.39 180.471L309.921 177.032C310.027 176.343 310.568 175.802 311.256 175.696L314.695 175.165L311.256 174.634C310.568 174.528 310.027 173.987 309.921 173.298L309.39 169.859L308.859 173.298C308.752 173.987 308.212 174.528 307.523 174.634L304.084 175.165Z"
    fill="#FFF2CC" />
  <path
    d="M92.8072 81.3913L89.0598 81.97C88.3089 82.0858 87.7199 82.675 87.6039 83.4258L87.0252 87.1733L86.4465 83.4258C86.3307 82.675 85.7415 82.0858 84.9906 81.97L81.2432 81.3913L84.9906 80.8126C85.7415 80.6967 86.3307 80.1076 86.4465 79.3567L87.0252 75.6094L87.6039 79.3567C87.7197 80.1076 88.3089 80.6966 89.0598 80.8126L92.8072 81.3913Z"
    fill="#FFF2CC" />
  <path
    d="M66.1107 111.548L62.2212 112.149C61.4419 112.269 60.8305 112.88 60.7101 113.66L60.1095 117.549L59.509 113.66C59.3886 112.88 58.7771 112.269 57.9979 112.149L54.1084 111.548L57.998 110.947C58.7773 110.827 59.3887 110.216 59.5091 109.436L60.1097 105.547L60.7102 109.436C60.8306 110.216 61.4421 110.827 62.2213 110.947L66.1107 111.548Z"
    fill="#FFF2CC" />
  <path
    d="M241.788 58.2741L245.536 58.8528C246.286 58.9686 246.875 59.5578 246.991 60.3087L247.57 64.0561L248.149 60.3087C248.265 59.5578 248.854 58.9686 249.605 58.8528L253.352 58.2741L249.605 57.6954C248.854 57.5795 248.265 56.9904 248.149 56.2395L247.57 52.4922L246.991 56.2395C246.875 56.9904 246.286 57.5794 245.536 57.6954L241.788 58.2741Z"
    fill="#FFF2CC" />
</svg>