<svg width="100%" height="100%" viewBox="0 0 469 433" fill="none" xmlns="http://www.w3.org/2000/svg">
  <path
    d="M232.499 419.5C180.86 419.5 138.999 409.649 138.999 397.499C138.999 392.862 145.096 388.561 155.508 385.013C155.14 388.423 155.229 392.624 156.608 396.473C158.325 401.267 161.783 401.414 162.173 401.416H172.99C173.023 401.416 173.057 401.411 173.09 401.405C173.23 401.374 176.532 400.547 177.8 392.14C177.961 391.071 178.139 386.958 178.353 379.562C178.88 379.474 179.408 379.387 179.944 379.302C180 385.485 180.139 389.802 180.482 392.077C181.749 400.484 185.052 401.311 185.192 401.342C185.225 401.35 185.259 401.353 185.292 401.353H194.699C194.989 401.385 195.538 401.434 196.232 401.434C198.464 401.434 202.203 400.932 203.684 397.791C205.656 393.607 205.827 386.961 204.089 381.986C203.301 379.73 202.169 378.296 201.397 377.516C201.41 377.279 201.425 377.021 201.44 376.743C211.157 375.939 221.613 375.5 232.499 375.5C233.687 375.5 234.871 375.505 236.049 375.516C236.354 376.635 236.673 377.754 237.006 378.876C240.985 392.236 245.62 401.039 245.816 401.407C245.97 401.7 246.159 401.884 246.359 401.937C246.422 401.954 246.491 401.962 246.562 401.962C247.059 401.962 247.735 401.541 248.27 400.311C249.01 398.601 249.295 395.85 249.113 392.134C249.046 390.729 248.953 389.048 248.85 387.179C248.677 384.033 248.456 379.999 248.281 375.812C255.52 376.101 262.475 376.586 269.044 377.244C271.009 390.68 273.679 399.546 273.679 399.546C273.679 399.546 276.212 391.142 278.158 378.298C285.751 379.299 292.692 380.544 298.788 381.986C298.691 383.873 298.594 385.633 298.509 387.179C298.406 389.048 298.313 390.729 298.245 392.134C298.064 395.85 298.349 398.601 299.09 400.311C299.625 401.541 300.301 401.962 300.797 401.962C300.869 401.962 300.937 401.954 301 401.937C301.199 401.884 301.388 401.7 301.544 401.407C301.709 401.096 305.058 394.736 308.496 384.681C319.511 388.29 325.999 392.717 325.999 397.499C325.999 409.649 284.138 419.5 232.499 419.5Z"
    fill="#AEC4DA" />
  <path
    d="M213.475 197.593L214.387 210.248L214.854 216.694L222.877 327.863C222.877 327.863 215.266 327.981 205.048 327.316C203.049 327.186 200.95 327.027 198.789 326.832C182.686 325.382 163.137 321.902 155.714 313.625C144.617 301.246 142.766 240.811 152.674 216.846C157.212 205.86 180.276 201.076 196.655 199.041C198.485 198.808 200.234 198.615 201.861 198.453C208.725 197.759 213.475 197.593 213.475 197.593Z"
    fill="#F2F2F2" />
  <path
    d="M178.856 321.492C169.687 319.499 161.578 316.501 157.537 311.994C156.096 310.387 154.823 307.846 153.725 304.6C156.723 306.418 160.271 307.328 163.793 307.328C168.028 307.328 172.224 306.012 175.376 303.38C176.797 302.195 177.873 300.654 178.673 298.871C178.712 305.651 178.777 313.454 178.856 321.492ZM179.9 277.45C179.608 275.473 179.266 273.628 178.929 272.007C178.386 269.394 176.361 267.386 173.821 266.811C173.767 260.817 174.101 254.48 175.092 248.161C178.438 248.712 181.554 249.054 184.3 249.26C182.131 257.961 180.302 267.883 179.9 277.45ZM148.75 265.788C148.702 262.063 148.746 258.313 148.884 254.606C149.146 258.407 149.51 262.098 149.975 265.588C149.56 265.617 149.15 265.684 148.75 265.788Z"
    fill="#E6E6E6" />
  <path
    d="M211.205 200.147C195.279 200.989 160.063 205.375 154.933 217.78C145.517 240.556 147.171 300.43 157.537 311.992C168.512 324.235 209.49 325.341 220.248 325.418L211.205 200.147ZM221.089 330.324C211.318 330.324 166.682 329.528 153.891 315.261C142.206 302.228 140.058 240.945 150.408 215.909C153.727 207.882 165.475 201.954 185.324 198.293C199.64 195.651 212.835 195.166 213.39 195.147L215.747 195.066L225.508 330.273L222.917 330.313C222.712 330.317 222.08 330.324 221.089 330.324Z"
    fill="#07162C" />
  <path
    d="M150.645 268.027L172.535 269.096C174.489 269.192 176.134 270.59 176.532 272.506C177.992 279.52 180.521 295.896 173.807 301.501C168.235 306.154 158.982 305.867 153.449 301.426C147.259 296.459 146.247 280.359 146.136 272.379C146.102 269.897 148.167 267.907 150.645 268.027Z"
    fill="#F2F2F2" />
  <path
    d="M163.8 302.438C160.624 302.438 157.407 301.463 154.981 299.516C153.268 298.141 151.842 295.332 150.773 291.39C151.033 291.681 151.301 291.952 151.575 292.205C154.834 295.21 157.81 296.279 160.394 296.279C166.763 296.279 170.756 289.788 170.756 289.788C170.756 289.788 172.262 292.813 173.404 292.957C173.498 292.968 173.59 292.975 173.679 292.975C174.457 292.975 175.057 292.532 175.515 291.764C175.083 295.263 174.067 298.094 172.238 299.621C169.986 301.5 166.913 302.438 163.8 302.438Z"
    fill="#E6E6E6" />
  <path
    d="M150.432 270.47C149.95 270.47 149.497 270.653 149.148 270.99C148.777 271.348 148.577 271.829 148.584 272.346C148.778 286.3 151.169 296.458 154.981 299.517C159.786 303.372 167.689 303.419 172.238 299.622C176.909 295.722 176.281 283.316 174.135 273.006C173.965 272.185 173.257 271.583 172.415 271.542L150.526 270.473C150.494 270.471 150.463 270.47 150.432 270.47ZM163.793 307.328C159.532 307.328 155.233 305.997 151.917 303.336C145.397 298.103 143.843 283.632 143.688 272.414C143.662 270.559 144.412 268.755 145.746 267.467C147.081 266.178 148.915 265.487 150.764 265.582L172.654 266.652C175.724 266.802 178.305 269.004 178.929 272.008C180.81 281.047 182.85 297.143 175.376 303.381C172.224 306.013 168.028 307.328 163.793 307.328Z"
    fill="#07162C" />
  <path
    d="M162.036 302.945C169.215 298.515 170.131 288.892 169.771 281.167C169.689 279.938 169.561 278.642 169.258 277.562C169.052 276.794 170.181 276.407 170.48 277.161C171.764 280.913 171.952 284.708 172.028 288.618C172.118 295.374 169.847 302.99 163.876 306.877C161.071 308.406 159.059 304.123 162.036 302.945Z"
    fill="#07162C" />
  <path
    d="M185.555 215.557C175.115 215.334 164.255 215.141 154.074 217.569C150.945 218.339 149.686 213.766 152.791 212.839C161.082 211.334 169.355 211.81 177.665 212.31C180.369 212.505 183.051 212.736 185.76 213.041C186.453 213.119 186.951 213.745 186.873 214.437C186.798 215.105 186.215 215.59 185.555 215.557Z"
    fill="#07162C" />
  <path
    d="M233.176 286.709C232.715 293.655 231.775 314.836 230.746 336.347C229.506 362.339 228.138 388.81 227.309 391.191C224.823 398.331 218.366 398.953 218.366 398.953H193.059C193.059 398.953 185.323 398.942 181.92 394.827C176.331 388.065 182.014 380.707 182.014 380.707C182.014 380.707 181.586 350.044 181.308 321.978C181.191 309.914 181.102 298.326 181.085 289.861L233.176 286.709Z"
    fill="#F2F2F2" />
  <path
    d="M227.448 336.453C210.627 336.453 196.579 328.313 183.768 322.973C183.697 315.814 183.635 308.807 183.593 302.495C184.156 303.761 184.792 304.975 185.504 306.125C185.758 306.519 186.126 306.685 186.493 306.685C186.708 306.685 186.922 306.628 187.111 306.526C194.584 319.824 210.941 327.738 228.599 329.981C228.498 332.106 228.395 334.268 228.291 336.445C228.009 336.45 227.729 336.453 227.448 336.453Z"
    fill="#E6E6E6" />
  <path
    d="M218.212 396.5H193.064C191.226 396.491 185.979 395.892 183.808 393.265C182.071 391.163 181.75 388.968 181.989 387.092C186.065 389.716 191.951 389.725 191.951 389.725H219.373C219.373 389.725 222.551 389.418 225.447 386.85C225.28 388.684 225.128 389.91 224.996 390.382C223.2 395.544 218.876 396.398 218.212 396.5Z"
    fill="#E6E6E6" />
  <path
    d="M218.365 401.398H193.056C192.144 401.397 184.052 401.248 180.033 396.386C175.015 390.315 177.298 383.374 179.554 379.946C179.452 372.553 178.683 315.992 178.636 289.868C178.634 288.515 179.728 287.418 181.081 287.415H181.085C182.435 287.415 183.531 288.507 183.533 289.858C183.582 317.67 184.452 380.048 184.461 380.675C184.469 381.228 184.289 381.769 183.95 382.206C183.776 382.436 179.561 388.128 183.808 393.266C185.979 395.893 191.226 396.492 193.064 396.502H218.212C218.876 396.4 223.199 395.545 224.996 390.384C225.933 387.046 227.856 345.865 229.129 318.616C229.808 304.107 230.394 291.576 230.73 286.541C230.819 285.193 231.99 284.17 233.335 284.262C234.684 284.352 235.706 285.519 235.616 286.868C235.282 291.854 234.699 304.362 234.021 318.844C231.808 366.192 230.585 389.216 229.62 391.992C226.654 400.518 218.926 401.356 218.599 401.387C218.522 401.394 218.444 401.398 218.365 401.398Z"
    fill="#07162C" />
  <path
    d="M289.226 383.23C292.183 386.895 292.578 392.195 288.529 395.921C284.476 399.647 269.222 398.885 269.222 398.885H247.15C247.15 398.885 240.694 398.261 238.208 391.121C236.283 385.581 237.423 362.715 236.733 336.606C236.591 331.06 236.361 325.373 236.005 319.673L291.504 292.636C290.644 302.818 289.697 312.782 288.741 322.12C285.47 354.174 282.152 378.758 282.152 378.758C282.152 378.758 286.688 380.083 289.226 383.23Z"
    fill="#F2F2F2" />
  <path
    d="M272.52 396.516C271.399 396.516 270.324 396.489 269.344 396.44C269.306 396.439 269.263 396.437 269.223 396.437H247.312C246.589 396.324 242.305 395.45 240.521 390.319C240.38 389.915 240.258 389.377 240.151 388.721C241.875 389.479 243.186 389.606 243.186 389.606H268.14C268.14 389.606 269.585 389.677 271.746 389.677C276.466 389.677 284.619 389.335 288.661 387.156C289.451 389.407 289.157 392.015 286.871 394.117C284.978 395.86 278.161 396.516 272.52 396.516Z"
    fill="#E6E6E6" />
  <path
    d="M239.185 336.605C239.135 334.634 239.072 332.644 238.998 330.643C239.037 330.643 239.08 330.643 239.119 330.643C256.121 330.641 272.954 325.459 283.076 314.848C283.309 315.066 283.612 315.178 283.916 315.178C284.2 315.178 284.487 315.08 284.719 314.879C285.618 314.109 286.461 313.271 287.25 312.383C286.898 316.014 286.54 319.58 286.183 323.054C283.124 324.228 279.781 325.714 276.202 327.599C261.859 335.158 246.722 336.475 239.185 336.605Z"
    fill="#E6E6E6" />
  <path
    d="M272.749 401.414C271.126 401.414 269.841 401.364 269.164 401.331H247.152C247.075 401.331 246.995 401.328 246.917 401.32C246.59 401.289 238.862 400.45 235.896 391.924C234.552 388.06 234.55 378.384 234.549 363.741C234.547 351.144 234.544 335.467 233.561 319.825C233.477 318.475 234.503 317.315 235.852 317.229C237.197 317.148 238.364 318.171 238.45 319.519C239.44 335.314 239.444 351.075 239.445 363.739C239.447 376.345 239.448 387.231 240.521 390.316C242.306 395.447 246.59 396.321 247.313 396.434H269.224C269.264 396.434 269.306 396.436 269.345 396.437C275.261 396.729 284.602 396.202 286.871 394.114C290.039 391.202 289.379 387.319 287.319 384.762C285.314 382.273 281.5 381.116 281.461 381.105C280.305 380.762 279.565 379.624 279.727 378.428C279.782 378.019 285.294 336.981 289.068 292.426C289.18 291.081 290.368 290.079 291.713 290.195C293.062 290.31 294.06 291.494 293.947 292.841C290.627 332.029 285.967 368.507 284.834 377.157C286.641 377.948 289.288 379.403 291.133 381.69C295.199 386.736 294.799 393.476 290.185 397.719C286.721 400.905 277.973 401.414 272.749 401.414Z"
    fill="#07162C" />
  <path
    d="M258.302 357.695C246.543 357.695 237.152 355.786 236.472 355.644C235.148 355.368 234.299 354.071 234.576 352.748C234.851 351.424 236.147 350.577 237.471 350.85C237.749 350.908 265.694 356.575 284.841 348.118C286.076 347.57 287.525 348.131 288.07 349.367C288.617 350.605 288.058 352.049 286.82 352.596C277.848 356.559 267.371 357.695 258.302 357.695Z"
    fill="#07162C" />
  <path
    d="M208.121 353.855C191.762 353.855 181.325 350.1 180.721 349.877C179.453 349.408 178.804 348.001 179.272 346.731C179.74 345.465 181.146 344.816 182.414 345.283C182.61 345.353 202.321 352.391 229.721 346.716C231.042 346.438 232.34 347.292 232.615 348.615C232.889 349.94 232.038 351.236 230.713 351.51C222.382 353.236 214.762 353.855 208.121 353.855Z"
    fill="#07162C" />
  <path
    d="M180.443 378.83C188.386 373.018 206.6 376.296 216.086 377.452C217.613 377.694 217.381 379.978 215.82 379.887C212.953 379.678 210.088 379.5 207.228 379.384C200.946 379.172 194.502 379.032 188.397 380.415C186.692 380.835 184.674 381.587 183.497 382.66C180.904 384.746 177.824 380.904 180.443 378.83Z"
    fill="#07162C" />
  <path
    d="M281.578 381.142C276.413 379.514 270.65 379.209 265.174 379.366C263.671 379.405 263.441 377.204 264.917 376.931C270.808 375.928 276.7 375.408 282.726 376.381C286.143 377.079 284.945 382.077 281.578 381.142Z"
    fill="#07162C" />
  <path
    d="M282.591 278.351C282.591 278.351 306.79 291.511 317.184 281.314C333.212 265.582 314.095 233.985 314.095 233.985L282.591 278.351Z"
    fill="#CCCCCC" />
  <path
    d="M286.236 277.445C293.886 281.041 308.838 286.073 315.468 279.568C327.035 268.217 317.984 246.85 313.816 238.61L286.236 277.445ZM306.072 287.617C294.687 287.617 282.16 280.907 281.419 280.502C280.803 280.169 280.362 279.587 280.204 278.906C280.045 278.224 280.188 277.505 280.592 276.934L312.099 232.569C312.576 231.896 313.364 231.521 314.186 231.538C315.01 231.57 315.762 232.014 316.191 232.719C317.011 234.076 336.113 266.168 318.898 283.063C315.47 286.425 310.873 287.617 306.072 287.617Z"
    fill="#07162C" />
  <path
    d="M216.955 221.761C212.859 227.832 207.185 234.466 202.711 239.415C198.647 243.9 195.574 246.998 195.574 246.998C195.574 246.998 142.12 250.739 127.411 211.36C125.697 206.776 124.626 202.155 124.051 197.626C120.837 172.665 132.394 150.317 132.394 150.317L161.266 163.924L169.597 191.614C169.597 191.614 175.791 194.578 186.527 198.055C194.833 200.753 205.857 203.759 218.839 205.946C224.918 206.968 222.267 213.883 216.955 221.761Z"
    fill="#F2F2F2" />
  <path
    d="M185.579 244.398C169.867 243.315 139.834 237.622 129.704 210.507C129.233 209.248 128.815 207.987 128.442 206.725C135.684 218.812 152.313 236.878 187.377 238.276C186.782 240.19 186.176 242.242 185.579 244.398Z"
    fill="#E6E6E6" />
  <path
    d="M199.171 211.891C195.246 208.785 191.769 205.251 188.841 201.367C192.383 202.458 196.337 203.574 200.658 204.651C201.42 205.073 202.187 205.482 202.958 205.88L199.174 211.885L199.171 211.891Z"
    fill="#E6E6E6" />
  <path
    d="M276.605 215.944C266.473 222.224 254.108 225.914 240.772 225.914C224.784 225.914 210.204 220.608 199.174 211.886L216.386 184.568L276.34 215.485C276.426 215.638 276.517 215.791 276.605 215.944Z"
    fill="#CCCCCC" />
  <path
    d="M191.789 249.547C186.618 249.547 176.983 249.091 166.387 246.314C145.693 240.883 131.422 229.095 125.117 212.22C113.716 181.704 129.539 150.503 130.218 149.19C130.84 147.987 132.316 147.518 133.518 148.138C134.719 148.76 135.189 150.237 134.568 151.437C134.373 151.818 119.09 182.096 129.704 210.506C142.573 244.949 187.563 244.828 194.507 244.595C207.94 230.951 221.278 213.719 219.8 209.117C219.747 208.949 219.621 208.557 218.433 208.357C188.685 203.346 169.347 194.208 168.538 193.821C167.916 193.524 167.449 192.977 167.249 192.317L158.919 164.628C158.529 163.334 159.264 161.968 160.558 161.58C161.853 161.193 163.219 161.924 163.609 163.219L171.619 189.841C175.884 191.734 193.883 199.255 219.247 203.527C222.836 204.132 224.056 206.353 224.463 207.62C225.413 210.579 225.137 216.388 211.829 232.61C204.835 241.134 197.385 248.65 197.311 248.723C196.893 249.146 196.336 249.399 195.745 249.441C195.57 249.452 194.14 249.547 191.789 249.547Z"
    fill="#07162C" />
  <path
    d="M294.244 284.859C293.62 296.256 290.535 306.582 283.808 314.056C260.382 340.083 197.65 334.996 185.065 302.171C183.002 296.795 182.243 289.444 182.39 281.198C182.751 260.852 188.64 235.039 194.118 219.91L216.386 184.568L276.34 215.484C285.951 232.152 295.555 260.864 294.244 284.859Z"
    fill="#F2F2F2" />
  <path
    d="M240.771 225.914C224.784 225.914 210.202 220.606 199.173 211.886L202.957 205.88C215.807 212.517 230.04 216.076 244.744 216.243C245.123 216.247 245.501 216.251 245.882 216.251C247.655 216.251 249.443 216.201 251.236 216.099C251.479 216.086 251.721 216.071 251.966 216.054L248.884 225.454C246.229 225.758 243.52 225.914 240.771 225.914Z"
    fill="#E6E6E6" />
  <path
    d="M239.118 330.641C239.079 330.641 239.037 330.641 238.998 330.641C237.361 330.637 235.725 330.587 234.091 330.49C233.886 330.478 233.682 330.465 233.477 330.451C231.843 330.34 230.215 330.183 228.599 329.978C210.941 327.734 194.584 319.82 187.111 306.523C187.606 306.257 187.938 305.684 187.686 305.02C186.662 302.465 185.972 299.828 185.575 297.117C185.436 296.209 185.32 295.301 185.224 294.392C189.428 295.356 199.089 297.303 208.574 297.303C213.076 297.303 217.537 296.864 221.357 295.674L221.39 297.298C221.391 297.372 221.394 297.444 221.396 297.516L221.435 299.382C221.501 302.662 222.849 305.73 225.232 308.017C227.55 310.241 230.566 311.459 233.748 311.459C233.836 311.459 233.924 311.458 234.011 311.456L235.946 311.417C235.996 311.415 236.047 311.415 236.098 311.414L270.354 310.71L275.547 310.602L277.815 310.556C280.88 310.492 283.704 309.473 286.008 307.788C285.096 309.644 284.065 311.462 282.898 313.24C282.588 313.69 282.605 314.31 282.978 314.746C283.01 314.781 283.041 314.815 283.076 314.846C272.953 325.457 256.121 330.641 239.118 330.641Z"
    fill="#E6E6E6" />
  <path
    d="M185.504 306.12C174.667 288.601 181.619 256.714 187.455 238.021C187.924 236.621 190.077 237.104 189.833 238.61C187.902 249.752 186.276 260.962 185.473 272.21C184.919 280.545 184.312 288.873 185.575 297.114C185.972 299.827 186.662 302.462 187.686 305.017C188.198 306.372 186.294 307.344 185.504 306.12Z"
    fill="#07162C" />
  <path
    d="M257.569 329.766C246.861 334.194 234.039 334.076 223.147 330.342C221.844 329.86 222.23 327.896 223.614 327.939C231.704 328.255 240.584 328.378 248.617 327.86C251.39 327.706 254.164 327.502 257.012 327.383C258.368 327.322 258.807 329.225 257.569 329.766Z"
    fill="#07162C" />
  <path
    d="M278.463 214.26C292.2 237.855 303.493 277.579 292.639 303.839C290.792 308.001 288.172 311.916 284.718 314.878C284.201 315.321 283.423 315.264 282.979 314.747C282.605 314.31 282.589 313.69 282.899 313.24C297.152 291.484 291.732 263.419 284.283 240.123C281.571 232.036 278.271 224.117 274.211 216.69C272.768 213.898 276.738 211.562 278.463 214.26Z"
    fill="#07162C" />
  <path
    d="M296.188 284.167C296.188 288.657 292.547 292.297 288.056 292.297C283.566 292.297 279.927 288.657 279.927 284.167C279.927 279.677 283.566 276.036 288.056 276.036C292.547 276.036 296.188 279.677 296.188 284.167Z"
    fill="#F2F2F2" />
  <path
    d="M288.059 278.486C284.926 278.486 282.376 281.034 282.376 284.167C282.376 287.301 284.926 289.85 288.059 289.85C291.191 289.85 293.741 287.301 293.741 284.167C293.741 281.034 291.191 278.486 288.059 278.486ZM288.059 294.746C282.226 294.746 277.479 290.001 277.479 284.167C277.479 278.335 282.226 273.588 288.059 273.588C293.891 273.588 298.638 278.335 298.638 284.167C298.638 290.001 293.891 294.746 288.059 294.746Z"
    fill="#07162C" />
  <path
    d="M279.849 308.065L233.964 309.006C228.532 309.12 223.993 304.766 223.88 299.328L223.38 274.91C223.28 270.149 226.609 266.081 231.087 265.067C231.722 264.919 232.38 264.842 233.058 264.826L278.937 263.883C284.376 263.771 288.914 268.125 289.021 273.562L289.422 292.902L289.527 297.981C289.64 303.42 285.281 307.952 279.849 308.065Z"
    fill="#F2F2F2" />
  <path
    d="M279.849 308.065L233.964 309.006C228.532 309.12 223.993 304.766 223.88 299.328L223.38 274.91C223.28 270.149 226.609 266.081 231.087 265.067C231.722 264.919 232.38 264.842 233.058 264.826L278.937 263.883C284.376 263.771 288.914 268.125 289.021 273.562L289.422 292.902L289.527 297.981C289.64 303.42 285.281 307.952 279.849 308.065Z"
    fill="#F2F2F2" />
  <path
    d="M279.849 308.065L233.964 309.006C228.532 309.12 223.993 304.766 223.88 299.328L223.38 274.91C223.28 270.149 226.609 266.081 231.087 265.067C231.722 264.919 232.38 264.842 233.058 264.826L278.937 263.883C284.376 263.771 288.914 268.125 289.021 273.562L289.422 292.902L289.527 297.981C289.64 303.42 285.281 307.952 279.849 308.065Z"
    fill="#F2F2F2" />
  <path
    d="M245.528 306.145C243.587 306.145 241.769 305.422 240.361 304.07C238.922 302.687 238.106 300.839 238.067 298.864L237.864 289.01H239.041C239.393 290.745 240.122 292.34 241.171 293.639C242.744 295.586 244.841 296.655 247.092 296.655C247.128 296.655 247.164 296.655 247.198 296.655L250.772 296.603C251.886 296.586 252.89 296.08 253.558 295.277C257.419 296.383 262.116 296.933 267.858 296.933C267.984 296.933 268.111 296.933 268.238 296.933C276.85 296.894 282.837 295.72 286.995 294.065L287.034 295.951C287.141 301.198 282.961 305.554 277.714 305.662L275.396 305.709C273.707 305.734 245.662 306.143 245.647 306.145C245.607 306.145 245.567 306.145 245.528 306.145Z"
    fill="#E6E6E6" />
  <path
    d="M277.104 266.376C277.038 266.376 276.973 266.376 276.905 266.378L235.188 267.235C232.661 267.286 230.295 268.329 228.526 270.171C226.761 272.011 225.816 274.419 225.869 276.945L226.284 297.203C226.393 302.449 230.732 306.615 235.996 306.522L277.713 305.665C282.96 305.558 287.141 301.201 287.034 295.953L286.617 275.699C286.564 273.169 285.523 270.802 283.681 269.037C281.889 267.316 279.56 266.376 277.104 266.376ZM235.797 311.422C227.985 311.422 221.551 305.149 221.389 297.302L220.974 277.047C220.809 269.101 227.141 262.503 235.087 262.34L276.804 261.483C280.647 261.395 284.288 262.831 287.072 265.505C289.858 268.177 291.434 271.76 291.512 275.596L291.929 295.852C292.092 303.799 285.759 310.395 277.814 310.56L236.096 311.419C235.996 311.42 235.898 311.422 235.797 311.422Z"
    fill="#07162C" />
  <path
    d="M263.615 308.229L263.525 308.405L233.959 309.01C229.978 309.087 226.481 306.776 224.853 303.386C224.256 302.157 223.911 300.785 223.885 299.331L223.657 288.482L223.582 284.902L223.457 278.618L223.38 274.914C223.269 269.474 227.623 264.941 233.055 264.828L242.969 264.629C238.417 265.584 235.022 269.684 235.117 274.489L235.263 281.737L235.389 287.681L235.614 298.92C235.732 304.345 240.27 308.703 245.7 308.596L263.615 308.229Z"
    fill="#F2F2F2" />
  <path
    d="M233.773 306.562C231.841 306.562 230.026 305.832 228.622 304.484C227.183 303.103 226.369 301.257 226.33 299.281L226.181 292.027C227.291 290.287 228.239 287.831 227.545 285.005C227.545 285.003 227.543 285.002 227.543 285C227.543 284.997 227.542 284.994 227.542 284.991C227.278 283.923 226.78 282.804 225.968 281.65L225.905 278.608C227.283 278.857 228.65 279.627 229.578 281.431C229.783 281.83 229.989 282.177 230.194 282.475L229.106 285.796C228.862 286.542 228.99 287.361 229.449 287.995C229.91 288.63 230.647 289.008 231.432 289.008H232.967L233.172 298.963C233.227 301.752 234.21 304.387 235.965 306.519L233.909 306.561C233.863 306.561 233.818 306.562 233.773 306.562Z"
    fill="#E6E6E6" />
  <path
    d="M234.892 267.237L233.108 267.273C231.133 267.315 229.285 268.131 227.904 269.568C226.525 271.007 225.787 272.885 225.829 274.858L226.33 299.283C226.37 301.258 227.183 303.105 228.622 304.486C230.06 305.865 231.926 306.597 233.909 306.563L235.966 306.52C234.21 304.388 233.227 301.753 233.173 298.965L232.671 274.545C232.616 271.855 233.436 269.319 234.892 267.237ZM233.748 311.461C230.566 311.461 227.55 310.243 225.232 308.019C222.849 305.732 221.501 302.664 221.435 299.383L220.934 274.962C220.863 271.679 222.086 268.56 224.373 266.177C226.658 263.796 229.724 262.447 233.006 262.378L242.919 262.176L243.473 267.019C239.977 267.756 237.493 270.878 237.566 274.444L238.068 298.864C238.107 300.84 238.922 302.688 240.361 304.07C241.799 305.45 243.662 306.175 245.648 306.146C245.664 306.144 274.658 305.721 275.459 305.708L277.915 305.658L277.961 308.121C277.987 309.903 276.755 310.406 275.545 310.555L275.547 310.604L234.011 311.458C233.923 311.459 233.836 311.461 233.748 311.461Z"
    fill="#07162C" />
  <path
    d="M253.465 286.531C253.477 287.435 252.316 294.744 252.316 294.744C252.316 294.744 250.007 294.777 247.171 294.82C243.627 294.873 240.701 291.247 240.635 286.722C240.568 282.197 243.386 278.485 246.928 278.433C249.319 278.397 252.073 278.356 252.073 278.356C252.073 278.356 253.443 285.06 253.465 286.531Z"
    fill="#1B54A4" />
  <path
    d="M253.465 286.531C253.477 287.435 252.316 294.744 252.316 294.744C252.316 294.744 250.007 294.777 247.171 294.82C243.627 294.873 240.701 291.247 240.635 286.722C240.568 282.197 243.386 278.485 246.928 278.433C249.319 278.397 252.073 278.356 252.073 278.356C252.073 278.356 253.443 285.06 253.465 286.531Z"
    fill="#1D5AAF" />
  <path
    d="M250.576 280.238L246.955 280.268C245.819 280.285 244.731 280.904 243.891 282.01C242.949 283.249 242.444 284.914 242.471 286.693C242.497 288.474 243.051 290.121 244.029 291.335C244.9 292.415 246.02 292.998 247.144 292.984L250.717 292.93C251.381 288.794 251.619 286.913 251.628 286.546C251.617 286.036 251.335 284.118 250.576 280.238ZM247.092 296.656C244.842 296.656 242.744 295.587 241.171 293.64C239.679 291.792 238.837 289.344 238.798 286.748C238.761 284.151 239.53 281.68 240.966 279.788C242.504 277.763 244.612 276.63 246.902 276.597L250.493 276.544C250.512 276.544 250.529 276.544 250.548 276.544C252.318 276.544 253.84 277.793 254.18 279.533C254.911 283.267 255.288 285.612 255.301 286.504C255.306 286.768 255.313 287.389 254.374 293.471C254.099 295.258 252.584 296.575 250.772 296.603L247.198 296.656C247.164 296.656 247.128 296.656 247.092 296.656Z"
    fill="#07162C" />
  <path
    d="M258.609 286.453C258.677 290.978 255.859 294.688 252.316 294.742C248.773 294.793 245.847 291.168 245.78 286.642C245.712 282.117 248.53 278.407 252.073 278.353C255.617 278.302 258.542 281.927 258.609 286.453Z"
    fill="#1B54A4" />
  <path
    d="M245.781 286.646C245.849 291.166 248.774 294.793 252.318 294.742C255.862 294.687 258.677 290.978 258.61 286.451C258.6 285.738 258.519 285.044 258.375 284.388C257.484 287.454 255.191 289.646 252.473 289.686C249.492 289.733 246.943 287.171 246.173 283.656C245.907 284.583 245.767 285.591 245.781 286.646Z"
    fill="#1D5AAF" />
  <path
    d="M252.146 280.188C252.131 280.188 252.115 280.19 252.099 280.19C249.618 280.226 247.565 283.17 247.616 286.615C247.667 290.039 249.78 292.905 252.242 292.905C252.258 292.905 252.273 292.904 252.289 292.904C254.77 292.868 256.824 289.926 256.774 286.479C256.724 283.055 254.609 280.188 252.146 280.188ZM252.242 296.578C247.737 296.578 244.025 292.158 243.944 286.67C243.862 281.14 247.496 276.585 252.046 276.517C252.079 276.516 252.114 276.516 252.146 276.516C256.651 276.516 260.365 280.936 260.446 286.424V286.425C260.528 291.954 256.893 296.509 252.344 296.577C252.309 296.578 252.275 296.578 252.242 296.578Z"
    fill="#07162C" />
  <path
    d="M265.58 310.016H265.574C264.56 310.012 263.74 309.188 263.743 308.174L263.782 295.816C263.792 292.326 265.54 289.097 268.455 287.18C270.385 285.912 271.512 283.776 271.473 281.468L271.175 264.05C271.157 263.036 271.966 262.201 272.98 262.182C273.982 262.166 274.83 262.973 274.847 263.988L275.145 281.406C275.206 284.978 273.46 288.284 270.474 290.249C268.59 291.488 267.461 293.573 267.453 295.827L267.416 308.185C267.413 309.197 266.591 310.016 265.58 310.016Z"
    fill="#07162C" />
  <path
    d="M184.454 275.536C184.454 275.536 178.331 277.477 177.553 282.866C176.464 290.412 183.043 293.865 183.043 293.865C183.043 293.865 209.761 300.978 223.852 294.746C223.852 294.746 233.001 287.258 223.377 278.831C223.377 278.831 202.606 280.871 184.454 275.536Z"
    fill="#F2F2F2" />
  <path
    d="M178.677 289.422C178.198 288.549 177.809 287.542 177.6 286.397C177.809 287.542 178.199 288.549 178.677 289.422H178.677Z"
    fill="#07162C" />
  <path
    d="M180.6 291.969C179.936 291.303 179.244 290.455 178.677 289.418H178.677C179.244 290.453 179.936 291.301 180.6 291.969H180.6Z"
    fill="#07162C" />
  <path
    d="M208.573 297.305C199.088 297.305 189.428 295.358 185.223 294.394C185.223 294.394 185.223 294.394 185.223 294.392C189.428 295.358 199.088 297.303 208.572 297.303C213.075 297.303 217.534 296.866 221.356 295.674V295.676C217.536 296.866 213.075 297.305 208.573 297.305Z"
    fill="#9C8EA3" />
  <path
    d="M185.223 294.391C183.838 294.072 183.044 293.862 183.044 293.862C183.044 293.862 181.872 293.246 180.6 291.969H180.6C181.872 293.246 183.043 293.861 183.043 293.861C183.043 293.861 183.837 294.072 185.223 294.389C185.223 294.391 185.223 294.391 185.223 294.391Z"
    fill="#07162C" />
  <path d="M221.356 295.676H221.359V295.673H221.356V295.676Z" fill="#07162C" />
  <path
    d="M226.182 292.027V292.023C227.29 290.284 228.238 287.83 227.545 285.005C228.24 287.831 227.291 290.287 226.182 292.027Z"
    fill="#9C8EA3" />
  <path
    d="M221.358 295.676V295.674C222.225 295.405 223.059 295.096 223.852 294.745C223.852 294.745 225.094 293.729 226.182 292.024V292.028C225.094 293.732 223.852 294.746 223.852 294.746C223.059 295.097 222.225 295.406 221.358 295.676Z"
    fill="#07162C" />
  <path
    d="M208.571 297.305C199.088 297.305 189.428 295.359 185.223 294.394C183.837 294.077 183.043 293.866 183.043 293.866C183.043 293.866 181.872 293.251 180.599 291.974C179.935 291.306 179.243 290.458 178.676 289.423C178.198 288.55 177.808 287.544 177.599 286.398C177.405 285.34 177.366 284.164 177.553 282.866C177.719 281.735 178.117 280.755 178.649 279.91C179.176 281.702 180.139 283.103 181.093 284.135C182.355 285.498 184.019 286.415 185.828 286.834C189.923 287.782 199.74 289.792 209.374 289.792C213.827 289.792 218.241 289.364 222.035 288.201C224.204 287.536 226.069 286.081 227.222 284.125L227.256 284.067C227.37 284.379 227.466 284.688 227.541 284.994C227.541 284.997 227.543 285 227.543 285.003C227.543 285.005 227.544 285.006 227.544 285.008C228.237 287.832 227.289 290.287 226.181 292.025C225.093 293.731 223.851 294.747 223.851 294.747C223.058 295.098 222.224 295.406 221.358 295.676H221.356C217.534 296.867 213.075 297.305 208.571 297.305Z"
    fill="#E6E6E6" />
  <path
    d="M183.976 291.572C186.897 292.308 210.068 297.866 222.517 292.651C223.202 291.997 225.301 289.774 225.332 287.002C225.354 285.125 224.404 283.23 222.506 281.357C217.955 281.7 200.565 282.614 184.577 278.114C183.281 278.692 180.399 280.288 179.977 283.211C179.243 288.299 183.039 290.991 183.976 291.572ZM208.497 299.75C195.855 299.75 183.182 296.432 182.414 296.226L182.149 296.156L181.906 296.029C181.574 295.855 173.809 291.666 175.131 282.512C176.116 275.683 183.405 273.297 183.715 273.198L184.428 272.972L185.145 273.182C202.608 278.316 222.934 276.41 223.137 276.39L224.192 276.288L224.99 276.985C228.526 280.081 230.288 283.49 230.229 287.114C230.135 292.701 225.597 296.479 225.402 296.637L225.147 296.847L224.843 296.98C220.191 299.04 214.347 299.75 208.497 299.75Z"
    fill="#07162C" />
  <path
    d="M345.402 127.344C344.96 137.906 342.903 148.075 338.186 151.996C334.796 154.813 309.417 157.527 309.417 157.527L322.141 89.9207C322.141 89.9207 323.864 90.2161 326.306 90.7733C331.381 91.9366 339.567 94.2554 341.73 97.4603C344.082 100.942 345.941 114.442 345.402 127.344Z"
    fill="#F2F2F2" />
  <path
    d="M335.577 150.621C336.836 146.632 337.823 142.557 338.535 138.417C338.948 136.36 339.274 134.286 339.513 132.204C340.582 132.093 341.701 131.567 342.763 130.658C342.114 139.293 340.28 147.068 336.625 150.109C336.414 150.271 336.057 150.443 335.577 150.621Z"
    fill="#E6E6E6" />
  <path
    d="M324.095 92.7889L312.435 154.728C323.314 153.436 334.875 151.445 336.625 150.111C345.878 142.415 343.461 104.404 339.702 98.8383C338.109 96.478 330.291 94.0686 324.095 92.7889ZM306.401 160.32L320.183 87.1092L322.554 87.5124C325.462 88.0088 340.149 90.7492 343.761 96.098C346.604 100.312 348.036 113.548 347.936 123.863C347.853 132.601 346.679 148.118 339.751 153.88C336.08 156.934 315.804 159.312 309.679 159.969L306.401 160.32Z"
    fill="#371944" />
  <path
    d="M154.582 127.449C157.43 177.908 200.641 216.502 251.098 213.653C301.554 210.806 340.149 167.595 337.299 117.137C334.452 66.6814 291.241 28.0862 240.785 30.9333C190.327 33.7834 151.734 76.9941 154.582 127.449Z"
    fill="#F2F2F2" />
  <path
    d="M159.908 153.505C173.313 190.521 209.772 215.986 251.094 213.653C301.55 210.805 340.146 167.592 337.299 117.135C336.187 97.432 328.923 79.535 317.474 65.2195C312.25 111.166 256.465 149.763 186.349 153.723C177.34 154.229 168.493 154.142 159.908 153.505Z"
    fill="#CCCCCC" />
  <path
    d="M245.997 33.2341C244.312 33.2341 242.625 33.2813 240.923 33.3788C191.895 36.1462 154.259 78.2838 157.027 127.312C159.698 174.639 199.06 211.348 245.886 211.351C247.571 211.351 249.257 211.303 250.96 211.206C299.988 208.442 337.625 166.301 334.858 117.276C332.185 69.949 292.823 33.2341 245.997 33.2341ZM245.822 216.25C222.723 216.25 200.721 207.877 183.356 192.366C164.639 175.649 153.552 152.644 152.137 127.587C150.723 102.532 159.151 78.4256 175.868 59.7063C192.585 40.9899 215.591 29.9025 240.647 28.4878C265.699 27.079 289.809 35.5023 308.528 52.2192C327.244 68.936 338.331 91.9437 339.746 116.998C341.161 142.053 332.731 166.159 316.016 184.879C299.299 203.595 276.292 214.682 251.236 216.096C249.427 216.198 247.619 216.25 245.822 216.25Z"
    fill="#07162C" />
  <path
    d="M157.024 127.31C158.365 151.061 168.874 172.865 186.617 188.713C204.361 204.561 227.216 212.555 250.96 211.208C262.429 210.562 273.473 207.78 283.78 202.937C309.889 190.674 328.513 166.445 333.598 138.118C334.744 131.766 335.189 125.237 334.924 118.714C334.906 118.236 334.885 117.752 334.859 117.273C333.438 92.1117 321.35 68.6273 301.692 52.844C284.519 39.0451 262.934 32.1294 240.922 33.3755C191.897 36.1424 154.262 78.2862 157.024 127.31ZM245.881 216.25C196.477 216.25 154.953 177.519 152.135 127.588C149.216 75.8619 188.922 31.4059 240.646 28.4855C263.87 27.1744 286.641 34.4681 304.758 49.0259C325.496 65.6773 338.249 90.4522 339.749 116.999C339.775 117.501 339.796 118.009 339.82 118.514C340.097 125.397 339.625 132.283 338.42 138.986C333.052 168.869 313.404 194.433 285.862 207.369C274.984 212.478 263.334 215.416 251.236 216.098C249.443 216.2 247.656 216.25 245.881 216.25Z"
    fill="#07162C" />
  <path
    d="M255.203 40.624C253.37 40.624 251.53 40.6763 249.687 40.781C225.761 42.1294 203.764 52.0947 187.752 68.8401C171.783 85.5361 163.68 106.984 164.936 129.23C167.436 173.509 206.69 207.741 253.629 207.744C255.444 207.744 257.266 207.694 259.101 207.59C267.602 207.11 275.947 205.523 283.91 202.879C309.949 190.594 328.519 166.398 333.599 138.12C334.874 132.017 335.339 125.819 334.991 119.631C334.976 119.364 334.965 119.123 334.935 118.876C334.93 118.821 334.927 118.768 334.927 118.716C334.906 118.239 334.886 117.751 334.857 117.274C333.442 92.1738 321.409 68.7442 301.836 52.9608C287.766 44.8467 271.749 40.624 255.203 40.624ZM253.627 212.641C204.11 212.641 162.694 176.392 160.047 129.507C158.714 105.894 167.296 83.1443 184.214 65.4544C201.087 47.811 224.24 37.311 249.409 35.8899C268.928 34.7913 287.956 39.261 304.452 48.8165C304.559 48.8805 304.66 48.9473 304.758 49.0258C325.496 65.6782 338.249 90.4533 339.748 116.998C339.774 117.475 339.795 117.96 339.815 118.44C339.844 118.739 339.861 119.033 339.879 119.335C340.254 125.973 339.757 132.599 338.405 139.056C333.052 168.871 313.404 194.433 285.861 207.372C285.775 207.412 285.687 207.447 285.596 207.476C277.181 210.29 268.361 211.972 259.379 212.478C257.451 212.588 255.534 212.641 253.627 212.641Z"
    fill="#07162C" />
  <path
    d="M171.353 128.87C173.771 171.711 212.912 204.348 258.773 201.758C297.648 199.564 328.876 172.762 336.008 138.555C337.296 132.406 337.803 126.02 337.436 119.495C337.419 119.202 337.402 118.911 337.37 118.618C334.478 76.2094 295.56 44.0422 250.016 46.6124C204.155 49.2025 168.935 86.0285 171.353 128.87Z"
    fill="#07162C" />
  <path
    d="M171.353 128.87C173.771 171.711 212.912 204.349 258.773 201.758C293.263 199.812 321.737 178.497 332.695 149.815C317.225 168.162 293.773 180.509 266.953 182.024C219.455 184.703 178.615 152.45 172.951 109.014C171.533 115.408 170.969 122.064 171.353 128.87Z"
    fill="#220F2D" />
  <path
    d="M316.461 138.867C316.461 138.867 316.833 130.209 311.069 114.024C309.169 108.704 306.778 102.753 301.679 95.1962C297.821 89.4792 292.496 84.8609 286.229 81.8674C286.198 81.8537 286.167 81.8371 286.135 81.8234C275.045 76.5359 262.547 74.8781 251.222 74.8781C232.126 74.8781 216.369 79.5982 216.369 79.5982C214.563 78.4746 234.724 59.6188 265.076 59.6188C267.604 59.6188 270.208 59.751 272.871 60.0347C291.393 62.0037 304.34 75.7043 312.005 87.0034C314.55 90.7487 316.508 94.2296 317.896 96.9339L317.907 96.9532C318.053 97.2644 318.193 97.5755 318.328 97.8922C318.915 99.2664 319.441 100.624 319.903 101.957C324.571 115.484 322.762 127.039 316.461 138.867Z"
    fill="#CCCCCC" />
  <path
    d="M201.268 140.609C194.738 140.609 189.134 134.805 188.548 127.217C187.935 119.289 193.034 112.416 199.934 111.864C200.231 111.84 200.525 111.827 200.817 111.827C207.347 111.827 212.953 117.632 213.539 125.219C214.15 133.148 209.053 140.023 202.151 140.573C201.856 140.597 201.562 140.609 201.268 140.609Z"
    fill="#CCCCCC" />
  <path
    d="M203.023 161.586C203.017 161.586 203.012 161.586 203.006 161.586C202.907 161.586 202.81 161.582 202.714 161.575C201.143 160.294 199.621 158.958 198.151 157.575C197.972 156.963 197.877 156.305 197.883 155.62C197.911 152.343 200.242 149.692 203.092 149.692C203.098 149.692 203.103 149.692 203.109 149.692C205.967 149.701 208.26 152.374 208.232 155.658C208.204 158.936 205.873 161.586 203.023 161.586Z"
    fill="#CCCCCC" />
  <path
    d="M202.714 161.57C200.581 161.426 198.805 159.796 198.151 157.57C199.622 158.952 201.144 160.287 202.714 161.57Z"
    fill="#918796" />
  <path
    d="M150.092 115.13L156.326 150.637L160.209 172.754L172.726 172.644L173.908 172.634C179.306 171.572 181.217 156.67 178.179 139.377C178.113 138.987 178.038 138.588 177.963 138.2C174.834 121.496 168.182 108.966 162.91 110.01L161.804 110.451L150.092 115.13Z"
    fill="#F2F2F2" />
  <path
    d="M160.208 172.758L156.325 150.641L165.756 137.845C165.756 137.845 168.585 145.33 171.884 145.33C172.159 145.33 172.436 145.28 172.715 145.166C176.157 143.793 177.019 136.189 177.019 136.189L177.963 138.201C178.037 138.59 178.112 138.989 178.178 139.38C179.157 144.951 179.623 150.275 179.622 154.969C179.622 156.221 179.589 157.429 179.524 158.585C179.307 162.431 178.733 165.693 177.836 168.112C177.054 170.225 176.025 171.691 174.774 172.331C174.496 172.472 174.207 172.575 173.908 172.634L172.725 172.646L172.441 172.648L166.668 172.701H166.603L166.46 172.703L161.359 172.749L160.208 172.758Z"
    fill="#E6E6E6" />
  <path
    d="M152.846 116.665L162.262 170.293L173.586 170.189C176.074 169.274 178.99 158.158 175.767 139.802C173.231 125.362 168.281 115.324 164.701 112.87C164.428 112.683 163.94 112.396 163.533 112.393L152.846 116.665ZM160.209 175.207C159.021 175.207 158.004 174.353 157.798 173.182L147.68 115.553C147.479 114.411 148.106 113.286 149.183 112.856L162 107.732C162.14 107.676 162.286 107.631 162.435 107.602C163.582 107.375 165.385 107.402 167.469 108.832C172.877 112.538 178.027 124.36 180.589 138.956C183.528 155.692 182.34 173.46 174.383 175.037C174.234 175.067 174.082 175.082 173.929 175.084L160.231 175.207H160.209Z"
    fill="#07162C" />
  <path
    d="M145.522 141.57L145.532 141.589C145.7 142.952 145.911 144.328 146.158 145.734C148.95 161.641 155.239 173.75 160.209 172.755C165.03 171.802 166.84 158.842 164.369 143.493C164.3 143.056 164.222 142.608 164.144 142.163C161.352 126.256 155.055 114.149 150.092 115.131C145.564 116.031 143.704 127.489 145.522 141.57Z"
    fill="#F2F2F2" />
  <path
    d="M145.531 141.584C145.699 142.946 145.911 144.324 146.157 145.731C148.95 161.636 155.239 173.744 160.209 172.752C165.03 171.797 166.84 158.838 164.369 143.489C162.886 149.373 159.553 159.831 154.919 157.49C152.214 156.114 148.373 148.222 145.531 141.584Z"
    fill="#CCCCCC" />
  <path
    d="M148.566 145.306C150.89 158.538 155.407 167.724 158.667 169.959C159.106 170.26 159.495 170.408 159.731 170.357C161.718 169.964 164.794 160.04 161.729 142.587C159.406 129.352 154.89 120.167 151.629 117.934C151.19 117.633 150.801 117.487 150.565 117.536C148.578 117.929 145.503 127.853 148.566 145.306ZM159.643 175.262C158.623 175.262 157.329 174.978 155.9 173.996C150.882 170.561 146.11 159.629 143.743 146.151C141.107 131.14 141.82 114.275 149.613 112.73C150.705 112.514 152.422 112.541 154.396 113.894C159.414 117.331 164.186 128.261 166.552 141.739C169.189 156.753 168.476 173.615 160.683 175.16C160.381 175.221 160.032 175.262 159.643 175.262Z"
    fill="#07162C" />
  <path
    d="M123.542 191.613C123.445 174.514 126.082 162.234 132.393 150.316C139.405 137.073 163.677 128.923 168.59 137.227C172.01 143.006 165.761 146.541 163.685 147.522C163.354 147.676 163.233 148.078 163.423 148.39C164.675 150.437 168.637 157.54 168.736 165.618C168.831 173.286 166.939 180.254 157.546 183.409"
    fill="#F2F2F2" />
  <path
    d="M121.093 191.629C120.983 178.9 122.55 165.809 127.854 154.065C128.828 151.926 129.765 149.923 130.978 147.87C134.376 142.494 139.593 138.504 145.175 135.653C150.845 132.872 157.182 130.773 163.621 131.651C168.711 132.272 172.897 136.719 171.856 142.119C171.077 145.704 168.007 148.084 165.037 149.585L164.751 149.727C165.402 149.451 165.945 148.515 165.751 147.724C165.733 147.523 165.589 147.24 165.526 147.129L165.546 147.161L165.701 147.416C170.757 155.796 173.279 166.574 169.205 175.889C167.808 178.89 165.315 181.495 162.369 182.939C160.942 183.703 159.433 184.178 157.936 184.57C157.28 184.739 156.61 184.348 156.439 183.692C156.282 183.089 156.602 182.48 157.156 182.248C160.937 180.531 163.929 178.04 165.273 174.232C167.733 166.073 165.565 156.971 161.357 149.713C160.306 148.114 161.096 145.868 162.865 145.196C164.908 144.13 167.526 142.385 167.069 139.922C166.601 137.85 165.038 136.81 162.831 136.485C153.969 135.561 143.566 140.914 137.533 147.303C135.174 149.826 133.746 152.931 132.33 156.048C129.734 161.881 128.027 168.071 127.078 174.411C126.244 180.063 125.967 185.824 125.99 191.608C125.926 194.813 121.205 194.889 121.093 191.629Z"
    fill="#07162C" />
  <path d="M169.594 191.612C169.594 191.612 172.283 201.762 172.283 207.703L169.594 191.612Z" fill="#F2F2F2" />
  <path
    d="M171.96 190.986C172.699 195.136 173.272 199.237 173.503 203.443C173.57 204.846 173.601 206.26 173.507 207.705C173.463 208.38 172.879 208.892 172.203 208.849C171.58 208.808 171.097 208.308 171.058 207.705C170.51 202.504 168.87 197.221 167.225 192.236C166.222 188.901 171.183 187.584 171.96 190.986Z"
    fill="#07162C" />
  <path
    d="M301.241 203.811C300.697 207.192 297.162 210.275 293.825 210.275C293.044 210.275 291.964 210.104 291.271 209.286C290.69 208.603 290.476 207.567 290.674 206.365C291.218 202.983 294.753 199.909 298.086 199.909C298.869 199.909 299.949 200.08 300.643 200.892C301.219 201.575 301.435 202.61 301.241 203.811ZM298.086 191.899C290.801 191.899 283.938 197.805 282.763 205.089C281.584 212.379 286.539 218.285 293.825 218.285C301.113 218.285 307.975 212.379 309.152 205.089C310.325 197.805 305.376 191.899 298.086 191.899Z"
    fill="#E6E6E6" />
  <path
    d="M306.72 201.238C304.849 197.968 301.322 195.844 296.949 195.844C294.177 195.844 291.462 196.701 289.101 198.166C291.516 195.826 294.75 194.346 298.086 194.346C300.85 194.346 303.261 195.393 304.876 197.289C305.83 198.407 306.45 199.756 306.72 201.238Z"
    fill="#F5F4F4" />
  <path
    d="M298.086 202.359C295.963 202.359 293.44 204.578 293.091 206.757C292.991 207.354 293.101 207.655 293.138 207.704C293.166 207.728 293.375 207.827 293.825 207.827C295.949 207.827 298.47 205.608 298.824 203.427C298.92 202.824 298.807 202.517 298.771 202.47C298.754 202.46 298.54 202.359 298.086 202.359ZM293.825 212.725C291.989 212.725 290.419 212.067 289.405 210.873C288.348 209.632 287.941 207.892 288.256 205.97C288.987 201.439 293.58 197.461 298.086 197.461C299.92 197.461 301.49 198.115 302.504 199.299C303.559 200.55 303.966 202.286 303.661 204.2L303.659 204.202C302.927 208.744 298.331 212.725 293.825 212.725ZM298.086 194.347C291.96 194.347 286.17 199.342 285.181 205.481C284.721 208.317 285.379 210.949 287.033 212.895C288.65 214.792 291.061 215.837 293.825 215.837C299.954 215.837 305.744 210.842 306.734 204.7C307.19 201.865 306.532 199.233 304.876 197.289C303.26 195.392 300.85 194.347 298.086 194.347ZM293.825 220.734C289.601 220.734 285.866 219.076 283.304 216.068C280.705 213.013 279.654 208.976 280.347 204.698C281.703 196.293 289.662 189.45 298.086 189.45C302.308 189.45 306.045 191.106 308.605 194.114C311.207 197.168 312.258 201.204 311.569 205.481C310.212 213.891 302.254 220.734 293.825 220.734Z"
    fill="#07162C" />
  <path d="M327.358 205.093L313.266 248.067L300.651 286.562H231.43L239.24 262.733L258.135 205.093H327.358Z"
    fill="#2BB572" />
  <path
    d="M313.265 248.069L300.65 286.562H231.429L239.239 262.734C239.239 262.734 245.298 276.647 264.812 279.224C275.414 280.619 284.994 272.816 285.82 262.153C286.194 257.378 287.7 252.053 291.501 247.095C297.057 239.862 306.484 243.712 313.265 248.069Z"
    fill="#1D7C4E" />
  <path
    d="M234.812 284.11H298.879L323.978 207.539H259.911L234.812 284.11ZM300.652 289.008H231.433C230.646 289.008 229.909 288.631 229.449 287.995C228.99 287.36 228.862 286.542 229.106 285.795L255.809 204.329C256.14 203.323 257.078 202.642 258.136 202.642H327.357C328.142 202.642 328.879 203.017 329.339 203.653C329.8 204.289 329.928 205.107 329.684 205.852L302.981 287.321C302.65 288.327 301.712 289.008 300.652 289.008Z"
    fill="#07162C" />
  <path d="M312.893 215.875H271.711L275.076 205.092H316.26L312.893 215.875Z" fill="#E6E6E6" />
  <path d="M312.895 215.871L314.27 211.465H314.272L312.895 215.871Z" fill="#FAE7C5" />
  <path
    d="M312.894 215.871H271.713L275.08 205.094H279.601L278.836 207.545C278.23 209.488 279.683 211.465 281.72 211.465H314.27L312.894 215.871Z"
    fill="#F5F4F4" />
  <path
    d="M275.039 213.425H311.093L312.93 207.538H276.878L275.039 213.425ZM312.893 218.32H271.711C270.932 218.32 270.2 217.951 269.737 217.324C269.277 216.697 269.142 215.887 269.375 215.144L272.739 204.36C273.06 203.337 274.006 202.641 275.077 202.641H316.259C317.038 202.641 317.771 203.011 318.231 203.639C318.694 204.266 318.828 205.075 318.597 205.818L315.229 216.603C314.912 217.624 313.964 218.32 312.893 218.32Z"
    fill="#07162C" />
  <path
    d="M323.403 248.167C322.43 254.118 321.366 259.082 320.197 263.146C320.197 263.146 320.197 263.153 320.19 263.17C317.13 273.863 313.389 278.38 308.915 278.375C286.812 278.352 286.432 259.23 292.389 248.32C298.908 236.38 315.6 240.994 315.6 240.994L318.593 231.856C318.593 231.856 325.425 235.81 323.403 248.167Z"
    fill="#F2F2F2" />
  <path
    d="M308.924 278.379C308.92 278.379 308.918 278.379 308.915 278.379C307.88 278.377 306.894 278.335 305.952 278.253C304.169 278.099 302.547 277.801 301.084 277.384C292.333 274.891 289.11 268.066 289.113 260.987C289.117 256.528 290.4 251.969 292.388 248.326C292.388 248.326 288.996 265.555 301.962 269.639C304.362 270.395 306.474 270.707 308.324 270.707C317.122 270.707 320.018 263.614 320.19 263.174C317.131 273.86 313.393 278.379 308.924 278.379Z"
    fill="#E6E6E6" />
  <path
    d="M308.243 242.537C303.571 242.537 297.648 243.807 294.537 249.503C291.631 254.821 290.093 263.222 293.576 269.1C296.257 273.625 301.419 275.923 308.921 275.933H308.923C312.326 275.933 317.181 271.046 320.987 247.78C321.9 242.207 320.837 238.671 319.627 236.569L317.925 241.762C317.518 243.005 316.202 243.709 314.946 243.359C314.684 243.287 311.833 242.537 308.243 242.537ZM308.925 280.828H308.915C297.271 280.815 291.856 275.801 289.364 271.597C284.88 264.031 286.574 253.87 290.241 247.155C296.132 236.369 308.75 237.255 313.957 238.148L316.268 231.098C316.496 230.396 317.03 229.837 317.721 229.572C318.408 229.31 319.179 229.37 319.818 229.74C320.157 229.937 328.088 234.701 325.82 248.571C322.17 270.878 316.959 280.828 308.925 280.828Z"
    fill="#07162C" />
  <path
    d="M149.258 238.633C148.502 238.633 147.794 238.164 147.527 237.41C147.188 236.452 147.688 235.404 148.644 235.067C170.677 227.25 168.492 194.959 168.468 194.632C168.391 193.622 169.149 192.74 170.159 192.663C171.173 192.585 172.052 193.343 172.13 194.353C172.241 195.795 174.562 229.77 149.871 238.526C149.669 238.598 149.461 238.633 149.258 238.633Z"
    fill="#07162C" />
</svg>