<svg width="100%" height="100%" viewBox="0 0 24 25" fill="none" xmlns="http://www.w3.org/2000/svg">
<path d="M8 2.5V5.5" stroke="#437DFA" stroke-width="1.5" stroke-miterlimit="10" stroke-linecap="round" stroke-linejoin="round"/>
<path d="M16 2.5V5.5" stroke="#437DFA" stroke-width="1.5" stroke-miterlimit="10" stroke-linecap="round" stroke-linejoin="round"/>
<path d="M16 4C19.33 4.18 21 5.45 21 10.15V16.33C21 20.45 20 22.51 15 22.51H9C4 22.51 3 20.45 3 16.33V10.15C3 5.45 4.67 4.19 8 4H16Z" stroke="#437DFA" stroke-width="1.5" stroke-miterlimit="10" stroke-linecap="round" stroke-linejoin="round"/>
<path d="M20.75 18.1016H3.25" stroke="#437DFA" stroke-width="1.5" stroke-miterlimit="10" stroke-linecap="round" stroke-linejoin="round"/>
<path stroke-width="0" d="M12 8.75C10.77 8.75 9.73 9.42 9.73 10.72C9.73 11.34 10.02 11.81 10.46 12.11C9.85 12.47 9.5 13.05 9.5 13.73C9.5 14.97 10.45 15.74 12 15.74C13.54 15.74 14.5 14.97 14.5 13.73C14.5 13.05 14.15 12.46 13.53 12.11C13.98 11.8 14.26 11.34 14.26 10.72C14.26 9.42 13.23 8.75 12 8.75ZM12 11.59C11.48 11.59 11.1 11.28 11.1 10.79C11.1 10.29 11.48 10 12 10C12.52 10 12.9 10.29 12.9 10.79C12.9 11.28 12.52 11.59 12 11.59ZM12 14.5C11.34 14.5 10.86 14.17 10.86 13.57C10.86 12.97 11.34 12.65 12 12.65C12.66 12.65 13.14 12.98 13.14 13.57C13.14 14.17 12.66 14.5 12 14.5Z" fill="#437DFA"/>
</svg>
