<svg width="202" height="168" viewBox="0 0 202 168" fill="none" xmlns="http://www.w3.org/2000/svg">
<g clip-path="url(#clip0_17274_156612)">
<path d="M94.9471 177.005C146.63 177.005 188.527 168.623 188.527 158.284C188.527 147.944 146.63 139.562 94.9471 139.562C43.2644 139.562 1.36719 147.944 1.36719 158.284C1.36719 168.623 43.2644 177.005 94.9471 177.005Z" fill="#EFF6FE"/>
<path d="M164.887 92.7816C165.639 90.8817 166.507 89.0336 167.484 87.2419C167.7 86.8468 168.273 87.2419 168.057 87.6322C164.685 93.8067 162.695 100.71 162.23 107.727C162.098 109.725 162.089 111.738 162.206 113.737C162.234 114.179 161.554 114.315 161.525 113.868C161.107 106.701 162.253 99.4687 164.887 92.7816Z" fill="#437DFA"/>
<path d="M163.379 98.7346C168.511 99.3836 174.864 97.7282 177.578 92.9315C178.259 91.723 178.639 90.3639 178.644 88.9766C178.644 88.5299 179.339 88.5863 179.334 89.0284C179.311 94.8596 173.667 98.4619 168.488 99.3318C166.783 99.6187 165.041 99.6469 163.327 99.4306C162.881 99.3742 162.933 98.6782 163.379 98.7346Z" fill="#437DFA"/>
<path d="M159.154 82.1776C159.337 81.7732 159.994 81.9989 159.806 82.408C158.787 84.6371 159.046 87.1436 159.966 89.3585C160.792 91.3477 162.178 93.5156 164.483 93.873C164.92 93.9389 164.873 94.6349 164.431 94.5643C161.924 94.1787 160.351 92.0108 159.412 89.8194C158.379 87.4069 158.036 84.6277 159.154 82.1776Z" fill="#437DFA"/>
<path d="M158.918 85.3439C161.604 86.0352 164.421 84.9065 165.914 82.5787C166.158 82.2025 166.731 82.5928 166.487 82.9691C164.815 85.5696 161.665 86.7688 158.683 85.9975C158.256 85.8847 158.491 85.231 158.918 85.3439Z" fill="#437DFA"/>
<path d="M171.283 86.3407C171.391 85.908 172.044 86.1385 171.936 86.5711C171.508 88.3346 171.654 90.225 172.354 91.8992C172.959 93.3429 174.063 95.0076 175.739 95.2475C176.18 95.3086 176.129 96.0046 175.687 95.9387C173.8 95.666 172.513 93.9872 171.79 92.3412C170.959 90.4555 170.795 88.344 171.283 86.3407Z" fill="#437DFA"/>
<path d="M173.336 97.3808C175.172 98.5094 177.403 98.3119 179.384 97.71C181.366 97.1127 183.474 96.1863 184.507 94.277C184.718 93.882 185.291 94.277 185.08 94.6673C183.962 96.7412 181.661 97.7382 179.516 98.3918C177.351 99.0502 174.942 99.1772 172.947 97.9545C172.566 97.7241 172.956 97.1456 173.336 97.3808Z" fill="#437DFA"/>
<path d="M182.875 93.7955C183.096 94.9241 184.185 95.6624 185.317 95.4461C186.444 95.2251 187.181 94.1341 186.965 93.0008C186.744 91.8721 185.655 91.1338 184.523 91.3501C183.391 91.5712 182.654 92.6669 182.875 93.7955Z" fill="#437DFA"/>
<path d="M176.494 88.4517C176.715 89.5804 177.804 90.3187 178.936 90.1024C180.063 89.8813 180.8 88.7903 180.584 87.657C180.363 86.5284 179.274 85.7901 178.142 86.0064C177.011 86.2227 176.273 87.3231 176.494 88.4517Z" fill="#437DFA"/>
<path d="M170.661 86.276C170.881 87.4046 171.971 88.1429 173.102 87.9266C174.229 87.7056 174.966 86.6145 174.751 85.4812C174.53 84.3526 173.44 83.6143 172.309 83.8306C171.177 84.0516 170.445 85.1473 170.661 86.276Z" fill="#437DFA"/>
<path d="M166.061 87.8111C166.282 88.9397 167.371 89.6781 168.503 89.4617C169.63 89.2407 170.367 88.1497 170.151 87.0164C169.93 85.8877 168.841 85.1494 167.709 85.3658C166.578 85.5868 165.845 86.6778 166.061 87.8111Z" fill="#437DFA"/>
<path d="M165.037 82.5142C165.258 83.6429 166.347 84.3812 167.479 84.1649C168.606 83.9438 169.343 82.8528 169.127 81.7195C168.906 80.5909 167.817 79.8526 166.685 80.0689C165.554 80.2899 164.816 81.3856 165.037 82.5142Z" fill="#437DFA"/>
<path d="M157.877 81.9088C158.098 83.0374 159.187 83.7757 160.319 83.5594C161.445 83.3384 162.183 82.2474 161.967 81.114C161.746 79.9854 160.657 79.2471 159.525 79.4634C158.393 79.6844 157.656 80.7801 157.877 81.9088Z" fill="#437DFA"/>
<path d="M183.789 113.543C183.051 115.001 182.126 116.383 181.131 117.672C175.06 125.525 166.059 131.366 161.476 140.179L150.033 137.456C151.888 126.188 156.447 115.372 163.302 106.254C165.552 103.268 168.125 100.385 171.482 98.7577C174.431 97.3281 178.102 97.0554 180.957 98.5555C181.112 98.6355 181.263 98.7248 181.417 98.8141C181.652 98.9552 181.882 99.1198 182.103 99.2844C184.803 101.372 185.873 105.102 185.427 108.487C185.193 110.265 184.601 111.953 183.789 113.543Z" fill="#437DFA"/>
<path d="M181.417 98.8219C178.844 100.538 176.605 102.72 174.614 105.091C172.463 107.653 170.571 110.433 168.782 113.254C166.885 116.241 165.138 119.321 163.537 122.471C160.828 127.8 158.551 133.349 156.729 139.053L156.273 138.945C157.147 136.189 158.138 133.466 159.222 130.79C161.927 124.136 165.275 117.741 169.205 111.726C172.421 106.807 176.051 101.893 180.953 98.5586C181.112 98.6432 181.263 98.7326 181.417 98.8219Z" fill="#437DFA"/>
<path d="M185.65 132.038C185.58 134.812 183.917 137.361 181.762 139.11C179.607 140.86 176.992 141.927 174.395 142.905C171.798 143.879 169.146 144.801 166.821 146.315C163.577 148.426 161.206 151.558 160.018 155.25H150.002C150.002 155.231 149.998 155.208 149.998 155.189C149.444 149.325 151.317 142.92 154.111 137.742C156.914 132.541 161.299 128.21 166.526 125.468C167.507 124.951 168.53 124.49 169.578 124.114C171.089 123.568 172.662 123.197 174.264 123.084C176.973 122.896 179.79 123.502 181.997 125.092C183.063 125.858 183.964 126.869 184.603 128.017C184.687 128.163 184.763 128.309 184.833 128.459C185.382 129.569 185.678 130.796 185.65 132.038Z" fill="#437DFA"/>
<path d="M184.832 128.462C182.526 128.758 180.249 129.28 178.042 130.023C172.272 131.956 167.041 135.37 162.979 139.908C159.082 144.262 156.279 149.572 154.894 155.252H154.41C155.19 152.003 156.429 148.866 158.068 145.96C161.031 140.712 165.294 136.235 170.422 133.075C174.727 130.418 179.592 128.687 184.602 128.02C184.686 128.165 184.761 128.311 184.832 128.462Z" fill="#437DFA"/>
<path d="M21.4853 107.404C20.302 105.782 19.0155 104.239 17.6397 102.777C17.3392 102.457 16.8884 102.97 17.1889 103.289C21.9219 108.331 25.528 114.407 27.7114 120.971C28.3312 122.843 28.8383 124.752 29.2233 126.685C29.3079 127.108 29.9887 127.071 29.9042 126.643C28.5284 119.716 25.6501 113.113 21.4853 107.404Z" fill="#437DFA"/>
<path d="M24.3925 112.694C19.6689 114.589 13.208 114.589 9.44225 110.695C8.49377 109.712 7.79885 108.518 7.45139 107.196C7.3387 106.773 6.69542 106.994 6.80811 107.417C8.27309 112.962 14.5415 114.989 19.683 114.528C21.378 114.377 23.0402 113.973 24.6226 113.338C25.017 113.178 24.801 112.529 24.3925 112.694Z" fill="#437DFA"/>
<path d="M24.3165 95.8788C24.0395 95.5402 23.4713 95.9164 23.7484 96.2597C25.2697 98.1267 25.6406 100.581 25.3166 102.914C25.0255 105.011 24.2414 107.419 22.1378 108.331C21.7387 108.505 21.9547 109.154 22.3585 108.976C24.6499 107.983 25.6124 105.529 25.9599 103.215C26.3496 100.661 25.9834 97.9292 24.3165 95.8788Z" fill="#437DFA"/>
<path d="M25.3204 98.8381C22.9351 100.164 19.9723 99.788 17.9767 97.9446C17.6527 97.6483 17.202 98.1609 17.5259 98.4572C19.761 100.517 23.0525 100.879 25.7007 99.4024C26.0857 99.1955 25.7054 98.6265 25.3204 98.8381Z" fill="#437DFA"/>
<path d="M13.8008 102.856C13.5942 102.47 13.026 102.851 13.2326 103.237C14.0778 104.808 14.4065 106.646 14.1576 108.415C13.9416 109.938 13.303 111.796 11.7629 112.445C11.3591 112.614 11.5798 113.263 11.9836 113.089C13.7115 112.36 14.5192 110.446 14.8009 108.697C15.1249 106.693 14.7586 104.643 13.8008 102.856Z" fill="#437DFA"/>
<path d="M14.5805 113.881C13.1108 115.41 10.9415 115.777 8.90839 115.697C6.87527 115.617 4.63554 115.264 3.18465 113.703C2.88415 113.383 2.43808 113.895 2.73389 114.215C4.31156 115.908 6.74849 116.294 8.95065 116.378C11.1716 116.468 13.5005 115.993 15.0923 114.333C15.3975 114.013 14.8857 113.562 14.5805 113.881Z" fill="#437DFA"/>
<path d="M4.61252 112.833C4.68295 113.962 3.82838 114.935 2.69678 115.005C1.56988 115.076 0.597928 114.22 0.527496 113.087C0.457065 111.958 1.31163 110.985 2.44323 110.914C3.57014 110.844 4.54209 111.704 4.61252 112.833Z" fill="#437DFA"/>
<path d="M9.36448 106.165C9.43491 107.294 8.58034 108.267 7.44874 108.338C6.32184 108.408 5.34988 107.552 5.27945 106.419C5.20902 105.29 6.06359 104.317 7.19519 104.246C8.32209 104.176 9.29404 105.032 9.36448 106.165Z" fill="#437DFA"/>
<path d="M14.3781 102.641C14.4486 103.77 13.594 104.744 12.4624 104.814C11.3355 104.885 10.3636 104.029 10.2931 102.895C10.2227 101.767 11.0773 100.793 12.2089 100.723C13.3358 100.652 14.3077 101.513 14.3781 102.641Z" fill="#437DFA"/>
<path d="M19.1321 102.957C19.2025 104.086 18.3479 105.059 17.2163 105.13C16.0894 105.201 15.1175 104.345 15.047 103.211C14.9766 102.078 15.8312 101.109 16.9628 101.039C18.0897 100.973 19.0616 101.829 19.1321 102.957Z" fill="#437DFA"/>
<path d="M18.8039 97.6688C18.8744 98.7974 18.0198 99.7709 16.8882 99.8414C15.7613 99.912 14.7893 99.0561 14.7189 97.9228C14.6485 96.7941 15.503 95.8207 16.6346 95.7501C17.7568 95.6796 18.7335 96.5402 18.8039 97.6688Z" fill="#437DFA"/>
<path d="M25.4621 95.3133C25.5326 96.442 24.678 97.4154 23.5464 97.486C22.4195 97.5565 21.4475 96.7006 21.3771 95.5673C21.3067 94.4387 22.1612 93.4652 23.2928 93.3947C24.4197 93.3241 25.3917 94.1847 25.4621 95.3133Z" fill="#437DFA"/>
<path d="M44.29 138.527L29.0345 136.237C26.6117 129.268 25.1326 121.974 24.7992 114.675C24.4142 106.187 25.5881 97.6894 28.6448 89.6714C29.0862 88.5145 29.6825 87.2495 30.8517 86.8592C31.0019 86.8122 31.1522 86.7746 31.3118 86.7605C31.4714 86.7369 31.6358 86.737 31.7954 86.7558C32.3354 86.7981 32.866 87.0097 33.3214 87.3201C34.0399 87.8091 34.5845 88.5145 35.0963 89.2152C40.1486 96.1516 43.2194 104.424 44.5952 112.898C45.9756 121.372 45.5343 130.029 44.29 138.527Z" fill="#437DFA"/>
<path d="M34.5058 137.055C34.9049 134.539 35.2195 132.009 35.4495 129.47C35.7876 125.736 35.9426 121.978 35.9144 118.226C35.8862 114.482 35.6749 110.749 35.2899 107.029C34.9002 103.314 34.3367 99.6081 33.5902 95.9494C32.961 92.8598 32.205 89.789 31.3223 86.7605C31.4819 86.7369 31.6463 86.737 31.8059 86.7558C32.8013 90.184 33.6371 93.6498 34.3086 97.1533C35.0129 100.84 35.5435 104.56 35.8909 108.303C36.2384 112.061 36.4074 115.837 36.3839 119.608C36.3699 123.352 36.1726 127.095 35.7923 130.819C35.581 132.926 35.3087 135.033 34.9753 137.126L34.5058 137.055Z" fill="#437DFA"/>
<path d="M42.2179 144.843L28.3898 146.983C20.8396 139.421 15.191 129.405 14.2049 118.758C14.1345 117.996 14.0875 117.215 14.2707 116.472C14.4162 115.885 14.7355 115.311 15.2191 114.949C15.3412 114.855 15.4727 114.775 15.6136 114.718C15.6182 114.718 15.6182 114.718 15.6229 114.718C16.8062 114.201 18.1303 114.977 19.168 115.744C23.1967 118.72 26.8685 122.078 30.1412 125.774C35.1419 131.408 39.2128 137.813 42.2179 144.843Z" fill="#437DFA"/>
<path d="M34.5741 146.028L34.0999 146.103C33.3768 144.382 32.6161 142.68 31.8179 140.987C29.4983 136.087 26.8548 131.337 23.9108 126.79C21.2532 122.675 18.3467 118.72 15.2148 114.953C15.3369 114.859 15.4684 114.779 15.6093 114.723C15.614 114.723 15.614 114.723 15.6187 114.723C17.2339 116.651 18.7787 118.635 20.2671 120.667C23.46 125.031 26.3665 129.606 28.9584 134.347C31.0384 138.137 32.9119 142.04 34.5741 146.028Z" fill="#437DFA"/>
<path d="M172.738 40.3656C173.391 35.6629 175.743 31.2848 178.969 27.8048C182.194 24.3249 186.359 21.3669 190.674 19.4012C184.66 14.4917 180.185 7.33425 178.109 -0.152344C171.531 1.3525 165.357 4.5738 160.356 9.11184C155.355 13.6499 151.547 19.4906 149.406 25.8955C151.674 30.1044 154.933 33.7395 159.008 36.2319C163.084 38.729 167.963 40.2621 172.738 40.3656Z" fill="#C5D9FC"/>
<path d="M180.089 20.96C174.581 17.5647 170.008 12.7821 166.853 7.12482C166.557 6.59812 165.745 7.06838 166.04 7.59978C169.271 13.3934 173.971 18.2936 179.615 21.7688C180.131 22.0886 180.601 21.275 180.089 20.96Z" fill="#2C5BF1"/>
<path d="M176.694 24.5746C171.087 20.9818 166.406 16.0488 163.101 10.2645C162.8 9.73782 161.988 10.2128 162.288 10.7395C165.674 16.6648 170.477 21.706 176.22 25.3835C176.731 25.7127 177.201 24.8991 176.694 24.5746Z" fill="#2C5BF1"/>
<path d="M173.425 28.7829C167.556 24.9973 162.565 19.9326 158.86 14.0025C158.541 13.4899 157.728 13.9602 158.048 14.4775C161.837 20.5439 166.945 25.7215 172.951 29.5918C173.463 29.921 173.932 29.1074 173.425 28.7829Z" fill="#2C5BF1"/>
<path d="M170.025 33.053C163.902 29.9352 158.709 25.162 155.098 19.3072C154.783 18.7946 153.966 19.2649 154.286 19.7822C157.976 25.7686 163.287 30.6782 169.546 33.8666C170.09 34.1393 170.565 33.3305 170.025 33.053Z" fill="#2C5BF1"/>
<path d="M177.175 12.8176C175.09 10.6261 173.409 8.08672 172.188 5.31687C171.944 4.76196 171.136 5.24163 171.376 5.79184C172.625 8.63223 174.372 11.2375 176.508 13.4853C176.926 13.9227 177.588 13.2549 177.175 12.8176Z" fill="#2C5BF1"/>
<path d="M13.5501 82.5745C16.0152 79.8893 19.3395 78.0035 22.9081 77.2699C26.4766 76.5363 30.0217 76.9877 33.346 78.4832C36.1915 67.0793 34.0503 54.3869 27.7115 44.4925C18.3019 43.1993 8.3898 46.1761 1.24805 52.4494C4.68041 55.1722 7.01404 58.5863 8.69031 62.6353C11.423 69.2566 13.0383 75.4312 13.5501 82.5745Z" fill="#C5D9FC"/>
<path d="M29.6214 53.143C22.8083 52.9032 15.9811 53.9472 9.55309 56.2232C8.94269 56.4396 9.16807 57.4318 9.78786 57.2155C16.1361 54.9629 22.8599 53.9237 29.5932 54.1635C30.2459 54.187 30.274 53.1665 29.6214 53.143Z" fill="#2C5BF1"/>
<path d="M29.9831 58.2527C23.7476 57.2981 17.5684 58.9581 11.6005 60.6088C10.9713 60.7828 11.2014 61.775 11.8353 61.601C17.728 59.9739 23.7992 58.3327 29.9549 59.2732C30.5982 59.3673 30.6217 58.3468 29.9831 58.2527Z" fill="#2C5BF1"/>
<path d="M30.9988 63.2868C25.0216 62.9294 19.0114 63.7194 13.3299 65.6099C12.7148 65.8168 12.9402 66.8091 13.5647 66.6022C19.1711 64.7352 25.0779 63.9546 30.9707 64.3026C31.6233 64.3449 31.6515 63.3291 30.9988 63.2868Z" fill="#2C5BF1"/>
<path d="M30.2865 68.297C25.1215 68.3911 19.98 69.1388 15.0028 70.5308C14.3736 70.7048 14.6037 71.697 15.2376 71.523C20.1302 70.1499 25.1778 69.4068 30.2583 69.3128C30.9063 69.3034 30.9391 68.2829 30.2865 68.297Z" fill="#2C5BF1"/>
<path d="M20.56 49.559C16.2495 50.2691 11.9908 51.2661 7.81186 52.5499C7.19206 52.7427 7.41744 53.7349 8.04663 53.5421C12.2256 52.2583 16.4843 51.2567 20.7947 50.5513C21.438 50.4431 21.2032 49.4508 20.56 49.559Z" fill="#2C5BF1"/>
<path d="M36.9564 20.1059C33.341 18.1073 28.9836 17.5571 25.0488 18.808C25.6733 11.4719 30.4392 4.62957 37.102 1.51172C41.5251 2.32527 45.5162 5.12334 47.7184 9.05474C45.1969 9.73663 43.1215 11.4672 41.4781 13.4987C39.8347 15.535 38.1397 17.7734 36.9564 20.1059Z" fill="#C5D9FC"/>
<path d="M199.712 81.2716C198.214 84.4506 195.523 86.9665 192.457 88.6783C189.391 90.39 185.912 91.1378 182.451 91.7491C182.019 88.0199 180.334 84.2578 177.605 81.6808C180.733 81.4833 183.775 80.19 186.085 78.0739C188.396 75.9577 189.954 73.0326 190.429 69.9336C194.969 71.951 198.524 76.4467 199.712 81.2716Z" fill="#C5D9FC"/>
<path d="M134.718 163.361C134.718 163.361 131.596 162.548 124.773 163.361L134.718 63.4678L149.687 62.3203L146.579 155.512L134.718 163.361Z" fill="#437DFA"/>
<path d="M159.73 155.048C159.73 155.048 158.077 156.045 154.697 157.48C153.936 157.804 153.091 158.152 152.156 158.51C151.231 158.872 150.217 159.243 149.118 159.624C148.64 159.793 148.142 159.963 147.625 160.137C146.137 160.626 144.508 161.134 142.737 161.637C139.831 162.46 137.131 163.005 134.713 163.353C134.713 163.353 145.573 117.738 141.963 68.5952L151.368 62.3125L156.866 62.6041C156.871 62.6041 165.487 111.958 159.73 155.048Z" fill="#2C5BF1"/>
<path d="M130.681 166.682C72.9459 172.894 28.1797 146.818 28.1797 146.818C33.124 141.255 37.27 135.222 40.7353 129C59.1883 95.9217 58.6155 57.6094 58.6155 57.6094L117.891 63.3889L141.621 65.7026C144.204 122.877 130.681 166.682 130.681 166.682Z" fill="#C5D9FC"/>
<path d="M115.697 123.707C115.697 123.744 115.697 123.787 115.697 123.824C115.707 124.44 115.627 125.113 115.186 125.583C114.669 126.133 113.721 126.19 113.143 125.71C112.594 125.249 112.444 124.436 112.603 123.735C112.772 123.006 113.209 122.385 113.636 121.783C113.852 121.478 114.082 121.172 114.261 120.843C114.449 120.495 114.486 120.039 114.481 119.648C114.481 119.766 114.641 119.902 114.697 120.001C114.787 120.147 114.866 120.297 114.937 120.448C115.43 121.454 115.669 122.592 115.697 123.707Z" fill="#C5D9FC"/>
<path d="M118.548 126.86C118.557 126.893 118.562 126.921 118.571 126.954C118.679 127.448 118.726 127.998 118.454 128.445C118.134 128.971 117.379 129.174 116.839 128.882C116.322 128.604 116.069 127.974 116.083 127.391C116.097 126.78 116.346 126.211 116.585 125.661C116.707 125.378 116.843 125.096 116.928 124.805C117.022 124.499 116.975 124.123 116.909 123.812C116.928 123.907 117.078 123.986 117.139 124.057C117.233 124.16 117.322 124.264 117.407 124.377C117.961 125.101 118.341 125.971 118.548 126.86Z" fill="#C5D9FC"/>
<path d="M130.681 166.68C72.9459 172.892 28.1797 146.816 28.1797 146.816C33.124 141.253 37.27 135.219 40.7353 128.998C41.5194 129.788 42.2613 130.663 43.0313 131.551C49.9148 139.513 58.4746 145.528 68.6167 148.547C74.1996 150.211 80.0689 150.926 85.8865 150.522C105.18 149.186 123.107 135.68 129.728 117.481C136.353 99.2772 131.315 77.3865 117.407 63.9275C117.567 63.7441 117.726 63.5607 117.891 63.3867L141.621 65.7004C144.204 122.875 130.681 166.68 130.681 166.68Z" fill="#EFF6FE"/>
<path d="M139.314 45.8532C144.179 44.5788 149.973 42.6319 154.265 40.0078C156.744 47.3204 157.998 55.6864 157.725 63.4034C152.579 65.2421 147.114 66.7611 141.972 68.5998C142.338 61.0474 140.662 53.2927 139.314 45.8532Z" fill="#192452"/>
<path d="M57.0449 38.9368C62.9518 39.2189 70.7556 38.5417 76.4558 36.9805C76.4558 36.9805 125.626 45.0643 154.264 40.009C154.264 40.009 150.916 43.978 139.314 45.8543C139.314 45.8543 114.01 51.5727 90.7581 47.0817C67.5063 42.5907 57.0449 38.9368 57.0449 38.9368Z" fill="#437DFA"/>
<path d="M141.97 68.5978C113.379 71.3065 84.845 68.9176 57.5082 60.1143C58.4238 54.2924 58.1937 43.6927 57.0527 38.9336C83.859 45.2116 111.877 48.0191 139.321 45.8465C141.453 52.7217 142.528 60.8855 141.97 68.5978Z" fill="#437DFA"/>
<path d="M68.1931 55.6175C69.7516 55.6175 71.015 53.9647 71.015 51.9259C71.015 49.8871 69.7516 48.2344 68.1931 48.2344C66.6345 48.2344 65.3711 49.8871 65.3711 51.9259C65.3711 53.9647 66.6345 55.6175 68.1931 55.6175Z" fill="#437DFA"/>
<path d="M83.1403 58.8988C84.6988 58.8988 85.9623 57.246 85.9623 55.2072C85.9623 53.1684 84.6988 51.5156 83.1403 51.5156C81.5818 51.5156 80.3184 53.1684 80.3184 55.2072C80.3184 57.246 81.5818 58.8988 83.1403 58.8988Z" fill="#437DFA"/>
<path d="M102.562 61.2972C104.121 61.2972 105.384 59.6444 105.384 57.6056C105.384 55.5668 104.121 53.9141 102.562 53.9141C101.004 53.9141 99.7402 55.5668 99.7402 57.6056C99.7402 59.6444 101.004 61.2972 102.562 61.2972Z" fill="#437DFA"/>
<path d="M125.017 61.9066C126.576 61.9066 127.839 60.2538 127.839 58.215C127.839 56.1762 126.576 54.5234 125.017 54.5234C123.459 54.5234 122.195 56.1762 122.195 58.215C122.195 60.2538 123.459 61.9066 125.017 61.9066Z" fill="#437DFA"/>
<path d="M154.696 157.492C153.936 157.817 153.091 158.165 152.156 158.522C153.513 154.351 154.354 150.005 154.659 145.637C154.631 149.592 154.711 153.532 154.696 157.492Z" fill="#2C5BF1"/>
<path d="M150.207 153.008C149.972 155.232 149.61 157.442 149.122 159.629C148.643 159.798 148.145 159.968 147.629 160.142C148.624 157.795 149.531 155.486 150.207 153.008Z" fill="#2C5BF1"/>
<path d="M141.86 41.3745C140.64 41.4451 139.405 41.5062 138.156 41.5485C137.705 38.4354 135.55 35.6279 132.568 34.4522C128.54 32.8675 123.816 34.1043 120.853 37.1798C120.261 37.7958 119.759 38.4495 119.332 39.1361C119.51 39.8744 119.628 40.6315 119.679 41.3933C119.21 41.3745 118.74 41.351 118.271 41.3275C117.745 42.7994 117.519 44.3466 117.59 45.875C117.632 46.7873 117.778 47.6949 118.022 48.579C118.961 51.9555 121.365 54.9416 124.976 56.39C127.197 57.2788 126.225 60.914 123.98 60.0158C118.834 57.956 115.43 53.5826 114.279 48.7389C113.688 46.2418 113.693 43.6177 114.373 41.1159C114.599 40.2788 114.899 39.4606 115.275 38.6658C114.679 37.2879 113.744 36.0558 112.566 35.1153C111.894 34.5745 111.143 34.1325 110.326 33.8127C106.668 32.3737 102.433 33.2672 99.4654 35.7549C99.9068 37.1045 100.132 38.5247 100.118 39.9684C98.8738 39.8462 97.6624 39.7192 96.4838 39.5922C96.4603 39.644 96.4416 39.6957 96.4181 39.7427C95.2207 42.3339 95.0423 45.2307 95.7701 47.8877C96.6998 51.2877 99.1086 54.2927 102.738 55.7458C104.959 56.6393 103.982 60.2744 101.738 59.3762C96.3054 57.1989 92.812 52.4492 91.8682 47.281C91.3752 44.5864 91.5771 41.779 92.5584 39.1549C93.1172 37.6736 93.9201 36.2581 94.9907 34.9507C94.2863 33.855 93.352 32.9004 92.2438 32.1903C91.7696 31.8846 91.2672 31.6213 90.7413 31.4144C88.5955 30.5679 86.2572 30.5303 84.0926 31.1369C85.0645 33.3236 85.4214 35.7878 85.0927 38.2285C83.7169 38.0451 82.4773 37.8711 81.3974 37.7206C81.6932 35.9947 81.4162 34.2594 80.7119 32.7217C80.1061 33.1355 79.538 33.6105 79.0262 34.1419C78.1622 35.0354 77.4861 36.0182 76.9696 37.0575C75.8896 39.2301 75.5469 41.6379 75.8709 43.9516C76.4296 47.9629 78.9839 51.678 83.1535 53.3474C85.3744 54.2362 84.3978 57.8714 82.1534 56.9732C76.0822 54.5419 72.4338 48.9081 72.0535 43.0581C71.9408 41.3087 72.1239 39.5452 72.6122 37.8429C73.3917 35.1529 74.9412 32.6135 77.3687 30.5444C77.7256 30.2387 78.0965 29.9612 78.4815 29.6932C78.012 29.2746 77.5049 28.9031 76.9555 28.5928C76.5987 28.3859 76.2277 28.2024 75.838 28.052C71.8093 26.4672 67.0857 27.704 64.1229 30.7795C61.8738 33.112 60.8361 36.0653 60.8502 38.9856C60.8549 39.3665 60.869 39.7521 60.9112 40.133C61.3338 44.3137 63.921 48.2498 68.2502 49.985C70.4711 50.8738 69.4945 54.5137 67.25 53.6108C60.9253 51.0808 57.23 45.0661 57.122 38.9574C57.075 38.9433 57.0469 38.9339 57.0469 38.9339H57.122C57.0469 34.678 58.7185 30.3798 62.4654 27.182C66.9261 23.3728 73.6687 22.3806 78.8525 25.3244C79.2704 25.5596 79.6742 25.8229 80.0545 26.1004C80.7729 26.6271 81.4162 27.2243 81.9937 27.8733C85.8111 26.5001 90.1591 26.6412 93.7558 28.6868C94.2582 28.9737 94.7324 29.2888 95.1785 29.6368C96.1786 30.4033 97.0379 31.3109 97.7469 32.3173C102.189 29.0395 108.457 28.3106 113.345 31.0852C113.918 31.4144 114.463 31.7812 114.965 32.1903C116.012 33.0274 116.904 34.0243 117.618 35.1247C118.097 34.5886 118.623 34.076 119.196 33.5823C123.656 29.7778 130.399 28.7856 135.583 31.7247C139.179 33.7704 141.41 37.4196 141.86 41.3745Z" fill="#2C5BF1"/>
<path d="M81.9913 27.8745C80.3996 28.5469 78.4791 29.6944 78.4791 29.6944C78.0096 29.2758 77.5025 28.9043 76.9531 28.594C77.7326 27.5876 79.2727 26.5765 80.0521 26.1016C80.7705 26.6283 81.4138 27.2255 81.9913 27.8745Z" fill="#DFEAFC"/>
<path d="M97.7491 32.3172C96.8147 32.9521 94.9929 34.9507 94.9929 34.9507C94.2886 33.855 93.3542 32.9003 92.2461 32.1902L95.1807 29.6367C96.1809 30.4032 97.0401 31.3109 97.7491 32.3172Z" fill="#DFEAFC"/>
<path d="M117.617 35.1298C116.607 36.1596 115.274 38.6708 115.274 38.6708C114.677 37.293 113.743 36.0609 112.564 35.1204L114.964 32.1953C116.011 33.0324 116.903 34.0293 117.617 35.1298Z" fill="#DFEAFC"/>
<path d="M98.6256 132.941C97.2639 121.039 81.121 120.366 73.9276 127.218C72.796 128.295 74.5099 130.002 75.6368 128.93C81.1492 123.682 95.09 123.178 96.2075 132.941C96.3859 134.469 98.804 134.488 98.6256 132.941Z" fill="#437DFA"/>
<path d="M91.5314 114.931C93.0527 115.222 93.7007 112.89 92.1747 112.598C91.259 112.419 90.3434 112.302 89.4701 112.706C88.7047 113.059 88.099 113.736 87.8549 114.55C87.2632 116.516 88.7094 118.18 90.6017 118.415C91.2497 118.495 91.8084 117.799 91.8084 117.207C91.8084 116.487 91.2497 116.078 90.6017 115.998C90.2026 115.946 90.0382 115.448 90.2167 115.133C90.4749 114.677 91.1229 114.851 91.5314 114.931Z" fill="#437DFA"/>
<path d="M77.228 116.102C83.5866 116.102 88.7412 109.084 88.7412 100.428C88.7412 91.7713 83.5866 84.7539 77.228 84.7539C70.8695 84.7539 65.7148 91.7713 65.7148 100.428C65.7148 109.084 70.8695 116.102 77.228 116.102Z" fill="#EFF6FE"/>
<path d="M75.2256 108.787C78.8873 108.787 81.8556 104.747 81.8556 99.7626C81.8556 94.7786 78.8873 90.7383 75.2256 90.7383C71.564 90.7383 68.5957 94.7786 68.5957 99.7626C68.5957 104.747 71.564 108.787 75.2256 108.787Z" fill="#437DFA"/>
<path d="M79.0924 107.389C80.4357 107.389 81.5246 105.904 81.5246 104.073C81.5246 102.242 80.4357 100.758 79.0924 100.758C77.7491 100.758 76.6602 102.242 76.6602 104.073C76.6602 105.904 77.7491 107.389 79.0924 107.389Z" fill="#EFF6FE"/>
<path d="M108.105 119.754C114.464 119.754 119.618 112.737 119.618 104.08C119.618 95.4237 114.464 88.4062 108.105 88.4062C101.746 88.4062 96.5918 95.4237 96.5918 104.08C96.5918 112.737 101.746 119.754 108.105 119.754Z" fill="#EFF6FE"/>
<path d="M106.103 112.439C109.764 112.439 112.733 108.399 112.733 103.415C112.733 98.431 109.764 94.3906 106.103 94.3906C102.441 94.3906 99.4727 98.431 99.4727 103.415C99.4727 108.399 102.441 112.439 106.103 112.439Z" fill="#437DFA"/>
<path d="M112.405 107.726C112.405 109.555 111.316 111.041 109.973 111.041C108.63 111.041 107.541 109.56 107.541 107.726C107.541 105.896 108.63 104.41 109.973 104.41C111.316 104.41 112.405 105.896 112.405 107.726Z" fill="#EFF6FE"/>
<path d="M117.45 84.8773C113.178 84.8068 109.182 82.7376 106.721 79.2201C105.801 77.908 103.632 79.1589 104.557 80.4851C107.538 84.7457 112.239 87.2992 117.45 87.3885C119.061 87.4121 119.061 84.9056 117.45 84.8773Z" fill="#437DFA"/>
<path d="M83.4593 76.062C80.5763 79.5843 75.1014 80.2191 70.8473 79.8617C69.2415 79.7254 69.2509 82.2366 70.8473 82.3682C75.7118 82.7774 81.9473 81.8416 85.2295 77.8349C86.2437 76.5981 84.4829 74.8111 83.4593 76.062Z" fill="#437DFA"/>
<path d="M156.107 102.754C154.68 99.895 151.398 98.3385 148.346 99.6505C145.538 100.859 143.81 104.555 145.247 107.424C148.693 114.323 148.069 122.914 142.002 128.619C139.678 130.805 138.884 134.243 140.974 136.928C142.796 139.27 146.932 140.159 149.271 137.958C158.901 128.901 162.127 114.802 156.107 102.754Z" fill="#DFEAFC"/>
<path d="M147.282 147.852C144.629 150.176 141.042 151.337 137.53 151.177C134.013 151.022 130.594 149.592 127.899 147.33C125.73 145.511 123.974 143.07 123.485 140.281C123.096 138.071 123.603 135.644 125.096 133.989C125.166 133.914 125.237 133.843 125.307 133.768C127.261 131.812 130.759 131.036 133.078 132.517C132.585 132.141 132.407 131.421 132.543 130.805C132.693 130.133 133.149 129.564 133.656 129.098C135.168 127.711 137.257 126.996 139.3 127.104C139.896 127.137 140.488 127.236 141.06 127.41C142.694 132.146 146.892 136.566 151.498 138.522C151.574 142.049 149.93 145.534 147.282 147.852Z" fill="#2247DB"/>
<path d="M147.282 147.857C144.629 150.18 141.042 151.341 137.53 151.181C134.013 151.026 130.594 149.597 127.899 147.335C125.73 145.515 123.974 143.074 123.485 140.285C123.096 138.075 123.603 135.649 125.096 133.993C124.284 136.086 124.467 138.564 125.655 140.473C126.758 142.251 128.575 143.46 130.477 144.325C133.271 145.599 136.417 146.229 139.445 145.726C142.479 145.228 145.366 143.507 146.939 140.868C144.291 139.467 142.103 137.21 140.769 134.525C139.638 132.239 139.126 129.657 139.3 127.113C139.896 127.146 140.488 127.245 141.06 127.419C142.694 132.155 146.892 136.575 151.498 138.531C151.574 142.054 149.93 145.538 147.282 147.857Z" fill="#C5D9FC"/>
<path d="M152.194 136.18C148.546 134.571 143.25 131.223 142.86 126.807C142.649 124.456 139.028 125.001 139.235 127.353C139.747 133.123 146.011 137.459 150.833 139.584C152.997 140.539 154.35 137.13 152.194 136.18Z" fill="#2247DB"/>
<path d="M52.6657 88.8787C50.271 92.8195 49.7216 97.1647 50.5856 101.232C50.7734 102.135 51.0316 103.024 51.3603 103.894C50.6842 106.194 49.1488 110.915 46.2094 117.828C46.1296 117.743 46.0451 117.663 45.9653 117.574C37.5605 108.254 36.4289 95.0626 41.8849 84.1572C42.2747 83.3672 42.7066 82.5865 43.1715 81.82C44.8384 79.0737 49.0596 78.8244 51.4448 80.5973C54.1682 82.6242 54.3231 86.1511 52.6657 88.8787Z" fill="#DFEAFC"/>
<path d="M51.3603 103.928C50.6842 106.228 49.1488 110.949 46.2094 117.862C46.1296 117.778 46.0451 117.698 45.9653 117.608C37.5605 108.288 36.4289 95.0969 41.8849 84.1915C42.3874 83.9893 42.8992 83.82 43.425 83.6836C42.2465 85.6822 41.6549 88.0053 41.5985 90.3237C41.5469 92.6421 42.0211 94.9605 42.8569 97.1284C43.2983 98.2712 43.8523 99.3951 44.6693 100.312C45.4863 101.229 46.5898 101.935 47.8059 102.08C48.7966 102.203 49.8484 101.916 50.5856 101.267C50.7734 102.17 51.0316 103.058 51.3603 103.928Z" fill="#EFF6FE"/>
<path d="M61.893 83.1533C60.4515 86.2994 57.6248 88.7729 54.3192 89.7793C52.5209 87.8042 50.253 86.2476 48.0414 84.7475C45.8299 83.2474 43.3601 81.9965 40.6884 81.94C40.2752 81.2534 39.909 80.5339 39.5991 79.7909C39.4347 79.41 39.2892 79.015 39.1577 78.62C38.8196 77.6136 38.5802 76.5414 38.7445 75.4927C38.9041 74.444 39.5333 73.4189 40.5194 73.0238C41.5007 72.6241 42.9093 73.2355 43.2803 74.2324C43.5338 71.1663 43.8062 68.0343 45.0317 65.2128C46.2525 62.3912 48.619 59.8753 51.6428 59.3204C52.8355 59.0993 54.061 59.1981 55.2208 59.5555C56.3195 59.8847 57.3619 60.4396 58.2587 61.1591C60.0993 62.6404 61.3671 64.7519 62.1183 66.9951C62.8696 69.2382 63.1373 71.613 63.2359 73.9785C63.3673 77.0963 63.1936 80.3176 61.893 83.1533Z" fill="#2247DB"/>
<path d="M61.8935 83.1564C60.452 86.3025 57.6254 88.7761 54.3198 89.7824C52.5214 87.8073 50.2535 86.2507 48.042 84.7506C45.8304 83.2505 43.3607 81.9996 40.6889 81.9431C40.2758 81.2565 39.9095 80.537 39.5996 79.794C43.1024 79.3097 46.7554 79.8693 49.9343 81.4211C51.202 82.0419 52.451 82.8272 53.8549 82.9542C55.9538 83.1423 57.954 81.7597 59.0575 79.9586C60.1562 78.1575 60.5131 76.0084 60.7103 73.9063C60.931 71.6256 60.9873 69.3072 60.5318 67.0593C60.0764 64.8114 59.0763 62.6294 57.4141 61.0493C56.7755 60.438 56.0289 59.9301 55.2213 59.5586C56.32 59.8878 57.3624 60.4427 58.2593 61.1622C60.0999 62.6435 61.3676 64.755 62.1189 66.9982C62.8702 69.2413 63.1378 71.6161 63.2364 73.9816C63.3679 77.0994 63.1942 80.3207 61.8935 83.1564Z" fill="#C5D9FC"/>
<path d="M40.8266 84.3196C44.7708 84.8934 50.7669 86.7039 52.321 90.8563C53.1474 93.0665 56.4953 91.5711 55.6689 89.3609C53.6358 83.934 46.4424 81.4322 41.2304 80.6751C38.8921 80.3318 38.493 83.9811 40.8266 84.3196Z" fill="#2247DB"/>
<path d="M174.869 54.4898C174.724 54.0948 174.329 53.9914 173.958 54.0807C172.78 54.3676 171.596 54.6497 170.418 54.9366C169.864 55.0683 169.873 55.8207 170.221 56.1405C170.535 56.4273 170.859 56.6954 171.193 56.9493C170.282 57.3537 169.324 57.6594 168.347 57.8428C167.732 57.9604 167.53 58.6517 167.972 59.089C168.192 59.3053 168.413 59.5264 168.638 59.7427C167.892 60.2412 167.14 60.7443 166.394 61.2428C165.638 61.746 166.46 62.8934 167.211 62.3903C168.192 61.7319 169.174 61.0782 170.155 60.4199C170.563 60.1471 170.507 59.6063 170.192 59.3006C170.066 59.1737 169.934 59.0467 169.807 58.9244C170.901 58.6093 171.949 58.1767 172.958 57.6218C173.329 57.4149 173.357 56.733 172.996 56.5026C172.719 56.3239 172.46 56.1358 172.197 55.9382C172.949 55.7548 173.7 55.5761 174.451 55.3927C174.836 55.3128 174.991 54.819 174.869 54.4898Z" fill="#437DFA"/>
<path d="M44.6891 48.9362C44.2853 49.0537 44.1586 49.444 44.2196 49.8155C44.4215 51.0147 44.6234 52.2139 44.83 53.4131C44.9239 53.9727 45.6752 54.0197 46.0132 53.6952C46.3184 53.4037 46.6096 53.098 46.8866 52.7782C47.2294 53.714 47.4641 54.6922 47.5815 55.6797C47.6566 56.3052 48.3328 56.5544 48.7976 56.1406C49.0277 55.9337 49.2625 55.7268 49.4973 55.5198C49.9433 56.3005 50.3894 57.0811 50.8355 57.8665C51.2862 58.6565 52.4836 57.9135 52.0375 57.1281C51.4506 56.103 50.8636 55.0778 50.2767 54.0526C50.0325 53.6294 49.4926 53.6482 49.1639 53.9351C49.0277 54.0526 48.8962 54.1749 48.7601 54.2925C48.5206 53.1779 48.1638 52.101 47.6801 51.057C47.5017 50.6714 46.8256 50.5962 46.5673 50.9395C46.3701 51.2028 46.1635 51.4521 45.9522 51.6966C45.8254 50.9348 45.694 50.1682 45.5672 49.4064C45.5014 49.0255 45.0225 48.8374 44.6891 48.9362Z" fill="#437DFA"/>
<path d="M52.2279 39.9401C51.8334 39.799 51.5001 40.0342 51.331 40.3728C50.7911 41.4638 50.2464 42.5501 49.7064 43.6411C49.4529 44.149 50.0304 44.6287 50.4999 44.5675C50.9178 44.5111 51.3357 44.4358 51.7442 44.3418C51.4719 45.3011 51.0822 46.2276 50.5985 47.0975C50.2933 47.6477 50.6925 48.245 51.3122 48.1838C51.6221 48.1556 51.932 48.1227 52.2419 48.0945C52.1433 48.988 52.0447 49.8862 51.9461 50.7797C51.8475 51.6826 53.2515 51.7908 53.3501 50.8926C53.4815 49.7169 53.6083 48.5412 53.7398 47.3703C53.7914 46.8859 53.3454 46.5803 52.9087 46.6226C52.7303 46.6414 52.5518 46.6555 52.3734 46.6743C52.8383 45.635 53.181 44.5534 53.4017 43.4201C53.4815 43.0062 52.9791 42.5454 52.5706 42.6724C52.2607 42.7711 51.9414 42.8464 51.6268 42.9216C51.9696 42.2303 52.3171 41.5343 52.6598 40.843C52.8289 40.4903 52.5518 40.0577 52.2279 39.9401Z" fill="#437DFA"/>
<path d="M175.824 63.8764C175.81 63.4579 175.463 63.2368 175.087 63.2039C173.876 63.1052 172.664 63.0111 171.453 62.9124C170.885 62.8653 170.659 63.5848 170.889 63.994C171.096 64.3655 171.321 64.7182 171.561 65.0662C170.57 65.1696 169.565 65.1555 168.579 65.0285C167.955 64.9486 167.551 65.5411 167.837 66.096C167.978 66.3735 168.124 66.6509 168.265 66.9237C167.401 67.1635 166.532 67.4081 165.668 67.6526C164.795 67.8971 165.217 69.2421 166.091 68.9976C167.227 68.6778 168.363 68.3627 169.5 68.0429C169.969 67.9113 170.087 67.3799 169.885 66.9942C169.8 66.8343 169.72 66.6745 169.636 66.5146C170.772 66.5569 171.904 66.4722 173.035 66.2559C173.453 66.176 173.688 65.5364 173.42 65.2072C173.214 64.9533 173.026 64.6899 172.838 64.4219C173.608 64.483 174.378 64.5442 175.153 64.6053C175.533 64.6476 175.834 64.2244 175.824 63.8764Z" fill="#437DFA"/>
<path d="M184.933 67.7173C185.07 67.3175 184.825 66.9883 184.483 66.8285C183.384 66.3112 182.285 65.7892 181.186 65.2719C180.67 65.0273 180.21 65.6199 180.28 66.0854C180.346 66.504 180.431 66.9178 180.529 67.3269C179.567 67.073 178.632 66.7062 177.754 66.2406C177.2 65.9444 176.613 66.3582 176.684 66.9742C176.721 67.2846 176.754 67.5903 176.792 67.9007C175.895 67.8207 174.998 67.7408 174.106 67.6608C173.2 67.5809 173.124 68.987 174.026 69.0716C175.2 69.1751 176.378 69.2832 177.552 69.3867C178.041 69.429 178.332 68.9729 178.285 68.5402C178.266 68.3615 178.242 68.1828 178.224 68.0041C179.271 68.4462 180.36 68.7659 181.492 68.9682C181.91 69.0387 182.356 68.5261 182.224 68.1217C182.121 67.8113 182.036 67.4962 181.957 67.1812C182.656 67.5103 183.356 67.8442 184.055 68.1734C184.393 68.3333 184.821 68.0464 184.933 67.7173Z" fill="#437DFA"/>
<path d="M37.976 38.8375C39.8562 34.6752 38.0114 29.7744 33.8554 27.8913C29.6995 26.0081 24.8062 27.8558 22.926 32.0181C21.0457 36.1805 22.8905 41.0813 27.0465 42.9644C31.2024 44.8475 36.0958 42.9998 37.976 38.8375Z" fill="#437DFA"/>
<path d="M28.9498 35.5445C29.3677 36.532 29.1188 37.5807 28.3958 37.8864C27.6727 38.1921 26.7477 37.6419 26.3298 36.659C25.9119 35.6714 26.1607 34.6228 26.8838 34.3171C27.6069 34.0067 28.5319 34.5569 28.9498 35.5445Z" fill="#437DFA"/>
<path d="M34.233 33.3023C34.6509 34.2898 34.4021 35.3385 33.679 35.6442C32.9559 35.9499 32.0309 35.3997 31.613 34.4168C31.1951 33.4293 31.4439 32.3806 32.167 32.0749C32.8901 31.7645 33.8151 32.3147 34.233 33.3023Z" fill="#437DFA"/>
<path d="M34.6578 37.5745C33.6812 36.9678 32.4791 36.8221 31.3992 37.2312C30.3474 37.6262 29.5116 38.562 29.2111 39.6436C29.1501 39.86 29.2158 40.0904 29.4365 40.1797C29.6243 40.255 29.9107 40.1656 29.9718 39.954C30.2112 39.0887 30.8076 38.3598 31.6434 38.0212C32.4557 37.692 33.4229 37.7767 34.1648 38.2375C34.6156 38.5103 35.1086 37.8519 34.6578 37.5745Z" fill="#437DFA"/>
<path d="M32.896 30.4668C32.5157 30.5421 32.1354 30.5938 31.7503 30.6126C31.539 30.622 31.431 30.6267 31.2573 30.622C31.0601 30.6173 30.8582 30.6032 30.661 30.5844C30.445 30.5656 30.2196 30.7161 30.2008 30.9418C30.1821 31.1581 30.3276 31.3791 30.5577 31.4027C31.3747 31.4826 32.2011 31.445 33.004 31.2851C33.2153 31.2428 33.3984 31.05 33.3562 30.8242C33.3186 30.6173 33.1214 30.4245 32.896 30.4668Z" fill="#437DFA"/>
<path d="M27.5278 32.0043C27.3353 31.8727 27.1006 31.9103 26.9503 32.089C26.678 32.4182 26.4667 32.6345 26.1427 32.9166C25.8328 33.1847 25.5041 33.4198 25.1567 33.6362C24.9735 33.749 24.9548 34.0594 25.0909 34.2146C25.2506 34.398 25.4712 34.4027 25.6685 34.2804C26.4056 33.829 27.0583 33.2505 27.6124 32.5828C27.7485 32.4135 27.7063 32.1219 27.5278 32.0043Z" fill="#437DFA"/>
<path d="M199.575 52.1799C201.241 46.482 197.98 40.51 192.291 38.841C186.602 37.1721 180.639 40.4382 178.972 46.1361C177.306 51.8341 180.567 57.8061 186.256 59.475C191.945 61.144 197.908 57.8778 199.575 52.1799Z" fill="#437DFA"/>
<path d="M191.546 54.1754C191.19 52.727 190.208 51.4902 188.832 50.8836C187.494 50.291 185.874 50.3945 184.611 51.1281C184.362 51.2739 184.212 51.5467 184.334 51.8335C184.438 52.0733 184.785 52.2567 185.039 52.111C186.043 51.5278 187.26 51.3962 188.349 51.8429C189.401 52.2756 190.218 53.2396 190.49 54.34C190.654 55.0031 191.711 54.8479 191.546 54.1754Z" fill="#437DFA"/>
<path d="M194.623 49.8602C194.158 49.4463 193.693 49.0325 193.228 48.6187C193.857 48.5857 194.486 48.5528 195.111 48.5199C195.393 48.5058 195.609 48.1719 195.557 47.9086C195.496 47.6029 195.247 47.4477 194.947 47.4618C193.904 47.5183 192.866 47.57 191.824 47.6264C191.613 47.6358 191.439 47.8427 191.392 48.0308C191.34 48.2472 191.425 48.44 191.585 48.5857C192.383 49.2958 193.181 50.0106 193.979 50.7207C194.191 50.9088 194.576 50.8383 194.726 50.6126C194.904 50.3492 194.848 50.0577 194.623 49.8602Z" fill="#437DFA"/>
<path d="M185.139 46.1215C185.759 46.1356 186.383 46.1497 187.003 46.1591C186.566 45.7077 186.129 45.2562 185.688 44.8001C185.491 44.5979 185.561 44.2075 185.777 44.0476C186.031 43.8642 186.317 43.9207 186.529 44.137C187.256 44.8847 187.979 45.6371 188.707 46.3849C188.853 46.5353 188.843 46.8081 188.75 46.9727C188.642 47.1702 188.449 47.2501 188.233 47.2454C187.162 47.2219 186.097 47.1984 185.026 47.1749C184.744 47.1702 184.51 46.8551 184.552 46.5871C184.599 46.2908 184.838 46.1168 185.139 46.1215Z" fill="#437DFA"/>
</g>
<defs>
<clipPath id="clip0_17274_156612">
<rect width="202" height="168" fill="white"/>
</clipPath>
</defs>
</svg>
