<svg width="16" height="16" viewBox="0 0 16 16" fill="none" xmlns="http://www.w3.org/2000/svg">
<path d="M5.33203 1.3335V3.3335" stroke="#666666" stroke-miterlimit="10" stroke-linecap="round" stroke-linejoin="round"/>
<path d="M10.668 1.3335V3.3335" stroke="#666666" stroke-miterlimit="10" stroke-linecap="round" stroke-linejoin="round"/>
<path d="M2.33203 6.06006H13.6654" stroke="#666666" stroke-miterlimit="10" stroke-linecap="round" stroke-linejoin="round"/>
<path d="M12.806 10.5134L10.446 12.8734C10.3527 12.9667 10.266 13.14 10.246 13.2667L10.1194 14.1667C10.0727 14.4934 10.2994 14.72 10.626 14.6734L11.526 14.5467C11.6527 14.5267 11.8327 14.44 11.9194 14.3467L14.2794 11.9867C14.686 11.58 14.8794 11.1067 14.2794 10.5067C13.686 9.91337 13.2127 10.1067 12.806 10.5134Z" stroke="#666666" stroke-miterlimit="10" stroke-linecap="round" stroke-linejoin="round"/>
<path d="M12.4648 10.8535C12.6648 11.5735 13.2248 12.1335 13.9448 12.3335" stroke="#666666" stroke-miterlimit="10" stroke-linecap="round" stroke-linejoin="round"/>
<path d="M8 14.6668H5.33333C3 14.6668 2 13.3335 2 11.3335V5.66683C2 3.66683 3 2.3335 5.33333 2.3335H10.6667C13 2.3335 14 3.66683 14 5.66683V8.00016" stroke="#666666" stroke-miterlimit="10" stroke-linecap="round" stroke-linejoin="round"/>
<path d="M7.99764 9.13314H8.00363" stroke="#666666" stroke-width="1.5" stroke-linecap="round" stroke-linejoin="round"/>
<path d="M5.52889 9.13314H5.53488" stroke="#666666" stroke-width="1.5" stroke-linecap="round" stroke-linejoin="round"/>
<path d="M5.52889 11.1331H5.53488" stroke="#666666" stroke-width="1.5" stroke-linecap="round" stroke-linejoin="round"/>
</svg>
