<svg width="100%" height="100%" viewBox="0 0 16 16" fill="none" xmlns="http://www.w3.org/2000/svg">
<path d="M6.36642 11.7166C6.27753 11.7166 6.1942 11.7026 6.11642 11.6746C6.03865 11.647 5.96642 11.5999 5.89976 11.5333L3.03309 8.6666C2.91087 8.54438 2.85242 8.38593 2.85776 8.19127C2.86353 7.99705 2.92753 7.83882 3.04976 7.7166C3.17198 7.59438 3.32753 7.53327 3.51642 7.53327C3.70531 7.53327 3.86087 7.59438 3.98309 7.7166L6.36642 10.0999L12.0164 4.44993C12.1386 4.32771 12.2971 4.2666 12.4918 4.2666C12.686 4.2666 12.8442 4.32771 12.9664 4.44993C13.0886 4.57216 13.1498 4.73038 13.1498 4.9246C13.1498 5.11927 13.0886 5.27771 12.9664 5.39994L6.83309 11.5333C6.76642 11.5999 6.6942 11.647 6.61642 11.6746C6.53865 11.7026 6.45531 11.7166 6.36642 11.7166Z" fill="#666666"/>
</svg>
