<svg width="100%" height="100%" viewBox="0 0 21 21" fill="none" xmlns="http://www.w3.org/2000/svg">
    <path
        d="M4.75058 10.7881L4.75059 10.7875C4.76061 10.4465 4.87394 10.1498 5.10238 9.91834C5.33175 9.68596 5.6246 9.57327 5.96043 9.57327C6.29625 9.57327 6.5891 9.68596 6.81847 9.91834L10.114 13.2571L18.1704 5.09507L18.3464 5.26887L18.1704 5.09507C18.4012 4.86116 18.6992 4.75 19.041 4.75C19.3824 4.75 19.68 4.86128 19.9107 5.09507C20.1412 5.32859 20.25 5.6284 20.25 5.97154C20.25 6.31517 20.1413 6.61537 19.9107 6.849L10.972 15.9049C10.8526 16.0259 10.7166 16.118 10.5634 16.1731C10.5632 16.1731 10.563 16.1732 10.5628 16.1733L10.4784 15.938C10.365 15.9793 10.2435 16 10.114 16C9.98446 16 9.86301 15.9793 9.74965 15.938L4.75058 10.7881ZM4.75058 10.7881C4.74124 11.1335 4.84554 11.4367 5.07809 11.6723L9.25596 15.9049C9.37535 16.0259 9.51137 16.118 9.66459 16.1731L4.75058 10.7881Z"
        fill="#666666" stroke="#D6F5E6" stroke-width="0.5" />
</svg>