<svg width="100%" height="100%" viewBox="0 0 28 44" fill="none" xmlns="http://www.w3.org/2000/svg">
  <path
    d="M6.19898 40.7932L1.6403 37.2504L6.98784 35.0739L6.19898 40.7932ZM4.68212 38.1344C4.47499 37.4763 4.29575 36.8259 4.14319 36.1833L5.11614 35.9523C5.26307 36.5711 5.43591 37.1985 5.63599 37.8342L4.68212 38.1344ZM3.75089 34.1945C3.64402 33.5127 3.56732 32.8406 3.51917 32.1784L4.51654 32.1059C4.56266 32.7403 4.63619 33.3849 4.73883 34.0397L3.75089 34.1945ZM3.45979 30.1485C3.4699 29.4606 3.51095 28.7846 3.58088 28.1208L4.57538 28.2255C4.50859 28.8595 4.46935 29.5055 4.45968 30.1632L3.45979 30.1485ZM3.88661 26.1092C4.0208 25.4361 4.18472 24.7772 4.37592 24.1326L5.33463 24.417C5.15197 25.0328 4.99543 25.6621 4.86731 26.3047L3.88661 26.1092ZM5.04142 22.2109C5.29304 21.5772 5.57092 20.9593 5.87236 20.3575L6.76647 20.8053C6.47758 21.3821 6.21154 21.9737 5.97083 22.5799L5.04142 22.2109ZM6.85641 18.5813C7.20983 18.0007 7.5849 17.4372 7.97876 16.8911L8.78981 17.4761C8.41067 18.0017 8.05005 18.5436 7.71061 19.1012L6.85641 18.5813ZM9.22412 15.2932C9.6604 14.7737 10.1132 14.2725 10.5795 13.7899L11.2986 14.4848C10.848 14.9512 10.4108 15.4352 9.9899 15.9363L9.22412 15.2932ZM12.0336 12.3822C12.5368 11.9262 13.0512 11.4899 13.5735 11.0739L14.1965 11.8561C13.6904 12.2592 13.1922 12.6817 12.7051 13.1232L12.0336 12.3822ZM15.1928 9.86433C15.7525 9.47264 16.3175 9.10333 16.8841 8.7568L17.4058 9.6099C16.8566 9.94582 16.3088 10.3039 15.7662 10.6836L15.1928 9.86433ZM18.6387 7.7577C19.2496 7.435 19.8583 7.1392 20.4603 6.87087L20.8674 7.78426C20.286 8.04339 19.6973 8.32945 19.1058 8.64192L18.6387 7.7577ZM22.3397 6.11347C23.0012 5.87554 23.6486 5.67352 24.2754 5.50847L24.53 6.47551C23.9334 6.63263 23.3139 6.82578 22.6782 7.05445L22.3397 6.11347ZM26.2824 5.09623C26.6347 5.04612 26.9773 5.01033 27.3084 4.98931L27.3718 5.98729C27.0686 6.00655 26.7519 6.03951 26.4232 6.08627L26.2824 5.09623Z"
    fill="#27A568" />
</svg>