<svg width="100%" height="100%" viewBox="0 0 196 172" fill="none" xmlns="http://www.w3.org/2000/svg">
<g clip-path="url(#clip0_7011_77359)">
<path d="M196.211 130.717H149.378C149.378 130.717 150.523 120.769 159.834 124.373C159.834 124.373 158.689 114.714 167.088 113.273C175.188 111.881 176.448 120.911 176.448 120.911C176.448 120.911 178.214 117.706 181.892 119.47C184.9 120.911 184.755 125.237 184.755 125.237C184.755 125.237 191.917 121.922 196.211 130.717Z" fill="#BDE1EA"/>
<path d="M158.619 36.5098H159.72" stroke="#A7B1EF" stroke-linecap="round" stroke-linejoin="round"/>
<path d="M161.879 36.5098C164.834 36.5674 167.208 38.9967 167.208 41.9845V80.2501" stroke="#A7B1EF" stroke-linecap="round" stroke-linejoin="round"/>
<path d="M167.213 81.3359V82.4442" stroke="#A7B1EF" stroke-linecap="round" stroke-linejoin="round"/>
<path d="M22.6523 82.4442V81.3359" stroke="#A7B1EF" stroke-linecap="round" stroke-linejoin="round"/>
<path d="M22.6523 79.0665V43.4518C22.6523 40.4285 26.1407 37.9727 28.0963 37.9727H28.3253" stroke="#A7B1EF" stroke-linecap="round" stroke-linejoin="round"/>
<path d="M29.4531 37.9785H30.5542" stroke="#A7B1EF" stroke-linecap="round" stroke-linejoin="round"/>
<path d="M153.056 0H39.6047C36.6857 0 34.3193 2.38166 34.3193 5.31959V73.4192C34.3193 76.3571 36.6857 78.7388 39.6047 78.7388H153.056C155.975 78.7388 158.341 76.3571 158.341 73.4192V5.31959C158.341 2.38166 155.975 0 153.056 0Z" fill="#1A4557"/>
<path d="M156.139 73.4195V5.31989C156.139 3.6061 154.758 2.2168 153.056 2.2168L39.6046 2.2168C37.9018 2.2168 36.5214 3.6061 36.5214 5.31989V73.4195C36.5214 75.1333 37.9018 76.5226 39.6046 76.5226L153.056 76.5226C154.758 76.5226 156.139 75.1333 156.139 73.4195Z" fill="#88CE98"/>
<path d="M98.1095 58.9629L96.3301 68.8618C96.3301 68.8618 96.9643 71.362 104.505 71.2644C112.045 71.1669 112.142 68.8618 112.142 68.8618L110.191 58.9629H98.1095Z" fill="#F09F79"/>
<path d="M97.4615 58.9627C91.9691 58.9627 87.4457 54.6184 87.1991 49.0949C86.8247 40.7697 87.3444 29.8734 87.3444 27.5417C87.3444 21.9428 92.0704 18.3166 96.3296 20.8168C96.3296 20.8168 97.9416 16.9867 102.976 17.0178C106.914 17.0444 111.472 19.0614 116.436 20.8168C119.889 22.0359 125.386 24.084 121.854 29.0799C121.854 29.0799 121.536 46.7454 121.484 50.1588C121.404 55.0439 116.877 58.9627 112.018 58.9627H97.4571H97.4615Z" fill="#095D83"/>
<path d="M104.236 28.2168C98.6339 30.6416 96.0088 28.7931 96.0088 28.7931C95.3745 30.6505 93.3881 31.7765 92.1328 32.3262C91.4898 32.6055 91.0449 33.2394 91.0449 33.9487C91.0449 33.9487 91.0449 33.9575 91.0449 33.962V47.1013C91.0449 54.633 97.1672 60.7948 104.65 60.7948C112.134 60.7948 117.67 55.6836 118.256 47.1013C119.304 31.679 114.975 32.3528 114.975 32.3528C110.645 32.9291 105.558 32.0469 104.241 28.2212L104.236 28.2168Z" fill="#F09F79"/>
<path d="M96.876 47.6732C100.099 47.6732 102.712 45.0435 102.712 41.7995C102.712 38.5555 100.099 35.9258 96.876 35.9258C93.6529 35.9258 91.04 38.5555 91.04 41.7995C91.04 45.0435 93.6529 47.6732 96.876 47.6732Z" stroke="#1A4557" stroke-miterlimit="10"/>
<path d="M112.688 47.6732C115.912 47.6732 118.524 45.0435 118.524 41.7995C118.524 38.5555 115.912 35.9258 112.688 35.9258C109.465 35.9258 106.853 38.5555 106.853 41.7995C106.853 45.0435 109.465 47.6732 112.688 47.6732Z" stroke="#1A4557" stroke-miterlimit="10"/>
<path d="M106.852 41.7988H102.712" stroke="#1A4557" stroke-miterlimit="10"/>
<path d="M96.7265 42.7825C97.1985 42.7825 97.581 42.3975 97.581 41.9225C97.581 41.4475 97.1985 41.0625 96.7265 41.0625C96.2546 41.0625 95.8721 41.4475 95.8721 41.9225C95.8721 42.3975 96.2546 42.7825 96.7265 42.7825Z" fill="#1A4557"/>
<path d="M112.613 42.7825C113.085 42.7825 113.468 42.3975 113.468 41.9225C113.468 41.4475 113.085 41.0625 112.613 41.0625C112.141 41.0625 111.759 41.4475 111.759 41.9225C111.759 42.3975 112.141 42.7825 112.613 42.7825Z" fill="#1A4557"/>
<path d="M104.377 46.2324L100.981 47.4825C100.734 47.5712 100.686 47.8992 100.893 48.0632C101.549 48.5775 102.941 49.4286 105.028 49.4774C107.116 49.5261 108.653 48.7282 109.398 48.2317C109.627 48.081 109.591 47.7352 109.336 47.6377L105.68 46.2324H104.377Z" fill="#095D83"/>
<path d="M100.69 49.6797C100.571 49.3073 100.954 48.9748 101.302 49.1521C102.126 49.5688 103.447 50.1362 104.782 50.2692C106.257 50.4155 108.085 49.6353 109.107 49.1167C109.446 48.9438 109.821 49.2629 109.719 49.6309C109.358 50.9431 108.292 53.1507 105.178 53.1507C102.24 53.1507 101.109 50.9962 100.69 49.6797Z" fill="white"/>
<path d="M103.492 71.6803C109.006 71.7734 112.415 69.2466 113.975 67.7039C113.239 67.4246 112.645 67.1941 112.257 67.0434C111.966 66.9281 111.645 67.0301 111.455 67.2783C110.715 68.2447 108.421 70.4479 103.166 69.916C98.5149 69.4461 97.1275 68.1428 96.7179 67.3892C96.5549 67.0921 96.2025 66.9503 95.881 67.0567C95.4934 67.1852 94.9473 67.367 94.2998 67.5842C95.3216 69.056 97.8939 71.5828 103.492 71.6803Z" fill="#1A4557"/>
<path d="M120.925 70.2039C118.299 69.3217 115.723 68.3686 113.974 67.7037C112.415 69.2464 109.006 71.7732 103.492 71.6801C97.8935 71.587 95.3212 69.0557 94.2994 67.584C91.0048 68.6834 84.9178 70.7403 81.8787 71.9505C77.5843 73.6616 75.4834 76.5165 75.4834 76.5165H131.509C131.509 76.5165 130.095 73.2759 120.929 70.2039H120.925Z" fill="#F9F8D9"/>
<path d="M105.681 44.2401C105.681 43.8777 105.389 43.584 105.029 43.584C104.669 43.584 104.377 43.8777 104.377 44.2401V45.8625C104.377 46.2249 104.669 46.5186 105.029 46.5186C105.389 46.5186 105.681 46.2249 105.681 45.8625V44.2401Z" fill="#EB704C"/>
<path d="M95.8714 52.9116C97.151 52.9116 98.1882 51.8676 98.1882 50.5798C98.1882 49.292 97.151 48.248 95.8714 48.248C94.5919 48.248 93.5547 49.292 93.5547 50.5798C93.5547 51.8676 94.5919 52.9116 95.8714 52.9116Z" fill="#EB704C"/>
<path d="M113.137 52.9116C114.417 52.9116 115.454 51.8676 115.454 50.5798C115.454 49.292 114.417 48.248 113.137 48.248C111.858 48.248 110.82 49.292 110.82 50.5798C110.82 51.8676 111.858 52.9116 113.137 52.9116Z" fill="#EB704C"/>
<path d="M97.6074 61.7424L98.1051 58.9629C98.1051 58.9629 101.364 60.776 105.958 60.7893C105.958 60.7893 102.501 63.4934 97.6074 61.7424Z" fill="#CD7966"/>
<path d="M94.6826 39.9806C94.6826 39.9806 95.5767 38.6817 97.3694 38.7571" stroke="#051A82" stroke-linecap="round" stroke-linejoin="round"/>
<path d="M112.076 38.523C112.076 38.523 113.723 38.3767 114.869 39.6046" stroke="#051A82" stroke-linecap="round" stroke-linejoin="round"/>
<path d="M57.4571 85.3027H22.7717C19.8527 85.3027 17.4863 87.6844 17.4863 90.6223V166.564C17.4863 169.502 19.8527 171.883 22.7717 171.883H57.4571C60.3762 171.883 62.7425 169.502 62.7425 166.564V90.6223C62.7425 87.6844 60.3762 85.3027 57.4571 85.3027Z" fill="#1A4557"/>
<path d="M60.54 166.57L60.54 90.6285C60.54 88.9147 59.1597 87.5254 57.4569 87.5254H22.7715C21.0687 87.5254 19.6884 88.9147 19.6884 90.6285L19.6884 166.57C19.6884 168.284 21.0687 169.673 22.7715 169.673H57.4569C59.1597 169.673 60.54 168.284 60.54 166.57Z" fill="#62BAA1"/>
<path d="M60.5358 105.704H46.415C46.415 105.704 47.6703 102.388 51.1763 103.758C51.1763 103.758 50.6037 100.083 55.1844 101.236C55.1844 101.236 55.0699 96.1911 60.5358 97.6318V105.704Z" fill="white"/>
<path d="M19.6885 100.038H31.8669C31.8669 100.038 30.6997 96.2698 28.3037 95.6625C25.9076 95.0552 23.9961 96.2521 23.9961 96.2521C23.9961 96.2521 23.2737 91.2871 19.6885 91.2871V100.038Z" fill="white"/>
<path d="M50.0044 151.869C47.4982 149.923 48.1413 146.536 49.7181 144.013C51.2949 141.491 49.1455 127.598 49.1455 127.598C44.349 126.822 41.1382 122.318 41.1382 122.318L39.5481 123.471C39.5481 123.471 36.3373 127.97 31.5408 128.751C31.5408 128.751 29.3914 141.491 30.9682 144.013C32.545 146.536 33.188 149.923 30.6819 151.869C28.1757 153.815 28.1053 154.848 28.8188 157.286C29.0787 158.172 29.5543 159.086 29.9067 160.003C34.1835 158.633 39.2398 155.685 40.3365 155.029C41.4377 155.685 46.5028 158.633 50.7796 160.008C51.132 159.09 51.6076 158.172 51.8675 157.286C52.5854 154.848 52.5106 153.815 50.0044 151.869Z" fill="#14303A"/>
<path d="M54.5759 154.461C54.5759 154.461 56.9411 153.978 56.7253 151.961C56.5095 149.944 54.9371 150.063 54.9371 150.063L52.4794 122.84C51.7262 116.745 46.5289 111.988 40.2789 111.988C34.029 111.988 28.7568 116.811 28.0609 122.969V122.995C28.0389 123.195 28.0212 123.394 28.008 123.594L25.7441 150.063C25.7441 150.063 24.1673 149.939 23.9559 151.961C23.7401 153.978 26.1053 154.461 26.1053 154.461C26.1053 154.461 22.0796 156.456 23.8898 159.652C24.7223 161.119 27.1536 160.889 29.9108 160.002C29.5584 159.084 29.0827 158.171 28.8229 157.285C28.1049 154.846 28.1798 153.814 30.686 151.867C33.1921 149.921 32.5491 146.535 30.9722 144.012C29.3954 141.49 31.5448 128.749 31.5448 128.749C36.3413 127.974 39.5522 123.47 39.5522 123.47L41.1422 122.317C41.1422 122.317 44.3531 126.817 49.1496 127.597C49.1496 127.597 51.299 141.494 49.7222 144.012C48.1454 146.535 47.5023 149.921 50.0085 151.867C52.5146 153.814 52.5851 154.846 51.8716 157.285C51.6117 158.171 51.136 159.089 50.7837 160.006C53.5365 160.889 55.9633 161.119 56.7958 159.652C58.606 156.456 54.5803 154.461 54.5803 154.461H54.5759Z" fill="#1A4557"/>
<path d="M40.1123 166.931C43.9618 166.931 46.6926 157.347 47.3048 154.984C47.2652 154.953 47.2212 154.922 47.1815 154.895C47.1463 154.869 47.1155 154.833 47.0802 154.807C46.1024 157.843 43.2439 165.898 40.1123 166.931Z" fill="#CD7966"/>
<path d="M49.0136 137.379V127.596C43.8207 126.399 41.0635 119.146 41.0635 119.146C41.0635 119.146 39.0859 126.895 31.541 128.748V137.379C31.541 140.615 33.3072 143.453 35.9147 144.978C35.8618 147.62 35.4522 153.063 33.0474 154.89C33.0165 154.912 32.9857 154.934 32.9549 154.956C33.5495 157.27 36.2538 166.925 40.1166 166.925C43.2482 165.888 46.1067 157.833 47.0845 154.801C44.825 152.939 44.3889 147.823 44.3185 145.159C47.1021 143.683 49.0136 140.744 49.0136 137.375V137.379Z" fill="#EB926A"/>
<path d="M40.1073 167.969C44.0097 167.969 46.9255 159.529 48.0927 155.508C47.8108 155.335 47.5465 155.162 47.3043 154.985C46.6877 157.348 43.9569 166.932 40.1117 166.932C36.2666 166.932 33.5446 157.277 32.95 154.963C32.7078 155.14 32.4435 155.318 32.1572 155.495C33.3068 159.507 36.1961 167.974 40.1029 167.974L40.1073 167.969Z" fill="#1A4557"/>
<path d="M48.0928 155.508C46.9256 159.529 44.0098 167.969 40.1075 167.969C36.2051 167.969 33.3113 159.507 32.1618 155.49C28.5677 157.693 19.6882 159.577 19.6882 159.577C19.1773 167.415 19.8512 169.667 21.8552 169.667H58.3729C58.3729 169.667 59.7075 169.516 60.3109 167.81C60.9143 166.103 60.5399 161.448 60.5399 159.626C60.5399 159.626 51.6957 157.702 48.0972 155.508H48.0928Z" fill="#FAC22F"/>
<path d="M35.9194 144.984H35.915C35.915 144.984 36.84 147.795 39.0951 147.795C40.9846 147.795 42.5042 146.403 43.1869 145.658C42.2751 145.986 41.2973 146.172 40.2799 146.172C38.6943 146.172 37.2056 145.734 35.9238 144.984H35.9194Z" fill="#CD7966"/>
<path d="M34.4216 138.739C35.3022 138.739 36.016 138.02 36.016 137.134C36.016 136.248 35.3022 135.529 34.4216 135.529C33.541 135.529 32.8271 136.248 32.8271 137.134C32.8271 138.02 33.541 138.739 34.4216 138.739Z" fill="#EB704C"/>
<path d="M45.8425 138.739C46.7231 138.739 47.4369 138.02 47.4369 137.134C47.4369 136.248 46.7231 135.529 45.8425 135.529C44.9619 135.529 44.248 136.248 44.248 137.134C44.248 138.02 44.9619 138.739 45.8425 138.739Z" fill="#EB704C"/>
<path d="M41.0637 132.817C41.0637 132.552 40.8507 132.338 40.588 132.338C40.3253 132.338 40.1123 132.552 40.1123 132.817V134.164C40.1123 134.429 40.3253 134.643 40.588 134.643C40.8507 134.643 41.0637 134.429 41.0637 134.164V132.817Z" fill="#EB704C"/>
<path d="M34.8838 132.337C35.3557 132.337 35.7382 131.952 35.7382 131.477C35.7382 131.002 35.3557 130.617 34.8838 130.617C34.4119 130.617 34.0293 131.002 34.0293 131.477C34.0293 131.952 34.4119 132.337 34.8838 132.337Z" fill="#1A4557"/>
<path d="M45.8418 132.337C46.3137 132.337 46.6962 131.952 46.6962 131.477C46.6962 131.002 46.3137 130.617 45.8418 130.617C45.3699 130.617 44.9873 131.002 44.9873 131.477C44.9873 131.952 45.3699 132.337 45.8418 132.337Z" fill="#1A4557"/>
<path d="M38.3455 137.135C38.2398 137.135 38.1738 137.25 38.2222 137.343C38.4513 137.778 39.1251 138.74 40.5874 138.74C42.0497 138.74 42.6796 137.769 42.9042 137.339C42.9527 137.246 42.8822 137.135 42.7809 137.135H38.3455Z" fill="white"/>
<path d="M32.8271 130.139C32.8271 130.139 33.7213 128.84 35.5139 128.915" stroke="#1A4557" stroke-linecap="round" stroke-linejoin="round"/>
<path d="M44.499 128.445C44.499 128.445 46.1463 128.299 47.2915 129.527" stroke="#1A4557" stroke-linecap="round" stroke-linejoin="round"/>
<path d="M164.605 85.2773H74.2073C71.2882 85.2773 68.9219 87.659 68.9219 90.5969V149.338C68.9219 152.276 71.2882 154.658 74.2073 154.658H164.605C167.524 154.658 169.891 152.276 169.891 149.338V90.5969C169.891 87.659 167.524 85.2773 164.605 85.2773Z" fill="#1A4557"/>
<path d="M167.688 149.345V90.6031C167.688 88.8893 166.308 87.5 164.605 87.5H74.2075C72.5047 87.5 71.1243 88.8893 71.1243 90.6031V149.345C71.1243 151.058 72.5047 152.448 74.2075 152.448H164.605C166.308 152.448 167.688 151.058 167.688 149.345Z" fill="#3A8F89"/>
<path d="M129.682 154.658H109.131V171.889H129.682V154.658Z" fill="#14303A"/>
<path d="M132.448 168.33H106.365C105.389 168.33 104.599 169.126 104.599 170.108C104.599 171.089 105.389 171.885 106.365 171.885H132.448C133.424 171.885 134.214 171.089 134.214 170.108C134.214 169.126 133.424 168.33 132.448 168.33Z" fill="#1A4557"/>
<path d="M88.3368 129.141C88.0857 128.406 84.4784 127.532 83.2496 127.147C82.0207 126.761 76.9291 122.496 75.9998 122.878C75.066 123.263 75.2774 124.075 76.7221 125.524C78.1668 126.974 80.6641 129.492 81.3028 129.922C81.937 130.347 83.3817 130.817 83.4654 131.5C83.5006 131.797 83.7076 132.967 83.9323 134.186L89.4995 133.725C89.1472 132.12 88.6935 130.174 88.3456 129.137L88.3368 129.141Z" fill="#F09F79"/>
<path d="M83.9238 134.187C84.2101 135.765 84.5184 137.432 84.5184 137.432L90.0329 136.324C90.0329 136.324 89.8038 135.162 89.4911 133.73L83.9238 134.191V134.187Z" fill="#CD7966"/>
<path d="M158.117 125.675C158.002 124.399 158.681 121.389 158.984 119.23C159.31 116.925 157.782 117.537 157.698 118.521C157.645 119.163 156.734 122.475 156.734 122.475C156.734 122.475 157.038 118.521 156.936 117.372C156.835 116.224 155.655 116.375 155.663 117.443C155.672 118.512 154.871 122.794 154.871 122.794C154.871 122.794 154.761 118.609 154.686 117.758C154.505 115.719 153.091 116.273 153.082 117.634C153.078 118.742 152.911 123.818 152.911 123.818C152.911 123.818 152.347 120.356 152.052 118.494C151.757 116.637 150.272 117.346 150.343 118.432C150.4 119.283 150.986 125.658 150.986 125.658C150.986 125.658 150.338 125.183 149.924 124.346C149.51 123.508 148.713 123.694 148.444 124.199C148.114 124.815 149.132 126.451 149.673 127.617C150.193 128.743 152.224 129.958 152.224 129.958L152.567 131.274L158.826 129.913C158.535 128.375 158.183 126.402 158.117 125.667V125.675Z" fill="#F09F79"/>
<path d="M152.567 131.283L153.325 134.195L159.214 131.934C159.214 131.934 159.038 131.043 158.826 129.922L152.567 131.283Z" fill="#CD7966"/>
<path d="M152.413 152.44C152.413 152.44 153.347 138.113 150.885 132.567L160.297 129.752C160.297 129.752 163.86 138.769 162.077 152.444H152.409L152.413 152.44Z" fill="#E8AAC2"/>
<path d="M116.648 119.747C114.653 122.243 113.345 123.542 112.72 126.042C112.098 128.546 116.199 132.784 113.442 134.367C110.685 135.95 107.121 138.707 107.346 143.078C107.509 146.23 108.641 150.1 106.333 152.44H129.906L130.743 149.812L120.432 111.537C120.432 111.537 119.617 116.037 116.644 119.751L116.648 119.747Z" fill="#C65359"/>
<path d="M137.486 111.769C137.486 111.769 140.2 106.959 136.385 102.947C133.593 100.012 128.33 99.3606 121.657 102.038C114.984 104.711 110.747 112.385 110.179 118.963C109.615 125.542 109.725 127.475 106.955 128.672C104.184 129.868 99.903 132.896 99.7928 136.367C99.6783 139.838 100.779 141.434 98.3614 143.753C95.9433 146.071 94.318 150.296 96.9035 152.446H106.338C108.646 150.105 107.514 146.235 107.351 143.083C107.126 138.717 110.685 135.955 113.447 134.372C116.204 132.79 112.103 128.552 112.724 126.047C113.345 123.543 114.658 122.244 116.653 119.752C119.622 116.042 120.441 111.538 120.441 111.538L130.752 149.813L133.003 142.729C133.003 142.729 137.795 140.463 138.795 134.536C140.208 126.154 137.495 111.773 137.495 111.773L137.486 111.769Z" fill="#E76259"/>
<path d="M125.41 141.997C128.788 141.895 130.911 141.363 132.091 140.937C131.796 140.308 131.572 139.607 131.435 138.796C130.585 133.676 130.36 130.715 130.36 130.715L120.353 131.114C120.353 131.114 120.353 137.812 118.455 140.92C119.569 141.429 121.754 142.103 125.41 141.992V141.997Z" fill="#F09F79"/>
<path d="M132.994 142.369C132.641 141.943 132.342 141.469 132.091 140.937C130.91 141.363 128.792 141.895 125.409 141.997C121.753 142.103 119.564 141.429 118.454 140.924C118.291 141.19 118.115 141.438 117.921 141.646C117.851 141.722 117.772 141.802 117.692 141.877C118.824 142.365 121.463 143.295 125.149 143.3C128.58 143.3 131.421 142.755 132.994 142.378V142.369Z" fill="#C78FC2"/>
<path d="M141.962 146.94C138.081 145.571 134.853 144.622 132.994 142.37C131.422 142.751 128.581 143.297 125.15 143.292C121.463 143.292 118.825 142.361 117.693 141.869C115.037 144.383 107.571 146.413 103.788 148.013C99.2732 149.924 97.2295 152.437 97.2295 152.437H151.621C151.621 152.437 147.445 148.869 141.962 146.936V146.94Z" fill="#E8AAC2"/>
<path d="M120.437 111.538C119.754 114.898 117.433 118.573 116.649 119.752C116.477 120.009 116.385 120.311 116.385 120.621V124.673C116.385 129.651 120.428 133.72 125.374 133.72C130.321 133.72 134.364 129.651 134.364 124.673V117.957C134.364 117.154 133.738 116.503 132.941 116.454C124.67 115.953 121.054 112.127 120.525 111.511C120.494 111.476 120.441 111.493 120.432 111.538H120.437Z" fill="#F09F79"/>
<path d="M119.895 125.352C120.649 125.352 121.26 124.737 121.26 123.978C121.26 123.219 120.649 122.604 119.895 122.604C119.141 122.604 118.529 123.219 118.529 123.978C118.529 124.737 119.141 125.352 119.895 125.352Z" fill="#EB704C"/>
<path d="M130.858 125.352C131.612 125.352 132.223 124.737 132.223 123.978C132.223 123.219 131.612 122.604 130.858 122.604C130.103 122.604 129.492 123.219 129.492 123.978C129.492 124.737 130.103 125.352 130.858 125.352Z" fill="#EB704C"/>
<path d="M125.616 121.557H125.462C125.224 121.557 125.03 121.751 125.03 121.991V123.219C125.03 123.459 125.224 123.653 125.462 123.653H125.616C125.854 123.653 126.048 123.459 126.048 123.219V121.991C126.048 121.751 125.854 121.557 125.616 121.557Z" fill="#EB704C"/>
<path d="M128.312 124.57H122.432C122.432 124.57 123.224 127.518 125.374 127.518C127.523 127.518 128.316 124.57 128.316 124.57H128.312Z" fill="white"/>
<path d="M118.868 121.099C118.868 121.099 119.432 120.075 120.564 120.018C121.696 119.96 122.092 121.099 122.092 121.099" stroke="#1A4557" stroke-linecap="square" stroke-linejoin="round"/>
<path d="M128.687 121.099C128.687 121.099 129.25 120.075 130.382 120.018C131.514 119.96 131.911 121.099 131.911 121.099" stroke="#1A4557" stroke-linecap="square" stroke-linejoin="round"/>
<path d="M120.326 132.146C120.326 132.146 120.19 134.979 119.895 136.429C119.895 136.429 123.022 137.603 125.378 133.72C125.378 133.72 121.322 133.689 120.331 132.146H120.326Z" fill="#CD7966"/>
<path d="M117.869 119.113C117.869 119.113 118.763 117.815 120.556 117.89" stroke="#E76259" stroke-width="2" stroke-miterlimit="10"/>
<path d="M129.541 117.419C129.541 117.419 131.188 117.273 132.333 118.501" stroke="#E76259" stroke-width="2" stroke-miterlimit="10"/>
<path d="M95.1199 152.441L90.7947 133.721L82.0605 135.937L85.0688 152.441H95.1199Z" fill="#E8AAC2"/>
<path d="M63.7861 154.659C63.7861 162.448 65.2793 171.89 65.2793 171.89H68.0717L66.3539 149.84C65.0018 149.814 63.7905 151.219 63.7905 154.663L63.7861 154.659Z" fill="#88CE98"/>
<path d="M69.904 154.659C69.6133 151.769 67.8912 149.867 66.3496 149.836L68.0674 171.886H71.0756C71.0756 171.886 70.1066 156.649 69.904 154.655V154.659Z" fill="#3A8F89"/>
<path d="M55.823 163.672C57.827 169.151 59.7606 171.886 59.7606 171.886H62.1963L55.9375 159.629C55.2196 160.063 54.9773 161.358 55.8274 163.667L55.823 163.672Z" fill="#88CE98"/>
<path d="M60.0464 162.303C58.8043 160.051 56.9192 159.036 55.9326 159.63L62.1914 171.887H65.2701C65.2701 171.887 61.3061 164.59 60.042 162.303H60.0464Z" fill="#3A8F89"/>
<path d="M76.7311 155.458C73.7756 160.866 70.001 171.891 70.001 171.891H73.4365L81.0078 152.767C79.8274 152.217 78.1273 152.9 76.7266 155.462L76.7311 155.458Z" fill="#88CE98"/>
<path d="M81.0118 152.762L73.4404 171.886H76.8055C76.8055 171.886 81.6724 159.319 82.1966 157.47C82.8704 155.094 82.1966 153.308 81.0162 152.758L81.0118 152.762Z" fill="#3A8F89"/>
<path d="M174.078 171.884C174.078 171.884 171.66 167.722 168.331 168.027C165.005 168.333 164.6 169.38 164.6 169.38C164.6 169.38 165.305 163.156 160.971 162.038C156.637 160.921 153.915 165.186 153.915 165.186C153.915 165.186 153.197 156.196 148.268 157.269C143.604 158.284 144.692 166.875 144.692 166.875C144.692 166.875 141.71 165.283 138.587 166.401C135.464 167.518 134.235 171.88 134.235 171.88H174.078V171.884Z" fill="#3A8F89"/>
<path d="M167.493 171.884C167.493 171.884 165.873 169.1 163.644 169.304C161.415 169.508 161.147 170.208 161.147 170.208C161.147 170.208 161.618 166.041 158.715 165.292C155.958 164.583 153.989 167.398 153.989 167.398C153.989 167.398 153.509 161.382 150.21 162.096C147.087 162.774 147.819 168.528 147.819 168.528C147.819 168.528 145.823 167.464 143.731 168.209C141.639 168.958 140.815 171.88 140.815 171.88H167.493V171.884Z" fill="#62BAA1"/>
<path d="M106.421 171.884C106.421 171.884 104.704 168.927 102.338 169.145C99.9732 169.362 99.687 170.107 99.687 170.107C99.687 170.107 100.189 165.687 97.1103 164.893C94.0316 164.1 92.098 167.128 92.098 167.128C92.098 167.128 91.5871 160.744 88.0899 161.507C84.7777 162.229 85.5529 168.329 85.5529 168.329C85.5529 168.329 83.4388 167.199 81.2189 167.992C78.999 168.786 78.127 171.884 78.127 171.884H106.421Z" fill="#49AF91"/>
<path d="M100.788 171.884C100.788 171.884 99.6384 169.907 98.0572 170.049C96.476 170.19 96.2822 170.691 96.2822 170.691C96.2822 170.691 96.6169 167.73 94.5556 167.203C92.4943 166.675 91.1994 168.696 91.1994 168.696C91.1994 168.696 90.8558 164.423 88.5127 164.933C86.2928 165.416 86.8125 169.499 86.8125 169.499C86.8125 169.499 85.3943 168.741 83.91 169.273C82.4256 169.805 81.8398 171.879 81.8398 171.879H100.784L100.788 171.884Z" fill="#368689"/>
<path d="M33.6729 171.886C33.6729 171.886 31.9551 168.929 29.5899 169.146L27.2247 169.364C27.2247 169.364 27.4405 165.689 24.3618 164.895C21.4328 164.142 19.6842 166.566 19.6842 166.566C19.6842 166.566 18.8386 160.746 15.337 161.508C12.0248 162.231 12.8 168.331 12.8 168.331C12.8 168.331 10.6858 167.2 8.46598 167.994C6.24611 168.787 5.37402 171.886 5.37402 171.886H33.6729Z" fill="#88CE98"/>
<path d="M173.784 131.631C174.273 132.066 174.652 132.367 174.652 132.367L178.964 132.886C178.964 132.886 179.356 132.562 179.884 132.092C179.329 131.525 178.33 130.953 176.55 130.918C175.313 130.891 174.423 131.206 173.784 131.631Z" fill="#CC4B48"/>
<path d="M182.461 128.72C181.672 128.072 178.88 130.342 178.88 130.342C178.88 130.342 180.311 127.062 179.312 126.92C178.307 126.774 177.101 129.97 177.101 129.97C177.101 129.97 176.158 126.556 175.229 126.614C174.299 126.672 175.229 130.143 175.229 130.143C175.229 130.143 172.722 127.784 171.793 128.578C171.154 129.119 172.731 130.692 173.788 131.632C174.427 131.207 175.317 130.892 176.554 130.918C178.334 130.958 179.329 131.526 179.889 132.093C181.1 131.016 183.011 129.172 182.465 128.72H182.461Z" fill="#E76259"/>
<path d="M176.74 131.25C174.515 131.25 172.696 133.081 172.696 135.319V171.883H180.787V135.319C180.787 133.081 178.968 131.25 176.744 131.25H176.74Z" fill="#6ACE9C"/>
<path d="M170.767 164.666H172.696V159.129H171.969L170.767 164.666Z" fill="#2D7C74"/>
<path d="M169.868 159.129C169.313 159.129 168.864 158.677 168.864 158.119V148.406C168.864 147.001 167.869 145.742 166.481 145.556C164.803 145.334 163.358 146.655 163.358 148.3V159.125C163.358 162.184 165.821 164.666 168.864 164.666H170.771L171.969 159.125H169.868V159.129Z" fill="#62BAA1"/>
<path d="M186.587 134.066C185.204 134.252 184.205 135.506 184.205 136.916V146.629C184.205 147.187 183.755 147.64 183.2 147.64H181.844L182.557 153.181H184.205C187.244 153.181 189.71 150.703 189.71 147.64V136.814C189.71 135.17 188.266 133.844 186.587 134.07V134.066Z" fill="#62BAA1"/>
<path d="M180.787 147.635V153.176H182.558L181.844 147.635H180.787Z" fill="#2D7C74"/>
<rect x="5.26172" y="13.2305" width="39.4631" height="39.6923" rx="19.7315" fill="#145234"/>
<path d="M24.9932 40.0762C28.3032 40.0762 30.9932 37.3862 30.9932 34.0762V29.0762C30.9932 25.7662 28.3032 23.0762 24.9932 23.0762C21.6832 23.0762 18.9932 25.7662 18.9932 29.0762V34.0762C18.9932 37.3862 21.6832 40.0762 24.9932 40.0762Z" stroke="#F2F2F2" stroke-linecap="round" stroke-linejoin="round"/>
<path d="M15.9932 32.0762V34.0762C15.9932 39.0462 20.0232 43.0762 24.9932 43.0762C29.9632 43.0762 33.9932 39.0462 33.9932 34.0762V32.0762" stroke="#F2F2F2" stroke-linecap="round" stroke-linejoin="round"/>
<path d="M22.1035 28.5559C23.8835 27.9059 25.8235 27.9059 27.6035 28.5559" stroke="#F2F2F2" stroke-linecap="round" stroke-linejoin="round"/>
<path d="M23.0234 31.5561C24.2234 31.2261 25.4934 31.2261 26.6934 31.5561" stroke="#F2F2F2" stroke-linecap="round" stroke-linejoin="round"/>
<rect x="152.591" y="65.4922" width="39.4631" height="39.6923" rx="19.7315" fill="#145234"/>
<path d="M172.852 93.758H166.532C163.372 93.758 162.322 91.658 162.322 89.548V81.128C162.322 77.968 163.372 76.918 166.532 76.918H172.852C176.012 76.918 177.062 77.968 177.062 81.128V89.548C177.062 92.708 176.002 93.758 172.852 93.758Z" stroke="#F2F2F2" stroke-linecap="round" stroke-linejoin="round"/>
<path d="M179.843 90.438L177.062 88.488V82.178L179.843 80.228C181.203 79.278 182.323 79.858 182.323 81.528V89.148C182.323 90.818 181.203 91.398 179.843 90.438Z" stroke="#F2F2F2" stroke-linecap="round" stroke-linejoin="round"/>
<path d="M171.822 84.3379C172.651 84.3379 173.322 83.6663 173.322 82.8379C173.322 82.0095 172.651 81.3379 171.822 81.3379C170.994 81.3379 170.322 82.0095 170.322 82.8379C170.322 83.6663 170.994 84.3379 171.822 84.3379Z" stroke="#F2F2F2" stroke-linecap="round" stroke-linejoin="round"/>
</g>
<defs>
<clipPath id="clip0_7011_77359">
<rect width="196" height="172" fill="white"/>
</clipPath>
</defs>
</svg>
