<svg width="298" height="261" viewBox="0 0 298 261" fill="none" xmlns="http://www.w3.org/2000/svg">
    <g clip-path="url(#clip0_3643_19618)">
        <path
            d="M298.321 198.093H227.115C227.115 198.093 228.856 183.056 243.013 188.504C243.013 188.504 241.272 173.902 254.042 171.724C266.357 169.62 268.273 183.27 268.273 183.27C268.273 183.27 270.958 178.425 276.55 181.092C281.124 183.27 280.903 189.81 280.903 189.81C280.903 189.81 291.791 184.798 298.321 198.093Z"
            fill="#BDE1EA" />
        <path d="M241.166 55.6875H242.84" stroke="#A7B1EF" stroke-linecap="round" stroke-linejoin="round" />
        <path d="M246.121 55.6875C250.615 55.7746 254.224 59.4468 254.224 63.9633V121.807" stroke="#A7B1EF"
            stroke-linecap="round" stroke-linejoin="round" />
        <path d="M254.23 123.449V125.124" stroke="#A7B1EF" stroke-linecap="round" stroke-linejoin="round" />
        <path d="M34.4414 125.124V123.449" stroke="#A7B1EF" stroke-linecap="round" stroke-linejoin="round" />
        <path d="M34.4414 120.017V66.1809C34.4414 61.6108 39.7451 57.8984 42.7184 57.8984H43.0667" stroke="#A7B1EF"
            stroke-linecap="round" stroke-linejoin="round" />
        <path d="M44.7812 57.9062H46.4554" stroke="#A7B1EF" stroke-linecap="round" stroke-linejoin="round" />
        <path
            d="M232.707 0.5H60.2156C55.7775 0.5 52.1797 4.10018 52.1797 8.54124V111.482C52.1797 115.924 55.7775 119.524 60.2156 119.524H232.707C237.146 119.524 240.743 115.924 240.743 111.482V8.54124C240.743 4.10018 237.146 0.5 232.707 0.5Z"
            fill="#1A4557" />
        <path
            d="M237.395 111.484V8.54228C237.395 5.95167 235.296 3.85156 232.707 3.85156L60.2151 3.85156C57.6262 3.85156 55.5275 5.95167 55.5275 8.54228V111.484C55.5275 114.074 57.6262 116.174 60.2151 116.174L232.707 116.174C235.296 116.174 237.395 114.074 237.395 111.484Z"
            fill="#88CE98" />
        <path
            d="M149.166 89.6328L146.461 104.596C146.461 104.596 147.425 108.376 158.89 108.228C170.355 108.081 170.502 104.596 170.502 104.596L167.535 89.6328H149.166Z"
            fill="#F09F79" />
        <path
            d="M148.182 89.632C139.832 89.632 132.954 83.065 132.579 74.7155C132.01 62.131 132.8 45.6598 132.8 42.1351C132.8 33.6717 139.986 28.1902 146.461 31.9696C146.461 31.9696 148.912 26.1799 156.567 26.2268C162.553 26.2671 169.484 29.316 177.031 31.9696C182.282 33.8124 190.639 36.9083 185.268 44.4604C185.268 44.4604 184.786 71.164 184.706 76.3238C184.585 83.7083 177.701 89.632 170.315 89.632H148.176H148.182Z"
            fill="#095D83" />
        <path
            d="M158.482 43.1562C149.964 46.8217 145.973 44.0274 145.973 44.0274C145.009 46.8351 141.988 48.5372 140.08 49.3681C139.102 49.7903 138.426 50.7485 138.426 51.8207C138.426 51.8207 138.426 51.8341 138.426 51.8408V71.7026C138.426 83.0877 147.734 92.4021 159.112 92.4021C170.489 92.4021 178.907 84.6758 179.798 71.7026C181.391 48.3898 174.809 49.4083 174.809 49.4083C168.226 50.2794 160.491 48.9459 158.489 43.1629L158.482 43.1562Z"
            fill="#F09F79" />
        <path
            d="M147.291 72.5663C152.191 72.5663 156.164 68.5911 156.164 63.6875C156.164 58.7838 152.191 54.8086 147.291 54.8086C142.391 54.8086 138.418 58.7838 138.418 63.6875C138.418 68.5911 142.391 72.5663 147.291 72.5663Z"
            stroke="#1A4557" stroke-miterlimit="10" />
        <path
            d="M171.332 72.5663C176.232 72.5663 180.205 68.5911 180.205 63.6875C180.205 58.7838 176.232 54.8086 171.332 54.8086C166.432 54.8086 162.459 58.7838 162.459 63.6875C162.459 68.5911 166.432 72.5663 171.332 72.5663Z"
            stroke="#1A4557" stroke-miterlimit="10" />
        <path d="M162.459 63.6875H156.164" stroke="#1A4557" stroke-miterlimit="10" />
        <path
            d="M147.063 65.1742C147.78 65.1742 148.362 64.5922 148.362 63.8742C148.362 63.1563 147.78 62.5742 147.063 62.5742C146.345 62.5742 145.764 63.1563 145.764 63.8742C145.764 64.5922 146.345 65.1742 147.063 65.1742Z"
            fill="#1A4557" />
        <path
            d="M171.217 65.1742C171.935 65.1742 172.516 64.5922 172.516 63.8742C172.516 63.1563 171.935 62.5742 171.217 62.5742C170.5 62.5742 169.918 63.1563 169.918 63.8742C169.918 64.5922 170.5 65.1742 171.217 65.1742Z"
            fill="#1A4557" />
        <path
            d="M158.696 70.3867L153.533 72.2764C153.158 72.4104 153.084 72.9063 153.399 73.1542C154.396 73.9316 156.513 75.2182 159.687 75.2919C162.861 75.3656 165.198 74.1594 166.33 73.4089C166.678 73.1811 166.625 72.6584 166.236 72.5109L160.678 70.3867H158.696Z"
            fill="#095D83" />
        <path
            d="M153.09 75.5998C152.909 75.0369 153.492 74.5344 154.021 74.8024C155.273 75.4323 157.282 76.29 159.311 76.4911C161.555 76.7122 164.334 75.5328 165.888 74.7488C166.403 74.4875 166.972 74.9699 166.818 75.5261C166.269 77.5096 164.649 80.8467 159.914 80.8467C155.447 80.8467 153.726 77.59 153.09 75.5998Z"
            fill="white" />
        <path
            d="M157.349 108.858C165.733 108.999 170.916 105.179 173.287 102.847C172.169 102.425 171.265 102.077 170.675 101.849C170.233 101.675 169.744 101.829 169.456 102.204C168.331 103.665 164.842 106.995 156.853 106.191C149.782 105.481 147.672 103.511 147.049 102.372C146.802 101.923 146.266 101.708 145.777 101.869C145.188 102.063 144.357 102.338 143.373 102.666C144.927 104.891 148.837 108.711 157.349 108.858Z"
            fill="#1A4557" />
        <path
            d="M183.855 106.628C179.864 105.295 175.946 103.854 173.287 102.849C170.917 105.181 165.734 109 157.349 108.86C148.838 108.719 144.927 104.893 143.374 102.668C138.365 104.33 129.11 107.439 124.489 109.268C117.96 111.855 114.766 116.171 114.766 116.171H199.947C199.947 116.171 197.797 111.272 183.861 106.628H183.855Z"
            fill="#F9F8D9" />
        <path
            d="M160.678 67.3785C160.678 66.8307 160.234 66.3867 159.686 66.3867C159.139 66.3867 158.695 66.8307 158.695 67.3785V69.831C158.695 70.3788 159.139 70.8228 159.686 70.8228C160.234 70.8228 160.678 70.3788 160.678 69.831V67.3785Z"
            fill="#EB704C" />
        <path
            d="M145.765 80.4831C147.71 80.4831 149.287 78.905 149.287 76.9583C149.287 75.0117 147.71 73.4336 145.765 73.4336C143.819 73.4336 142.242 75.0117 142.242 76.9583C142.242 78.905 143.819 80.4831 145.765 80.4831Z"
            fill="#EB704C" />
        <path
            d="M172.015 80.4831C173.96 80.4831 175.537 78.905 175.537 76.9583C175.537 75.0117 173.96 73.4336 172.015 73.4336C170.069 73.4336 168.492 75.0117 168.492 76.9583C168.492 78.905 170.069 80.4831 172.015 80.4831Z"
            fill="#EB704C" />
        <path
            d="M148.402 93.8344L149.159 89.6328C149.159 89.6328 154.115 92.3735 161.099 92.3936C161.099 92.3936 155.842 96.4813 148.402 93.8344Z"
            fill="#CD7966" />
        <path d="M143.957 60.9402C143.957 60.9402 145.316 58.9768 148.042 59.0907" stroke="#051A82"
            stroke-linecap="round" stroke-linejoin="round" />
        <path d="M170.4 58.7348C170.4 58.7348 172.905 58.5136 174.646 60.3698" stroke="#051A82" stroke-linecap="round"
            stroke-linejoin="round" />
        <path
            d="M87.3578 129.449H34.6219C30.1838 129.449 26.5859 133.049 26.5859 137.49V252.286C26.5859 256.727 30.1838 260.327 34.6219 260.327H87.3578C91.796 260.327 95.3938 256.727 95.3938 252.286V137.49C95.3938 133.049 91.796 129.449 87.3578 129.449Z"
            fill="#1A4557" />
        <path
            d="M92.0449 252.295L92.0449 137.499C92.0449 134.909 89.9462 132.809 87.3573 132.809H34.6213C32.0324 132.809 29.9337 134.909 29.9337 137.499L29.9337 252.295C29.9337 254.885 32.0324 256.985 34.6213 256.985H87.3573C89.9462 256.985 92.0449 254.885 92.0449 252.295Z"
            fill="#62BAA1" />
        <path
            d="M92.0397 160.289H70.5703C70.5703 160.289 72.4789 155.277 77.8094 157.347C77.8094 157.347 76.9388 151.792 83.9033 153.534C83.9033 153.534 83.7292 145.909 92.0397 148.086V160.289Z"
            fill="white" />
        <path
            d="M29.9336 151.724H48.4498C48.4498 151.724 46.6752 146.028 43.0322 145.11C39.3892 144.192 36.4829 146.001 36.4829 146.001C36.4829 146.001 35.3846 138.496 29.9336 138.496V151.724Z"
            fill="white" />
        <path
            d="M76.028 230.071C72.2176 227.13 73.1953 222.01 75.5927 218.197C77.9901 214.384 74.7222 193.383 74.7222 193.383C67.4295 192.211 62.5477 185.402 62.5477 185.402L60.1302 187.145C60.1302 187.145 55.2484 193.946 47.9557 195.126C47.9557 195.126 44.6878 214.384 47.0852 218.197C49.4826 222.01 50.4603 227.13 46.6499 230.071C42.8395 233.013 42.7324 234.575 43.8172 238.26C44.2123 239.6 44.9356 240.981 45.4713 242.368C51.9737 240.297 59.6614 235.841 61.3289 234.849C63.0031 235.841 70.7042 240.297 77.2066 242.375C77.7423 240.987 78.4656 239.6 78.8607 238.26C79.9522 234.575 79.8384 233.013 76.028 230.071Z"
            fill="#14303A" />
        <path
            d="M82.9782 233.992C82.9782 233.992 86.5743 233.261 86.2462 230.212C85.918 227.163 83.5273 227.344 83.5273 227.344L79.7906 186.193C78.6455 176.979 70.7435 169.789 61.241 169.789C51.7384 169.789 43.7226 177.08 42.6645 186.388V186.428C42.631 186.729 42.6042 187.031 42.5841 187.332L39.1421 227.344C39.1421 227.344 36.7447 227.157 36.4232 230.212C36.0951 233.261 39.6912 233.992 39.6912 233.992C39.6912 233.992 33.5705 237.007 36.3228 241.839C37.5885 244.057 41.285 243.708 45.4771 242.368C44.9414 240.981 44.2181 239.6 43.823 238.26C42.7315 234.575 42.8453 233.013 46.6557 230.072C50.4661 227.13 49.4884 222.01 47.091 218.197C44.6936 214.384 47.9615 195.126 47.9615 195.126C55.2542 193.953 60.136 187.145 60.136 187.145L62.5535 185.402C62.5535 185.402 67.4353 192.204 74.728 193.383C74.728 193.383 77.9959 214.391 75.5985 218.197C73.2011 222.01 72.2234 227.13 76.0338 230.072C79.8442 233.013 79.9513 234.575 78.8665 238.26C78.4714 239.6 77.7481 240.988 77.2124 242.375C81.3978 243.708 85.0877 244.057 86.3533 241.839C89.1056 237.007 82.9849 233.992 82.9849 233.992H82.9782Z"
            fill="#1A4557" />
        <path
            d="M60.9863 252.839C66.8392 252.839 70.9911 238.351 71.9219 234.78C71.8617 234.733 71.7947 234.686 71.7344 234.646C71.6808 234.606 71.634 234.552 71.5804 234.512C70.0937 239.102 65.7476 251.278 60.9863 252.839Z"
            fill="#CD7966" />
        <path
            d="M74.5206 208.171V193.382C66.6253 191.572 62.4332 180.609 62.4332 180.609C62.4332 180.609 59.4264 192.323 47.9551 195.124V208.171C47.9551 213.062 50.6404 217.351 54.6048 219.656C54.5245 223.65 53.9017 231.879 50.2453 234.64C50.1984 234.673 50.1516 234.707 50.1047 234.74C51.0087 238.238 55.1205 252.833 60.9934 252.833C65.7547 251.265 70.1008 239.089 71.5875 234.506C68.1521 231.691 67.4891 223.958 67.382 219.931C71.6143 217.7 74.5206 213.257 74.5206 208.164V208.171Z"
            fill="#EB926A" />
        <path
            d="M60.98 254.411C66.9132 254.411 71.3464 241.652 73.121 235.574C72.6924 235.313 72.2906 235.052 71.9223 234.783C70.9848 238.355 66.8328 252.843 60.9867 252.843C55.1405 252.843 51.002 238.248 50.098 234.75C49.7297 235.018 49.3279 235.286 48.8926 235.554C50.6404 241.619 55.0334 254.418 60.9733 254.418L60.98 254.411Z"
            fill="#1A4557" />
        <path
            d="M73.1212 235.574C71.3466 241.651 66.9134 254.41 60.9802 254.41C55.047 254.41 50.6473 241.618 48.8995 235.547C43.435 238.877 29.9346 241.725 29.9346 241.725C29.1578 253.573 30.1824 256.977 33.2294 256.977H88.7511C88.7511 256.977 90.7802 256.749 91.6976 254.169C92.6151 251.589 92.0458 244.553 92.0458 241.799C92.0458 241.799 78.599 238.891 73.1279 235.574H73.1212Z"
            fill="#FAC22F" />
        <path
            d="M54.6102 219.664H54.6035C54.6035 219.664 56.0098 223.913 59.4385 223.913C62.3113 223.913 64.6217 221.808 65.6597 220.683C64.2734 221.178 62.7868 221.46 61.2399 221.46C58.8291 221.46 56.5656 220.797 54.6169 219.664H54.6102Z"
            fill="#CD7966" />
        <path
            d="M52.3343 210.223C53.6732 210.223 54.7585 209.137 54.7585 207.797C54.7585 206.457 53.6732 205.371 52.3343 205.371C50.9955 205.371 49.9102 206.457 49.9102 207.797C49.9102 209.137 50.9955 210.223 52.3343 210.223Z"
            fill="#EB704C" />
        <path
            d="M69.6996 210.223C71.0384 210.223 72.1237 209.137 72.1237 207.797C72.1237 206.457 71.0384 205.371 69.6996 205.371C68.3607 205.371 67.2754 206.457 67.2754 207.797C67.2754 209.137 68.3607 210.223 69.6996 210.223Z"
            fill="#EB704C" />
        <path
            d="M62.4328 201.271C62.4328 200.871 62.109 200.547 61.7096 200.547C61.3101 200.547 60.9863 200.871 60.9863 201.271V203.308C60.9863 203.707 61.3101 204.031 61.7096 204.031C62.109 204.031 62.4328 203.707 62.4328 203.308V201.271Z"
            fill="#EB704C" />
        <path
            d="M53.0374 200.549C53.7549 200.549 54.3366 199.967 54.3366 199.249C54.3366 198.531 53.7549 197.949 53.0374 197.949C52.3199 197.949 51.7383 198.531 51.7383 199.249C51.7383 199.967 52.3199 200.549 53.0374 200.549Z"
            fill="#1A4557" />
        <path
            d="M69.6995 200.549C70.417 200.549 70.9987 199.967 70.9987 199.249C70.9987 198.531 70.417 197.949 69.6995 197.949C68.982 197.949 68.4004 198.531 68.4004 199.249C68.4004 199.967 68.982 200.549 69.6995 200.549Z"
            fill="#1A4557" />
        <path
            d="M58.3019 207.801C58.1412 207.801 58.0408 207.975 58.1144 208.116C58.4627 208.772 59.4872 210.227 61.7105 210.227C63.9338 210.227 64.8914 208.759 65.2329 208.109C65.3066 207.968 65.1995 207.801 65.0454 207.801H58.3019Z"
            fill="white" />
        <path d="M49.9102 197.225C49.9102 197.225 51.2696 195.262 53.9951 195.376" stroke="#1A4557"
            stroke-linecap="round" stroke-linejoin="round" />
        <path d="M67.6562 194.664C67.6562 194.664 70.1608 194.443 71.9019 196.299" stroke="#1A4557"
            stroke-linecap="round" stroke-linejoin="round" />
        <path
            d="M250.267 129.41H112.825C108.387 129.41 104.789 133.01 104.789 137.451V226.247C104.789 230.688 108.387 234.288 112.825 234.288H250.267C254.705 234.288 258.303 230.688 258.303 226.247V137.451C258.303 133.01 254.705 129.41 250.267 129.41Z"
            fill="#1A4557" />
        <path
            d="M254.955 226.256V137.46C254.955 134.87 252.856 132.77 250.267 132.77H112.826C110.237 132.77 108.138 134.87 108.138 137.46V226.256C108.138 228.846 110.237 230.946 112.826 230.946H250.267C252.856 230.946 254.955 228.846 254.955 226.256Z"
            fill="#3A8F89" />
        <path d="M197.168 234.289H165.922V260.336H197.168V234.289Z" fill="#14303A" />
        <path
            d="M201.374 254.953H161.717C160.234 254.953 159.031 256.156 159.031 257.64C159.031 259.124 160.234 260.327 161.717 260.327H201.374C202.857 260.327 204.059 259.124 204.059 257.64C204.059 256.156 202.857 254.953 201.374 254.953Z"
            fill="#1A4557" />
        <path
            d="M134.308 195.716C133.926 194.604 128.442 193.283 126.573 192.7C124.705 192.117 116.964 185.671 115.551 186.247C114.131 186.83 114.452 188.057 116.649 190.248C118.845 192.439 122.642 196.245 123.613 196.895C124.578 197.539 126.774 198.249 126.902 199.281C126.955 199.73 127.27 201.499 127.611 203.342L136.076 202.645C135.54 200.219 134.85 197.277 134.321 195.709L134.308 195.716Z"
            fill="#F09F79" />
        <path
            d="M127.598 203.343C128.033 205.728 128.502 208.248 128.502 208.248L136.886 206.572C136.886 206.572 136.538 204.817 136.062 202.652L127.598 203.349V203.343Z"
            fill="#CD7966" />
        <path
            d="M240.404 190.477C240.229 188.547 241.261 183.997 241.723 180.734C242.218 177.249 239.895 178.174 239.767 179.662C239.687 180.634 238.301 185.639 238.301 185.639C238.301 185.639 238.763 179.662 238.609 177.926C238.455 176.191 236.66 176.419 236.674 178.034C236.687 179.648 235.468 186.122 235.468 186.122C235.468 186.122 235.301 179.796 235.187 178.509C234.912 175.427 232.763 176.264 232.749 178.322C232.743 179.997 232.488 187.67 232.488 187.67C232.488 187.67 231.631 182.436 231.182 179.622C230.734 176.814 228.477 177.886 228.584 179.528C228.671 180.814 229.562 190.451 229.562 190.451C229.562 190.451 228.577 189.734 227.948 188.467C227.318 187.201 226.106 187.482 225.698 188.246C225.196 189.177 226.742 191.65 227.566 193.412C228.356 195.114 231.444 196.951 231.444 196.951L231.966 198.941L241.482 196.884C241.04 194.558 240.504 191.576 240.404 190.464V190.477Z"
            fill="#F09F79" />
        <path
            d="M231.967 198.956L233.119 203.358L242.072 199.941C242.072 199.941 241.804 198.594 241.483 196.898L231.967 198.956Z"
            fill="#CD7966" />
        <path
            d="M231.73 230.936C231.73 230.936 233.15 209.279 229.406 200.896L243.717 196.641C243.717 196.641 249.135 210.271 246.422 230.943H231.723L231.73 230.936Z"
            fill="#E8AAC2" />
        <path
            d="M177.353 181.516C174.32 185.288 172.331 187.252 171.38 191.031C170.436 194.817 176.67 201.223 172.478 203.616C168.286 206.008 162.869 210.176 163.21 216.783C163.458 221.548 165.179 227.398 161.67 230.936H197.51L198.783 226.962L183.106 169.105C183.106 169.105 181.867 175.907 177.347 181.522L177.353 181.516Z"
            fill="#C65359" />
        <path
            d="M209.035 169.456C209.035 169.456 213.161 162.185 207.361 156.121C203.116 151.684 195.113 150.699 184.968 154.747C174.822 158.788 168.38 170.387 167.516 180.331C166.659 190.276 166.827 193.197 162.614 195.007C158.402 196.816 151.893 201.393 151.726 206.64C151.552 211.887 153.226 214.299 149.549 217.804C145.873 221.308 143.402 227.694 147.333 230.944H161.677C165.186 227.406 163.465 221.556 163.217 216.792C162.876 210.191 168.287 206.016 172.485 203.624C176.677 201.232 170.443 194.826 171.387 191.04C172.331 187.254 174.327 185.29 177.36 181.524C181.874 175.915 183.12 169.107 183.12 169.107L198.796 226.964L202.218 216.256C202.218 216.256 209.504 212.831 211.024 203.872C213.174 191.2 209.049 169.462 209.049 169.462L209.035 169.456Z"
            fill="#E76259" />
        <path
            d="M190.674 215.152C195.81 214.998 199.038 214.194 200.832 213.55C200.384 212.599 200.042 211.54 199.835 210.314C198.542 202.574 198.201 198.098 198.201 198.098L182.986 198.701C182.986 198.701 182.986 208.826 180.1 213.523C181.794 214.294 185.115 215.313 190.674 215.145V215.152Z"
            fill="#F09F79" />
        <path
            d="M202.206 215.716C201.67 215.072 201.214 214.355 200.833 213.551C199.038 214.195 195.817 214.999 190.674 215.153C185.116 215.314 181.787 214.295 180.1 213.531C179.852 213.933 179.584 214.309 179.29 214.624C179.182 214.737 179.062 214.858 178.941 214.972C180.662 215.709 184.674 217.116 190.279 217.123C195.495 217.123 199.815 216.299 202.206 215.729V215.716Z"
            fill="#C78FC2" />
        <path
            d="M215.839 222.623C209.939 220.552 205.031 219.118 202.205 215.714C199.814 216.291 195.495 217.115 190.278 217.108C184.673 217.108 180.662 215.701 178.941 214.957C174.903 218.757 163.552 221.826 157.799 224.245C150.935 227.133 147.828 230.932 147.828 230.932H230.525C230.525 230.932 224.176 225.538 215.839 222.616V222.623Z"
            fill="#E8AAC2" />
        <path
            d="M183.112 169.108C182.074 174.187 178.545 179.742 177.353 181.525C177.092 181.913 176.951 182.369 176.951 182.838V188.963C176.951 196.488 183.099 202.64 190.619 202.64C198.139 202.64 204.287 196.488 204.287 188.963V178.811C204.287 177.598 203.336 176.613 202.124 176.539C189.548 175.782 184.05 169.999 183.246 169.068C183.199 169.014 183.119 169.041 183.105 169.108H183.112Z"
            fill="#F09F79" />
        <path
            d="M182.289 189.987C183.435 189.987 184.365 189.057 184.365 187.909C184.365 186.762 183.435 185.832 182.289 185.832C181.142 185.832 180.213 186.762 180.213 187.909C180.213 189.057 181.142 189.987 182.289 189.987Z"
            fill="#EB704C" />
        <path
            d="M198.957 189.987C200.103 189.987 201.033 189.057 201.033 187.909C201.033 186.762 200.103 185.832 198.957 185.832C197.81 185.832 196.881 186.762 196.881 187.909C196.881 189.057 197.81 189.987 198.957 189.987Z"
            fill="#EB704C" />
        <path
            d="M190.988 184.25H190.754C190.391 184.25 190.098 184.544 190.098 184.907V186.763C190.098 187.126 190.391 187.42 190.754 187.42H190.988C191.351 187.42 191.645 187.126 191.645 186.763V184.907C191.645 184.544 191.351 184.25 190.988 184.25Z"
            fill="#EB704C" />
        <path
            d="M195.086 188.805H186.146C186.146 188.805 187.352 193.261 190.62 193.261C193.888 193.261 195.093 188.805 195.093 188.805H195.086Z"
            fill="white" />
        <path
            d="M180.729 183.56C180.729 183.56 181.586 182.012 183.307 181.925C185.028 181.838 185.63 183.56 185.63 183.56"
            stroke="#1A4557" stroke-linecap="square" stroke-linejoin="round" />
        <path
            d="M195.656 183.56C195.656 183.56 196.513 182.012 198.234 181.925C199.955 181.838 200.558 183.56 200.558 183.56"
            stroke="#1A4557" stroke-linecap="square" stroke-linejoin="round" />
        <path
            d="M182.945 200.262C182.945 200.262 182.738 204.544 182.289 206.735C182.289 206.735 187.044 208.511 190.626 202.641C190.626 202.641 184.459 202.594 182.952 200.262H182.945Z"
            fill="#CD7966" />
        <path d="M179.209 180.561C179.209 180.561 180.568 178.598 183.294 178.712" stroke="#E76259" stroke-width="2"
            stroke-miterlimit="10" />
        <path d="M196.955 178C196.955 178 199.46 177.779 201.201 179.635" stroke="#E76259" stroke-width="2"
            stroke-miterlimit="10" />
        <path d="M144.621 230.939L138.045 202.641L124.766 205.991L129.339 230.939H144.621Z" fill="#E8AAC2" />
        <path
            d="M96.9805 234.285C96.9805 246.058 99.2506 260.331 99.2506 260.331H103.496L100.885 227.001C98.8287 226.96 96.9872 229.085 96.9872 234.291L96.9805 234.285Z"
            fill="#88CE98" />
        <path
            d="M106.281 234.287C105.839 229.918 103.221 227.043 100.877 226.996L103.489 260.327H108.062C108.062 260.327 106.589 237.296 106.281 234.28V234.287Z"
            fill="#3A8F89" />
        <path
            d="M84.8733 247.908C87.9203 256.191 90.8601 260.325 90.8601 260.325H94.5633L85.0474 241.797C83.9559 242.454 83.5876 244.41 84.88 247.902L84.8733 247.908Z"
            fill="#88CE98" />
        <path
            d="M91.2957 245.84C89.4072 242.436 86.5411 240.901 85.041 241.799L94.5569 260.327H99.2379C99.2379 260.327 93.2109 249.298 91.289 245.84H91.2957Z"
            fill="#3A8F89" />
        <path
            d="M116.662 235.492C112.169 243.667 106.43 260.332 106.43 260.332H111.653L123.165 231.424C121.37 230.593 118.785 231.625 116.655 235.498L116.662 235.492Z"
            fill="#88CE98" />
        <path
            d="M123.172 231.417L111.66 260.325H116.776C116.776 260.325 124.176 241.328 124.973 238.533C125.998 234.942 124.973 232.241 123.178 231.41L123.172 231.417Z"
            fill="#3A8F89" />
        <path
            d="M264.671 260.325C264.671 260.325 260.995 254.033 255.932 254.495C250.876 254.958 250.26 256.539 250.26 256.539C250.26 256.539 251.332 247.131 244.742 245.442C238.153 243.754 234.014 250.2 234.014 250.2C234.014 250.2 232.923 236.61 225.429 238.232C218.337 239.767 219.992 252.753 219.992 252.753C219.992 252.753 215.458 250.348 210.71 252.036C205.962 253.725 204.094 260.319 204.094 260.319H264.671V260.325Z"
            fill="#3A8F89" />
        <path
            d="M254.659 260.326C254.659 260.326 252.195 256.118 248.806 256.426C245.418 256.734 245.009 257.793 245.009 257.793C245.009 257.793 245.726 251.494 241.313 250.362C237.121 249.29 234.127 253.545 234.127 253.545C234.127 253.545 233.397 244.451 228.382 245.53C223.634 246.556 224.745 255.254 224.745 255.254C224.745 255.254 221.712 253.645 218.531 254.771C215.35 255.904 214.098 260.32 214.098 260.32H254.659V260.326Z"
            fill="#62BAA1" />
        <path
            d="M161.804 260.326C161.804 260.326 159.193 255.856 155.597 256.184C152 256.513 151.565 257.639 151.565 257.639C151.565 257.639 152.329 250.958 147.648 249.758C142.967 248.559 140.027 253.135 140.027 253.135C140.027 253.135 139.25 243.486 133.933 244.639C128.897 245.731 130.076 254.951 130.076 254.951C130.076 254.951 126.861 253.243 123.486 254.442C120.111 255.642 118.785 260.326 118.785 260.326H161.804Z"
            fill="#49AF91" />
        <path
            d="M153.239 260.325C153.239 260.325 151.491 257.336 149.087 257.551C146.683 257.765 146.388 258.522 146.388 258.522C146.388 258.522 146.897 254.046 143.763 253.249C140.629 252.451 138.66 255.507 138.66 255.507C138.66 255.507 138.138 249.047 134.575 249.818C131.2 250.548 131.99 256.72 131.99 256.72C131.99 256.72 129.834 255.574 127.577 256.378C125.32 257.182 124.43 260.318 124.43 260.318H153.232L153.239 260.325Z"
            fill="#368689" />
        <path
            d="M51.1958 260.326C51.1958 260.326 48.5841 255.857 44.988 256.185L41.3919 256.513C41.3919 256.513 41.72 250.958 37.0391 249.759C32.5858 248.62 29.9273 252.285 29.9273 252.285C29.9273 252.285 28.6415 243.487 23.3177 244.639C18.2818 245.732 19.4604 254.952 19.4604 254.952C19.4604 254.952 16.2461 253.243 12.871 254.443C9.49585 255.642 8.16992 260.326 8.16992 260.326H51.1958Z"
            fill="#88CE98" />
        <path
            d="M264.223 199.48C264.966 200.136 265.542 200.592 265.542 200.592L272.098 201.376C272.098 201.376 272.694 200.887 273.497 200.177C272.654 199.319 271.134 198.454 268.428 198.401C266.546 198.361 265.194 198.836 264.223 199.48Z"
            fill="#CC4B48" />
        <path
            d="M277.414 195.079C276.216 194.1 271.97 197.531 271.97 197.531C271.97 197.531 274.146 192.572 272.626 192.358C271.099 192.137 269.265 196.968 269.265 196.968C269.265 196.968 267.831 191.809 266.418 191.896C265.006 191.983 266.418 197.23 266.418 197.23C266.418 197.23 262.608 193.665 261.195 194.864C260.224 195.682 262.622 198.061 264.229 199.481C265.2 198.838 266.552 198.362 268.434 198.402C271.14 198.463 272.653 199.32 273.504 200.178C275.345 198.55 278.251 195.762 277.421 195.079H277.414Z"
            fill="#E76259" />
        <path
            d="M268.716 198.906C265.334 198.906 262.568 201.674 262.568 205.058V260.328H274.87V205.058C274.87 201.674 272.104 198.906 268.723 198.906H268.716Z"
            fill="#6ACE9C" />
        <path d="M259.635 249.416H262.568V241.047H261.463L259.635 249.416Z" fill="#2D7C74" />
        <path
            d="M258.269 241.048C257.425 241.048 256.742 240.364 256.742 239.52V224.838C256.742 222.714 255.228 220.81 253.119 220.529C250.568 220.194 248.371 222.191 248.371 224.677V241.041C248.371 245.665 252.115 249.417 256.742 249.417H259.642L261.463 241.041H258.269V241.048Z"
            fill="#62BAA1" />
        <path
            d="M283.689 203.16C281.586 203.442 280.066 205.338 280.066 207.469V222.151C280.066 222.995 279.383 223.679 278.539 223.679H276.477L277.561 232.055H280.066C284.687 232.055 288.437 228.309 288.437 223.679V207.315C288.437 204.829 286.24 202.825 283.689 203.167V203.16Z"
            fill="#62BAA1" />
        <path d="M274.869 223.672V232.048H277.561L276.476 223.672H274.869Z" fill="#2D7C74" />
        <rect x="8" y="20.5" width="60" height="60" rx="30" fill="#CC0000" />
        <path
            d="M38 62.1654C43.5167 62.1654 48 57.682 48 52.1654V43.832C48 38.3154 43.5167 33.832 38 33.832C32.4833 33.832 28 38.3154 28 43.832V52.1654C28 57.682 32.4833 62.1654 38 62.1654Z"
            stroke="#F2F2F2" stroke-width="2" stroke-linecap="round" stroke-linejoin="round" />
        <path d="M23 48.832V52.1654C23 60.4487 29.7167 67.1654 38 67.1654C46.2833 67.1654 53 60.4487 53 52.1654V48.832"
            stroke="#F2F2F2" stroke-width="2" stroke-linecap="round" stroke-linejoin="round" />
        <path d="M33.1836 42.9648C36.1503 41.8815 39.3836 41.8815 42.3503 42.9648" stroke="#F2F2F2" stroke-width="2"
            stroke-linecap="round" stroke-linejoin="round" />
        <path d="M34.7168 47.9672C36.7168 47.4172 38.8335 47.4172 40.8335 47.9672" stroke="#F2F2F2" stroke-width="2"
            stroke-linecap="round" stroke-linejoin="round" />
        <rect x="232" y="99.5" width="60" height="60" rx="30" fill="#CC0000" />
        <path
            d="M262.884 143.532H252.351C247.084 143.532 245.334 140.032 245.334 136.515V122.482C245.334 117.215 247.084 115.465 252.351 115.465H262.884C268.151 115.465 269.901 117.215 269.901 122.482V136.515C269.901 141.782 268.134 143.532 262.884 143.532Z"
            stroke="#F2F2F2" stroke-width="2" stroke-linecap="round" stroke-linejoin="round" />
        <path
            d="M274.534 138L269.9 134.75V124.234L274.534 120.984C276.8 119.4 278.667 120.367 278.667 123.15V135.85C278.667 138.634 276.8 139.6 274.534 138Z"
            stroke="#F2F2F2" stroke-width="2" stroke-linecap="round" stroke-linejoin="round" />
        <path
            d="M261.166 127.832C262.547 127.832 263.666 126.713 263.666 125.332C263.666 123.951 262.547 122.832 261.166 122.832C259.785 122.832 258.666 123.951 258.666 125.332C258.666 126.713 259.785 127.832 261.166 127.832Z"
            stroke="#F2F2F2" stroke-width="2" stroke-linecap="round" stroke-linejoin="round" />
    </g>
    <defs>
        <clipPath id="clip0_3643_19618">
            <rect width="298" height="260" fill="white" transform="translate(0 0.5)" />
        </clipPath>
    </defs>
</svg>