<svg width="25" height="24" viewBox="0 0 25 24" fill="none" xmlns="http://www.w3.org/2000/svg">
<path d="M9.37207 14.3298C9.37207 15.6198 10.3621 16.6598 11.5921 16.6598H14.1021C15.1721 16.6598 16.0421 15.7498 16.0421 14.6298C16.0421 13.4098 15.5121 12.9798 14.7221 12.6998L10.6921 11.2998C9.90207 11.0198 9.37207 10.5898 9.37207 9.36984C9.37207 8.24984 10.2421 7.33984 11.3121 7.33984H13.8221C15.0521 7.33984 16.0421 8.37984 16.0421 9.66984" stroke="#0D0D0D" stroke-width="1.5" stroke-linecap="round" stroke-linejoin="round"/>
<path d="M12.7002 6V18" stroke="#0D0D0D" stroke-width="1.5" stroke-linecap="round" stroke-linejoin="round"/>
<path d="M12.7002 22C18.223 22 22.7002 17.5228 22.7002 12C22.7002 6.47715 18.223 2 12.7002 2C7.17735 2 2.7002 6.47715 2.7002 12C2.7002 17.5228 7.17735 22 12.7002 22Z" stroke="#0D0D0D" stroke-width="1.5" stroke-linecap="round" stroke-linejoin="round"/>
</svg>
