<svg width="100%" height="100%" viewBox="0 0 21 22" fill="none" xmlns="http://www.w3.org/2000/svg">
    <path
        d="M5.78392 16.344L5.78344 16.3439C5.68613 16.3089 5.59326 16.2484 5.50505 16.1591L1.32719 11.9264C1.17085 11.768 1.09333 11.5618 1.10045 11.2976C1.10825 11.0326 1.1935 10.8243 1.35148 10.6642C1.50911 10.5045 1.70935 10.4233 1.96043 10.4233C2.2115 10.4233 2.41174 10.5045 2.56937 10.6642L6.04283 14.1832L6.114 14.2553L6.18517 14.1832L14.4195 5.84094C14.5765 5.68186 14.7806 5.6 15.041 5.6C15.3008 5.6 15.5046 5.68181 15.6616 5.84094C15.8188 6.00018 15.9 6.20732 15.9 6.47154C15.9 6.73649 15.8188 6.94393 15.6616 7.10313L6.72295 16.1591C6.63475 16.2484 6.54188 16.3089 6.44457 16.3439L6.44409 16.344C6.3425 16.3811 6.23272 16.4 6.114 16.4C5.99528 16.4 5.88551 16.3811 5.78392 16.344Z"
        fill="#666666" stroke="#F2F2F2" stroke-width="0.2" />
    <path
        d="M9.78392 16.344L9.78344 16.3439C9.68613 16.3089 9.59326 16.2484 9.50505 16.1591L5.32719 11.9264C5.17085 11.768 5.09333 11.5618 5.10045 11.2976C5.10825 11.0326 5.1935 10.8243 5.35148 10.6642C5.50911 10.5045 5.70935 10.4233 5.96043 10.4233C6.2115 10.4233 6.41174 10.5045 6.56937 10.6642L10.0428 14.1832L10.114 14.2553L10.1852 14.1832L18.4195 5.84094C18.5765 5.68186 18.7806 5.6 19.041 5.6C19.3008 5.6 19.5046 5.68181 19.6616 5.84094C19.8188 6.00018 19.9 6.20732 19.9 6.47154C19.9 6.73649 19.8188 6.94393 19.6616 7.10313L10.7229 16.1591C10.6347 16.2484 10.5419 16.3089 10.4446 16.3439L10.4441 16.344C10.3425 16.3811 10.2327 16.4 10.114 16.4C9.99528 16.4 9.88551 16.3811 9.78392 16.344Z"
        fill="#666666" stroke="#F2F2F2" stroke-width="0.2" />
</svg>