<svg width="100%" height="100%" viewBox="0 0 228 156" fill="none" xmlns="http://www.w3.org/2000/svg">
  <g clip-path="url(#clip0_1156_140474)">
    <path d="M102.242 11.073C102.893 10.999 103.543 10.9294 104.192 10.8633" stroke="#145234" stroke-width="2"
      stroke-miterlimit="10" stroke-linecap="round" />
    <path d="M110.025 10.3762C115.519 10.0147 120.915 9.9359 126.11 10.1175" stroke="#145234" stroke-width="2"
      stroke-miterlimit="10" stroke-linecap="round" stroke-dasharray="14.93 8.96 17.91 14.93" />
    <path d="M128.545 10.2227C137.593 10.6865 145.966 11.9496 153.101 13.8892" stroke="#145234" stroke-width="2"
      stroke-miterlimit="10" stroke-linecap="round" stroke-dasharray="8.96 17.91 14.93 8.96 17.91 14.93" />
    <path d="M155.445 14.5645C156.079 14.7578 156.702 14.9567 157.313 15.1612" stroke="#145234" stroke-width="2"
      stroke-miterlimit="10" stroke-linecap="round" />
    <path d="M156.511 147.068C155.883 147.199 155.242 147.325 154.588 147.446" stroke="#145234" stroke-width="2"
      stroke-miterlimit="10" stroke-linecap="round" />
    <path d="M146.032 148.676C138.795 149.472 130.648 149.841 122.314 149.891" stroke="#145234" stroke-width="2"
      stroke-miterlimit="10" stroke-linecap="round" stroke-dasharray="22.05 13.23 26.46 22.05" />
    <path
      d="M118.712 149.893C101.181 149.811 83.2886 148.398 71.6775 146.646C57.307 144.477 43.7729 138.42 32.7025 128.993C26.3092 123.549 20.2129 116.568 16.3066 107.875"
      stroke="#145234" stroke-width="2" stroke-miterlimit="10" stroke-linecap="round"
      stroke-dasharray="13.23 26.46 22.05 13.23 26.46 22.05" />
    <path d="M14.9398 104.514C14.717 103.903 14.505 103.283 14.3047 102.656" stroke="#145234" stroke-width="2"
      stroke-miterlimit="10" stroke-linecap="round" />
    <path d="M178.891 25.7578C179.435 26.1219 179.975 26.4909 180.509 26.8655" stroke="#145234" stroke-width="2"
      stroke-miterlimit="10" stroke-linecap="round" />
    <path d="M186.113 31.123C191.19 35.3012 195.72 39.962 199.606 44.9574" stroke="#145234" stroke-width="2"
      stroke-miterlimit="10" stroke-linecap="round" stroke-dasharray="17.95 10.77 21.53 17.95" />
    <path d="M201.365 47.3047C207.427 55.6892 211.701 64.9174 213.75 74.3305" stroke="#145234" stroke-width="2"
      stroke-miterlimit="10" stroke-linecap="round" stroke-dasharray="10.77 21.53 17.95 10.77 21.53 17.95" />
    <path d="M214.307 77.2109C214.415 77.857 214.513 78.5038 214.6 79.1509" stroke="#145234" stroke-width="2"
      stroke-miterlimit="10" stroke-linecap="round" />
    <g opacity="0.4">
      <path
        d="M204.517 71.6662C184.669 52.9212 150.852 49.9145 133.506 71.5958C124.74 82.5513 124.207 98.3023 127.242 106.931C136.682 133.777 182.049 175.564 215.32 145.367C236.84 125.835 226.4 92.3327 204.517 71.6662Z"
        fill="#CCC0B2" />
    </g>
    <mask id="mask0_1156_140474" style="mask-type:luminance" maskUnits="userSpaceOnUse" x="100" y="45" width="128"
      height="111">
      <path
        d="M207.012 52.1395C187.164 33.3946 120.245 55.0694 102.898 76.7504C94.1325 87.7059 113.31 127.883 116.345 136.512C119.85 146.48 141.701 132.545 150.161 138.567C168.39 154.327 194.403 164.35 215.32 145.366C236.84 125.834 228.895 72.8061 207.012 52.1395Z"
        fill="white" />
    </mask>
    <g mask="url(#mask0_1156_140474)">
      <path
        d="M189.445 52.5205C189.445 52.5205 197.459 52.1161 200.137 57.6987C202.41 62.437 200.268 64.9314 201.22 67.4821C202.172 70.0328 205.223 70.6835 203.911 74.2974C202.6 77.9109 207.454 77.7549 206.984 81.6122C206.513 85.4691 203.963 85.6608 206.922 87.7368C209.88 89.8128 212.227 96.1119 208.663 98.4172C203.556 101.721 191.044 91.4433 182.135 94.1818C173.225 96.9202 164.026 93.3642 165.047 89.8344C166.067 86.3046 171.751 85.2774 170.08 82.2111C168.41 79.1449 167.447 75.2088 170.205 72.3051C172.962 69.4014 171.84 69.5915 171.887 65.9083C171.916 63.6432 173.7 60.9279 174.536 58.4737C175.539 55.5282 175.89 54.3158 179.604 52.6742C185.541 50.0503 189.445 52.5205 189.445 52.5205Z"
        fill="#442017" />
    </g>
    <mask id="mask1_1156_140474" style="mask-type:luminance" maskUnits="userSpaceOnUse" x="100" y="45" width="128"
      height="111">
      <path
        d="M207.012 52.1395C187.164 33.3946 120.245 55.0694 102.898 76.7504C94.1325 87.7059 113.31 127.883 116.345 136.512C119.85 146.48 141.701 132.545 150.161 138.567C168.39 154.327 194.403 164.35 215.32 145.366C236.84 125.834 228.895 72.8061 207.012 52.1395Z"
        fill="white" />
    </mask>
    <g mask="url(#mask1_1156_140474)">
      <path
        d="M190.227 53.2561C190.227 53.2561 190.837 46.3094 198.622 49.0639C206.407 51.8184 205.76 61.2252 197.115 61.1922C188.469 61.1591 190.227 53.2561 190.227 53.2561Z"
        fill="#442017" />
    </g>
    <mask id="mask2_1156_140474" style="mask-type:luminance" maskUnits="userSpaceOnUse" x="100" y="45" width="128"
      height="111">
      <path
        d="M207.012 52.1395C187.164 33.3946 120.245 55.0694 102.898 76.7504C94.1325 87.7059 113.31 127.883 116.345 136.512C119.85 146.48 141.701 132.545 150.161 138.567C168.39 154.327 194.403 164.35 215.32 145.366C236.84 125.834 228.895 72.8061 207.012 52.1395Z"
        fill="white" />
    </mask>
    <g mask="url(#mask2_1156_140474)">
      <path
        d="M201.027 60.8127C201.067 60.8193 201.108 60.8203 201.149 60.8144C201.336 60.7876 201.453 60.6328 201.409 60.4689C201.388 60.3884 199.195 52.3998 190.055 52.2169C189.864 52.213 189.715 52.3445 189.723 52.5107C189.73 52.6768 189.892 52.8169 190.084 52.8185C198.645 52.9929 200.652 60.2566 200.734 60.5661C200.767 60.6937 200.888 60.7895 201.027 60.8127Z"
        fill="#FCF9ED" />
    </g>
    <mask id="mask3_1156_140474" style="mask-type:luminance" maskUnits="userSpaceOnUse" x="100" y="45" width="128"
      height="111">
      <path
        d="M207.012 52.1395C187.164 33.3946 120.245 55.0694 102.898 76.7504C94.1325 87.7059 113.31 127.883 116.345 136.512C119.85 146.48 141.701 132.545 150.161 138.567C168.39 154.327 194.403 164.35 215.32 145.366C236.84 125.834 228.895 72.8061 207.012 52.1395Z"
        fill="white" />
    </mask>
    <g mask="url(#mask3_1156_140474)">
      <path
        d="M189.525 58.502C189.525 58.502 190.152 64.5959 191.602 66.0716C193.053 67.5473 195.012 65.0123 195.012 65.0123C195.012 65.0123 193.33 55.5381 189.525 58.502Z"
        fill="#442017" />
      <path
        d="M182.328 57.2946C182.328 57.2946 184.651 62.677 188.999 62.3799C193.346 62.0832 191.248 58.0964 191.248 58.0964C191.248 58.0964 184.191 53.4321 182.328 57.2946Z"
        fill="#442017" />
      <path
        d="M183.509 57.1198C183.509 57.1198 180.247 62.863 176.417 61.0091C172.587 59.1552 179.472 54.2118 182.122 54.9907C184.772 55.77 183.509 57.1198 183.509 57.1198Z"
        fill="#442017" />
      <path
        d="M190.971 63.8269C190.971 63.8269 191.515 64.9978 190.701 68.6532C189.887 72.3086 189.285 73.1405 189.285 73.1405C189.285 73.1405 192.205 70.6196 192.658 65.4152C193.324 57.7442 190.971 63.8269 190.971 63.8269Z"
        fill="#442017" />
    </g>
    <mask id="mask4_1156_140474" style="mask-type:luminance" maskUnits="userSpaceOnUse" x="100" y="45" width="128"
      height="111">
      <path
        d="M207.012 52.1395C187.164 33.3946 120.245 55.0694 102.898 76.7504C94.1325 87.7059 113.31 127.883 116.345 136.512C119.85 146.48 141.701 132.545 150.161 138.567C168.39 154.327 194.403 164.35 215.32 145.366C236.84 125.834 228.895 72.8061 207.012 52.1395Z"
        fill="white" />
    </mask>
    <g mask="url(#mask4_1156_140474)">
      <path
        d="M157.504 103.894L159.803 97.7622C161.997 91.912 167.585 88.0371 173.826 88.0371H199.143C206.187 88.0371 212.279 92.951 213.778 99.8422L218.281 120.537L201.44 132.493L205.104 155.8C205.104 155.8 164.348 154.317 161.474 150.554L164.738 122.742L157.504 103.894Z"
        fill="#C1725C" />
    </g>
    <mask id="mask5_1156_140474" style="mask-type:luminance" maskUnits="userSpaceOnUse" x="100" y="45" width="128"
      height="111">
      <path
        d="M207.012 52.1395C187.164 33.3946 120.245 55.0694 102.898 76.7504C94.1325 87.7059 113.31 127.883 116.345 136.512C119.85 146.48 141.701 132.545 150.161 138.567C168.39 154.327 194.403 164.35 215.32 145.366C236.84 125.834 228.895 72.8061 207.012 52.1395Z"
        fill="white" />
    </mask>
    <g mask="url(#mask5_1156_140474)">
      <path
        d="M157.505 103.893L148.714 113.906L130.918 96.4316L123.064 101.559C123.064 101.559 132.618 122.935 137.212 128.299C141.805 133.663 150.077 139.431 157.103 132.673L166.072 121.71L157.505 103.893Z"
        fill="#B76856" />
    </g>
    <mask id="mask6_1156_140474" style="mask-type:luminance" maskUnits="userSpaceOnUse" x="100" y="45" width="128"
      height="111">
      <path
        d="M207.012 52.1395C187.164 33.3946 120.245 55.0694 102.898 76.7504C94.1325 87.7059 113.31 127.883 116.345 136.512C119.85 146.48 141.701 132.545 150.161 138.567C168.39 154.327 194.403 164.35 215.32 145.366C236.84 125.834 228.895 72.8061 207.012 52.1395Z"
        fill="white" />
    </mask>
    <g mask="url(#mask6_1156_140474)">
      <path
        d="M151.413 118.836C151.465 118.836 151.517 118.823 151.565 118.795C151.708 118.711 151.756 118.526 151.672 118.383L148.726 113.345C148.642 113.201 148.457 113.153 148.315 113.237C148.172 113.321 148.123 113.505 148.207 113.649L151.153 118.687C151.209 118.783 151.31 118.836 151.413 118.836Z"
        fill="#7D351D" />
    </g>
    <mask id="mask7_1156_140474" style="mask-type:luminance" maskUnits="userSpaceOnUse" x="100" y="45" width="128"
      height="111">
      <path
        d="M207.012 52.1395C187.164 33.3946 120.245 55.0694 102.898 76.7504C94.1325 87.7059 113.31 127.883 116.345 136.512C119.85 146.48 141.701 132.545 150.161 138.567C168.39 154.327 194.403 164.35 215.32 145.366C236.84 125.834 228.895 72.8061 207.012 52.1395Z"
        fill="white" />
    </mask>
    <g mask="url(#mask7_1156_140474)">
      <path
        d="M157.504 103.892C157.504 103.892 159.315 98.3644 160.304 96.4313C164.16 88.9 168.286 87.8868 174.255 88.0357C176.572 88.0936 180.551 106.555 180.551 106.555C180.551 106.555 189.914 88.3275 193.663 88.0357C200.25 87.5231 209.854 87.7616 213.395 98.4181L220.184 119.525L199.317 120.377L205.171 155.995C205.171 155.995 165.988 156.367 161.474 150.552L164.738 121.432L157.504 103.892Z"
        fill="#1A1A1A" />
    </g>
    <mask id="mask8_1156_140474" style="mask-type:luminance" maskUnits="userSpaceOnUse" x="100" y="45" width="128"
      height="111">
      <path
        d="M207.012 52.1395C187.164 33.3946 120.245 55.0694 102.898 76.7504C94.1325 87.7059 113.31 127.883 116.345 136.512C119.85 146.48 141.701 132.545 150.161 138.567C168.39 154.327 194.403 164.35 215.32 145.366C236.84 125.834 228.895 72.8061 207.012 52.1395Z"
        fill="white" />
    </mask>
    <g mask="url(#mask8_1156_140474)">
      <path
        d="M196.496 67.7626L195.194 67.4357L193.03 69.9524C192.246 70.8641 190.757 70.2128 190.892 69.0175L191.576 62.9533C191.701 61.8473 190.423 61.1472 189.559 61.8486L187.889 63.2072L186.355 62.8195C184.543 62.3615 183.244 60.77 183.157 58.9007L183.114 57.9746C182.214 60.0087 179.898 61.0023 177.806 60.2508L177.762 60.2351L173.58 70.5318C171.935 74.5847 173.416 79.0975 176.88 81.2652L176.397 86.2687C176.02 90.1777 179 93.6938 183.02 94.0827L183.187 94.0988C187.207 94.4877 185.523 94.4272 185.9 90.5182L190.162 90.5774L192.456 75.5664L194.415 76.0584C196.668 76.6241 198.975 75.2416 199.541 72.986L199.564 72.895C200.131 70.6381 198.75 68.3285 196.496 67.7626Z"
        fill="#C1725C" />
      <path
        d="M175.814 66.1975C175.642 66.6159 175.841 67.0948 176.259 67.2666C176.677 67.4386 177.155 67.2391 177.327 66.8207C177.499 66.4023 177.299 65.9233 176.881 65.7513C176.464 65.5792 175.986 65.7787 175.814 66.1975Z"
        fill="#111111" />
      <path
        d="M182.233 67.8631C182.166 68.3534 182.509 68.8056 182.999 68.8726C183.489 68.9397 183.94 68.5965 184.007 68.1058C184.074 67.6151 183.731 67.1633 183.241 67.0963C182.751 67.0292 182.3 67.3724 182.233 67.8631Z"
        fill="#111111" />
      <path
        d="M178.199 77.8215C178.232 77.8389 178.272 77.8448 178.312 77.8363C178.353 77.8274 179.316 77.6292 179.822 78.4624C179.871 78.5429 179.975 78.5684 180.056 78.5196C180.136 78.4706 180.162 78.3659 180.113 78.2854C179.479 77.2405 178.251 77.5006 178.238 77.5032C178.147 77.5238 178.089 77.6145 178.11 77.706C178.121 77.7584 178.155 77.7993 178.199 77.8215Z"
        fill="#7D351D" />
      <path
        d="M186.937 65.4692C186.607 65.4823 186.253 65.3057 185.902 65.1545C185.552 64.9949 185.196 64.8431 184.882 64.7224C184.567 64.601 184.201 64.4741 183.834 64.3573C183.472 64.2333 183.09 64.1263 182.858 63.8964C182.632 63.6782 182.648 63.3085 183.122 63.0291C183.573 62.753 184.522 62.6294 185.563 63.0282C186.602 63.4315 187.21 64.1551 187.348 64.6579C187.5 65.1791 187.254 65.4601 186.937 65.4692Z"
        fill="#442017" />
      <path
        d="M175.66 62.7406C175.865 62.8518 176.138 62.8322 176.401 62.8305C176.667 62.8224 176.934 62.822 177.165 62.8309C177.398 62.8394 177.664 62.8603 177.928 62.8881C178.191 62.9097 178.462 62.9496 178.673 62.8541C178.876 62.7654 178.969 62.4929 178.747 62.1445C178.539 61.8059 177.975 61.4252 177.206 61.3941C176.438 61.3673 175.853 61.7045 175.627 62.0268C175.386 62.3578 175.463 62.6369 175.66 62.7406Z"
        fill="#381812" />
      <path d="M183.827 69.0972C183.827 69.0972 183.165 68.367 182.264 68.8751L183.827 69.0972Z" fill="#C1725C" />
      <path
        d="M182.198 69.1834C182.113 69.1651 182.036 69.1115 181.99 69.0297C181.904 68.8779 181.958 68.6855 182.11 68.6001C182.998 68.1 183.774 68.5687 184.061 68.8854C184.177 69.0143 184.168 69.2139 184.039 69.331C183.91 69.4474 183.712 69.4383 183.595 69.3104C183.542 69.2531 183.071 68.7833 182.419 69.1497C182.349 69.189 182.271 69.1991 182.198 69.1834Z"
        fill="#7D351D" />
      <path d="M176.875 67.2691C176.875 67.2691 176.461 66.8409 175.939 67.206L176.875 67.2691Z" fill="#C1725C" />
      <path
        d="M175.874 67.5147C175.799 67.4987 175.73 67.4552 175.682 67.3868C175.582 67.2442 175.617 67.0476 175.759 66.9475C176.347 66.5363 176.893 66.8343 177.101 67.0502C177.223 67.1755 177.219 67.3751 177.094 67.4964C176.969 67.6168 176.771 67.6126 176.652 67.4915C176.594 67.4362 176.391 67.2746 176.121 67.465C176.046 67.5167 175.957 67.5324 175.874 67.5147Z"
        fill="#7D351D" />
      <path
        d="M182.846 71.9357C182.612 71.6962 182.241 71.6632 181.953 71.8326C181.427 72.1411 180.319 72.6505 178.919 72.4967C178.575 72.4591 178.318 72.8134 178.397 73.1503C178.571 73.8913 179.443 76.1479 181.39 75.6968C183.762 75.1462 183.455 72.5602 182.846 71.9357Z"
        fill="white" />
      <path
        d="M179.95 65.3848L178.939 68.5848L178.105 68.4605C177.757 68.3346 177.372 68.5155 177.247 68.8642L177.038 69.4445C176.866 69.9208 177.109 70.4469 177.583 70.6245L179.02 71.1627"
        fill="#C1725C" />
      <path
        d="M178.955 71.4718C178.94 71.4685 178.924 71.4639 178.91 71.4587L177.472 70.9206C176.84 70.6837 176.512 69.9738 176.741 69.3382L176.95 68.7582C177.039 68.5102 177.22 68.312 177.459 68.1998C177.696 68.0872 177.965 68.0738 178.212 68.1644L178.719 68.2361L179.649 65.2902C179.702 65.1243 179.883 65.0331 180.045 65.0848C180.21 65.1374 180.302 65.3147 180.25 65.4806L179.158 68.9371L178.058 68.7732C177.908 68.7261 177.812 68.7301 177.726 68.7706C177.64 68.8112 177.575 68.8825 177.543 68.9721L177.334 69.5521C177.222 69.8646 177.382 70.2133 177.693 70.3298L179.131 70.8682C179.294 70.9294 179.376 71.111 179.315 71.2742C179.26 71.4221 179.105 71.5038 178.955 71.4718Z"
        fill="#7D351D" />
      <path
        d="M195.577 73.4496C195.519 73.4372 195.464 73.4084 195.419 73.3635L194.259 72.1947C194.195 72.1293 194.162 72.039 194.169 71.947C194.176 71.8554 194.224 71.7714 194.298 71.7174L196.082 70.4213C196.222 70.3189 196.419 70.3513 196.522 70.491C196.624 70.6319 196.593 70.8295 196.452 70.9316L194.966 72.0115L195.867 72.9193C195.989 73.043 195.988 73.2428 195.865 73.3652C195.787 73.4427 195.677 73.4712 195.577 73.4496Z"
        fill="#7D351D" />
      <path
        d="M176.869 81.3681C176.869 81.3681 184.279 83.5612 186.385 81.0118C186.385 81.0118 185.525 85.8436 176.447 85.7383L176.869 81.3681Z"
        fill="#7D351D" />
      <path
        d="M194.769 77.9663C193.796 77.7576 193.138 76.821 193.289 75.8233C193.445 74.7866 194.415 74.0701 195.452 74.2265C196.479 74.3848 197.204 75.3532 197.047 76.3905C196.972 76.893 196.705 77.3356 196.297 77.6376C195.888 77.9392 195.387 78.0635 194.885 77.9876C194.847 77.9817 194.808 77.9748 194.769 77.9663Z"
        fill="#467B6C" />
      <path
        d="M187.553 72.0021C187.441 72.5252 186.644 72.7977 185.773 72.6109C184.901 72.4241 184.286 71.8487 184.398 71.3256C184.51 70.8025 185.307 70.5303 186.178 70.7171C187.049 70.9036 187.665 71.479 187.553 72.0021Z"
        fill="#7D351D" />
    </g>
    <mask id="mask9_1156_140474" style="mask-type:luminance" maskUnits="userSpaceOnUse" x="100" y="45" width="128"
      height="111">
      <path
        d="M207.012 52.1395C187.164 33.3946 120.245 55.0694 102.898 76.7504C94.1325 87.7059 113.31 127.883 116.345 136.512C119.85 146.48 141.701 132.545 150.161 138.567C168.39 154.327 194.403 164.35 215.32 145.366C236.84 125.834 228.895 72.8061 207.012 52.1395Z"
        fill="white" />
    </mask>
    <g mask="url(#mask9_1156_140474)">
      <g opacity="0.2">
        <mask id="mask10_1156_140474" style="mask-type:luminance" maskUnits="userSpaceOnUse" x="157" y="87" width="64"
          height="69">
          <path
            d="M157.504 103.892C157.504 103.892 159.315 98.3644 160.304 96.4313C164.16 88.9 168.286 87.8868 174.255 88.0357C176.572 88.0936 180.551 106.555 180.551 106.555C180.551 106.555 189.914 88.3275 193.663 88.0357C200.25 87.5231 209.854 87.7616 213.395 98.4181L220.184 119.525L199.317 120.377L205.171 155.995C205.171 155.995 165.988 156.367 161.474 150.552L164.738 121.432L157.504 103.892Z"
            fill="white" />
        </mask>
        <g mask="url(#mask10_1156_140474)">
          <path
            d="M220.042 94.5024H155.88C154.765 94.5024 153.861 93.5975 153.861 92.4807C153.861 91.3642 154.765 90.459 155.88 90.459H220.042C221.158 90.459 222.062 91.3642 222.062 92.4807C222.062 93.5975 221.158 94.5024 220.042 94.5024Z"
            fill="#F2EAE1" />
          <path
            d="M220.042 106.168H155.88C154.765 106.168 153.861 105.263 153.861 104.147C153.861 103.03 154.765 102.125 155.88 102.125H220.042C221.158 102.125 222.062 103.03 222.062 104.147C222.062 105.263 221.158 106.168 220.042 106.168Z"
            fill="#F2EAE1" />
          <path
            d="M220.042 117.834H155.88C154.765 117.834 153.861 116.929 153.861 115.813C153.861 114.696 154.765 113.791 155.88 113.791H220.042C221.158 113.791 222.062 114.696 222.062 115.813C222.062 116.929 221.158 117.834 220.042 117.834Z"
            fill="#F2EAE1" />
          <path
            d="M220.042 129.5H155.88C154.765 129.5 153.861 128.595 153.861 127.479C153.861 126.362 154.765 125.457 155.88 125.457H220.042C221.158 125.457 222.062 126.362 222.062 127.479C222.062 128.595 221.158 129.5 220.042 129.5Z"
            fill="#F2EAE1" />
          <path
            d="M220.042 141.166H155.88C154.765 141.166 153.861 140.261 153.861 139.145C153.861 138.028 154.765 137.123 155.88 137.123H220.042C221.158 137.123 222.062 138.028 222.062 139.145C222.062 140.261 221.158 141.166 220.042 141.166Z"
            fill="#F2EAE1" />
          <path
            d="M220.042 152.83H155.88C154.765 152.83 153.861 151.925 153.861 150.809C153.861 149.692 154.765 148.787 155.88 148.787H220.042C221.158 148.787 222.062 149.692 222.062 150.809C222.062 151.925 221.158 152.83 220.042 152.83Z"
            fill="#F2EAE1" />
        </g>
      </g>
    </g>
    <mask id="mask11_1156_140474" style="mask-type:luminance" maskUnits="userSpaceOnUse" x="100" y="45" width="128"
      height="111">
      <path
        d="M207.012 52.1395C187.164 33.3946 120.245 55.0694 102.898 76.7504C94.1325 87.7059 113.31 127.883 116.345 136.512C119.85 146.48 141.701 132.545 150.161 138.567C168.39 154.327 194.403 164.35 215.32 145.366C236.84 125.834 228.895 72.8061 207.012 52.1395Z"
        fill="white" />
    </mask>
    <g mask="url(#mask11_1156_140474)">
      <path
        d="M165.755 124.448C165.651 124.448 165.551 124.387 165.507 124.286L163.881 120.577C162.656 117.782 162.576 114.669 163.657 111.813L165.602 106.679C165.655 106.539 165.81 106.468 165.951 106.522C166.09 106.575 166.16 106.731 166.108 106.87L164.163 112.005C163.132 114.728 163.208 117.695 164.376 120.36L166.002 124.068C166.062 124.205 166 124.364 165.863 124.425C165.828 124.44 165.791 124.448 165.755 124.448Z"
        fill="#322380" />
    </g>
    <mask id="mask12_1156_140474" style="mask-type:luminance" maskUnits="userSpaceOnUse" x="100" y="45" width="128"
      height="111">
      <path
        d="M207.012 52.1395C187.164 33.3946 120.245 55.0694 102.898 76.7504C94.1325 87.7059 113.31 127.883 116.345 136.512C119.85 146.48 141.701 132.545 150.161 138.567C168.39 154.327 194.403 164.35 215.32 145.366C236.84 125.834 228.895 72.8061 207.012 52.1395Z"
        fill="white" />
    </mask>
    <g mask="url(#mask12_1156_140474)">
      <path
        d="M159.316 119.107C158.476 119.13 157.752 119.403 157.665 120.402C157.3 122.167 158.846 122.851 160.304 122.998C158.89 123.273 159.652 125.577 161.419 126.239L170.814 130.319C171.392 130.588 172.162 130.658 172.994 130.617L204.954 143.239C212.974 146.275 221.361 139.742 220.395 131.212L218.141 119.825L199.318 120.38L200.343 125.699L177.783 118.556C177.343 117.808 176.853 117.088 176.314 116.424C176.314 116.424 170.937 110.945 168.783 109.451C168.552 109.29 168.312 109.132 168.041 109.059C167.77 108.985 167.458 109.009 167.239 109.185C166.955 109.415 166.903 109.827 166.916 110.193C166.954 111.328 167.392 112.398 167.83 113.455C166.89 113.142 165.888 112.801 164.796 112.413C162.435 111.762 158.675 110.21 158.004 113.351C157.865 114.461 158.627 114.943 159.524 115.162C158.206 115.1 156.886 115.388 156.912 117.032C156.721 118.52 157.986 118.94 159.316 119.107ZM160.885 119.243C161.103 119.261 161.303 119.283 161.475 119.313C161.301 119.299 161.1 119.273 160.885 119.243Z"
        fill="#C1725C" />
      <path
        d="M200.252 125.535C200.271 125.535 200.29 125.533 200.31 125.529C200.473 125.498 200.58 125.34 200.548 125.177L199.565 120.075L197.114 120.095C197.111 120.095 197.109 120.095 197.106 120.095C196.638 120.095 196.255 119.73 196.233 119.261L195.586 105.44C195.578 105.273 195.439 105.142 195.271 105.153C195.105 105.161 194.977 105.302 194.985 105.468L195.633 119.289C195.67 120.086 196.317 120.714 197.119 120.697L199.069 120.682L199.958 125.291C199.985 125.435 200.111 125.535 200.252 125.535Z"
        fill="#322380" />
      <path opacity="0.5"
        d="M167.83 113.454L172.943 115.657C172.943 115.657 168.084 111.818 167.125 111.504L167.83 113.454Z"
        fill="#AF4E4A" />
      <path
        d="M162.66 116.435C162.785 116.435 162.902 116.356 162.945 116.231C162.999 116.074 162.915 115.903 162.758 115.849C162.437 115.739 159.609 114.773 159.046 114.743C158.888 114.719 158.738 114.861 158.729 115.027C158.72 115.193 158.847 115.335 159.013 115.344C159.375 115.364 161.382 116.014 162.563 116.419C162.595 116.43 162.628 116.435 162.66 116.435Z"
        fill="#7D351D" />
      <path
        d="M203.689 127.18C203.815 127.18 203.932 127.101 203.974 126.975C204.027 126.817 203.942 126.646 203.784 126.593L197.441 124.464C197.284 124.413 197.113 124.497 197.061 124.655C197.008 124.812 197.093 124.983 197.25 125.036L203.593 127.165C203.625 127.175 203.657 127.18 203.689 127.18Z"
        fill="#7D351D" />
      <path
        d="M161.912 120.292C162.039 120.292 162.157 120.211 162.198 120.083C162.249 119.925 162.162 119.755 162.004 119.704L159.132 118.774C158.973 118.723 158.804 118.81 158.753 118.968C158.702 119.126 158.789 119.296 158.946 119.347L161.819 120.277C161.85 120.287 161.882 120.292 161.912 120.292Z"
        fill="#7D351D" />
      <path
        d="M161.864 123.764C161.993 123.764 162.113 123.68 162.152 123.549C162.199 123.39 162.109 123.222 161.95 123.174L160.391 122.708C160.234 122.661 160.064 122.751 160.017 122.91C159.969 123.069 160.059 123.237 160.219 123.285L161.777 123.751C161.806 123.76 161.835 123.764 161.864 123.764Z"
        fill="#7D351D" />
    </g>
    <mask id="mask13_1156_140474" style="mask-type:luminance" maskUnits="userSpaceOnUse" x="100" y="45" width="128"
      height="111">
      <path
        d="M207.012 52.1395C187.164 33.3946 120.245 55.0694 102.898 76.7504C94.1325 87.7059 113.31 127.883 116.345 136.512C119.85 146.48 141.701 132.545 150.161 138.567C168.39 154.327 194.403 164.35 215.32 145.366C236.84 125.834 228.895 72.8061 207.012 52.1395Z"
        fill="white" />
    </mask>
    <g mask="url(#mask13_1156_140474)">
      <path d="M126.743 91.8223L131.791 97.2891L128.378 99.4361L125.611 97.0071L126.743 91.8223Z" fill="#B76856" />
    </g>
    <mask id="mask14_1156_140474" style="mask-type:luminance" maskUnits="userSpaceOnUse" x="100" y="45" width="128"
      height="111">
      <path
        d="M207.012 52.1395C187.164 33.3946 120.245 55.0694 102.898 76.7504C94.1325 87.7059 113.31 127.883 116.345 136.512C119.85 146.48 141.701 132.545 150.161 138.567C168.39 154.327 194.403 164.35 215.32 145.366C236.84 125.834 228.895 72.8061 207.012 52.1395Z"
        fill="white" />
    </mask>
    <g mask="url(#mask14_1156_140474)">
      <path
        d="M128.933 104.094H114.922C114.452 104.094 114.07 103.712 114.07 103.241V77.9837C114.07 77.5126 114.452 77.1309 114.922 77.1309H128.933C129.403 77.1309 129.785 77.5126 129.785 77.9837V103.241C129.785 103.712 129.404 104.094 128.933 104.094Z"
        fill="#2B2B39" />
      <path
        d="M128.8 79.1408V102.083C128.8 102.505 128.53 102.847 128.197 102.847H115.66C115.327 102.847 115.057 102.505 115.057 102.083V79.1408C115.057 78.7191 115.327 78.377 115.66 78.377H128.196C128.53 78.377 128.8 78.7191 128.8 79.1408Z"
        fill="#5F5F75" />
      <path
        d="M120.137 96.264C120.122 97.301 119.262 98.1372 118.227 98.1221L112.313 98.0367C111.278 98.0217 110.442 97.161 110.457 96.124C110.472 95.0873 111.332 94.2511 112.367 94.2658L118.281 94.3512C119.317 94.3666 120.152 95.2269 120.137 96.264Z"
        fill="#B76856" />
      <path
        d="M120.255 92.4639C120.24 93.5009 119.38 94.3371 118.345 94.322L111.961 94.2298C110.926 94.2147 110.091 93.354 110.106 92.3173C110.121 91.2806 110.98 90.4441 112.016 90.4592L118.399 90.5514C119.435 90.5662 120.27 91.4269 120.255 92.4639Z"
        fill="#B76856" />
      <path
        d="M130.102 98.2575C129.362 98.9827 128.163 98.97 127.439 98.229L122.973 93.6612C122.248 92.9199 122.261 91.7203 123.001 90.9947C123.741 90.2694 124.939 90.2822 125.664 91.0232L130.13 95.591C130.855 96.3319 130.842 97.5319 130.102 98.2575Z"
        fill="#B76856" />
      <path
        d="M118.808 99.9663C118.793 101.003 117.933 101.839 116.897 101.824L113.057 101.769C112.021 101.754 111.186 100.893 111.201 99.8564C111.216 98.8194 112.076 97.9832 113.111 97.9982L116.952 98.0539C117.988 98.0686 118.823 98.9293 118.808 99.9663Z"
        fill="#B76856" />
      <path
        d="M118.72 103.555C118.705 104.592 117.845 105.428 116.81 105.413L114.918 105.386C113.883 105.371 113.048 104.51 113.063 103.474C113.078 102.437 113.937 101.6 114.973 101.615L116.864 101.643C117.9 101.658 118.735 102.518 118.72 103.555Z"
        fill="#B76856" />
      <path
        d="M111.95 94.3908C111.949 94.3829 111.949 94.3751 111.949 94.3666C111.95 94.1804 112.101 94.0303 112.287 94.0313L118.302 94.0591C118.488 94.0594 118.643 94.2066 118.637 94.3976C118.636 94.5838 118.485 94.7339 118.299 94.733L112.284 94.7052C112.107 94.7048 111.961 94.5658 111.95 94.3908Z"
        fill="#7D351D" />
      <path
        d="M111.973 98.3283C111.973 98.3198 111.973 98.3113 111.973 98.3021C111.975 98.116 112.127 97.9668 112.313 97.9688L117.837 98.0283C118.023 98.0303 118.173 98.1801 118.17 98.3689C118.168 98.555 118.016 98.7042 117.83 98.7022L112.306 98.6423C112.128 98.641 111.985 98.5023 111.973 98.3283Z"
        fill="#7D351D" />
      <path
        d="M112.899 101.956C112.899 101.951 112.898 101.945 112.898 101.94C112.896 101.753 113.044 101.6 113.229 101.597L117.57 101.523C117.756 101.521 117.909 101.671 117.912 101.855C117.915 102.041 117.767 102.194 117.581 102.197L113.241 102.271C113.06 102.274 112.911 102.135 112.899 101.956Z"
        fill="#7D351D" />
    </g>
    <path
      d="M145.662 74.1906C146.566 75.0621 147.307 74.7464 147.307 73.4895V69.436C147.307 68.1791 148.334 67.1506 149.589 67.1506H162.073C163.329 67.1506 164.356 66.1221 164.356 64.8652V48.844C164.356 47.5871 163.329 46.5586 162.073 46.5586H118.609C117.353 46.5586 116.326 47.5871 116.326 48.844V64.8652C116.326 66.1221 117.353 67.1506 118.609 67.1506H136.069C137.324 67.1506 139.092 67.8634 139.997 68.7352L145.662 74.1906Z"
      fill="#1D7C4E" />
    <path
      d="M121.287 53.0466H159.394C159.849 53.0466 160.218 52.6772 160.218 52.2215C160.218 51.7658 159.849 51.3965 159.394 51.3965H121.287C120.832 51.3965 120.463 51.7658 120.463 52.2215C120.463 52.6772 120.832 53.0466 121.287 53.0466Z"
      fill="white" />
    <path
      d="M121.287 57.1598H159.394C159.849 57.1598 160.218 56.7905 160.218 56.3348C160.218 55.8791 159.849 55.5098 159.394 55.5098H121.287C120.832 55.5098 120.463 55.8791 120.463 56.3348C120.463 56.7905 120.832 57.1598 121.287 57.1598Z"
      fill="white" />
    <path
      d="M121.287 61.2751H148.201C148.656 61.2751 149.025 60.9057 149.025 60.45C149.025 59.9943 148.656 59.625 148.201 59.625H121.287C120.832 59.625 120.463 59.9943 120.463 60.45C120.463 60.9057 120.832 61.2751 121.287 61.2751Z"
      fill="white" />
    <g opacity="0.4">
      <path
        d="M78.8125 98.3896C56.105 114.423 20.8762 112.702 5.58173 88.5117C-2.14688 76.2879 -0.812547 60.4047 3.34793 52.1693C16.292 26.5476 68.067 -9.03608 98.7638 25.9329C118.619 48.5512 103.847 80.7131 78.8125 98.3896Z"
        fill="#CCC0B2" />
    </g>
    <mask id="mask15_1156_140474" style="mask-type:luminance" maskUnits="userSpaceOnUse" x="0" y="0" width="108"
      height="109">
      <path
        d="M78.8125 98.3902C56.105 114.423 20.8762 112.703 5.58173 88.5122C-2.14688 76.2884 -0.812547 60.4053 3.34793 52.1699C8.79243 41.393 16.8246 12.6141 31.5506 4.30383C51.8354 -7.14335 80.9784 5.6729 98.7638 25.9335C118.619 48.5518 103.847 80.7136 78.8125 98.3902Z"
        fill="white" />
    </mask>
    <g mask="url(#mask15_1156_140474)">
      <path
        d="M68.6398 60.827L77.2264 70.6078L94.6093 53.5391L102.281 58.5475L88.4617 84.6675C86.1691 93.5136 74.8158 96.01 69.0319 88.9399L60.2715 78.2311L68.6398 60.827Z"
        fill="#E69773" />
      <path
        d="M74.5903 75.4242C74.54 75.4242 74.4887 75.4115 74.4423 75.384C74.3025 75.3019 74.2551 75.1216 74.3371 74.9816L77.2149 70.0598C77.2969 69.9192 77.4773 69.8724 77.6168 69.9545C77.7566 70.0366 77.8036 70.2169 77.722 70.3569L74.8442 75.2787C74.7893 75.3722 74.6913 75.4242 74.5903 75.4242Z"
        fill="#AF4E4A" />
      <path
        d="M94.6706 54.3089L94.6477 54.3079C94.5945 54.0443 94.5412 53.7809 94.488 53.5173L94.487 53.5137C93.6414 49.3341 91.4263 44.732 90.5575 40.5574C90.4928 40.2473 90.4281 39.9303 90.4667 39.6159C90.5238 39.1517 90.8212 38.7241 91.2354 38.5089C91.65 38.2933 92.1702 38.2965 92.5822 38.517C93.0641 38.7751 93.3604 39.2825 93.5561 39.7935C93.8139 40.4674 94.057 41.1433 94.3204 41.8152C94.5794 42.4757 95.555 42.3197 95.5952 41.6108C95.7416 39.031 95.885 36.4512 96.0249 33.871C96.0523 33.3623 96.0987 32.8078 96.4476 32.4372C96.924 31.9311 97.894 32.0708 98.209 32.6904C98.3368 32.942 98.3619 33.2315 98.3851 33.5128C98.5289 35.2718 98.7471 37.0259 98.8167 38.7895C98.8706 40.1609 99.1094 41.0281 99.0621 42.0249C99.0774 41.6978 99.0588 41.2107 99.0745 40.8835C99.1702 38.9024 99.2891 36.9245 99.3025 34.9431C99.3045 34.6349 99.426 34.2849 99.5894 34.0235C99.6969 33.8514 99.8589 33.7127 100.048 33.6397C100.238 33.5668 100.457 33.5619 100.641 33.6463C100.859 33.7447 101.01 33.9544 101.092 34.1792C101.232 34.5646 101.314 34.9741 101.332 35.3814C101.384 36.5516 101.428 37.7224 101.485 38.8926C101.543 40.0847 101.506 41.3118 101.644 42.498C101.606 42.1695 101.67 41.8106 101.7 41.4842C101.765 40.7985 101.845 40.1144 101.933 39.4314C102.022 38.7464 102.041 37.922 102.584 37.4205C102.814 37.2085 103.165 37.0865 103.441 37.2307C103.569 37.2971 103.666 37.4123 103.735 37.5382C103.963 37.9553 103.915 38.4644 103.895 38.922C103.875 39.3686 103.857 39.8151 103.838 40.2617C103.8 41.1649 103.761 42.0681 103.71 42.9707C103.687 43.4872 103.665 44.0038 103.642 44.52L104.231 42.6422C104.446 41.9176 105.188 40.7625 105.869 41.0877C106.261 41.2748 106.457 41.7204 106.331 42.1361L103.771 53.5199"
        fill="#E69773" />
      <path
        d="M94.6706 54.3089L94.6477 54.3079C94.5945 54.0443 94.5412 53.7809 94.488 53.5173L94.487 53.5137C93.6414 49.3341 91.4263 44.732 90.5575 40.5574C90.4928 40.2473 90.4281 39.9303 90.4667 39.6159C90.5238 39.1517 90.8212 38.7241 91.2354 38.5089C91.65 38.2933 92.1702 38.2965 92.5822 38.517C93.0641 38.7751 93.3604 39.2825 93.5561 39.7935C93.8139 40.4674 94.057 41.1433 94.3204 41.8152C94.5794 42.4757 95.555 42.3197 95.5952 41.6108C95.7416 39.031 95.885 36.4512 96.0249 33.871C96.0523 33.3623 96.0987 32.8078 96.4476 32.4372C96.924 31.9311 97.894 32.0708 98.209 32.6904C98.3368 32.942 98.3619 33.2315 98.3851 33.5128C98.5289 35.2718 98.7471 37.0259 98.8167 38.7895C98.8706 40.1609 99.1094 41.0281 99.0621 42.0249C99.0774 41.6978 99.0588 41.2107 99.0745 40.8835C99.1702 38.9024 99.2891 36.9245 99.3025 34.9431C99.3045 34.6349 99.426 34.2849 99.5894 34.0235C99.6969 33.8514 99.8589 33.7127 100.048 33.6397C100.238 33.5668 100.457 33.5619 100.641 33.6463C100.859 33.7447 101.01 33.9544 101.092 34.1792C101.232 34.5646 101.314 34.9741 101.332 35.3814C101.384 36.5516 101.428 37.7224 101.485 38.8926C101.543 40.0847 101.506 41.3118 101.644 42.498C101.606 42.1695 101.67 41.8106 101.7 41.4842C101.765 40.7985 101.845 40.1144 101.933 39.4314C102.022 38.7464 102.041 37.922 102.584 37.4205C102.814 37.2085 103.165 37.0865 103.441 37.2307C103.569 37.2971 103.666 37.4123 103.735 37.5382C103.963 37.9553 103.915 38.4644 103.895 38.922C103.875 39.3686 103.857 39.8151 103.838 40.2617C103.8 41.1649 103.761 42.0681 103.71 42.9707C103.687 43.4872 103.665 44.0038 103.642 44.52L104.231 42.6422C104.446 41.9176 105.188 40.7625 105.869 41.0877C106.261 41.2748 106.457 41.7204 106.331 42.1361L103.771 53.5199L102.28 58.5476L94.6706 54.3089Z"
        fill="#E69773" />
      <path
        d="M97.0657 47.2888C97.0304 47.3006 96.9929 47.3055 96.9533 47.3032C96.8772 47.2977 96.8076 47.2627 96.7573 47.2048C96.7073 47.1465 96.6828 47.0726 96.6884 46.9964C96.9288 43.6102 94.4732 42.3778 94.3683 42.3268C94.2997 42.2931 94.2477 42.2349 94.2232 42.1626C94.1978 42.09 94.2026 42.0121 94.2356 41.9441C94.2686 41.8744 94.3268 41.8224 94.3993 41.7975C94.4719 41.772 94.5493 41.7769 94.6166 41.8096C94.646 41.823 97.5261 43.2866 97.2598 47.0373C97.2542 47.1181 97.2154 47.1907 97.1549 47.2398C97.1291 47.261 97.0987 47.2774 97.0657 47.2888Z"
        fill="#AF4E4A" />
      <path
        d="M36.2006 33.0174C38.952 33.0174 41.1825 30.7841 41.1825 28.0292C41.1825 25.2743 38.952 23.041 36.2006 23.041C33.4492 23.041 31.2188 25.2743 31.2188 28.0292C31.2188 30.7841 33.4492 33.0174 36.2006 33.0174Z"
        fill="#1A1A1A" />
      <path
        d="M33.4076 27.449C36.159 27.449 38.3895 25.2157 38.3895 22.4608C38.3895 19.7059 36.159 17.4727 33.4076 17.4727C30.6562 17.4727 28.4258 19.7059 28.4258 22.4608C28.4258 25.2157 30.6562 27.449 33.4076 27.449Z"
        fill="#1A1A1A" />
      <path
        d="M33.1811 19.9627C35.9325 19.9627 38.1629 17.7294 38.1629 14.9745C38.1629 12.2196 35.9325 9.98633 33.1811 9.98633C30.4297 9.98633 28.1992 12.2196 28.1992 14.9745C28.1992 17.7294 30.4297 19.9627 33.1811 19.9627Z"
        fill="#1A1A1A" />
      <path
        d="M36.8549 14.5369C39.6063 14.5369 41.8368 12.3036 41.8368 9.54874C41.8368 6.79384 39.6063 4.56055 36.8549 4.56055C34.1035 4.56055 31.873 6.79384 31.873 9.54874C31.873 12.3036 34.1035 14.5369 36.8549 14.5369Z"
        fill="#1A1A1A" />
      <path
        d="M43.5072 11.6014C46.2586 11.6014 48.4891 9.36809 48.4891 6.61319C48.4891 3.85829 46.2586 1.625 43.5072 1.625C40.7558 1.625 38.5254 3.85829 38.5254 6.61319C38.5254 9.36809 40.7558 11.6014 43.5072 11.6014Z"
        fill="#1A1A1A" />
      <path
        d="M51.7836 11.0189C54.3386 9.99685 55.5823 7.09447 54.5615 4.53626C53.5407 1.97806 50.642 0.732782 48.0871 1.75485C45.5321 2.77692 44.2884 5.6793 45.3092 8.2375C46.33 10.7957 49.2287 12.041 51.7836 11.0189Z"
        fill="#1A1A1A" />
      <path
        d="M56.4643 14.1971C59.2157 14.1971 61.4461 11.9638 61.4461 9.20889C61.4461 6.45399 59.2157 4.2207 56.4643 4.2207C53.7129 4.2207 51.4824 6.45399 51.4824 9.20889C51.4824 11.9638 53.7129 14.1971 56.4643 14.1971Z"
        fill="#1A1A1A" />
      <path
        d="M59.8998 18.6697C62.6512 18.6697 64.8817 16.4364 64.8817 13.6815C64.8817 10.9266 62.6512 8.69336 59.8998 8.69336C57.1484 8.69336 54.918 10.9266 54.918 13.6815C54.918 16.4364 57.1484 18.6697 59.8998 18.6697Z"
        fill="#1A1A1A" />
      <path
        d="M74.9957 64.3566L60.9636 51.1628C58.6383 48.3 55.1365 46.4363 51.1904 46.3202L29.616 45.6856C29.397 45.6856 29.1814 45.7 28.9664 45.7166L28.9426 45.6836L24.8997 45.7608C18.9527 45.874 13.471 49.3793 11.2254 54.8945C10.9275 55.6266 10.6847 56.3882 10.503 57.1763L6.76142 74.1001C6.49874 75.2885 7.37925 76.4234 8.59433 76.4623L19.4647 76.8107L17.0189 108.172H65.7377L64.6232 78.4562L75.0842 67.3973C75.901 66.534 75.8612 65.1705 74.9957 64.3566Z"
        fill="#1D7C4E" />
      <path
        d="M55.2696 18.8421C53.7242 18.6707 52.3016 16.0183 52.3016 16.0183C52.3016 16.0183 42.7058 15.6179 42.3618 14.2969L41.491 22.1685L39.1579 21.9097L37.1094 21.6823C36.784 21.6463 36.4641 21.6562 36.1527 21.6987C34.4113 21.9365 32.975 23.334 32.7731 25.1578L32.731 25.5393C32.4931 27.6889 34.0552 29.6429 36.2024 29.8807L37.244 29.9962L34.7573 42.9292C34.0303 46.7106 36.5023 50.3661 40.2789 51.0939L40.9461 51.2225C44.7226 51.9504 48.3734 49.4753 49.1004 45.6939L50.0371 40.8225C53.4873 41.1473 56.5732 38.6464 56.9564 35.1846L58.6459 19.9122C58.6851 19.5589 58.6871 18.4623 58.6688 18.1185C58.149 18.285 57.5877 19.0989 57.01 19.0348L55.2696 18.8421Z"
        fill="#E69773" />
      <path
        d="M36.0393 27.2366C35.9439 27.2261 35.8557 27.1689 35.809 27.0766C35.7358 26.9317 35.7939 26.7547 35.939 26.6815L37.0688 26.1103L36.0135 24.6352C35.9191 24.5034 35.9495 24.3195 36.0815 24.225C36.2121 24.1304 36.3961 24.1605 36.4912 24.293L37.7461 26.0471C37.7961 26.1168 37.8128 26.2051 37.7925 26.2886C37.7719 26.372 37.7164 26.4423 37.6396 26.4813L36.2033 27.2072C36.151 27.2333 36.0942 27.2425 36.0393 27.2366Z"
        fill="#AF4E4A" />
      <path
        d="M51.2538 29.5454L50.16 29.4241C49.9986 29.4061 49.8826 29.2608 49.9002 29.0992C49.9182 28.9376 50.0632 28.8215 50.2246 28.8392L51.3185 28.9605C51.626 28.9945 51.9311 28.8915 52.1549 28.6772C52.3787 28.4633 52.4957 28.1633 52.4758 27.8541L52.2252 23.9337C52.2147 23.7718 52.3379 23.6321 52.4999 23.6216C52.6617 23.6118 52.8012 23.7345 52.8116 23.8968L53.0622 27.8165C53.0929 28.2994 52.9103 28.7685 52.5604 29.1025C52.2105 29.4375 51.7344 29.5988 51.2538 29.5454Z"
        fill="#AF4E4A" />
      <path
        d="M55.9245 26.5564C55.9548 26.9981 55.6222 27.3805 55.1815 27.4109C54.7407 27.4413 54.3585 27.1083 54.3281 26.667C54.2977 26.2257 54.6303 25.8429 55.0711 25.8125C55.5118 25.7818 55.8941 26.1151 55.9245 26.5564Z"
        fill="#111111" />
      <path
        d="M49.7772 36.5652C49.7406 36.5708 49.702 36.5639 49.6674 36.5436C49.6328 36.523 48.7993 36.0408 48.0733 36.6578C48.0034 36.7173 47.8985 36.7085 47.8384 36.6385C47.779 36.5681 47.7875 36.4631 47.8574 36.4033C48.7686 35.6302 49.8275 36.2511 49.8383 36.2574C49.9167 36.3048 49.9422 36.4065 49.8951 36.4854C49.869 36.5305 49.8249 36.5583 49.7772 36.5652Z"
        fill="#AF4E4A" />
      <path
        d="M44.5393 22.5061C44.9405 22.6579 45.4479 22.5856 45.9416 22.5434C46.4385 22.4907 46.9384 22.4501 47.3742 22.4302C47.8111 22.4099 48.3132 22.404 48.8128 22.4106C49.3088 22.4066 49.8233 22.4315 50.203 22.2437C50.5702 22.0677 50.7019 21.6065 50.2324 21.068C49.7907 20.5433 48.6736 20.0022 47.2285 20.0656C45.7854 20.136 44.7409 20.7772 44.3658 21.3395C43.9659 21.9182 44.1524 22.3648 44.5393 22.5061Z"
        fill="#2B2B39" />
      <path
        d="M58.0746 24.0552C57.7769 24.1079 57.4496 23.9725 57.1258 23.8622C56.802 23.7435 56.474 23.6332 56.1848 23.5492C55.8957 23.4648 55.5595 23.3807 55.2226 23.3071C54.8903 23.2256 54.5404 23.1638 54.3202 22.9597C54.1062 22.7673 54.1036 22.3937 54.5189 22.0561C54.9129 21.7247 55.7633 21.4875 56.7219 21.7643C57.6779 22.046 58.2602 22.7016 58.4075 23.191C58.5689 23.6967 58.3605 24.0085 58.0746 24.0552Z"
        fill="#2B2B39" />
      <path
        d="M48.9704 26.0635C48.8812 26.5394 48.4238 26.8525 47.9487 26.7635C47.4737 26.6742 47.1603 26.2162 47.2495 25.7406C47.3387 25.2646 47.7961 24.9515 48.2712 25.0405C48.7466 25.1295 49.0596 25.5878 48.9704 26.0635Z"
        fill="#111111" />
      <path d="M47.1113 26.7155C47.1113 26.7155 47.9504 26.2424 48.6303 26.9929L47.1113 26.7155Z" fill="#E69773" />
      <path
        d="M48.5981 27.2855C48.5295 27.2779 48.4632 27.2462 48.4129 27.1909C47.9123 26.6387 47.3196 26.9371 47.254 26.9734C47.1122 27.0499 46.9335 26.9995 46.8554 26.8579C46.7773 26.7166 46.8266 26.5393 46.9671 26.4601C47.3285 26.2566 48.1848 26.0649 48.8477 26.7954C48.9568 26.9158 48.9477 27.1019 48.8278 27.2112C48.7628 27.2701 48.6788 27.2943 48.5981 27.2855Z"
        fill="#AF4E4A" />
      <path d="M54.4043 27.4682C54.4043 27.4682 55.143 27.2307 55.7556 27.6321L54.4043 27.4682Z" fill="#E69773" />
      <path
        d="M55.7238 27.9254C55.6793 27.9205 55.6352 27.9054 55.5954 27.8789C55.1115 27.5613 54.4992 27.7468 54.493 27.7494C54.3385 27.7978 54.1744 27.7111 54.1251 27.557C54.0764 27.403 54.1607 27.2381 54.3146 27.1887C54.3502 27.1772 55.1948 26.9142 55.9169 27.3869C56.0524 27.4756 56.0907 27.6578 56.0018 27.7939C55.9394 27.8901 55.8303 27.9372 55.7238 27.9254Z"
        fill="#AF4E4A" />
      <path
        d="M46.1098 29.313C46.4002 29.1628 46.7551 29.2472 46.9704 29.4932C47.3628 29.9421 48.2341 30.7576 49.5802 31.0474C49.9105 31.1184 50.0399 31.527 49.8628 31.8152C49.4734 32.4489 48.5145 33.3865 46.8472 32.3655C44.8163 31.1217 45.3528 29.7042 46.1098 29.313Z"
        fill="white" />
      <path
        d="M49.9922 40.8541C49.9922 40.8541 42.8292 40.5247 41.3926 37.4453C41.3926 37.4453 41.6709 43.8736 49.2326 44.8049L49.9922 40.8541Z"
        fill="#AF4E4A" />
      <path
        d="M42.5442 27.7284C42.4926 28.1936 43.0794 28.6405 43.8543 28.7265C44.6293 28.8126 45.2994 28.5051 45.351 28.0399C45.4023 27.5747 44.8159 27.1278 44.0409 27.0418C43.2659 26.9557 42.5958 27.2632 42.5442 27.7284Z"
        fill="#AF4E4A" />
      <path
        d="M46.242 29.0387C43.8415 29.0161 41.9073 27.0425 41.9299 24.639C41.9528 22.2359 43.9235 20.2996 46.3243 20.3225C48.725 20.345 50.6589 22.3187 50.636 24.7215C50.6135 27.125 48.6424 29.0613 46.242 29.0387ZM46.3184 20.9653C44.2721 20.9457 42.5918 22.5967 42.5725 24.6446C42.5533 26.6931 44.2019 28.3756 46.2482 28.3952C48.2941 28.4145 49.9744 26.7638 49.9937 24.7149C50.013 22.6671 48.3643 20.9849 46.3184 20.9653Z"
        fill="#FDFEFF" />
      <path
        d="M56.1909 30.4163C53.7904 30.3934 51.8562 28.4201 51.8791 26.0163C51.902 23.6135 53.8728 21.6768 56.2735 21.6994C58.6739 21.7223 60.6081 23.6959 60.5856 26.0988C60.5621 28.5026 58.5913 30.4389 56.1909 30.4163ZM56.267 22.3429C54.221 22.3236 52.5407 23.9743 52.5214 26.0225C52.5022 28.0711 54.1508 29.7535 56.1967 29.7728C58.2427 29.7925 59.923 28.1414 59.9426 26.0929C59.9619 24.0447 58.3129 22.3625 56.267 22.3429Z"
        fill="#FDFEFF" />
      <path
        d="M51.9526 25.9141C51.389 25.1297 50.5696 25.5975 50.4772 25.6537L50.1387 25.1071C50.6209 24.8045 51.7318 24.5045 52.4744 25.5383L51.9526 25.9141Z"
        fill="#FDFEFF" />
      <path
        d="M42.6068 22.9473C42.4748 22.9535 42.3415 22.9107 42.25 22.8223C42.2039 22.788 41.474 22.2754 38.2794 21.9937C38.034 21.9721 37.8595 21.7886 37.8902 21.5841C37.9193 21.3787 38.1487 21.2276 38.3888 21.2527C42.0651 21.5763 42.8299 22.2188 42.9459 22.3447C43.0959 22.5067 43.057 22.7409 42.8606 22.8681C42.7839 22.9172 42.696 22.9431 42.6068 22.9473Z"
        fill="#FDFEFF" />
      <path
        d="M55.4584 19.5252C58.2098 19.5252 60.4403 17.2919 60.4403 14.537C60.4403 11.7821 58.2098 9.54883 55.4584 9.54883C52.707 9.54883 50.4766 11.7821 50.4766 14.537C50.4766 17.2919 52.707 19.5252 55.4584 19.5252Z"
        fill="#1A1A1A" />
      <path
        d="M48.6947 16.5897C51.4462 16.5897 53.6766 14.3564 53.6766 11.6015C53.6766 8.84657 51.4462 6.61328 48.6947 6.61328C45.9433 6.61328 43.7129 8.84657 43.7129 11.6015C43.7129 14.3564 45.9433 16.5897 48.6947 16.5897Z"
        fill="#1A1A1A" />
      <path
        d="M41.8373 18.0701C44.5887 18.0701 46.8192 15.8368 46.8192 13.0819C46.8192 10.327 44.5887 8.09375 41.8373 8.09375C39.0859 8.09375 36.8555 10.327 36.8555 13.0819C36.8555 15.8368 39.0859 18.0701 41.8373 18.0701Z"
        fill="#1A1A1A" />
      <path
        d="M38.7656 23.8241C40.8658 23.8241 42.5683 22.1194 42.5683 20.0165C42.5683 17.9137 40.8658 16.209 38.7656 16.209C36.6654 16.209 34.9629 17.9137 34.9629 20.0165C34.9629 22.1194 36.6654 23.8241 38.7656 23.8241Z"
        fill="#1A1A1A" />
      <path
        d="M36.7578 20.6288C38.858 20.6288 40.5605 18.9241 40.5605 16.8212C40.5605 14.7184 38.858 13.0137 36.7578 13.0137C34.6576 13.0137 32.9551 14.7184 32.9551 16.8212C32.9551 18.9241 34.6576 20.6288 36.7578 20.6288Z"
        fill="#1A1A1A" />
      <path
        d="M52.6226 48.9624L50.9779 44.7309C50.9155 43.9098 50.0964 43.5231 49.5799 44.0707L43.5486 50.3861C43.4992 50.4378 43.4182 50.4427 43.363 50.3976L34.4219 43.0782C34.1021 42.8132 33.5698 42.9068 33.3986 43.2581L30.8979 48.3922C30.6378 48.9261 30.7166 49.5634 31.0985 50.0177L36.3512 56.2648C36.8197 56.8219 37.762 56.8876 38.3302 56.4028L43.2862 51.8199C43.3934 51.7208 43.5613 51.7293 43.658 51.8386L46.7916 55.388C47.1353 55.9007 47.7986 55.8621 48.0992 55.3121L52.3603 50.4316C52.7164 50.023 52.8167 49.4616 52.6226 48.9624Z"
        fill="#145234" />
      <path
        d="M56.0176 24.6841C56.4194 24.4813 57.4767 23.9929 58.3206 24.0164C58.5327 24.0217 58.6889 24.1941 58.6696 24.4012C58.6581 24.5265 58.5856 24.6351 58.4827 24.7005C58.4154 24.743 58.3357 24.7676 58.252 24.7646C57.5685 24.7463 56.5413 25.2282 56.2032 25.4156C56.1434 25.4487 56.0803 25.4601 56.0176 25.4617V24.6841Z"
        fill="#FDFEFF" />
      <path
        d="M44.7112 56.3969C44.7112 56.957 44.2577 57.4114 43.6984 57.4114C43.139 57.4114 42.6855 56.9573 42.6855 56.3969C42.6855 55.8369 43.139 55.3828 43.6984 55.3828C44.2577 55.3825 44.7112 55.8365 44.7112 56.3969Z"
        fill="#145234" />
      <path
        d="M44.7112 61.1059C44.7112 61.666 44.2577 62.12 43.6984 62.12C43.139 62.12 42.6855 61.666 42.6855 61.1059C42.6855 60.5459 43.139 60.0918 43.6984 60.0918C44.2577 60.0915 44.7112 60.5459 44.7112 61.1059Z"
        fill="#145234" />
      <path
        d="M44.7112 65.8169C44.7112 66.3769 44.2577 66.8313 43.6984 66.8313C43.139 66.8313 42.6855 66.3772 42.6855 65.8169C42.6855 65.2568 43.139 64.8027 43.6984 64.8027C44.2577 64.8027 44.7112 65.2568 44.7112 65.8169Z"
        fill="#145234" />
      <path
        d="M52.1753 96.5187L26.7952 82.1244L27.7966 76.9281L9.4097 76.3867L8.45143 81.2284C6.71555 93.3697 22.2907 99.2572 22.2907 99.2572L47.1356 107.616"
        fill="#E69773" />
      <path
        d="M26.8838 81.9649C26.8655 81.9649 26.8469 81.9633 26.8279 81.9594C26.6688 81.9286 26.5643 81.7745 26.5953 81.6149L27.5555 76.6316L29.9498 76.6509C29.9524 76.6509 29.9547 76.6509 29.9573 76.6509C30.4147 76.6509 30.7885 76.2943 30.8097 75.836L31.4426 62.3354C31.4501 62.1728 31.586 62.0442 31.7497 62.0554C31.9117 62.0632 32.0369 62.2006 32.0293 62.3629L31.3965 75.8635C31.3602 76.6414 30.7277 77.2548 29.9449 77.2391L28.0397 77.2237L27.1716 81.7261C27.1445 81.8674 27.0217 81.9649 26.8838 81.9649Z"
        fill="#145234" />
      <path
        d="M20.5245 84.4724C20.4016 84.4724 20.2873 84.3949 20.2458 84.2716C20.1942 84.1175 20.2772 83.951 20.431 83.8993L26.6267 81.8197C26.7799 81.769 26.9472 81.8511 26.9985 82.0051C27.0501 82.1592 26.9671 82.3257 26.8132 82.3774L20.6176 84.4574C20.5869 84.4675 20.5552 84.4724 20.5245 84.4724Z"
        fill="#E69773" />
      <path
        d="M46.1719 106.781C46.612 107.407 47.0962 107.924 47.6153 108.191L55.8553 112.688C57.3291 113.592 59.4218 112.845 58.8225 111.667C59.7504 112.639 61.1155 113.372 62.1839 112.113C62.8549 111.487 62.6449 110.81 62.1871 110.19C63.0575 111.057 64.0733 111.736 65.0394 110.759C66.2404 109.851 65.7046 108.733 64.9166 107.815C65.5801 108.34 66.3581 108.62 67.0804 107.893C68.9692 105.637 65.7294 103.792 63.9292 102.451C63.0343 101.88 62.2227 101.347 61.4674 100.844C62.4763 100.564 63.495 100.278 64.3366 99.6658C64.6075 99.4686 64.8754 99.1997 64.881 98.864C64.8852 98.6062 64.7264 98.3674 64.5203 98.2127C64.3144 98.0579 64.0651 97.9739 63.8194 97.897C61.5272 97.1809 54.5428 96.3797 54.5428 96.3797C53.7593 96.364 52.9634 96.4154 52.1757 96.5188"
        fill="#E69773" />
      <path
        d="M60.8223 108.742C60.9412 108.85 61.0693 108.983 61.2055 109.131C61.0627 108.991 60.9304 108.861 60.8223 108.742Z"
        fill="#E69773" />
      <path opacity="0.3"
        d="M61.4676 100.843L56.9961 98.3867C56.9961 98.3867 62.505 99.7375 63.2721 100.255L61.4676 100.843Z"
        fill="#AF4E4A" />
      <path
        d="M62.2284 106.264C62.1578 106.173 62.1486 106.045 62.2146 105.943C62.2979 105.816 62.4685 105.78 62.5962 105.863C62.8563 106.033 65.1473 107.535 65.4868 107.925C65.5929 108.026 65.575 108.214 65.46 108.315C65.3453 108.414 65.1711 108.403 65.0712 108.287C64.8532 108.037 63.2526 106.951 62.295 106.325C62.2689 106.308 62.2463 106.288 62.2284 106.264Z"
        fill="#AF4E4A" />
      <path
        d="M59.8687 108.979C59.7972 108.887 59.7893 108.756 59.858 108.654C59.9432 108.528 60.1144 108.495 60.2405 108.581L62.5312 110.135C62.6576 110.221 62.69 110.392 62.6047 110.518C62.5194 110.644 62.3482 110.677 62.2221 110.592L59.9318 109.037C59.907 109.021 59.886 109.001 59.8687 108.979Z"
        fill="#AF4E4A" />
      <path
        d="M42.7812 105.756C42.7812 105.756 44.4894 98.642 48.5557 94.4196C49.5428 94.3526 50.8441 94.7376 51.5655 95.4619C51.5655 95.4619 47.2243 100.132 45.4996 107.344C44.3554 107.191 43.4481 106.658 42.7812 105.756Z"
        fill="#2B2B39" />
      <path
        d="M50.8333 100.27C51.8418 98.3011 51.0652 95.8859 49.0987 94.876C47.1321 93.8661 44.7203 94.6437 43.7114 96.6128C42.7028 98.5818 43.4794 100.997 45.4459 102.007C47.4128 103.017 49.8247 102.239 50.8333 100.27Z"
        fill="#2B2B39" />
      <path
        d="M48.5871 95.876C47.1737 95.1504 45.4346 95.7112 44.7096 97.126C43.9849 98.5412 44.5449 100.283 45.958 101.008C47.3714 101.734 49.1106 101.173 49.8355 99.7582C50.5602 98.3433 50.0002 96.6019 48.5871 95.876Z"
        fill="white" />
    </g>
    <path
      d="M81.4316 33.0974C80.5318 33.9646 79.7954 33.6503 79.7954 32.3999V28.3683C79.7954 27.118 78.7737 26.0947 77.5247 26.0947H72.372C71.1232 26.0947 70.1016 25.0717 70.1016 23.8211V7.8846C70.1016 6.63429 71.1232 5.61133 72.372 5.61133H96.5347C97.7834 5.61133 98.8051 6.63429 98.8051 7.8846V23.8211C98.8051 25.0714 97.7834 26.0947 96.5347 26.0947H90.9735C89.7248 26.0947 87.9664 26.8033 87.0666 27.6705L81.4316 33.0974Z"
      fill="#1D7C4E" />
    <path
      d="M93.8695 12.0647H75.0362C74.5837 12.0647 74.2168 11.6974 74.2168 11.2443C74.2168 10.7912 74.5837 10.4238 75.0362 10.4238H93.8695C94.322 10.4238 94.6889 10.7912 94.6889 11.2443C94.6889 11.6974 94.322 12.0647 93.8695 12.0647Z"
      fill="white" />
    <path
      d="M93.8695 16.1565H75.0362C74.5837 16.1565 74.2168 15.7892 74.2168 15.3361C74.2168 14.883 74.5837 14.5156 75.0362 14.5156H93.8695C94.322 14.5156 94.6889 14.883 94.6889 15.3361C94.6889 15.7892 94.322 16.1565 93.8695 16.1565Z"
      fill="white" />
    <path
      d="M93.8702 20.2483H78.9054C78.4528 20.2483 78.0859 19.881 78.0859 19.4279C78.0859 18.9748 78.4528 18.6074 78.9054 18.6074H93.8702C94.3227 18.6074 94.6896 18.9748 94.6896 19.4279C94.6896 19.881 94.3227 20.2483 93.8702 20.2483Z"
      fill="white" />
    <path
      d="M95.1373 76.2402H61.0082C59.7876 76.2402 58.7176 77.0564 58.3928 78.2345L50.5306 106.771H49.5599H27.6643C27.2484 106.771 27.0001 107.236 27.231 107.582L29.0365 110.294H49.5599H88.5545L97.7533 79.7674C98.2829 78.0107 96.9698 76.2402 95.1373 76.2402Z"
      fill="#5F5F75" />
    <path
      d="M91.4871 110.364H52.4922L61.3251 78.3048C61.6499 77.1268 62.7199 76.3105 63.9405 76.3105H98.0696C99.9022 76.3105 101.216 78.081 100.686 79.8374L91.4871 110.364Z"
      fill="#2B2B39" />
    <path
      d="M74.5293 94.549C74.5293 92.1315 76.4939 90.1641 78.9087 90.1641C81.3232 90.1641 83.2874 92.1311 83.2874 94.549C83.2874 96.9666 81.3235 98.9333 78.9087 98.9333C76.4939 98.9336 74.5293 96.9666 74.5293 94.549ZM75.1971 94.549C75.1971 96.5982 76.8618 98.265 78.9087 98.265C80.9549 98.265 82.6196 96.5982 82.6196 94.549C82.6196 92.4998 80.9549 90.8327 78.9087 90.8327C76.8618 90.8327 75.1971 92.4998 75.1971 94.549Z"
      fill="#F6EEE3" />
    <path
      d="M166.901 27.9659C166.843 27.9659 166.783 27.9548 166.726 27.9316L164.599 27.066C164.485 27.0192 164.393 26.9289 164.345 26.8147C164.297 26.7005 164.296 26.572 164.343 26.4575L165.012 24.8113C164.636 24.5529 164.294 24.2519 163.993 23.9114L162.381 24.5918C162.144 24.6916 161.87 24.5807 161.77 24.3432L160.878 22.2256C160.83 22.1115 160.829 21.9829 160.876 21.8684C160.922 21.7536 161.013 21.6623 161.127 21.6142L162.631 20.9792C162.574 20.5834 162.56 20.1817 162.59 19.779L161.111 19.177C160.997 19.1303 160.905 19.04 160.857 18.9258C160.809 18.8116 160.808 18.6831 160.855 18.5686L161.72 16.4396C161.766 16.3247 161.856 16.2335 161.97 16.1854C162.084 16.1373 162.213 16.1363 162.327 16.1831L163.727 16.7533C164.027 16.3578 164.377 16.0064 164.773 15.7032L164.139 14.198C164.039 13.9602 164.15 13.6867 164.387 13.5863L166.502 12.6929C166.616 12.6448 166.745 12.6438 166.859 12.6906C166.974 12.7373 167.065 12.8276 167.113 12.9418L167.793 14.5562C168.059 14.5369 168.327 14.5366 168.593 14.5559L169.297 12.8244C169.394 12.5856 169.665 12.4707 169.904 12.5676L172.031 13.4332C172.145 13.4796 172.236 13.5702 172.285 13.6844C172.333 13.7986 172.334 13.9271 172.287 14.0416L171.616 15.694C172.011 15.9953 172.362 16.346 172.664 16.7422L174.168 16.1072C174.282 16.0591 174.41 16.0581 174.525 16.1049C174.639 16.1517 174.731 16.242 174.779 16.3558L175.671 18.4737C175.771 18.7112 175.66 18.985 175.422 19.0854L173.811 19.7659C173.838 20.1306 173.83 20.4934 173.787 20.8507L175.437 21.5226C175.676 21.6198 175.791 21.892 175.694 22.1308L174.829 24.2598C174.783 24.3746 174.692 24.4659 174.579 24.5143C174.464 24.5624 174.336 24.563 174.222 24.5166L172.492 23.8119C172.32 24.0167 172.133 24.2084 171.933 24.386L172.613 25.9998C172.713 26.2373 172.602 26.5111 172.365 26.6116L170.25 27.505C170.136 27.5531 170.008 27.5537 169.893 27.5073C169.778 27.4605 169.687 27.3702 169.639 27.2564L169.005 25.7502C168.702 25.794 168.397 25.8127 168.092 25.8065L167.333 27.6751C167.26 27.856 167.085 27.9659 166.901 27.9659ZM165.383 26.3767L166.645 26.8906L167.353 25.1473C167.43 24.9582 167.618 24.8408 167.824 24.8581C168.282 24.8961 168.742 24.866 169.191 24.7685C169.412 24.7207 169.632 24.8365 169.72 25.0433L170.317 26.463L171.573 25.9328L170.94 24.4305C170.858 24.2359 170.917 24.0105 171.083 23.8806C171.418 23.6196 171.716 23.313 171.969 22.9702C172.096 22.7985 172.323 22.7347 172.52 22.8151L174.142 23.4756L174.655 22.2116L173.095 21.5763C172.889 21.4922 172.77 21.2743 172.812 21.0555C172.907 20.5608 172.92 20.0485 172.85 19.5333C172.821 19.3243 172.936 19.1218 173.13 19.0396L174.631 18.406L174.101 17.1485L172.683 17.7471C172.477 17.8345 172.237 17.7618 172.114 17.5747C171.762 17.0438 171.317 16.5982 170.789 16.2501C170.603 16.1275 170.529 15.8906 170.613 15.6842L171.248 14.1218L169.986 13.6079L169.326 15.2314C169.246 15.4294 169.04 15.5468 168.831 15.518C168.41 15.4598 167.983 15.4598 167.561 15.518C167.353 15.5458 167.15 15.4316 167.068 15.237L166.436 13.7341L165.18 14.2644L165.778 15.6839C165.865 15.8906 165.792 16.1304 165.606 16.2544C165.075 16.6064 164.63 17.0526 164.283 17.5809C164.16 17.7671 163.923 17.8404 163.717 17.7566L162.408 17.2231L161.894 18.4871L163.265 19.0455C163.463 19.126 163.581 19.3301 163.551 19.5415C163.476 20.0888 163.497 20.6348 163.611 21.1654C163.658 21.3849 163.543 21.607 163.336 21.694L161.918 22.2927L162.448 23.5499L163.949 22.9162C164.143 22.8341 164.369 22.893 164.498 23.0595C164.863 23.5283 165.31 23.9199 165.826 24.2228C166.026 24.3399 166.11 24.5866 166.022 24.8015L165.383 26.3767ZM168.204 22.7464C167.201 22.7464 166.246 22.155 165.832 21.1732C165.281 19.8657 165.896 18.3536 167.201 17.8021C168.507 17.2505 170.018 17.8656 170.568 19.1731C170.835 19.8058 170.839 20.5052 170.58 21.1422C170.321 21.7794 169.831 22.2773 169.199 22.5443C168.874 22.6813 168.536 22.7464 168.204 22.7464ZM168.198 18.5332C167.986 18.5332 167.771 18.5748 167.564 18.6621C166.732 19.0138 166.34 19.9772 166.692 20.8101C167.042 21.643 168.005 22.0349 168.837 21.6836C169.239 21.5138 169.552 21.1968 169.717 20.7902C169.882 20.3839 169.879 19.9383 169.71 19.5356C169.446 18.9101 168.837 18.5332 168.198 18.5332Z"
      fill="#CCC0B2" />
    <path
      d="M89.5951 139.432C85.9263 139.432 82.9414 136.443 82.9414 132.77C82.9414 129.096 85.9263 126.107 89.5951 126.107C93.2639 126.107 96.2488 129.096 96.2488 132.77C96.2488 136.443 93.2639 139.432 89.5951 139.432ZM89.5951 127.041C86.4406 127.041 83.8739 129.611 83.8739 132.769C83.8739 135.928 86.4403 138.498 89.5951 138.498C92.7496 138.498 95.3163 135.928 95.3163 132.769C95.316 129.611 92.7496 127.041 89.5951 127.041Z"
      fill="#CCC0B2" />
    <path
      d="M87.7806 135.897C87.7721 135.897 87.7636 135.897 87.7551 135.896C87.6228 135.889 87.4999 135.826 87.4169 135.722L86.21 134.216C86.0489 134.015 86.081 133.721 86.2819 133.56C86.4828 133.399 86.7762 133.431 86.9373 133.632L87.8188 134.732L92.765 129.779C92.947 129.597 93.2424 129.597 93.4244 129.779C93.6064 129.961 93.6064 130.257 93.4244 130.439L88.1102 135.76C88.0224 135.848 87.9038 135.897 87.7806 135.897Z"
      fill="#CCC0B2" />
    <path
      d="M24.069 149.435L19.3171 146.506H7.94722C6.87982 146.506 6.01172 145.636 6.01172 144.568V136.309C6.01172 135.24 6.88015 134.371 7.94722 134.371H21.4441C22.5115 134.371 23.3799 135.241 23.3799 136.309V144.69L24.7564 148.891C24.8175 149.078 24.7558 149.282 24.6022 149.403C24.5179 149.47 24.4156 149.504 24.3134 149.504C24.2288 149.504 24.1441 149.481 24.069 149.435ZM7.94722 135.305C7.39408 135.305 6.94418 135.756 6.94418 136.309V144.568C6.94418 145.122 7.39408 145.573 7.94722 145.573H19.4491C19.5354 145.573 19.62 145.596 19.6935 145.642L23.4734 147.972L22.4707 144.91C22.4553 144.864 22.4475 144.814 22.4475 144.765V136.309C22.4475 135.756 21.9976 135.305 21.4444 135.305H7.94722Z"
      fill="#CCC0B2" />
    <path
      d="M17.3457 140.544C17.3457 141.159 17.8433 141.657 18.4572 141.657C19.0711 141.657 19.5684 141.159 19.5684 140.544C19.5684 139.93 19.0708 139.432 18.4572 139.432C17.8433 139.432 17.3457 139.93 17.3457 140.544Z"
      fill="#CCC0B2" />
    <path
      d="M13.3281 140.544C13.3281 141.159 13.8257 141.657 14.4393 141.657C15.0529 141.657 15.5505 141.159 15.5505 140.544C15.5505 139.93 15.0529 139.432 14.4393 139.432C13.8257 139.432 13.3281 139.93 13.3281 140.544Z"
      fill="#CCC0B2" />
    <path
      d="M9.31055 140.544C9.31055 141.159 9.80814 141.657 10.4217 141.657C11.0353 141.657 11.5329 141.159 11.5329 140.544C11.5329 139.93 11.0353 139.432 10.4217 139.432C9.80814 139.432 9.31055 139.93 9.31055 140.544Z"
      fill="#CCC0B2" />
  </g>
  <defs>
    <clipPath id="clip0_1156_140474">
      <rect width="228" height="156" fill="white" />
    </clipPath>
  </defs>
</svg>