<svg width="100%" height="100%" viewBox="0 0 204 130" fill="none" xmlns="http://www.w3.org/2000/svg">
    <g clip-path="url(#clip0_6630_101840)">
        <path
            d="M32.5783 125.793C16.6536 115.824 4.33652 98.4636 0.957169 80.093C-2.42219 61.7223 3.23115 41.6837 16.5796 28.5099C29.928 15.3364 50.8424 9.85849 68.6836 15.84C79.0886 19.3283 88.133 26.3057 98.7736 29.007C113.368 32.7121 128.581 27.9098 143.251 24.5106C157.921 21.1115 174.678 19.4908 186.846 28.2996C194.558 33.883 199.106 42.8733 201.586 52.0172C208.64 78.0284 199.894 107.65 179.815 125.794H32.5783V125.793Z"
            fill="#ADEBCD" />
        <path
            d="M150.019 120.108H48.1787V61.7699C48.1787 59.3611 50.1483 57.4082 52.5777 57.4082H145.62C148.05 57.4082 150.019 59.3611 150.019 61.7699V120.108Z"
            fill="#D4CFBE" />
        <path
            d="M49.6445 120.108V61.77C49.6445 60.1666 50.96 58.8623 52.5771 58.8623H145.62C147.236 58.8623 148.552 60.1666 148.552 61.77V120.108H49.6445Z"
            fill="#402C49" />
        <path d="M144.153 115.746V63.2236L54.0437 63.2236L54.0437 115.746L144.153 115.746Z" fill="#2BB572" />
        <path
            d="M148.566 125.793H49.6303C47.0807 125.793 44.5919 125.021 42.4971 123.579H155.7C153.605 125.021 151.116 125.793 148.566 125.793Z"
            fill="#D4CFBE" />
        <path d="M155.7 120.107H42.4971V123.562H155.7V120.107Z" fill="#EFEFEF" />
        <path
            d="M107.719 121.835H90.4784C89.5163 121.835 88.7363 121.061 88.7363 120.107H109.461C109.461 121.061 108.681 121.835 107.719 121.835Z"
            fill="#D4CFBE" />
        <path
            d="M137.139 101.001C134.489 97.2633 129.998 94.2631 129.797 89.6982C129.595 85.1177 134.007 81.0899 133.251 76.5669C132.886 74.3876 131.294 72.5224 129.32 71.4989C127.346 70.4754 125.033 70.2249 122.817 70.4507C117.963 70.9451 113.639 73.5569 109.333 75.831C105.027 78.1047 100.229 80.1472 95.4145 79.3673C92.0873 78.8284 89.1439 76.9971 86.0474 75.6747C82.9509 74.3523 79.2809 73.5563 76.2848 75.0894C70.9623 77.8132 71.1166 85.7033 66.8593 89.8806C64.9806 91.7238 62.3737 92.6929 60.4737 94.5148C57.3011 97.5559 56.679 102.526 57.8482 106.745C58.7609 110.04 60.5908 112.975 62.6422 115.746H138.762C140.644 110.963 140.132 105.223 137.139 101.001Z"
            fill="#ADEBCD" />
        <path
            d="M67.6594 75.8887C69.1 74.3881 71.3072 73.2834 71.6041 71.2322C71.8678 69.4104 70.2767 67.686 68.4603 67.3064C66.6439 66.927 64.7513 67.6195 63.2154 68.6531C59.2961 71.2911 56.4054 77.3074 58.3282 81.9392C61.5155 89.6172 65.878 77.7444 67.6594 75.8887Z"
            fill="#ADEBCD" />
        <path
            d="M80.7146 71.586C83.7386 70.3133 83.1321 65.6621 79.7911 65.4984C77.4377 65.3832 75.0942 67.607 76.2673 69.9621C77.0422 71.5171 79.1073 72.2625 80.7146 71.586Z"
            fill="#ADEBCD" />
        <path
            d="M133.427 90.2223C133.546 91.4199 133.94 92.6526 134.839 93.4607C135.738 94.2688 137.232 94.4988 138.165 93.7293C138.912 93.1137 139.119 92.0798 139.28 91.1299C139.619 89.1206 141.987 81.973 138.021 82.1376C134.505 82.2837 133.156 87.491 133.427 90.2223Z"
            fill="#ADEBCD" />
        <path
            d="M116.418 83.0517L115.395 81.1509C114.356 79.2185 113.528 77.1813 112.927 75.0743L112.372 73.1294C110.892 67.9447 106.119 64.3652 100.685 64.3652H99.0981H97.5115C92.0772 64.3652 87.3042 67.9447 85.8249 73.1294L85.2699 75.0743C84.6686 77.1816 83.841 79.2188 82.8012 81.1509L81.7782 83.0517C78.9529 88.3021 81.9161 94.7813 87.7609 96.1334L99.0981 98.7562L110.435 96.1334C116.281 94.7816 119.244 88.3024 116.418 83.0517Z"
            fill="#8C404C" />
        <path
            d="M111.336 86.4542L110.613 84.9651C109.878 83.4514 109.294 81.8554 108.869 80.2047L108.477 78.6811C107.432 74.6195 104.059 71.8154 100.22 71.8154H99.0991H97.9782C94.1386 71.8154 90.7664 74.6195 89.7212 78.6811L89.3293 80.2047C88.9044 81.8554 88.3198 83.4514 87.5851 84.9651L86.8624 86.4542C84.8662 90.5673 86.9598 95.643 91.0894 96.7021L99.0991 98.7566L107.109 96.7021C111.238 95.643 113.332 90.5673 111.336 86.4542Z"
            fill="#472948" />
        <path
            d="M85.8174 93.3478C85.068 92.6484 84.5569 91.6112 84.4007 90.4594C84.2293 89.3081 84.4499 88.0775 84.8673 86.8897C85.2838 85.6989 85.8828 84.5473 86.4116 83.421C86.9435 82.2986 87.3831 81.1844 87.5694 80.1826C87.0759 81.0745 86.4425 82.0297 85.7701 83.0734C85.1037 84.1159 84.4025 85.2737 83.9465 86.573C83.4883 87.8573 83.3148 89.3274 83.6855 90.6088C84.025 91.8866 84.8793 92.9241 85.8174 93.3478Z"
            fill="#A64F5A" />
        <path
            d="M112.315 93.3478C113.065 92.6484 113.576 91.6112 113.732 90.4594C113.904 89.3081 113.683 88.0775 113.266 86.8897C112.849 85.6989 112.25 84.5473 111.721 83.421C111.189 82.2986 110.75 81.1844 110.563 80.1826C111.057 81.0745 111.69 82.0297 112.363 83.0734C113.03 84.1159 113.731 85.2737 114.187 86.573C114.645 87.8573 114.818 89.3274 114.448 90.6088C114.108 91.8866 113.254 92.9241 112.315 93.3478Z"
            fill="#A64F5A" />
        <path
            d="M112.771 102.416L106.231 100.665L105.267 100.407C104.371 100.167 103.749 99.362 103.749 98.4422V94.4551C103.615 94.6913 103.475 94.9227 103.333 95.1488C102.203 96.935 100.683 97.9359 99.0989 97.9359C97.5153 97.9359 95.9949 96.935 94.8656 95.1488C94.7227 94.9227 94.5836 94.6913 94.4488 94.4551V98.4422C94.4488 99.362 93.8267 100.167 92.9311 100.407L91.9654 100.666L85.4272 102.416C84.7015 102.611 84.0108 102.884 83.3594 103.22C86.244 107.765 91.5501 110.594 97.3263 110.594H99.098H100.87C106.646 110.594 111.953 107.764 114.837 103.22C114.186 102.884 113.496 102.611 112.771 102.416Z"
            fill="#F0BF9C" />
        <path
            d="M99.0994 97.9357C100.683 97.9357 102.203 96.9348 103.333 95.1486C103.476 94.9225 103.615 94.691 103.75 94.4549V88.293H94.4492V94.4549C94.5841 94.691 94.7231 94.9225 94.866 95.1486C95.9954 96.9348 97.5158 97.9357 99.0994 97.9357Z"
            fill="#422C4F" />
        <path
            d="M120.009 109.55C119.238 106.788 117.344 104.513 114.837 103.22C111.953 107.764 106.646 110.594 100.87 110.594H99.0981H97.3263C91.5501 110.594 86.2438 107.765 83.3594 103.221C80.8541 104.514 78.9598 106.789 78.19 109.55L76.4629 115.746H121.736L120.009 109.55Z"
            fill="#CC6164" />
        <path
            d="M98.2446 113.518C101.097 113.603 103.951 113.144 106.477 112.292C109.008 111.447 111.201 110.213 112.892 108.919C111.017 109.936 108.763 110.913 106.258 111.577C103.757 112.247 101.012 112.602 98.2746 112.522C95.5373 112.44 92.819 111.922 90.3631 111.105C87.9022 110.293 85.7118 109.184 83.9014 108.057C85.5107 109.449 87.6253 110.811 90.1012 111.805C92.5706 112.805 95.3923 113.433 98.2446 113.518Z"
            fill="#A34262" />
        <path
            d="M81.9277 108.573C82.5525 109.984 83.3948 111.768 84.1373 113.595C84.4339 114.315 84.7141 115.041 84.9787 115.746H85.6178C85.4156 114.944 85.1522 114.121 84.822 113.319C84.0609 111.446 82.9663 109.718 81.9277 108.573Z"
            fill="#A34262" />
        <path
            d="M85.1094 111.291C85.7764 112.644 86.8581 114.253 88.1381 115.746H89.186C89.1593 115.716 89.1324 115.686 89.1057 115.656C87.6833 114.071 86.2735 112.473 85.1094 111.291Z"
            fill="#A34262" />
        <path
            d="M112.334 115.546C113.065 114.703 113.744 113.72 114.302 112.671C114.858 111.622 115.29 110.51 115.576 109.435C115.863 108.36 116.003 107.324 116.022 106.427C115.429 108.123 114.617 110.26 113.54 112.273C112.89 113.507 112.147 114.685 111.422 115.746H112.155C112.215 115.68 112.275 115.614 112.334 115.546Z"
            fill="#A34262" />
        <path
            d="M111.885 111.869C110.87 112.97 109.57 114.365 108.139 115.625C108.093 115.666 108.046 115.706 108 115.746H109.054C110.327 114.521 111.333 113.091 111.885 111.869Z"
            fill="#A34262" />
        <path
            d="M99.0666 68.0117C93.3938 68.0117 88.7949 72.5716 88.7949 78.1964V82.3763C88.7949 86.5348 90.4795 90.5192 93.4702 93.4347C94.9633 94.8902 96.973 95.7057 99.0666 95.7057C101.16 95.7057 103.17 94.8902 104.663 93.4347C107.654 90.5192 109.338 86.5348 109.338 82.3763V78.1964C109.338 72.5713 104.739 68.0117 99.0666 68.0117Z"
            fill="#F0BF9C" />
        <path
            d="M100.572 86.6711C99.5998 86.4427 98.5673 86.4697 97.6084 86.7484C97.8625 87.2811 98.4513 87.6266 99.0458 87.6397C99.64 87.6525 100.295 87.1923 100.572 86.6711Z"
            fill="#EBA588" />
        <path
            d="M102.061 88.998C100.118 89.4253 98.0836 89.4333 96.1377 89.0212C96.3265 90.3534 97.7027 91.4682 99.0574 91.5409C100.412 91.6134 101.728 90.3023 102.061 88.998Z"
            fill="white" />
        <path
            d="M100.284 91.9883C99.4694 92.0323 98.6552 92.0759 97.8408 92.1196C98.1225 92.4639 98.6346 92.7073 99.0816 92.7046C99.529 92.7016 100.007 92.3365 100.284 91.9883Z"
            fill="#EBA588" />
        <path
            d="M96.1782 84.2636C96.1941 83.9448 96.0748 83.558 95.8102 83.2321C95.5498 82.9059 95.145 82.6421 94.6848 82.5508C94.2248 82.459 93.7487 82.5479 93.3813 82.7493C93.0107 82.9487 92.7503 83.26 92.6406 83.5601C93.2004 83.2484 93.9069 83.0827 94.5511 83.2104C95.1954 83.3391 95.783 83.7621 96.1782 84.2636Z"
            fill="#422C4F" />
        <path
            d="M101.66 84.249C101.67 83.91 101.829 83.5101 102.137 83.1869C102.44 82.8627 102.891 82.6164 103.386 82.5579C103.881 82.4988 104.378 82.6319 104.75 82.8758C105.126 83.1176 105.375 83.4688 105.466 83.7959C104.899 83.4195 104.165 83.1857 103.471 83.2677C102.779 83.3509 102.121 83.7505 101.66 84.249Z"
            fill="#422C4F" />
        <path
            d="M109.938 75.5481C109.619 71.1944 106.181 67.7025 101.799 67.2798C99.9974 67.106 98.1824 67.106 96.3801 67.2798C91.9981 67.7025 88.561 71.1944 88.2412 75.5481L87.876 80.5234H99.09H110.304L109.938 75.5481Z"
            fill="#8C404C" />
        <path
            d="M106.547 75.5485C106.421 73.057 105.591 70.8513 104.342 69.3379C105.056 70.8935 105.515 72.8535 105.601 75.0063L105.82 80.5238H106.798L106.547 75.5485Z"
            fill="#A64F5A" />
        <path
            d="M93.8367 69.3379C92.5872 70.8513 91.7578 73.057 91.632 75.5485L91.3809 80.5238H92.3586L92.5779 75.0063C92.6636 72.8535 93.123 70.8935 93.8367 69.3379Z"
            fill="#A64F5A" />
        <path d="M100.078 80.5238L100.571 73.8369L101.519 80.5238H100.078Z" fill="#A64F5A" />
        <path
            d="M127.431 97.8865L128.834 95.6463C129.418 95.9167 130.114 95.7069 130.447 95.16L131.514 93.4094C131.856 92.8485 131.703 92.1209 131.164 91.7421L126.575 88.5186L128.116 82.8439C128.211 82.4951 128.113 82.1226 127.857 81.865C127.344 81.348 126.466 81.5132 126.18 82.1808L123.289 88.9259L119.592 92.087L122.262 97.8957L118.004 115.746H124.441L127.431 97.8865Z"
            fill="#F0BF9C" />
        <path
            d="M127.91 91.8789H123.631C124.674 93.193 125.086 94.8936 124.759 96.5339L124.692 96.8681L124.849 96.6697C125.499 95.8476 126.634 95.5781 127.589 96.0202L128.373 96.383L128.834 95.6464L125.274 93.3724L127.91 91.8789Z"
            fill="#EBA588" />
        <path
            d="M70.7036 97.8865L69.3001 95.6463C68.7161 95.9167 68.0204 95.7069 67.6871 95.16L66.6204 93.4094C66.2785 92.8485 66.4314 92.1209 66.9707 91.7421L71.5594 88.5186L70.0178 82.8439C69.9231 82.4951 70.0217 82.1226 70.2772 81.865C70.7902 81.348 71.6682 81.5132 71.9543 82.1808L74.8456 88.9259L78.5426 92.087L75.8725 97.8957L80.1304 115.746H73.6926L70.7036 97.8865Z"
            fill="#F0BF9C" />
        <path
            d="M70.2242 91.8789H74.5031C73.4603 93.193 73.0483 94.8936 73.3752 96.5339L73.4417 96.8681L73.285 96.6697C72.6354 95.8476 71.4995 95.5781 70.5448 96.0202L69.7613 96.383L69.2998 95.6464L72.8598 93.3724L70.2242 91.8789Z"
            fill="#EBA588" />
        <path
            d="M123.944 51.2354V14.0247C123.944 12.406 125.268 11.0938 126.901 11.0938H181.305C182.937 11.0938 184.261 12.406 184.261 14.0247V51.2354C184.261 52.8543 182.937 54.1663 181.305 54.1663H126.901C125.268 54.1663 123.944 52.854 123.944 51.2354Z"
            fill="#D4CFBE" />
        <path
            d="M125.126 14.0251C125.126 13.0554 125.922 12.2666 126.9 12.2666H181.304C182.282 12.2666 183.077 13.0554 183.077 14.0251V51.2356C183.077 52.2053 182.282 52.9942 181.304 52.9942H126.9C125.922 52.9942 125.126 52.2053 125.126 51.2356V14.0251Z"
            fill="#402C49" />
        <path d="M127.786 50.3564L180.417 50.3564V14.9045L127.786 14.9045V50.3564Z" fill="#F5D896" />
        <path d="M189.421 125.793H8.77637V130H189.421V125.793Z" fill="#1D7C4E" />
        <path
            d="M58.8696 92.2143H16.9339C15.279 92.2143 13.9375 90.8842 13.9375 89.2433V34.5648C13.9375 32.9239 15.279 31.5938 16.9339 31.5938H58.8696C60.5245 31.5938 61.866 32.9239 61.866 34.5648V89.2433C61.866 90.8839 60.5245 92.2143 58.8696 92.2143Z"
            fill="#A59B95" />
        <path
            d="M16.9336 91.026C15.9421 91.026 15.1357 90.2262 15.1357 89.2434V34.5648C15.1357 33.5817 15.9421 32.7822 16.9336 32.7822H58.8693C59.8608 32.7822 60.6671 33.5817 60.6671 34.5648V89.2434C60.6671 90.2265 59.8608 91.026 58.8693 91.026H16.9336Z"
            fill="#402C49" />
        <path d="M57.9707 88.352L57.9707 35.4561L17.8328 35.4561L17.8328 88.352H57.9707Z" fill="#2BB572" />
        <mask id="mask0_6630_101840" style="mask-type:luminance" maskUnits="userSpaceOnUse" x="17" y="35" width="41"
            height="54">
            <path d="M57.9707 88.352L57.9707 35.4561L17.8328 35.4561L17.8328 88.352H57.9707Z" fill="white" />
        </mask>
        <g mask="url(#mask0_6630_101840)">
            <path
                d="M17.8178 49.9443C19.479 50.5512 21.2331 51.1856 22.9776 50.8864C25.224 50.501 26.9176 48.6578 28.1437 46.7522C29.3699 44.8466 30.35 42.7306 32.0271 41.1997C33.7045 39.6687 36.3955 38.8942 38.2704 40.1803C39.919 41.3111 40.3238 43.5215 40.5147 45.5002C40.7056 47.4789 40.9138 49.6638 42.3746 51.0248C43.6088 52.1749 45.4378 52.4239 47.1311 52.3853C48.8241 52.3466 50.5395 52.0804 52.1968 52.4266C53.8541 52.7727 55.4986 53.9441 55.7092 55.6106C56.0014 57.9217 53.5686 59.6619 52.9597 61.9115C52.4596 63.7586 53.2656 65.7215 54.3866 67.2781C55.5073 68.8346 56.9482 70.1528 57.9865 71.7646C60.0103 74.9064 60.3042 78.8074 60.5409 82.528C60.7675 86.0858 60.8022 90.1534 58.1753 92.5878C55.8165 94.7739 52.2139 94.7748 48.9877 94.645C42.0989 94.3678 35.2099 94.0909 28.3211 93.8137C23.7033 93.628 18.7955 93.3481 15.0284 90.6938C11.7815 88.4058 9.8653 84.6202 9.04848 80.7546C8.23166 76.889 8.39616 72.8945 8.56456 68.9484C8.78 63.8979 8.77611 58.8371 8.93971 53.8007C9.09702 48.9662 14.0881 48.465 17.8178 49.9443Z"
                fill="#ADEBCD" />
            <path
                d="M19.0302 40.9124C18.3884 41.9071 18.3144 43.3376 19.1276 44.2004C19.7856 44.8986 20.8625 45.0739 21.8067 44.8837C22.7511 44.6933 23.5979 44.1936 24.4243 43.7022C25.0871 43.3079 25.7565 42.9083 26.3064 42.3697C26.8559 41.831 27.2823 41.1311 27.3395 40.3669C27.427 39.196 26.5704 38.0626 25.4503 37.6823C24.2553 37.2765 22.8743 37.6719 21.8921 38.4004C20.9266 39.1167 19.6834 39.9002 19.0302 40.9124Z"
                fill="#ADEBCD" />
            <path
                d="M44.569 43.462C44.3599 44.3473 44.5609 45.3432 45.1842 46.0102C46.0583 46.9458 47.486 47.059 48.7712 47.1101C50.2658 47.1698 51.7604 47.2295 53.255 47.2892C54.177 47.3261 55.2237 47.3151 55.8535 46.6463C56.6542 45.7957 56.294 44.3895 55.6327 43.4284C54.6583 42.0124 53.1262 40.9845 51.4383 40.614C49.0936 40.0997 45.2124 40.7393 44.569 43.462Z"
                fill="#ADEBCD" />
            <path d="M59.5256 93.0377L57.3004 87.1875L52.1367 90.4006L54.2908 95.706L59.5256 93.0377Z" fill="#F2C9AD" />
            <path
                d="M34.2587 74.0897C35.0932 74.5347 36.1051 74.8057 37.1299 74.8012C38.1547 74.7968 39.1642 74.5172 39.9948 74.065C40.8296 73.6155 41.4813 72.996 41.899 72.3828C41.3069 72.8359 40.5878 73.2726 39.7688 73.5858C38.9523 73.9007 38.0405 74.0911 37.1269 74.0959C36.2133 74.0989 35.2997 73.9162 34.4805 73.6084C33.6589 73.3023 32.9358 72.8715 32.3398 72.4235C32.7632 73.0338 33.4201 73.6473 34.2587 74.0897Z"
                fill="#E4E4E0" />
            <path
                d="M39.9065 87.1761C41.7943 85.819 43.4713 84.1799 44.7892 82.4543C46.1121 80.7305 47.0706 78.9259 47.6618 77.2939C46.5825 78.663 45.315 80.1717 43.8447 81.6441C42.378 83.1186 40.7125 84.5563 38.9306 85.8386C37.145 87.1158 35.2471 88.2347 33.3758 89.1551C31.5055 90.0794 29.6636 90.8014 28.0146 91.3899C29.7631 91.3436 31.7916 91.0052 33.8565 90.2981C35.9216 89.5963 38.0164 88.5294 39.9065 87.1761Z"
                fill="#E4E4E0" />
            <path d="M22.7998 88.0242L23.4051 95.4579L26.2019 81.0488L22.7998 88.0242Z" fill="#E4E4E0" />
            <path
                d="M58.4289 86.4855L53.9396 77.1788C53.6325 76.5418 53.2541 75.9509 52.8205 75.4092C52.4918 74.9987 52.1295 74.6187 51.7385 74.2711C50.426 73.1037 48.7918 72.3063 47.0032 72.0137L36.9161 70.3633L25.9352 72.1602C23.1686 72.6129 20.7514 74.2687 19.3454 76.674L13.4629 86.7365L21.2242 91.2537L22.7994 88.0242L26.2015 81.0488L23.4047 95.458L22.2927 111.218H50.9199L50.4263 95.458L50.8369 88.8255L51.5101 90.7905L52.1358 90.4013L57.2995 87.1881L58.4289 86.4855ZM34.48 73.6091C35.2993 73.9169 36.2129 74.0996 37.1265 74.0967C38.0401 74.0919 38.9522 73.9012 39.7684 73.5865C40.5873 73.2737 41.3065 72.8367 41.8986 72.3836C41.4809 72.9968 40.8291 73.6162 39.9943 74.0658C39.1637 74.5179 38.1542 74.7975 37.1295 74.802C36.1047 74.8064 35.0928 74.5355 34.2583 74.0904C33.4196 73.648 32.7625 73.0345 32.3394 72.4246C32.9357 72.8723 33.6584 73.3031 34.48 73.6091ZM33.3753 89.1546C35.2465 88.2342 37.1444 87.1156 38.93 85.8381C40.712 84.5558 42.3774 83.1181 43.8441 81.6436C45.3145 80.1712 46.5819 78.6625 47.6613 77.2935C47.0701 78.9254 46.1118 80.7303 44.7886 82.4538C43.4708 84.1794 41.7937 85.8188 39.9059 87.1757C38.0155 88.5292 35.921 89.5961 33.8556 90.2973C31.7908 91.0044 29.7619 91.3425 28.0138 91.3891C29.6633 90.8009 31.5049 90.0789 33.3753 89.1546ZM46.8768 105.019C42.4637 106.288 35.1641 107.182 30.5724 107.017C34.9855 105.748 42.2854 104.854 46.8768 105.019ZM31.8462 93.7939C33.2764 93.7077 34.7821 93.5479 36.2743 93.3034C37.7662 93.0556 39.2425 92.7231 40.6239 92.3449C42.0061 91.9688 43.2919 91.5469 44.4239 91.169C43.4696 91.8785 42.268 92.574 40.9034 93.1426C39.5404 93.7131 38.017 94.1558 36.4607 94.4139C34.904 94.6697 33.3183 94.7404 31.8423 94.6385C30.3657 94.539 29.0014 94.2672 27.8669 93.9023C29.0613 93.8961 30.4157 93.8821 31.8462 93.7939ZM24.4298 109.104C31.1789 108.494 42.1323 108.358 48.8946 108.801C42.1452 109.41 31.1921 109.546 24.4298 109.104Z"
                fill="white" />
            <path d="M57.3004 87.1875L52.1367 90.4006L52.7765 91.9762L57.3004 87.1875Z" fill="#402C49" />
            <path d="M50.8379 88.8253L51.3745 80.1592L52.9899 89.8705L51.5115 90.7907L50.8379 88.8253Z"
                fill="#E4E4E0" />
            <path d="M34.2168 70.9082C35.8259 73.0613 39.0755 73.0613 40.6846 70.9082V62.9795H34.2168V70.9082Z"
                fill="#F2C9AD" />
            <path
                d="M40.6855 62.9795V69.5757C40.5075 69.5888 40.3281 69.598 40.1465 69.598C37.6711 69.598 35.4921 68.344 34.2178 66.4425V62.9795H40.6855Z"
                fill="#402C49" />
            <path
                d="M39.8695 46.6064C44.4822 46.6064 48.2214 50.314 48.2214 54.8876V59.7392C48.2214 64.3128 44.4822 68.0203 39.8695 68.0203C35.2568 68.0203 31.5176 64.3128 31.5176 59.7392V54.8876C31.5176 50.314 35.2568 46.6064 39.8695 46.6064Z"
                fill="#F2C9AD" />
            <path
                d="M29.2221 55.6451C29.1226 55.3326 29.0336 55.0203 28.9686 54.7087C28.6255 53.0597 28.541 51.3312 28.9686 49.7016C29.6823 46.9834 31.84 44.7287 34.4679 43.6788C39.501 41.668 45.7776 43.7489 48.2106 48.6136C48.946 50.0843 48.3134 50.6155 47.0399 51.6645C43.7427 54.3804 39.0605 52.8093 35.4399 53.1254L35.4822 59.834C35.4822 60.8762 34.63 61.7211 33.5789 61.7211C32.3312 61.7211 31.0816 61.7194 29.8351 61.7214C29.8259 60.7544 30.162 59.7938 30.0952 58.8375C30.0203 57.7667 29.5592 56.7031 29.2221 55.6451Z"
                fill="#EBA25D" />
            <path
                d="M31.5169 62.9798C32.9302 62.9798 34.0759 61.8438 34.0759 60.4425C34.0759 59.0412 32.9302 57.9053 31.5169 57.9053C30.1037 57.9053 28.958 59.0412 28.958 60.4425C28.958 61.8438 30.1037 62.9798 31.5169 62.9798Z"
                fill="#F2C9AD" />
            <path
                d="M30.2275 60.4425C30.2275 61.1487 30.8049 61.7209 31.5169 61.7209C32.2291 61.7209 32.8063 61.1484 32.8063 60.4425C32.8063 59.7366 32.2288 59.1641 31.5169 59.1641C30.8049 59.1641 30.2275 59.7366 30.2275 60.4425Z"
                fill="#EBA588" />
            <path
                d="M46 56.7626C46 57.1786 46.2328 57.5155 46.5202 57.5155C46.8075 57.5155 47.0404 57.1783 47.0404 56.7626C47.0404 56.347 46.8075 56.0098 46.5202 56.0098C46.2328 56.0098 46 56.3467 46 56.7626Z"
                fill="#34587F" />
            <path
                d="M40.5439 56.7626C40.5439 57.1786 40.7768 57.5155 41.0641 57.5155C41.3515 57.5155 41.5843 57.1783 41.5843 56.7626C41.5843 56.347 41.3515 56.0098 41.0641 56.0098C40.7771 56.0098 40.5439 56.3467 40.5439 56.7626Z"
                fill="#34587F" />
            <path
                d="M43.1172 60.4321C43.9793 60.4134 44.8416 60.3947 45.7037 60.376C45.6258 60.6068 45.5623 60.8534 45.4349 61.0614C45.3076 61.2694 45.126 61.4533 44.8962 61.5388C44.5483 61.6684 44.1462 61.5489 43.8504 61.3264C43.5547 61.1039 43.3224 60.7393 43.1172 60.4321Z"
                fill="#EBA588" />
            <path
                d="M40.6758 62.457C42.3346 62.8863 44.0674 63.0319 45.7751 62.8858C45.423 63.9919 44.2496 64.9185 43.0825 64.8419C41.9154 64.7652 40.8777 63.5994 40.6758 62.457Z"
                fill="white" />
            <path
                d="M40.9725 54.0326C40.2524 54.1072 39.6505 54.5151 39.3008 55.0843L42.8276 54.7189C42.3667 54.2337 41.6925 53.958 40.9725 54.0326Z"
                fill="#EBA25D" />
            <path
                d="M46.6293 54.0351C47.1154 54.1079 47.4953 54.5125 47.691 55.0779L45.3115 54.7211C45.6627 54.2377 46.1433 53.962 46.6293 54.0351Z"
                fill="#EBA25D" />
            <path
                d="M42.1695 57.87C41.8867 57.7081 41.4848 57.602 41.0767 57.5821C40.6686 57.5608 40.2581 57.6255 39.96 57.758C40.5868 57.936 41.5274 57.9838 42.1695 57.87Z"
                fill="#EBA588" />
            <path
                d="M45.8262 57.87C46.0206 57.7081 46.2972 57.602 46.578 57.5821C46.8587 57.5608 47.1413 57.6255 47.3463 57.758C46.9148 57.936 46.2678 57.9838 45.8262 57.87Z"
                fill="#EBA588" />
            <path
                d="M32.9893 50.7072C34.1746 50.5316 35.5859 49.7624 36.6236 48.6197C37.6727 47.4875 38.3115 46.0216 38.3756 44.835C37.5363 45.6876 36.6365 46.753 35.6908 47.7786C34.7502 48.809 33.7659 49.798 32.9893 50.7072Z"
                fill="#F0BF6C" />
            <path
                d="M40.169 50.2706C40.5849 49.6211 40.8303 48.6356 40.7782 47.6525C40.7335 46.6688 40.3928 45.7119 39.9152 45.1055C39.8723 45.8756 39.9203 46.7841 39.9628 47.692C40.0096 48.5994 40.0509 49.5082 40.169 50.2706Z"
                fill="#F0BF6C" />
            <path
                d="M36.7076 44.768C35.6867 44.6394 34.3315 44.976 33.2285 45.7283C32.1165 46.4677 31.3015 47.5932 31.0459 48.5813C31.8978 48.0046 32.8449 47.2803 33.8368 46.6163C34.825 45.9466 35.853 45.3408 36.7076 44.768Z"
                fill="#F0BF6C" />
            <path
                d="M44.7002 49.5205C44.8929 48.8309 44.7644 47.8514 44.2933 47.0367C43.834 46.2156 43.0549 45.5994 42.3604 45.4062C42.7535 46.0082 43.2257 46.6868 43.6323 47.4066C44.0428 48.1238 44.3841 48.8755 44.7002 49.5205Z"
                fill="#F0BF6C" />
        </g>
        <path
            d="M103.325 50.9053H82.4842C81.3258 50.9053 80.3867 49.9742 80.3867 48.8256V11.985C80.3867 10.8364 81.3258 9.90527 82.4842 9.90527H103.325C104.484 9.90527 105.423 10.8364 105.423 11.985V48.8256C105.423 49.9742 104.484 50.9053 103.325 50.9053Z"
            fill="#402C49" />
        <path
            d="M82.4849 49.7169C81.9893 49.7169 81.5859 49.317 81.5859 48.8256V11.9851C81.5859 11.4936 81.9893 11.0938 82.4849 11.0938H103.326C103.822 11.0938 104.225 11.4936 104.225 11.9851V48.8256C104.225 49.317 103.822 49.7169 103.326 49.7169H82.4849Z"
            fill="#2BB572" />
        <path
            d="M103.519 28.366C103.522 27.3425 103.343 26.2658 102.697 25.4672C101.255 23.6837 98.0839 23.9131 96.9036 21.9495C95.9373 20.3416 96.9096 18.2827 96.6774 16.4252C96.4928 14.9475 95.4659 13.6019 94.0822 13.0237C92.6981 12.4456 91.01 12.6571 89.8144 13.5582C87.3007 15.4528 87.372 19.603 84.7346 21.3241C83.7649 21.957 82.5589 22.156 81.5859 22.782V48.8259C81.5859 49.3173 81.9893 49.7172 82.4849 49.7172H103.326C103.822 49.7172 104.225 49.3173 104.225 48.8259V33.7962C103.705 33.1446 103.469 32.2759 103.417 31.4336C103.354 30.4119 103.516 29.3896 103.519 28.366Z"
            fill="#ADEBCD" />
        <path
            d="M99.7211 16.5354C98.4107 16.7452 97.9852 18.726 98.2297 19.7875C98.462 20.7944 99.4214 21.6625 100.458 21.5674C101.019 21.516 101.539 21.1964 101.879 20.751C102.219 20.3057 102.387 19.7447 102.404 19.1865C102.448 17.7434 101.297 16.2832 99.7211 16.5354Z"
            fill="#ADEBCD" />
        <mask id="mask1_6630_101840" style="mask-type:luminance" maskUnits="userSpaceOnUse" x="70" y="0" width="35"
            height="50">
            <path
                d="M103.326 11.0939H82.4846C81.989 11.0939 81.5856 11.4938 81.5856 11.9852V0.662109H70.833V26.8412L81.5856 35.3532V48.8258C81.5856 49.3172 81.989 49.7171 82.4846 49.7171H103.326C103.821 49.7171 104.225 49.3172 104.225 48.8258V42.7305V32.681V11.9852C104.225 11.4938 103.821 11.0939 103.326 11.0939Z"
                fill="white" />
        </mask>
        <g mask="url(#mask1_6630_101840)">
            <path
                d="M95.8658 30.4357L89.2961 30.2197L88.3867 31.081L91.384 33.2487L93.1822 33.2793L96.9028 32.065L95.8658 30.4357Z"
                fill="#F0BF6C" />
            <path
                d="M86.3574 58.4437C90.9422 59.4396 95.8099 59.1187 100.222 57.5298L96.903 32.0647L94.5029 31.8799L94.4783 31.9182C93.3939 33.606 90.9362 33.6821 89.7476 32.0647L87.1467 32.2031L86.3574 58.4437Z"
                fill="#6CA8BC" />
            <path
                d="M87.377 44.9873C88.109 46.1472 88.9896 47.6669 89.9218 49.1562C90.8486 50.6486 91.826 52.1091 92.5452 53.277C91.494 52.3923 90.3098 51.0226 89.3636 49.4985C88.4113 47.9776 87.7051 46.3151 87.377 44.9873Z"
                fill="#5195A8" />
            <path
                d="M86.917 43.1511C87.6487 43.2203 88.4604 43.1163 89.2898 42.8736C90.1196 42.635 90.9786 42.2725 91.8446 41.9142C93.572 41.1967 95.2572 40.383 96.5879 39.7754C95.517 40.7659 93.8887 41.815 92.1158 42.5509C91.2333 42.916 90.3173 43.2402 89.4016 43.3801C88.4919 43.5257 87.5891 43.4473 86.917 43.1511Z"
                fill="#5195A8" />
            <path
                d="M86.1465 41.2862C87.0604 41.2767 88.2236 41.247 89.3745 41.0898C90.5263 40.9395 91.6563 40.6632 92.5402 40.4326C91.7753 40.9264 90.6294 41.3617 89.4327 41.517C88.2371 41.681 87.016 41.5619 86.1465 41.2862Z"
                fill="#5195A8" />
            <path
                d="M89.2725 33.7775C90.2058 33.9813 91.4101 34.1289 92.6099 34.0259C93.8105 33.9335 94.9746 33.593 95.8619 33.2412C95.4939 33.5428 95.0145 33.8333 94.4601 34.0529C93.907 34.2736 93.2817 34.4228 92.647 34.4751C92.0124 34.5262 91.3705 34.4801 90.7886 34.3518C90.2061 34.2246 89.6854 34.0155 89.2725 33.7775Z"
                fill="#5195A8" />
            <path
                d="M81.0215 26.5353L77.9268 24.5325L77.1414 11.9432L79.9967 9.86702C80.1522 9.75382 80.2493 9.57853 80.2622 9.38779L80.3287 8.39785C80.3503 8.07906 80.1342 7.79266 79.8199 7.72254L75.9437 6.86035L76.0423 7.48872C76.0993 7.85237 75.8233 8.18364 75.4523 8.19671L72.6768 8.29505L73.7516 11.4102L73.0243 24.8035C72.9476 26.2189 73.6086 27.5743 74.7754 28.3934L79.0705 31.4081L81.0215 26.5353Z"
                fill="#BD6C67" />
            <path
                d="M75.9443 6.86035L75.9713 7.03356C76.1298 8.04549 76.9529 8.82627 77.9792 8.93887L78.6507 9.01255L78.0188 9.05682C77.1207 9.11981 76.2949 9.56754 75.7568 10.2833L75.7181 10.1698C75.423 9.30342 74.6781 8.66346 73.7713 8.49649L72.6768 8.29535L75.9443 6.86035Z"
                fill="#A64F5A" />
            <path
                d="M72.453 6.04177L75.1864 5.78597C75.5127 5.75537 75.8063 5.98205 75.8567 6.30322L76.0424 7.48895C76.0994 7.85261 75.8234 8.18387 75.4525 8.19695L72.6769 8.29529C72.3593 8.30658 72.0848 8.07781 72.0413 7.76585L71.8975 6.73788C71.8493 6.39116 72.1019 6.07475 72.453 6.04177Z"
                fill="#BD6C67" />
            <path
                d="M78.8654 7.5106L80.2845 3.90557C80.4544 3.47389 80.2348 2.98783 79.797 2.8262C79.3637 2.66607 78.8816 2.88473 78.7204 3.31464L77.5242 6.50224L77.6516 2.63636C77.6666 2.17823 77.2962 1.79883 76.8339 1.79883C76.3955 1.79883 76.035 2.14139 76.0165 2.57545L75.8564 6.30378L75.9439 6.86114L78.8654 7.5106Z"
                fill="#BD6C67" />
            <path d="M81.0218 26.5357L80.4567 26.1699L77.377 30.2194L79.0708 31.4084L81.0218 26.5357Z" fill="#422C4F" />
            <path
                d="M92.662 30.5564C93.2023 30.3662 93.6455 29.9634 93.9787 29.5005C94.0994 29.3329 94.2043 29.1552 94.3035 28.9746L94.5033 31.8791L94.4788 31.9174C93.3944 33.6052 90.9367 33.6813 89.748 32.0639L89.5781 29.679C89.7915 29.8641 90.0156 30.0359 90.258 30.1835C90.9727 30.6188 91.8713 30.8345 92.662 30.5564Z"
                fill="#BD6C67" />
            <path
                d="M94.2058 27.5605L94.3032 28.975C94.2037 29.1557 94.0989 29.3331 93.9784 29.5009C93.6452 29.9635 93.202 30.3667 92.6618 30.5568C91.8713 30.8352 90.9724 30.6192 90.2578 30.184C90.0154 30.0363 89.7912 29.8646 89.5779 29.6795L89.4619 28.0546L94.2058 27.5605Z"
                fill="#422C4F" />
            <path
                d="M87.47 25.7664C87.47 26.6416 86.7545 27.3511 85.8717 27.3511C84.989 27.3511 84.2734 26.6416 84.2734 25.7664C84.2734 24.8911 84.989 24.1816 85.8717 24.1816C86.7545 24.1819 87.47 24.8914 87.47 25.7664Z"
                fill="#BD6C67" />
            <path
                d="M86.6458 25.7661C86.6458 26.1903 86.2991 26.5341 85.8712 26.5341C85.4434 26.5341 85.0967 26.1903 85.0967 25.7661C85.0967 25.3418 85.4434 24.998 85.8712 24.998C86.2991 24.998 86.6458 25.3421 86.6458 25.7661Z"
                fill="#A64F5A" />
            <path
                d="M96.6747 25.8903C97.1721 24.1077 97.3235 22.2306 97.1179 20.3921C97.0169 19.4889 96.827 18.5846 96.4254 17.7675C96.0239 16.9505 95.3959 16.2223 94.5758 15.8165C93.7766 15.421 92.857 15.3539 91.9641 15.3274C90.6193 15.2876 89.2496 15.3283 87.9693 15.7386C86.6889 16.1489 85.4945 16.9725 84.8964 18.1674C84.3259 19.3071 84.3517 20.6687 84.6972 21.894C85.0427 23.1195 85.683 24.2396 86.3173 25.3457C89.6191 26.125 93.3131 26.3508 96.6747 25.8903Z"
                fill="#402C49" />
            <path
                d="M93.1983 20.0615C90.9165 20.7844 88.4487 20.9193 86.1001 20.454C85.9242 21.0143 85.8442 21.6145 85.8808 22.2348L86.0647 25.3624C86.2274 28.1249 88.6177 30.2334 91.4034 30.0721C94.1353 29.914 96.2316 27.6317 96.1587 24.9384C94.4861 23.8808 93.275 22.0141 93.1983 20.0615Z"
                fill="#BD6C67" />
            <path
                d="M98.3792 25.7664C98.3792 26.6416 97.6637 27.3511 96.7809 27.3511C95.8982 27.3511 95.1826 26.6416 95.1826 25.7664C95.1826 24.8911 95.8982 24.1816 96.7809 24.1816C97.6637 24.1816 98.3792 24.8914 98.3792 25.7664Z"
                fill="#BD6C67" />
            <path
                d="M97.555 25.7661C97.555 26.1903 97.2083 26.5341 96.7804 26.5341C96.3525 26.5341 96.0059 26.1903 96.0059 25.7661C96.0059 25.3418 96.3525 24.998 96.7804 24.998C97.2083 24.998 97.555 25.3421 97.555 25.7661Z"
                fill="#A64F5A" />
            <path
                d="M87.6839 22.7844C87.173 22.8112 86.7334 23.0774 86.4658 23.4666L88.9678 23.3353C88.6604 22.9764 88.1948 22.7577 87.6839 22.7844Z"
                fill="#422C4F" />
            <path
                d="M92.2783 22.4749C91.7155 22.4853 91.222 22.7616 90.9131 23.1793L93.6686 23.1288C93.3444 22.7224 92.8407 22.4645 92.2783 22.4749Z"
                fill="#422C4F" />
            <path
                d="M88.1062 24.3423C88.1062 24.5556 87.9318 24.7285 87.7167 24.7285C87.5015 24.7285 87.3271 24.5556 87.3271 24.3423C87.3271 24.129 87.5015 23.9561 87.7167 23.9561C87.9318 23.9561 88.1062 24.129 88.1062 24.3423Z"
                fill="#422C4F" />
            <path
                d="M92.1288 24.7285C92.3439 24.7285 92.5183 24.5556 92.5183 24.3423C92.5183 24.129 92.3439 23.9561 92.1288 23.9561C91.9137 23.9561 91.7393 24.129 91.7393 24.3423C91.7393 24.5556 91.9137 24.7285 92.1288 24.7285Z"
                fill="#422C4F" />
            <path
                d="M90.5567 25.926C90.0629 25.8123 89.5508 25.7775 89.0459 25.8232C89.0684 26.06 89.2023 26.3236 89.4121 26.4388C89.6218 26.5541 89.8888 26.5598 90.1033 26.4534C90.3002 26.3559 90.447 26.1159 90.5567 25.926Z"
                fill="#A64F5A" />
            <path
                d="M92.5077 26.8408C91.3172 27.4029 89.9475 27.5836 88.6504 27.3498C88.8212 27.9229 89.3453 28.4627 89.9119 28.6656C90.4788 28.8685 91.1407 28.788 91.6414 28.4556C92.1418 28.1228 92.4816 27.438 92.5077 26.8408Z"
                fill="white" />
            <path
                d="M96.903 32.0645L99.4583 32.1982C100.882 32.2727 102.205 32.9513 103.089 34.0607L107.61 39.7344L102.649 43.8745L101.12 42.1528V44.5374C101.12 48.476 101.668 52.396 102.749 56.1861L104.592 62.6481C100.458 63.9598 96.2003 63.0827 96.2003 63.0827L94.6805 56.7949C93.6884 52.6901 93.3771 48.4529 93.7585 44.2492C94.0893 40.602 93.8991 36.9265 93.1931 33.3322L93.1826 33.2787L96.903 32.0645Z"
                fill="#F0BF6C" />
            <path
                d="M88.3865 31.0802L81.0219 26.5352L78.6299 32.5084L83.9629 36.0002L84.0456 41.5016C84.1007 45.1768 83.9623 48.8519 83.6306 52.5128L82.7643 62.0741L82.9459 62.1356C84.7806 62.7572 86.7421 62.9191 88.6556 62.6071L89.7708 48.7248C89.8473 47.7734 89.8856 46.8198 89.8856 45.8655V43.4857C89.8856 40.0194 90.3902 36.5712 91.3841 33.2479L88.3865 31.0802Z"
                fill="#F0BF6C" />
            <path d="M96.9023 32.0639L95.8652 30.4346L93.1816 33.2781L95.3519 35.7684L96.9023 32.0639Z"
                fill="#F5D896" />
            <path d="M91.384 33.2477L89.2961 30.2188L88.3867 31.08L89.3375 35.7686L91.384 33.2477Z" fill="#F5D896" />
            <path
                d="M101.119 42.1529L98.5566 38.2588L98.6624 39.0993C98.8865 40.8819 99.7603 42.5219 101.119 43.7103V42.1529Z"
                fill="#EBA25D" />
            <path
                d="M99.2532 34.8413C98.9344 35.6452 98.7471 36.5558 98.4609 37.2814C98.33 36.9159 98.2419 36.4851 98.2323 36.0139C98.2224 35.5442 98.2956 35.0305 98.4864 34.5448C98.6782 34.0566 98.9937 33.6128 99.3812 33.299C99.7662 32.9823 100.223 32.81 100.614 32.8008C100.033 33.3225 99.569 34.0373 99.2532 34.8413Z"
                fill="#EBA25D" />
            <path
                d="M84.4858 35.4165C84.5071 35.3681 84.5317 35.3188 84.5547 35.2698C84.5293 35.3084 84.5038 35.3476 84.4777 35.3839C84.3756 34.2994 84.8118 32.7034 85.4522 31.8183C85.5286 32.6271 85.305 33.7204 84.9209 34.5912C85.1813 34.1574 85.492 33.7136 85.8219 33.2845C86.3679 32.5786 86.9663 31.9101 87.5467 31.4473C87.4157 32.1734 87.01 33.0231 86.4434 33.7557C85.8786 34.4902 85.1582 35.101 84.4858 35.4165Z"
                fill="#EBA25D" />
            <path
                d="M100.44 58.2512C99.2883 57.2372 98.0088 55.6658 97.0209 53.9203C96.0252 52.1793 95.3306 50.2808 95.0508 48.7793C95.7918 50.1192 96.6868 51.862 97.6592 53.5635C98.6249 55.2686 99.6662 56.9294 100.44 58.2512Z"
                fill="#EBA25D" />
            <path
                d="M102.866 65.1104L102.596 63.176C102.494 62.4472 102.515 61.7065 102.657 60.9843L105.46 46.7858L103.017 43.5685L106.865 40.3574L109.231 44.2599C110.075 45.6515 110.286 47.3316 109.815 48.8863L105.832 62.0134L106.535 63.8789L103.376 66.4085C103.109 66.0231 102.932 65.5801 102.866 65.1104Z"
                fill="#EBA58E" />
            <path d="M106.865 40.3564L103.017 43.5678L104.183 45.1047L107.26 41.0086L106.865 40.3564Z" fill="#422C4F" />
        </g>
        <path
            d="M96.2894 12.7011H88.9572C88.4846 12.7011 88.04 12.48 87.7571 12.1048L86.7461 10.7637H98.5004L97.4894 12.1048C97.2066 12.4803 96.7616 12.7011 96.2894 12.7011Z"
            fill="#402C49" />
        <mask id="mask2_6630_101840" style="mask-type:luminance" maskUnits="userSpaceOnUse" x="127" y="14" width="54"
            height="37">
            <path d="M127.786 50.3564L180.417 50.3564V14.9045L127.786 14.9045V50.3564Z" fill="white" />
        </mask>
        <g mask="url(#mask2_6630_101840)">
            <path
                d="M125.048 30.4396C125.706 29.1333 126.376 27.8088 127.366 26.7277C128.355 25.6465 129.723 24.8212 131.196 24.8048C132.668 24.7885 134.19 25.7499 134.499 27.1775C134.798 28.5593 133.97 29.9506 134.03 31.3627C134.135 33.8141 137.036 35.4259 139.468 34.9719C141.9 34.5182 143.796 32.618 145.187 30.5885C146.577 28.559 147.643 26.2954 149.303 24.4753C151.648 21.9036 155.138 20.397 158.634 20.4475C162.131 20.4977 165.575 22.1039 167.844 24.7418C169.359 26.5036 170.585 28.8424 172.852 29.4004C174.814 29.8835 176.794 28.8118 178.802 28.5724C181.805 28.2143 184.944 29.9551 186.209 32.6792V55.031H122.771L125.048 30.4396Z"
                fill="#FBEED1" />
            <path
                d="M136.339 21.9773C136.329 22.7913 136.862 23.6279 137.66 23.8231C138.308 23.9818 138.973 23.7198 139.623 23.5685C140.37 23.3947 141.143 23.3671 141.898 23.2307C142.653 23.0944 143.418 22.8293 143.947 22.2782C144.829 21.3572 144.783 19.7763 143.98 18.7867C143.176 17.7967 141.772 17.3965 140.51 17.6197C139.411 17.814 138.262 18.4605 137.562 19.3325C137.012 20.0164 136.35 21.1008 136.339 21.9773Z"
                fill="#FBEED1" />
        </g>
        <mask id="mask3_6630_101840" style="mask-type:luminance" maskUnits="userSpaceOnUse" x="127" y="14" width="54"
            height="37">
            <path d="M127.786 50.3564L180.417 50.3564V14.9045L127.786 14.9045V50.3564Z" fill="white" />
        </mask>
        <g mask="url(#mask3_6630_101840)">
            <path
                d="M151.831 44.0801C150.412 44.556 149.288 45.6473 148.778 47.0451L144.619 58.4642L146.718 70.7824C148.975 69.4101 150.587 67.202 151.196 64.6472L153.149 56.457L151.831 44.0801Z"
                fill="#E68799" />
            <path
                d="M142.985 48.1006L148.096 41.8273C147.299 41.0726 146.06 41.0227 145.204 41.7111L143.544 43.0463L143.646 40.1748L135.743 41.1463L138.032 48.6511L142.985 48.1006Z"
                fill="#F0BF9C" />
            <path
                d="M143.544 43.0462C141.897 43.6772 140.632 45.0228 140.115 46.697L139.988 47.1067L139.956 46.7234C139.786 44.6746 141.473 42.9452 143.544 43.0462Z"
                fill="#EBA588" />
            <path
                d="M143.646 40.1748L143.935 34.4854C143.955 34.0837 143.656 33.7358 143.253 33.6921C142.832 33.6463 142.454 33.9473 142.408 34.3644L141.739 40.4093L143.646 40.1748Z"
                fill="#EBA588" />
            <path
                d="M141.739 40.4091L140.887 33.8976C140.83 33.4662 140.441 33.1551 140.004 33.1913C139.573 33.2273 139.243 33.5895 139.252 34.0188L139.387 40.6982L141.739 40.4091Z"
                fill="#EBA588" />
            <path
                d="M139.388 40.6978L137.813 34.4572C137.718 34.0807 137.343 33.843 136.959 33.9152C136.572 33.988 136.31 34.349 136.365 34.7361L137.239 40.9622L139.388 40.6978Z"
                fill="#EBA588" />
            <path
                d="M135.744 41.1463L134.404 36.8511C134.307 36.5419 134.5 36.2168 134.819 36.1497C135.084 36.0941 135.351 36.2359 135.451 36.4854L137.24 40.9621L135.744 41.1463Z"
                fill="#EBA588" />
            <path d="M144.11 47.1719L137.235 47.7254L137.797 52.5387L145.239 51.5541L144.11 47.1719Z" fill="#E68799" />
            <path
                d="M157.316 49.2371C159.387 50.5702 161.995 51.0557 164.412 50.5587C166.877 50.0515 169.056 48.582 170.804 46.7855C171.299 46.2762 171.761 45.7388 172.203 45.1847C171.799 44.0527 171.418 42.913 171.07 41.7621L166.068 38.9072L155.715 40.6459L153.747 45.0008C154.485 46.7177 155.736 48.2199 157.316 49.2371Z"
                fill="#F2C9AD" />
            <path
                d="M172.203 45.1849C171.761 45.739 171.299 46.2764 170.804 46.7857C169.056 48.5822 166.877 50.0517 164.412 50.5589C161.995 51.0559 159.387 50.5704 157.317 49.2373C155.737 48.2201 154.486 46.7182 153.747 45.001L152.568 47.6107L154.361 58.4674C154.887 61.6505 157.477 64.1025 160.708 64.4763L161.551 64.5737C164.89 67.0498 167.661 71.0624 168.507 75.1104C175.106 77.399 182.861 75.6506 187.775 70.7193C180.871 63.3892 175.573 54.6354 172.203 45.1849Z"
                fill="white" />
            <path
                d="M170.048 51.4152C169.002 51.8243 167.792 52.2005 166.481 52.4144C165.172 52.631 163.767 52.6859 162.386 52.5276C161.006 52.3674 159.651 51.9946 158.427 51.4859C157.201 50.9797 156.109 50.3382 155.187 49.7021C155.86 50.5917 156.843 51.494 158.069 52.1972C159.291 52.9034 160.751 53.4064 162.263 53.5805C163.774 53.7546 165.312 53.5974 166.664 53.188C168.021 52.7828 169.186 52.128 170.048 51.4152Z"
                fill="#E4E4E0" />
            <path
                d="M156.535 39.7393C156.76 40.6075 156.987 41.483 157.391 42.2846C157.795 43.0862 158.395 43.8188 159.2 44.2253C160.695 44.9793 162.592 44.4323 163.848 43.3313C165.105 42.2302 165.853 40.6803 166.528 39.1582C163.25 39.4197 159.813 39.4779 156.535 39.7393Z"
                fill="#422C4F" />
            <path
                d="M163.918 48.26L166.127 51.0602L165.466 53.128C167.571 62.6694 171.736 71.9416 177.753 79.6746C184.567 79.0935 191.338 75.7846 196.043 70.8623C184.945 62.3259 182.165 45.6259 178.494 43.3727C174.823 41.1191 166.069 38.9072 166.069 38.9072L166.58 44.3379L163.918 48.26Z"
                fill="#E68799" />
            <path
                d="M166.052 38.8955C165.717 42.0858 164.999 45.2362 163.918 48.2595C165.506 48.8386 167.03 49.702 168.336 50.7689C168.286 48.1419 168.233 45.5191 168.182 42.8939C168.15 41.3095 167.382 39.8103 166.069 38.9068L166.052 38.8955Z"
                fill="#EBA7AC" />
            <path
                d="M163.601 78.6782C157.98 69.2702 154.605 58.1173 153.802 47.2113L150.782 45.3916C147.993 59.8646 156.777 79.8723 160.406 83.6592L163.601 78.6782Z"
                fill="#E68799" />
            <path
                d="M156.786 39.8933C155.409 42.1551 154.397 44.6353 153.802 47.2106C152.781 46.631 151.803 45.9705 150.782 45.3909C152.353 43.4303 153.888 41.4938 155.459 39.5332C155.825 39.6595 156.42 39.767 156.786 39.8933Z"
                fill="#EBA7AC" />
            <path d="M150.782 45.3906L151.096 49.8281L153.149 46.8262L150.782 45.3906Z" fill="#E36B85" />
            <path
                d="M173.962 27.9324C174.051 24.9379 172.476 21.9467 169.947 20.307C168.4 19.304 166.528 18.831 164.683 18.9062C164.298 19.3869 163.972 19.9136 163.721 20.4764C165.222 24.1081 166.266 28.4366 168.119 31.9047C169.082 33.7072 170.168 35.5661 171.932 36.6161C172.486 36.9456 173.093 37.155 173.721 37.2644C173.469 36.7938 173.282 36.289 173.17 35.7679C172.615 33.1849 173.884 30.5719 173.962 27.9324Z"
                fill="#422C4F" />
            <path
                d="M177.939 24.9347C178.414 22.5668 177.636 19.9871 175.927 18.2666C174.219 16.5461 171.63 15.7341 169.235 16.1679C167.449 16.4911 165.811 17.4995 164.684 18.9059C166.529 18.8308 168.4 19.3038 169.947 20.3068C172.476 21.9462 174.051 24.9377 173.963 27.9322C173.884 30.5716 172.616 33.1846 173.17 35.7673C173.282 36.2888 173.469 36.7932 173.721 37.2638C174.84 37.4587 176.026 37.3268 177.101 36.924C175.755 36.2932 175.054 34.7278 175.06 33.2521C175.065 31.7764 175.653 30.3678 176.294 29.0362C176.935 27.7049 177.649 26.3822 177.939 24.9347Z"
                fill="#8C404C" />
            <path
                d="M152.995 36.2642C151.505 33.6575 150.934 30.5236 151.529 27.5859C152.123 24.6482 153.906 21.9422 156.446 20.3194C158.986 18.6966 162.263 18.2124 165.136 19.1405C167.195 19.8057 169.01 21.167 170.255 22.9232C171.501 24.6794 172.178 26.8176 172.216 28.9642C172.25 30.8478 171.793 32.7501 170.824 34.3705C169.855 35.9909 168.365 37.3166 166.6 38.0133C162.097 37.9815 157.401 37.1885 152.995 36.2642Z"
                fill="#8C404C" />
            <path
                d="M156.487 27.7656C155.231 28.8117 154.062 29.9597 152.984 31.1867L152.613 34.6129C152.174 38.655 155.124 42.2841 159.2 42.7184C163.277 43.1531 166.937 40.2284 167.375 36.1864L167.819 32.0902C163.712 32.2447 159.512 30.5242 156.487 27.7656Z"
                fill="#F2C9AD" />
            <path
                d="M168.706 39.9204C170.003 39.9204 171.054 38.878 171.054 37.5921C171.054 36.3061 170.003 35.2637 168.706 35.2637C167.409 35.2637 166.357 36.3061 166.357 37.5921C166.357 38.878 167.409 39.9204 168.706 39.9204Z"
                fill="#F2C9AD" />
            <path
                d="M169.898 37.5919C169.898 38.2453 169.364 38.7747 168.706 38.7747C168.047 38.7747 167.513 38.245 167.513 37.5919C167.513 36.9386 168.047 36.4092 168.706 36.4092C169.364 36.4092 169.898 36.9386 169.898 37.5919Z"
                fill="#EBA58E" />
            <path
                d="M167.566 28.0305C166.418 27.5332 165.061 27.0254 163.744 26.4232C162.422 25.8287 161.148 25.143 160.018 24.6064C160.508 25.7464 161.71 26.9455 163.196 27.609C164.675 28.2905 166.375 28.4079 167.566 28.0305Z"
                fill="#9B4B5A" />
            <path
                d="M167.808 25.3425C166.95 24.8728 165.822 24.4934 164.672 24.2138C163.521 23.9366 162.343 23.7584 161.364 23.7836C162.119 24.4013 163.243 24.9194 164.428 25.205C165.613 25.4931 166.851 25.546 167.808 25.3425Z"
                fill="#9B4B5A" />
            <path
                d="M156.168 30.3521C155.38 30.2015 154.609 30.4424 154.053 30.9353L157.915 31.6724C157.583 31.0102 156.957 30.5025 156.168 30.3521Z"
                fill="#8C404C" />
            <path
                d="M156.888 33.6045C156.909 33.3758 156.836 33.0941 156.657 32.8514C156.48 32.6084 156.198 32.4057 155.87 32.3255C155.543 32.2447 155.198 32.2931 154.927 32.4262C154.654 32.5576 154.457 32.773 154.368 32.9854C154.781 32.7795 155.294 32.6829 155.753 32.7955C156.212 32.9087 156.62 33.2314 156.888 33.6045Z"
                fill="#422C4F" />
            <path
                d="M162.257 30.6285C163.06 30.6113 163.78 30.977 164.244 31.5552L160.312 31.6398C160.752 31.0421 161.455 30.6457 162.257 30.6285Z"
                fill="#8C404C" />
            <path
                d="M160.828 33.7706C160.846 33.5272 160.973 33.245 161.205 33.0225C161.434 32.799 161.766 32.6368 162.123 32.6104C162.481 32.5836 162.834 32.6953 163.093 32.8825C163.356 33.0685 163.524 33.3288 163.578 33.5667C163.183 33.278 162.663 33.0863 162.162 33.1232C161.661 33.1609 161.176 33.4271 160.828 33.7706Z"
                fill="#422C4F" />
            <path
                d="M159.578 36.1096C158.877 35.9946 158.177 35.8796 157.477 35.7646C157.562 36.2041 157.957 36.5511 158.399 36.6411C158.841 36.7311 159.325 36.4804 159.578 36.1096Z"
                fill="#EBA58E" />
            <path
                d="M161.664 37.4189C159.739 37.7921 157.746 37.815 155.812 37.4858C156.038 38.1495 156.279 38.9211 156.747 39.4452C157.215 39.9696 157.862 40.3614 158.565 40.4217C159.334 40.4874 160.105 40.1466 160.654 39.6089C161.204 39.0714 161.47 38.1596 161.664 37.4189Z"
                fill="white" />
        </g>
        <path
            d="M82.0617 63.3582C83.1841 61.6953 83.8394 59.6964 83.8394 57.5451C83.8394 51.765 79.1135 47.0791 73.284 47.0791C67.4545 47.0791 62.7285 51.765 62.7285 57.5451C62.7285 63.3252 67.4545 68.0111 73.284 68.0111C75.5277 68.0111 77.6063 67.315 79.3164 66.1313L83.7037 67.7455L82.0617 63.3582Z"
            fill="white" />
        <path
            d="M78.7806 60.927C78.2404 60.3387 77.5602 59.9355 76.8782 59.5336C76.5183 59.3214 76.1992 59.3312 75.8615 59.5763C75.5184 59.8253 75.1532 60.0437 74.805 60.2858C74.4628 60.5235 74.0966 60.5505 73.7161 60.4216C73.521 60.3553 73.3284 60.2704 73.1516 60.1658C72.0935 59.5404 71.2485 58.6984 70.6205 57.649C70.4937 57.4372 70.4054 57.1969 70.3343 56.9595C70.2414 56.6493 70.2933 56.3486 70.48 56.0744C70.7457 55.684 71.0028 55.288 71.2713 54.8997C71.4613 54.6248 71.4823 54.3527 71.3172 54.0586C70.9774 53.4525 70.6097 52.8654 70.1396 52.3485C69.8897 52.0739 69.6146 51.8294 69.2739 51.6654C68.8835 51.4776 68.5161 51.5181 68.2003 51.8051C68.0205 51.9685 67.8518 52.1592 67.7314 52.3678C67.2603 53.1824 67.1575 54.0707 67.3367 54.9757C67.6816 56.7176 68.4544 58.2691 69.5759 59.6476C70.8803 61.2511 72.5397 62.3611 74.4868 63.0551C75.1673 63.2978 75.8603 63.5022 76.5956 63.4996C76.5977 63.5132 76.5998 63.5269 76.6019 63.5406C76.9909 63.4761 77.3858 63.4357 77.7672 63.3412C78.2634 63.2182 78.7105 62.9877 79.0524 62.5922C79.3452 62.2535 79.4018 61.8801 79.183 61.4891C79.0704 61.2891 78.9355 61.0957 78.7806 60.927Z"
            fill="#2BB572" />
        <path
            d="M147.009 53.6289C145.332 52.516 143.316 51.8662 141.146 51.8662C135.317 51.8662 130.591 56.5521 130.591 62.3322C130.591 68.1123 135.317 72.7982 141.146 72.7982C146.976 72.7982 151.702 68.1123 151.702 62.3322C151.702 60.1075 151 58.0465 149.806 56.351L151.434 52.0008L147.009 53.6289Z"
            fill="white" />
        <path
            d="M137.365 63.7308C137.853 63.7308 138.249 63.3386 138.249 62.8547C138.249 62.3708 137.853 61.9785 137.365 61.9785C136.877 61.9785 136.481 62.3708 136.481 62.8547C136.481 63.3386 136.877 63.7308 137.365 63.7308Z"
            fill="#2BB572" />
        <path
            d="M141.337 63.7308C141.825 63.7308 142.22 63.3386 142.22 62.8547C142.22 62.3708 141.825 61.9785 141.337 61.9785C140.849 61.9785 140.453 62.3708 140.453 62.8547C140.453 63.3386 140.849 63.7308 141.337 63.7308Z"
            fill="#2BB572" />
        <path
            d="M145.308 63.7308C145.796 63.7308 146.192 63.3386 146.192 62.8547C146.192 62.3708 145.796 61.9785 145.308 61.9785C144.82 61.9785 144.425 62.3708 144.425 62.8547C144.425 63.3386 144.82 63.7308 145.308 63.7308Z"
            fill="#2BB572" />
        <path
            d="M105.776 19.4662C107.453 20.5791 109.469 21.2289 111.638 21.2289C117.468 21.2289 122.194 16.543 122.194 10.7629C122.194 4.98276 117.468 0.296875 111.638 0.296875C105.809 0.296875 101.083 4.98276 101.083 10.7629C101.083 12.9876 101.785 15.0486 102.979 16.7441L101.351 21.0943L105.776 19.4662Z"
            fill="white" />
        <path
            d="M111.638 21.5262C109.532 21.5262 107.496 20.929 105.737 19.7974L101.455 21.3732C101.345 21.413 101.221 21.3865 101.139 21.3048C101.056 21.2228 101.029 21.1001 101.07 20.9914L102.643 16.7859C101.426 15.0024 100.783 12.9236 100.783 10.7634C100.783 4.8282 105.652 0 111.638 0C117.624 0 122.493 4.8282 122.493 10.7631C122.493 16.698 117.624 21.5262 111.638 21.5262ZM105.776 19.1693C105.834 19.1693 105.892 19.1862 105.942 19.2195C107.631 20.3399 109.6 20.932 111.638 20.932C117.293 20.932 121.894 16.3703 121.894 10.7631C121.894 5.1559 117.293 0.594203 111.638 0.594203C105.983 0.594203 101.382 5.1559 101.382 10.7631C101.382 12.8532 102.019 14.8628 103.224 16.5747C103.28 16.6546 103.293 16.7568 103.259 16.848L101.858 20.5909L105.671 19.188C105.705 19.1755 105.74 19.1693 105.776 19.1693Z"
            fill="#D1F4F5" />
        <path
            d="M111.534 17.027C114.968 17.027 117.752 14.2669 117.752 10.8621C117.752 7.45736 114.968 4.69727 111.534 4.69727C108.1 4.69727 105.316 7.45736 105.316 10.8621C105.316 14.2669 108.1 17.027 111.534 17.027Z"
            fill="#F0BF6C" />
        <path
            d="M109.35 7.8418C109.062 7.8418 108.822 8.35103 108.764 9.02931L109.2 9.29017L108.756 9.47704C108.783 10.2453 109.037 10.8499 109.35 10.8499C109.681 10.8499 109.949 10.1764 109.949 9.34572C109.949 8.51503 109.681 7.8418 109.35 7.8418Z"
            fill="#402C49" />
        <path
            d="M113.27 7.8418C112.982 7.8418 112.742 8.35103 112.684 9.02931L113.12 9.29017L112.676 9.47704C112.703 10.2453 112.957 10.8499 113.27 10.8499C113.601 10.8499 113.869 10.1764 113.869 9.34572C113.869 8.51503 113.601 7.8418 113.27 7.8418Z"
            fill="#402C49" />
        <path
            d="M114.717 11.6572C112.659 12.4965 110.302 12.5913 108.183 11.9202C108.228 12.9671 109.025 13.9506 109.949 14.4586C110.873 14.9666 112.064 14.9619 112.984 14.4461C113.904 13.9303 114.68 12.7045 114.717 11.6572Z"
            fill="#852D70" />
    </g>
    <defs>
        <clipPath id="clip0_6630_101840">
            <rect width="204" height="130" fill="white" />
        </clipPath>
    </defs>
</svg>