<svg width="100%" height="100%" viewBox="0 0 428 276" fill="none" xmlns="http://www.w3.org/2000/svg">
<g clip-path="url(#clip0_2303_51360)">
<path d="M68.3506 267.069C34.9399 245.902 9.0982 209.046 2.00818 170.043C-5.08184 131.041 6.77907 88.4975 34.7846 60.5286C62.7901 32.5603 106.669 20.9301 144.101 33.6294C165.931 41.0353 184.907 55.8489 207.231 61.5839C237.851 69.4502 269.767 59.2544 300.546 52.0378C331.324 44.8212 366.482 41.3803 392.009 60.082C408.191 71.936 417.732 91.0231 422.935 110.436C437.736 165.66 419.384 228.55 377.259 267.07H68.3506V267.069Z" fill="#ADEBCD"/>
<path d="M314.748 254.997H101.082V131.141C101.082 126.027 105.214 121.881 110.311 121.881H305.518C310.615 121.881 314.748 126.027 314.748 131.141V254.997Z" fill="#D4CFBE"/>
<path d="M104.158 254.998V131.142C104.158 127.738 106.918 124.969 110.311 124.969H305.518C308.91 124.969 311.67 127.738 311.67 131.142V254.998H104.158Z" fill="#402C49"/>
<path d="M302.441 245.738V134.229L113.388 134.229L113.388 245.738L302.441 245.738Z" fill="#2BB572"/>
<path d="M311.7 267.068H104.128C98.7787 267.068 93.5571 265.428 89.1621 262.367H326.666C322.271 265.428 317.05 267.068 311.7 267.068Z" fill="#D4CFBE"/>
<path d="M326.666 254.998H89.1621V262.332H326.666V254.998Z" fill="#EFEFEF"/>
<path d="M226 258.665H189.829C187.81 258.665 186.174 257.023 186.174 254.998H229.654C229.654 257.023 228.019 258.665 226 258.665Z" fill="#D4CFBE"/>
<path d="M287.724 214.434C282.164 206.498 272.742 200.129 272.32 190.437C271.896 180.712 281.154 172.161 279.566 162.558C278.801 157.931 275.462 153.971 271.32 151.798C267.178 149.625 262.325 149.094 257.676 149.573C247.493 150.623 238.421 156.168 229.387 160.996C220.352 165.823 210.287 170.159 200.185 168.504C193.204 167.359 187.029 163.471 180.532 160.664C174.036 157.856 166.336 156.166 160.05 159.421C148.883 165.204 149.207 181.955 140.275 190.824C136.333 194.737 130.864 196.795 126.878 200.663C120.221 207.119 118.916 217.672 121.369 226.629C123.284 233.623 127.123 239.856 131.427 245.738H291.131C295.078 235.583 294.005 223.397 287.724 214.434Z" fill="#ADEBCD"/>
<path d="M141.954 161.118C144.976 157.932 149.607 155.587 150.23 151.232C150.783 147.364 147.445 143.703 143.634 142.897C139.823 142.092 135.852 143.562 132.63 145.756C124.407 151.357 118.342 164.13 122.376 173.964C129.064 190.265 138.216 165.058 141.954 161.118Z" fill="#ADEBCD"/>
<path d="M169.343 151.982C175.687 149.28 174.415 139.405 167.406 139.058C162.468 138.813 157.551 143.535 160.012 148.535C161.638 151.836 165.971 153.419 169.343 151.982Z" fill="#ADEBCD"/>
<path d="M279.938 191.549C280.188 194.092 281.013 196.709 282.9 198.425C284.786 200.14 287.921 200.629 289.878 198.995C291.445 197.688 291.88 195.493 292.216 193.476C292.929 189.21 297.896 174.035 289.575 174.385C282.199 174.695 279.369 185.751 279.938 191.549Z" fill="#ADEBCD"/>
<path d="M244.251 176.325L242.104 172.29C239.923 168.187 238.187 163.862 236.925 159.388L235.761 155.259C232.657 144.252 222.643 136.652 211.242 136.652H207.912H204.584C193.182 136.652 183.168 144.252 180.065 155.259L178.9 159.388C177.639 163.862 175.902 168.188 173.721 172.29L171.575 176.325C165.647 187.472 171.864 201.228 184.126 204.099L207.912 209.667L231.698 204.099C243.962 201.229 250.179 187.473 244.251 176.325Z" fill="#8C404C"/>
<path d="M233.587 183.548L232.071 180.387C230.53 177.173 229.303 173.784 228.412 170.28L227.589 167.045C225.397 158.422 218.321 152.469 210.266 152.469H207.914H205.562C197.507 152.469 190.432 158.422 188.239 167.045L187.417 170.28C186.525 173.784 185.299 177.173 183.757 180.387L182.241 183.548C178.053 192.28 182.445 203.056 191.11 205.305L207.914 209.667L224.72 205.305C233.383 203.056 237.776 192.28 233.587 183.548Z" fill="#472948"/>
<path d="M180.049 198.185C178.477 196.7 177.404 194.498 177.077 192.053C176.717 189.608 177.18 186.996 178.056 184.474C178.93 181.946 180.186 179.501 181.296 177.11C182.412 174.727 183.334 172.361 183.725 170.234C182.69 172.128 181.361 174.156 179.95 176.372C178.552 178.585 177.081 181.043 176.124 183.802C175.163 186.528 174.799 189.649 175.576 192.37C176.289 195.083 178.081 197.286 180.049 198.185Z" fill="#A64F5A"/>
<path d="M235.643 198.185C237.215 196.7 238.287 194.498 238.615 192.053C238.974 189.608 238.512 186.996 237.636 184.474C236.762 181.946 235.506 179.501 234.396 177.11C233.28 174.727 232.358 172.361 231.967 170.234C233.002 172.128 234.331 174.156 235.743 176.372C237.141 178.585 238.612 181.043 239.569 183.802C240.53 186.528 240.894 189.649 240.116 192.37C239.403 195.083 237.611 197.286 235.643 198.185Z" fill="#A64F5A"/>
<path d="M236.597 217.437L222.876 213.719L220.854 213.172C218.975 212.663 217.67 210.953 217.67 209V200.535C217.387 201.037 217.095 201.528 216.795 202.008C214.426 205.8 211.236 207.925 207.913 207.925C204.59 207.925 201.401 205.8 199.031 202.008C198.731 201.528 198.44 201.037 198.157 200.535V209C198.157 210.953 196.852 212.663 194.973 213.172L192.946 213.721L179.229 217.437C177.706 217.85 176.257 218.431 174.891 219.145C180.943 228.792 192.075 234.8 204.194 234.8H207.911H211.628C223.748 234.8 234.881 228.792 240.933 219.143C239.566 218.429 238.119 217.85 236.597 217.437Z" fill="#F0BF9C"/>
<path d="M207.912 207.925C211.236 207.925 214.425 205.8 216.795 202.008C217.095 201.528 217.386 201.037 217.669 200.535V187.453H198.156V200.535C198.439 201.037 198.731 201.528 199.031 202.008C201.4 205.8 204.59 207.925 207.912 207.925Z" fill="#422C4F"/>
<path d="M251.782 232.582C250.167 226.718 246.191 221.888 240.933 219.143C234.882 228.791 223.748 234.8 211.629 234.8H207.911H204.194C192.075 234.8 180.943 228.792 174.891 219.144C169.635 221.89 165.66 226.719 164.045 232.582L160.422 245.737H255.407L251.782 232.582Z" fill="#CC6164"/>
<path d="M206.12 241.008C212.104 241.187 218.093 240.213 223.391 238.404C228.703 236.61 233.304 233.991 236.851 231.242C232.916 233.401 228.188 235.476 222.932 236.886C217.685 238.308 211.926 239.063 206.183 238.893C200.44 238.718 194.737 237.618 189.584 235.883C184.421 234.16 179.826 231.805 176.027 229.412C179.404 232.369 183.84 235.26 189.035 237.371C194.216 239.494 200.136 240.827 206.12 241.008Z" fill="#A34262"/>
<path d="M171.887 230.508C173.197 233.503 174.965 237.29 176.522 241.168C177.145 242.699 177.733 244.24 178.288 245.736H179.629C179.204 244.033 178.652 242.286 177.959 240.584C176.362 236.606 174.066 232.938 171.887 230.508Z" fill="#A34262"/>
<path d="M178.561 236.277C179.96 239.149 182.229 242.565 184.915 245.736H187.113C187.057 245.673 187.001 245.609 186.945 245.545C183.961 242.179 181.003 238.788 178.561 236.277Z" fill="#A34262"/>
<path d="M235.679 245.311C237.214 243.523 238.638 241.435 239.808 239.209C240.974 236.981 241.882 234.62 242.481 232.337C243.084 230.055 243.378 227.855 243.417 225.951C242.173 229.552 240.468 234.09 238.209 238.364C236.847 240.984 235.287 243.484 233.766 245.736H235.304C235.429 245.596 235.555 245.456 235.679 245.311Z" fill="#A34262"/>
<path d="M234.738 237.506C232.61 239.842 229.881 242.804 226.88 245.481C226.783 245.568 226.685 245.652 226.588 245.737H228.798C231.471 243.137 233.581 240.099 234.738 237.506Z" fill="#A34262"/>
<path d="M207.845 144.393C195.944 144.393 186.295 154.074 186.295 166.015V174.89C186.295 183.719 189.829 192.178 196.104 198.367C199.236 201.458 203.453 203.189 207.845 203.189C212.238 203.189 216.455 201.458 219.587 198.367C225.861 192.178 229.396 183.719 229.396 174.89V166.015C229.396 154.073 219.747 144.393 207.845 144.393Z" fill="#F0BF9C"/>
<path d="M211.003 184.008C208.963 183.523 206.797 183.58 204.785 184.172C205.318 185.303 206.554 186.036 207.801 186.064C209.047 186.091 210.421 185.114 211.003 184.008Z" fill="#EBA588"/>
<path d="M214.126 188.949C210.051 189.856 205.782 189.873 201.699 188.998C202.095 191.827 204.983 194.193 207.825 194.348C210.668 194.502 213.428 191.718 214.126 188.949Z" fill="white"/>
<path d="M210.399 195.297C208.69 195.39 206.982 195.483 205.273 195.576C205.864 196.307 206.939 196.823 207.877 196.818C208.815 196.811 209.818 196.036 210.399 195.297Z" fill="#EBA588"/>
<path d="M201.785 178.897C201.819 178.22 201.568 177.399 201.013 176.707C200.467 176.014 199.618 175.454 198.652 175.26C197.687 175.066 196.688 175.254 195.917 175.682C195.14 176.105 194.593 176.766 194.363 177.403C195.538 176.741 197.02 176.39 198.372 176.661C199.723 176.934 200.956 177.832 201.785 178.897Z" fill="#422C4F"/>
<path d="M213.287 178.864C213.308 178.144 213.641 177.295 214.287 176.609C214.923 175.921 215.869 175.398 216.908 175.274C217.946 175.148 218.989 175.431 219.769 175.949C220.558 176.462 221.082 177.208 221.272 177.902C220.083 177.103 218.542 176.607 217.087 176.781C215.634 176.957 214.254 177.806 213.287 178.864Z" fill="#422C4F"/>
<path d="M230.655 160.394C229.984 151.15 222.773 143.737 213.579 142.839C209.798 142.47 205.991 142.47 202.209 142.839C193.016 143.737 185.804 151.15 185.134 160.394L184.367 170.956H207.895H231.422L230.655 160.394Z" fill="#8C404C"/>
<path d="M223.54 160.393C223.276 155.103 221.536 150.42 218.914 147.207C220.412 150.51 221.375 154.671 221.555 159.241L222.015 170.955H224.067L223.54 160.393Z" fill="#A64F5A"/>
<path d="M196.873 147.209C194.252 150.422 192.512 155.105 192.248 160.395L191.721 170.957H193.772L194.232 159.243C194.412 154.673 195.376 150.512 196.873 147.209Z" fill="#A64F5A"/>
<path d="M209.969 170.956L211.003 156.76L212.992 170.956H209.969Z" fill="#A64F5A"/>
<path d="M267.354 207.819L270.298 203.063C271.524 203.637 272.983 203.192 273.682 202.031L275.921 198.314C276.638 197.123 276.317 195.579 275.186 194.774L265.558 187.931L268.793 175.883C268.991 175.142 268.785 174.351 268.248 173.805C267.172 172.707 265.33 173.058 264.73 174.475L258.664 188.795L250.907 195.507L256.509 207.839L247.576 245.737H261.082L267.354 207.819Z" fill="#F0BF9C"/>
<path d="M268.358 195.064H259.381C261.569 197.854 262.433 201.465 261.747 204.947L261.608 205.657L261.936 205.236C263.299 203.49 265.683 202.918 267.685 203.857L269.329 204.627L270.298 203.063L262.828 198.235L268.358 195.064Z" fill="#EBA588"/>
<path d="M148.339 207.819L145.394 203.063C144.169 203.637 142.709 203.192 142.01 202.031L139.772 198.314C139.055 197.123 139.376 195.579 140.507 194.774L150.135 187.931L146.9 175.883C146.701 175.142 146.908 174.351 147.445 173.805C148.521 172.707 150.363 173.058 150.963 174.475L157.029 188.795L164.785 195.507L159.183 207.839L168.117 245.737H154.61L148.339 207.819Z" fill="#F0BF9C"/>
<path d="M147.334 195.064H156.311C154.123 197.854 153.259 201.465 153.945 204.947L154.084 205.657L153.756 205.236C152.393 203.49 150.01 202.918 148.007 203.857L146.363 204.627L145.395 203.063L152.864 198.235L147.334 195.064Z" fill="#EBA588"/>
<path d="M260.039 108.777V29.7753C260.039 26.3388 262.816 23.5527 266.241 23.5527H380.383C383.809 23.5527 386.585 26.3388 386.585 29.7753V108.777C386.585 112.214 383.808 114.999 380.383 114.999H266.241C262.816 114.999 260.039 112.213 260.039 108.777Z" fill="#D4CFBE"/>
<path d="M262.52 29.7745C262.52 27.7157 264.189 26.041 266.241 26.041H380.383C382.435 26.041 384.104 27.7157 384.104 29.7745V108.775C384.104 110.834 382.435 112.509 380.383 112.509H266.241C264.189 112.509 262.52 110.834 262.52 108.775V29.7745Z" fill="#402C49"/>
<path d="M268.102 106.91L378.523 106.91V31.643L268.102 31.643V106.91Z" fill="#F5D896"/>
<path d="M397.413 267.068H18.4141V275.999H397.413V267.068Z" fill="#1D7C4E"/>
<path d="M123.512 195.778H35.5288C32.0567 195.778 29.2422 192.954 29.2422 189.471V73.3839C29.2422 69.9001 32.0567 67.0762 35.5288 67.0762H123.512C126.984 67.0762 129.798 69.9001 129.798 73.3839V189.471C129.798 192.954 126.984 195.778 123.512 195.778Z" fill="#A59B95"/>
<path d="M35.5278 193.256C33.4476 193.256 31.7559 191.558 31.7559 189.471V73.3842C31.7559 71.297 33.4476 69.5996 35.5278 69.5996H123.511C125.591 69.5996 127.283 71.297 127.283 73.3842V189.471C127.283 191.558 125.591 193.256 123.511 193.256H35.5278Z" fill="#402C49"/>
<path d="M121.625 187.578L121.625 75.2754L37.4142 75.2754L37.4142 187.578H121.625Z" fill="#2BB572"/>
<mask id="mask0_2303_51360" style="mask-type:luminance" maskUnits="userSpaceOnUse" x="37" y="75" width="85" height="113">
<path d="M121.627 187.578L121.627 75.2754L37.4162 75.2754L37.4162 187.578H121.627Z" fill="white"/>
</mask>
<g mask="url(#mask0_2303_51360)">
<path d="M37.3844 106.035C40.8697 107.324 44.5498 108.671 48.2099 108.036C52.9229 107.217 56.4761 103.304 59.0486 99.2584C61.6211 95.2126 63.6774 90.7203 67.196 87.47C70.7153 84.2196 76.3613 82.5752 80.2948 85.3058C83.7537 87.7065 84.603 92.3994 85.0034 96.6003C85.4039 100.801 85.8408 105.44 88.9055 108.329C91.495 110.771 95.3323 111.3 98.8849 111.218C102.437 111.136 106.036 110.571 109.513 111.305C112.99 112.04 116.44 114.527 116.882 118.065C117.495 122.972 112.391 126.667 111.114 131.443C110.064 135.364 111.755 139.532 114.107 142.836C116.458 146.141 119.482 148.94 121.66 152.362C125.906 159.032 126.523 167.314 127.019 175.213C127.494 182.767 127.567 191.402 122.056 196.571C117.107 201.212 109.549 201.214 102.78 200.938C88.3272 200.35 73.8736 199.762 59.4208 199.173C49.7325 198.779 39.4357 198.185 31.5322 192.55C24.72 187.692 20.6998 179.655 18.986 171.448C17.2723 163.241 17.6174 154.76 17.9708 146.383C18.4228 135.66 18.4146 124.916 18.7578 114.223C19.0879 103.959 29.5595 102.895 37.3844 106.035Z" fill="#ADEBCD"/>
<path d="M39.9275 86.8595C38.5809 88.9714 38.4256 92.0085 40.1318 93.8403C41.5123 95.3226 43.7717 95.6947 45.7526 95.291C47.7342 94.8867 49.5108 93.8258 51.2446 92.7825C52.6352 91.9454 54.0396 91.097 55.1932 89.9535C56.3462 88.8099 57.2407 87.3238 57.3608 85.7014C57.5444 83.2156 55.747 80.8092 53.3971 80.0018C50.89 79.1402 47.9925 79.9797 45.9318 81.5264C43.9063 83.0472 41.2979 84.7105 39.9275 86.8595Z" fill="#ADEBCD"/>
<path d="M93.5092 92.273C93.0704 94.1527 93.4922 96.2671 94.7998 97.6832C96.6336 99.6695 99.6292 99.9098 102.325 100.018C105.461 100.145 108.597 100.272 111.733 100.399C113.667 100.477 115.863 100.453 117.184 99.0336C118.864 97.2277 118.109 94.2423 116.721 92.2018C114.677 89.1955 111.462 87.0131 107.921 86.2265C103.002 85.1346 94.8589 86.4927 93.5092 92.273Z" fill="#ADEBCD"/>
<path d="M124.887 197.526L120.218 185.105L109.385 191.927L113.904 203.191L124.887 197.526Z" fill="#F2C9AD"/>
<path d="M71.8755 157.298C73.6264 158.242 75.7493 158.818 77.8994 158.808C80.0494 158.799 82.1673 158.205 83.91 157.245C85.6614 156.291 87.0287 154.976 87.9051 153.674C86.6629 154.636 85.1541 155.563 83.436 156.228C81.7229 156.896 79.8098 157.301 77.8931 157.311C75.9763 157.317 74.0595 156.929 72.3407 156.276C70.617 155.626 69.1 154.711 67.8496 153.76C68.7379 155.056 70.1159 156.358 71.8755 157.298Z" fill="#E4E4E0"/>
<path d="M83.725 185.08C87.6855 182.199 91.2041 178.719 93.969 175.055C96.7445 171.396 98.7556 167.564 99.9959 164.1C97.7315 167.006 95.0723 170.209 91.9875 173.335C88.9102 176.466 85.4161 179.518 81.6774 182.241C77.9313 184.952 73.9493 187.328 70.0234 189.282C66.0993 191.244 62.2349 192.777 58.7754 194.026C62.4436 193.928 66.6996 193.21 71.0317 191.708C75.3645 190.218 79.7594 187.953 83.725 185.08Z" fill="#E4E4E0"/>
<path d="M47.8359 186.88L49.1058 202.662L54.9737 172.07L47.8359 186.88Z" fill="#E4E4E0"/>
<path d="M122.586 183.613L113.168 163.855C112.524 162.502 111.73 161.248 110.82 160.098C110.13 159.226 109.37 158.419 108.55 157.681C105.796 155.203 102.368 153.51 98.6151 152.889L77.4519 149.385L54.4134 153.2C48.609 154.161 43.5376 157.676 40.5879 162.783L28.2461 184.146L44.5296 193.737L47.8345 186.88L54.9723 172.071L49.1044 202.663L46.7714 236.122H106.832L105.797 202.663L106.658 188.581L108.071 192.753L109.383 191.927L120.217 185.105L122.586 183.613ZM72.3409 156.276C74.0596 156.929 75.9764 157.317 77.8932 157.311C79.81 157.301 81.7236 156.896 83.4361 156.228C85.1542 155.564 86.663 154.636 87.9052 153.674C87.0289 154.976 85.6615 156.291 83.9101 157.245C82.1675 158.205 80.0495 158.799 77.8995 158.808C75.7495 158.818 73.6265 158.243 71.8757 157.298C70.1161 156.359 68.7374 155.056 67.8497 153.761C69.1008 154.712 70.6171 155.626 72.3409 156.276ZM70.023 189.28C73.949 187.326 77.9309 184.951 81.6771 182.239C85.4157 179.517 88.9098 176.464 91.9871 173.334C95.0719 170.208 97.7312 167.005 99.9956 164.098C98.7552 167.563 96.7448 171.395 93.9686 175.054C91.2038 178.717 87.6852 182.198 83.7246 185.079C79.7584 187.953 75.3641 190.218 71.0308 191.706C66.6987 193.207 62.442 193.925 58.7744 194.024C62.2352 192.775 66.0989 191.243 70.023 189.28ZM98.3498 222.962C89.0909 225.655 73.7761 227.553 64.1425 227.203C73.4014 224.51 88.7168 222.612 98.3498 222.962ZM66.815 199.13C69.8156 198.947 72.9746 198.607 76.1053 198.088C79.2354 197.562 82.3328 196.856 85.2309 196.053C88.1309 195.255 90.8285 194.359 93.2036 193.557C91.2013 195.063 88.6804 196.54 85.8174 197.747C82.9577 198.958 79.7616 199.898 76.4963 200.446C73.2304 200.989 69.9036 201.139 66.8068 200.923C63.7088 200.712 60.8465 200.135 58.4664 199.36C60.9722 199.347 63.8137 199.317 66.815 199.13ZM51.255 231.634C65.4149 230.339 88.3956 230.051 102.583 230.991C88.4226 232.285 65.4426 232.573 51.255 231.634Z" fill="white"/>
<path d="M120.218 185.105L109.385 191.927L110.727 195.272L120.218 185.105Z" fill="#402C49"/>
<path d="M106.66 188.581L107.786 170.182L111.175 190.8L108.073 192.753L106.66 188.581Z" fill="#E4E4E0"/>
<path d="M71.7871 150.544C75.163 155.115 81.9808 155.115 85.3567 150.544V133.711H71.7871V150.544Z" fill="#F2C9AD"/>
<path d="M85.3587 133.711V147.715C84.9852 147.743 84.6087 147.763 84.2277 147.763C79.0344 147.763 74.4627 145.1 71.7891 141.063V133.711H85.3587Z" fill="#402C49"/>
<path d="M83.6457 98.9492C93.3232 98.9492 101.168 106.821 101.168 116.531V126.831C101.168 136.541 93.3232 144.413 83.6457 144.413C73.9681 144.413 66.123 136.541 66.123 126.831V116.531C66.123 106.821 73.9681 98.9492 83.6457 98.9492Z" fill="#F2C9AD"/>
<path d="M61.308 118.138C61.0993 117.474 60.9125 116.812 60.7761 116.15C60.0563 112.649 59.879 108.979 60.7761 105.519C62.2736 99.7486 66.8006 94.9617 72.3139 92.7325C82.8735 88.4635 96.042 92.8814 101.147 103.21C102.689 106.332 101.362 107.46 98.6906 109.687C91.7728 115.453 81.9494 112.117 74.3533 112.788L74.4419 127.031C74.4419 129.244 72.654 131.038 70.4487 131.038C67.8309 131.038 65.2094 131.034 62.5942 131.039C62.5747 128.985 63.2801 126.946 63.1399 124.916C62.9827 122.642 62.0152 120.384 61.308 118.138Z" fill="#EBA25D"/>
<path d="M66.1227 133.711C69.0877 133.711 71.4914 131.299 71.4914 128.324C71.4914 125.349 69.0877 122.938 66.1227 122.938C63.1576 122.938 60.7539 125.349 60.7539 128.324C60.7539 131.299 63.1576 133.711 66.1227 133.711Z" fill="#F2C9AD"/>
<path d="M63.416 128.324C63.416 129.823 64.6274 131.038 66.1211 131.038C67.6155 131.038 68.8263 129.822 68.8263 128.324C68.8263 126.825 67.6148 125.609 66.1211 125.609C64.6274 125.609 63.416 126.825 63.416 128.324Z" fill="#EBA588"/>
<path d="M96.5078 120.51C96.5078 121.394 96.9963 122.109 97.5992 122.109C98.202 122.109 98.6905 121.393 98.6905 120.51C98.6905 119.628 98.202 118.912 97.5992 118.912C96.9963 118.912 96.5078 119.627 96.5078 120.51Z" fill="#34587F"/>
<path d="M85.0625 120.51C85.0625 121.394 85.551 122.109 86.1539 122.109C86.7567 122.109 87.2452 121.393 87.2452 120.51C87.2452 119.628 86.7567 118.912 86.1539 118.912C85.5516 118.912 85.0625 119.627 85.0625 120.51Z" fill="#34587F"/>
<path d="M90.4609 128.301C92.2696 128.261 94.0789 128.221 95.8875 128.182C95.7241 128.672 95.5908 129.195 95.3236 129.637C95.0564 130.078 94.6755 130.469 94.1933 130.65C93.4634 130.925 92.6198 130.672 91.9993 130.199C91.3788 129.727 90.8916 128.953 90.4609 128.301Z" fill="#EBA588"/>
<path d="M85.3398 132.602C88.8201 133.513 92.4556 133.822 96.0384 133.512C95.2997 135.86 92.8379 137.827 90.3892 137.665C87.9406 137.502 85.7636 135.027 85.3398 132.602Z" fill="white"/>
<path d="M85.9624 114.715C84.4517 114.873 83.1887 115.739 82.4551 116.948L89.8544 116.172C88.8875 115.142 87.473 114.557 85.9624 114.715Z" fill="#EBA25D"/>
<path d="M97.8293 114.72C98.849 114.875 99.6461 115.734 100.057 116.934L95.0645 116.177C95.8012 115.15 96.8096 114.565 97.8293 114.72Z" fill="#EBA25D"/>
<path d="M88.4717 122.862C87.8782 122.518 87.0352 122.293 86.1789 122.251C85.3227 122.205 84.4615 122.343 83.8359 122.624C85.1511 123.002 87.1244 123.104 88.4717 122.862Z" fill="#EBA588"/>
<path d="M96.1445 122.862C96.5525 122.518 97.1328 122.293 97.7218 122.251C98.3109 122.205 98.9037 122.343 99.3337 122.624C98.4284 123.002 97.0712 123.104 96.1445 122.862Z" fill="#EBA588"/>
<path d="M69.2109 107.655C71.6979 107.282 74.6589 105.649 76.8359 103.223C79.0369 100.819 80.3772 97.7068 80.5117 95.1875C78.7508 96.9978 76.863 99.2597 74.8789 101.437C72.9056 103.625 70.8404 105.724 69.2109 107.655Z" fill="#F0BF6C"/>
<path d="M84.2747 106.728C85.1472 105.349 85.6621 103.257 85.5527 101.169C85.4591 99.0808 84.7443 97.0491 83.7422 95.7617C83.6523 97.3967 83.7529 99.3256 83.8421 101.253C83.9402 103.18 84.027 105.109 84.2747 106.728Z" fill="#F0BF6C"/>
<path d="M77.0133 95.0452C74.8714 94.7721 72.028 95.4867 69.7139 97.0839C67.381 98.6538 65.671 101.043 65.1348 103.141C66.922 101.917 68.9092 100.379 70.9901 98.9692C73.0634 97.5475 75.2203 96.2613 77.0133 95.0452Z" fill="#F0BF6C"/>
<path d="M93.7822 105.135C94.1865 103.671 93.9168 101.592 92.9285 99.862C91.9648 98.1186 90.3303 96.8104 88.873 96.4004C89.6978 97.6783 90.6886 99.119 91.5417 100.647C92.403 102.17 93.119 103.766 93.7822 105.135Z" fill="#F0BF6C"/>
</g>
<path d="M216.781 108.075H173.055C170.625 108.075 168.654 106.099 168.654 103.66V25.4447C168.654 23.0061 170.625 21.0293 173.055 21.0293H216.781C219.211 21.0293 221.181 23.0061 221.181 25.4447V103.66C221.181 106.099 219.211 108.075 216.781 108.075Z" fill="#402C49"/>
<path d="M173.054 105.553C172.014 105.553 171.168 104.704 171.168 103.66V25.445C171.168 24.4017 172.014 23.5527 173.054 23.5527H216.78C217.82 23.5527 218.666 24.4017 218.666 25.445V103.66C218.666 104.704 217.82 105.553 216.78 105.553H173.054Z" fill="#2BB572"/>
<path d="M217.185 60.2226C217.191 58.0496 216.815 55.7637 215.46 54.0682C212.434 50.2817 205.781 50.7686 203.305 46.5999C201.278 43.1861 203.318 38.8149 202.83 34.8713C202.443 31.7339 200.289 28.8771 197.386 27.6497C194.482 26.4222 190.94 26.8713 188.432 28.7844C183.158 32.8068 183.307 41.618 177.774 45.2721C175.74 46.6156 173.209 47.0382 171.168 48.3673V103.66C171.168 104.704 172.014 105.553 173.054 105.553H216.78C217.82 105.553 218.666 104.704 218.666 103.66V71.7511C217.574 70.3679 217.079 68.5235 216.97 66.7353C216.839 64.566 217.178 62.3956 217.185 60.2226Z" fill="#ADEBCD"/>
<path d="M209.216 35.1056C206.467 35.551 205.574 39.7563 206.087 42.01C206.574 44.1477 208.587 45.9908 210.763 45.789C211.94 45.6798 213.029 45.0011 213.743 44.0556C214.456 43.1101 214.808 41.9192 214.844 40.734C214.937 37.6703 212.522 34.5701 209.216 35.1056Z" fill="#ADEBCD"/>
<mask id="mask1_2303_51360" style="mask-type:luminance" maskUnits="userSpaceOnUse" x="148" y="1" width="71" height="105">
<path d="M216.781 23.5519H173.055C172.015 23.5519 171.169 24.4009 171.169 25.4442V1.4043H148.609V56.9845L171.169 75.0561V103.66C171.169 104.703 172.015 105.552 173.055 105.552H216.781C217.82 105.552 218.667 104.703 218.667 103.66V90.7187V69.3829V25.4442C218.667 24.4009 217.82 23.5519 216.781 23.5519Z" fill="white"/>
</mask>
<g mask="url(#mask1_2303_51360)">
<path d="M201.129 64.6148L187.345 64.1562L185.438 65.9849L191.726 70.5869L195.499 70.6519L203.305 68.074L201.129 64.6148Z" fill="#F0BF6C"/>
<path d="M181.178 124.079C190.797 126.193 201.009 125.512 210.265 122.138L203.303 68.074L198.267 67.6816L198.216 67.763C195.941 71.3464 190.784 71.5079 188.29 68.074L182.834 68.3679L181.178 124.079Z" fill="#6CA8BC"/>
<path d="M183.318 95.5098C184.854 97.9723 186.702 101.199 188.658 104.361C190.602 107.529 192.653 110.63 194.161 113.109C191.956 111.231 189.472 108.323 187.486 105.087C185.488 101.858 184.007 98.3287 183.318 95.5098Z" fill="#5195A8"/>
<path d="M182.354 91.6121C183.889 91.7591 185.592 91.5383 187.332 91.023C189.073 90.5165 190.875 89.7469 192.692 88.9862C196.316 87.4629 199.852 85.7352 202.643 84.4453C200.397 86.5483 196.981 88.7755 193.261 90.338C191.409 91.1132 189.488 91.8013 187.566 92.0984C185.658 92.4075 183.764 92.241 182.354 91.6121Z" fill="#5195A8"/>
<path d="M180.736 87.652C182.654 87.6319 185.094 87.5688 187.509 87.2351C189.925 86.9159 192.296 86.3293 194.151 85.8398C192.546 86.8882 190.142 87.8123 187.631 88.1421C185.122 88.4903 182.561 88.2374 180.736 87.652Z" fill="#5195A8"/>
<path d="M187.295 71.7108C189.253 72.1435 191.78 72.457 194.297 72.2381C196.816 72.042 199.258 71.3191 201.12 70.5723C200.348 71.2125 199.342 71.8294 198.179 72.2955C197.018 72.7642 195.706 73.0808 194.375 73.1918C193.043 73.3003 191.697 73.2026 190.476 72.9301C189.254 72.6601 188.161 72.216 187.295 71.7108Z" fill="#5195A8"/>
<path d="M169.986 56.3359L163.493 52.0839L161.846 25.3557L167.836 20.9478C168.162 20.7075 168.366 20.3354 168.393 19.9304L168.533 17.8287C168.578 17.1519 168.125 16.5438 167.465 16.3949L159.333 14.5645L159.54 15.8985C159.659 16.6706 159.08 17.3739 158.302 17.4017L152.479 17.6104L154.734 24.2241L153.208 52.6591C153.047 55.6641 154.434 58.5417 156.882 60.2807L165.893 66.6811L169.986 56.3359Z" fill="#BD6C67"/>
<path d="M159.332 14.5645L159.389 14.9322C159.721 17.0806 161.448 18.7383 163.601 18.9773L165.01 19.1337L163.684 19.2277C161.8 19.3615 160.068 20.312 158.939 21.8315L158.857 21.5906C158.238 19.7513 156.675 18.3926 154.773 18.0381L152.477 17.6111L159.332 14.5645Z" fill="#A64F5A"/>
<path d="M152.008 12.8263L157.743 12.2832C158.427 12.2182 159.043 12.6995 159.149 13.3814L159.539 15.8988C159.658 16.6708 159.079 17.3742 158.301 17.4019L152.478 17.6107C151.811 17.6347 151.235 17.149 151.144 16.4867L150.842 14.3042C150.741 13.5681 151.271 12.8963 152.008 12.8263Z" fill="#BD6C67"/>
<path d="M165.461 15.9449L168.439 8.29114C168.795 7.37464 168.334 6.3427 167.416 5.99956C166.507 5.65957 165.495 6.12382 165.157 7.03654L162.648 13.8041L162.915 5.5965C162.946 4.62385 162.169 3.81836 161.199 3.81836C160.279 3.81836 159.523 4.54564 159.484 5.46719L159.148 13.3827L159.332 14.566L165.461 15.9449Z" fill="#BD6C67"/>
<path d="M169.985 56.337L168.799 55.5605L162.338 64.1579L165.892 66.6823L169.985 56.337Z" fill="#422C4F"/>
<path d="M194.406 64.8758C195.539 64.4721 196.469 63.6168 197.168 62.634C197.421 62.2783 197.641 61.9011 197.849 61.5176L198.269 67.684L198.217 67.7653C195.942 71.3487 190.786 71.5102 188.292 68.0763L187.936 63.0131C188.383 63.4061 188.853 63.7707 189.362 64.0842C190.861 65.0083 192.747 65.4662 194.406 64.8758Z" fill="#BD6C67"/>
<path d="M197.644 58.5137L197.849 61.5168C197.64 61.9003 197.42 62.2768 197.167 62.6332C196.468 63.6153 195.538 64.4713 194.405 64.875C192.746 65.466 190.86 65.0074 189.361 64.0834C188.853 63.7699 188.382 63.4053 187.935 63.0123L187.691 59.5626L197.644 58.5137Z" fill="#422C4F"/>
<path d="M183.513 54.7024C183.513 56.5607 182.012 58.0669 180.16 58.0669C178.308 58.0669 176.807 56.5607 176.807 54.7024C176.807 52.8442 178.308 51.3379 180.16 51.3379C182.012 51.3385 183.513 52.8448 183.513 54.7024Z" fill="#BD6C67"/>
<path d="M181.785 54.7028C181.785 55.6035 181.058 56.3333 180.16 56.3333C179.263 56.3333 178.535 55.6035 178.535 54.7028C178.535 53.8021 179.263 53.0723 180.16 53.0723C181.058 53.0723 181.785 53.8027 181.785 54.7028Z" fill="#A64F5A"/>
<path d="M202.825 54.9668C203.869 51.1822 204.186 47.197 203.755 43.2938C203.543 41.3763 203.145 39.4562 202.302 37.7216C201.46 35.987 200.142 34.441 198.422 33.5793C196.745 32.7398 194.816 32.5972 192.942 32.5411C190.121 32.4566 187.247 32.543 184.561 33.4141C181.875 34.2852 179.369 36.0337 178.114 38.5706C176.917 40.9903 176.971 43.8811 177.696 46.4824C178.421 49.0843 179.764 51.4623 181.095 53.8106C188.022 55.4651 195.772 55.9445 202.825 54.9668Z" fill="#402C49"/>
<path d="M195.531 42.5918C190.744 44.1265 185.566 44.4128 180.639 43.425C180.27 44.6147 180.102 45.8888 180.178 47.2059L180.564 53.846C180.906 59.7109 185.921 64.1874 191.765 63.8449C197.497 63.5094 201.895 58.6638 201.742 52.9459C198.233 50.7003 195.692 46.7372 195.531 42.5918Z" fill="#BD6C67"/>
<path d="M206.402 54.7024C206.402 56.5607 204.901 58.0669 203.049 58.0669C201.197 58.0669 199.695 56.5607 199.695 54.7024C199.695 52.8442 201.197 51.3379 203.049 51.3379C204.901 51.3379 206.402 52.8448 206.402 54.7024Z" fill="#BD6C67"/>
<path d="M204.674 54.7028C204.674 55.6035 203.947 56.3333 203.049 56.3333C202.151 56.3333 201.424 55.6035 201.424 54.7028C201.424 53.8021 202.151 53.0723 203.049 53.0723C203.947 53.0723 204.674 53.8027 204.674 54.7028Z" fill="#A64F5A"/>
<path d="M183.962 48.3758C182.89 48.4325 181.968 48.9977 181.406 49.824L186.656 49.5452C186.011 48.7832 185.034 48.319 183.962 48.3758Z" fill="#422C4F"/>
<path d="M193.6 47.7174C192.42 47.7395 191.384 48.3261 190.736 49.213L196.517 49.1058C195.837 48.2429 194.78 47.6954 193.6 47.7174Z" fill="#422C4F"/>
<path d="M184.847 51.6813C184.847 52.1342 184.482 52.5013 184.03 52.5013C183.579 52.5013 183.213 52.1342 183.213 51.6813C183.213 51.2284 183.579 50.8613 184.03 50.8613C184.482 50.8613 184.847 51.2284 184.847 51.6813Z" fill="#422C4F"/>
<path d="M193.288 52.5013C193.739 52.5013 194.105 52.1342 194.105 51.6813C194.105 51.2285 193.739 50.8613 193.288 50.8613C192.837 50.8613 192.471 51.2285 192.471 51.6813C192.471 52.1342 192.837 52.5013 193.288 52.5013Z" fill="#422C4F"/>
<path d="M189.988 55.0429C188.952 54.8013 187.878 54.7275 186.818 54.8247C186.866 55.3274 187.147 55.8869 187.587 56.1316C188.027 56.3764 188.587 56.3884 189.037 56.1625C189.45 55.9556 189.758 55.446 189.988 55.0429Z" fill="#A64F5A"/>
<path d="M194.081 56.9863C191.583 58.1797 188.71 58.5632 185.988 58.0668C186.347 59.2836 187.446 60.4297 188.635 60.8605C189.824 61.2913 191.213 61.1204 192.264 60.4146C193.313 59.7081 194.026 58.2542 194.081 56.9863Z" fill="white"/>
<path d="M203.303 68.0742L208.665 68.3581C211.653 68.5164 214.428 69.9571 216.283 72.3124L225.768 84.3582L215.36 93.1479L212.151 89.4926V94.5552C212.151 102.917 213.301 111.24 215.569 119.286L219.436 133.006C210.763 135.79 201.829 133.928 201.829 133.928L198.641 120.579C196.559 111.864 195.906 102.868 196.706 93.9433C197.4 86.2 197.001 78.3968 195.52 70.7657L195.498 70.6522L203.303 68.0742Z" fill="#F0BF6C"/>
<path d="M185.437 65.9854L169.985 56.3359L164.967 69.0175L176.156 76.431L176.329 88.1109C176.445 95.9135 176.154 103.716 175.458 111.488L173.641 131.788L174.022 131.918C177.871 133.238 181.986 133.582 186.001 132.92L188.341 103.446C188.501 101.426 188.582 99.4017 188.582 97.3757V92.3232C188.582 84.964 189.64 77.6433 191.726 70.5875L185.437 65.9854Z" fill="#F0BF6C"/>
<path d="M203.304 68.0744L201.128 64.6152L195.498 70.6523L200.051 75.9394L203.304 68.0744Z" fill="#F5D896"/>
<path d="M191.726 70.5869L187.345 64.1562L185.438 65.9849L187.432 75.939L191.726 70.5869Z" fill="#F5D896"/>
<path d="M212.151 89.4941L206.775 81.2266L206.997 83.011C207.468 86.7956 209.301 90.2775 212.151 92.8005V89.4941Z" fill="#EBA25D"/>
<path d="M208.237 73.9708C207.569 75.6777 207.176 77.611 206.575 79.1513C206.301 78.3755 206.116 77.4608 206.096 76.4604C206.075 75.4632 206.228 74.3726 206.629 73.3413C207.031 72.3049 207.693 71.3626 208.506 70.6965C209.314 70.0241 210.272 69.6582 211.093 69.6387C209.874 70.7463 208.9 72.2639 208.237 73.9708Z" fill="#EBA25D"/>
<path d="M177.255 75.1907C177.3 75.0879 177.351 74.9832 177.4 74.8791C177.346 74.9611 177.293 75.0444 177.238 75.1214C177.024 72.8191 177.939 69.4306 179.283 67.5515C179.443 69.2685 178.974 71.5897 178.168 73.4385C178.714 72.5175 179.366 71.5752 180.058 70.6643C181.204 69.1656 182.459 67.7464 183.677 66.7637C183.402 68.3053 182.551 70.1093 181.362 71.6647C180.177 73.224 178.666 74.5209 177.255 75.1907Z" fill="#EBA25D"/>
<path d="M210.726 123.67C208.31 121.517 205.626 118.181 203.553 114.475C201.464 110.779 200.007 106.748 199.42 103.561C200.975 106.405 202.852 110.105 204.892 113.718C206.919 117.338 209.103 120.864 210.726 123.67Z" fill="#EBA25D"/>
<path d="M215.816 138.234L215.249 134.127C215.035 132.58 215.078 131.007 215.377 129.474L221.257 99.3296L216.132 92.499L224.205 85.6816L229.169 93.9668C230.939 96.9213 231.384 100.488 230.394 103.789L222.039 131.659L223.513 135.62L216.886 140.99C216.325 140.172 215.954 139.231 215.816 138.234Z" fill="#EBA58E"/>
<path d="M224.206 85.6797L216.133 92.4977L218.581 95.7606L225.035 87.0642L224.206 85.6797Z" fill="#422C4F"/>
</g>
<path d="M202.016 26.9629H186.633C185.642 26.9629 184.709 26.4936 184.115 25.6969L181.994 22.8496H206.655L204.534 25.6969C203.941 26.4942 203.007 26.9629 202.016 26.9629Z" fill="#402C49"/>
<mask id="mask2_2303_51360" style="mask-type:luminance" maskUnits="userSpaceOnUse" x="268" y="31" width="111" height="76">
<path d="M268.102 106.91L378.523 106.91V31.643L268.102 31.643V106.91Z" fill="white"/>
</mask>
<g mask="url(#mask2_2303_51360)">
<path d="M262.357 64.6268C263.737 61.8533 265.142 59.0413 267.219 56.746C269.295 54.4506 272.166 52.6983 275.255 52.6636C278.344 52.6289 281.537 54.6701 282.185 57.701C282.813 60.6347 281.075 63.5886 281.201 66.5866C281.421 71.7911 287.508 75.213 292.61 74.2492C297.712 73.286 301.691 69.2516 304.608 64.9428C307.526 60.634 309.763 55.8282 313.244 51.9641C318.165 46.5042 325.487 43.3055 332.822 43.4128C340.158 43.5194 347.384 46.9293 352.144 52.5299C355.323 56.2704 357.896 61.2358 362.651 62.4204C366.768 63.446 370.922 61.1708 375.134 60.6624C381.434 59.9023 388.021 63.598 390.674 69.3815V116.836H257.578L262.357 64.6268Z" fill="#FBEED1"/>
<path d="M286.047 46.6603C286.026 48.3886 287.145 50.1649 288.818 50.5793C290.177 50.9161 291.574 50.3598 292.938 50.0387C294.505 49.6697 296.127 49.6111 297.711 49.3215C299.294 49.032 300.9 48.4694 302.008 47.2993C303.86 45.3439 303.763 41.9876 302.077 39.8865C300.391 37.7848 297.445 36.9351 294.799 37.4088C292.492 37.8214 290.082 39.1939 288.612 41.0452C287.459 42.4973 286.07 44.7996 286.047 46.6603Z" fill="#FBEED1"/>
</g>
<mask id="mask3_2303_51360" style="mask-type:luminance" maskUnits="userSpaceOnUse" x="268" y="31" width="111" height="76">
<path d="M268.102 106.91L378.523 106.91V31.643L268.102 31.643V106.91Z" fill="white"/>
</mask>
<g mask="url(#mask3_2303_51360)">
<path d="M318.549 93.582C315.571 94.5925 313.212 96.9093 312.144 99.8771L303.418 124.121L307.822 150.273C312.557 147.36 315.938 142.672 317.216 137.248L321.313 119.859L318.549 93.582Z" fill="#E68799"/>
<path d="M299.99 102.118L310.713 88.7994C309.041 87.1972 306.443 87.0912 304.647 88.5527L301.163 91.3874L301.376 85.291L284.797 87.3536L289.6 103.287L299.99 102.118Z" fill="#F0BF9C"/>
<path d="M301.162 91.3879C297.705 92.7276 295.053 95.5844 293.967 99.1387L293.701 100.009L293.634 99.1949C293.277 94.8451 296.817 91.1734 301.162 91.3879Z" fill="#EBA588"/>
<path d="M301.376 85.2907L301.983 73.2115C302.026 72.3587 301.399 71.6201 300.553 71.5273C299.67 71.4302 298.877 72.0692 298.78 72.9548L297.377 85.7884L301.376 85.2907Z" fill="#EBA588"/>
<path d="M297.377 85.789L295.588 71.9644C295.469 71.0485 294.654 70.3881 293.736 70.4651C292.831 70.5414 292.14 71.3103 292.159 72.2218L292.442 86.4027L297.377 85.789Z" fill="#EBA588"/>
<path d="M292.442 86.4018L289.138 73.1525C288.939 72.3533 288.153 71.8487 287.346 72.002C286.533 72.1565 285.985 72.9229 286.099 73.7448L287.935 86.9632L292.442 86.4018Z" fill="#EBA588"/>
<path d="M284.797 87.3545L281.986 78.2354C281.784 77.5788 282.187 76.8887 282.858 76.7462C283.414 76.6282 283.973 76.9291 284.183 77.4589L287.936 86.9634L284.797 87.3545Z" fill="#EBA588"/>
<path d="M302.351 100.148L287.928 101.324L289.107 111.543L304.72 109.452L302.351 100.148Z" fill="#E68799"/>
<path d="M330.061 104.533C334.405 107.363 339.876 108.394 344.947 107.338C350.119 106.262 354.69 103.142 358.357 99.3277C359.397 98.2465 360.366 97.1055 361.293 95.9291C360.446 93.5259 359.646 91.1062 358.916 88.6626L348.423 82.6016L326.701 86.2928L322.572 95.5386C324.121 99.1838 326.746 102.373 330.061 104.533Z" fill="#F2C9AD"/>
<path d="M361.292 95.9295C360.365 97.1059 359.396 98.247 358.357 99.3281C354.69 103.142 350.118 106.262 344.947 107.339C339.875 108.394 334.404 107.363 330.06 104.533C326.745 102.373 324.12 99.1849 322.571 95.5391L320.098 101.08L323.859 124.129C324.962 130.887 330.396 136.093 337.175 136.887L338.944 137.094C345.948 142.35 351.762 150.869 353.537 159.464C367.384 164.323 383.652 160.61 393.963 150.141C379.477 134.579 368.363 115.994 361.292 95.9295Z" fill="white"/>
<path d="M356.769 109.157C354.576 110.025 352.036 110.824 349.286 111.278C346.54 111.738 343.592 111.854 340.695 111.518C337.799 111.178 334.957 110.387 332.389 109.307C329.816 108.232 327.526 106.87 325.59 105.52C327.004 107.408 329.064 109.324 331.638 110.817C334.201 112.316 337.265 113.384 340.436 113.754C343.606 114.123 346.833 113.79 349.671 112.92C352.518 112.06 354.961 110.67 356.769 109.157Z" fill="#E4E4E0"/>
<path d="M328.42 84.3686C328.891 86.2117 329.368 88.0705 330.215 89.7724C331.063 91.4742 332.321 93.0296 334.011 93.8925C337.147 95.4934 341.128 94.3322 343.764 91.9946C346.4 89.6569 347.969 86.3662 349.386 83.1348C342.509 83.6898 335.296 83.8135 328.42 84.3686Z" fill="#422C4F"/>
<path d="M343.908 102.458L348.543 108.403L347.156 112.793C351.573 133.05 360.311 152.736 372.935 169.154C387.232 167.92 401.436 160.895 411.307 150.445C388.023 132.321 382.191 96.8658 374.49 92.082C366.788 87.2976 348.421 82.6016 348.421 82.6016L349.493 94.1314L343.908 102.458Z" fill="#E68799"/>
<path d="M348.386 82.5781C347.683 89.3513 346.176 96.04 343.908 102.459C347.241 103.688 350.437 105.521 353.178 107.786C353.073 102.209 352.962 96.6405 352.853 91.067C352.788 87.7031 351.176 84.5203 348.421 82.6021L348.386 82.5781Z" fill="#EBA7AC"/>
<path d="M343.244 167.039C331.451 147.065 324.37 123.387 322.685 100.233L316.35 96.3691C310.498 127.096 328.927 169.574 336.54 177.614L343.244 167.039Z" fill="#E68799"/>
<path d="M328.947 84.6981C326.057 89.5001 323.934 94.7658 322.685 100.233C320.543 99.0027 318.491 97.6005 316.35 96.3698C319.644 92.2074 322.866 88.096 326.161 83.9336C326.929 84.2017 328.178 84.43 328.947 84.6981Z" fill="#EBA7AC"/>
<path d="M316.35 96.3691L317.008 105.79L321.315 99.417L316.35 96.3691Z" fill="#E36B85"/>
<path d="M364.981 59.3009C365.167 52.9434 361.863 46.5928 356.557 43.1116C353.311 40.9821 349.385 39.9779 345.513 40.1375C344.705 41.1581 344.02 42.2765 343.494 43.4711C346.644 51.1817 348.833 60.3713 352.722 67.7343C354.743 71.5612 357.022 75.5079 360.723 77.737C361.883 78.4366 363.157 78.8813 364.475 79.1134C363.946 78.1142 363.553 77.0426 363.318 75.9362C362.155 70.4523 364.817 64.9047 364.981 59.3009Z" fill="#422C4F"/>
<path d="M373.325 52.9372C374.321 47.91 372.687 42.433 369.103 38.7802C365.519 35.1275 360.087 33.4036 355.062 34.3245C351.316 35.0108 347.879 37.1516 345.514 40.1377C349.385 39.9781 353.312 40.9823 356.557 43.1117C361.863 46.5923 365.167 52.9435 364.981 59.3011C364.817 64.9048 362.156 70.4524 363.319 75.9357C363.553 77.0427 363.947 78.1138 364.475 79.1129C366.822 79.5267 369.31 79.2466 371.565 78.3913C368.742 77.0522 367.27 73.7286 367.283 70.5956C367.295 67.4626 368.527 64.4721 369.873 61.645C371.218 58.8185 372.716 56.0103 373.325 52.9372Z" fill="#8C404C"/>
<path d="M320.991 76.9904C317.865 71.4561 316.666 64.8027 317.914 58.5657C319.162 52.3286 322.901 46.5836 328.231 43.1383C333.561 39.6931 340.435 38.6649 346.463 40.6354C350.783 42.0477 354.59 44.9379 357.203 48.6664C359.817 52.3949 361.236 56.9345 361.317 61.4918C361.388 65.4909 360.429 69.5297 358.396 72.9699C356.363 76.4101 353.238 79.2246 349.534 80.7038C340.087 80.6363 330.235 78.9528 320.991 76.9904Z" fill="#8C404C"/>
<path d="M328.318 58.9473C325.681 61.1682 323.228 63.6055 320.968 66.2106L320.188 73.4846C319.269 82.0662 325.457 89.7711 334.009 90.6933C342.562 91.6161 350.241 85.4068 351.16 76.8252L352.092 68.1287C343.476 68.4567 334.663 64.804 328.318 58.9473Z" fill="#F2C9AD"/>
<path d="M353.952 84.7519C356.673 84.7519 358.879 82.5387 358.879 79.8086C358.879 77.0784 356.673 74.8652 353.952 74.8652C351.231 74.8652 349.025 77.0784 349.025 79.8086C349.025 82.5387 351.231 84.7519 353.952 84.7519Z" fill="#F2C9AD"/>
<path d="M356.455 79.808C356.455 81.195 355.334 82.3191 353.952 82.3191C352.57 82.3191 351.449 81.1944 351.449 79.808C351.449 78.4209 352.57 77.2969 353.952 77.2969C355.334 77.2969 356.455 78.4209 356.455 79.808Z" fill="#EBA58E"/>
<path d="M351.56 59.5099C349.15 58.4539 346.304 57.376 343.54 56.0974C340.768 54.8352 338.095 53.3794 335.723 52.2402C336.752 54.6605 339.273 57.2063 342.391 58.6148C345.494 60.0618 349.062 60.3109 351.56 59.5099Z" fill="#9B4B5A"/>
<path d="M352.068 53.803C350.268 52.8057 347.902 52.0002 345.489 51.4067C343.074 50.8182 340.603 50.4397 338.549 50.4933C340.132 51.8047 342.49 52.9048 344.977 53.5109C347.462 54.1228 350.06 54.235 352.068 53.803Z" fill="#9B4B5A"/>
<path d="M327.648 64.4382C325.993 64.1184 324.375 64.63 323.209 65.6764L331.311 67.2414C330.616 65.8354 329.302 64.7574 327.648 64.4382Z" fill="#8C404C"/>
<path d="M329.157 71.344C329.203 70.8583 329.049 70.2603 328.673 69.745C328.303 69.229 327.71 68.7988 327.023 68.6285C326.335 68.457 325.611 68.5598 325.044 68.8424C324.471 69.1212 324.057 69.5785 323.871 70.0295C324.737 69.5924 325.813 69.3874 326.776 69.6264C327.739 69.8667 328.595 70.5518 329.157 71.344Z" fill="#422C4F"/>
<path d="M340.422 65.0247C342.107 64.9881 343.617 65.7646 344.591 66.992L336.342 67.1718C337.263 65.9027 338.738 65.0613 340.422 65.0247Z" fill="#8C404C"/>
<path d="M337.426 71.6961C337.464 71.1795 337.731 70.5803 338.217 70.1078C338.696 69.6335 339.393 69.2891 340.143 69.233C340.894 69.1762 341.634 69.4134 342.178 69.8107C342.729 70.2056 343.081 70.7582 343.196 71.2634C342.366 70.6503 341.275 70.2434 340.224 70.3217C339.174 70.4018 338.155 70.9669 337.426 71.6961Z" fill="#422C4F"/>
<path d="M334.799 76.662C333.33 76.4179 331.86 76.1738 330.391 75.9297C330.569 76.8626 331.399 77.5993 332.326 77.7905C333.254 77.9816 334.269 77.4492 334.799 76.662Z" fill="#EBA58E"/>
<path d="M339.18 79.4414C335.141 80.2337 330.958 80.2822 326.902 79.5833C327.374 80.9925 327.882 82.6306 328.864 83.7433C329.846 84.8566 331.202 85.6885 332.678 85.8166C334.292 85.956 335.908 85.2325 337.061 84.0908C338.213 82.9497 338.773 81.0139 339.18 79.4414Z" fill="white"/>
</g>
<path d="M172.169 134.515C174.524 130.984 175.899 126.741 175.899 122.173C175.899 109.902 165.984 99.9531 153.753 99.9531C141.523 99.9531 131.607 109.902 131.607 122.173C131.607 134.445 141.523 144.393 153.753 144.393C158.461 144.393 162.822 142.915 166.409 140.402L175.614 143.829L172.169 134.515Z" fill="white"/>
<path d="M165.285 129.354C164.152 128.105 162.725 127.249 161.294 126.395C160.539 125.945 159.869 125.966 159.161 126.486C158.441 127.015 157.675 127.478 156.944 127.992C156.226 128.497 155.458 128.554 154.659 128.281C154.25 128.14 153.846 127.96 153.475 127.738C151.255 126.41 149.482 124.622 148.165 122.394C147.899 121.945 147.713 121.434 147.564 120.93C147.37 120.272 147.478 119.633 147.87 119.051C148.428 118.222 148.967 117.382 149.53 116.557C149.929 115.974 149.973 115.396 149.626 114.771C148.914 113.485 148.142 112.238 147.156 111.141C146.631 110.558 146.054 110.039 145.34 109.691C144.52 109.292 143.75 109.378 143.087 109.987C142.71 110.334 142.356 110.739 142.103 111.182C141.115 112.911 140.899 114.797 141.275 116.719C141.999 120.417 143.62 123.711 145.973 126.638C148.71 130.042 152.191 132.398 156.276 133.872C157.704 134.387 159.158 134.821 160.701 134.815C160.705 134.844 160.71 134.873 160.714 134.902C161.53 134.766 162.359 134.68 163.159 134.479C164.2 134.218 165.138 133.729 165.855 132.889C166.469 132.17 166.588 131.377 166.129 130.547C165.893 130.123 165.61 129.712 165.285 129.354Z" fill="#2BB572"/>
<path d="M308.43 113.86C304.912 111.497 300.682 110.117 296.13 110.117C283.9 110.117 273.984 120.066 273.984 132.337C273.984 144.609 283.9 154.557 296.13 154.557C308.361 154.557 318.276 144.609 318.276 132.337C318.276 127.614 316.803 123.238 314.298 119.639L317.714 110.403L308.43 113.86Z" fill="white"/>
<path d="M288.198 135.306C289.222 135.306 290.052 134.473 290.052 133.446C290.052 132.419 289.222 131.586 288.198 131.586C287.174 131.586 286.344 132.419 286.344 133.446C286.344 134.473 287.174 135.306 288.198 135.306Z" fill="#2BB572"/>
<path d="M296.53 135.306C297.554 135.306 298.384 134.473 298.384 133.446C298.384 132.419 297.554 131.586 296.53 131.586C295.506 131.586 294.676 132.419 294.676 133.446C294.676 134.473 295.506 135.306 296.53 135.306Z" fill="#2BB572"/>
<path d="M304.862 135.306C305.886 135.306 306.716 134.473 306.716 133.446C306.716 132.419 305.886 131.586 304.862 131.586C303.838 131.586 303.008 132.419 303.008 133.446C303.008 134.473 303.838 135.306 304.862 135.306Z" fill="#2BB572"/>
<path d="M221.922 41.3287C225.44 43.6916 229.67 45.0711 234.222 45.0711C246.453 45.0711 256.368 35.1226 256.368 22.851C256.368 10.5794 246.453 0.630859 234.222 0.630859C221.991 0.630859 212.076 10.5794 212.076 22.851C212.076 27.5742 213.549 31.9498 216.054 35.5496L212.638 44.7853L221.922 41.3287Z" fill="white"/>
<path d="M234.221 45.7018C229.803 45.7018 225.531 44.4339 221.842 42.0313L212.856 45.3769C212.626 45.4614 212.366 45.4053 212.193 45.2318C212.019 45.0577 211.963 44.7972 212.048 44.5664L215.35 35.6378C212.795 31.8513 211.447 27.4378 211.447 22.8515C211.447 10.2506 221.663 0 234.221 0C246.779 0 256.996 10.2506 256.996 22.8509C256.996 35.4511 246.779 45.7018 234.221 45.7018ZM221.921 40.6979C222.044 40.6979 222.167 40.7338 222.272 40.8045C225.813 43.1831 229.946 44.4402 234.222 44.4402C246.086 44.4402 255.739 34.7554 255.739 22.8509C255.739 10.9464 246.086 1.26154 234.221 1.26154C222.356 1.26154 212.704 10.9464 212.704 22.8509C212.704 27.2883 214.04 31.5549 216.568 35.1894C216.686 35.359 216.714 35.576 216.641 35.7697L213.703 43.7161L221.702 40.7376C221.773 40.7111 221.847 40.6979 221.921 40.6979Z" fill="#D1F4F5"/>
<path d="M234.002 36.1496C241.206 36.1496 247.046 30.2897 247.046 23.0611C247.046 15.8326 241.206 9.97266 234.002 9.97266C226.797 9.97266 220.957 15.8326 220.957 23.0611C220.957 30.2897 226.797 36.1496 234.002 36.1496Z" fill="#F0BF6C"/>
<path d="M229.418 16.6484C228.814 16.6484 228.311 17.7296 228.189 19.1696L229.104 19.7234L228.172 20.1202C228.228 21.7514 228.762 23.035 229.418 23.035C230.113 23.035 230.675 21.605 230.675 19.8414C230.675 18.0778 230.112 16.6484 229.418 16.6484Z" fill="#402C49"/>
<path d="M237.642 16.6484C237.039 16.6484 236.536 17.7296 236.414 19.1696L237.328 19.7234L236.396 20.1202C236.453 21.7514 236.986 23.035 237.642 23.035C238.337 23.035 238.9 21.605 238.9 19.8414C238.9 18.0778 238.337 16.6484 237.642 16.6484Z" fill="#402C49"/>
<path d="M240.678 24.748C236.361 26.53 231.415 26.7312 226.969 25.3063C227.065 27.5291 228.737 29.617 230.675 30.6956C232.614 31.7742 235.112 31.7641 237.042 30.6691C238.973 29.5741 240.601 26.9715 240.678 24.748Z" fill="#852D70"/>
</g>
<defs>
<clipPath id="clip0_2303_51360">
<rect width="428" height="276" fill="white"/>
</clipPath>
</defs>
</svg>
