<svg width="100%" height="100%" viewBox="0 0 228 153" fill="none" xmlns="http://www.w3.org/2000/svg">
  <path d="M211.069 46.7344L197.772 28.293L162.279 54.1182L182.219 81.7728L206.817 63.8751L211.069 46.7344Z"
    fill="white" />
  <path
    d="M182.219 82.237C182.076 82.237 181.934 82.1704 181.844 82.0451L161.904 54.3902C161.832 54.2904 161.803 54.1659 161.822 54.0444C161.841 53.9228 161.908 53.8137 162.008 53.7415L197.501 27.9163C197.6 27.844 197.725 27.8147 197.845 27.8339C197.966 27.8534 198.074 27.9204 198.146 28.0201L211.443 46.4615C211.523 46.5725 211.55 46.7133 211.517 46.8465L207.265 63.9871C207.239 64.0932 207.176 64.1869 207.088 64.2509L182.49 82.1486C182.408 82.2084 182.313 82.237 182.219 82.237ZM162.925 54.2216L182.322 81.124L206.409 63.5981L210.568 46.8314L197.669 28.9412L162.925 54.2216Z"
    fill="#1D7C4E" />
  <path d="M200.174 54.6619L206.817 63.8751L211.069 46.7344L200.174 54.6619Z" fill="white" />
  <path
    d="M206.817 64.3393C206.67 64.3393 206.53 64.2693 206.442 64.1474L199.799 54.9338C199.727 54.8341 199.697 54.7096 199.717 54.588C199.736 54.4665 199.803 54.3574 199.902 54.2851L210.797 46.358C210.955 46.2433 211.167 46.2399 211.327 46.3494C211.488 46.4585 211.564 46.6571 211.517 46.8464L207.265 63.9871C207.222 64.1624 207.081 64.2964 206.905 64.331C206.875 64.3366 206.846 64.3393 206.817 64.3393ZM200.819 54.7652L206.608 62.7939L210.313 47.857L200.819 54.7652Z"
    fill="#1D7C4E" />
  <path d="M161.409 66.5805L183.256 75.2489L203.474 23.8249L170.71 10.8262L156.699 46.4651L161.409 66.5805Z"
    fill="white" />
  <path
    d="M183.256 75.7126C183.198 75.7126 183.141 75.7017 183.086 75.6803L161.238 67.0119C161.098 66.9558 160.993 66.8343 160.958 66.6861L156.248 46.5706C156.227 46.4785 156.234 46.3818 156.269 46.2937L170.28 10.6552C170.325 10.5408 170.413 10.4486 170.526 10.3997C170.639 10.3508 170.766 10.3485 170.88 10.3937L203.643 23.3921C203.757 23.4372 203.849 23.5264 203.898 23.6393C203.946 23.7521 203.949 23.8801 203.904 23.9948L183.686 75.4191C183.641 75.5339 183.553 75.6257 183.44 75.6746C183.381 75.6998 183.318 75.7126 183.256 75.7126ZM161.803 66.2368L182.996 74.6455L202.874 24.0855L170.97 11.4284L157.182 46.4995L161.803 66.2368Z"
    fill="#1D7C4E" />
  <path d="M167.613 50.7953L156.697 46.4648L161.407 66.5806L167.613 50.7953Z" fill="white" />
  <path
    d="M161.407 67.0445C161.396 67.0445 161.384 67.0441 161.373 67.0433C161.172 67.0287 161.003 66.8842 160.956 66.6863L156.247 46.5709C156.207 46.4027 156.264 46.2262 156.395 46.1129C156.525 45.9997 156.707 45.9692 156.867 46.0324L167.782 50.3628C167.896 50.408 167.988 50.4972 168.037 50.61C168.085 50.7233 168.087 50.8508 168.043 50.9656L161.837 66.7506C161.767 66.929 161.596 67.0445 161.407 67.0445ZM157.35 47.2229L161.519 65.0303L167.013 51.0563L157.35 47.2229Z"
    fill="#1D7C4E" />
  <path
    d="M226.689 74.7916H215.777C215.486 74.7736 214.912 74.6588 214.571 74.0568C214.212 73.425 213.964 72.7402 212.894 72.7402H207.654C206.93 72.7402 206.344 73.3295 206.344 74.0568V76.1085V79.8426V88.2622C206.344 88.9895 206.931 89.5788 207.654 89.5788H226.689C227.413 89.5788 228 88.9895 228 88.2622V76.1085C227.999 75.3812 227.413 74.7916 226.689 74.7916Z"
    fill="#27A568" />
  <path
    d="M204.625 81.0641L201.095 75.743L204.296 73.5998L200.057 71.4942L195.818 69.3887L196.123 74.1292L196.427 78.869L199.709 76.6709L203.24 81.9916L204.625 81.0641Z"
    fill="#1D7C4E" />
  <path
    d="M17.9665 48.18C17.7819 48.18 17.6073 48.0683 17.5362 47.885C17.4425 47.6461 17.5598 47.3767 17.7976 47.2826C21.717 45.7369 27.8556 43.2295 29.559 42.331C28.8875 41.7139 27.4256 40.178 23.9883 36.2581C21.2855 33.1758 18.6463 30.0802 18.6197 30.0494C18.5063 29.9162 18.477 29.7299 18.5445 29.5682C18.6119 29.4064 18.7643 29.2965 18.9381 29.2837L32.0326 28.3438L24.3816 3.91489C24.3194 3.71622 24.3965 3.50025 24.57 3.38662C24.743 3.27298 24.9715 3.28879 25.1273 3.42612L44.6496 20.5781L52.7999 3.14581C52.886 2.96257 53.0782 2.85684 53.2801 2.8828C53.4801 2.90951 53.6397 3.06378 53.6741 3.2632L56.5653 19.8741C56.6095 20.127 56.4413 20.3674 56.1896 20.4118C55.9372 20.4554 55.6986 20.2869 55.6544 20.0344L53.0153 4.87135L45.2256 21.5312C45.1638 21.6632 45.044 21.7584 44.902 21.7885C44.7604 21.8183 44.6121 21.7795 44.5027 21.6836L25.758 5.2145L33.0907 28.6264C33.1331 28.7618 33.1113 28.9097 33.0319 29.0271C32.9525 29.1445 32.8237 29.219 32.6825 29.2291L19.9198 30.1453C23.8336 34.7211 29.6826 41.4073 30.4602 41.884C30.6539 41.9532 30.7838 42.1222 30.7947 42.3246C30.8179 42.7558 30.8284 42.953 24.3355 45.6418C21.2724 46.9101 18.1662 48.136 18.1351 48.148C18.0796 48.1699 18.0223 48.18 17.9665 48.18Z"
    fill="#1D7C4E" />
  <path
    d="M179.439 147.922H49.1048C42.156 147.922 36.5234 143.007 36.5234 136.945V39.6693C36.5234 33.6077 42.156 28.6934 49.1048 28.6934H179.439C186.387 28.6934 192.019 33.6077 192.019 39.6693V136.945C192.019 143.007 186.387 147.922 179.439 147.922Z"
    fill="#27A568" />
  <mask id="mask0_1156_141327" style="mask-type:luminance" maskUnits="userSpaceOnUse" x="36" y="28" width="157"
    height="120">
    <path
      d="M179.439 147.922H49.1048C42.156 147.922 36.5234 143.007 36.5234 136.945V39.6693C36.5234 33.6077 42.156 28.6934 49.1048 28.6934H179.439C186.387 28.6934 192.019 33.6077 192.019 39.6693V136.945C192.019 143.007 186.387 147.922 179.439 147.922Z"
      fill="white" />
  </mask>
  <g mask="url(#mask0_1156_141327)">
    <path d="M193.849 27.4277H36.5176V50.7704H193.849V27.4277Z" fill="#1D7C4E" />
  </g>
  <path
    d="M84.3563 35.3396C84.3563 38.2308 82.0221 40.5753 79.1443 40.5753C76.2651 40.5753 73.9316 38.2308 73.9316 35.3396C73.9316 32.448 76.2651 30.1035 79.1443 30.1035C82.0221 30.1035 84.3563 32.448 84.3563 35.3396Z"
    fill="#145234" />
  <path
    d="M79.127 37.6438C77.7007 37.6438 76.5332 36.471 76.5332 35.0382V25.1349C76.5332 23.7021 77.7007 22.5293 79.127 22.5293C80.5537 22.5293 81.7212 23.7017 81.7212 25.1349V35.0382C81.7212 36.4706 80.5541 37.6438 79.127 37.6438Z"
    fill="#27A568" />
  <path
    d="M158.341 35.3396C158.341 38.2308 156.007 40.5753 153.128 40.5753C150.25 40.5753 147.916 38.2308 147.916 35.3396C147.916 32.448 150.25 30.1035 153.128 30.1035C156.007 30.1035 158.341 32.448 158.341 35.3396Z"
    fill="#145234" />
  <path
    d="M153.113 37.6438C151.687 37.6438 150.52 36.471 150.52 35.0382V25.1349C150.52 23.7021 151.686 22.5293 153.113 22.5293C154.54 22.5293 155.707 23.7017 155.707 25.1349V35.0382C155.707 36.4706 154.54 37.6438 153.113 37.6438Z"
    fill="#27A568" />
  <path
    d="M182.72 35.3396C182.72 38.2308 180.386 40.5753 177.508 40.5753C174.629 40.5753 172.295 38.2308 172.295 35.3396C172.295 32.448 174.629 30.1035 177.508 30.1035C180.386 30.1035 182.72 32.448 182.72 35.3396Z"
    fill="#145234" />
  <path
    d="M177.492 37.6438C176.065 37.6438 174.898 36.471 174.898 35.0382V25.1349C174.898 23.7021 176.065 22.5293 177.492 22.5293C178.919 22.5293 180.086 23.7017 180.086 25.1349V35.0382C180.086 36.4706 178.919 37.6438 177.492 37.6438Z"
    fill="#27A568" />
  <path
    d="M59.7997 35.3396C59.7997 38.2308 57.4662 40.5753 54.5877 40.5753C51.7092 40.5753 49.375 38.2308 49.375 35.3396C49.375 32.448 51.7089 30.1035 54.5877 30.1035C57.4662 30.1035 59.7997 32.448 59.7997 35.3396Z"
    fill="#145234" />
  <path
    d="M54.5723 37.6438C53.1453 37.6438 51.9785 36.471 51.9785 35.0382V25.1349C51.9785 23.7021 53.1453 22.5293 54.5723 22.5293C55.9986 22.5293 57.1654 23.7017 57.1654 25.1349V35.0382C57.1654 36.4706 55.9986 37.6438 54.5723 37.6438Z"
    fill="#27A568" />
  <path
    d="M183.883 134.556C183.883 137.416 181.574 139.735 178.727 139.735H49.7417C46.8943 139.735 44.5859 137.416 44.5859 134.556V63.1144C44.5859 60.2541 46.8943 57.9355 49.7417 57.9355H178.727C181.574 57.9355 183.883 60.2545 183.883 63.1144V134.556Z"
    fill="#D3D8ED" />
  <path d="M64.6106 57.2344H63.3926V142.299H64.6106V57.2344Z" fill="#27A568" />
  <path d="M106.13 57.2344H104.912V142.299H106.13V57.2344Z" fill="#27A568" />
  <path d="M125.558 57.2344H124.34V142.299H125.558V57.2344Z" fill="#27A568" />
  <path d="M145.245 57.2344H144.027V142.299H145.245V57.2344Z" fill="#27A568" />
  <path d="M165.173 57.2344H163.955V142.299H165.173V57.2344Z" fill="#27A568" />
  <path d="M85.4126 57.2344H84.1953V142.299H85.4126V57.2344Z" fill="#27A568" />
  <path d="M186.029 56.4961H44.5859V57.7716H186.029V56.4961Z" fill="#27A568" />
  <path d="M186.029 99.9863H44.5859V101.262H186.029V99.9863Z" fill="#27A568" />
  <path d="M186.029 120.338H44.5859V121.613H186.029V120.338Z" fill="#27A568" />
  <path d="M186.029 140.959H44.5859V142.235H186.029V140.959Z" fill="#27A568" />
  <path d="M186.029 78.2852H44.5859V79.5603H186.029V78.2852Z" fill="#27A568" />
  <path d="M63.392 57.9355H49.7417C46.8943 57.9355 44.5859 60.2545 44.5859 63.1144V78.2854H63.392V57.9355Z"
    fill="#FFE1E1" />
  <path d="M163.953 79.5605H145.244V99.9849H163.953V79.5605Z" fill="#FFE1E1" />
  <path d="M84.1942 79.4805H64.6094V99.9048H84.1942V79.4805Z" fill="#FFE1E1" />
  <path d="M124.412 121.611H106.201V139.735H124.412V121.611Z" fill="#FFE1E1" />
  <path d="M183.883 101.26H165.172V120.336H183.883V101.26Z" fill="#FFE1E1" />
  <path d="M124.34 79.5605H106.129V99.7651H124.34V79.5605Z" fill="#EDEFF7" />
  <path
    d="M142.803 14.4007C139.398 13.1861 135.535 12.1898 130.983 12.4498C126.827 12.6872 122.733 13.3028 118.776 14.0662C116.823 14.4429 114.839 14.8255 112.838 15.0697C110.805 15.3177 108.748 15.5216 106.79 15.9615C103.075 16.7964 99.8889 18.3044 96.8014 19.8633C95.0354 20.7554 93.284 21.6389 91.5449 22.537L96.3977 31.9624C97.7862 31.1723 98.9117 30.5402 100.298 29.7297C100.791 29.4411 101.364 28.9971 101.796 28.8936C102.059 28.8304 102.494 28.8936 102.85 28.8936C107.989 28.8936 112.517 28.8379 117.111 28.8379C122.722 28.8379 127.153 28.7823 132.704 28.7823C134.926 28.7823 137.512 28.7266 140.195 28.7266C141.128 28.7266 142.12 28.6028 142.858 28.7266C143.052 28.7589 143.273 28.8421 143.503 28.9422L147.991 16.5883C146.334 15.791 144.643 15.0573 142.803 14.4007Z"
    fill="#999999" />
  <path
    d="M143.907 27.6647C143.673 27.5646 143.446 27.4814 143.249 27.4491C142.493 27.3253 141.479 27.4491 140.525 27.4491C137.782 27.4491 135.137 27.5048 132.865 27.5048C127.189 27.5048 122.659 27.5605 116.921 27.5605C112.224 27.5605 107.594 27.6161 102.339 27.6161C101.975 27.6161 101.53 27.5529 101.261 27.6161C100.819 27.72 100.233 28.1636 99.7285 28.4522C98.3115 29.2627 97.1609 29.8948 95.7409 30.685L95.6934 30.5943L96.3979 31.9631C97.7864 31.173 98.9119 30.5408 100.298 29.7304C100.791 29.4418 101.364 28.9978 101.796 28.8943C102.059 28.8311 102.495 28.8943 102.85 28.8943C107.989 28.8943 112.518 28.8386 117.111 28.8386C122.722 28.8386 127.153 28.7829 132.704 28.7829C134.926 28.7829 137.513 28.7273 140.195 28.7273C141.128 28.7273 142.12 28.6035 142.859 28.7273C143.052 28.7596 143.273 28.8428 143.503 28.9429L146.638 20.3125L143.907 27.6647Z"
    fill="#D3D8ED" />
  <path fill-rule="evenodd" clip-rule="evenodd"
    d="M122.161 13.3984C122.209 13.3882 122.214 13.4202 122.217 13.4541C122.235 15.8847 121.57 17.6536 120.497 19.1398C119.508 20.509 117.986 21.7597 115.78 21.7597C113.809 21.7597 112.375 20.792 111.285 19.6974C110.149 18.5562 109.336 17.2235 108.844 15.5724C113.206 14.7703 117.751 14.1517 122.161 13.3984Z"
    fill="#EAC1C1" />
  <path fill-rule="evenodd" clip-rule="evenodd"
    d="M120.884 8.65981C121.756 8.62256 122.283 9.2227 122.382 9.99743C122.605 11.7557 121.16 13.6137 119.885 13.8997C119.651 15.8728 119.096 17.3522 117.998 18.3591C117.253 19.0428 115.893 19.5929 114.502 19.2509C113.18 18.9262 111.949 17.8933 111.062 16.7984C110.214 15.7516 109.545 14.3903 108.953 13.0636C108.355 11.7211 107.805 10.1118 107.621 8.49275C107.425 6.7657 107.56 4.94759 108.454 3.69878C109.051 2.8646 110.046 2.04924 110.951 1.52472C111.915 0.965974 113.27 0.435066 114.724 0.354169C116.689 0.244677 118.237 1.21167 119.33 2.41685C120.738 3.97006 121.395 6.12266 120.884 8.65981Z"
    fill="#FFE1E1" />
  <path fill-rule="evenodd" clip-rule="evenodd"
    d="M121.299 8.6948C120.71 8.61804 120.219 8.86487 119.941 9.16174C119.949 9.90374 120.289 11.2888 119.664 11.3915C119.073 11.4886 118.873 10.5182 118.665 9.9978C118.166 8.74898 117.99 7.7643 117.278 6.59751C117.021 6.17647 116.608 5.54472 116.001 5.53833C115.491 5.53306 114.715 6.0888 114.282 6.3187C113.071 6.96098 112.388 7.2857 110.797 7.83391C109.776 8.18609 108.952 8.38815 107.604 8.31741C105.897 8.22786 105.327 7.66346 105.403 6.87594C105.483 6.04365 106.608 6.03236 107.544 5.91685C106.925 5.77801 106.231 5.45329 106.419 4.85804C106.587 4.32488 107.341 4.1439 108.011 4.0329C108.966 2.00371 110.806 0.239034 113.616 0.0192958C114.702 -0.0657398 115.852 0.128788 116.612 0.632605C117.324 0.504676 118.058 0.429423 118.61 0.632605C120.849 1.45813 121.466 5.43636 121.299 8.6948Z"
    fill="#1D7C4E" />
  <path fill-rule="evenodd" clip-rule="evenodd"
    d="M108.652 10.8586C108.729 11.0422 109.36 10.9485 110.058 10.6494C110.758 10.3506 111.261 9.96004 111.184 9.7768C111.106 9.59432 110.477 9.68801 109.778 9.98601C109.079 10.2844 108.575 10.6746 108.652 10.8586Z"
    fill="#1D7C4E" />
  <path fill-rule="evenodd" clip-rule="evenodd"
    d="M109.922 12.6514C110.018 12.9788 110.289 13.1872 110.527 13.1172C110.765 13.0465 110.881 12.7248 110.785 12.3971C110.69 12.0697 110.419 11.8613 110.181 11.9316C109.942 12.0016 109.827 12.3244 109.922 12.6514Z"
    fill="#1D7C4E" />
  <path fill-rule="evenodd" clip-rule="evenodd"
    d="M112.591 9.41246C112.615 9.6085 113.246 9.69353 114 9.59909C114.753 9.50578 115.345 9.26873 115.32 9.07082C115.296 8.87365 114.664 8.7905 113.91 8.88419C113.157 8.97825 112.567 9.21417 112.591 9.41246Z"
    fill="#1D7C4E" />
  <path fill-rule="evenodd" clip-rule="evenodd"
    d="M114.407 11.5729C114.502 11.8995 114.773 12.1095 115.011 12.0391C115.249 11.9691 115.365 11.6459 115.269 11.3186C115.173 10.9916 114.902 10.7831 114.664 10.8535C114.427 10.9231 114.311 11.2456 114.407 11.5729Z"
    fill="#1D7C4E" />
  <path
    d="M113.466 15.3486C113.452 15.3527 113.439 15.3553 113.425 15.3561C113.063 15.3948 112.783 15.326 112.567 15.1454C112.133 14.783 112.076 14.0662 112.005 13.1587C111.96 12.5811 111.908 11.9261 111.75 11.2582C111.722 11.1352 111.798 11.0091 111.919 10.9831C112.042 10.953 112.165 11.029 112.194 11.1528C112.36 11.8538 112.413 12.5277 112.46 13.1218C112.52 13.8909 112.574 14.5546 112.858 14.7932C112.975 14.8906 113.145 14.926 113.377 14.9008C113.502 14.8876 113.614 14.9787 113.628 15.1047C113.641 15.2169 113.57 15.3181 113.466 15.3486Z"
    fill="#EAC1C1" />
  <path
    d="M113.974 16.4286C113.758 16.4922 113.503 16.5332 113.204 16.5388C113.078 16.5403 112.974 16.4403 112.971 16.3142C112.969 16.1874 113.07 16.0821 113.195 16.0805C114.532 16.0538 114.722 15.2129 114.729 15.1775C114.755 15.0545 114.875 14.9743 114.997 14.9984C115.121 15.0229 115.2 15.141 115.177 15.2644C115.169 15.3066 115.001 16.1257 113.974 16.4286Z"
    fill="#EAC1C1" />
  <path fill-rule="evenodd" clip-rule="evenodd"
    d="M93.1387 5.70495C93.2346 5.25456 93.6338 4.92834 93.9155 4.5344C94.4208 3.82815 94.8444 2.97629 95.3029 2.1376C95.5894 1.61309 95.9879 0.85153 96.579 0.799606C97.7109 0.700272 97.4243 2.20495 97.1341 3.02934C96.8385 3.86841 96.4232 4.61605 95.9134 5.37045C95.6939 5.69517 95.3295 6.25279 95.0811 6.31826C94.4511 6.48382 93.4443 5.99881 93.1387 5.70495Z"
    fill="#FFE1E1" />
  <path
    d="M87.646 24.6018C89.3064 22.5779 90.9001 20.3854 92.7512 18.5259C93.3984 17.8758 93.9374 17.0849 94.6378 16.6307C96.1537 15.6472 98.1632 15.1418 99.0767 13.6206C99.5692 12.8007 99.5026 12.1366 99.7427 11.1677C99.9884 10.1748 101.492 9.41284 100.963 8.10194C100.657 8.07034 100.482 8.35667 100.297 8.54781C98.9977 9.89597 97.8504 11.3453 96.5795 12.6728C95.1435 11.4774 93.5336 10.4558 92.0848 9.2725C92.2586 8.7224 92.2422 7.98116 92.4733 7.48863C93.028 7.16843 93.7954 7.01417 94.5262 6.81964C95.203 6.63978 96.1507 6.49078 96.3016 5.81614C95.9967 5.4523 95.3401 5.41166 94.7479 5.37027C93.2201 5.26379 91.2151 5.20998 90.1978 5.70477C88.994 6.29023 88.7434 7.48412 88.3666 8.77056C88.1423 9.53626 87.9295 10.3038 87.6452 11.0003C87.0388 12.4862 86.1755 13.2996 85.0926 14.3449C84.1042 15.2987 83.0723 16.239 82.0407 17.1876C78.9615 20.0197 76.0066 22.9636 73.2735 26.1622C72.4266 27.1529 71.5528 28.2629 70.7763 29.5625C70.0085 30.8478 69.2189 32.3137 69.2227 33.9663C69.2275 36.1625 70.4868 37.9562 71.8303 38.8716C75.132 41.1206 80.474 39.535 83.6498 38.3144C88.1782 36.5738 91.9631 34.4927 95.9132 32.2385C96.0795 32.1437 96.2387 32.053 96.3971 31.9627L91.5444 22.5373C90.2383 23.2131 88.9374 23.8956 87.646 24.6018Z"
    fill="#FFE1E1" />
  <path fill-rule="evenodd" clip-rule="evenodd"
    d="M102.535 4.00336C102.414 3.91569 102.307 3.7855 102.192 3.65531C101.466 2.8407 100.732 2.01819 99.9928 1.19305C99.9352 1.12908 99.8891 1.05609 99.8265 1.00491C99.7325 0.927403 99.5565 0.854408 99.3936 0.864191C99.1471 0.879994 98.9381 1.01545 98.8048 1.16106C97.88 2.17171 96.9368 3.17972 96.0218 4.18133C94.9614 5.34097 93.9149 6.46186 92.8388 7.62301C92.3058 8.19832 91.7867 8.77701 91.2522 9.35156C90.9945 9.63 90.714 9.90956 90.4645 10.2192C90.2282 10.5123 90.0952 10.9793 90.4072 11.409C90.4645 11.488 90.5394 11.5572 90.6046 11.6336C91.511 12.6853 92.453 13.7237 93.3714 14.7724C93.4355 14.8454 93.4984 14.927 93.5677 14.9887C93.7089 15.1137 93.9116 15.2314 94.1382 15.2469C94.2206 15.2529 94.4573 15.143 94.5374 15.1238C94.4884 15.2183 94.1891 15.3131 94.0749 15.3165C93.755 15.3293 93.5329 15.1712 93.3576 14.976C92.8306 14.3916 92.2774 13.7362 91.7717 13.1578C91.2395 12.5491 90.7346 11.9632 90.1862 11.3397C90.0124 11.1418 89.7952 10.9383 89.7356 10.6252C89.6738 10.2952 89.7899 10.0255 89.9517 9.81775C90.1158 9.60592 90.3061 9.41553 90.4727 9.23116C91.5309 8.06173 92.6339 6.88967 93.6745 5.75223C94.7487 4.57866 95.8042 3.43633 96.8743 2.26502C97.3208 1.77738 97.7609 1.30028 98.21 0.8149C98.374 0.638057 98.562 0.383703 98.9025 0.349086C99.064 0.332907 99.1913 0.37693 99.3172 0.434874C99.5475 0.539852 99.7209 0.766739 99.9018 0.966158C100.799 1.95648 101.643 2.97014 102.535 4.00336Z"
    fill="#1D7C4E" />
  <path
    d="M95.7579 3.8269C95.7508 3.78626 95.762 3.74299 95.7928 3.71101L96.5722 2.89113C96.6232 2.8377 96.7078 2.83545 96.761 2.88662C96.8145 2.93779 96.8164 3.02283 96.7655 3.07663L95.986 3.89613C95.9351 3.94994 95.8504 3.95182 95.7973 3.90065C95.7755 3.87995 95.7624 3.85362 95.7579 3.8269Z"
    fill="white" />
  <path
    d="M97.0021 2.47611C96.9949 2.43585 97.0062 2.39145 97.0369 2.35947L97.4264 1.94972C97.4774 1.89591 97.562 1.89441 97.6156 1.9452C97.6688 1.99638 97.671 2.08141 97.6201 2.13522L97.2302 2.54497C97.1792 2.59877 97.0946 2.60103 97.0414 2.54986C97.0197 2.52916 97.0066 2.5032 97.0021 2.47611Z"
    fill="white" />
  <path
    d="M97.6602 1.73778C97.6531 1.69714 97.6647 1.65387 97.6954 1.62151L98.085 1.21139C98.1359 1.15758 98.2206 1.15608 98.2741 1.20725C98.3277 1.25842 98.3296 1.34383 98.2782 1.39726L97.8887 1.80739C97.8374 1.86119 97.7531 1.86307 97.6996 1.8119C97.6782 1.79083 97.6655 1.76525 97.6602 1.73778Z"
    fill="white" />
  <path fill-rule="evenodd" clip-rule="evenodd"
    d="M103.248 5.01601C103.301 5.22032 103.3 5.46075 103.249 5.64286C103.199 5.82761 103.11 5.95441 102.993 6.08159C101.362 7.85228 99.7473 9.59965 98.1086 11.3568C97.061 12.4803 96.0219 13.6181 94.9668 14.7496C94.8473 14.8782 94.7413 15.0216 94.6065 15.1149C94.4338 15.2338 94.2177 15.2884 94.0241 15.2598C93.6562 15.2052 93.4615 14.8843 93.2292 14.6235C92.4266 13.7205 91.6348 12.8099 90.8085 11.8907C90.6946 11.7632 90.5781 11.6337 90.4572 11.5017C90.3343 11.3681 90.2305 11.2078 90.1935 10.9963C90.1193 10.5727 90.3167 10.3228 90.5901 10.0312C92.4524 8.04154 94.2952 6.01687 96.165 3.99784C97.0093 3.08653 97.9108 2.10373 98.7734 1.16796C98.8319 1.10475 98.8937 1.04003 98.9592 0.992624C99.1986 0.820672 99.5544 0.819919 99.7679 0.94973C99.8683 1.01068 99.9522 1.11453 100.038 1.21086C100.977 2.258 101.882 3.26601 102.817 4.32293C102.986 4.5137 103.188 4.72741 103.244 4.99983C103.246 5.0051 103.246 5.01112 103.248 5.01601Z"
    fill="white" />
  <path
    d="M100.78 2.57908C100.776 2.555 100.784 2.52904 100.804 2.51136C100.834 2.48351 100.88 2.48652 100.907 2.517L101.838 3.56452C101.865 3.59462 101.863 3.64165 101.832 3.66874C101.803 3.69583 101.756 3.69282 101.729 3.66272L100.798 2.61558C100.788 2.60505 100.783 2.59263 100.78 2.57908Z"
    fill="#1D7C4E" />
  <path
    d="M101.957 3.86548C101.916 3.87338 101.876 3.84516 101.868 3.80339C101.861 3.76125 101.889 3.72099 101.93 3.71422C101.972 3.70632 102.012 3.73454 102.019 3.77668C102.027 3.81844 101.999 3.85833 101.957 3.86548Z"
    fill="#1D7C4E" />
  <path
    d="M96.1065 12.9922C96.2915 12.7883 96.475 12.596 96.6601 12.4C97.4249 11.5906 98.119 10.8133 98.8572 10.0284C99.2322 9.62991 99.5887 9.22656 99.9472 8.83976C100.672 8.05788 101.407 7.25644 102.136 6.46855C102.225 6.37298 102.314 6.27026 102.409 6.16942C102.498 6.07422 102.601 5.9843 102.69 5.87706C102.862 5.66974 102.983 5.37023 102.892 5.03762C102.891 5.03235 102.89 5.02671 102.889 5.02182C102.849 4.82277 102.719 4.69861 102.612 4.57745C102.487 4.43597 102.395 4.32422 102.267 4.17899C102.21 4.11389 102.141 4.0123 102.078 4.00327C102.012 3.99386 101.939 4.06121 101.842 4.03676C101.784 4.02246 101.731 3.94871 101.674 3.88287C101.351 3.513 101.053 3.18753 100.738 2.82745C100.68 2.76085 100.608 2.69049 100.595 2.6269C100.57 2.51289 100.68 2.45382 100.655 2.35636C100.647 2.32476 100.587 2.26832 100.549 2.22505C100.433 2.09072 100.319 1.96091 100.215 1.84126C100.054 1.65539 99.9127 1.4665 99.7401 1.36491C99.588 1.27574 99.355 1.25956 99.1756 1.37319C99.0805 1.43377 98.9782 1.56584 98.8857 1.66705C98.616 1.9643 98.295 2.32288 98.0564 2.58438C97.6733 3.00203 97.2931 3.39786 96.929 3.79632C96.1997 4.594 95.4652 5.41012 94.7015 6.23263C93.6662 7.34712 92.5527 8.55869 91.4863 9.72285L95.2611 13.9144C95.5476 13.6018 95.8286 13.297 96.1065 12.9922Z"
    fill="#27A568" />
  <path
    d="M94.462 14.763C94.5564 14.6926 94.6493 14.5809 94.7455 14.4789C94.8373 14.3811 94.9298 14.275 95.0175 14.1794C95.0999 14.0899 95.1811 14.0011 95.262 13.9123L91.4873 9.7207C91.3464 9.87535 91.2063 10.0277 91.067 10.1797C90.9771 10.2779 90.8779 10.3795 90.7883 10.4883C90.6239 10.6892 90.5378 11.0467 90.7254 11.3608C90.77 11.4353 90.8397 11.4982 90.9041 11.5719C91.7008 12.4821 92.5244 13.4024 93.3084 14.3066C93.4338 14.4522 93.5488 14.6125 93.6818 14.7261C93.8668 14.8842 94.2084 14.9523 94.462 14.763Z"
    fill="white" />
  <path
    d="M92.4562 12.6056C92.4053 12.314 92.5985 12.0363 92.8884 11.9848C92.9094 11.9814 92.93 11.9795 92.951 11.9784C92.8738 11.9547 92.7903 11.9479 92.706 11.9634C92.4157 12.0145 92.2228 12.2926 92.2738 12.5834C92.3214 12.8536 92.5626 13.0398 92.8285 13.0244C92.6416 12.9676 92.4925 12.8115 92.4562 12.6056Z"
    fill="#1D7C4E" />
  <path
    d="M72.0936 37.0142C70.7793 36.1191 69.5489 34.3819 69.4912 32.2511C69.3242 32.7989 69.2212 33.3709 69.2227 33.9669C69.2275 36.1631 70.4868 37.9568 71.8303 38.8722C75.132 41.1211 80.474 39.5356 83.6498 38.315C88.1782 36.5744 91.9631 34.4933 95.9132 32.2391C96.0795 32.1442 96.2387 32.0536 96.3971 31.9633L95.7169 30.6426C91.9317 32.7959 88.2655 34.7837 83.9131 36.457C80.7373 37.6776 75.3954 39.2631 72.0936 37.0142Z"
    fill="#EAC1C1" />
  <path fill-rule="evenodd" clip-rule="evenodd"
    d="M87.7848 24.4726C87.832 24.4625 87.8372 24.4944 87.8402 24.5283C88.0788 25.7786 87.5889 26.7979 86.9525 27.4827C85.9131 28.6002 84.2531 29.6207 83.0684 30.3815C84.5759 28.347 86.2191 26.4491 87.7848 24.4726Z"
    fill="#EAC1C1" />
  <path
    d="M94.7482 5.37027C93.2203 5.26379 91.2153 5.20998 90.198 5.70477C89.4291 6.07877 89.0496 6.70111 88.7773 7.43709C88.8826 7.448 88.9878 7.45929 89.0931 7.47133C90.0452 7.58119 90.7359 7.73847 91.6487 7.94617C92.2783 7.00551 93.7957 7.01379 94.5264 6.81964C95.2032 6.63978 96.3157 6.43961 96.3018 5.81614C96.2906 5.29878 95.3407 5.41166 94.7482 5.37027Z"
    fill="#FFE1E1" />
  <path
    d="M101.115 8.20603C101.065 8.05063 100.537 8.66732 99.8238 9.22231C98.3061 10.4034 95.8613 12.375 95.8613 14.0934C96.0213 14.1777 96.1827 14.2605 96.3419 14.3463C96.7599 14.5717 97.1726 14.8023 97.582 15.036C98.1847 14.6604 98.7162 14.2198 99.0761 13.6208C99.5687 12.801 99.502 12.1368 99.7421 11.168C99.9882 10.1746 101.55 9.55079 101.115 8.20603Z"
    fill="#FFE1E1" />
  <path fill-rule="evenodd" clip-rule="evenodd"
    d="M154.856 67.6849C155.279 68.2459 151.161 74.4147 149.766 75.5401C148.454 76.5989 147.266 77.2265 145.128 77.7691C144.307 77.9776 142.639 78.3997 142.396 77.8413C142.155 77.2886 142.997 76.5218 143.272 76.3792C143.824 76.0929 144.453 76.071 144.895 75.945C147.21 75.2835 149.062 73.4537 150.593 71.9491C151.232 71.3203 154.308 66.9583 154.856 67.6849Z"
    fill="#FFE1E1" />
  <path fill-rule="evenodd" clip-rule="evenodd"
    d="M154.379 68.8178C154.7 69.4435 149.861 74.5645 148.295 75.4329C146.821 76.2497 145.544 76.6636 143.345 76.8303C142.5 76.8943 140.786 77.023 140.641 76.4311C140.499 75.8449 141.459 75.2346 141.754 75.1413C142.346 74.9539 142.97 75.0408 143.427 74.9926C145.82 74.7398 147.958 73.2558 149.723 72.0371C150.46 71.528 153.963 68.0077 154.379 68.8178Z"
    fill="#FFE1E1" />
  <path
    d="M169.16 29.674C168.482 28.4718 166.771 27.3614 165.442 26.4968C161.165 23.7143 156.707 21.1888 152.291 18.8041C150.836 18.0188 149.426 17.2795 147.99 16.5879L143.502 28.9417C143.788 29.0667 144.086 29.2191 144.356 29.3395C147.909 30.9243 151.242 32.6306 154.289 34.5236C151.584 42.9749 150.176 52.7269 147.019 60.7228C145.723 61.3809 144.542 61.9528 143.301 62.9526C142.306 63.7548 141.003 65.0111 140.638 66.2415C140.387 67.0832 140.353 68.1951 140.249 69.363C140.184 70.1016 139.878 72.2181 140.582 72.3174C140.902 72.3625 141.142 72.0344 141.359 71.7601C142.02 70.9248 142.326 69.9127 142.413 68.6944C144.135 67.3206 146.047 66.1384 147.907 64.9039C148.847 66.3939 149.783 67.4576 150.687 68.9844C149.02 70.0135 147.289 71.4813 145.521 72.5966C144.948 72.9578 144.298 73.602 143.745 73.7114C143.377 73.7844 142.931 73.734 142.525 73.7671C142.124 73.8002 141.744 73.8469 141.359 73.9342C140.724 74.0783 139.554 74.2461 139.861 75.1048C139.999 75.4916 144.16 76.0495 145.576 75.8294C146.414 75.6992 147.012 75.3331 147.685 74.9377C148.785 74.2916 149.747 73.6046 150.737 72.9311C151.25 72.5823 151.809 72.2361 152.235 71.8719C153.114 71.1216 153.786 70.1445 154.344 69.1963C154.795 68.4313 155.153 67.5562 155.398 66.6877C155.631 65.8652 155.826 65.2858 156.12 64.6254C157.248 62.089 158.461 59.407 159.56 56.9884C162.252 51.0657 164.667 45.477 167.273 39.4297C167.852 38.0857 168.524 36.572 169.049 34.9146C169.567 33.2767 169.965 31.1026 169.16 29.674Z"
    fill="#FFE1E1" />
  <path
    d="M155.939 33.6459C152.892 31.7533 149.559 30.0466 146.006 28.4618C145.861 28.3971 144.886 28.0088 143.973 27.6445L143.502 28.9411C143.788 29.0661 144.086 29.2184 144.356 29.3388C147.909 30.9237 151.242 32.63 154.289 34.523C151.587 42.9664 150.179 52.7078 147.028 60.6996C147.563 60.4035 148.105 60.1315 148.67 59.8452C151.826 51.8492 153.234 42.0972 155.939 33.6459Z"
    fill="#EAC1C1" />
  <path d="M122.486 84.9957L130.058 82.9988L156.05 65.4036L153.184 61.1289L127.19 78.7249L122.486 84.9957Z"
    fill="#27A568" />
  <path d="M130.058 82.999L127.189 78.7266L122.486 84.9959L130.058 82.999Z" fill="white" />
  <path d="M154.616 60.1333L151.781 62.0547L154.66 66.3405L157.495 64.4192L154.616 60.1333Z" fill="#F05757" />
  <path d="M152.137 61.8235L151.193 62.4629L154.071 66.749L155.015 66.1096L152.137 61.8235Z" fill="white" />
  <path d="M125.708 84.1451L124.475 82.3086L122.486 84.9951L125.708 84.1451Z" fill="#145234" />
  <path d="M151.206 62.4513L127.199 78.7168L128.618 80.8303L152.625 64.5649L151.206 62.4513Z" fill="#145234" />
  <path d="M129.773 82.5745L130.058 82.9985L130.609 82.0078L129.488 82.1504L129.773 82.5745Z" fill="white" />
  <path d="M129.203 81.7264L129.488 82.1505L130.039 81.1602L128.918 81.3024L129.203 81.7264Z" fill="white" />
  <path d="M128.61 80.8456L128.895 81.2696L129.447 80.2793L128.326 80.4215L128.61 80.8456Z" fill="white" />
  <path d="M128.042 79.9967L128.327 80.4204L128.878 79.4297L127.758 79.5727L128.042 79.9967Z" fill="white" />
  <path d="M127.472 79.1483L127.756 79.5727L128.308 78.582L127.188 78.7246L127.472 79.1483Z" fill="white" />
  <path
    d="M140.582 72.3177C140.902 72.3629 141.142 72.0348 141.359 71.7605C142.021 70.9252 142.327 69.4984 142.414 68.28C142.456 68.2469 141.048 68.1201 140.388 67.6855C140.335 68.2134 140.301 68.7816 140.249 69.3637C140.184 70.1019 139.878 72.2188 140.582 72.3177Z"
    fill="#FFE1E1" />
  <path
    d="M152.523 70.794C152.371 70.7395 152.219 70.6853 152.064 70.6386C151.719 70.5344 151.371 70.4328 151.019 70.3519C150.836 70.3286 150.622 70.303 150.507 70.2974C150.131 70.2797 149.702 70.0216 149.345 69.9414C148.073 70.738 146.799 71.7001 145.524 72.5041C144.952 72.8654 144.301 73.5095 143.748 73.619C143.38 73.692 142.932 73.7334 142.525 73.7669C142.124 73.8 141.745 73.8466 141.36 73.9339C140.724 74.078 139.897 74.1928 139.861 75.1045C140.134 75.4108 140.641 75.416 141.082 75.4947C142.405 75.7306 144.16 76.0493 145.577 75.8292C146.414 75.699 147.012 75.3329 147.685 74.9374C148.786 74.2914 149.747 73.6043 150.737 72.9308C151.25 72.582 151.809 72.2359 152.236 71.8716C152.536 71.6147 152.811 71.3302 153.067 71.0303C152.786 70.911 152.51 70.7955 152.523 70.794Z"
    fill="#FFE1E1" />
  <path
    d="M109.071 35.3396C109.071 38.2308 106.738 40.5753 103.86 40.5753C100.981 40.5753 98.6465 38.2308 98.6465 35.3396C98.6465 32.448 100.98 30.1035 103.86 30.1035C106.738 30.1035 109.071 32.448 109.071 35.3396Z"
    fill="#145234" />
  <path
    d="M103.844 37.6438C102.417 37.6438 101.25 36.471 101.25 35.0382V25.1349C101.25 23.7021 102.417 22.5293 103.844 22.5293C105.27 22.5293 106.437 23.7017 106.437 25.1349V35.0382C106.437 36.4706 105.27 37.6438 103.844 37.6438Z"
    fill="#27A568" />
  <path
    d="M133.786 35.3396C133.786 38.2308 131.452 40.5753 128.574 40.5753C125.695 40.5753 123.361 38.2308 123.361 35.3396C123.361 32.448 125.695 30.1035 128.574 30.1035C131.452 30.1035 133.786 32.448 133.786 35.3396Z"
    fill="#145234" />
  <path
    d="M128.557 37.6438C127.13 37.6438 125.963 36.471 125.963 35.0382V25.1349C125.963 23.7021 127.13 22.5293 128.557 22.5293C129.983 22.5293 131.151 23.7017 131.151 25.1349V35.0382C131.151 36.4706 129.983 37.6438 128.557 37.6438Z"
    fill="#27A568" />
  <path
    d="M206.715 95.1953H180.439C178.539 95.1953 176.998 96.7429 176.998 98.6524V103.771C176.998 105.681 178.538 107.229 180.439 107.229H180.69L177.436 111.706L185.071 107.229H206.714C208.614 107.229 210.155 105.681 210.155 103.771V98.6524C210.155 96.7433 208.614 95.1953 206.715 95.1953Z"
    fill="#1D7C4E" />
  <path
    d="M203.831 105.463C201.519 105.463 199.639 103.574 199.639 101.252C199.639 98.9302 201.519 97.041 203.831 97.041C206.142 97.041 208.023 98.9299 208.023 101.252C208.023 103.574 206.142 105.463 203.831 105.463ZM203.831 97.9704C202.029 97.9704 200.564 99.4423 200.564 101.252C200.564 103.062 202.029 104.534 203.831 104.534C205.633 104.534 207.098 103.062 207.098 101.252C207.098 99.4423 205.633 97.9704 203.831 97.9704Z"
    fill="white" />
  <path
    d="M198.613 99.5364H180.136C179.881 99.5364 179.674 99.3283 179.674 99.0721C179.674 98.8159 179.881 98.6074 180.136 98.6074H198.613C198.869 98.6074 199.075 98.8155 199.075 99.0721C199.075 99.3287 198.869 99.5364 198.613 99.5364Z"
    fill="white" />
  <path
    d="M198.613 101.736H180.136C179.881 101.736 179.674 101.528 179.674 101.271C179.674 101.015 179.881 100.807 180.136 100.807H198.613C198.869 100.807 199.075 101.015 199.075 101.271C199.076 101.528 198.869 101.736 198.613 101.736Z"
    fill="white" />
  <path
    d="M198.613 103.898H180.136C179.881 103.898 179.674 103.69 179.674 103.433C179.674 103.176 179.881 102.969 180.136 102.969H198.613C198.869 102.969 199.075 103.177 199.075 103.433C199.076 103.69 198.869 103.898 198.613 103.898Z"
    fill="white" />
  <path
    d="M148.02 96.373C148.02 97.007 148.53 97.5202 149.161 97.5202H160.109C160.74 97.5202 161.251 97.007 161.251 96.373L161.02 87.2332C161.02 86.5999 160.509 86.0859 159.879 86.0859H149.392C148.762 86.0859 148.251 86.5999 148.251 87.2332L148.02 96.373Z"
    fill="white" />
  <path
    d="M160.108 97.9844H149.16C148.276 97.9844 147.557 97.2612 147.557 96.3724L147.787 87.221C147.787 86.3439 148.507 85.6211 149.391 85.6211H159.878C160.762 85.6211 161.482 86.3443 161.482 87.233L161.713 96.3608C161.713 97.2612 160.993 97.9844 160.108 97.9844ZM149.391 86.5501C149.017 86.5501 148.712 86.8564 148.712 87.2326L148.481 96.3841C148.482 96.7487 148.786 97.055 149.16 97.055H160.109C160.484 97.055 160.789 96.7487 160.789 96.3724L160.557 87.2447C160.557 86.8564 160.253 86.5501 159.878 86.5501H149.391Z"
    fill="#27A568" />
  <path
    d="M157.942 86.5507H151.369C151.146 86.5507 150.955 86.3908 150.914 86.1703C150.869 85.925 150.848 85.6966 150.848 85.4716C150.848 83.3622 152.556 81.6465 154.656 81.6465C156.755 81.6465 158.463 83.3622 158.463 85.4716C158.463 85.703 158.441 85.9389 158.396 86.1726C158.355 86.3919 158.164 86.5507 157.942 86.5507ZM151.777 85.6217H157.534C157.537 85.5713 157.538 85.5216 157.538 85.472C157.538 83.8751 156.245 82.5759 154.657 82.5759C153.066 82.5759 151.773 83.8751 151.773 85.472C151.772 85.5212 151.774 85.5709 151.777 85.6217Z"
    fill="#27A568" />
  <path
    d="M157.585 89.7661C156.982 89.7661 156.49 89.2732 156.49 88.6678C156.49 88.0616 156.982 87.5684 157.585 87.5684C158.188 87.5684 158.678 88.0616 158.678 88.6678C158.678 89.2732 158.188 89.7661 157.585 89.7661ZM157.585 88.4974C157.491 88.4974 157.415 88.5737 157.415 88.6678C157.415 88.7611 157.492 88.8371 157.585 88.8371C157.678 88.8371 157.753 88.7611 157.753 88.6678C157.753 88.5737 157.678 88.4974 157.585 88.4974Z"
    fill="#27A568" />
  <path
    d="M151.686 89.7661C151.082 89.7661 150.592 89.2732 150.592 88.6678C150.592 88.0616 151.082 87.5684 151.686 87.5684C152.289 87.5684 152.78 88.0616 152.78 88.6678C152.78 89.2732 152.289 89.7661 151.686 89.7661ZM151.686 88.4974C151.593 88.4974 151.517 88.5737 151.517 88.6678C151.517 88.7611 151.593 88.8371 151.686 88.8371C151.779 88.8371 151.855 88.7611 151.855 88.6678C151.856 88.5737 151.779 88.4974 151.686 88.4974Z"
    fill="#27A568" />
  <path
    d="M214.981 139.666C214.981 140.12 212.876 140.489 210.28 140.489C207.683 140.489 205.578 140.12 205.578 139.666C205.578 139.212 207.683 138.844 210.28 138.844C212.876 138.844 214.981 139.212 214.981 139.666Z"
    fill="#1D7C4E" />
  <path
    d="M208.112 137.948C208.086 137.85 208.065 137.768 208.054 137.71C207.327 133.975 205.915 130.428 203.856 127.169C201.42 123.312 198.157 120.145 194.42 118.012C192.033 116.648 189.323 115.731 186.79 115.427C184.315 115.131 181.836 115.391 179.737 116.16C175.593 117.678 172.628 120.536 170.688 124.889C170.938 119.012 169.473 114.636 166.221 111.523C164.87 110.231 163.382 109.353 161.674 108.841C161.505 104.819 160.177 101.03 157.616 97.2587C157.014 96.373 156.374 95.5565 155.709 94.8281C155.565 94.6862 155.43 94.6667 155.342 94.6757C155.21 94.6885 155.095 94.7777 155.045 94.9086C154.986 95.0617 155.023 95.2348 155.145 95.3722C155.63 95.9046 156.087 96.4671 156.541 97.0906C159.279 100.852 160.699 104.626 160.88 108.623C159.532 108.44 158.365 108.402 157.317 108.506C154.971 108.738 153.295 109.682 152.194 111.392C151.681 112.189 151.17 113.42 151.653 114.753C152.137 116.09 153.3 117.097 154.763 117.448C155.276 117.571 155.778 117.609 156.256 117.561C157.513 117.437 158.619 116.747 159.638 115.454C160.758 114.031 161.523 111.816 161.651 109.644C164.031 110.405 165.466 111.757 166.453 112.854C169.336 116.06 170.475 120.82 169.749 126.62C169.674 127.225 169.517 128.117 169.284 129.272L169.27 129.342C169.21 129.629 169.128 130.023 169.46 130.121C169.504 130.134 169.549 130.138 169.591 130.134C169.976 130.096 170.099 129.413 170.206 128.81C170.231 128.674 170.253 128.548 170.276 128.449C171.22 124.41 173.377 120.983 176.351 118.799C178.406 117.289 180.748 116.394 183.311 116.141C185.03 115.97 186.837 116.099 188.683 116.521C191.44 117.151 194.018 118.395 196.564 120.321C198.499 121.785 200.288 123.593 201.882 125.695C204.734 129.453 206.663 133.9 207.464 138.555C207.475 138.617 207.483 138.683 207.49 138.748C207.526 139.041 207.574 139.442 207.961 139.404L207.988 139.4C208.078 139.387 208.152 139.34 208.202 139.264C208.366 139.014 208.253 138.499 208.112 137.948ZM160.874 109.451C160.873 109.452 160.873 109.453 160.873 109.453L160.869 109.479C160.784 112.478 159.388 115.369 157.549 116.354C156.634 116.843 155.552 116.933 154.546 116.594C153.563 116.261 152.767 115.535 152.418 114.65C152.094 113.831 152.168 112.937 152.632 112.066C153.479 110.473 155.203 109.471 157.485 109.245C158.557 109.139 159.732 109.212 160.874 109.451Z"
    fill="#1D7C4E" />
  <path
    d="M211.808 125.008C209.489 124.967 207.587 126.822 207.537 129.15C207.452 133.085 211.18 139.363 211.633 139.379C212.452 139.408 215.868 132.855 215.931 129.3C215.971 126.971 214.125 125.049 211.808 125.008ZM213.672 129.639C213.652 130.733 212.753 131.604 211.664 131.586C210.575 131.566 209.707 130.663 209.726 129.57C209.746 128.475 210.646 127.603 211.734 127.623C212.825 127.642 213.692 128.545 213.672 129.639Z"
    fill="#27A568" />
  <path
    d="M34.0738 67.9197L27.1898 72.7844V73.5527C27.1898 75.9593 25.2485 77.9095 22.8536 77.9095H9.34443C6.94914 77.9095 5.00781 75.9593 5.00781 73.5527V66.8978C5.00781 64.4912 6.94914 62.541 9.34443 62.541H22.8536C25.2485 62.541 27.1898 64.4912 27.1898 66.8978V67.9197H34.0738Z"
    fill="white" />
  <path fill-rule="evenodd" clip-rule="evenodd"
    d="M11.3786 69.5326C11.3216 69.3527 11.2823 69.1657 11.2594 68.9716C11.2542 68.9358 11.2418 68.9034 11.2366 68.8673L11.2497 68.8654C11.2415 68.7725 11.2261 68.6833 11.2246 68.5885C11.2239 67.0071 12.3554 65.724 13.7536 65.7225C14.9114 65.7225 15.8792 66.6045 16.1819 67.8029C16.4826 66.6037 17.4486 65.7191 18.6056 65.7188C20.0046 65.7172 21.1387 66.9988 21.1406 68.5791C21.1406 68.6754 21.1238 68.7642 21.1163 68.8575L21.1286 68.8583C21.1238 68.894 21.1118 68.9272 21.1065 68.9633C21.0833 69.1574 21.0444 69.3444 20.9893 69.5239C20.9852 69.5386 20.9814 69.5525 20.9777 69.5676C20.9556 69.6334 20.9342 69.7011 20.908 69.7658C19.9027 72.8508 16.3935 75.3293 16.198 75.4117L16.1983 75.42C16.1983 75.42 16.1894 75.4162 16.189 75.4154C16.1875 75.4162 16.1777 75.4203 16.1777 75.4203V75.4113C15.9826 75.3297 12.4696 72.8568 11.4587 69.7734C11.4317 69.7083 11.4119 69.6424 11.3894 69.5755C11.3864 69.5615 11.3819 69.5461 11.3786 69.5326Z"
    fill="#27A568" />
  <path
    d="M29.3973 48.7383H55.6732C57.5733 48.7383 59.1139 50.2859 59.1139 52.1954V57.3145C59.1139 59.2236 57.5737 60.7716 55.6732 60.7716H55.4223L58.676 65.2491L51.0407 60.7716H29.3973C27.4972 60.7716 25.957 59.2236 25.957 57.3145V52.1954C25.957 50.2862 27.4976 48.7383 29.3973 48.7383Z"
    fill="#1D7C4E" />
  <path
    d="M32.2799 59.0059C29.9685 59.0059 28.0879 57.1167 28.0879 54.7948C28.0879 52.4732 29.9685 50.584 32.2799 50.584C34.5917 50.584 36.472 52.4728 36.472 54.7948C36.472 57.1167 34.5913 59.0059 32.2799 59.0059ZM32.2799 51.5134C30.4783 51.5134 29.0127 52.9857 29.0127 54.7948C29.0127 56.6046 30.4783 58.0769 32.2799 58.0769C34.0815 58.0769 35.5472 56.6046 35.5472 54.7948C35.5472 52.9853 34.0815 51.5134 32.2799 51.5134Z"
    fill="white" />
  <path
    d="M55.9742 53.0794H37.4974C37.2419 53.0794 37.0352 52.8713 37.0352 52.6151C37.0352 52.3585 37.2423 52.1504 37.4974 52.1504H55.9742C56.2297 52.1504 56.4364 52.3585 56.4364 52.6151C56.4368 52.8713 56.2297 53.0794 55.9742 53.0794Z"
    fill="white" />
  <path
    d="M55.9742 55.279H37.4974C37.2419 55.279 37.0352 55.0709 37.0352 54.8143C37.0352 54.5577 37.2423 54.3496 37.4974 54.3496H55.9742C56.2297 54.3496 56.4364 54.5577 56.4364 54.8143C56.4368 55.0709 56.2297 55.279 55.9742 55.279Z"
    fill="white" />
  <path
    d="M55.9742 57.4407H37.4974C37.2419 57.4407 37.0352 57.2326 37.0352 56.976C37.0352 56.7194 37.2423 56.5117 37.4974 56.5117H55.9742C56.2297 56.5117 56.4364 56.7198 56.4364 56.976C56.4364 57.2323 56.2297 57.4407 55.9742 57.4407Z"
    fill="white" />
  <path
    d="M82.3485 115.219H108.624C110.524 115.219 112.065 116.766 112.065 118.676V123.795C112.065 125.704 110.525 127.252 108.624 127.252H108.373L111.627 131.73L103.992 127.252H82.3485C80.4484 127.252 78.9082 125.704 78.9082 123.795V118.676C78.9082 116.766 80.4484 115.219 82.3485 115.219Z"
    fill="#1D7C4E" />
  <path
    d="M85.2311 125.486C82.9197 125.486 81.0391 123.597 81.0391 121.275C81.0391 118.954 82.9197 117.064 85.2311 117.064C87.5429 117.064 89.4231 118.953 89.4231 121.275C89.4235 123.597 87.5429 125.486 85.2311 125.486ZM85.2311 117.994C83.4295 117.994 81.9638 119.466 81.9638 121.275C81.9638 123.085 83.4295 124.557 85.2311 124.557C87.0327 124.557 88.4984 123.085 88.4984 121.275C88.4987 119.466 87.0327 117.994 85.2311 117.994Z"
    fill="white" />
  <path
    d="M108.926 119.56H90.4489C90.1935 119.56 89.9863 119.352 89.9863 119.096C89.9863 118.839 90.1935 118.631 90.4489 118.631H108.926C109.181 118.631 109.388 118.839 109.388 119.096C109.388 119.352 109.181 119.56 108.926 119.56Z"
    fill="white" />
  <path
    d="M108.926 121.759H90.4489C90.1935 121.759 89.9863 121.551 89.9863 121.295C89.9863 121.038 90.1935 120.83 90.4489 120.83H108.926C109.181 120.83 109.388 121.038 109.388 121.295C109.388 121.552 109.181 121.759 108.926 121.759Z"
    fill="white" />
  <path
    d="M108.926 123.921H90.4489C90.1935 123.921 89.9863 123.713 89.9863 123.456C89.9863 123.2 90.1935 122.992 90.4489 122.992H108.926C109.181 122.992 109.388 123.2 109.388 123.456C109.388 123.713 109.181 123.921 108.926 123.921Z"
    fill="white" />
  <path fill-rule="evenodd" clip-rule="evenodd"
    d="M48.2793 89.5176V110.913C48.2793 112.721 46.7556 114.187 44.876 114.187H11.9638C10.0842 114.187 8.56055 112.721 8.56055 110.913V89.5176H48.2793Z"
    fill="white" />
  <path fill-rule="evenodd" clip-rule="evenodd"
    d="M8.56055 86.7618C8.56055 84.9538 10.0842 83.4883 11.9638 83.4883H44.8757C46.7552 83.4883 48.2789 84.9538 48.2789 86.7618V89.5172H8.56055V86.7618Z"
    fill="#1D7C4E" />
  <path
    d="M14.6797 86.4043C14.6797 87.1271 15.2632 87.7134 15.9824 87.7134C16.7019 87.7134 17.2855 87.1271 17.2855 86.4043C17.2855 85.6815 16.7019 85.0957 15.9824 85.0957C15.2632 85.0953 14.6797 85.6815 14.6797 86.4043Z"
    fill="white" />
  <path d="M12.8005 87.7027H11.3105L12.0552 86.4072L12.8005 85.1113L13.5455 86.4072L14.2898 87.7027H12.8005Z"
    fill="white" />
  <path
    d="M29.2738 99.7906H12.6192C11.7963 99.7906 11.127 99.1182 11.127 98.2912V92.9268C11.127 92.1001 11.7963 91.4277 12.6192 91.4277H29.2735C30.0964 91.4277 30.7661 92.1001 30.7661 92.9268V98.2912C30.7661 99.1182 30.0967 99.7906 29.2738 99.7906ZM12.6192 92.3571C12.3064 92.3571 12.0517 92.6126 12.0517 92.9271V98.2915C12.0517 98.6061 12.3061 98.8619 12.6192 98.8619H29.2735C29.5866 98.8619 29.8413 98.6061 29.8413 98.2915V92.9271C29.8413 92.613 29.5866 92.3571 29.2735 92.3571H12.6192Z"
    fill="#27A568" />
  <path
    d="M25.2903 94.8454H15.7555C15.5001 94.8454 15.293 94.6373 15.293 94.3807C15.293 94.1241 15.5001 93.916 15.7555 93.916H25.2903C25.5457 93.916 25.7528 94.1241 25.7528 94.3807C25.7528 94.6373 25.5457 94.8454 25.2903 94.8454Z"
    fill="#27A568" />
  <path
    d="M25.2905 97.2243H20.5231C20.2677 97.2243 20.0605 97.0162 20.0605 96.7596C20.0605 96.503 20.2677 96.2949 20.5231 96.2949H25.2905C25.5459 96.2949 25.7531 96.503 25.7531 96.7596C25.7531 97.0162 25.5459 97.2243 25.2905 97.2243Z"
    fill="#27A568" />
  <path
    d="M74.8037 96.5826C74.1733 96.5826 73.6602 96.0671 73.6602 95.4339C73.6602 94.8006 74.1733 94.2852 74.8037 94.2852C75.4344 94.2852 75.9472 94.8006 75.9472 95.4339C75.9472 96.0671 75.4344 96.5826 74.8037 96.5826ZM74.8037 95.2142C74.6831 95.2142 74.5853 95.3127 74.5853 95.4339C74.5853 95.555 74.6834 95.6533 74.8037 95.6533C74.9243 95.6533 75.0224 95.5547 75.0224 95.4339C75.0224 95.3127 74.9243 95.2142 74.8037 95.2142Z"
    fill="#27A568" />
  <path
    d="M74.8034 95.8981H28.0794C27.8239 95.8981 27.6172 95.69 27.6172 95.4334C27.6172 95.1768 27.8243 94.9688 28.0794 94.9688H74.8034C75.0589 94.9688 75.266 95.1768 75.266 95.4334C75.266 95.69 75.0589 95.8981 74.8034 95.8981Z"
    fill="#27A568" />
  <path
    d="M113.177 88.0807C112.831 88.1164 112.524 88.11 112.225 88.104C111.659 88.0923 111.123 88.0806 110.606 88.4054C110.102 88.7203 109.933 89.4698 109.912 89.8626C109.902 90.0669 109.914 90.2502 109.925 90.4112C109.947 90.7303 109.953 90.903 109.848 91.0633C109.705 91.28 109.344 91.4757 108.929 91.4313C108.867 91.4249 108.804 91.4125 108.744 91.3955C108.305 91.2695 107.669 90.5783 107.25 90.1211C107.185 90.0511 107.124 89.9845 107.068 89.9247C106.946 89.7945 106.826 89.6527 106.698 89.5022C106.23 88.954 105.747 88.3854 105.099 88.2485C104.994 88.2263 104.884 88.2093 104.765 88.1962C104.431 88.1612 104.084 88.1649 103.681 88.1706C103.408 88.174 103.124 88.1789 102.811 88.1698H102.799L96.3322 88.2221C96.2352 88.2233 96.1389 88.2187 96.0441 88.2093C94.7864 88.0746 93.8309 87.0139 93.8208 85.7414L93.7384 75.524C93.7268 74.1465 94.8343 73.0136 96.2071 73.0019L112.882 72.8653C112.979 72.8646 113.076 72.8694 113.17 72.88C114.428 73.0143 115.384 74.0746 115.393 75.3468L115.476 85.5634C115.487 86.8303 114.551 87.9057 113.301 88.0645L113.177 88.0807Z"
    fill="#1D7C4E" />
  <path
    d="M109.291 79.8182C109.784 79.8709 110.159 80.287 110.165 80.7867C110.167 81.0478 110.068 81.2962 109.885 81.4843C109.701 81.6713 109.457 81.7767 109.195 81.7789C109.157 81.7793 109.119 81.777 109.08 81.7729C108.588 81.7202 108.212 81.3045 108.207 80.8051C108.205 80.5429 108.304 80.2949 108.486 80.1068C108.67 79.9198 108.915 79.8148 109.176 79.8126C109.214 79.8122 109.253 79.8133 109.291 79.8182Z"
    fill="white" />
  <path
    d="M104.929 79.8613C105.423 79.9139 105.799 80.3297 105.802 80.8294C105.805 81.0913 105.706 81.34 105.523 81.527C105.34 81.7147 105.096 81.819 104.834 81.822C104.795 81.822 104.756 81.8201 104.718 81.8159C104.226 81.7629 103.85 81.3475 103.846 80.8478C103.843 80.5859 103.943 80.338 104.126 80.1502C104.308 79.9625 104.553 79.8582 104.815 79.8556C104.853 79.8549 104.891 79.8571 104.929 79.8613Z"
    fill="white" />
  <path
    d="M100.568 79.9041C101.062 79.9564 101.437 80.3733 101.441 80.8715C101.444 81.1342 101.345 81.3821 101.162 81.5691C100.979 81.7572 100.735 81.8615 100.473 81.8641C100.435 81.8645 100.396 81.863 100.358 81.8585C99.865 81.8058 99.4893 81.39 99.4844 80.8907C99.4822 80.6288 99.5814 80.3801 99.7653 80.1927C99.9474 80.0057 100.193 79.9008 100.453 79.8985C100.492 79.8981 100.53 79.8993 100.568 79.9041Z"
    fill="white" />
  <path
    d="M6.41419 135.452H29.7086C29.7086 135.452 30.6263 128.593 26.5856 120.485C23.1512 113.593 23.779 107.033 23.779 107.033H0.484583C0.484583 107.033 0.0235039 115.221 3.55819 121.764C7.31949 128.727 6.41419 135.452 6.41419 135.452Z"
    fill="white" />
  <path
    d="M20.0001 152.536H43.2945C43.2945 152.536 44.2122 145.678 40.1715 137.569C36.7372 130.677 37.3649 124.117 37.3649 124.117H14.0705C14.0705 124.117 13.6094 132.305 17.1441 138.848C20.9054 145.811 20.0001 152.536 20.0001 152.536Z"
    fill="white" />
  <path
    d="M29.7085 135.917H6.41443C6.28109 135.917 6.15449 135.859 6.06646 135.758C5.97882 135.657 5.93837 135.523 5.95597 135.391C5.96459 135.324 6.79198 128.723 3.15204 121.985C-0.404373 115.402 0.00426777 107.346 0.0233701 107.007C0.0372287 106.761 0.239864 106.568 0.485198 106.568H23.7796C23.91 106.568 24.0339 106.624 24.1216 106.72C24.2092 106.817 24.2519 106.947 24.2399 107.077C24.234 107.141 23.6695 113.594 26.9997 120.277C31.0572 128.42 30.2055 135.228 30.1673 135.514C30.1362 135.745 29.9403 135.917 29.7085 135.917ZM6.92495 134.988H29.2871C29.3998 133.417 29.5485 127.468 26.1723 120.693C23.2279 114.784 23.211 109.189 23.2863 107.498H0.933168C0.90208 109.268 0.995719 116.046 3.96445 121.542C7.19276 127.518 7.05904 133.247 6.92495 134.988Z"
    fill="#1D7C4E" />
  <path
    d="M43.2952 153.001H20.0004C19.867 153.001 19.7404 152.943 19.6524 152.842C19.5644 152.741 19.5243 152.607 19.5419 152.474C19.5505 152.408 20.3779 145.807 16.738 139.069C13.1816 132.486 13.5902 124.43 13.6093 124.091C13.6232 123.845 13.8258 123.652 14.0711 123.652H37.3656C37.4959 123.652 37.6199 123.708 37.7075 123.805C37.7952 123.901 37.8382 124.031 37.8259 124.161C37.8199 124.226 37.2554 130.678 40.5856 137.361C44.6436 145.504 43.7918 152.313 43.7536 152.598C43.7225 152.829 43.5266 153.001 43.2952 153.001ZM20.5109 152.072H42.8734C42.9861 150.502 43.1345 144.553 39.7586 137.777C36.8142 131.868 36.797 126.273 36.8726 124.582H14.5195C14.4884 126.352 14.582 133.13 17.5508 138.626C20.7791 144.602 20.645 150.331 20.5109 152.072Z"
    fill="#1D7C4E" />
</svg>