<svg width="282" height="182" viewBox="0 0 282 182" fill="none"
    xmlns="http://www.w3.org/2000/svg">
    <path d="M45.0347 176.11C23.0211 162.152 5.99461 137.849 1.32314 112.13C-3.34832 86.4106 4.46659 58.3566 22.9188 39.9133C41.371 21.4704 70.2821 13.8013 94.945 22.1755C109.328 27.059 121.831 36.8274 136.54 40.6092C156.715 45.7964 177.744 39.0731 198.023 34.3143C218.303 29.5555 241.467 27.2866 258.287 39.6188C268.948 47.4356 275.234 60.022 278.662 72.8235C288.415 109.239 276.323 150.71 248.568 176.111H45.0347V176.11Z" fill="#ADEBCD"/>
    <path d="M207.379 168.151H66.5996V86.4775C66.5996 83.1051 69.3222 80.3711 72.6806 80.3711H201.298C204.657 80.3711 207.379 83.1051 207.379 86.4775V168.151Z" fill="#D4CFBE"/>
    <path d="M68.627 168.15V86.4771C68.627 84.2322 70.4453 82.4062 72.6808 82.4062H201.298C203.533 82.4062 205.352 84.2322 205.352 86.4771V168.15H68.627Z" fill="#402C49"/>
    <path d="M199.271 162.045V88.5137L74.7082 88.5137L74.7082 162.045L199.271 162.045Z" fill="#2BB572"/>
    <path d="M205.371 176.109H68.6068C65.0823 176.109 61.6418 175.028 58.7461 173.01H215.232C212.337 175.028 208.896 176.109 205.371 176.109Z" fill="#D4CFBE"/>
    <path d="M215.232 168.15H58.7461V172.987H215.232V168.15Z" fill="#EFEFEF"/>
    <path d="M148.905 170.569H125.072C123.742 170.569 122.664 169.486 122.664 168.15H151.312C151.312 169.486 150.235 170.569 148.905 170.569Z" fill="#D4CFBE"/>
    <path d="M189.575 141.401C185.911 136.168 179.703 131.968 179.425 125.577C179.146 119.165 185.246 113.526 184.2 107.193C183.696 104.142 181.496 101.531 178.766 100.098C176.037 98.6654 172.84 98.3147 169.776 98.6308C163.068 99.323 157.09 102.98 151.137 106.163C145.185 109.346 138.553 112.206 131.897 111.114C127.298 110.36 123.229 107.796 118.948 105.944C114.668 104.093 109.595 102.979 105.453 105.125C98.0954 108.938 98.3087 119.984 92.4236 125.833C89.8265 128.413 86.2229 129.77 83.5964 132.32C79.2107 136.578 78.3508 143.536 79.9671 149.443C81.2287 154.055 83.7583 158.165 86.594 162.044H191.819C194.42 155.347 193.713 147.312 189.575 141.401Z" fill="#ADEBCD"/>
    <path d="M93.5299 106.245C95.5214 104.144 98.5725 102.597 98.983 99.7255C99.3475 97.175 97.148 94.7609 94.6371 94.2293C92.1261 93.6981 89.51 94.6677 87.3867 96.1147C81.9689 99.8079 77.973 108.231 80.631 114.715C85.0369 125.464 91.0674 108.843 93.5299 106.245Z" fill="#ADEBCD"/>
    <path d="M111.575 100.22C115.756 98.4382 114.917 91.9266 110.299 91.6974C107.046 91.536 103.806 94.6494 105.428 97.9465C106.499 100.124 109.354 101.167 111.575 100.22Z" fill="#ADEBCD"/>
    <path d="M184.445 126.311C184.61 127.987 185.153 129.713 186.396 130.845C187.64 131.976 189.705 132.298 190.995 131.221C192.027 130.359 192.313 128.911 192.535 127.582C193.004 124.768 196.277 114.762 190.795 114.992C185.935 115.197 184.07 122.487 184.445 126.311Z" fill="#ADEBCD"/>
    <path d="M160.932 116.272L159.518 113.611C158.08 110.906 156.936 108.054 156.105 105.104L155.338 102.381C153.293 95.1226 146.695 90.1113 139.183 90.1113H136.989H134.796C127.284 90.1113 120.686 95.1226 118.641 102.381L117.874 105.104C117.042 108.054 115.898 110.906 114.461 113.611L113.047 116.272C109.141 123.623 113.238 132.694 121.317 134.587L136.989 138.259L152.661 134.587C160.742 132.694 164.838 123.623 160.932 116.272Z" fill="#8C404C"/>
    <path d="M153.906 121.035L152.907 118.951C151.892 116.831 151.083 114.597 150.496 112.286L149.954 110.153C148.51 104.467 143.848 100.541 138.54 100.541H136.991H135.441C130.134 100.541 125.472 104.467 124.027 110.153L123.485 112.286C122.898 114.597 122.09 116.831 121.074 118.951L120.075 121.035C117.316 126.794 120.21 133.9 125.919 135.382L136.991 138.259L148.063 135.382C153.772 133.9 156.666 126.794 153.906 121.035Z" fill="#472948"/>
    <path d="M118.631 130.687C117.595 129.708 116.889 128.256 116.673 126.643C116.436 125.032 116.741 123.309 117.318 121.646C117.894 119.979 118.722 118.366 119.453 116.79C120.188 115.218 120.796 113.658 121.053 112.256C120.371 113.505 119.495 114.842 118.566 116.303C117.645 117.763 116.675 119.383 116.045 121.202C115.412 123 115.172 125.059 115.684 126.853C116.154 128.641 117.334 130.094 118.631 130.687Z" fill="#A64F5A"/>
    <path d="M155.26 130.687C156.296 129.708 157.002 128.256 157.218 126.643C157.455 125.032 157.15 123.309 156.573 121.646C155.997 119.979 155.169 118.366 154.438 116.79C153.703 115.218 153.096 113.658 152.838 112.256C153.52 113.505 154.396 114.842 155.326 116.303C156.247 117.763 157.216 119.383 157.847 121.202C158.48 123 158.72 125.059 158.207 126.853C157.738 128.641 156.557 130.094 155.26 130.687Z" fill="#A64F5A"/>
    <path d="M155.89 143.384L146.849 140.932L145.517 140.571C144.278 140.236 143.419 139.108 143.419 137.82V132.238C143.232 132.569 143.04 132.893 142.842 133.21C141.281 135.71 139.18 137.111 136.99 137.111C134.801 137.111 132.699 135.71 131.138 133.21C130.941 132.893 130.748 132.569 130.562 132.238V137.82C130.562 139.108 129.702 140.236 128.464 140.571L127.129 140.933L118.091 143.384C117.088 143.656 116.133 144.039 115.232 144.51C119.22 150.872 126.555 154.833 134.54 154.833H136.989H139.438C147.423 154.833 154.759 150.871 158.746 144.509C157.846 144.038 156.892 143.656 155.89 143.384Z" fill="#F0BF9C"/>
    <path d="M136.991 137.111C139.18 137.111 141.281 135.71 142.843 133.209C143.041 132.893 143.233 132.569 143.419 132.238V123.611H130.562V132.238C130.749 132.569 130.941 132.893 131.139 133.209C132.7 135.71 134.802 137.111 136.991 137.111Z" fill="#422C4F"/>
    <path d="M165.895 153.37C164.83 149.503 162.211 146.318 158.746 144.508C154.759 150.87 147.423 154.832 139.438 154.832H136.989H134.54C126.555 154.832 119.22 150.871 115.233 144.509C111.769 146.32 109.151 149.504 108.087 153.37L105.699 162.045H168.283L165.895 153.37Z" fill="#CC6164"/>
    <path d="M135.81 158.926C139.753 159.044 143.698 158.401 147.189 157.209C150.689 156.026 153.721 154.299 156.058 152.486C153.465 153.91 150.35 155.278 146.887 156.208C143.43 157.145 139.635 157.643 135.851 157.531C132.067 157.416 128.31 156.69 124.915 155.546C121.513 154.41 118.485 152.857 115.982 151.279C118.207 153.229 121.13 155.135 124.553 156.527C127.966 157.927 131.867 158.806 135.81 158.926Z" fill="#A34262"/>
    <path d="M113.254 152.002C114.118 153.977 115.282 156.475 116.308 159.032C116.718 160.041 117.106 161.057 117.471 162.044H118.355C118.075 160.921 117.711 159.768 117.255 158.646C116.203 156.023 114.69 153.604 113.254 152.002Z" fill="#A34262"/>
    <path d="M117.652 155.807C118.574 157.7 120.07 159.953 121.839 162.044H123.288C123.251 162.002 123.214 161.96 123.177 161.918C121.21 159.699 119.262 157.462 117.652 155.807Z" fill="#A34262"/>
    <path d="M155.286 161.765C156.297 160.585 157.236 159.208 158.006 157.74C158.775 156.271 159.373 154.714 159.768 153.209C160.165 151.704 160.359 150.254 160.384 148.998C159.565 151.373 158.442 154.365 156.953 157.183C156.055 158.911 155.028 160.56 154.025 162.044H155.039C155.121 161.952 155.204 161.86 155.286 161.765Z" fill="#A34262"/>
    <path d="M154.665 156.617C153.263 158.158 151.465 160.111 149.487 161.876C149.424 161.933 149.359 161.989 149.295 162.045H150.751C152.512 160.33 153.903 158.327 154.665 156.617Z" fill="#A34262"/>
    <path d="M136.945 95.2168C129.103 95.2168 122.746 101.601 122.746 109.475V115.327C122.746 121.149 125.075 126.727 129.209 130.809C131.273 132.847 134.051 133.988 136.945 133.988C139.839 133.988 142.618 132.847 144.681 130.809C148.816 126.727 151.144 121.149 151.144 115.327V109.475C151.144 101.6 144.787 95.2168 136.945 95.2168Z" fill="#F0BF9C"/>
    <path d="M139.027 121.34C137.683 121.02 136.255 121.058 134.93 121.448C135.281 122.194 136.095 122.678 136.917 122.696C137.738 122.714 138.643 122.07 139.027 121.34Z" fill="#EBA588"/>
    <path d="M141.084 124.598C138.399 125.196 135.586 125.207 132.896 124.63C133.157 126.495 135.06 128.056 136.933 128.158C138.806 128.259 140.624 126.424 141.084 124.598Z" fill="white"/>
    <path d="M138.629 128.783C137.503 128.845 136.378 128.906 135.252 128.967C135.641 129.449 136.349 129.79 136.967 129.786C137.586 129.782 138.246 129.271 138.629 128.783Z" fill="#EBA588"/>
    <path d="M132.953 117.97C132.975 117.524 132.81 116.982 132.444 116.526C132.084 116.069 131.524 115.7 130.888 115.572C130.252 115.444 129.594 115.568 129.086 115.85C128.574 116.129 128.214 116.565 128.062 116.985C128.836 116.549 129.813 116.317 130.704 116.496C131.594 116.676 132.406 117.268 132.953 117.97Z" fill="#422C4F"/>
    <path d="M140.529 117.948C140.543 117.473 140.762 116.913 141.188 116.461C141.607 116.007 142.23 115.662 142.915 115.58C143.599 115.497 144.286 115.684 144.8 116.025C145.32 116.364 145.665 116.855 145.791 117.313C145.007 116.786 143.992 116.459 143.033 116.574C142.076 116.69 141.166 117.25 140.529 117.948Z" fill="#422C4F"/>
    <path d="M151.974 105.768C151.532 99.6727 146.781 94.7841 140.724 94.1923C138.233 93.9489 135.724 93.9489 133.232 94.1923C127.175 94.7841 122.423 99.6727 121.981 105.768L121.477 112.733H136.978H152.48L151.974 105.768Z" fill="#8C404C"/>
    <path d="M147.286 105.767C147.112 102.279 145.966 99.1911 144.238 97.0723C145.225 99.2501 145.86 101.994 145.978 105.008L146.282 112.732H147.633L147.286 105.767Z" fill="#A64F5A"/>
    <path d="M129.717 97.0742C127.99 99.193 126.843 102.281 126.669 105.769L126.322 112.734H127.674L127.977 105.01C128.095 101.996 128.73 99.2521 129.717 97.0742Z" fill="#A64F5A"/>
    <path d="M138.346 112.733L139.027 103.371L140.338 112.733H138.346Z" fill="#A64F5A"/>
    <path d="M176.154 137.04L178.094 133.904C178.902 134.282 179.863 133.989 180.324 133.223L181.799 130.772C182.271 129.987 182.06 128.968 181.314 128.438L174.971 123.925L177.102 115.98C177.233 115.492 177.097 114.97 176.744 114.61C176.034 113.886 174.821 114.117 174.425 115.052L170.428 124.495L165.318 128.921L169.009 137.053L163.123 162.043H172.022L176.154 137.04Z" fill="#F0BF9C"/>
    <path d="M176.817 128.629H170.902C172.344 130.469 172.913 132.849 172.461 135.146L172.369 135.614L172.586 135.336C173.484 134.185 175.054 133.808 176.374 134.427L177.457 134.935L178.095 133.903L173.174 130.72L176.817 128.629Z" fill="#EBA588"/>
    <path d="M97.7378 137.04L95.7976 133.904C94.9903 134.282 94.0285 133.989 93.5679 133.223L92.0933 130.772C91.6207 129.987 91.8319 128.968 92.5775 128.438L98.9207 123.925L96.7896 115.98C96.6587 115.492 96.795 114.97 97.1483 114.61C97.8575 113.886 99.0711 114.117 99.4667 115.052L103.463 124.495L108.574 128.921L104.883 137.053L110.769 162.043H101.869L97.7378 137.04Z" fill="#F0BF9C"/>
    <path d="M97.0747 128.629H102.99C101.548 130.469 100.979 132.849 101.431 135.146L101.522 135.614L101.306 135.336C100.408 134.185 98.8376 133.808 97.5179 134.427L96.4348 134.935L95.7969 133.903L100.718 130.72L97.0747 128.629Z" fill="#EBA588"/>
    <path d="M171.334 71.7296V19.6345C171.334 17.3685 173.164 15.5312 175.421 15.5312H250.626C252.883 15.5312 254.712 17.3685 254.712 19.6345V71.7296C254.712 73.9961 252.883 75.8329 250.626 75.8329H175.421C173.164 75.8329 171.334 73.9957 171.334 71.7296Z" fill="#D4CFBE"/>
    <path d="M172.969 19.6338C172.969 18.2762 174.069 17.1719 175.421 17.1719H250.626C251.978 17.1719 253.078 18.2762 253.078 19.6338V71.7285C253.078 73.0861 251.978 74.1905 250.626 74.1905H175.421C174.069 74.1905 172.969 73.0861 172.969 71.7285V19.6338Z" fill="#402C49"/>
    <path d="M176.646 70.498L249.4 70.498V20.8654L176.646 20.8654V70.498Z" fill="#F5D896"/>
    <path d="M261.847 176.109H12.1328V181.999H261.847V176.109Z" fill="#1D7C4E"/>
    <path d="M81.3777 129.099H23.4077C21.12 129.099 19.2656 127.237 19.2656 124.94V48.3899C19.2656 46.0926 21.12 44.2305 23.4077 44.2305H81.3777C83.6653 44.2305 85.5198 46.0926 85.5198 48.3899V124.94C85.5198 127.237 83.6653 129.099 81.3777 129.099Z" fill="#A59B95"/>
    <path d="M23.4071 127.436C22.0365 127.436 20.9219 126.316 20.9219 124.94V48.3902C20.9219 47.0138 22.0365 45.8945 23.4071 45.8945H81.3771C82.7477 45.8945 83.8623 47.0138 83.8623 48.3902V124.94C83.8623 126.316 82.7477 127.436 81.3771 127.436H23.4071Z" fill="#402C49"/>
    <path d="M80.1348 123.691L80.1348 49.6367L24.6501 49.6367L24.6501 123.691L80.1348 123.691Z" fill="#2BB572"/>
    <mask id="mask0_1156_141017" style="mask-type:luminance" maskUnits="userSpaceOnUse" x="24" y="49" width="57" height="75">
        <path d="M80.1348 123.691L80.1348 49.6367L24.6501 49.6367L24.6501 123.691L80.1348 123.691Z" fill="white"/>
    </mask>
    <g mask="url(#mask0_1156_141017)">
        <path d="M24.6301 69.92C26.9265 70.7698 29.3513 71.6578 31.7628 71.239C34.8682 70.6995 37.2093 68.119 38.9042 65.4511C40.5992 62.7833 41.9541 59.821 44.2724 57.6776C46.5912 55.5343 50.3112 54.4499 52.9029 56.2505C55.1819 57.8336 55.7415 60.9282 56.0053 63.6984C56.2692 66.4685 56.557 69.5274 58.5763 71.4328C60.2824 73.0429 62.8108 73.3915 65.1515 73.3374C67.4918 73.2833 69.8631 72.9107 72.1541 73.3952C74.4451 73.8798 76.7183 75.5199 77.0095 77.8529C77.4133 81.0885 74.0504 83.5247 73.2087 86.6742C72.5174 89.2601 73.6316 92.0082 75.1812 94.1873C76.7303 96.3664 78.7223 98.212 80.1575 100.468C82.9551 104.867 83.3614 110.328 83.6886 115.537C84.0018 120.518 84.0498 126.213 80.4184 129.621C77.1578 132.682 72.1777 132.683 67.7179 132.501C58.1952 132.113 48.6721 131.725 39.1495 131.337C32.7661 131.077 25.9817 130.685 20.7743 126.969C16.2859 123.766 13.637 118.466 12.5079 113.054C11.3787 107.643 11.6061 102.05 11.8389 96.5258C12.1367 89.4552 12.1314 82.37 12.3575 75.319C12.575 68.5508 19.4745 67.8491 24.6301 69.92Z" fill="#ADEBCD"/>
        <path d="M26.3062 57.2754C25.4189 58.668 25.3166 60.6707 26.4408 61.8786C27.3504 62.8561 28.8391 63.1015 30.1442 62.8353C31.4498 62.5687 32.6204 61.869 33.7628 61.1811C34.679 60.6291 35.6043 60.0697 36.3644 59.3156C37.1241 58.5615 37.7135 57.5815 37.7926 56.5117C37.9136 54.8725 36.7293 53.2857 35.181 52.7533C33.5291 52.1851 31.6201 52.7387 30.2623 53.7586C28.9277 54.7614 27.2091 55.8583 26.3062 57.2754Z" fill="#ADEBCD"/>
        <path d="M61.6103 60.846C61.3212 62.0855 61.5991 63.4797 62.4607 64.4135C63.6689 65.7233 65.6426 65.8818 67.4192 65.9534C69.4852 66.037 71.5513 66.1206 73.6174 66.2042C74.8919 66.2557 76.3388 66.2403 77.2094 65.3041C78.3162 64.1132 77.8183 62.1446 76.9042 60.799C75.5571 58.8166 73.4393 57.3775 71.1061 56.8588C67.8649 56.1388 62.4996 57.0343 61.6103 60.846Z" fill="#ADEBCD"/>
        <path d="M82.2843 130.251L79.2084 122.061L72.0703 126.559L75.0481 133.986L82.2843 130.251Z" fill="#F2C9AD"/>
        <path d="M47.3557 103.724C48.5093 104.347 49.9081 104.726 51.3247 104.72C52.7413 104.714 54.1368 104.322 55.285 103.689C56.4389 103.06 57.3398 102.192 57.9173 101.334C57.0988 101.968 56.1047 102.58 54.9726 103.018C53.8439 103.459 52.5835 103.726 51.3205 103.732C50.0576 103.736 48.7947 103.481 47.6622 103.05C46.5265 102.621 45.527 102.018 44.7031 101.391C45.2884 102.245 46.1964 103.104 47.3557 103.724Z" fill="#E4E4E0"/>
        <path d="M55.1634 122.044C57.7729 120.144 60.0912 117.849 61.9129 115.433C63.7417 113.02 65.0667 110.494 65.8839 108.209C64.392 110.126 62.6399 112.238 60.6073 114.299C58.5798 116.364 56.2776 118.376 53.8143 120.171C51.346 121.96 48.7224 123.526 46.1357 124.815C43.5502 126.109 41.004 127.119 38.7246 127.943C41.1415 127.878 43.9457 127.405 46.8 126.415C49.6548 125.432 52.5505 123.939 55.1634 122.044Z" fill="#E4E4E0"/>
        <path d="M31.5156 123.23L32.3523 133.638L36.2186 113.465L31.5156 123.23Z" fill="#E4E4E0"/>
        <path d="M80.7682 121.077L74.5625 108.048C74.138 107.156 73.6148 106.328 73.0154 105.57C72.5611 104.995 72.0603 104.463 71.5197 103.977C69.7055 102.343 67.4464 101.226 64.974 100.816L51.03 98.5059L35.8505 101.021C32.0261 101.655 28.6846 103.973 26.7411 107.341L18.6094 121.428L29.3382 127.752L31.5157 123.231L36.2187 113.466L32.3525 133.638L30.8153 155.702H70.3881L69.7059 133.638L70.2734 124.353L71.2041 127.104L72.069 126.559L79.2071 122.061L80.7682 121.077ZM47.6625 103.05C48.7949 103.481 50.0579 103.737 51.3208 103.733C52.5837 103.726 53.8446 103.459 54.9729 103.018C56.1049 102.58 57.099 101.969 57.9175 101.334C57.3401 102.193 56.4392 103.06 55.2852 103.689C54.137 104.322 52.7415 104.714 51.3249 104.72C49.9083 104.726 48.5095 104.347 47.356 103.724C46.1966 103.105 45.2882 102.246 44.7034 101.392C45.5276 102.018 46.5267 102.622 47.6625 103.05ZM46.1353 124.814C48.722 123.525 51.3456 121.959 53.8139 120.171C56.2772 118.375 58.5794 116.363 60.607 114.298C62.6395 112.237 64.3916 110.125 65.8836 108.208C65.0663 110.493 63.7417 113.02 61.9126 115.433C60.0909 117.848 57.7725 120.144 55.163 122.043C52.5497 123.938 49.6544 125.432 46.7993 126.413C43.9449 127.403 41.1403 127.877 38.7238 127.942C41.0041 127.119 43.5498 126.108 46.1353 124.814ZM64.7992 147.024C58.6987 148.8 48.6081 150.052 42.2608 149.821C48.3613 148.045 58.4522 146.793 64.7992 147.024ZM44.0216 131.309C45.9986 131.188 48.08 130.964 50.1428 130.622C52.2051 130.275 54.2459 129.81 56.1554 129.28C58.0662 128.754 59.8436 128.163 61.4085 127.634C60.0892 128.627 58.4282 129.601 56.5419 130.397C54.6577 131.196 52.5518 131.815 50.4004 132.177C48.2486 132.535 46.0566 132.634 44.0162 132.491C41.975 132.352 40.0891 131.971 38.5209 131.461C40.1719 131.452 42.0441 131.432 44.0216 131.309ZM33.7695 152.743C43.0991 151.889 58.2406 151.699 67.5885 152.318C58.2584 153.172 43.1174 153.362 33.7695 152.743Z" fill="white"/>
        <path d="M79.2084 122.061L72.0703 126.559L72.9546 128.765L79.2084 122.061Z" fill="#402C49"/>
        <path d="M70.2734 124.353L71.0153 112.221L73.2483 125.817L71.2046 127.105L70.2734 124.353Z" fill="#E4E4E0"/>
        <path d="M47.2988 99.2702C49.5231 102.285 54.0152 102.285 56.2395 99.2702V88.1699H47.2988V99.2702Z" fill="#F2C9AD"/>
        <path d="M56.2396 88.1699V97.4047C55.9935 97.423 55.7454 97.4359 55.4944 97.4359C52.0726 97.4359 49.0605 95.6802 47.2988 93.0181V88.1699H56.2396Z" fill="#402C49"/>
        <path d="M55.1117 65.248C61.488 65.248 66.657 70.4386 66.657 76.8416V83.6339C66.657 90.0369 61.488 95.2275 55.1117 95.2275C48.7353 95.2275 43.5664 90.0369 43.5664 83.6339V76.8416C43.5664 70.4386 48.7353 65.248 55.1117 65.248Z" fill="#F2C9AD"/>
        <path d="M40.3937 77.9014C40.2562 77.4638 40.1332 77.0267 40.0433 76.5904C39.569 74.2819 39.4522 71.8619 40.0433 69.5805C41.0299 65.775 44.0127 62.6184 47.6453 61.1485C54.6028 58.3334 63.2792 61.2467 66.6426 68.0573C67.6591 70.1162 66.7847 70.8599 65.0243 72.3286C60.4663 76.1307 53.9939 73.9312 48.989 74.3738L49.0474 83.7658C49.0474 85.2249 47.8694 86.4078 46.4163 86.4078C44.6915 86.4078 42.9643 86.4053 41.2412 86.4083C41.2283 85.0544 41.6931 83.7096 41.6007 82.3707C41.4972 80.8716 40.8597 79.3826 40.3937 77.9014Z" fill="#EBA25D"/>
        <path d="M43.5667 88.1707C45.5203 88.1707 47.104 86.5803 47.104 84.6186C47.104 82.6568 45.5203 81.0664 43.5667 81.0664C41.613 81.0664 40.0293 82.6568 40.0293 84.6186C40.0293 86.5803 41.613 88.1707 43.5667 88.1707Z" fill="#F2C9AD"/>
        <path d="M41.7832 84.6179C41.7832 85.6066 42.5814 86.4077 43.5655 86.4077C44.5501 86.4077 45.3479 85.6062 45.3479 84.6179C45.3479 83.6296 44.5497 82.8281 43.5655 82.8281C42.5814 82.8281 41.7832 83.6296 41.7832 84.6179Z" fill="#EBA588"/>
        <path d="M63.5859 79.4661C63.5859 80.0484 63.9078 80.5201 64.305 80.5201C64.7022 80.5201 65.0241 80.048 65.0241 79.4661C65.0241 78.8842 64.7022 78.4121 64.305 78.4121C63.9078 78.4121 63.5859 78.8838 63.5859 79.4661Z" fill="#34587F"/>
        <path d="M56.0449 79.4661C56.0449 80.0484 56.3668 80.5201 56.764 80.5201C57.1612 80.5201 57.4831 80.048 57.4831 79.4661C57.4831 78.8842 57.1612 78.4121 56.764 78.4121C56.3672 78.4121 56.0449 78.8838 56.0449 79.4661Z" fill="#34587F"/>
        <path d="M59.6016 84.604C60.7932 84.5778 61.9853 84.5516 63.177 84.5254C63.0693 84.8486 62.9815 85.1938 62.8055 85.485C62.6294 85.7761 62.3784 86.0336 62.0607 86.1534C61.5798 86.3347 61.024 86.1675 60.6151 85.856C60.2063 85.5445 59.8853 85.0341 59.6016 84.604Z" fill="#EBA588"/>
        <path d="M56.2266 87.4395C58.5196 88.0405 60.915 88.2443 63.2756 88.0397C62.7889 89.5882 61.1669 90.8855 59.5535 90.7782C57.9402 90.6709 56.5057 89.0388 56.2266 87.4395Z" fill="white"/>
        <path d="M56.637 75.6439C55.6417 75.7483 54.8096 76.3194 54.3262 77.1163L59.2014 76.6047C58.5644 75.9255 57.6324 75.5395 56.637 75.6439Z" fill="#EBA25D"/>
        <path d="M64.4565 75.6472C65.1283 75.7491 65.6535 76.3156 65.924 77.1071L62.6348 76.6076C63.1202 75.9308 63.7846 75.5449 64.4565 75.6472Z" fill="#EBA25D"/>
        <path d="M58.2907 81.0161C57.8997 80.7894 57.3442 80.6409 56.7801 80.613C56.2159 80.5831 55.6485 80.6738 55.2363 80.8593C56.1029 81.1084 57.4031 81.1754 58.2907 81.0161Z" fill="#EBA588"/>
        <path d="M63.3457 81.0161C63.6145 80.7894 63.9968 80.6409 64.385 80.613C64.7731 80.5831 65.1637 80.6738 65.447 80.8593C64.8505 81.1084 63.9562 81.1754 63.3457 81.0161Z" fill="#EBA588"/>
        <path d="M45.6016 70.9887C47.2402 70.7428 49.1911 69.666 50.6255 68.0663C52.0757 66.4811 52.9588 64.4289 53.0474 62.7676C51.8872 63.9613 50.6433 65.4529 49.3361 66.8887C48.0359 68.3312 46.6752 69.7159 45.6016 70.9887Z" fill="#F0BF6C"/>
        <path d="M55.5263 70.3776C56.1013 69.4684 56.4405 68.0887 56.3684 66.7124C56.3067 65.3352 55.8358 63.9954 55.1755 63.1465C55.1163 64.2246 55.1825 65.4966 55.2414 66.7677C55.306 68.038 55.3631 69.3103 55.5263 70.3776Z" fill="#F0BF6C"/>
        <path d="M50.7425 62.6723C49.3313 62.4922 47.4578 62.9635 45.9331 64.0166C44.396 65.0519 43.2693 66.6275 42.916 68.0109C44.0936 67.2036 45.4029 66.1895 46.774 65.2599C48.14 64.3223 49.5612 63.4742 50.7425 62.6723Z" fill="#F0BF6C"/>
        <path d="M61.7912 69.3264C62.0575 68.361 61.8798 66.9896 61.2287 65.8491C60.5937 64.6994 59.5168 63.8368 58.5566 63.5664C59.1001 64.4091 59.7529 65.3591 60.315 66.3669C60.8824 67.371 61.3542 68.4234 61.7912 69.3264Z" fill="#F0BF6C"/>
    </g>
    <path d="M142.832 71.2672H114.023C112.421 71.2672 111.123 69.9636 111.123 68.3556V16.7788C111.123 15.1707 112.421 13.8672 114.023 13.8672H142.832C144.434 13.8672 145.732 15.1707 145.732 16.7788V68.3556C145.732 69.9636 144.434 71.2672 142.832 71.2672Z" fill="#402C49"/>
    <path d="M114.022 69.6037C113.337 69.6037 112.779 69.0438 112.779 68.3559V16.7791C112.779 16.0911 113.337 15.5312 114.022 15.5312H142.832C143.517 15.5312 144.075 16.0911 144.075 16.7791V68.3559C144.075 69.0438 143.517 69.6037 142.832 69.6037H114.022Z" fill="#2BB572"/>
    <path d="M143.099 39.7121C143.103 38.2792 142.855 36.7718 141.962 35.6537C139.968 33.1568 135.585 33.4779 133.954 30.729C132.618 28.4779 133.962 25.5954 133.641 22.9949C133.386 20.9261 131.966 19.0423 130.054 18.2328C128.14 17.4234 125.807 17.7196 124.154 18.9811C120.679 21.6336 120.778 27.4439 117.132 29.8534C115.791 30.7394 114.124 31.0181 112.779 31.8944V68.3559C112.779 69.0439 113.337 69.6037 114.022 69.6037H142.832C143.517 69.6037 144.075 69.0439 144.075 68.3559V47.3142C143.355 46.4021 143.029 45.1859 142.957 44.0067C142.871 42.5763 143.095 41.145 143.099 39.7121Z" fill="#ADEBCD"/>
    <path d="M137.848 23.1494C136.036 23.4431 135.448 26.2162 135.786 27.7023C136.107 29.1119 137.433 30.3273 138.867 30.1942C139.642 30.1223 140.36 29.6747 140.83 29.0512C141.3 28.4277 141.532 27.6424 141.556 26.8609C141.617 24.8406 140.026 22.7963 137.848 23.1494Z" fill="#ADEBCD"/>
    <mask id="mask1_1156_141017" style="mask-type:luminance" maskUnits="userSpaceOnUse" x="97" y="0" width="48" height="70">
        <path d="M142.833 15.5303H114.023C113.337 15.5303 112.78 16.0902 112.78 16.7782V0.925781H97.916V37.5765L112.78 49.4933V68.355C112.78 69.0429 113.337 69.6028 114.023 69.6028H142.833C143.518 69.6028 144.075 69.0429 144.075 68.355V59.8215V45.7523V16.7782C144.075 16.0902 143.518 15.5303 142.833 15.5303Z" fill="white"/>
    </mask>
    <g mask="url(#mask1_1156_141017)">
        <path d="M132.518 42.609L123.437 42.3066L122.18 43.5125L126.323 46.5472L128.809 46.59L133.952 44.8901L132.518 42.609Z" fill="#F0BF6C"/>
        <path d="M119.375 81.8202C125.713 83.2145 132.442 82.7653 138.54 80.5408L133.953 44.8896L130.635 44.6309L130.601 44.6845C129.102 47.0475 125.705 47.154 124.061 44.8896L120.466 45.0834L119.375 81.8202Z" fill="#6CA8BC"/>
        <path d="M120.785 62.9805C121.797 64.6043 123.014 66.7318 124.303 68.817C125.584 70.9062 126.935 72.951 127.929 74.5861C126.476 73.3474 124.839 71.4299 123.531 69.2961C122.215 67.1669 121.239 64.8393 120.785 62.9805Z" fill="#5195A8"/>
        <path d="M120.15 60.4115C121.162 60.5084 122.284 60.3628 123.431 60.023C124.577 59.689 125.765 59.1815 126.962 58.6799C129.35 57.6754 131.68 56.5361 133.519 55.6855C132.039 57.0723 129.788 58.541 127.337 59.5713C126.117 60.0825 124.851 60.5363 123.585 60.7322C122.327 60.936 121.079 60.8262 120.15 60.4115Z" fill="#5195A8"/>
        <path d="M119.084 57.8005C120.347 57.7872 121.955 57.7456 123.546 57.5255C125.138 57.3151 126.7 56.9282 127.922 56.6055C126.865 57.2968 125.281 57.9061 123.627 58.1237C121.974 58.3533 120.286 58.1865 119.084 57.8005Z" fill="#5195A8"/>
        <path d="M123.406 47.2879C124.697 47.5732 126.361 47.7799 128.02 47.6356C129.679 47.5063 131.289 47.0296 132.515 46.5371C132.006 46.9593 131.344 47.3661 130.577 47.6735C129.813 47.9825 128.948 48.1913 128.071 48.2645C127.194 48.3361 126.307 48.2716 125.502 48.0919C124.697 47.9139 123.977 47.6211 123.406 47.2879Z" fill="#5195A8"/>
        <path d="M112 37.1484L107.722 34.3446L106.637 16.7195L110.584 13.8128C110.799 13.6544 110.933 13.409 110.951 13.1419L111.043 11.756C111.072 11.3097 110.774 10.9087 110.339 10.8106L104.981 9.60352L105.117 10.4832C105.196 10.9923 104.814 11.4561 104.302 11.4744L100.465 11.6121L101.951 15.9733L100.945 34.7239C100.839 36.7055 101.753 38.603 103.366 39.7497L109.303 43.9703L112 37.1484Z" fill="#BD6C67"/>
        <path d="M104.982 9.60352L105.019 9.84601C105.238 11.2627 106.376 12.3558 107.795 12.5134L108.723 12.6166L107.849 12.6786C106.608 12.7668 105.466 13.3936 104.723 14.3956L104.669 14.2367C104.261 13.0238 103.231 12.1279 101.978 11.8941L100.465 11.6125L104.982 9.60352Z" fill="#A64F5A"/>
        <path d="M100.155 8.4577L103.933 8.09957C104.385 8.05673 104.79 8.3741 104.86 8.82373L105.117 10.4838C105.196 10.9929 104.814 11.4566 104.301 11.4749L100.464 11.6126C100.025 11.6284 99.646 11.3082 99.5859 10.8714L99.3871 9.43225C99.3204 8.94685 99.6696 8.50387 100.155 8.4577Z" fill="#BD6C67"/>
        <path d="M109.019 10.5141L110.981 5.46702C111.215 4.86266 110.912 4.18218 110.307 3.95591C109.708 3.73171 109.041 4.03785 108.818 4.63971L107.165 9.10236L107.341 3.69012C107.362 3.04874 106.85 2.51758 106.211 2.51758C105.605 2.51758 105.106 2.99716 105.081 3.60485L104.859 8.82451L104.98 9.60481L109.019 10.5141Z" fill="#BD6C67"/>
        <path d="M111.999 37.1487L111.218 36.6367L106.961 42.306L109.302 43.9706L111.999 37.1487Z" fill="#422C4F"/>
        <path d="M128.089 42.7809C128.836 42.5147 129.449 41.9507 129.909 41.3026C130.076 41.068 130.221 40.8193 130.358 40.5664L130.635 44.6327L130.601 44.6863C129.102 47.0493 125.704 47.1558 124.061 44.8914L123.826 41.5526C124.121 41.8117 124.431 42.0522 124.766 42.2589C125.754 42.8682 126.996 43.1702 128.089 42.7809Z" fill="#BD6C67"/>
        <path d="M130.224 38.5859L130.358 40.5662C130.221 40.8191 130.076 41.0674 129.909 41.3025C129.449 41.9501 128.836 42.5145 128.089 42.7807C126.997 43.1704 125.754 42.8681 124.766 42.2587C124.431 42.052 124.121 41.8116 123.826 41.5524L123.666 39.2776L130.224 38.5859Z" fill="#422C4F"/>
        <path d="M120.913 36.0722C120.913 37.2975 119.924 38.2908 118.704 38.2908C117.483 38.2908 116.494 37.2975 116.494 36.0722C116.494 34.8468 117.483 33.8535 118.704 33.8535C119.924 33.8539 120.913 34.8472 120.913 36.0722Z" fill="#BD6C67"/>
        <path d="M119.774 36.0713C119.774 36.6653 119.295 37.1465 118.704 37.1465C118.112 37.1465 117.633 36.6653 117.633 36.0713C117.633 35.4773 118.112 34.9961 118.704 34.9961C119.295 34.9961 119.774 35.4778 119.774 36.0713Z" fill="#A64F5A"/>
        <path d="M133.637 36.2462C134.325 33.7505 134.534 31.1226 134.25 28.5488C134.11 27.2843 133.847 26.0182 133.292 24.8743C132.737 23.7305 131.869 22.711 130.735 22.1428C129.631 21.5892 128.359 21.4952 127.125 21.4582C125.266 21.4025 123.373 21.4595 121.603 22.0339C119.833 22.6083 118.182 23.7613 117.355 25.4342C116.566 27.0297 116.602 28.936 117.08 30.6514C117.557 32.3671 118.442 33.9352 119.319 35.4838C123.884 36.5748 128.99 36.8909 133.637 36.2462Z" fill="#402C49"/>
        <path d="M128.831 28.0859C125.676 29.0979 122.265 29.2868 119.018 28.6354C118.775 29.4199 118.665 30.2601 118.715 31.1286L118.969 35.5072C119.194 39.3746 122.499 42.3265 126.349 42.1007C130.126 41.8794 133.024 38.6841 132.923 34.9136C130.611 33.4329 128.937 30.8195 128.831 28.0859Z" fill="#BD6C67"/>
        <path d="M135.993 36.0722C135.993 37.2975 135.004 38.2908 133.784 38.2908C132.563 38.2908 131.574 37.2975 131.574 36.0722C131.574 34.8468 132.563 33.8535 133.784 33.8535C135.004 33.8535 135.993 34.8472 135.993 36.0722Z" fill="#BD6C67"/>
        <path d="M134.854 36.0713C134.854 36.6653 134.375 37.1465 133.784 37.1465C133.192 37.1465 132.713 36.6653 132.713 36.0713C132.713 35.4773 133.192 34.9961 133.784 34.9961C134.375 34.9961 134.854 35.4778 134.854 36.0713Z" fill="#A64F5A"/>
        <path d="M121.209 31.8996C120.503 31.937 119.895 32.3097 119.525 32.8546L122.984 32.6707C122.559 32.1683 121.915 31.8621 121.209 31.8996Z" fill="#422C4F"/>
        <path d="M127.559 31.4653C126.781 31.4798 126.099 31.8666 125.672 32.4515L129.481 32.3808C129.033 31.8117 128.336 31.4507 127.559 31.4653Z" fill="#422C4F"/>
        <path d="M121.794 34.0798C121.794 34.3784 121.553 34.6205 121.255 34.6205C120.958 34.6205 120.717 34.3784 120.717 34.0798C120.717 33.7811 120.958 33.5391 121.255 33.5391C121.553 33.5391 121.794 33.7811 121.794 34.0798Z" fill="#422C4F"/>
        <path d="M127.355 34.6205C127.652 34.6205 127.893 34.3784 127.893 34.0798C127.893 33.7812 127.652 33.5391 127.355 33.5391C127.057 33.5391 126.816 33.7812 126.816 34.0798C126.816 34.3784 127.057 34.6205 127.355 34.6205Z" fill="#422C4F"/>
        <path d="M125.18 36.2963C124.498 36.137 123.79 36.0883 123.092 36.1523C123.123 36.4839 123.308 36.8528 123.598 37.0142C123.888 37.1756 124.257 37.1835 124.554 37.0346C124.826 36.8981 125.029 36.5621 125.18 36.2963Z" fill="#A64F5A"/>
        <path d="M127.877 37.5781C126.231 38.3651 124.338 38.618 122.545 38.2906C122.781 39.093 123.505 39.8488 124.289 40.1328C125.072 40.4169 125.987 40.3042 126.68 39.8388C127.371 39.3729 127.841 38.4142 127.877 37.5781Z" fill="white"/>
        <path d="M133.953 44.8887L137.486 45.0758C139.455 45.1802 141.283 46.1303 142.505 47.6834L148.755 55.6266L141.897 61.4228L139.783 59.0124V62.3507C139.783 67.8649 140.541 73.3528 142.035 78.659L144.583 87.7057C138.868 89.5421 132.982 88.3143 132.982 88.3143L130.881 79.5113C129.51 73.7646 129.079 67.8324 129.607 61.9473C130.064 56.8412 129.801 51.6956 128.825 46.6635L128.811 46.5886L133.953 44.8887Z" fill="#F0BF6C"/>
        <path d="M122.18 43.5115L112 37.1484L108.693 45.5109L116.065 50.3995L116.18 58.1015C116.256 63.2467 116.065 68.3919 115.606 73.5172L114.409 86.903L114.66 86.9891C117.196 87.8593 119.907 88.0859 122.552 87.6492L124.094 68.2139C124.2 66.882 124.253 65.5469 124.253 64.2109V60.8792C124.253 56.0264 124.95 51.199 126.324 46.5462L122.18 43.5115Z" fill="#F0BF6C"/>
        <path d="M133.952 44.8884L132.518 42.6074L128.809 46.5884L131.809 50.0748L133.952 44.8884Z" fill="#F5D896"/>
        <path d="M126.323 46.5472L123.437 42.3066L122.18 43.5125L123.494 50.0764L126.323 46.5472Z" fill="#F5D896"/>
        <path d="M139.782 59.0143L136.24 53.5625L136.386 54.7392C136.696 57.2349 137.904 59.5309 139.782 61.1946V59.0143Z" fill="#EBA25D"/>
        <path d="M137.203 48.7766C136.763 49.9021 136.504 51.177 136.108 52.1927C135.927 51.6811 135.805 51.078 135.792 50.4183C135.779 49.7607 135.88 49.0416 136.143 48.3615C136.409 47.6781 136.845 47.0567 137.38 46.6175C137.913 46.1741 138.544 45.9328 139.085 45.9199C138.282 46.6503 137.64 47.6511 137.203 48.7766Z" fill="#EBA25D"/>
        <path d="M116.79 49.5824C116.819 49.5146 116.853 49.4455 116.885 49.3769C116.85 49.431 116.814 49.4859 116.778 49.5366C116.637 48.0184 117.24 45.784 118.125 44.5449C118.231 45.6771 117.922 47.2078 117.391 48.4269C117.751 47.8196 118.18 47.1982 118.636 46.5976C119.391 45.6093 120.218 44.6734 121.021 44.0254C120.84 45.042 120.279 46.2315 119.496 47.2573C118.715 48.2855 117.719 49.1406 116.79 49.5824Z" fill="#EBA25D"/>
        <path d="M138.844 81.5497C137.252 80.1301 135.484 77.9302 134.118 75.4865C132.742 73.0491 131.781 70.3912 131.395 68.2891C132.419 70.165 133.656 72.6049 135 74.987C136.335 77.3741 137.775 79.6992 138.844 81.5497Z" fill="#EBA25D"/>
        <path d="M142.198 91.1523L141.824 88.4441C141.683 87.4238 141.712 86.3868 141.909 85.3757L145.783 65.4978L142.406 60.9936L147.725 56.498L150.996 61.9614C152.162 63.9097 152.455 66.2619 151.803 68.4385L146.298 86.8165L147.269 89.4282L142.903 92.9695C142.534 92.43 142.289 91.8099 142.198 91.1523Z" fill="#EBA58E"/>
        <path d="M147.726 56.498L142.406 60.994L144.019 63.1456L148.272 57.411L147.726 56.498Z" fill="#422C4F"/>
    </g>
    <path d="M133.104 17.7807H122.969C122.315 17.7807 121.701 17.4713 121.31 16.9459L119.912 15.0684H136.161L134.763 16.9459C134.372 17.4717 133.757 17.7807 133.104 17.7807Z" fill="#402C49"/>
    <mask id="mask2_1156_141017" style="mask-type:luminance" maskUnits="userSpaceOnUse" x="176" y="20" width="74" height="51">
        <path d="M176.646 70.498L249.4 70.498V20.8654L176.646 20.8654V70.498Z" fill="white"/>
    </mask>
    <g mask="url(#mask2_1156_141017)">
        <path d="M172.862 42.6157C173.771 40.7868 174.697 38.9325 176.065 37.4189C177.433 35.9053 179.324 34.7498 181.36 34.7269C183.395 34.7041 185.499 36.05 185.926 38.0486C186.339 39.9832 185.194 41.931 185.278 43.908C185.423 47.34 189.433 49.5964 192.794 48.9609C196.156 48.3257 198.778 45.6654 200.7 42.8241C202.622 39.9828 204.096 36.8137 206.39 34.2657C209.632 30.6653 214.456 28.556 219.289 28.6267C224.123 28.697 228.884 30.9456 232.02 34.6388C234.115 37.1053 235.81 40.3796 238.943 41.1607C241.656 41.837 244.393 40.3367 247.168 40.0015C251.319 39.5003 255.659 41.9373 257.407 45.7511V77.0436H169.713L172.862 42.6157Z" fill="#FBEED1"/>
        <path d="M188.471 30.7687C188.457 31.9084 189.195 33.0797 190.296 33.353C191.192 33.5751 192.113 33.2082 193.011 32.9965C194.043 32.7532 195.112 32.7145 196.156 32.5236C197.199 32.3327 198.257 31.9617 198.987 31.1901C200.208 29.9007 200.143 27.6874 199.033 26.3019C197.922 24.916 195.981 24.3557 194.237 24.6681C192.717 24.9401 191.129 25.8452 190.161 27.066C189.401 28.0235 188.486 29.5417 188.471 30.7687Z" fill="#FBEED1"/>
    </g>
    <mask id="mask3_1156_141017" style="mask-type:luminance" maskUnits="userSpaceOnUse" x="176" y="20" width="74" height="51">
        <path d="M176.646 70.498L249.4 70.498V20.8654L176.646 20.8654V70.498Z" fill="white"/>
    </mask>
    <g mask="url(#mask3_1156_141017)">
        <path d="M209.886 61.7109C207.923 62.3773 206.369 63.905 205.666 65.862L199.916 81.8488L202.818 99.0941C205.937 97.1729 208.165 94.0816 209.008 90.5049L211.707 79.0387L209.886 61.7109Z" fill="#E68799"/>
        <path d="M197.657 67.3402L204.722 58.5576C203.62 57.5011 201.909 57.4312 200.725 58.395L198.43 60.2642L198.57 56.2441L187.646 57.6043L190.811 68.111L197.657 67.3402Z" fill="#F0BF9C"/>
        <path d="M198.429 60.2637C196.152 61.1472 194.404 63.031 193.689 65.3748L193.513 65.9484L193.469 65.4118C193.234 62.5435 195.567 60.1223 198.429 60.2637Z" fill="#EBA588"/>
        <path d="M198.571 56.2444L198.97 48.2791C198.999 47.7168 198.586 47.2297 198.028 47.1685C197.447 47.1045 196.924 47.5258 196.86 48.1098L195.936 56.5726L198.571 56.2444Z" fill="#EBA588"/>
        <path d="M195.935 56.5718L194.756 47.4556C194.678 46.8517 194.14 46.4162 193.536 46.4669C192.94 46.5172 192.484 47.0243 192.496 47.6253L192.683 56.9765L195.935 56.5718Z" fill="#EBA588"/>
        <path d="M192.683 56.9765L190.506 48.2396C190.375 47.7126 189.857 47.3799 189.325 47.481C188.79 47.5829 188.429 48.0882 188.504 48.6302L189.713 57.3467L192.683 56.9765Z" fill="#EBA588"/>
        <path d="M187.647 57.6039L185.794 51.5906C185.661 51.1576 185.927 50.7026 186.369 50.6086C186.735 50.5308 187.104 50.7292 187.242 51.0786L189.714 57.346L187.647 57.6039Z" fill="#EBA588"/>
        <path d="M199.212 66.041L189.709 66.8159L190.486 73.5546L200.773 72.1762L199.212 66.041Z" fill="#E68799"/>
        <path d="M217.469 68.9306C220.331 70.797 223.936 71.4766 227.278 70.7807C230.685 70.0707 233.697 68.0135 236.113 65.4983C236.798 64.7854 237.437 64.0329 238.048 63.2572C237.49 61.6724 236.962 60.0769 236.481 58.4655L229.567 54.4688L215.255 56.9028L212.535 62.9997C213.556 65.4034 215.285 67.5065 217.469 68.9306Z" fill="#F2C9AD"/>
        <path d="M238.047 63.2575C237.436 64.0332 236.797 64.7856 236.112 65.4986C233.697 68.0138 230.684 70.071 227.277 70.781C223.935 71.4769 220.33 70.7973 217.468 68.9309C215.284 67.5067 213.555 65.4041 212.534 63L210.904 66.6536L213.383 81.853C214.109 86.3094 217.689 89.7422 222.156 90.2654L223.321 90.4018C227.937 93.8683 231.767 99.486 232.937 105.153C242.06 108.357 252.779 105.909 259.572 99.0056C250.028 88.7435 242.705 76.4882 238.047 63.2575Z" fill="white"/>
        <path d="M235.067 71.9804C233.622 72.5531 231.948 73.0797 230.136 73.3792C228.327 73.6824 226.385 73.7593 224.476 73.5376C222.568 73.3135 220.695 72.7914 219.003 72.0794C217.308 71.3706 215.799 70.4726 214.523 69.582C215.455 70.8274 216.813 72.0906 218.508 73.0751C220.197 74.0638 222.216 74.768 224.305 75.0117C226.394 75.2555 228.52 75.0354 230.39 74.4623C232.266 73.8949 233.875 72.9782 235.067 71.9804Z" fill="#E4E4E0"/>
        <path d="M216.387 55.6339C216.697 56.8493 217.011 58.0751 217.57 59.1973C218.128 60.3195 218.957 61.3452 220.071 61.9142C222.137 62.9699 224.76 62.2041 226.496 60.6626C228.233 59.1212 229.267 56.9512 230.201 54.8203C225.67 55.1863 220.917 55.2679 216.387 55.6339Z" fill="#422C4F"/>
        <path d="M226.594 67.5626L229.648 71.4829L228.734 74.3778C231.644 87.7358 237.401 100.717 245.719 111.543C255.139 110.729 264.498 106.097 271.001 99.2058C255.66 87.255 251.817 63.8749 246.743 60.7204C241.669 57.5654 229.567 54.4688 229.567 54.4688L230.274 62.0718L226.594 67.5626Z" fill="#E68799"/>
        <path d="M229.544 54.4531C229.081 58.9195 228.088 63.3302 226.594 67.5628C228.789 68.3735 230.895 69.5822 232.701 71.0758C232.632 67.3981 232.559 63.7261 232.488 60.0509C232.444 57.8327 231.382 55.7338 229.567 54.4689L229.544 54.4531Z" fill="#EBA7AC"/>
        <path d="M226.156 110.148C218.385 96.977 213.719 81.3629 212.61 66.0945L208.435 63.5469C204.579 83.8091 216.722 111.82 221.738 117.121L226.156 110.148Z" fill="#E68799"/>
        <path d="M216.735 55.8498C214.831 59.0164 213.433 62.4887 212.61 66.0941C211.199 65.2826 209.847 64.3579 208.436 63.5464C210.606 60.8016 212.729 58.0905 214.9 55.3457C215.406 55.5225 216.229 55.673 216.735 55.8498Z" fill="#EBA7AC"/>
        <path d="M208.436 63.5469L208.869 69.7594L211.707 65.5567L208.436 63.5469Z" fill="#E36B85"/>
        <path d="M240.478 39.1046C240.6 34.9123 238.423 30.7246 234.927 28.429C232.789 27.0248 230.201 26.3626 227.651 26.4679C227.118 27.1409 226.667 27.8783 226.32 28.6661C228.396 33.7506 229.838 39.8105 232.4 44.6657C233.732 47.1893 235.233 49.7918 237.672 51.2617C238.436 51.723 239.276 52.0163 240.144 52.1693C239.796 51.5105 239.537 50.8038 239.382 50.0742C238.616 46.458 240.369 42.7998 240.478 39.1046Z" fill="#422C4F"/>
        <path d="M245.975 34.9074C246.631 31.5924 245.555 27.9808 243.193 25.572C240.832 23.1633 237.253 22.0266 233.941 22.6338C231.474 23.0864 229.209 24.4981 227.65 26.4672C230.201 26.3619 232.788 27.0241 234.927 28.4283C238.423 30.7235 240.6 34.9116 240.477 39.1039C240.369 42.7991 238.616 46.4573 239.382 50.0731C239.536 50.8031 239.795 51.5094 240.144 52.1682C241.69 52.4411 243.329 52.2564 244.815 51.6924C242.955 50.8093 241.985 48.6177 241.994 46.5517C242.002 44.4858 242.813 42.5138 243.7 40.6495C244.587 38.7857 245.574 36.9339 245.975 34.9074Z" fill="#8C404C"/>
        <path d="M211.494 50.7686C209.435 47.1191 208.645 42.7317 209.467 38.6189C210.289 34.5061 212.753 30.7177 216.265 28.4458C219.776 26.1739 224.306 25.4959 228.277 26.7953C231.123 27.7266 233.632 29.6325 235.354 32.0911C237.076 34.5497 238.011 37.5433 238.064 40.5485C238.111 43.1855 237.479 45.8488 236.14 48.1173C234.8 50.3859 232.741 52.2418 230.301 53.2172C224.076 53.1727 217.585 52.0626 211.494 50.7686Z" fill="#8C404C"/>
        <path d="M216.321 38.8711C214.583 40.3356 212.967 41.9428 211.478 43.6607L210.964 48.4573C210.358 54.1162 214.435 59.1969 220.07 59.805C225.706 60.4136 230.765 56.319 231.371 50.6601L231.985 44.9255C226.308 45.1418 220.501 42.7331 216.321 38.8711Z" fill="#F2C9AD"/>
        <path d="M233.211 55.8867C235.004 55.8867 236.457 54.4272 236.457 52.6269C236.457 50.8266 235.004 49.3672 233.211 49.3672C231.418 49.3672 229.965 50.8266 229.965 52.6269C229.965 54.4272 231.418 55.8867 233.211 55.8867Z" fill="#F2C9AD"/>
        <path d="M234.86 52.6266C234.86 53.5412 234.122 54.2824 233.211 54.2824C232.301 54.2824 231.562 53.5408 231.562 52.6266C231.562 51.7119 232.301 50.9707 233.211 50.9707C234.122 50.9707 234.86 51.7119 234.86 52.6266Z" fill="#EBA58E"/>
        <path d="M231.636 39.243C230.048 38.5467 228.173 37.8358 226.352 36.9927C224.526 36.1604 222.764 35.2004 221.201 34.4492C221.88 36.0452 223.54 37.7239 225.595 38.6527C227.639 39.6069 229.99 39.7712 231.636 39.243Z" fill="#9B4B5A"/>
        <path d="M231.97 35.4787C230.784 34.8211 229.225 34.29 227.635 33.8986C226.044 33.5105 224.416 33.2609 223.062 33.2963C224.106 34.161 225.659 34.8864 227.298 35.2862C228.935 35.6896 230.647 35.7637 231.97 35.4787Z" fill="#9B4B5A"/>
        <path d="M215.88 42.492C214.79 42.2811 213.723 42.6184 212.955 43.3085L218.293 44.3404C217.835 43.4133 216.97 42.7025 215.88 42.492Z" fill="#8C404C"/>
        <path d="M216.875 47.045C216.905 46.7247 216.804 46.3304 216.556 45.9906C216.312 45.6503 215.922 45.3667 215.469 45.2544C215.016 45.1412 214.539 45.209 214.165 45.3954C213.788 45.5792 213.515 45.8808 213.393 46.1782C213.963 45.8899 214.672 45.7547 215.307 45.9124C215.941 46.0709 216.505 46.5226 216.875 47.045Z" fill="#422C4F"/>
        <path d="M224.296 42.8778C225.406 42.8536 226.401 43.3657 227.043 44.1751L221.607 44.2936C222.215 43.4568 223.186 42.9019 224.296 42.8778Z" fill="#8C404C"/>
        <path d="M222.322 47.2782C222.348 46.9375 222.523 46.5424 222.843 46.2309C223.159 45.9181 223.619 45.691 224.113 45.6539C224.607 45.6165 225.095 45.7729 225.454 46.0349C225.816 46.2953 226.049 46.6597 226.124 46.9929C225.578 46.5886 224.858 46.3203 224.166 46.3719C223.474 46.4247 222.803 46.7974 222.322 47.2782Z" fill="#422C4F"/>
        <path d="M220.592 50.5532C219.624 50.3923 218.656 50.2313 217.688 50.0703C217.805 50.6855 218.352 51.1713 218.962 51.2973C219.574 51.4234 220.243 51.0723 220.592 50.5532Z" fill="#EBA58E"/>
        <path d="M223.478 52.3848C220.817 52.9072 218.061 52.9392 215.389 52.4784C215.7 53.4076 216.034 54.4878 216.681 55.2215C217.328 55.9556 218.221 56.5043 219.194 56.5887C220.257 56.6806 221.322 56.2035 222.082 55.4507C222.841 54.6982 223.21 53.4217 223.478 52.3848Z" fill="white"/>
    </g>
    <path d="M113.438 88.7009C114.99 86.3728 115.896 83.5744 115.896 80.5625C115.896 72.4704 109.363 65.9102 101.304 65.9102C93.2458 65.9102 86.7129 72.4704 86.7129 80.5625C86.7129 88.6547 93.2458 95.2149 101.304 95.2149C104.406 95.2149 107.279 94.2404 109.643 92.5833L115.708 94.8431L113.438 88.7009Z" fill="white"/>
    <path d="M108.903 85.2966C108.156 84.473 107.216 83.9086 106.273 83.3458C105.775 83.0488 105.334 83.0625 104.868 83.4057C104.393 83.7543 103.888 84.06 103.407 84.399C102.934 84.7317 102.428 84.7696 101.902 84.5891C101.632 84.4963 101.366 84.3773 101.121 84.2309C99.6588 83.3554 98.4907 82.1766 97.6226 80.7075C97.4474 80.4109 97.3252 80.0744 97.227 79.7421C97.0986 79.3078 97.1702 78.8869 97.4283 78.503C97.7957 77.9564 98.1511 77.402 98.5222 76.8584C98.7848 76.4736 98.8138 76.0926 98.5856 75.6808C98.1159 74.8323 97.6076 74.0104 96.9578 73.2867C96.6123 72.9023 96.2321 72.56 95.7611 72.3304C95.2214 72.0675 94.7136 72.1241 94.277 72.5259C94.0285 72.7547 93.7953 73.0217 93.6288 73.3137C92.9776 74.4542 92.8355 75.6979 93.0832 76.9648C93.56 79.4035 94.6282 81.5756 96.1786 83.5055C97.9817 85.7504 100.276 87.3043 102.967 88.276C103.908 88.6158 104.866 88.902 105.882 88.8982C105.885 88.9173 105.888 88.9365 105.891 88.9556C106.429 88.8654 106.975 88.8088 107.502 88.6765C108.188 88.5043 108.806 88.1815 109.278 87.6279C109.683 87.1538 109.761 86.6309 109.459 86.0835C109.303 85.8036 109.117 85.5328 108.903 85.2966Z" fill="#2BB572"/>
    <path d="M203.217 75.0811C200.899 73.5229 198.112 72.6133 195.113 72.6133C187.054 72.6133 180.521 79.1735 180.521 87.2657C180.521 95.3578 187.054 101.918 195.113 101.918C203.171 101.918 209.704 95.3578 209.704 87.2657C209.704 84.1511 208.734 81.2657 207.084 78.8919L209.334 72.8017L203.217 75.0811Z" fill="white"/>
    <path d="M189.886 89.2247C190.56 89.2247 191.107 88.6755 191.107 87.9981C191.107 87.3207 190.56 86.7715 189.886 86.7715C189.211 86.7715 188.664 87.3207 188.664 87.9981C188.664 88.6755 189.211 89.2247 189.886 89.2247Z" fill="#2BB572"/>
    <path d="M195.376 89.2247C196.05 89.2247 196.597 88.6755 196.597 87.9981C196.597 87.3207 196.05 86.7715 195.376 86.7715C194.701 86.7715 194.154 87.3207 194.154 87.9981C194.154 88.6755 194.701 89.2247 195.376 89.2247Z" fill="#2BB572"/>
    <path d="M200.866 89.2247C201.541 89.2247 202.088 88.6755 202.088 87.9981C202.088 87.3207 201.541 86.7715 200.866 86.7715C200.191 86.7715 199.645 87.3207 199.645 87.9981C199.645 88.6755 200.191 89.2247 200.866 89.2247Z" fill="#2BB572"/>
    <path d="M146.219 27.253C148.538 28.8111 151.324 29.7208 154.324 29.7208C162.382 29.7208 168.915 23.1606 168.915 15.0684C168.915 6.97625 162.383 0.416016 154.324 0.416016C146.265 0.416016 139.732 6.97625 139.732 15.0684C139.732 18.183 140.703 21.0684 142.353 23.4422L140.103 29.5324L146.219 27.253Z" fill="white"/>
    <path d="M154.324 30.1367C151.413 30.1367 148.598 29.3006 146.167 27.7163L140.247 29.9225C140.095 29.9782 139.924 29.9412 139.81 29.8268C139.695 29.712 139.658 29.5402 139.714 29.388L141.89 23.5003C140.206 21.0034 139.318 18.0931 139.318 15.0687C139.318 6.75947 146.049 0 154.324 0C162.598 0 169.33 6.75947 169.33 15.0683C169.33 23.3772 162.598 30.1367 154.324 30.1367ZM146.22 26.837C146.3 26.837 146.381 26.8607 146.45 26.9073C148.784 28.4758 151.506 29.3048 154.324 29.3048C162.141 29.3048 168.502 22.9184 168.502 15.0683C168.501 7.21826 162.141 0.831884 154.324 0.831884C146.506 0.831884 140.146 7.21826 140.146 15.0683C140.146 17.9945 141.027 20.8079 142.692 23.2046C142.77 23.3165 142.788 23.4595 142.741 23.5872L140.805 28.8273L146.075 26.8632C146.122 26.8457 146.171 26.837 146.22 26.837Z" fill="#D1F4F5"/>
    <path d="M154.179 23.8378C158.926 23.8378 162.774 19.9736 162.774 15.207C162.774 10.4403 158.926 6.57617 154.179 6.57617C149.432 6.57617 145.584 10.4403 145.584 15.207C145.584 19.9736 149.432 23.8378 154.179 23.8378Z" fill="#F0BF6C"/>
    <path d="M151.159 10.9785C150.761 10.9785 150.43 11.6914 150.349 12.641L150.952 13.0062L150.338 13.2679C150.375 14.3435 150.726 15.1899 151.159 15.1899C151.617 15.1899 151.987 14.247 151.987 13.084C151.987 11.921 151.616 10.9785 151.159 10.9785Z" fill="#402C49"/>
    <path d="M156.579 10.9785C156.181 10.9785 155.85 11.6914 155.769 12.641L156.372 13.0062L155.758 13.2679C155.795 14.3435 156.146 15.1899 156.579 15.1899C157.036 15.1899 157.407 14.247 157.407 13.084C157.407 11.921 157.036 10.9785 156.579 10.9785Z" fill="#402C49"/>
    <path d="M158.578 16.3203C155.733 17.4953 152.475 17.628 149.545 16.6884C149.608 18.1542 150.71 19.531 151.987 20.2422C153.265 20.9535 154.91 20.9468 156.182 20.2248C157.454 19.5027 158.527 17.7865 158.578 16.3203Z" fill="#852D70"/>
</svg>
