<svg width="100%" height="100%" viewBox="0 0 16 16" fill="none" xmlns="http://www.w3.org/2000/svg">
  <path
    d="M12.0265 9.03341C11.7465 9.30674 11.5865 9.70008 11.6265 10.1201C11.6865 10.8401 12.3465 11.3667 13.0665 11.3667H14.3332V12.1601C14.3332 13.5401 13.2065 14.6667 11.8265 14.6667H5.09317C5.6465 14.1801 5.99984 13.4667 5.99984 12.6667C5.99984 11.1934 4.8065 10.0001 3.33317 10.0001C2.7065 10.0001 2.1265 10.2201 1.6665 10.5868V7.67342C1.6665 6.29342 2.79317 5.16675 4.17317 5.16675H11.8265C13.2065 5.16675 14.3332 6.29342 14.3332 7.67342V8.63342H12.9865C12.6132 8.63342 12.2732 8.78007 12.0265 9.03341Z"
    stroke="#000" stroke-linecap="round" stroke-linejoin="round" />
  <path
    d="M1.6665 7.67341V5.22676C1.6665 4.43343 2.15317 3.72673 2.89317 3.44673L8.1865 1.44673C9.01317 1.14006 9.89984 1.74675 9.89984 2.63342V5.16674"
    stroke="#000" stroke-linecap="round" stroke-linejoin="round" />
  <path
    d="M15.039 9.31352V10.6869C15.039 11.0536 14.7457 11.3535 14.3724 11.3669H13.0657C12.3457 11.3669 11.6857 10.8402 11.6257 10.1202C11.5857 9.7002 11.7457 9.30686 12.0257 9.03353C12.2724 8.7802 12.6124 8.63354 12.9857 8.63354H14.3724C14.7457 8.64688 15.039 8.94685 15.039 9.31352Z"
    stroke="#000" stroke-linecap="round" stroke-linejoin="round" />
  <path d="M4.6665 8H9.33317" stroke="#000" stroke-linecap="round" stroke-linejoin="round" />
  <path
    d="M5.99984 12.6667C5.99984 13.4667 5.6465 14.18 5.09317 14.6667C4.61984 15.08 4.0065 15.3333 3.33317 15.3333C1.85984 15.3333 0.666504 14.14 0.666504 12.6667C0.666504 11.8267 1.05317 11.0733 1.6665 10.5867C2.1265 10.22 2.7065 10 3.33317 10C4.8065 10 5.99984 11.1933 5.99984 12.6667Z"
    stroke="#000" stroke-miterlimit="10" stroke-linecap="round" stroke-linejoin="round" />
  <path d="M3.49984 11.8333V12.8333L2.6665 13.3333" stroke="#000" stroke-miterlimit="10" stroke-linecap="round"
    stroke-linejoin="round" />
</svg>