<svg width="74" height="50" viewBox="0 0 74 50" fill="none" xmlns="http://www.w3.org/2000/svg">
    <path
        d="M62.7859 37.0942C65.3665 32.5485 66.908 27.4251 67.448 22.4556H59.4738C59.2822 25.5384 58.6638 28.6557 57.6246 31.4309C56.5823 34.1653 55.2355 36.592 53.5025 38.6357C50.9219 41.64 47.569 43.5675 43.7953 43.5675C39.3248 43.5675 36.245 41.6431 35.052 38.4442H26.5001C25.1125 41.7561 21.838 43.4514 17.7159 43.4514C13.17 43.4514 8.50791 40.1771 8.00874 33.5154H34.7035C35.3973 30.2411 37.9779 27.7736 42.1785 26.1945C42.1785 26.1945 46.0683 24.7693 49.9204 23.1117C55.2355 20.6473 59.2446 16.2554 59.2446 10.6706C59.2446 2.73435 52.4634 0 46.3383 0C38.5964 0 32.8952 4.04345 32.8952 10.5167C32.8952 14.331 34.9766 17.913 38.0187 21.4949C36.4019 22.0726 34.8605 22.804 33.4352 23.7301C30.9675 16.9115 25.3071 12.5196 17.5652 12.5196C7.35573 12.5196 0 20.1859 0 30.9694C0 41.753 6.58657 50 18.1052 50C23.3826 50 27.3886 48.0756 30.1607 45.3789C32.9737 48.2671 37.2119 50 42.4108 50C48.8059 50 54.0048 47.4572 58.0139 43.5299L63.1375 49.1147H74L62.789 37.0974L62.7859 37.0942ZM46.3383 5.97099C49.2674 5.97099 51.6534 7.62856 51.6534 10.9029C51.6534 13.9072 49.8419 16.8331 45.7983 18.6444L45.7198 18.5691C43.3307 16.0262 41.0577 13.1004 41.0577 10.3252C41.0577 7.59088 43.5222 5.97413 46.3352 5.97413L46.3383 5.97099ZM17.4867 18.6821C22.1488 18.6821 26.4248 22.0726 26.6163 27.6574H7.97107C8.62407 20.8765 13.7477 18.6821 17.4867 18.6821Z"
        fill="#666666" />
</svg>