<svg width="100%" height="100%" viewBox="0 0 24 25" fill="none" xmlns="http://www.w3.org/2000/svg">
<path d="M5 4H11C11.1182 4 11.2087 4.02728 11.2861 4.08008L11.3604 4.1416C11.4526 4.2349 11.5 4.3432 11.5 4.5C11.5 4.65768 11.4521 4.76564 11.3594 4.8584C11.2656 4.95217 11.1571 5 11 5H4.5V20H11C11.1571 20 11.2656 20.0478 11.3594 20.1416C11.4521 20.2344 11.5 20.3423 11.5 20.5C11.5 20.6577 11.4521 20.7656 11.3594 20.8584C11.2656 20.9522 11.1571 21 11 21H5C4.63567 21 4.32653 20.8912 4.05469 20.6641L3.94043 20.5596C3.64214 20.2606 3.5 19.9163 3.5 19.5V5.5C3.5 5.13567 3.60884 4.82653 3.83594 4.55469L3.94043 4.44043C4.23936 4.14214 4.58365 4 5 4ZM16.0127 8.4248C16.1635 8.4248 16.2631 8.47015 16.3467 8.55371L19.9463 12.1533C19.9739 12.1809 19.9944 12.207 20.0098 12.2305L20.043 12.2939C20.0634 12.3525 20.0752 12.4201 20.0752 12.5C20.0752 12.5799 20.0634 12.6475 20.043 12.7061C20.0292 12.7443 20.0015 12.7915 19.9463 12.8467L16.3467 16.4463C16.2146 16.5784 16.1184 16.5978 16.0371 16.5898L16.0352 16.5889C15.8992 16.5758 15.7913 16.5269 15.6943 16.4355C15.5942 16.3112 15.5498 16.184 15.5498 16.0371C15.5498 15.8863 15.5952 15.7867 15.6787 15.7031L18.3818 13H10C9.84307 13 9.73538 12.9523 9.64258 12.8594L9.64062 12.8574C9.54766 12.7646 9.5 12.6569 9.5 12.5C9.5 12.3429 9.54783 12.2344 9.6416 12.1406C9.73436 12.0479 9.84232 12 10 12H18.3818L15.6787 9.29688C15.5695 9.18765 15.5255 9.07596 15.5254 8.93848C15.5254 8.79975 15.5696 8.68722 15.6787 8.57812L15.6865 8.57129L15.6934 8.5625C15.7803 8.46768 15.8754 8.42487 16.0127 8.4248Z" fill="#1D2433" fill-opacity="0.8" stroke="#437DFA"/>
</svg>
