<svg width="102" height="32" viewBox="0 0 102 32" fill="none" xmlns="http://www.w3.org/2000/svg">
    <path
        d="M99.4217 32H2.57832C2.51069 31.9805 2.44306 31.9527 2.37262 31.9444C1.27084 31.8247 0.402951 31.0902 0.107078 30.0275C0.073264 29.9078 0.033814 29.791 0 29.6714V2.32864C0.0225427 2.27021 0.050722 2.21457 0.0648112 2.15615C0.312781 1.06834 0.97779 0.37837 2.07675 0.105722C2.243 0.0639902 2.40925 0.0361676 2.57832 0H99.4217C99.4893 0.0194749 99.5569 0.0472953 99.6274 0.0556417C100.729 0.175273 101.603 0.912536 101.893 1.97253C101.927 2.09216 101.966 2.20901 102 2.32864V29.6714C101.977 29.7298 101.949 29.7854 101.935 29.8439C101.684 30.9317 101.019 31.6216 99.9204 31.8943C99.7542 31.936 99.5879 31.9638 99.4189 32H99.4217ZM61.9107 16.6288C61.8853 16.6288 61.8599 16.6288 61.8346 16.6288C61.8036 16.5369 61.7726 16.4479 61.7444 16.3561C61.2682 14.7731 60.7948 13.1928 60.3158 11.6098C60.1411 11.0339 59.7128 10.6889 59.1154 10.675C58.4673 10.6583 57.8192 10.6639 57.1682 10.6722C56.8865 10.675 56.7484 10.8169 56.7484 11.0979C56.7484 11.2398 56.7709 11.3872 56.8076 11.5236C56.8865 11.8018 56.9823 12.0744 57.0696 12.3499C57.9431 15.0374 58.8167 17.7249 59.6958 20.4097C59.8959 21.0217 60.3439 21.3306 60.9892 21.3361C61.3922 21.3361 61.7923 21.3361 62.1953 21.3361C62.9054 21.3361 63.3449 21.0217 63.5591 20.354C64.1283 18.5846 64.689 16.8096 65.2554 15.0402C65.2836 14.9539 65.3174 14.8705 65.3738 14.7174C65.4358 14.8899 65.4696 14.9817 65.5006 15.0736C66.0613 16.8374 66.6221 18.6013 67.1857 20.3624C67.3913 21.0078 67.845 21.3333 68.5326 21.3361C68.9243 21.3361 69.3187 21.3361 69.7104 21.3361C70.4121 21.3361 70.8432 21.0329 71.0602 20.3735C71.8717 17.8946 72.6776 15.413 73.4835 12.9313C73.6582 12.3916 73.847 11.8519 73.9851 11.301C74.095 10.8698 73.9062 10.6695 73.4582 10.6695C72.9284 10.6695 72.3986 10.6695 71.8689 10.6695C71.0235 10.6695 70.615 10.9755 70.3754 11.774C69.9612 13.1567 69.547 14.5422 69.1328 15.9249C69.0623 16.1614 68.9834 16.3978 68.9073 16.6343C68.7946 16.4897 68.7467 16.3394 68.7016 16.1892C68.2423 14.6395 67.7858 13.0899 67.3237 11.543C67.1434 10.9421 66.7658 10.6722 66.1346 10.6695C65.6415 10.6695 65.1484 10.6695 64.6552 10.6695C63.9508 10.6695 63.6014 10.9226 63.3985 11.5987C63.1139 12.5418 62.8405 13.485 62.5588 14.4281C62.3418 15.1626 62.122 15.8971 61.9022 16.6288H61.9107ZM52.6823 20.4792C52.6963 20.5655 52.7048 20.6016 52.7076 20.635C52.7414 21.172 52.9133 21.3333 53.4572 21.3361C53.9869 21.3361 54.5167 21.3361 55.0464 21.3361C55.5283 21.3361 55.7255 21.1386 55.7255 20.6601C55.7255 18.6319 55.7255 16.6009 55.7255 14.5728C55.7255 13.9051 55.6015 13.2624 55.2944 12.6615C54.7224 11.5458 53.7446 10.9699 52.5611 10.6778C51.4734 10.4079 50.3688 10.4357 49.2642 10.5248C48.4696 10.586 47.6862 10.7195 46.9508 11.0423C46.0519 11.4373 45.5052 12.0856 45.432 13.0843C45.3953 13.5907 45.6264 13.8578 46.1336 13.8605C46.5619 13.8605 46.993 13.8605 47.4214 13.8605C47.875 13.8605 48.2526 13.7047 48.5569 13.3598C48.6866 13.2151 48.85 13.0843 49.0219 12.9897C49.4727 12.7421 49.9715 12.6726 50.4787 12.6754C51.7524 12.6837 52.2708 13.1595 52.4033 14.4003C52.4315 14.6535 52.3554 14.7341 52.099 14.7314C51.0845 14.7202 50.0701 14.7258 49.0557 14.7286C48.2808 14.7286 47.5256 14.8426 46.8042 15.1292C45.4686 15.6634 44.7021 16.6065 44.6571 18.0699C44.6176 19.3692 45.3305 20.4542 46.6324 21.0496C47.3425 21.3723 48.0948 21.5003 48.8669 21.5364C50.0617 21.5921 51.1944 21.3779 52.2286 20.7547C52.3667 20.6712 52.5047 20.5877 52.6766 20.482L52.6823 20.4792ZM90.1735 20.5321C90.0327 21.0829 89.841 21.5754 89.4747 21.9816C89.0718 22.4295 88.5674 22.5853 87.9672 22.4935C87.553 22.4295 87.1359 22.3822 86.7189 22.3655C86.33 22.3516 86.1074 22.5853 86.099 22.9664C86.0905 23.2808 86.0961 23.598 86.099 23.9124C86.099 24.3408 86.2793 24.5801 86.7189 24.6246C87.5811 24.7136 88.4462 24.811 89.3113 24.8193C90.7343 24.8332 91.8135 24.1822 92.4757 22.947C92.8364 22.2737 93.1576 21.5615 93.369 20.8326C94.2791 17.6748 95.1414 14.506 96.0177 11.3399C96.1389 10.9032 95.9501 10.6694 95.4824 10.6667C94.8709 10.6667 94.2566 10.6667 93.6451 10.6667C93.1915 10.6667 92.8843 10.8976 92.7547 11.326C92.6927 11.5347 92.6363 11.7433 92.5772 11.952C92.0221 13.9329 91.4669 15.9138 90.9203 17.9002C90.8611 18.1172 90.7597 18.1701 90.5483 18.12C90.2017 18.0421 89.934 17.8557 89.7171 17.5858C89.3141 17.0822 89.0718 16.4952 88.8802 15.8915C88.4068 14.3947 87.9531 12.8896 87.4882 11.39C87.3416 10.9143 87.0148 10.6722 86.5216 10.6695C85.9017 10.6667 85.279 10.6667 84.659 10.6695C84.2251 10.6722 84.0476 10.9143 84.1716 11.326C84.6844 13.0092 85.1888 14.6952 85.7214 16.3756C86.0257 17.3354 86.4258 18.2535 87.0598 19.0576C87.6319 19.7837 88.3589 20.265 89.2887 20.4208C89.5649 20.4681 89.8467 20.4931 90.1792 20.5321H90.1735ZM36.4149 15.9805H36.398C36.398 17.5246 36.398 19.0659 36.398 20.61C36.398 21.1553 36.584 21.3333 37.1419 21.3361C37.7449 21.3361 38.3479 21.3361 38.9509 21.3361C39.5258 21.3361 39.7033 21.1581 39.7061 20.5933C39.7061 18.7265 39.7118 16.8569 39.7005 14.9901C39.7005 14.7397 39.7766 14.6674 40.0274 14.6701C41.0587 14.6813 42.0928 14.6785 43.1242 14.6729C43.5609 14.6729 43.7835 14.4559 43.792 14.0247C43.8004 13.6992 43.7948 13.3765 43.792 13.051C43.792 12.5223 43.6032 12.3387 43.0622 12.3387C42.0477 12.3387 41.0333 12.3304 40.0189 12.3443C39.7625 12.3471 39.6751 12.258 39.6977 12.0132C39.7258 11.7433 39.723 11.4707 39.7568 11.2036C39.8724 10.305 40.2387 9.83482 41.0108 9.65398C41.8167 9.46758 42.631 9.40915 43.4567 9.56216C43.7582 9.61781 44.0738 9.6345 44.3809 9.64006C44.8149 9.64563 45.0375 9.42305 45.0487 8.99461C45.0572 8.69692 45.0516 8.39923 45.0487 8.10155C45.0459 7.6731 44.8656 7.44775 44.4344 7.37263C44.0935 7.31421 43.7469 7.26691 43.4031 7.23631C42.0506 7.12503 40.7008 7.11111 39.368 7.42549C38.1507 7.71205 37.187 8.3436 36.7728 9.55939C36.5755 10.1409 36.4374 10.7696 36.4177 11.3817C36.367 12.9146 36.4008 14.4476 36.4008 15.9833L36.4149 15.9805ZM78.7388 11.8602C78.7388 11.6265 78.7444 11.4568 78.7388 11.2899C78.7275 10.892 78.5049 10.675 78.1019 10.6722C77.4257 10.6667 76.7494 10.6695 76.0731 10.6722C75.6335 10.6722 75.4137 10.8892 75.4137 11.3205C75.4137 14.442 75.4137 17.5636 75.4137 20.6851C75.4137 21.1191 75.6363 21.3333 76.0731 21.3361C76.7043 21.3389 77.3355 21.3361 77.9639 21.3361C78.55 21.3361 78.7388 21.1525 78.7388 20.5794C78.7388 18.7933 78.7641 17.0071 78.7247 15.221C78.7134 14.659 78.8909 14.2695 79.3023 13.9106C79.9702 13.3236 80.7113 12.9953 81.6214 13.0843C82.0751 13.1288 82.5344 13.1344 82.9909 13.1316C83.3798 13.1289 83.5883 12.923 83.5995 12.5418C83.6136 12.0466 83.6136 11.5486 83.5995 11.0534C83.5911 10.6945 83.3713 10.4747 83.0106 10.4691C81.7651 10.4552 80.5732 10.6694 79.5052 11.3511C79.2685 11.5013 79.0375 11.6599 78.736 11.8602H78.7388Z"
        fill="#666666" />
    <path
        d="M61.9099 16.6286C62.1297 15.8941 62.3467 15.1624 62.5665 14.428C62.8454 13.4848 63.1216 12.5389 63.4062 11.5985C63.6091 10.9225 63.9613 10.6693 64.6629 10.6693C65.1561 10.6693 65.6492 10.6693 66.1423 10.6693C66.7763 10.6693 67.1539 10.942 67.3314 11.5429C67.7936 13.0898 68.2501 14.6422 68.7094 16.189C68.7544 16.3393 68.8023 16.4895 68.9151 16.6342C68.9911 16.3977 69.07 16.1612 69.1405 15.9247C69.5547 14.542 69.9689 13.1565 70.3832 11.7738C70.6227 10.9726 71.0313 10.6693 71.8766 10.6693C72.4064 10.6693 72.9361 10.6693 73.4659 10.6693C73.9111 10.6693 74.0999 10.8724 73.9928 11.3008C73.8519 11.8517 73.6659 12.3887 73.4912 12.9312C72.6853 15.4128 71.8766 17.8945 71.0679 20.3734C70.8509 21.0327 70.4198 21.3332 69.7181 21.336C69.3265 21.336 68.932 21.336 68.5403 21.336C67.8527 21.336 67.3991 21.0105 67.1934 20.3622C66.6298 18.5984 66.069 16.8345 65.5083 15.0734C65.4773 14.9788 65.4435 14.8898 65.3815 14.7173C65.3251 14.8703 65.2885 14.9538 65.2631 15.04C64.6968 16.8122 64.136 18.5845 63.5668 20.3539C63.3527 21.0216 62.9103 21.3332 62.203 21.336C61.8 21.336 61.3999 21.336 60.9969 21.336C60.3517 21.3332 59.9036 21.0216 59.7036 20.4095C58.8244 17.7248 57.9537 15.0372 57.0773 12.3497C56.9872 12.0743 56.8914 11.8016 56.8153 11.5234C56.7758 11.3871 56.7533 11.2396 56.7561 11.0978C56.7561 10.8168 56.8942 10.6777 57.176 10.6721C57.8241 10.6637 58.475 10.6582 59.1231 10.6749C59.7205 10.6916 60.1488 11.0338 60.3235 11.6097C60.8025 13.1899 61.2759 14.7729 61.7521 16.356C61.7803 16.4478 61.8113 16.5396 61.8423 16.6286C61.8677 16.6286 61.893 16.6286 61.9184 16.6286H61.9099Z"
        fill="#F2F2F2" />
    <path
        d="M52.683 20.4785C52.5111 20.5842 52.3731 20.6677 52.235 20.7511C51.2008 21.3716 50.0652 21.5886 48.8733 21.5329C48.104 21.4967 47.3489 21.3716 46.6388 21.046C45.3369 20.4507 44.6268 19.3656 44.6635 18.0664C44.7057 16.603 45.4722 15.6626 46.8106 15.1257C47.532 14.8363 48.2872 14.7251 49.0621 14.7251C50.0765 14.7251 51.0909 14.7167 52.1054 14.7278C52.3618 14.7306 52.4379 14.6527 52.4097 14.3968C52.2744 13.1559 51.7559 12.6802 50.4851 12.6718C49.9779 12.6691 49.4791 12.7386 49.0283 12.9862C48.8564 13.0808 48.693 13.2088 48.5633 13.3563C48.259 13.6985 47.8814 13.857 47.4278 13.857C46.9994 13.857 46.5683 13.857 46.14 13.857C45.6356 13.857 45.4017 13.5844 45.4384 13.0808C45.5116 12.0848 46.0611 11.4338 46.9572 11.0387C47.6926 10.716 48.476 10.5825 49.2706 10.5213C50.3752 10.435 51.4798 10.4072 52.5675 10.6743C53.751 10.9664 54.7288 11.5451 55.3008 12.6579C55.6079 13.2589 55.7319 13.8988 55.7319 14.5693C55.7319 16.5974 55.7319 18.6284 55.7319 20.6565C55.7319 21.1379 55.5347 21.3326 55.0528 21.3326C54.5231 21.3326 53.9933 21.3326 53.4636 21.3326C52.9197 21.3326 52.7478 21.1685 52.714 20.6315C52.714 20.5953 52.7027 20.562 52.6887 20.4757L52.683 20.4785ZM50.7246 16.9257C50.7246 16.9257 50.7246 16.9369 50.7246 16.9396C50.223 16.9396 49.7187 16.9174 49.2199 16.9452C48.7296 16.973 48.3182 17.1789 48.0984 17.6435C47.7772 18.3251 48.1773 19.0874 48.9804 19.246C50.1949 19.4853 51.2854 19.1069 52.3111 18.4921C52.3759 18.4531 52.4153 18.3251 52.4181 18.2389C52.4294 17.8883 52.4153 17.535 52.4266 17.1845C52.4322 16.9814 52.3477 16.9174 52.1504 16.9202C51.677 16.9285 51.2008 16.9229 50.7274 16.9229L50.7246 16.9257Z"
        fill="#F2F2F2" />
    <path
        d="M90.1743 20.5338C89.8418 20.4921 89.56 20.4698 89.2839 20.4225C88.3568 20.2639 87.627 19.7854 87.055 19.0593C86.4238 18.2553 86.0208 17.3372 85.7165 16.3773C85.1868 14.6997 84.6795 13.0137 84.1667 11.3278C84.0399 10.9132 84.2202 10.674 84.6542 10.6712C85.2741 10.6656 85.8969 10.6684 86.5168 10.6712C87.0099 10.6712 87.3368 10.916 87.4833 11.3918C87.9482 12.8913 88.4019 14.3964 88.8753 15.8932C89.0669 16.4969 89.3064 17.084 89.7122 17.5875C89.9292 17.8574 90.1969 18.0438 90.5435 18.1217C90.7548 18.169 90.8562 18.1161 90.9154 17.9019C91.4621 15.9183 92.02 13.9374 92.5723 11.9537C92.6315 11.7451 92.685 11.5364 92.7498 11.3278C92.8794 10.8993 93.1866 10.6712 93.6403 10.6684C94.2517 10.6684 94.866 10.6684 95.4775 10.6684C95.9452 10.6684 96.134 10.9049 96.0129 11.3417C95.1365 14.5077 94.2743 17.6766 93.3641 20.8343C93.1528 21.566 92.8315 22.2754 92.4709 22.9487C91.8087 24.184 90.7294 24.835 89.3064 24.8211C88.4414 24.8127 87.5763 24.7153 86.714 24.6263C86.2744 24.5818 86.0941 24.3425 86.0941 23.9141C86.0941 23.5997 86.0885 23.2825 86.0941 22.9682C86.1026 22.587 86.3252 22.3505 86.714 22.3672C87.1311 22.3839 87.5509 22.4312 87.9623 22.4952C88.5625 22.587 89.0669 22.4312 89.4699 21.9833C89.8362 21.5771 90.0278 21.0847 90.1687 20.5338H90.1743Z"
        fill="#F2F2F2" />
    <path
        d="M36.4153 15.9792C36.4153 14.4463 36.3815 12.9105 36.4322 11.3776C36.452 10.7655 36.59 10.1368 36.7873 9.55531C37.2015 8.33952 38.1652 7.71075 39.3825 7.42141C40.7125 7.10703 42.0651 7.12095 43.4177 7.23223C43.7643 7.26005 44.108 7.30735 44.449 7.36855C44.8801 7.44367 45.0605 7.66903 45.0633 8.09748C45.0633 8.39516 45.0689 8.69285 45.0633 8.99054C45.052 9.41898 44.8294 9.64434 44.3954 9.63599C44.0855 9.63043 43.7727 9.61373 43.4712 9.55809C42.6456 9.40508 41.8312 9.4635 41.0253 9.6499C40.2532 9.82795 39.8869 10.3009 39.7714 11.1995C39.7376 11.4666 39.7376 11.7393 39.7122 12.0091C39.6868 12.2512 39.7742 12.343 40.0334 12.3402C41.0479 12.3291 42.0623 12.3346 43.0767 12.3346C43.6177 12.3346 43.8037 12.5183 43.8065 13.0469C43.8065 13.3724 43.8122 13.6979 43.8065 14.0206C43.7952 14.4518 43.5755 14.6661 43.1387 14.6689C42.1074 14.6716 41.0732 14.6772 40.0419 14.6661C39.7911 14.6633 39.7122 14.7384 39.715 14.986C39.7235 16.8528 39.7207 18.7224 39.7207 20.5892C39.7207 21.154 39.5403 21.332 38.9655 21.332C38.3625 21.332 37.7594 21.332 37.1564 21.332C36.5985 21.332 36.4125 21.1512 36.4125 20.6059C36.4125 19.0618 36.4125 17.5205 36.4125 15.9764H36.4294L36.4153 15.9792Z"
        fill="#F2F2F2" />
    <path
        d="M78.7382 11.8604C79.0398 11.6601 79.2708 11.5015 79.5075 11.3513C80.5755 10.6697 81.7674 10.4555 83.0129 10.4694C83.3708 10.4722 83.5906 10.6947 83.6018 11.0536C83.6159 11.5488 83.6159 12.0468 83.6018 12.5421C83.5906 12.9232 83.382 13.1291 82.9932 13.1319C82.5367 13.1347 82.0774 13.1263 81.6237 13.0846C80.7107 12.9983 79.9725 13.3238 79.3046 13.9109C78.8932 14.2698 78.7157 14.6593 78.727 15.2212C78.7664 17.0074 78.7411 18.7935 78.7411 20.5796C78.7411 21.1527 78.5523 21.3364 77.9662 21.3364C77.335 21.3364 76.7038 21.3364 76.0754 21.3364C75.6386 21.3364 75.416 21.1194 75.416 20.6853C75.416 17.5638 75.416 14.4423 75.416 11.3207C75.416 10.8895 75.6358 10.6725 76.0754 10.6725C76.7517 10.6697 77.428 10.6697 78.1042 10.6725C78.5072 10.6725 78.7298 10.8923 78.7411 11.2901C78.7467 11.4598 78.7411 11.6267 78.7411 11.8604H78.7382Z"
        fill="#F2F2F2" />
    <path
        d="M50.7245 16.9247C51.1979 16.9247 51.6741 16.9303 52.1475 16.922C52.3448 16.9192 52.4293 16.9832 52.4237 17.1863C52.4124 17.5368 52.4265 17.8901 52.4152 18.2407C52.4124 18.3269 52.3729 18.4549 52.3081 18.4939C51.2853 19.1087 50.1919 19.4871 48.9774 19.2478C48.1744 19.0892 47.7742 18.3269 48.0955 17.6453C48.3153 17.1807 48.7267 16.9748 49.217 16.947C49.7157 16.9192 50.2201 16.9414 50.7217 16.9414C50.7217 16.9359 50.7217 16.9303 50.7217 16.9275L50.7245 16.9247Z"
        fill="#AFADAC" />
    <path
        d="M31.2574 15.902C31.2574 22.8824 25.5259 28.5384 18.4588 28.5384C17.1118 28.5384 15.8156 28.3326 14.5983 27.9542C12.7639 27.3811 11.107 26.4129 9.73475 25.147C7.22687 22.8407 5.66016 19.5522 5.66016 15.902C5.66016 8.92169 11.3916 3.26562 18.4588 3.26562C19.9888 3.26562 21.4569 3.52993 22.818 4.0168C24.5847 4.64834 26.174 5.65269 27.4815 6.93803C29.8146 9.22772 31.2602 12.3993 31.2602 15.9048L31.2574 15.902Z"
        fill="#F2F2F2" />
    <path
        d="M24.3956 21.2669L22.6739 20.4156C22.6739 20.4156 19.7349 25.6989 14.598 27.9524C12.7635 27.3793 11.1067 26.4111 9.73438 25.1452C10.8587 24.9839 12.6846 24.4135 14.6064 22.5467C17.7427 19.5031 18.4612 17.8282 18.4612 17.8282L17.1171 16.9435C16.655 16.6403 16.7451 15.9447 17.2693 15.7667L23.1839 13.7329C23.5869 13.5938 24.0152 13.8553 24.0715 14.2727L24.9507 20.883C24.9901 21.1807 24.6745 21.4033 24.4012 21.2697L24.3956 21.2669Z"
        fill="#666666" />
    <path
        d="M26.1765 13.9534C26.0328 14.3151 25.4974 14.2622 25.4298 13.8783L25.0353 11.6414L22.1132 12.5373C21.7891 12.6374 21.5017 12.3091 21.6454 12.0059C22.0258 11.2046 22.595 9.8414 23.0318 8.08588C23.446 6.42216 23.1445 4.95877 22.8148 4.01562C24.5816 4.64717 26.1709 5.65151 27.4783 6.93686C27.715 9.58544 26.7964 12.4065 26.1765 13.9534Z"
        fill="#666666" />
</svg>