<?xml version="1.0" encoding="UTF-8"?>
<svg xmlns="http://www.w3.org/2000/svg" xmlns:xlink="http://www.w3.org/1999/xlink" viewBox="0 0 2414 1573.82">
  <defs>
    <linearGradient id="linear-gradient" x1="1864.84" y1="605.35" x2="1865.24" y2="590.27" gradientUnits="userSpaceOnUse">
      <stop offset="0" stop-color="#2bb673"/>
      <stop offset=".06" stop-color="#25a676"/>
      <stop offset=".29" stop-color="#136d81"/>
      <stop offset=".46" stop-color="#074a88"/>
      <stop offset=".55" stop-color="#033d8b"/>
      <stop offset=".6" stop-color="#05377d"/>
      <stop offset=".66" stop-color="#073371"/>
      <stop offset=".75" stop-color="#08306a"/>
      <stop offset="1" stop-color="#093069"/>
    </linearGradient>
    <linearGradient id="linear-gradient-2" x1="1814.18" y1="604.44" x2="1814.58" y2="589.36" xlink:href="#linear-gradient"/>
    <clipPath id="clippath">
      <path d="M1819.17,628.71c-1.65,0-2.96,1.43-2.78,3.07,1.53,13.56,13.03,24.1,27,24.1s25.48-10.54,27-24.1c.18-1.64-1.13-3.07-2.78-3.07h-48.45Z" fill="#c93939"/>
    </clipPath>
    <clipPath id="clippath-1">
      <rect x="2020.37" y="947.34" width="21.12" height="19.25" rx="2.66" ry="2.66" transform="translate(-210.87 835.34) rotate(-22.12)" fill="#2d2d2d"/>
    </clipPath>
    <linearGradient id="linear-gradient-3" x1="1643.21" y1="938.99" x2="1643.16" y2="908.62" xlink:href="#linear-gradient"/>
    <linearGradient id="linear-gradient-4" x1="1566.31" y1="941.54" x2="1565.75" y2="908.29" xlink:href="#linear-gradient"/>
    <clipPath id="clippath-2">
      <circle cx="1815.92" cy="591.27" r="21.14" transform="translate(-87.27 433.03) rotate(-13.28)" fill="#99fff5" opacity=".43"/>
    </clipPath>
    <clipPath id="clippath-3">
      <circle cx="1868.06" cy="591.47" r="21.14" transform="translate(-85.92 445.01) rotate(-13.28)" fill="#99fff5" opacity=".43"/>
    </clipPath>
    <linearGradient id="linear-gradient-5" x1="2004.45" y1="756.15" x2="2001.11" y2="794.53" gradientUnits="userSpaceOnUse">
      <stop offset="0" stop-color="#230505"/>
      <stop offset=".05" stop-color="#2d0909"/>
      <stop offset=".18" stop-color="#481414"/>
      <stop offset=".33" stop-color="#5d1d1d"/>
      <stop offset=".49" stop-color="#6b2323"/>
      <stop offset=".69" stop-color="#742626"/>
      <stop offset="1" stop-color="#772828"/>
    </linearGradient>
    <linearGradient id="linear-gradient-6" x1="1929.53" y1="753.94" x2="1924.87" y2="792.18" gradientUnits="userSpaceOnUse">
      <stop offset="0" stop-color="#230505"/>
      <stop offset=".02" stop-color="#270707"/>
      <stop offset=".18" stop-color="#441212"/>
      <stop offset=".34" stop-color="#5a1c1c"/>
      <stop offset=".52" stop-color="#6a2222"/>
      <stop offset=".72" stop-color="#742626"/>
      <stop offset="1" stop-color="#772828"/>
    </linearGradient>
  </defs>
  <g isolation="isolate">
    <g id="Layer_9" data-name="Layer 9">
      <rect x="147.78" y="1441.88" width="2114.96" height="45.97" rx="22.98" ry="22.98" fill="#e5e5e5"/>
    </g>
    <g id="Layer_6" data-name="Layer 6">
      <circle cx="1780.51" cy="571.09" r="23.04" fill="#3f1010"/>
      <rect x="1766.23" y="680.13" width="216.58" height="236.56" rx="85.6" ry="85.6" fill="#19359b"/>
      <circle cx="1921.72" cy="610.02" r="24.85" fill="#3f1010"/>
      <circle cx="1800.32" cy="606.85" r="24.85" fill="#3f1010"/>
      <circle cx="1916.85" cy="599.78" r="13.44" fill="#f49a78"/>
      <path d="M1903,715.84l-101.61,1.83-9.02-31.04c0-4.57.65-8.52,5.17-8.52h107.38c4.25,0,7.7,3.49,7.7,7.79l-9.62,29.94Z" fill="#003238"/>
      <rect x="1781.45" y="982.67" width="62.69" height="391.51" fill="#042a40"/>
      <path d="M1783.64,1364.86v38.29c0,2.14-.46,4.3-1.59,6.1-2.99,4.76-7.63,4.33-13.31.47-6.23-4.34-13.93-6.6-22.17-5.8-15.83,1.53-28.7,14.68-30.35,31.02-.48,4.75-.03,9.33,1.17,13.57,1.03,3.62,4.22,6.13,7.87,6.13h58.37s51.95,0,51.95,0c3.31,0,6-2.77,6-6.2v-83.57h-57.95Z" fill="#1cad7d"/>
      <rect x="1775.91" y="1364.86" width="73.4" height="15.96" fill="#e8e8e8"/>
      <path d="M1789.43,1435.38h52.15v13.05c0,3.42-2.69,6.2-6,6.2h-110.32c-3.65,0-6.84-2.5-7.87-6.12-1.2-4.24-1.65-8.82-1.17-13.57,1.64-16.33,14.52-29.48,30.35-31.02,8.24-.8,15.94,1.46,22.17,5.8,0,0,7.18,4.84,10.07,11.91,2.9,7.07,4.83,12.46,10.62,13.75Z" fill="#e8e8e8"/>
      <rect x="1861.9" y="982.67" width="62.69" height="391.51" fill="#042a40"/>
      <path d="M1888.44,1365.35v38.29c0,2.14-.46,4.3-1.59,6.1-2.99,4.76-7.63,4.33-13.31.47-6.23-4.34-13.93-6.6-22.17-5.8-15.83,1.53-28.7,14.68-30.35,31.02-.48,4.75-.03,9.33,1.17,13.57,1.03,3.62,4.22,6.13,7.87,6.13h58.37s51.95,0,51.95,0c3.31,0,6-2.77,6-6.2v-83.57s-57.95,0-57.95,0Z" fill="#1cad7d"/>
      <rect x="1857.14" y="1364.86" width="73.4" height="15.96" transform="translate(3787.68 2745.68) rotate(-180)" fill="#e8e8e8"/>
      <path d="M1894.24,1439.06h52.15s0,13.05,0,13.05c0,3.42-2.69,6.2-6,6.2h-51.95s-58.37,0-58.37,0c-3.65,0-6.84-2.51-7.87-6.13-1.2-4.24-1.65-8.82-1.17-13.57,1.64-16.33,14.52-29.48,30.35-31.02,8.24-.8,15.94,1.46,22.17,5.8,0,0,7.18,4.84,10.07,11.91,2.9,7.07,4.83,12.46,10.62,13.75Z" fill="#e8e8e8"/>
      <path d="M1765.16,725.66c3.61-8.41,16.93-10.85,29.6-5.41h0c12.67,5.44,20.07,16.77,16.46,25.19l-56.38,130.07-45.99-18.72,56.31-131.13Z" fill="#108b65"/>
      <path d="M1755.7,839.53c-3.34,13.94-10.54,24.44-16.47,24.44-.38,0-.76-.04-1.13-.13l-66.67-16.36-28.06-6.88,12.17-53.59,29.31,7.02,66.17,15.86c6.13,1.46,8.24,14.81,4.68,29.64Z" fill="#108b65"/>
      <polygon points="2019.46 922.02 2047.39 987.07 2001.33 1006.85 1972.69 938.69 2019.46 922.02" fill="#074f73"/>
      <path d="M1986.63,971.94l46.35-18.42,2.66,6.2c.11,0,.22,0,.33,0,20.62,0,37.22,17.19,36.26,38.01-.87,18.83-16.32,34.01-35.17,34.57-16.77.49-31.08-10.4-35.77-25.52l-14.66-34.82Z" fill="#f49a78"/>
      <path d="M1942.84,743.59c-5.44-12.67-20.25-18.58-32.92-13.14h0c-12.67,5.44-18.58,20.25-13.14,32.92l84.65,195.91,46.18-18.28-84.77-197.41Z" fill="#108b65"/>
      <path d="M1820.4,706.42h60.77c39.05,0,70.76,31.71,70.76,70.76v105.03c0,6.69-5.43,12.12-12.12,12.12h-178.03c-6.69,0-12.12-5.43-12.12-12.12v-105.03c0-39.05,31.71-70.76,70.76-70.76Z" fill="#108b65"/>
      <path d="M1762.32,891.11h181.81v61.59c0,34.89-28.33,63.22-63.22,63.22h-55.38c-34.89,0-63.22-28.33-63.22-63.22v-61.59h0Z" fill="#042a40"/>
      <path d="M1857.15,729.84l-3.92,1.22-3.93-1.22c-14.83,0-26.85-12.02-26.85-26.85v-46.65h61.56v46.65c0,14.83-12.02,26.85-26.85,26.85Z" fill="#f27145"/>
      <path d="M1806.41,518.41h93.62c7.02,0,12.72,5.7,12.72,12.72v96.73c0,25.82-20.97,46.79-46.79,46.79h-25.49c-25.82,0-46.79-20.97-46.79-46.79v-96.73c0-7.02,5.7-12.72,12.72-12.72Z" fill="#f49a78"/>
      <rect x="1837.99" y="605.06" width="7.75" height="9.92" rx="3.87" ry="3.87" fill="#f27145"/>
      <circle cx="1829.37" cy="464.94" r="35.48" fill="#3f1010"/>
      <circle cx="1853.23" cy="479.7" r="35.48" fill="#3f1010"/>
      <circle cx="1836.06" cy="513.26" r="33.57" fill="#3f1010"/>
      <circle cx="1805.15" cy="513.26" r="33.57" fill="#3f1010"/>
      <circle cx="1881.99" cy="517.97" r="35.35" fill="#3f1010"/>
      <circle cx="1931.92" cy="500.09" r="36.59" fill="#3f1010"/>
      <circle cx="1880.91" cy="464.94" r="26.73" fill="#3f1010"/>
      <circle cx="1868.06" cy="451.75" r="26.73" fill="#3f1010"/>
      <circle cx="1908.72" cy="460.08" r="26.73" fill="#3f1010"/>
      <circle cx="1908.72" cy="477.28" r="26.73" fill="#3f1010"/>
      <circle cx="1793.69" cy="495.31" r="31.8" fill="#3f1010"/>
      <circle cx="1775.47" cy="533.83" r="31.25" fill="#3f1010"/>
      <circle cx="1925.56" cy="530.07" r="40.35" fill="#3f1010"/>
      <circle cx="1935.44" cy="538.42" r="40.35" fill="#3f1010"/>
      <circle cx="1941.41" cy="577.16" r="24.85" fill="#3f1010"/>
      <circle cx="1930.3" cy="574.45" r="24.85" fill="#3f1010"/>
      <g>
        <rect x="1853.23" y="575.69" width="24.26" height="31.16" rx="8.28" ry="8.28" fill="#fff"/>
        <rect x="1857.68" y="579.92" width="15.05" height="23.33" rx="4.55" ry="4.55" fill="url(#linear-gradient)"/>
        <circle cx="1860.53" cy="582.41" r="2.45" fill="#fff"/>
      </g>
      <g>
        <rect x="1802.57" y="574.77" width="24.26" height="31.16" rx="8.28" ry="8.28" fill="#fff"/>
        <rect x="1807.02" y="579.01" width="15.05" height="23.33" rx="4.55" ry="4.55" fill="url(#linear-gradient-2)"/>
        <circle cx="1809.87" cy="581.5" r="2.45" fill="#fff"/>
      </g>
      <rect x="1851.67" y="553.79" width="29.61" height="10.72" rx="4.99" ry="4.99" fill="#3f1010"/>
      <rect x="1797.73" y="550.49" width="29.61" height="10.72" rx="4.99" ry="4.99" fill="#3f1010"/>
      <g>
        <path d="M1819.17,628.71c-1.65,0-2.96,1.43-2.78,3.07,1.53,13.56,13.03,24.1,27,24.1s25.48-10.54,27-24.1c.18-1.64-1.13-3.07-2.78-3.07h-48.45Z" fill="#c93939"/>
        <g clip-path="url(#clippath)">
          <path d="M1819.48,627.79h46.75v.66c0,5.03-4.08,9.11-9.11,9.11h-28.52c-5.03,0-9.11-4.08-9.11-9.11v-.66h0Z" fill="#fff"/>
        </g>
      </g>
      <path d="M1914.2,716.4c1.32-.33,2.27-1.5,2.31-2.86.16-4.66.08-16.06-3.19-31.19-.74-3.4-4.32-5.38-7.59-4.17-12.25,4.55-54.29,18.37-65.61,52.4-.09.26.15.51.41.45,17.02,2.94,45.21-5.72,73.66-14.63Z" fill="#06565b"/>
      <path d="M1790.18,716.37c-1.33-.32-2.29-1.47-2.35-2.83-.22-4.66-.26-16.06,3.01-31.19.74-3.4,4.32-5.38,7.59-4.17,12.25,4.55,30.75,18.36,42.1,52.4.09.26-.15.51-.41.45l-49.94-14.67Z" fill="#06565b"/>
      <rect x="1771.72" y="1393.86" width="26.3" height="5.31" rx="2.48" ry="2.48" fill="#e8e8e8"/>
      <rect x="1771.72" y="1402.13" width="26.3" height="5.31" rx="2.48" ry="2.48" fill="#e8e8e8"/>
      <rect x="1907.77" y="1393.86" width="26.3" height="5.31" rx="2.48" ry="2.48" transform="translate(3841.85 2793.04) rotate(-180)" fill="#e8e8e8"/>
      <rect x="1907.77" y="1402.13" width="26.3" height="5.31" rx="2.48" ry="2.48" transform="translate(3841.85 2809.57) rotate(-180)" fill="#e8e8e8"/>
      <rect x="1922.27" y="714.5" width="16.09" height="160.9" rx="7.5" ry="7.5" fill="#19359b"/>
      <rect x="1782.81" y="710.22" width="16.09" height="160.9" rx="7.5" ry="7.5" fill="#19359b"/>
      <circle cx="1882.64" cy="630.93" r="2.46" fill="#ea6d42"/>
      <circle cx="1876.27" cy="626.62" r="1.03" fill="#ea6d42"/>
      <circle cx="1879.76" cy="619.85" r="1.64" fill="#ea6d42"/>
      <circle cx="1883.46" cy="612.05" r="1.23" fill="#ea6d42"/>
      <circle cx="1870.73" cy="618.21" r="1.64" fill="#ea6d42"/>
      <circle cx="1861.29" cy="615.74" r="1.23" fill="#ea6d42"/>
      <g>
        <circle cx="1819.42" cy="618.44" r="2.05" fill="#ea6d42"/>
        <circle cx="1810.18" cy="620.29" r="1.44" fill="#ea6d42"/>
        <circle cx="1829.48" cy="616.18" r="1.03" fill="#ea6d42"/>
        <circle cx="1814.7" cy="627.68" r="1.44" fill="#ea6d42"/>
        <circle cx="1808.33" cy="631.99" r="2.05" fill="#ea6d42"/>
        <circle cx="1807.31" cy="613.72" r="1.03" fill="#ea6d42"/>
        <circle cx="1803.18" cy="623.26" r="1.61" fill="#ea6d42"/>
        <circle cx="1801.03" cy="616.82" r="1.61" fill="#ea6d42"/>
        <circle cx="1801.03" cy="629.7" r="1.61" fill="#ea6d42"/>
        <circle cx="1796.2" cy="622.72" r="1.07" fill="#ea6d42"/>
      </g>
      <circle cx="1867.54" cy="622.08" r="1.07" fill="#ea6d42"/>
      <circle cx="1889" cy="615.64" r="1.07" fill="#ea6d42"/>
      <circle cx="1886.85" cy="623.15" r="1.07" fill="#ea6d42"/>
      <g>
        <rect x="1984.29" y="960.18" width="55.48" height="11.96" rx="1.24" ry="1.24" transform="translate(-215.72 828.89) rotate(-22.12)" fill="#232323"/>
        <rect x="2018.97" y="946.06" width="23.91" height="21.8" rx="2.66" ry="2.66" transform="translate(-210.87 835.34) rotate(-22.12)" fill="#191919"/>
        <g>
          <rect x="2020.37" y="947.34" width="21.12" height="19.25" rx="2.66" ry="2.66" transform="translate(-210.87 835.34) rotate(-22.12)" fill="#2d2d2d"/>
          <g clip-path="url(#clippath-1)">
            <rect x="2016.44" y="956.74" width="27.54" height="4.29" transform="translate(781.86 -907.35) rotate(30.94)" fill="#d9fffe" mix-blend-mode="lighten" opacity=".29"/>
            <rect x="2022.45" y="951.87" width="27.54" height="2.6" transform="translate(779.78 -911.25) rotate(30.94)" fill="#d9fffe" mix-blend-mode="lighten" opacity=".29"/>
          </g>
        </g>
      </g>
      <g>
        <path d="M1840.55,772.25c-1.59-.18-2.94-1.33-4.56-1.77-3.36-.91-7-1.06-10.29.2-18.86,7.23-10.25,37.25,4.92,43.48,0,0,2.3.94,6.39-1.41,0,0,4.64-1.81,10.96.54,6.33,2.35,9.45-1.81,9.45-1.81,0,0,5.96-6.14,7.74-11.74,0,0-9.8-4.12-8.16-16.52,0,0,2.54-5.9,6.15-7.7.36-.18.54-.4.59-.63.02-.09.01-.19,0-.29-.33-1.48-4.8-3.58-5.37-3.79-2.77-1.04-5.89-1.53-8.9-1.2-1.56.17-3.1.56-4.57,1.13-1.42.55-2.75,1.69-4.34,1.51Z" fill="#70baa3"/>
        <path d="M1840.49,768.08c.07-1.03.37-2.05.77-2.99,2.11-5.1,6.41-9.52,12.26-9.46.27,0-2.72,7.32-3.02,7.79-1.25,1.97-2.91,3.7-4.99,4.8-1.15.61-2.5,1.09-3.8,1.2-1.18.09-1.29,0-1.22-1.26,0-.03,0-.06,0-.09Z" fill="#70baa3"/>
      </g>
      <rect x="1825.93" y="722.51" width="4.26" height="91.89" rx="1.99" ry="1.99" fill="#fff"/>
      <path d="M1849.16,724.64c0-1.18.95-2.13,2.13-2.13h0c1.18,0,2.13.95,2.13,2.13v87.63c0,1.18-.95,2.13-2.13,2.13h0c-1.18,0-2.13-.95-2.13-2.13" fill="#fff"/>
      <rect x="1842.47" y="788.84" width="17.65" height="3.65" rx="1.14" ry="1.14" fill="#fff"/>
      <rect x="1844.3" y="791.89" width="14" height="3.65" rx="1.14" ry="1.14" fill="#fff"/>
      <rect x="1819.23" y="788.84" width="17.65" height="3.65" rx="1.14" ry="1.14" fill="#fff"/>
      <rect x="1821.06" y="791.89" width="14" height="3.65" rx="1.14" ry="1.14" fill="#fff"/>
      <polygon points="1675.37 791.95 1661.95 845.4 1622.85 835.41 1635.02 781.82 1675.37 791.95" fill="#f49a78"/>
      <polygon points="1690.77 795.66 1677.35 849.11 1649.29 842.23 1661.46 788.64 1690.77 795.66" fill="#074f73"/>
      <circle cx="1619.7" cy="804.62" r="36.08" fill="#f49a78"/>
    </g>
    <g id="Layer_1" data-name="Layer 1">
      <path d="M312.43,431.69l75.85,748.83,1008.46,7.75-73.12-741.87c-.7-7.12-6.69-12.54-13.84-12.54l-997.35-2.17Z" fill="#efefef" stroke="#000" stroke-miterlimit="10" stroke-width="3"/>
      <line x1="378.3" y1="1086.21" x2="1386.67" y2="1086.21" fill="none" stroke="#231f20" stroke-miterlimit="10" stroke-width="3"/>
      <polygon points="310.61 432.43 291.89 452.45 369.34 1202.2 1384.64 1203.5 1396.73 1188.26 388.28 1180.52 310.61 432.43" fill="#ffedf4" stroke="#000" stroke-miterlimit="10" stroke-width="2"/>
      <line x1="391.34" y1="1177.01" x2="372.41" y2="1198.69" fill="none" stroke="#231f20" stroke-miterlimit="10" stroke-width="3"/>
      <polygon points="511.26 1203.22 378.81 1427.86 396.88 1427.86 528.37 1203.11 511.26 1203.22" fill="none" stroke="#000" stroke-miterlimit="10" stroke-width="3"/>
      <rect x="377.26" y="1426.02" width="697.09" height="14.22" rx="6.12" ry="6.12" fill="#ffedf4" stroke="#000" stroke-miterlimit="10" stroke-width="2"/>
      <polygon points="528.38 1202.2 785.36 1205.13 665.18 1426.02 397.07 1425.47 528.38 1202.2" fill="#ffedf4" stroke="#000" stroke-miterlimit="10" stroke-width="2"/>
      <polygon points="1372.93 1077.91 392.67 1072.97 328.64 444.65 1308.39 444.65 1372.93 1077.91" fill="#fff"/>
      <g>
        <path d="M1322.37,433.86l64.29,652.35-1005.44,7.25-68.8-661.77,1009.94,2.17ZM1356.69,1075.09c8.53.02,15.21-7.35,14.34-15.85l-61.32-601.67c-.74-7.34-6.94-12.92-14.31-12.92H344.58c-8.53,0-15.18,7.37-14.31,15.84l61.1,599.58c.74,7.33,6.91,12.91,14.28,12.92l951.05,2.1Z" fill="#0069ff"/>
        <g>
          <polygon points="312.43 431.69 1322.37 433.86 1386.67 1086.21 381.23 1093.46 312.43 431.69" fill="none" stroke="#000" stroke-miterlimit="10" stroke-width="2"/>
          <path d="M344.58,444.66h950.82c7.38,0,13.57,5.58,14.31,12.92l61.32,601.67c.87,8.49-5.81,15.87-14.34,15.85l-951.05-2.1c-7.37-.01-13.54-5.59-14.28-12.92l-61.1-599.58c-.87-8.47,5.79-15.84,14.31-15.84Z" fill="none" stroke="#000" stroke-miterlimit="10" stroke-width="2"/>
        </g>
      </g>
      <path d="M665.58,1062.15l-387.32,1.75c-10.86.05-19.99-7.23-21.1-16.83l-32.89-379.18c-1.28-11.02,8.43-20.62,20.91-20.67l375.74-1.4c10.71-.04,19.75,7.05,21.04,16.49l44.46,378.83c1.52,11.13-8.22,20.95-20.84,21.01Z" fill="#7a60f4"/>
      <path d="M681.5,1045.95l-387.32,1.75c-10.86.05-19.99-7.23-21.1-16.83l-32.89-379.18c-1.28-11.02,8.43-20.62,20.91-20.67l375.74-1.4c10.71-.04,19.75,7.05,21.04,16.49l44.46,378.83c1.52,11.13-8.22,20.95-20.84,21.01Z" fill="#eeefff" stroke="#381cc4" stroke-miterlimit="10" stroke-width="2"/>
      <path d="M664.93,499.04l-381.58,1.72c-10.86.05-19.99-7.23-21.1-16.83l-5.73-63.55c-1.28-11.02,8.43-20.62,20.91-20.67h381.33c10.71-.04,19.75,7.05,21.04,16.49l5.97,61.83c1.52,11.13-8.22,20.95-20.84,21.01Z" fill="#006c73"/>
      <path d="M674.76,488.69l-381.58,1.72c-10.86.05-19.99-7.23-21.1-16.83l-5.73-63.55c-1.28-11.02,8.43-20.62,20.91-20.67h381.33c10.71-.04,19.75,7.05,21.04,16.49l5.97,61.83c1.52,11.13-8.22,20.95-20.84,21.01Z" fill="#f0f8fc" stroke="#006c73" stroke-miterlimit="10" stroke-width="3"/>
      <path d="M1272.35,846.01l-488.6-9.43c-13.7-.26-25-9.72-26.11-21.86l-30.09-479.26c-1.28-13.94,11.25-25.76,26.99-25.44l473.98,9.52c13.51.27,24.7,9.48,26.04,21.43l44.71,479.17c1.58,14.08-11,26.18-26.92,25.87Z" fill="#006c73"/>
      <path d="M1288.29,829.73l-98.07-1.89-70.96-1.36-21.13-.41-144.46-2.79-153.97-2.97c-13.7-.26-25-9.72-26.12-21.85l-30.09-479.25c-1.28-13.95,11.26-25.76,26.99-25.45l203.85,4.1,159.45,3.19,110.69,2.23c13.51.26,24.7,9.48,26.04,21.42l44.71,479.17c1.58,14.09-11,26.18-26.93,25.87Z" fill="#f0f8fc" stroke="#006c73" stroke-miterlimit="10" stroke-width="3"/>
      <g>
        <circle cx="1575.67" cy="1083.17" r="39.51"/>
        <circle cx="1551.56" cy="1123.35" r="39.51"/>
        <circle cx="1609.15" cy="1139.42" r="39.51"/>
        <circle cx="1568.31" cy="1183.55" r="39.51"/>
        <circle cx="1583.62" cy="969.34" r="39.26"/>
        <circle cx="1552.89" cy="1010.84" r="39.51"/>
        <circle cx="1607.82" cy="1025.58" r="39.51"/>
        <circle cx="1531.72" cy="1065.09" r="39.51"/>
        <circle cx="1636.82" cy="1183.55" r="41.92"/>
      </g>
      <path d="M1636.82,799.26h0c53.53,0,96.99,43.46,96.99,96.99v242.46c0,33.78-27.43,61.21-61.21,61.21h-71.58c-33.78,0-61.21-27.43-61.21-61.21v-242.46c0-53.53,43.46-96.99,96.99-96.99Z"/>
      <g>
        <circle cx="1731.46" cy="1104.65" r="39.51"/>
        <circle cx="1755.57" cy="1144.83" r="39.51"/>
        <circle cx="1697.98" cy="1160.9" r="39.51"/>
        <circle cx="1723.51" cy="992.15" r="39.26"/>
        <circle cx="1755.57" cy="1030.99" r="39.51"/>
        <circle cx="1704.63" cy="1051.05" r="39.51"/>
        <circle cx="1775.65" cy="1075.18" r="39.51"/>
        <circle cx="1671.59" cy="1205.02" r="41.92"/>
      </g>
      <path d="M1648.65,1005.96h-53.25v36.06h53.25v-36.06Z" fill="#e5876a"/>
      <circle cx="1630.8" cy="1200.55" r="39.94"/>
      <path d="M1610.52,831.27h23c35.64,0,64.57,28.93,64.57,64.57v62.78c0,29.78-24.18,53.96-53.96,53.96h-44.45c-29.66,0-53.74-24.08-53.74-53.74v-63c0-35.64,28.93-64.57,64.57-64.57Z" fill="#f9bb9b"/>
      <circle cx="1605.42" cy="950.49" r="6.1" fill="#e5876a"/>
      <rect x="1521.34" y="1050" width="36.77" height="212.76" rx="14.5" ry="14.5" transform="translate(581.18 -513.7) rotate(23.24)" fill="#ffa573"/>
      <path d="M1535.84,1050h7.77c8,0,14.5,6.5,14.5,14.5v198.26h-36.77v-198.26c0-8,6.5-14.5,14.5-14.5Z" transform="translate(581.18 -513.7) rotate(23.24)" fill="#f9bb9b"/>
      <path d="M1581.7,1058.63h0c-9.29-3.99-20.16.35-24.15,9.64l-32.95,76.74,34.21,13.53,32.53-75.76c3.99-9.29-.35-20.16-9.64-24.15Z" fill="#f9bb9b"/>
      <circle cx="1499.87" cy="1240.49" r="26.63" fill="#f9bb9b"/>
      <g>
        <path d="M1700.57,1050h36.77v198.26c0,8-6.5,14.5-14.5,14.5h-7.77c-8,0-14.5-6.5-14.5-14.5v-198.26h0Z" transform="translate(3754.71 1540.71) rotate(156.76)" fill="#f9bb9b"/>
        <path d="M1676.98,1058.63h0c9.29-3.99,20.16.35,24.15,9.64l32.95,76.74-34.21,13.53-32.53-75.76c-3.99-9.29.35-20.16,9.64-24.15Z" fill="#f9bb9b"/>
        <circle cx="1762.77" cy="1252.15" r="26.63" fill="#f9bb9b"/>
      </g>
      <rect x="1633.4" y="1108.89" width="39.52" height="329.53" transform="translate(-21.04 27.79) rotate(-.96)" fill="#77daff"/>
      <rect x="1434.56" y="1253.71" width="329.53" height="39.52" transform="translate(238.36 2799.02) rotate(-86.79)" fill="#8de1ff"/>
      <path d="M1543.82,1426.61h67.49c.85,0,1.54.69,1.54,1.54v22.18c0,.2-.17.37-.37.37h-78.73c-.85,0-1.54-.69-1.54-1.54v-10.94c0-6.41,5.21-11.62,11.62-11.62Z" fill="#132058"/>
      <path d="M1708.58,1095.02v36.43c0,25.29-15.43,46.98-37.39,56.13-7.2,3.02-15.11,4.68-23.41,4.68h-36.21c-33.59,0-60.8-27.22-60.8-60.81v-36.43c0-21.28,10.93-40,27.49-50.86,5.02-3.31,10.57-5.88,16.48-7.58,5.35-1.53,10.99-2.36,16.83-2.36h36.21c4.42,0,8.74.47,12.89,1.37,27.39,5.92,47.9,30.28,47.9,59.43Z" fill="#77daff"/>
      <path d="M1559.02,1064.86l-23.49,31.5c-1.47,1.98-1.1,4.77.85,6.28l39.3,30.64v-71.1l-16.65,2.68Z" fill="#77daff"/>
      <path d="M1697.98,1060.71l28.52,37.74c1.67,2.21,1.03,5.37-1.35,6.77l-31,18.14-15.97-54.94,19.81-7.7Z" fill="#77daff"/>
      <path d="M1708.58,1129.92v1.53c0,25.29-15.43,46.98-37.39,56.13-9.22,3.13-19.18,4.68-28.69,4.68h-30.91c-33.58,0-60.81-27.22-60.81-60.81v-23.41c0-1.47.5-2.89,1.42-4.03l26.07-32.34.08-32.17c0-1.84,1.37-3.33,3.06-3.33h10.38c1.69,0,3.04,1.5,3.04,3.33l-.08,21.56c0,1.65,1.23,2.99,2.74,2.99l48.69,1.52c1.52,0,2.74-1.34,2.74-2.99l.47-25.01c0-.46.09-.89.24-1.28.46-1.2,1.55-2.05,2.81-2.05h10.38c1.69,0,3.04,1.5,3.04,3.33l1.65,34.59,41.07,57.76Z" fill="#19359b"/>
      <path d="M1593.03,1086.69h45.06c1.21,0,2.19.98,2.19,2.19v17.61c0,10.76-8.74,19.5-19.5,19.5h-10.45c-10.76,0-19.5-8.74-19.5-19.5v-17.61c0-1.21.98-2.19,2.19-2.19Z" fill="none" stroke="#6ec8f1" stroke-miterlimit="10"/>
      <g>
        <path d="M1623.56,814.76h0v8.41c0,44.43-36.07,80.49-80.49,80.49h0v-8.41c0-44.43,36.07-80.49,80.49-80.49Z"/>
        <path d="M1622.37,828.95h0c44.52,0,80.66,36.14,80.66,80.66v8.43h-24.37c-31.07,0-56.29-25.22-56.29-56.29v-32.8h0Z" transform="translate(3325.39 1746.99) rotate(180)"/>
      </g>
      <circle cx="1611.53" cy="979.55" r="12.77" fill="#a92c2c"/>
      <ellipse cx="1695.78" cy="937.02" rx="16.73" ry="19.65" fill="#f9bb9b"/>
      <path d="M1618.74,1427.03h59.55c.88,0,1.59.71,1.59,1.59v21.88c0,.35-.28.63-.63.63h-71.32c-.88,0-1.59-.71-1.59-1.59v-10.1c0-6.85,5.56-12.4,12.4-12.4Z" fill="#19359b"/>
      <g>
        <g>
          <circle cx="1646.28" cy="925.79" r="23.06" fill="#fff"/>
          <path d="M1627.78,911.84c12.15-18.23,40.47-11.12,43.4,10.43.85,6.42-1.24,13.16-5.56,17.67-.19.2-.51.21-.71.02-.17-.16-.2-.42-.09-.61,5.87-10.06,4.01-23.6-5.38-30.61-9.2-7.24-23.39-5.41-30.86,3.71-.37.48-1.15-.1-.8-.6h0Z" fill="#070782"/>
          <circle cx="1643.18" cy="921.64" r="16.62" fill="url(#linear-gradient-3)"/>
        </g>
        <circle cx="1655.93" cy="913.48" r="4.01" fill="#fff"/>
      </g>
      <g>
        <g>
          <circle cx="1569.85" cy="925.79" r="23.06" fill="#fff"/>
          <path d="M1587.55,912.44c-12.36-14.63-36.07-8.64-39.27,10.32-.96,5.54.11,11.39,3.04,16.58.14.24.05.55-.19.69-.2.12-.46.07-.61-.09-4.32-4.5-6.41-11.24-5.56-17.67.8-6.45,4.48-12.45,9.72-16.26,10.53-7.9,26.66-5.31,33.68,5.83.32.52-.4,1.06-.8.6h0Z" fill="#070782"/>
          <circle cx="1566" cy="923.2" r="16.62" fill="url(#linear-gradient-4)"/>
        </g>
        <circle cx="1577.34" cy="915.05" r="4.01" fill="#fff"/>
      </g>
      <path d="M1621.53,813.87c-12.88.2-25.77,3.11-37.24,8.98l-.04.02c-.14.07-.28.15-.42.22-6.53,3.4-12.65,7.57-18.29,12.3-9.7,8.14-11.33,14.67-16.85,26.12-3.03,6.3-5.16,13.1-5.74,20.09l-.39,4.68c3.06-36.59,42.01-70.39,78.59-67.33,45.38,1.19,94,66.16,90.94,102.75,0,0,.39-4.68.39-4.68.74-8.87-2.8-23.86-5.64-32.24-3.36-9.91-7.8-22.17-13.93-30.64-6.51-9-12.72-16.33-21.73-22.84-12.3-8.9-25.24-15.81-40.35-17.09-3.08-.26-6.19-.37-9.29-.32Z" fill="#77daff"/>
      <text transform="translate(295.02 449.71)" font-family="AllianceNo.1-Bold, &apos;Alliance No.1&apos;" font-size="33.14" font-weight="700"><tspan x="0" y="0"></tspan></text>
    </g>
    <g id="Layer_10" data-name="Layer 10">
      <path d="M806.21,907.15l383.05,5.79c9.26.14,16.9,7.3,17.65,16.53l6.14,76.17c.85,10.51-7.49,19.49-18.04,19.42l-385.22-2.53c-9.53-.06-17.36-7.56-17.84-17.08l-3.97-79.43c-.52-10.38,7.84-19.03,18.23-18.87Z" fill="#7a60f4"/>
      <path d="M817.45,895.28l383.05,5.79c9.26.14,16.9,7.3,17.65,16.53l6.14,76.17c.85,10.51-7.49,19.49-18.04,19.42l-385.22-2.53c-9.53-.06-17.36-7.56-17.84-17.08l-3.97-79.43c-.52-10.38,7.84-19.03,18.23-18.87Z" fill="#eeefff" stroke="#381cc4" stroke-miterlimit="10" stroke-width="2"/>
    </g>
    <g id="Layer_8" data-name="Layer 8">
      <g>
        <circle cx="1815.92" cy="591.27" r="21.14" transform="translate(-87.27 433.03) rotate(-13.28)" fill="#99fff5" opacity=".43"/>
        <g clip-path="url(#clippath-2)">
          <rect x="1794.31" y="581.64" width="42.72" height="18.98" transform="translate(916.11 -1093.18) rotate(43.86)" fill="#fff" opacity=".23"/>
          <rect x="1809.92" y="566.04" width="42.72" height="18.98" transform="translate(909.65 -1108.34) rotate(43.86)" fill="#fff" opacity=".23"/>
        </g>
      </g>
      <g>
        <circle cx="1868.06" cy="591.47" r="21.14" transform="translate(-85.92 445.01) rotate(-13.28)" fill="#99fff5" opacity=".43"/>
        <g clip-path="url(#clippath-3)">
          <rect x="1846.46" y="581.84" width="42.72" height="18.98" transform="translate(930.8 -1129.25) rotate(43.86)" fill="#fff" opacity=".23"/>
          <rect x="1862.06" y="566.24" width="42.72" height="18.98" transform="translate(924.34 -1144.41) rotate(43.86)" fill="#fff" opacity=".23"/>
        </g>
      </g>
      <path d="M1815.92,567.25c-13.27,0-24.02,10.75-24.02,24.02s10.75,24.02,24.02,24.02,24.02-10.75,24.02-24.02-10.75-24.02-24.02-24.02ZM1815.92,612.41c-11.68,0-21.14-9.47-21.14-21.14s9.47-21.14,21.14-21.14,21.14,9.47,21.14,21.14-9.47,21.14-21.14,21.14Z" fill="#e03b3b"/>
      <path d="M1868.06,567.45c-13.27,0-24.02,10.75-24.02,24.02s10.75,24.02,24.02,24.02,24.02-10.75,24.02-24.02-10.75-24.02-24.02-24.02ZM1868.06,612.62c-11.68,0-21.14-9.47-21.14-21.14s9.47-21.14,21.14-21.14,21.14,9.47,21.14,21.14-9.47,21.14-21.14,21.14Z" fill="#e03b3b"/>
      <rect x="1837.34" y="590.03" width="8.62" height="3.7" rx="1.72" ry="1.72" fill="#e03b3b"/>
      <rect x="1891.12" y="588.19" width="21.44" height="3.7" rx="1.72" ry="1.72" fill="#e03b3b"/>
    </g>
    <g id="Layer_11" data-name="Layer 11">
      <text transform="translate(837.49 971.23)" font-family="AllianceNo.1-Bold, &apos;Alliance No.1&apos;" font-size="42.97" font-weight="700"><tspan x="0" y="0"></tspan></text>
    </g>
    <g id="Layer_7" data-name="Layer 7">
      <path d="M1947.63,654.32h88.25c31.85,0,57.7,25.85,57.7,57.7v78.23c0,16.92-13.74,30.66-30.66,30.66h-142.63c-18.85,0-34.15-15.3-34.15-34.15v-70.96c0-33.93,27.55-61.48,61.48-61.48Z" fill="#772828"/>
      <rect x="1778.2" y="1026.16" width="230.36" height="35.24" rx="14.06" ry="14.06" transform="translate(238.21 2434.75) rotate(-68.91)" fill="#ffcab3"/>
      <path d="M1899.57,807.18l-1.98-27.72c-.25-3.56-.23-7.05.07-10.5,2.7-32.61,28.83-59.27,62.48-61.67l20.11-1.44c46.83-3.35,87.51,31.9,90.85,78.73l1.03,14.4c2.81,39.28-26.76,73.4-66.04,76.21l-25.88,1.85c-41.56,2.97-77.65-28.31-80.62-69.87Z" fill="#ffcab3"/>
      <path d="M1950.18,873.2h77.33c5.51,0,9.98,4.47,9.98,9.98v15.41c0,4.2-3.41,7.61-7.61,7.61h-82.55c-3.93,0-7.13-3.19-7.13-7.13v-15.89c0-5.51,4.47-9.98,9.98-9.98Z" fill="#f59c4e"/>
      <path d="M1955.33,902.91h67.23c28.65,0,51.91,23.26,51.91,51.91h0c0,36.73-29.82,66.54-66.54,66.54h-37.97c-36.73,0-66.54-29.82-66.54-66.54h0c0-28.65,23.26-51.91,51.91-51.91Z" fill="#f59c4e"/>
      <circle cx="1846.96" cy="1147.58" r="27.08" fill="#ffcab3"/>
      <rect x="2033.91" y="915.6" width="99.59" height="43.48" rx="21.74" ry="21.74" transform="translate(74.37 -150.31) rotate(4.21)" fill="#ffcab3"/>
      <circle cx="2005.82" cy="778.15" r="26.72" fill="#fff"/>
      <path d="M1984.44,762.04c14.13-20.82,46.51-12.7,49.95,12.07,1,7.37-1.35,15.11-6.24,20.38-.19.2-.51.22-.71.03-.18-.16-.21-.42-.09-.62,7.07-11.61,4.86-27.58-6.14-35.72-10.83-8.46-27.37-6.23-35.97,4.47-.37.48-1.16-.09-.8-.6h0Z" fill="#601d1c"/>
      <circle cx="2002.56" cy="777.9" r="19.26" fill="url(#linear-gradient-5)"/>
      <circle cx="2017.33" cy="768.46" r="4.65" fill="#fff"/>
      <circle cx="1929.11" cy="776.39" r="26.72" fill="#fff"/>
      <path d="M1949.69,760.88c-8.6-10.7-25.14-12.93-35.97-4.46-10.99,8.14-13.21,24.11-6.14,35.72.14.24.06.55-.18.69-.21.12-.47.08-.62-.09-4.89-5.27-7.23-13.01-6.24-20.38.94-7.4,5.15-14.28,11.16-18.66,12.19-9.11,30.52-6.17,38.79,6.59.33.52-.4,1.07-.8.6h0Z" fill="#601d1c"/>
      <circle cx="1926.73" cy="776.95" r="19.26" fill="url(#linear-gradient-6)"/>
      <circle cx="1940.42" cy="766.95" r="4.65" fill="#fff"/>
      <circle cx="1963.12" cy="809.07" r="5.21" fill="#f7a27a"/>
      <polygon points="1927.23 1437.28 1866.98 1430.69 1871.25 1383.18 1931.5 1389.77 1927.23 1437.28" fill="#ffcab3"/>
      <rect x="2003.04" y="1396.52" width="60.54" height="47.74" fill="#ffcab3"/>
      <path d="M1852.07,1421.02h76.34c2.91,0,5.27,2.36,5.27,5.27v26.92c0,2.21-1.79,4-4,4h-105.8c-2.21,0-4-1.79-4-4h0c0-17.77,14.42-32.19,32.19-32.19Z" fill="#f59c4e"/>
      <path d="M1994.36,1421.02h76.2c4.66,0,8.45,3.79,8.45,8.45v20.71c0,3.88-3.15,7.03-7.03,7.03h-99.74c-3.88,0-7.03-3.15-7.03-7.03h0c0-16.09,13.07-29.16,29.16-29.16Z" fill="#f59c4e"/>
      <polygon points="2080.96 1383 1988.83 1380.64 1969.21 1007.77 2060.11 1011.31 2080.96 1383" fill="#19359b"/>
      <polygon points="1853.54 1373.19 1944.87 1370.37 1989.61 1011.04 1920 1007.71 1853.54 1373.19" fill="#19359b"/>
      <rect x="1918.34" y="999.59" width="143.05" height="21.78" rx="1.56" ry="1.56" fill="#fff"/>
      <rect x="1980.62" y="1361.78" width="105.38" height="50.04" rx="9.82" ry="9.82" fill="#2f76ff"/>
      <path d="M1939.93,1413.45l-92.99-3.88c-3.75-.16-6.56-3.55-6.08-7.33l4.31-33.4c.43-3.36,3.34-5.82,6.67-5.64l91.8,4.86c3.64.19,6.38,3.43,6.03,7.12l-3.11,32.41c-.33,3.43-3.24,6-6.62,5.86Z" fill="#2f76ff"/>
      <rect x="1926.13" y="998.95" width="16.04" height="27.23" rx="1.13" ry="1.13" fill="#19359b"/>
      <rect x="1970" y="998.15" width="20.6" height="27.23" rx="1.69" ry="1.69" fill="#19359b"/>
      <rect x="2036.02" y="997.51" width="18.95" height="27.23" rx="1.47" ry="1.47" fill="#19359b"/>
      <path d="M1961.45,1024.58h11.36c4.74,0,8.59,3.85,8.59,8.59v44.68c0,.65-.53,1.19-1.19,1.19h-18.77c-.65,0-1.19-.53-1.19-1.19v-52.09c0-.65.53-1.19,1.19-1.19Z" transform="translate(3941.67 2103.62) rotate(180)" fill="#2f76ff"/>
      <path d="M2008.72,687.56h-28.93c.04.2.11.41.16.61h-14.66c-40.74,0-74.07,31.38-76.73,71.05-.21,3.09.07,6.19.73,9.21l1.27,5.79c11.75-13.9,23.64-28.81,39.88-34.13,17.39-5.72,34.21-14.5,47.74-26.92,1.85-1.7,3.6-3.51,5.31-5.35.7-.75,2.2-3.73,3.21-1.84,1.23,2.31,2.49,4.59,3.86,6.82,1.41,2.3,2.85,5.29,4.76,7.2,5.41,7.64,11.62,14.71,18.49,21.08,2.02,1.87,4.09,3.68,6.21,5.43,20.37,16.77,43.61,47.45,63.16,67.54.6-3.8.91-7.68.91-11.65v-39.7c0-41.49-33.74-75.14-75.37-75.14Z" fill="#772828"/>
      <circle cx="2026.25" cy="646.98" r="50.45" fill="#772828"/>
      <circle cx="2073.01" cy="792.76" r="24.14" fill="#ffcab3"/>
      <path d="M1963.12,843.78s29.46,7.22,47.52-16.12" fill="none" stroke="#601d1c" stroke-linecap="round" stroke-miterlimit="10" stroke-width="2"/>
      <rect x="2028.23" y="955.93" width="123.97" height="43.48" rx="21.74" ry="21.74" transform="translate(151.74 2229.53) rotate(-57.92)" fill="#ffcab3"/>
      <rect x="2043.23" y="995.22" width="75.83" height="54" rx="27" ry="27" transform="translate(3279.37 3007.25) rotate(-147.28)" fill="#ffcab3"/>
      <g>
        <path d="M1885.32,1369.41l-38.97,18.19c-2.01.94-4.38-.14-5-2.27l-25.81-88.91c-.5-1.72.34-3.55,1.98-4.3l17.32-7.86c1.67-.76,3.64-.15,4.58,1.42l47.46,78.58c1.11,1.84.38,4.23-1.56,5.14Z" fill="#f59c4e"/>
        <path d="M1872.13,1227.05c2.48,1.42,23.65,13.06,27.85-1.77,0-.03.02-.07.02-.1l6.35-43.4c.09-.6.89-.75,1.19-.22l8.39,14.91c.26.46.94.42,1.14-.07l14.72-35.12c.26-.61,1.16-.47,1.22.19l2.96,31.27c.05.51.64.75,1.04.43l22.97-18.64c.48-.39,1.17.06,1.02.66l-7.58,28.68c-.14.55.44,1,.93.72l21.87-12.54c.55-.31,1.17.28.88.84l-27.39,54.08s-26.49,51.14-94.55,8.89c-.06-.04-.11-.08-.16-.14l-7.06-8.47c-.15-.17-.19-.41-.11-.63l4.92-13.36c.07-.18.22-.33.4-.39l18.47-5.88c.17-.05.35-.04.51.05Z" fill="#f49d4d"/>
        <path d="M1736.5,1249.19c-2.81,13.83-27.03,137.81-.82,178.74.75,1.17,2.54.89,2.94-.44l8.63-28.66c.46-1.53,2.61-1.56,3.12-.05l9.46,28.38c.52,1.55,2.74,1.47,3.14-.12l5.77-23.07c.34-1.35,2.1-1.69,2.91-.56l10.71,14.87c.95,1.32,3.03.6,2.96-1.03l-1.83-41.04c-.06-1.33,1.4-2.17,2.52-1.45l7.87,5.08c1.22.79,2.79-.28,2.49-1.7-1.85-8.91-7.52-32.33-20.01-56.34-.08-.15-.13-.31-.16-.47l-12.15-72.87c-.13-.81-.85-1.39-1.67-1.37l-24.34.8c-.76.02-1.4.56-1.55,1.3Z" fill="#f59c4e"/>
        <polygon points="1818.6 1447.54 1798.67 1447.54 1798.67 1302.7 1815.09 1301.03 1818.6 1447.54" fill="#772828"/>
        <polygon points="1794.07 1302.6 1790.63 1447.53 1770.7 1447.53 1777.7 1300.79 1794.07 1302.6" fill="#772828"/>
        <rect x="1732.08" y="1208.46" width="56.32" height="38.44" transform="translate(-94.28 2307.68) rotate(-65.11)" fill="#19359b"/>
        <path d="M1855.05,1296.95c-38.55,17.11-76.62,16.94-114.13-3.33l14.31-104.48,88.84.67,10.98,107.14Z" fill="#19359b"/>
        <ellipse cx="1777.63" cy="1200.57" rx="17.3" ry="18.3" fill="#fff"/>
        <rect x="1830.89" y="1204.83" width="43.59" height="55.16" transform="translate(-140.95 2220.68) rotate(-60)" fill="#19359b"/>
        <ellipse cx="1810.58" cy="1202.23" rx="17.3" ry="18.3" fill="#fff"/>
        <path d="M1720.21,1145.63s-4.7-31.7,18.2-55.19c0,0,22.9-17.91,22.31-29.94,0,0,.49-2.17.4-5.39-.34-13.34-11.96-23.9-25.26-22.88-3.09.24-5.48,1.34-5.38,4.2l-.17,4.65c-.07,1.99-2.01,3.38-3.91,2.8-3.27-1.01-7.77-3.96-9.71-12.44,0,0-7.34-28.18,41.1-33.17,0,0,55.78-1.76,76.33,34.93l.88,2.05s-.59-12.62,2.35-13.5c0,0,20.26-.29,41.1,72.51,0,0,4.24,17.49,3.66,43.16-.03,1.33,1.54,2.1,2.53,1.22,1.21-1.08,2.72-2.13,4.29-2.51,1.74-.42,3.43.87,3.49,2.66.32,9.43-2.09,46.12-56.53,66.73,0,0-53.43,12.04-87.78-11.45,0,0-27.3-14.09-27.89-48.44Z" fill="#f59c4e"/>
        <ellipse cx="1825.9" cy="1131.54" rx="23.78" ry="7.93" transform="translate(599.95 2895.44) rotate(-86.99)" fill="#772828"/>
        <ellipse cx="1753.09" cy="1126.26" rx="23.78" ry="7.93" transform="translate(536.25 2817.73) rotate(-86.99)" fill="#772828"/>
        <path d="M1767.77,1154.15c-12.35,28.43-17.88,56.08-20.26,83.37,10.57,2.64,45.98-39.44,50.49-74.57,0,0-7.34-28.18-30.24-8.81Z" fill="#772828"/>
        <path d="M1749.22,1447.47h42.01v12.96c0,1.63-1.32,2.94-2.94,2.94h-39.07c-2.4,0-4.36-1.95-4.36-4.36v-7.19c0-2.4,1.95-4.36,4.36-4.36Z" transform="translate(-99.84 130.57) rotate(-4.11)" fill="#772828"/>
        <path d="M1802.54,1447.61h38.81c1.63,0,2.94,1.32,2.94,2.94v12.96h-41.75c-2.4,0-4.36-1.95-4.36-4.36v-7.19c0-2.4,1.95-4.36,4.36-4.36Z" transform="translate(3533.38 3038.02) rotate(-175.89)" fill="#772828"/>
      </g>
    </g>
    <g id="Layer_4" data-name="Layer 4">
      <path d="M530.04,612.18s10.9,64.66,14.43,75.78l1.79,4.07s21.49-78.48,20.39-93.07c0,0,.16-28.33-21.87-19.22" fill="#161515"/>
      <path d="M423.13,781.72h75.77c16.1,0,29.18,13.07,29.18,29.18v37.52c0,6.82-5.54,12.36-12.36,12.36h-126.49c-6.82,0-12.36-5.54-12.36-12.36v-20.44c0-25.53,20.73-46.26,46.26-46.26Z" fill="#412c83"/>
      <rect x="439.06" y="729.47" width="59.71" height="86.74" transform="translate(-17.4 10.83) rotate(-1.3)" fill="#f7a27a"/>
      <path d="M475.09,767.33l-2.87.15c-45.15,1.73-73.51-33.23-75.24-78.38h0s-5.47-36.82-5.47-36.82h0c1.6-43.58,27.89-83.06,73.04-84.79h0c45.15-1.73,85.71,27.6,84.89,78.62l1.4,36.49c-2.08,50.64-7.97,79.75-75.75,84.74Z" fill="#f9bb9b"/>
      <rect x="488.05" y="678.98" width="12.44" height="16.53" rx="5.35" ry="5.35" transform="translate(10.37 -7.34) rotate(.86)" fill="#f7a27a"/>
      <rect x="434.8" y="621.98" width="40.98" height="10.91" rx="4.69" ry="4.69" transform="translate(-36.16 27.9) rotate(-3.38)" fill="#161515"/>
      <rect x="500.51" y="619.66" width="40.98" height="10.91" rx="4.69" ry="4.69" transform="translate(-10.37 8.79) rotate(-.96)" fill="#161515"/>
      <path d="M552.65,972.59h-171.66v-155.75c0-11.31,9.17-20.47,20.47-20.47h49.48l20.87,9.68,17.35-9.68h44.56c10.45,0,18.93,8.47,18.93,18.93v157.3Z" fill="#7a60f4"/>
      <path d="M380.78,992.06h172.08v54.69c0,.37-.3.67-.67.67h-171.41v-55.36h0Z" fill="#19359b"/>
      <path d="M372.13,794.96h19.04c12.18,0,22.07,9.89,22.07,22.07v96.91c0,13.99-11.36,25.35-25.35,25.35h-8.82c-16.1,0-29.17-13.07-29.17-29.17v-92.93c0-12.27,9.96-22.23,22.23-22.23Z" transform="translate(567.26 -61.86) rotate(35.05)" fill="#7a60f4"/>
      <circle cx="529.55" cy="674.56" r="18.81" fill="#f9bb9b"/>
      <path d="M547.34,792.18h19.43c15.35,0,27.8,12.46,27.8,27.8v115.32c0,10.32-8.38,18.71-18.71,18.71h-10.85c-14.14,0-25.63-11.48-25.63-25.63v-128.25c0-4.39,3.56-7.95,7.95-7.95Z" transform="translate(-394.09 472.96) rotate(-34.4)" fill="#7a60f4"/>
      <path d="M653.26,841.24l7.29,5.21c10.82,7.74,13.04,23.12,4.92,34.23l-44.27,60.64c-8.06,11.04-23.24,13.67-33.92,5.88h0c-9.76-7.12-12.49-20.65-6.38-31.54l36.97-65.85c7.23-12.88,23.75-16.88,35.37-8.58Z" fill="#412c83"/>
      <rect x="430.61" y="921.69" width="100.35" height="45.61" rx="4.33" ry="4.33" fill="#a5a3fe"/>
      <ellipse cx="458.37" cy="854.72" rx="6.63" ry="7.15" transform="translate(-39.7 22.51) rotate(-2.7)" fill="#412c83"/>
      <rect x="454.92" y="852.06" width="6.36" height="100.07" rx="1.7" ry="1.7" fill="#fff"/>
      <circle cx="458.17" cy="955.93" r="7.81" fill="#fff"/>
      <ellipse cx="513.55" cy="855.5" rx="6.63" ry="7.15" fill="#412c83"/>
      <rect x="510.41" y="851.28" width="6.36" height="100.07" rx="1.7" ry="1.7" fill="#fff"/>
      <circle cx="513.66" cy="955.15" r="7.81" fill="#fff"/>
      <circle cx="652.19" cy="849.74" r="33.72" fill="#f9bb9b"/>
      <rect x="368.78" y="970.52" width="194.39" height="30.68" rx="13.21" ry="13.21" fill="#412c83"/>
      <path d="M510,799c.47,2.59.44,5.36-.17,8.4-1.67,8.36-5.48,16.64-12.42,21.86-5.78,4.35-13,6.17-20.16,6.17-21.83,0-43.95-13.41-43.95-34.02,0-6.59,2.54-13.5,5.73-18.88-.02.28,1.43,4.38,1.54,4.64,2.89,6.91,10.63,8.41,17.29,9.18,6.2.72,12.46,1.01,18.69.7,5.62-.28,12.81-.23,17.25-4.17,3.01-2.67,4.27-6.37,5.42-10.1,1.1.5,2.48,2.16,3.38,3.11,3.88,4.06,6.51,8.27,7.39,13.11Z" fill="#fff"/>
      <path d="M390.01,577.98s-23.33-2.84-10.77,40.34l23.7,70.89,6.11,12.51s22.61-77.63,25.14-88c2.53-10.37,6.29-35.66-44.18-35.74Z"/>
      <circle cx="403.74" cy="697.79" r="22.85" fill="#f9bb9b"/>
      <circle cx="523.07" cy="659.1" r="18.81" fill="#fff"/>
      <circle cx="524.14" cy="658.07" r="13.99" fill="#161515"/>
      <circle cx="515.35" cy="648.93" r="1.98" fill="#fff"/>
      <circle cx="459.38" cy="657.05" r="18.81" fill="#fff"/>
      <circle cx="460.85" cy="656.03" r="13.99" fill="#161515"/>
      <circle cx="453.39" cy="644.61" r="1.98" fill="#fff"/>
      <path d="M512.27,711.74l-.03,2.3c-.09,5.95-2.57,11.32-6.5,15.18-.31.31-.63.61-.96.88-3.9,3.41-9.03,5.44-14.61,5.35-5.58-.08-10.64-2.26-14.44-5.78-.32-.29-.64-.6-.94-.92-3.81-3.98-6.13-9.42-6.04-15.37l.03-2.3c.02-1.3,1.08-2.34,2.38-2.32l38.79.58c1.3.02,2.33,1.09,2.31,2.39Z" fill="#7c1919"/>
      <path d="M504.78,730.1c-3.9,3.41-9.03,5.44-14.61,5.35-5.58-.08-10.64-2.26-14.44-5.78,2.4-4.76,8.08-8.05,14.65-7.95s12.14,3.56,14.4,8.38Z" fill="#dd5757"/>
      <rect x="376" y="835.42" width="55.07" height="147.95" rx="23.7" ry="23.7" transform="translate(1322.27 527.63) rotate(91.36)" fill="#412c83"/>
      <circle cx="472.25" cy="909.39" r="33.59" fill="#f9bb9b"/>
      <path d="M525.35,556.55s-2.41-1.87-6.55-4.58c-12.63-8.26-41.38-24.38-67.07-19.43,0,0-52.88.34-62.28,41.02-.75,3.26-.61,6.78-.03,10.05,1.47,8.39,6.41,15.67,12.8,21.16,5.12,4.41,11.1,7.76,17.29,10.41,14.17,6.08,28.76,7.98,44.06,8.06,15.17.08,31.1,1.63,45.96-1.6,9.14-1.99,24.01-3.43,31.82-8.72,9.8,1.74,12.2,56.45,8.91,64.98h0s18.84-69.62,17.09-82.65c0,0-1.33-25.42-20.62-16.1,0,0-9.2-33.17-31.89-41.19-1.29-.46-2.49.91-1.91,2.16l5.39,11.54"/>
    </g>
    <g id="Layer_2" data-name="Layer 2">
      <path d="M1024.32,305.6h74.13c25.36,0,45.92,23.07,45.92,51.52v.26s0,23.41,0,23.41v30.5c0,7.05-5.1,12.77-11.38,12.77v-43.27s-143.21,0-143.21,0v43.27c-6.29,0-11.38-5.72-11.38-12.77v-30.5s0-23.41,0-23.41v-.26c0-28.45,20.56-51.52,45.92-51.52Z" fill="#111"/>
      <rect x="1010.33" y="460.85" width="102.01" height="111.95" transform="translate(2122.66 1033.65) rotate(-180)" fill="#e58670"/>
      <path d="M1027.56,518.1h0c-21.39,0-38.73-15.76-38.73-35.21v-115.78c0-11.84,9.6-21.44,21.44-21.44h102.54c11.84,0,21.44,9.6,21.44,21.44v114.05c0,20.4-18.19,36.94-40.63,36.94h-66.06Z" fill="#f59476"/>
      <path d="M1092.86,465.21v50.82c-4.19,1.33-8.7,2.06-13.39,2.06h0c-14.82,22.86-51.24,22.86-66.06,0h0c-4.51,0-8.84-.71-12.87-2v-50.88h92.32Z" fill="#111"/>
      <rect x="1056.26" y="374.23" width="41.1" height="11.38" rx="4.58" ry="4.58" transform="translate(2153.63 759.83) rotate(-180)" fill="#111"/>
      <rect x="989.34" y="376.8" width="41.1" height="11.38" rx="4.58" ry="4.58" transform="translate(2019.79 764.98) rotate(-180)" fill="#111"/>
      <circle cx="1072.67" cy="411.26" r="6.32" fill="#0c0c0c"/>
      <circle cx="1009.89" cy="412.29" r="6.32" fill="#0c0c0c"/>
      <g>
        <path d="M1010.74,462.43h64.01v.6c0,7.26-2.42,13.95-6.5,19.32h-51.02c-4.07-5.37-6.5-12.06-6.5-19.32v-.6Z" fill="#af1137"/>
        <path d="M1042.74,495.03h0c-10.42,0-19.66-4.98-25.51-12.68h51.02c-5.84,7.7-15.09,12.68-25.51,12.68Z" fill="#fbfbfc"/>
        <path d="M1023.23,462.72h39.04c4.12,0,7.46,3.34,7.46,7.46v1.84c0,.1-.08.18-.18.18h-53.59c-.1,0-.18-.08-.18-.18v-1.84c0-4.12,3.34-7.46,7.46-7.46Z" transform="translate(2085.49 934.93) rotate(180)" fill="#fffffe"/>
      </g>
      <g>
        <path d="M1036.66,444.49h40.84c10.96,0,19.86,8.9,19.86,19.86v4.8h-40.84c-10.96,0-19.86-8.9-19.86-19.86v-4.8h0Z" transform="translate(2134.03 913.64) rotate(180)" fill="#111"/>
        <path d="M1000.25,444.49h40.84v4.8c0,10.96-8.9,19.86-19.86,19.86h-40.84v-4.8c0-10.96,8.9-19.86,19.86-19.86Z" fill="#111"/>
      </g>
      <rect x="1028.76" y="429.48" width="15.81" height="20.23" rx="6.37" ry="6.37" transform="translate(2073.33 879.19) rotate(180)" fill="#db7e65"/>
      <path d="M964.17,275.48h118.74c33.92,0,61.46,27.54,61.46,61.46v14.84h-118.74c-33.92,0-61.46-27.54-61.46-61.46v-14.84h0Z" transform="translate(2108.54 627.27) rotate(-180)" fill="#111"/>
      <circle cx="1060.46" cy="680.67" r="7.47" fill="none" stroke="#303030" stroke-miterlimit="10"/>
      <circle cx="1060.46" cy="729.22" r="7.47" fill="none" stroke="#303030" stroke-miterlimit="10"/>
      <path d="M917.16,705.78v117.96s70.98.33,70.98.33v-97.74h48.55s0-140.08,0-140.08c-.39,0-.79,0-1.19.01-5.95.05-11.79.55-17.51,1.45h-.02c-.2.02-.39.06-.59.1-8.82,1.42-17.3,3.81-25.35,7.06-11.47,4.61-22.04,10.96-31.42,18.71-9.83,8.12-18.33,17.78-25.15,28.62-11.59,18.41-18.3,40.21-18.3,63.59Z" fill="#06565b"/>
      <path d="M984.47,796.36c0,9.79,1.82,19.17,5.15,27.8l144.48.65c3.47-8.81,5.39-18.4,5.39-28.45,0-.31,0-.63-.01-.93-.06-5.57-.71-10.98-1.89-16.21-.1-.48-.22-.95-.34-1.43-.12-.48-.23-.94-.36-1.41-.26-1-.55-1.98-.85-2.95-3.32-10.75-8.91-20.49-16.23-28.67-14.19-15.91-34.84-25.91-57.84-25.91-9.16,0-17.95,1.59-26.11,4.52-2.01.71-4,1.51-5.93,2.38-1.6.74-3.17,1.52-4.72,2.35-17.71,9.55-31.26,25.79-37.31,45.33-.52,1.67-.99,3.37-1.38,5.09-1.29,5.44-2,11.1-2.06,16.9-.01.3-.01.62-.01.93Z" fill="#042a40"/>
      <path d="M1005.88,582.98h114.08c37.26,0,67.51,30.25,67.51,67.51v70.3c0,35.24-28.61,63.85-63.85,63.85h-121.41c-35.24,0-63.85-28.61-63.85-63.85v-70.3c0-37.26,30.25-67.51,67.51-67.51Z" transform="translate(2125.83 1367.61) rotate(-180)" fill="#006c73"/>
      <rect x="978.59" y="773.44" width="164.35" height="21.99" transform="translate(2121.54 1568.86) rotate(-180)" fill="#3f1010"/>
      <polygon points="1013.87 588.34 1125.4 587.7 1125.4 556.72 1042.89 557.99 1013.87 588.34" fill="#d3d3d3"/>
      <polygon points="1047.21 587.98 997.68 587.7 997.68 556.72 1018.41 557.63 1047.21 587.98" fill="#fefefe"/>
      <circle cx="1045.65" cy="573.16" r="5.45" fill="#fefefe"/>
      <rect x="1013.82" y="569.89" width="11.63" height="6.54" transform="translate(2039.27 1146.33) rotate(-180)" fill="#d3d3d3"/>
      <path d="M1125.4,587.7l-91.2,80.1c-.95,1.32-2.92,1.32-3.86,0-19.36-24.15-30.14-50.88-32.66-80.1h127.72Z" fill="#fefefe"/>
      <circle cx="1028.78" cy="694.86" r="7.27" fill="#003238"/>
      <circle cx="1028.78" cy="721.75" r="7.27" fill="#003238"/>
      <circle cx="1028.78" cy="748.65" r="7.27" fill="#003238"/>
      <rect x="1002.75" y="773.53" width="49.43" height="21.81" transform="translate(2054.93 1568.86) rotate(-180)" fill="#772828"/>
      <path d="M1002.6,773.53v21.81s49.44,0,49.44,0v-21.81s-49.44,0-49.44,0ZM1005.52,776.43h43.61v16h-43.61v-16Z" fill="#b7b7b7"/>
      <path d="M1115.32,347.14h19.65c1.35,0,2.44,1.1,2.44,2.44v74.49h-25.08v-73.95c0-1.65,1.34-2.99,2.99-2.99Z" transform="translate(2249.75 771.21) rotate(-180)" fill="#111"/>
      <g>
        <path d="M960.8,683.89l28.02,13.97,25.27-50.05-28.02-13.97c-3.76-8.31-10.65-15.34-20.02-19.16-16.85-6.88-36.47-.48-45.62,14.87-10.91,18.3-3.57,41.73,15.52,51.25,8.02,4,16.78,4.88,24.86,3.1Z" fill="#f59476"/>
        <path d="M1175.14,759.47h0c8.62-17.07,1.47-37.97-15.97-46.67l-150.25-74.94-31.22,61.83,150.25,74.94c17.44,8.7,38.57,1.91,47.19-15.17Z" fill="#06565b"/>
        <polygon points="968.48 695.09 999.7 633.26 1022.97 644.86 991.75 706.7 968.48 695.09" fill="#fefefe"/>
      </g>
      <rect x="1127" y="607.8" width="61.68" height="171.67" rx="24.77" ry="24.77" transform="translate(2212.36 1536.08) rotate(-172.3)" fill="#06565b"/>
    </g>
    <g id="Layer_3" data-name="Layer 3">
      <rect x="1033.19" y="408.59" width="15.82" height="5.69" rx="2.29" ry="2.29" transform="translate(2082.21 822.86) rotate(-180)" fill="#006c73"/>
      <rect x="1103.49" y="408.59" width="41.48" height="5.69" rx="2.29" ry="2.29" transform="translate(2248.47 822.86) rotate(180)" fill="#006c73"/>
      <path d="M1046.7,399.51v13.92c0,5.76,3.84,10.47,8.54,10.47h42.03c4.7,0,8.54-4.71,8.54-10.47v-13.92c0-5.76-3.84-10.47-8.54-10.47h-42.03c-4.7,0-8.54,4.71-8.54,10.47ZM1050.04,400.04c0-3.79,2.53-6.89,5.62-6.89h41.18c3.09,0,5.62,3.1,5.62,6.89v13.55c0,3.79-2.53,6.89-5.62,6.89h-41.18c-3.09,0-5.62-3.1-5.62-6.89v-13.55Z" fill="#006c73"/>
      <path d="M1055.67,393.14h41.18c3.09,0,5.62,3.1,5.62,6.89v13.55c0,3.79-2.53,6.89-5.62,6.89h-41.18c-3.09,0-5.62-3.1-5.62-6.89v-13.55c0-3.79,2.53-6.89,5.62-6.89Z" fill="#d4f7e5" opacity=".39"/>
      <path d="M976.92,399.69v13.92c0,5.76,3.84,10.47,8.54,10.47h42.03c4.7,0,8.54-4.71,8.54-10.47v-13.92c0-5.76-3.84-10.47-8.54-10.47h-42.03c-4.7,0-8.54,4.71-8.54,10.47ZM980.27,400.21c0-3.79,2.53-6.89,5.62-6.89h41.18c3.09,0,5.62,3.1,5.62,6.89v13.55c0,3.79-2.53,6.89-5.62,6.89h-41.18c-3.09,0-5.62-3.1-5.62-6.89v-13.55Z" fill="#006c73"/>
      <path d="M985.89,393.32h41.18c3.09,0,5.62,3.1,5.62,6.89v13.55c0,3.79-2.53,6.89-5.62,6.89h-41.18c-3.09,0-5.62-3.1-5.62-6.89v-13.55c0-3.79,2.53-6.89,5.62-6.89Z" fill="#d4f7e5" opacity=".39"/>
    </g>
    <g id="Layer_5" data-name="Layer 5">
      <circle cx="1137.41" cy="426.6" r="16.12" fill="#f59476"/>
    </g>
  </g>
</svg>
