<svg width="374" height="466" viewBox="0 0 374 466" fill="none" xmlns="http://www.w3.org/2000/svg">
<g clip-path="url(#clip0_9684_130120)">
<path opacity="0.6" d="M22.7798 308.494C25.1508 306.121 38.5125 307.864 54.3782 312.353C57.4766 310.309 61.0413 310.372 63.2445 312.847C63.9256 313.611 64.4087 314.539 64.711 315.56C66.1551 316.048 67.5582 316.542 68.925 317.037C76.4825 317.147 81.4054 318.087 80.8496 319.555C80.6733 320.02 79.9489 320.497 78.8056 320.965C89.0193 325.446 94.8745 329.597 92.945 331.528C90.5477 333.928 76.9193 332.12 60.8256 327.52L62.1869 326.316C74.0064 329.76 83.3829 331.282 84.6863 329.754C85.7253 328.536 81.3768 325.675 73.97 322.367C71.1104 322.999 67.5412 323.562 63.58 323.988C63.1757 324.745 62.6995 325.477 62.1359 326.158C58.6873 330.324 53.592 331.118 50.7548 327.933C49.9818 327.065 49.4646 325.986 49.1785 324.798C40.6949 324.81 35.0067 323.843 35.6019 322.27C35.8632 321.579 37.2988 320.863 39.5763 320.189C27.7414 315.288 20.6887 310.588 22.7798 308.494ZM72.5924 321.763C70.315 320.779 67.787 319.761 65.0651 318.742C64.997 320.18 64.6445 321.67 64.0176 323.095C67.5095 322.731 70.4997 322.265 72.5924 321.763ZM38.7978 322.214C38.5311 323.172 42.7373 323.772 49.0038 323.827C48.833 322.486 48.9366 321.044 49.3107 319.612C47.2621 319.849 45.4261 320.12 43.8761 320.411L43.6882 321.828C42.9213 321.534 42.173 321.24 41.4378 320.947C39.8685 321.362 38.9137 321.796 38.7978 322.214ZM42.4358 319.464C44.5347 318.998 47.0225 318.57 49.7661 318.206C50.2577 316.943 50.9558 315.719 51.8642 314.622C51.9399 314.531 52.0211 314.449 52.0984 314.36C39.3598 310.506 28.9984 308.726 27.6231 310.338C26.4055 311.765 32.6017 315.447 42.4358 319.464Z" fill="#9BE0FF"/>
<path opacity="0.7" d="M238.153 206.018C247.17 183.61 238.693 159.079 219.219 151.226C199.746 143.373 176.65 155.172 167.633 177.58C158.616 199.988 167.093 224.518 186.567 232.371C206.04 240.225 229.136 228.425 238.153 206.018Z" fill="#E0FF93"/>
<path d="M148.895 76.3638L159.618 58.0102L160.08 58.5883L150.138 77.1594L148.895 76.3638Z" fill="#F76037"/>
<path d="M282.867 201.077C283.107 201.953 283.626 204.512 284.133 204.373C284.639 204.233 284.942 201.448 284.7 200.572C284.46 199.696 283.854 199.099 283.348 199.239C282.842 199.377 282.626 200.201 282.867 201.077Z" fill="#D8CAED"/>
<path d="M356.187 160.875L354.132 164.912L356.241 165.988L358.296 161.95L356.187 160.875Z" fill="#E4D2F9"/>
<path d="M359.966 154.953L343.656 186.286L344.372 186.66L360.682 155.327L359.966 154.953Z" fill="#E4D2F9"/>
<path d="M349.985 199.063L344.22 195.254L338.279 209.808L341.568 211.875L349.985 199.063Z" fill="#C5B3DD"/>
<path d="M307.153 187.353C307.76 182.633 301.147 188.182 298.791 191.791C297.036 197.155 299.584 207.739 289.167 192.931C287.802 190.916 283.191 194.704 283.138 197.187C298.388 216.014 301.99 209.48 307.153 187.353Z" fill="#E4D2F9"/>
<path opacity="0.4" d="M307.153 187.353C307.76 182.633 300.952 187.664 298.791 191.791C296.974 196.321 299.584 207.739 289.167 192.931C287.802 190.916 283.234 193.622 283.182 196.105C298.432 214.932 301.99 210.086 307.153 187.353Z" fill="url(#paint0_linear_9684_130120)"/>
<path d="M351.369 186.828L339.839 179.901H316.085L297.061 231.382L326.413 240.47L351.369 186.828Z" fill="#E4D2F9"/>
<path opacity="0.4" d="M339.839 179.901L327.02 229.711L326.413 240.47L321.811 227.749L330.441 180.017L339.839 179.901Z" fill="url(#paint1_linear_9684_130120)"/>
<path opacity="0.4" d="M321.88 228.872L326.413 240.47L312.54 236.23L321.88 228.872Z" fill="url(#paint2_linear_9684_130120)"/>
<path opacity="0.7" d="M218.48 153.062C199.887 145.564 177.836 156.829 169.227 178.223C160.619 199.617 168.712 223.037 187.305 230.536C205.897 238.033 227.949 226.768 236.557 205.375C245.166 183.981 237.073 160.56 218.48 153.062ZM236.18 205.222C227.667 226.377 205.863 237.515 187.479 230.101C169.094 222.687 161.092 199.53 169.604 178.375C178.116 157.222 199.92 146.083 218.304 153.497C236.689 160.91 244.692 184.069 236.18 205.222Z" fill="#E0FF93"/>
<path d="M232.583 203.755C240.176 184.884 233.036 164.225 216.635 157.613C200.235 151 180.785 160.938 173.192 179.809C165.6 198.681 172.74 219.339 189.14 225.952C205.541 232.565 224.991 222.627 232.583 203.755Z" fill="#FCA13D"/>
<path d="M208.42 194.77C219.19 191.009 228.69 187.376 235.252 182.925C233.071 172.658 226.666 164.025 217.103 160.169C200.704 153.557 181.253 163.493 173.659 182.363C170.975 189.036 170.14 195.929 170.896 202.349C180.381 203.992 193.836 199.863 208.42 194.77Z" fill="#DB722C"/>
<path d="M207.958 192.231C218.728 188.469 228.229 184.836 234.79 180.386C232.61 170.119 226.204 161.486 216.642 157.63C200.242 151.017 180.792 160.953 173.198 179.824C170.513 186.496 169.678 193.39 170.435 199.81C179.92 201.453 193.376 197.324 207.958 192.231Z" fill="#D8972E"/>
<path d="M232.379 173.042C229.21 166.101 223.814 160.522 216.642 157.63C200.242 151.017 180.792 160.953 173.198 179.824C171.246 184.675 170.272 189.642 170.176 194.458C173.529 201.27 237.111 183.4 232.379 173.042Z" fill="#F9DA3E"/>
<path opacity="0.3" d="M184.729 138.924C186.341 134.918 184.826 130.532 181.344 129.129C177.863 127.725 173.734 129.834 172.122 133.84C170.509 137.846 172.025 142.232 175.506 143.636C178.988 145.039 183.118 142.929 184.729 138.924Z" fill="#E0FF93"/>
<path d="M183.281 138.339C184.523 135.254 183.355 131.876 180.674 130.794C177.992 129.713 174.812 131.337 173.57 134.423C172.328 137.508 173.495 140.886 176.177 141.967C178.859 143.05 182.039 141.425 183.281 138.339Z" fill="#7793DB"/>
<path d="M168.719 136.436C169.336 134.902 168.757 133.222 167.423 132.685C166.09 132.147 164.509 132.955 163.892 134.489C163.275 136.022 163.855 137.702 165.187 138.24C166.522 138.777 168.103 137.97 168.719 136.436Z" fill="#5A71A3"/>
<path opacity="0.3" d="M246.811 271.678C249.087 266.021 246.948 259.829 242.031 257.846C237.115 255.863 231.285 258.842 229.008 264.499C226.732 270.155 228.871 276.348 233.788 278.33C238.704 280.313 244.535 277.334 246.811 271.678Z" fill="#DDFEC9"/>
<path d="M245.61 271.193C247.579 266.3 245.727 260.943 241.474 259.228C237.222 257.513 232.179 260.09 230.21 264.983C228.241 269.876 230.092 275.232 234.344 276.947C238.597 278.663 243.641 276.085 245.61 271.193Z" fill="#987EAF"/>
<path d="M206.328 402.196C181.12 402.196 158.061 391.696 141.993 376.974C132.011 379.512 123.222 379.087 115.996 377.443C87.995 371.074 64.4126 341.38 55.9174 301.795C47.1361 260.88 54.4431 204.547 101.285 169.143L102.119 170.25C55.7968 205.26 48.5786 261.007 57.2702 301.505C65.6534 340.566 88.8245 369.843 116.302 376.093C123.135 377.648 131.402 378.083 140.782 375.845C130.709 366.269 123.562 355.023 120.622 343.767C113.998 318.397 128.576 296.135 160.619 282.687C177.852 276.93 194.882 280.141 203.048 290.668C207.732 296.708 213.291 310.417 197.881 334.353C177.9 360.21 159.348 372.075 143.63 376.535C147.389 379.874 151.534 382.987 156.013 385.81C174.504 397.47 195.992 402.589 216.504 400.229C246.683 396.758 317.372 370.215 321.966 199.16L323.35 199.198C321.562 265.784 309.541 317.353 287.62 352.475C264.853 388.955 236.466 399.327 216.663 401.604C213.189 402.004 209.735 402.196 206.328 402.196ZM177.368 281.231C172.179 281.231 166.655 282.127 161.106 283.982C129.814 297.117 115.529 318.786 121.96 343.415C124.937 354.812 132.142 365.969 142.411 375.431C158.044 371.24 176.638 359.58 196.752 333.555C207.796 316.393 209.656 301.447 201.954 291.517C196.755 284.811 187.729 281.231 177.368 281.231Z" fill="#B59DCE"/>
<path d="M127.36 158.769L95.1057 210.748C103.333 224.029 111.629 236.07 100.308 262.712C101.188 263.759 102.312 264.799 103.299 265.605C132.126 232.399 145.49 175.963 127.36 158.769Z" fill="#F76037"/>
<path d="M104.708 146.518L72.9349 198.793C57.3189 197.433 42.786 195.447 24.0392 217.875C22.8386 216.665 21.628 215.713 21.1108 214.388C38.3471 174.211 81.6342 138.24 104.708 146.518Z" fill="#F76037"/>
<path opacity="0.6" d="M21.781 212.902C21.5599 213.398 21.3249 213.891 21.1115 214.388C21.6287 215.712 22.8393 216.665 24.0399 217.874C29.5465 211.287 34.6881 206.806 39.6018 203.796C37.3614 203.185 31.5827 204.174 29.5998 205.634C26.8492 207.659 24.5556 209.811 21.781 212.902Z" fill="#DDFEC9"/>
<path d="M150.275 75.3957C118.482 96.8372 73.2565 140.31 65.273 198.061L98.3904 216.847C137.249 185.327 146.349 125.244 150.275 75.3957Z" fill="#AAE0DE"/>
<path d="M65.273 198.061L82.6941 207.943L149.554 75.8909C117.802 97.498 73.1962 140.741 65.273 198.061Z" fill="#7EB7B3"/>
<path opacity="0.1" d="M78.1539 205.368L82.6941 207.943L149.554 75.8909C120.497 99.305 122.812 133.018 78.1539 205.368Z" fill="#5B3B19"/>
<g opacity="0.4">
<path opacity="0.6" d="M86.9939 140.006C76.6642 156.61 68.7495 175.451 65.5768 196.152L79.5732 202.1C78.4685 177.557 80.6091 156.487 86.9939 140.006Z" fill="#DDFEC9"/>
</g>
<path d="M229.98 305.225C227.395 304.486 225.788 302.119 225.476 300.716C226.428 303.013 224.645 305.161 220.972 305.225C223.467 304.993 225.421 307.05 225.476 309.734C226.297 306.772 228.428 304.938 229.98 305.225Z" fill="#C9F4F4"/>
<path d="M261.324 338.267C258.739 337.528 257.133 335.161 256.821 333.759C257.773 336.055 255.99 338.203 252.316 338.267C254.812 338.036 256.765 340.092 256.821 342.776C257.642 339.815 259.772 337.98 261.324 338.267Z" fill="#C9F4F4"/>
<path d="M334.971 402.483C332.387 401.743 330.78 399.376 330.468 397.974C331.42 400.27 329.637 402.419 325.964 402.483C328.459 402.251 330.413 404.308 330.468 406.991C331.289 404.031 333.42 402.196 334.971 402.483Z" fill="#C9F4F4"/>
<path opacity="0.5" d="M364.145 357.597C363.008 357.272 362.301 356.231 362.163 355.614C362.582 356.623 361.798 357.568 360.182 357.597C361.28 357.495 362.139 358.4 362.163 359.581C362.524 358.278 363.462 357.471 364.145 357.597Z" fill="#C9F4F4"/>
<path opacity="0.5" d="M373.504 430.786C372.367 430.461 371.66 429.42 371.523 428.802C371.942 429.812 371.157 430.757 369.542 430.786C370.639 430.683 371.498 431.588 371.523 432.769C371.884 431.467 372.822 430.659 373.504 430.786Z" fill="#C9F4F4"/>
<path opacity="0.5" d="M224.476 430.939C223.34 430.614 222.632 429.573 222.496 428.955C222.915 429.966 222.13 430.91 220.514 430.939C221.612 430.837 222.471 431.742 222.496 432.922C222.857 431.62 223.794 430.813 224.476 430.939Z" fill="#C9F4F4"/>
<path opacity="0.5" d="M165.289 327.673C164.151 327.348 163.445 326.307 163.307 325.689C163.726 326.7 162.942 327.644 161.326 327.673C162.423 327.572 163.282 328.476 163.307 329.656C163.669 328.354 164.607 327.547 165.289 327.673Z" fill="#C9F4F4"/>
<path opacity="0.5" d="M20.3872 362.836C19.25 362.511 18.5434 361.47 18.4058 360.853C18.8248 361.863 18.0401 362.808 16.4244 362.836C17.5214 362.735 18.3811 363.64 18.4058 364.82C18.7676 363.517 19.7046 362.71 20.3872 362.836Z" fill="#C9F4F4"/>
<path opacity="0.5" d="M51.8255 76.9318C50.6891 76.6068 49.9817 75.5659 49.8441 74.9484C50.2631 75.9583 49.4785 76.9032 47.8628 76.9318C48.9605 76.8297 49.8194 77.7344 49.8441 78.9153C50.2052 77.6129 51.1429 76.8057 51.8255 76.9318Z" fill="#C9F4F4"/>
<path opacity="0.5" d="M203.862 81.5752C202.724 81.2502 202.018 80.2093 201.88 79.5917C202.299 80.6017 201.515 81.5466 199.899 81.5752C200.996 81.4731 201.855 82.3777 201.88 83.5587C202.242 82.2562 203.18 81.4491 203.862 81.5752Z" fill="#C9F4F4"/>
<path opacity="0.5" d="M307.967 33.6743C306.831 33.3493 306.124 32.3084 305.987 31.6909C306.407 32.7008 305.621 33.6457 304.005 33.6743C305.103 33.573 305.962 34.4776 305.987 35.6578C306.349 34.3554 307.286 33.5482 307.967 33.6743Z" fill="#C9F4F4"/>
<path d="M62.8525 422.469C60.2682 421.73 58.661 419.364 58.3479 417.961C59.3011 420.257 57.5168 422.405 53.8432 422.469C56.3387 422.238 58.2922 424.295 58.3479 426.979C59.1697 424.017 61.3002 422.182 62.8525 422.469Z" fill="#C9F4F4"/>
<path d="M134.605 407.126C130.405 405.924 127.793 402.079 127.285 399.799C128.834 403.53 125.935 407.022 119.966 407.126C124.021 406.75 127.196 410.092 127.285 414.453C128.62 409.641 132.082 406.659 134.605 407.126Z" fill="#C9F4F4"/>
<path d="M27.0139 263.182C22.8138 261.98 20.2024 258.135 19.6945 255.855C21.243 259.586 18.344 263.078 12.3751 263.182C16.4306 262.806 19.6056 266.149 19.6945 270.509C21.0296 265.697 24.4922 262.716 27.0139 263.182Z" fill="#C9F4F4"/>
<path d="M213.323 37.2056C209.123 36.0038 206.512 32.1583 206.004 29.8784C207.553 33.6101 204.653 37.1012 198.684 37.2056C202.739 36.8295 205.914 40.172 206.004 44.5328C207.339 39.7208 210.801 36.739 213.323 37.2056Z" fill="#C9F4F4"/>
<path d="M364.844 82.8653C360.644 81.6634 358.033 77.818 357.525 75.5381C359.074 79.2698 356.174 82.76 350.206 82.8653C354.26 82.4892 357.435 85.8316 357.525 90.1925C358.86 85.3804 362.323 82.3986 364.844 82.8653Z" fill="#C9F4F4"/>
<path d="M350.339 270.166C347.754 269.426 346.147 267.059 345.835 265.657C346.787 267.953 345.004 270.102 341.331 270.166C343.826 269.934 345.78 271.991 345.835 274.675C346.656 271.714 348.787 269.879 350.339 270.166Z" fill="#C9F4F4"/>
<path d="M171.499 262.182C168.915 261.442 167.308 259.075 166.995 257.672C167.948 259.969 166.164 262.117 162.491 262.182C164.986 261.949 166.94 264.006 166.995 266.69C167.817 263.729 169.947 261.894 171.499 262.182Z" fill="#C9F4F4"/>
<path d="M244.72 244.433C242.135 243.693 240.528 241.327 240.216 239.924C241.169 242.22 239.386 244.369 235.712 244.433C238.208 244.201 240.161 246.258 240.216 248.942C241.037 245.981 243.168 244.146 244.72 244.433Z" fill="#C9F4F4"/>
<path d="M100.252 301.331C97.6676 300.592 96.0604 298.226 95.7473 296.823C96.7005 299.119 94.9163 301.267 91.2427 301.331C93.7389 301.1 95.6925 303.157 95.7473 305.84C96.5691 302.879 98.6997 301.043 100.252 301.331Z" fill="#C9F4F4"/>
<path d="M153.307 183.326C150.722 182.587 149.115 180.22 148.802 178.817C149.755 181.113 147.971 183.262 144.298 183.326C146.793 183.094 148.747 185.151 148.802 187.835C149.624 184.874 151.755 183.039 153.307 183.326Z" fill="#C9F4F4"/>
<path d="M284.214 163.201C281.629 162.461 280.023 160.095 279.71 158.692C280.663 160.988 278.879 163.136 275.206 163.201C277.701 162.969 279.655 165.026 279.71 167.71C280.531 164.748 282.662 162.914 284.214 163.201Z" fill="#C9F4F4"/>
<path d="M303.991 266.12C301.406 265.38 299.799 263.013 299.487 261.61C300.439 263.907 298.656 266.055 294.982 266.12C297.478 265.888 299.432 267.945 299.487 270.629C300.307 267.667 302.438 265.832 303.991 266.12Z" fill="#C9F4F4"/>
<path d="M58.3703 134.702C55.7859 133.963 54.1787 131.596 53.8656 130.193C54.8181 132.489 53.0346 134.638 49.361 134.702C51.8572 134.471 53.81 136.528 53.8656 139.212C54.6874 136.25 56.818 134.415 58.3703 134.702Z" fill="#C9F4F4"/>
<path d="M269.654 86.4856C267.07 85.7465 265.463 83.3799 265.15 81.9769C266.103 84.273 264.319 86.4221 260.646 86.4856C263.142 86.2542 265.095 88.3112 265.15 90.995C265.971 88.0333 268.102 86.1984 269.654 86.4856Z" fill="#C9F4F4"/>
<path d="M336.099 195.482C336.524 184.744 326.018 184.928 310.637 184.196C306.319 183.991 305.369 185.052 303.402 188.906C303.045 185.856 310.782 204.489 277.776 234.345C282.344 240.218 287.957 244.097 305.379 243.949C309.303 243.915 312.995 242.077 315.393 238.966C327.378 223.424 338.411 212.618 336.099 195.482Z" fill="#E4D2F9"/>
<path opacity="0.4" d="M330.441 188.783C323.437 192.859 324.656 192.416 329.326 186.096C332.403 176.208 311.114 184.218 310.638 184.196C306.32 183.991 305.37 185.051 303.403 188.905C305.513 205.74 291.814 219.859 277.777 234.345C282.345 240.217 288.349 247.628 305.38 243.948C316.259 241.598 289.585 223.906 294.64 217.877C298.618 212.856 316.087 238.07 327.248 223.704C332.326 217.166 335.557 207.157 334.248 197.447C334.365 194.459 332.337 190.357 330.441 188.783Z" fill="url(#paint3_linear_9684_130120)"/>
<path d="M337.203 167.487C337.203 155.483 328.595 145.753 317.977 145.753C307.359 145.753 298.751 155.483 298.751 167.487C298.751 179.49 307.359 189.22 317.977 189.22C328.595 189.22 337.203 179.49 337.203 167.487Z" fill="#E4D2F9"/>
<path opacity="0.4" d="M323.685 184.199C313.067 184.199 304.458 174.469 304.458 162.466C304.458 156.969 306.278 151.963 309.255 148.135C303.026 151.731 298.751 159.037 298.751 167.487C298.751 179.49 307.359 189.22 317.977 189.22C323.732 189.22 328.883 186.346 332.406 181.817C329.787 183.329 326.828 184.199 323.685 184.199Z" fill="url(#paint4_linear_9684_130120)"/>
<path opacity="0.95" d="M313.653 184.218C321.172 184.218 327.268 176.597 327.268 167.196C327.268 157.794 321.172 150.173 313.653 150.173C306.134 150.173 300.039 157.794 300.039 167.196C300.039 176.597 306.134 184.218 313.653 184.218Z" fill="#283C4C"/>
<path opacity="0.95" d="M327.268 167.196C327.268 157.794 321.16 151.948 313.64 151.948C306.121 151.948 300.038 157.794 300.038 167.196C300.038 176.597 306.134 184.218 313.653 184.218C321.173 184.218 327.268 176.597 327.268 167.196Z" fill="url(#paint5_linear_9684_130120)"/>
<path d="M247.517 220.725C241.318 221.544 237.986 209.021 245.601 208.789C262.528 208.274 276.681 207.923 287.736 226.736L285.976 240.743C272.071 233.918 273.424 217.3 247.517 220.725Z" fill="#E4D2F9"/>
<path opacity="0.4" d="M245.581 208.803C244.145 208.993 242.695 209.134 241.685 211.15C239.973 214.792 242.955 221.339 247.496 220.739C273.403 217.314 272.051 233.932 285.955 240.757L287.177 225.769C274.902 205.772 255.53 211.832 245.581 208.803Z" fill="url(#paint6_linear_9684_130120)"/>
<path d="M301.212 264.509L292.91 265.895L294.293 271.782L301.443 271.204L301.212 264.509Z" fill="#E4D2F9"/>
<path d="M301.199 223.873C301.529 221.794 300.68 219.696 298.997 218.435C298.968 218.413 298.94 218.392 298.91 218.371C296.961 216.952 294.429 216.613 292.177 217.471C289.924 218.327 288.259 220.264 287.74 222.619C285.941 230.796 286.483 243.629 290.103 265.973C291.079 268.569 296.245 269.949 300.302 268.349C302.162 267.616 303.242 265.679 302.895 263.708C300.507 250.155 298.987 237.804 301.199 223.873Z" fill="#E4D2F9"/>
<path d="M366.657 170.206L366.499 169.631C352.768 175.554 352.746 176.139 346.915 188.391L347.697 188.667C353.493 176.899 353.588 175.452 366.657 170.206Z" fill="#E4D2F9"/>
<path d="M150.275 75.3957C142.998 80.3029 128.948 89.9263 120.498 99.3051C126.873 106.202 139.452 118.365 144.003 126.634C147.8 113.3 148.958 92.1203 150.275 75.3957Z" fill="#F76037"/>
<path opacity="0.5" d="M188.419 165.972C189.424 163.475 190.641 161.141 192.027 158.974C183.992 162.948 177.061 170.227 173.199 179.824C165.605 198.695 172.744 219.354 189.144 225.967C203.374 231.706 225.688 224.919 233.745 200.518C195.533 219.416 177.942 192.008 188.419 165.972Z" fill="#693300"/>
<path d="M103.095 212.752L65.6124 195.778L61.495 201.949L97.1234 221.686L103.095 212.752Z" fill="#AAE0DE"/>
<path d="M95.1768 209.166L65.6124 195.778L61.495 201.949L85.7493 215.385L95.1768 209.166Z" fill="#7EB7B3"/>
<path d="M86.5733 213.029L75.5038 208.354L69.6238 215.28L83.5468 221.686L86.5733 213.029Z" fill="#7EB7B3"/>
<path d="M68.0669 203.68L63.5731 198.833L53.357 200.867L60.8032 210.605L68.0669 203.68Z" fill="#7EB7B3"/>
<path opacity="0.4" d="M99.9783 217.416L64.0485 198.121L65.6124 195.778L103.095 212.752L99.9783 217.416Z" fill="#008D93"/>
<path opacity="0.3" d="M207.024 178.548C210.145 178.548 212.675 176.732 212.675 174.491C212.675 172.251 210.145 170.434 207.024 170.434C203.904 170.434 201.374 172.251 201.374 174.491C201.374 176.732 203.904 178.548 207.024 178.548Z" fill="#693300"/>
<path opacity="0.3" d="M199.462 160.514C199.168 159.592 197.042 159.448 194.713 160.192C192.385 160.936 190.735 162.287 191.029 163.208C191.323 164.13 193.449 164.274 195.778 163.53C198.107 162.787 199.756 161.436 199.462 160.514Z" fill="#693300"/>
<path opacity="0.3" d="M183.599 180.894C182.244 180.455 180.636 182.675 180.012 185.853C179.386 189.029 179.978 191.962 181.335 192.4C182.691 192.839 184.298 190.62 184.923 187.443C185.548 184.265 184.955 181.333 183.599 180.894Z" fill="#693300"/>
<path opacity="0.3" d="M188.026 208.369C187.224 209.408 188.178 211.129 190.156 212.214C192.133 213.298 194.386 213.334 195.188 212.295C195.989 211.256 195.035 209.534 193.058 208.45C191.08 207.366 188.827 207.33 188.026 208.369Z" fill="#693300"/>
<path opacity="0.3" d="M224.96 206.372C224.047 205.429 222.209 206.128 220.854 207.932C219.5 209.736 219.141 211.963 220.054 212.906C220.967 213.848 222.806 213.149 224.16 211.345C225.514 209.541 225.873 207.314 224.96 206.372Z" fill="#693300"/>
<path opacity="0.3" d="M208.767 221.3C208.618 219.996 206.735 219.428 204.562 220.032C202.39 220.637 200.749 222.183 200.899 223.488C201.049 224.792 202.932 225.359 205.105 224.755C207.278 224.151 208.917 222.604 208.767 221.3Z" fill="#693300"/>
<path opacity="0.3" d="M217.717 188.862C216.378 188.295 214.647 190.169 213.855 193.046C213.063 195.924 213.506 198.717 214.846 199.284C216.187 199.852 217.916 197.979 218.709 195.101C219.502 192.222 219.059 189.43 217.717 188.862Z" fill="#693300"/>
<path opacity="0.3" d="M227.403 174.394C226.327 174.512 225.882 176.356 226.408 178.513C226.934 180.67 228.233 182.324 229.309 182.206C230.386 182.088 230.831 180.244 230.304 178.087C229.778 175.93 228.479 174.277 227.403 174.394Z" fill="#693300"/>
<path d="M96.8466 187.83L108.193 157.624L104.042 156.24L88.1465 182.368L62.1862 242.117L65.7446 243.552L96.8466 187.83Z" fill="#F76037"/>
<path d="M102.787 113.519L89.763 131.308L99.6985 125.698L102.787 113.519Z" fill="#AAE0DE"/>
<path opacity="0.5" d="M103.664 113.224C102.972 118.765 94.8436 131.231 88.6034 132.726C87.2003 136.13 87.9046 137.577 86.9939 140.006C98.0217 138.876 110.647 123.033 110.215 109.794C108.659 111.347 106.22 111.009 103.664 113.224Z" fill="#002958"/>
<path d="M102.973 112.532C102.281 118.072 94.1525 130.539 87.9123 132.033C86.5084 135.437 86.8571 136.854 87.4113 138.909C97.8168 137.8 109.778 119.56 109.488 110.569C107.322 110.619 105.528 110.317 102.973 112.532Z" fill="#4F88A8"/>
<path d="M335.167 190.963C332.69 186.02 327.328 189.136 327.432 194.163C334.073 217.011 331.929 225.456 314.702 204.026C312.108 202.987 308.303 207.835 309.859 210.259C328.539 236.23 345.489 229.478 335.167 190.963Z" fill="#E4D2F9"/>
<path d="M336.862 198.181L329.03 200.065L330.298 205.943L337.946 205.07L336.862 198.181Z" fill="#798ED3"/>
<path opacity="0.4" d="M293.792 267.476C290.173 243.475 289.631 229.69 291.429 220.908C291.726 219.459 292.409 218.168 293.351 217.148C292.954 217.225 292.56 217.324 292.175 217.471C289.923 218.327 288.259 220.264 287.74 222.619C285.941 230.796 286.483 243.629 290.103 265.973C290.648 267.421 292.497 268.489 294.729 268.874C294.297 268.459 293.972 267.991 293.792 267.476Z" fill="url(#paint7_linear_9684_130120)"/>
<path d="M290.466 180.543L274.574 178.957L272.96 179.65L289.24 207.699L300.419 212.149L302.033 211.457L290.466 180.543Z" fill="#F4CBBE"/>
<path d="M288.852 181.235L272.96 179.65L287.626 208.391L300.419 212.149L288.852 181.235Z" fill="#B5816D"/>
<path opacity="0.4" d="M329.739 215.964C333.799 216.453 334.121 205.306 330.027 191.219C330.008 190.335 330.167 189.515 330.441 188.783C328.754 189.534 327.379 191.595 327.432 194.163C330.028 203.094 332.32 213.624 329.739 215.964Z" fill="url(#paint8_linear_9684_130120)"/>
<path opacity="0.4" d="M312.454 207.316C311.921 206.485 312.025 205.371 312.487 204.306C310.457 205.416 308.72 208.483 309.86 210.259C321.133 225.933 331.766 229.668 336.164 221.715C330.907 225.205 321.905 220.456 312.454 207.316Z" fill="url(#paint9_linear_9684_130120)"/>
<path d="M323.581 238.885L318.854 237.038L317.816 242.145L322.658 243.848L323.581 238.885Z" fill="#E4D2F9"/>
<path d="M313.953 225.611L308.713 224.579C314.696 227.161 318.988 229.937 318.512 234.985L320.711 232.216C320.791 228.214 318.801 227.42 313.953 225.611Z" fill="#798ED3"/>
<path d="M307.179 188.472L303.028 188.068L302.97 194.648L306.908 194.639L307.179 188.472Z" fill="#E5D9F9"/>
<path opacity="0.4" d="M313.874 159.347C313.874 168.748 319.971 176.369 327.49 176.369C331.112 176.369 334.396 174.589 336.835 171.704C337.073 170.339 337.203 168.931 337.203 167.487C337.203 155.966 329.268 146.565 319.243 145.825C315.986 148.936 313.874 153.827 313.874 159.347Z" fill="#DDFEC9"/>
<path opacity="0.95" d="M313.653 150.174C312.89 150.174 312.147 150.272 311.418 150.422C311.813 150.379 312.211 150.346 312.615 150.346C320.135 150.346 326.23 157.968 326.23 167.369C326.23 175.816 321.304 182.807 314.85 184.142C321.808 183.383 327.268 176.091 327.268 167.196C327.268 157.794 321.173 150.174 313.653 150.174Z" fill="#283C4C"/>
<path d="M314.762 143.481L304.671 147.005L306.731 150.749L315.74 148.505L320.1 145.91L314.762 143.481Z" fill="#E4D2F9"/>
<path d="M314.762 143.481L315.74 148.505L306.731 150.749L304.671 147.005L314.762 143.481Z" fill="#C5B3DD"/>
<path d="M298.2 290.822C303.287 282.286 299.828 278.477 298.791 265.491C296.164 264.61 296.793 279.76 291.696 287.365C288.182 292.606 287.516 296.469 290.143 297.349C292.769 298.229 295.485 296.519 298.2 290.822Z" fill="#E4D2F9"/>
<path d="M223.953 214.83C230.389 219.729 232.929 216.96 242.211 216.821C242.692 214.601 231.829 214.26 226.064 209.408C222.09 206.063 219.272 205.261 218.791 207.481C218.309 209.701 219.697 212.15 223.953 214.83Z" fill="#ECDEFF"/>
<path d="M243.685 211.184L239.035 212.489L239.64 218.397L244.323 217.874L243.685 211.184Z" fill="#E4D2F9"/>
<path opacity="0.4" d="M243.685 211.184L239.035 212.489L239.64 218.397L244.323 217.874L243.685 211.184Z" fill="url(#paint10_linear_9684_130120)"/>
<path d="M286.368 204.05C285.654 202.199 284.551 200.901 283.905 201.151C283.259 201.401 283.314 203.103 284.028 204.955C284.741 206.806 286.809 207.268 287.455 207.018C288.1 206.769 287.081 205.901 286.368 204.05Z" fill="#D8CAED"/>
<path d="M285.515 202.25C286.216 201.672 286.513 200.875 286.178 200.469C285.843 200.063 285.004 200.203 284.305 200.781C283.605 201.359 283.308 202.156 283.643 202.562C283.976 202.967 284.815 202.827 285.515 202.25Z" fill="#D8CAED"/>
<path d="M286.42 202.727C285.591 203.096 285.092 203.786 285.306 204.266C285.519 204.746 286.364 204.836 287.193 204.466C288.022 204.096 288.521 203.407 288.307 202.928C288.094 202.448 287.249 202.357 286.42 202.727Z" fill="#D8CAED"/>
<path d="M287.184 205.122C286.329 205.424 285.776 206.071 285.95 206.567C286.124 207.063 286.959 207.221 287.814 206.919C288.67 206.617 289.223 205.971 289.049 205.475C288.875 204.979 288.039 204.821 287.184 205.122Z" fill="#D8CAED"/>
<path d="M267.568 210.136L266.448 215.972L269.675 210.785L267.568 210.136Z" fill="#E4D2F9"/>
<path d="M272.139 211.744L271.204 216.059L273.406 213.245L272.139 211.744Z" fill="#E4D2F9"/>
<path d="M320.5 156.047C319.814 154.977 318.883 154.352 318.42 154.649C317.956 154.947 318.136 156.055 318.821 157.124C319.507 158.194 320.438 158.82 320.901 158.522C321.365 158.225 321.185 157.116 320.5 156.047Z" fill="#BED7BB"/>
<path d="M316.762 180.308C308.697 180.308 302.125 172.411 301.678 162.468C301.22 164.093 300.959 165.834 300.959 167.654C300.959 176.298 306.563 183.304 313.476 183.304C316.753 183.304 319.728 181.716 321.96 179.137C320.337 179.88 318.592 180.308 316.762 180.308Z" fill="#BED7BB"/>
<path d="M325.93 150.117C325.93 150.117 330.811 158.967 334.73 160.797C334.73 160.797 328.43 163.855 325.93 150.117Z" fill="#C5B3DD"/>
<path d="M334.352 152.527C331.783 149.474 327.905 147.15 326.532 148.309C325.158 149.467 326.809 153.67 329.379 156.723C331.948 159.775 334.464 161.637 335.837 160.478C337.212 159.32 336.923 155.58 334.352 152.527Z" fill="#F0E6FF"/>
<path d="M161.752 234.787L163.596 230.632L170.284 231.555L169.823 236.865L165.902 238.712L161.752 234.787Z" fill="#FCA13D"/>
<path opacity="0.5" d="M161.752 234.787L163.596 230.632L166.652 235.191L169.823 236.865L165.902 238.712L161.752 234.787Z" fill="#693300"/>
<path d="M176.799 210.374L178.643 206.219L185.331 207.143L184.87 212.452L180.949 214.299L176.799 210.374Z" fill="#FCA13D"/>
<path opacity="0.7" d="M176.799 210.374L178.643 206.219L181.699 210.778L184.87 212.452L180.949 214.299L176.799 210.374Z" fill="#693300"/>
<path d="M256.759 168.996L254.402 166.673L256.742 162.345L260.24 164.019L260.494 167.167L256.759 168.996Z" fill="#FCA13D"/>
<path d="M168.958 223.904L169.882 221.822L173.234 222.284L173.003 224.945L171.039 225.871L168.958 223.904Z" fill="#FCA13D"/>
<path d="M192.87 216.971L193.795 214.888L197.146 215.351L196.916 218.012L194.95 218.937L192.87 216.971Z" fill="#FCA13D"/>
<path d="M244.819 180.818L245.743 178.735L249.095 179.198L248.864 181.859L246.899 182.784L244.819 180.818Z" fill="#FCA13D"/>
<path d="M253.188 171.116L253.778 169.787L255.916 170.082L255.768 171.78L254.515 172.371L253.188 171.116Z" fill="#FCA13D"/>
<path d="M248.748 165.531L249.339 164.202L251.477 164.498L251.329 166.196L250.076 166.786L248.748 165.531Z" fill="#FCA13D"/>
<path d="M261.072 158.779L261.662 157.451L263.801 157.746L263.654 159.444L262.4 160.035L261.072 158.779Z" fill="#FCA13D"/>
<path d="M241.324 189.568L241.914 188.239L244.053 188.535L243.906 190.232L242.652 190.823L241.324 189.568Z" fill="#FCA13D"/>
<path d="M225.312 192.613L225.901 191.284L228.04 191.58L227.892 193.278L226.638 193.868L225.312 192.613Z" fill="#825325"/>
<path d="M210.149 204.56L210.739 203.231L212.878 203.527L212.73 205.225L211.476 205.815L210.149 204.56Z" fill="#825325"/>
<path d="M153.513 225.813L154.103 224.484L156.241 224.78L156.094 226.477L154.841 227.069L153.513 225.813Z" fill="#FCA13D"/>
<path d="M138.473 250.802L139.063 249.473L141.202 249.769L141.054 251.466L139.801 252.057L138.473 250.802Z" fill="#FCA13D"/>
<path d="M153.461 245.739L154.507 243.384L158.296 243.906L158.035 246.916L155.813 247.962L153.461 245.739Z" fill="#FCA13D"/>
<path d="M225.901 191.284L226.87 192.714L228.04 191.58L225.901 191.284Z" fill="#F9DA3E"/>
<path d="M207.583 194.691L208.174 193.362L210.312 193.657L210.164 195.356L208.911 195.946L207.583 194.691Z" fill="#825325"/>
<path d="M208.174 193.362L209.142 194.792L210.312 193.657L208.174 193.362Z" fill="#F9DA3E"/>
<path d="M210.739 203.174L211.707 204.603L212.878 203.469L210.739 203.174Z" fill="#F9DA3E"/>
<path opacity="0.6" d="M103.644 265.193C128.673 236.074 141.894 189.493 132.678 166.854C137.648 154.028 141.216 140.299 143.862 126.395C143.906 126.473 143.96 126.556 144.003 126.634C147.669 113.761 148.875 93.5883 150.139 77.1594C108.309 160.51 119.113 161.548 113.917 200.906C109.414 224.06 119.262 226.188 103.644 265.193Z" fill="#DDFEC9"/>
<path d="M132.678 166.854C127.834 184.283 106.809 229.188 106.809 229.188C106.809 229.188 103.7 220.78 104.503 214.414C105.306 208.048 118.455 201.602 132.678 166.854Z" fill="#F76037"/>
<path opacity="0.6" d="M104.042 156.24L65.7446 243.552L96.8466 187.83L108.193 157.624L104.042 156.24Z" fill="#DDFEC9"/>
<path opacity="0.3" d="M104.412 124.807C107.632 119.744 109.611 114.367 109.488 110.569C107.322 110.619 105.529 110.317 102.973 112.532C102.679 114.882 101.041 118.478 98.7824 121.955C96.8358 126.517 102.902 127.079 104.412 124.807Z" fill="#DDFEC9"/>
<path opacity="0.3" d="M105.279 114.825C105.644 113.521 105.58 112.362 105.135 112.238C104.691 112.113 104.035 113.07 103.67 114.374C103.305 115.678 103.369 116.837 103.814 116.961C104.258 117.085 104.914 116.129 105.279 114.825Z" fill="#DDFEC9"/>
<path opacity="0.7" d="M192.87 216.971L194.782 216.863L196.916 218.012L194.95 218.937L192.87 216.971Z" fill="#693300"/>
<path opacity="0.5" d="M168.958 223.904L169.882 221.822L170.716 224.024L173.003 224.945L171.039 225.871L168.958 223.904Z" fill="#693300"/>
<path opacity="0.5" d="M153.513 225.813L154.509 225.727H155.546L156.094 226.477L154.841 227.068L153.513 225.813Z" fill="#693300"/>
<path opacity="0.5" d="M153.461 245.739L154.507 243.384L156.275 245.58L158.196 245.062L158.035 246.916L155.813 247.962L153.461 245.739Z" fill="#693300"/>
<path d="M137.827 261.805L138.339 260.651L140.195 260.908L140.067 262.38L138.979 262.894L137.827 261.805Z" fill="#FCA13D"/>
<path opacity="0.5" d="M137.827 261.805L138.339 260.651L140.195 260.908L140.067 262.38L138.979 262.894L137.827 261.805Z" fill="#693300"/>
<path d="M155.689 217.347L156.877 214.672L161.184 215.266L160.887 218.686L158.362 219.874L155.689 217.347Z" fill="#FCA13D"/>
<path opacity="0.5" d="M155.689 217.347L156.877 214.672L161.184 215.266L160.887 218.686L158.362 219.874L155.689 217.347Z" fill="#693300"/>
<path d="M149.747 238.734L150.034 238.086L151.078 238.23L151.005 239.058L150.394 239.347L149.747 238.734Z" fill="#FCA13D"/>
<path opacity="0.5" d="M149.747 238.734L150.034 238.086L151.078 238.23L151.005 239.058L150.394 239.347L149.747 238.734Z" fill="#693300"/>
<path d="M146.713 249.757L147.001 249.109L148.045 249.253L147.973 250.082L147.361 250.37L146.713 249.757Z" fill="#FCA13D"/>
<path opacity="0.5" d="M146.713 249.757L147.001 249.109L148.045 249.253L147.973 250.082L147.361 250.37L146.713 249.757Z" fill="#693300"/>
<path opacity="0.5" d="M244.819 180.818L245.743 178.735L246.443 180.825L248.864 181.859L246.899 182.784L244.819 180.818Z" fill="#693300"/>
<path opacity="0.5" d="M241.324 189.568L241.914 188.239L242.407 189.482L243.906 190.232L242.652 190.823L241.324 189.568Z" fill="#693300"/>
<path opacity="0.5" d="M253.188 171.116L253.778 169.787L255.916 170.082L255.768 171.78L254.515 172.371L253.188 171.116Z" fill="#693300"/>
<path opacity="0.5" d="M256.759 168.996L254.402 166.673L256.243 165.589L259.357 166.282L260.494 167.167L256.759 168.996Z" fill="#693300"/>
<path opacity="0.5" d="M248.748 165.531L249.339 164.202L249.556 165.589L251.329 166.196L250.076 166.786L248.748 165.531Z" fill="#693300"/>
<path opacity="0.5" d="M261.072 158.779L261.662 157.451L262.239 159.125L263.654 159.444L262.4 160.035L261.072 158.779Z" fill="#693300"/>
<path opacity="0.5" d="M274.522 122.769C277.178 116.171 274.681 108.947 268.947 106.634C263.212 104.321 256.412 107.796 253.756 114.394C251.101 120.993 253.598 128.217 259.332 130.529C265.066 132.842 271.867 129.368 274.522 122.769Z" fill="#A4FBFF"/>
<path d="M272.554 121.975C274.705 116.627 272.683 110.773 268.035 108.899C263.389 107.025 257.877 109.841 255.725 115.188C253.574 120.535 255.596 126.39 260.244 128.263C264.891 130.138 270.403 127.322 272.554 121.975Z" fill="#D8A739"/>
<path opacity="0.3" d="M258.919 110.711C257.58 111.858 256.456 113.372 255.725 115.188C253.574 120.535 255.596 126.39 260.244 128.263C264.891 130.138 270.403 127.322 272.554 121.975C264.718 128.276 256.811 119.436 258.919 110.711Z" fill="#693300"/>
<path opacity="0.4" d="M266.124 122.031C268.234 122.882 270.519 122.758 272.589 121.878C274.677 116.557 272.655 110.763 268.035 108.899C265.926 108.049 263.641 108.172 261.572 109.052C259.483 114.374 261.505 120.168 266.124 122.031Z" fill="#DDFEC9"/>
<path d="M266.159 113.631C248.838 120.748 234.797 128.733 234.797 131.466C234.797 133.746 244.556 131.655 257.839 126.773L256.81 125.838C246.754 129.426 239.444 131.159 239.297 129.804C239.11 128.087 250.482 122.074 264.695 116.373C278.909 110.673 290.583 107.443 290.769 109.161C290.919 110.542 283.583 114.705 273.311 119.247L273.204 120.508C287.132 114.281 297.521 108.045 297.521 105.694C297.522 102.962 283.481 106.515 266.159 113.631Z" fill="#D38639"/>
<path opacity="0.3" d="M236.493 266.135C238.365 269.961 242.487 271.81 245.875 270.437C247.375 265.76 245.509 260.855 241.475 259.229C239.765 258.539 237.93 258.553 236.215 259.123C235.322 261.188 235.334 263.766 236.493 266.135Z" fill="#DDFEC9"/>
<path opacity="0.3" d="M181.885 137.813C182.362 138.006 182.855 138.084 183.351 138.112C184.448 135.089 183.29 131.85 180.674 130.795C180.197 130.603 179.704 130.524 179.208 130.496C178.111 133.518 179.269 136.758 181.885 137.813Z" fill="#E0FF93"/>
<path opacity="0.3" d="M347.085 61.6753C348.929 57.0939 347.196 52.079 343.214 50.4732C339.233 48.8674 334.511 51.2796 332.667 55.8611C330.823 60.4425 332.556 65.4581 336.538 67.0631C340.52 68.669 345.242 66.2567 347.085 61.6753Z" fill="#E0FF93"/>
<path d="M345.429 61.0074C346.849 57.4785 345.514 53.616 342.448 52.3793C339.381 51.1426 335.744 53.0008 334.324 56.5289C332.904 60.0579 334.239 63.9204 337.305 65.1571C340.373 66.3937 344.009 64.5356 345.429 61.0074Z" fill="#7793DB"/>
<path opacity="0.3" d="M343.832 60.4054C344.378 60.6252 344.942 60.7149 345.508 60.7467C346.763 57.2897 345.44 53.5851 342.448 52.3786C341.902 52.158 341.338 52.069 340.772 52.0365C339.517 55.4935 340.841 59.1989 343.832 60.4054Z" fill="#E0FF93"/>
<g opacity="0.4">
<path opacity="0.3" d="M338.359 340.293C340.203 335.711 338.47 330.696 334.488 329.091C330.507 327.486 325.784 329.897 323.941 334.478C322.097 339.06 323.83 344.075 327.811 345.681C331.793 347.286 336.515 344.874 338.359 340.293Z" fill="#E0FF93"/>
<path d="M336.702 339.625C338.123 336.097 336.787 332.233 333.721 330.998C330.655 329.76 327.017 331.619 325.597 335.147C324.177 338.676 325.512 342.539 328.578 343.775C331.645 345.012 335.282 343.154 336.702 339.625Z" fill="#7793DB"/>
<path opacity="0.3" d="M335.106 339.024C335.652 339.243 336.215 339.333 336.782 339.365C338.037 335.908 336.713 332.203 333.721 330.997C333.176 330.776 332.611 330.687 332.045 330.655C330.791 334.112 332.114 337.816 335.106 339.024Z" fill="#E0FF93"/>
</g>
<path d="M151.086 74.7007H148.321V77.0556H151.086V74.7007Z" fill="#F76037"/>
<path d="M108.315 196.897L102.737 193.535L98.6471 204.245L102.806 206.173L108.315 196.897Z" fill="#F76037"/>
<path d="M79.6196 182.22L73.6461 179.944L71.5264 184.461L71.0099 190.371L75.3878 191.538L79.6196 182.22Z" fill="#F76037"/>
<path opacity="0.6" d="M102.758 193.649L102.826 206.287L108.334 197.01L102.758 193.649Z" fill="#DDFEC9"/>
<path d="M98.3348 218.05L92.0088 216.694L91.2427 227.573L101.62 228.092L98.3348 218.05Z" fill="#AAE0DE"/>
<path d="M310.436 202.699C310.436 200.946 307.477 197.216 305.248 197.216C303.018 197.216 300.173 199.388 300.173 201.141C300.173 202.894 303.018 203.565 305.248 203.565C307.477 203.565 310.436 204.451 310.436 202.699Z" fill="#F5EEFF"/>
<path d="M302.443 202.615C301.9 201.771 301.101 201.318 300.659 201.604C300.218 201.889 300.301 202.804 300.844 203.647C301.388 204.491 302.186 204.944 302.629 204.659C303.07 204.374 302.987 203.459 302.443 202.615Z" fill="#F5EEFF"/>
<path d="M303.047 203.178C302.245 203.064 301.535 203.392 301.46 203.913C301.386 204.434 301.975 204.948 302.777 205.064C303.579 205.178 304.289 204.85 304.364 204.329C304.438 203.808 303.849 203.293 303.047 203.178Z" fill="#F5EEFF"/>
<path d="M300.173 201.14C300.173 205.451 304.014 206.109 304.364 204.329C304.411 204.003 304.339 203.803 303.976 203.578C304.459 203.639 308.509 203.949 308.97 203.949C310.262 203.991 310.492 203.791 309.859 203.593C308.804 203.264 300.173 199.387 300.173 201.14Z" fill="#D8CAED"/>
<path d="M313.665 204.372L311.33 201.169L307.858 205.258L310.142 207.417L313.665 204.372Z" fill="#E4D2F9"/>
<path opacity="0.3" d="M120.497 99.3051L131.325 111.895L148.321 76.7183C148.321 76.7183 127.78 90.5756 120.497 99.3051Z" fill="#DDFEC9"/>
<path opacity="0.6" d="M147.166 90.6761L145.551 109.722L142.669 105.221L147.166 90.6761Z" fill="#DDFEC9"/>
<path d="M120.497 99.3051L144.002 126.634L146.704 122.996L143.365 119.977L120.497 99.3051Z" fill="#F76037"/>
<path opacity="0.3" d="M243.617 270.858C243.617 269.95 243.346 269.214 243.012 269.214C242.677 269.214 242.407 269.95 242.407 270.858C242.407 271.767 242.678 272.504 243.012 272.504C243.347 272.504 243.617 271.766 243.617 270.858Z" fill="#DDFEC9"/>
<path opacity="0.3" d="M242.387 262.71C241.724 262.09 241 261.787 240.772 262.031C240.544 262.275 240.897 262.977 241.561 263.596C242.224 264.216 242.947 264.519 243.176 264.275C243.404 264.031 243.051 263.33 242.387 262.71Z" fill="#DDFEC9"/>
<path opacity="0.3" d="M237.323 269.774C236.827 269.431 236.223 269.443 235.975 269.803C235.726 270.162 235.926 270.731 236.422 271.076C236.918 271.42 237.522 271.408 237.77 271.049C238.019 270.689 237.818 270.119 237.323 269.774Z" fill="#DDFEC9"/>
<path opacity="0.3" d="M241.637 266.959C241.699 266.359 241.399 265.835 240.964 265.789C240.53 265.743 240.127 266.193 240.064 266.793C240.001 267.394 240.302 267.918 240.736 267.964C241.17 268.009 241.574 267.559 241.637 266.959Z" fill="#DDFEC9"/>
<path opacity="0.3" d="M240.507 274.048C240.893 273.584 240.933 272.981 240.597 272.702C240.261 272.423 239.677 272.572 239.291 273.037C238.905 273.502 238.865 274.105 239.201 274.384C239.536 274.663 240.121 274.513 240.507 274.048Z" fill="#DDFEC9"/>
<path opacity="0.3" d="M234.347 266.48C234.508 265.898 234.297 265.332 233.876 265.215C233.455 265.099 232.984 265.477 232.824 266.059C232.663 266.641 232.874 267.206 233.295 267.323C233.716 267.44 234.187 267.062 234.347 266.48Z" fill="#DDFEC9"/>
<path opacity="0.3" d="M235.226 275.156C234.661 274.965 234.133 275.01 234.049 275.26C233.966 275.507 234.356 275.863 234.922 276.055C235.488 276.246 236.014 276.201 236.098 275.951C236.182 275.704 235.791 275.347 235.226 275.156Z" fill="#DDFEC9"/>
<path opacity="0.3" d="M231.701 270.328C231.556 269.77 231.233 269.373 230.978 269.439C230.726 269.506 230.639 270.011 230.784 270.568C230.93 271.126 231.253 271.523 231.507 271.457C231.76 271.39 231.847 270.885 231.701 270.328Z" fill="#DDFEC9"/>
<path opacity="0.3" d="M234.799 262.877C235.476 262.408 235.87 261.801 235.678 261.523C235.485 261.246 234.78 261.401 234.103 261.871C233.425 262.341 233.032 262.948 233.223 263.225C233.416 263.503 234.121 263.348 234.799 262.877Z" fill="#DDFEC9"/>
<path opacity="0.8" d="M199.028 280.765C199.028 280.765 208.369 284.227 211.135 295.309C211.135 295.309 210.789 283.189 199.028 280.765Z" fill="#FAFFB5"/>
<path opacity="0.8" d="M255.918 394.201C255.918 394.201 245.265 408.197 226.359 407.118C226.359 407.118 245.536 412.832 255.918 394.201Z" fill="#FAFFB5"/>
<path opacity="0.8" d="M256.875 203.024C256.875 203.024 267.068 200.407 275.548 207.937C275.548 207.937 268.658 198.129 256.875 203.024Z" fill="#FAFFB5"/>
<path opacity="0.8" d="M119.897 305.619C119.897 305.619 108.396 319.879 114.514 340.475C114.514 340.475 105.752 319.216 119.897 305.619Z" fill="#FAFFB5"/>
<path opacity="0.6" d="M151.086 75.3895L160.08 58.5883L159.619 58.0109L149.867 74.7015H148.321V76.7182C148.321 76.7182 148.02 76.9218 147.487 77.2878C133.218 87.0427 125.834 93.1441 111.195 108.749C110.867 109.098 110.542 109.457 110.215 109.81C110.215 109.805 110.216 109.801 110.216 109.796C109.879 110.132 109.493 110.37 109.081 110.574C107.094 110.59 105.366 110.459 102.974 112.532C102.935 112.841 102.866 113.179 102.782 113.528L89.7916 131.271C89.1538 131.61 88.523 131.887 87.9131 132.034C86.5587 135.317 86.8377 136.756 87.3572 138.699C87.2753 139.114 87.1702 139.54 86.9954 140.006C86.9931 140.01 86.9916 140.014 86.9885 140.017C86.2726 141.169 85.5699 142.334 84.878 143.507C84.769 143.692 84.6577 143.876 84.5495 144.061C84.3492 144.403 84.1575 144.751 83.9588 145.095C83.5058 145.881 83.059 146.671 82.6175 147.466C82.4251 147.813 82.2264 148.155 82.0354 148.504C81.9403 148.679 81.8476 148.855 81.7525 149.03C59.9443 158.425 34.4609 184.478 21.781 212.902C21.5599 213.398 21.3249 213.891 21.1115 214.388C21.2414 214.719 21.4138 215.027 21.6187 215.322C22.2333 216.206 23.1393 216.968 24.0399 217.875C24.0461 217.868 24.0531 217.861 24.0593 217.853C35.3607 204.339 46.6405 197.349 64.0508 198.12L64.05 198.122L63.5746 198.834L53.3585 200.867L60.8039 210.605L66.8014 204.888L74.723 209.276L69.6254 215.28L73.1452 216.9L62.1885 242.117L65.7469 243.552L79.0955 219.637L83.5491 221.685L85.7516 215.384L91.865 218.771L91.245 227.572L101.623 228.092L98.7376 219.274L99.5439 218.068C105.728 228.966 109.544 240.981 100.312 262.709C101.191 263.757 102.315 264.796 103.303 265.603C103.42 265.467 103.532 265.325 103.65 265.189C103.649 265.19 103.649 265.191 103.648 265.192C103.757 265.065 103.861 264.932 103.97 264.804C105.348 263.187 106.69 261.519 107.993 259.802C130.496 230.16 139.992 189.468 133.53 169.221C133.369 168.714 133.186 168.229 133.005 167.741C132.895 167.446 132.797 167.14 132.681 166.852C137.675 153.96 141.266 140.037 143.853 126.454L144.005 126.632V126.631L146.707 122.993L145.23 121.657C145.25 121.562 145.271 121.469 145.292 121.373C145.366 121.021 145.435 120.652 145.507 120.293C148.033 107.711 149.051 91.3309 150.141 77.1562L150.197 77.0533H151.089V75.3895H151.086ZM90.3328 130.986C90.3196 130.994 90.3065 131.001 90.2926 131.008L90.3328 130.986Z" fill="url(#paint11_linear_9684_130120)"/>
</g>
<defs>
<linearGradient id="paint0_linear_9684_130120" x1="279.262" y1="198.896" x2="295.294" y2="196.981" gradientUnits="userSpaceOnUse">
<stop stop-color="#6400C8"/>
<stop offset="1" stop-color="#FFBF60"/>
</linearGradient>
<linearGradient id="paint1_linear_9684_130120" x1="349.614" y1="180.745" x2="316.184" y2="227.19" gradientUnits="userSpaceOnUse">
<stop stop-color="#6400C8"/>
<stop offset="1" stop-color="#FFBF60"/>
</linearGradient>
<linearGradient id="paint2_linear_9684_130120" x1="332.203" y1="244.485" x2="313.046" y2="229.269" gradientUnits="userSpaceOnUse">
<stop stop-color="#6400C8"/>
<stop offset="1" stop-color="#FFBF60"/>
</linearGradient>
<linearGradient id="paint3_linear_9684_130120" x1="356.366" y1="165.014" x2="267.239" y2="253.34" gradientUnits="userSpaceOnUse">
<stop stop-color="#6400C8"/>
<stop offset="1" stop-color="#FFBF60"/>
</linearGradient>
<linearGradient id="paint4_linear_9684_130120" x1="324.352" y1="158.589" x2="305.3" y2="185.06" gradientUnits="userSpaceOnUse">
<stop stop-color="#6400C8"/>
<stop offset="1" stop-color="#FFBF60"/>
</linearGradient>
<linearGradient id="paint5_linear_9684_130120" x1="302.393" y1="182.675" x2="326.775" y2="150.051" gradientUnits="userSpaceOnUse">
<stop stop-color="#00B4C6"/>
<stop offset="1" stop-color="#FFE3B7"/>
</linearGradient>
<linearGradient id="paint6_linear_9684_130120" x1="221.998" y1="224.78" x2="301.733" y2="224.78" gradientUnits="userSpaceOnUse">
<stop stop-color="#6400C8"/>
<stop offset="1" stop-color="#FFBF60"/>
</linearGradient>
<linearGradient id="paint7_linear_9684_130120" x1="298.895" y1="284.029" x2="284.799" y2="200.695" gradientUnits="userSpaceOnUse">
<stop stop-color="#6400C8"/>
<stop offset="1" stop-color="#FFBF60"/>
</linearGradient>
<linearGradient id="paint8_linear_9684_130120" x1="305.221" y1="222.18" x2="338.811" y2="195.858" gradientUnits="userSpaceOnUse">
<stop stop-color="#6400C8"/>
<stop offset="1" stop-color="#FFBF60"/>
</linearGradient>
<linearGradient id="paint9_linear_9684_130120" x1="312.691" y1="222.569" x2="341.598" y2="199.917" gradientUnits="userSpaceOnUse">
<stop stop-color="#6400C8"/>
<stop offset="1" stop-color="#FFBF60"/>
</linearGradient>
<linearGradient id="paint10_linear_9684_130120" x1="247.996" y1="217.502" x2="236.013" y2="211.212" gradientUnits="userSpaceOnUse">
<stop stop-color="#6400C8"/>
<stop offset="1" stop-color="#FFBF60"/>
</linearGradient>
<linearGradient id="paint11_linear_9684_130120" x1="35.6802" y1="187.648" x2="179.447" y2="148.944" gradientUnits="userSpaceOnUse">
<stop stop-color="#1400C3"/>
<stop offset="1" stop-color="#FFA46D"/>
</linearGradient>
<clipPath id="clip0_9684_130120">
<rect width="374" height="466" fill="white"/>
</clipPath>
</defs>
</svg>
