<?xml version="1.0" encoding="UTF-8"?>
<svg width="100%" height="100%" xmlns="http://www.w3.org/2000/svg" xmlns:xlink="http://www.w3.org/1999/xlink" viewBox="0 0 2000 2000">
  <defs>
    <linearGradient id="linear-gradient" x1="1310.11" y1="788.82" x2="1310.6" y2="770.32" gradientUnits="userSpaceOnUse">
      <stop offset="0" stop-color="#2bb673"/>
      <stop offset=".06" stop-color="#25a676"/>
      <stop offset=".29" stop-color="#136d81"/>
      <stop offset=".46" stop-color="#074a88"/>
      <stop offset=".55" stop-color="#033d8b"/>
      <stop offset=".6" stop-color="#05377d"/>
      <stop offset=".66" stop-color="#073371"/>
      <stop offset=".75" stop-color="#08306a"/>
      <stop offset="1" stop-color="#093069"/>
    </linearGradient>
    <linearGradient id="linear-gradient-2" x1="1245.99" y1="789.32" x2="1246.48" y2="770.83" xlink:href="#linear-gradient"/>
    <clipPath id="clippath">
      <path d="M1252.29,817.74c-1.82,0-3.26,1.57-3.05,3.38,1.68,14.9,14.32,26.48,29.67,26.48s28-11.58,29.67-26.48c.2-1.8-1.24-3.38-3.05-3.38h-53.24Z" fill="#c93939"/>
    </clipPath>
    <clipPath id="clippath-1">
      <circle cx="1246.62" cy="771.29" r="26" transform="translate(-143.86 307.05) rotate(-13.28)" fill="#99fff5" opacity=".43"/>
    </clipPath>
    <clipPath id="clippath-2">
      <circle cx="1310.74" cy="771.54" r="26" transform="translate(-142.2 321.78) rotate(-13.28)" fill="#99fff5" opacity=".43"/>
    </clipPath>
    <clipPath id="clippath-3">
      <rect x="1484.94" y="1209.02" width="25.97" height="23.68" rx="2.66" ry="2.66" transform="translate(-349.5 654.03) rotate(-22.12)" fill="#2d2d2d"/>
    </clipPath>
    <linearGradient id="linear-gradient-3" x1="-181.53" y1="1022.4" x2="-181.6" y2="979.08" gradientTransform="translate(658.5 -7.71) rotate(-175.77) scale(1 -1)" xlink:href="#linear-gradient"/>
    <linearGradient id="linear-gradient-4" x1="-281.37" y1="1024.67" x2="-282.16" y2="977.25" gradientTransform="translate(658.5 -7.71) rotate(-175.77) scale(1 -1)" xlink:href="#linear-gradient"/>
  </defs>
  <g isolation="isolate">
    <g id="tutor">
      <rect x="366.31" y="215.03" width="566.61" height="566.61" rx="60.17" ry="60.17" fill="#054e6b"/>
      <rect x="384.4" y="192.67" width="566.61" height="566.61" rx="60.17" ry="60.17" fill="#edfffe" stroke="#054e6b" stroke-miterlimit="10" stroke-width="2"/>
      <path d="M524.11,491.02h0c5.81,2.87,13.17.58,16.45-5.11l20.83-36.17c3.28-5.69,1.23-12.63-4.58-15.5h0c-5.81-2.87-13.17-.58-16.45,5.11l-20.83,36.17c-3.28,5.69-1.23,12.63,4.58,15.5Z" fill="#f59476"/>
      <g>
        <ellipse cx="601.2" cy="310.88" rx="17.97" ry="18.32" fill="#f59476"/>
        <path d="M594.86,315.55h14.8c3.71-.66,5-2.32,4.58-4.67h0c0-2.58-2.05-4.67-4.58-4.67h-14.8c-2.53,0-4.58,2.09-4.58,4.67h0c0,2.58,2.05,4.67,4.58,4.67Z" fill="#db7e65"/>
      </g>
      <g>
        <ellipse cx="771.7" cy="310.88" rx="17.97" ry="18.32" fill="#f59476"/>
        <rect x="758.67" y="306.21" width="23.96" height="9.34" rx="3.31" ry="3.31" fill="#db7e65"/>
      </g>
      <path d="M727.23,173.42h-82.61c-28.26,0-51.17,26.21-51.17,58.53v61.55c0,8.01,5.68,14.51,12.68,14.51v-49.16h159.59v49.16c7,0,12.68-6.49,12.68-14.51v-61.55c0-32.33-22.91-58.53-51.17-58.53Z" fill="#111"/>
      <rect x="629.14" y="349.8" width="113.67" height="127.19" fill="#e58670"/>
      <path d="M742.88,218.94h-114.26c-13.2,0-23.9,10.91-23.9,24.36v129.57c0,23.18,20.27,41.96,45.28,41.96h0c16.52,25.97,57.09,25.97,73.61,0h0c23.84,0,43.16-17.91,43.16-40v-131.53c0-13.45-10.7-24.36-23.9-24.36Z" fill="#f59476"/>
      <path d="M635.07,354.75v57.74c4.67,1.51,9.69,2.34,14.92,2.34h0c16.52,25.97,57.09,25.97,73.61,0h0c5.03,0,9.85-.81,14.34-2.27v-57.81h-102.88Z" fill="#111"/>
      <rect x="618.47" y="256.2" width="48.69" height="12.93" rx="6.46" ry="6.46" fill="#111"/>
      <rect x="702.74" y="255.93" width="48.69" height="12.93" rx="6.46" ry="6.46" fill="#111"/>
      <ellipse cx="645.59" cy="297.23" rx="7.05" ry="7.18" fill="#0c0c0c"/>
      <ellipse cx="725.2" cy="297.23" rx="7.05" ry="7.18" fill="#0c0c0c"/>
      <g>
        <path d="M720.94,351.58h-71.33v.69c0,8.25,2.7,15.85,7.24,21.95h56.85c4.54-6.1,7.24-13.7,7.24-21.95v-.69Z" fill="#af1137"/>
        <path d="M685.28,388.63h0c11.61,0,21.91-5.66,28.43-14.41h-56.85c6.51,8.75,16.82,14.41,28.43,14.41Z" fill="#fbfbfc"/>
        <path d="M655.4,351.92h59.76c.1,0,.18.08.18.18v3.14c0,4.12-3.34,7.46-7.46,7.46h-45.2c-4.12,0-7.46-3.34-7.46-7.46v-3.14c0-.1.08-.18.18-.18Z" fill="#fffffe"/>
      </g>
      <g>
        <rect x="673.06" y="297.95" width="24.66" height="6.46" rx="2.29" ry="2.29" fill="#006c73"/>
        <rect x="756.91" y="297.95" width="23.25" height="6.46" rx="2.29" ry="2.29" fill="#006c73"/>
        <rect x="588.04" y="297.95" width="25.13" height="6.46" rx="2.29" ry="2.29" fill="#006c73"/>
        <g>
          <path d="M667.07,275.95h-46.84c-5.24,0-9.52,5.35-9.52,11.89v15.81c0,6.54,4.28,11.89,9.52,11.89h46.84c5.24,0,9.52-5.35,9.52-11.89v-15.81c0-6.54-4.28-11.89-9.52-11.89ZM672.86,303.84c0,4.31-2.82,7.83-6.27,7.83h-45.88c-3.45,0-6.27-3.52-6.27-7.83v-15.4c0-4.31,2.82-7.83,6.27-7.83h45.88c3.45,0,6.27,3.52,6.27,7.83v15.4Z" fill="#006c73"/>
          <path d="M666.59,280.61h-45.88c-3.45,0-6.27,3.52-6.27,7.83v15.4c0,4.31,2.82,7.83,6.27,7.83h45.88c3.45,0,6.27-3.52,6.27-7.83v-15.4c0-4.31-2.82-7.83-6.27-7.83Z" fill="#d4f7e5" opacity=".39"/>
        </g>
        <g>
          <path d="M750.91,275.95h-46.84c-5.24,0-9.52,5.35-9.52,11.89v15.81c0,6.54,4.28,11.89,9.52,11.89h46.84c5.24,0,9.52-5.35,9.52-11.89v-15.81c0-6.54-4.28-11.89-9.52-11.89ZM756.7,303.84c0,4.31-2.82,7.83-6.27,7.83h-45.88c-3.45,0-6.27-3.52-6.27-7.83v-15.4c0-4.31,2.82-7.83,6.27-7.83h45.88c3.45,0,6.27,3.52,6.27,7.83v15.4Z" fill="#006c73"/>
          <path d="M750.43,280.61h-45.88c-3.45,0-6.27,3.52-6.27,7.83v15.4c0,4.31,2.82,7.83,6.27,7.83h45.88c3.45,0,6.27-3.52,6.27-7.83v-15.4c0-4.31-2.82-7.83-6.27-7.83Z" fill="#d4f7e5" opacity=".39"/>
        </g>
      </g>
      <g>
        <path d="M640.08,331.21h47.78v8.15c0,10.96-8.9,19.86-19.86,19.86h-47.78v-8.15c0-10.96,8.9-19.86,19.86-19.86Z" fill="#111"/>
        <path d="M682.93,331.21h47.78c10.96,0,19.86,8.9,19.86,19.86v8.15h-47.78c-10.96,0-19.86-8.9-19.86-19.86v-8.15h0Z" transform="translate(1433.5 690.43) rotate(180)" fill="#111"/>
      </g>
      <rect x="676.59" y="315.91" width="17.61" height="22.99" rx="6.37" ry="6.37" fill="#db7e65"/>
      <path d="M654.91,139.2h139.34v25.22c0,33.92-27.54,61.46-61.46,61.46h-139.34v-25.22c0-33.92,27.54-61.46,61.46-61.46Z" fill="#111"/>
      <ellipse cx="686.94" cy="599.53" rx="8.32" ry="8.49" fill="none" stroke="#303030" stroke-miterlimit="10"/>
      <ellipse cx="686.94" cy="654.69" rx="8.32" ry="8.49" fill="none" stroke="#303030" stroke-miterlimit="10"/>
      <path d="M868.53,629.27v129.46h-79.08v-105.91h-54.11v-160.57c20.15,0,39.26,4.61,56.38,12.86,45.37,21.82,76.81,69.21,76.81,124.15Z" fill="#06565b"/>
      <path d="M635.32,492.25v159.15h-54.12l-31.03,90-48.06,4.62v-117.96c0-75,59.64-135.8,133.2-135.8Z" fill="#06565b"/>
      <rect x="598.93" y="726.43" width="78.69" height="32.84" fill="#042a40"/>
      <rect x="695.02" y="726.43" width="78.69" height="32.3" fill="#042a40"/>
      <path d="M771.63,733.22c0,9.05-1.27,17.8-3.65,26.05h-165.45c-2.12-7.33-3.35-15.07-3.6-23.06-.04-.98-.05-1.99-.05-2.99,0-.36,0-.72.01-1.09,0-.63.01-1.27.04-1.9.01-.56.04-1.11.06-1.67.24-4.84.83-9.57,1.77-14.16.54-2.68,1.2-5.32,1.97-7.89,10.89-36.84,43.72-63.6,82.52-63.6s71.65,26.76,82.54,63.6c.69,2.34,1.3,4.72,1.81,7.14,1.03,4.84,1.68,9.82,1.93,14.91.06,1.18.09,2.37.1,3.57.01.36.01.72.01,1.09Z" fill="#042a40"/>
      <path d="M609.27,488.54h149.9c35.24,0,63.85,28.61,63.85,63.85v97.74c0,37.26-30.25,67.51-67.51,67.51h-142.56c-37.26,0-67.51-30.25-67.51-67.51v-97.74c0-35.24,28.61-63.85,63.85-63.85Z" fill="#006c73"/>
      <rect x="595.03" y="704.92" width="183.15" height="24.98" rx="3.23" ry="3.23" fill="#3f1010"/>
      <g>
        <path d="M530.6,493.59l4.46,35.48-63.49,8.29-4.46-35.48c-7.53-7.19-12.5-17.28-13.08-28.83-1.03-20.76,13.28-39.48,33.28-43.53,23.85-4.83,46.32,11.95,49.35,36.11,1.28,10.16-1.09,19.93-6.07,27.96Z" fill="#f59476"/>
        <path d="M530.96,753.16h0c-21.66,2.83-41.47-12.78-44.25-34.86l-23.91-190.26,78.44-10.25,23.91,190.26c2.78,22.08-12.53,42.28-34.2,45.11Z" fill="#06565b"/>
        <polygon points="539.77 506.1 461.33 516.35 465.03 545.81 543.47 535.57 539.77 506.1" fill="#fefefe"/>
      </g>
      <polygon points="706.53 493.91 614.58 493.91 614.58 458.71 674.19 459.43 706.53 493.91" fill="#d3d3d3"/>
      <polygon points="665.67 493.91 756.91 493.91 756.91 458.71 697.76 459.43 665.67 493.91" fill="#fefefe"/>
      <ellipse cx="665.86" cy="473.68" rx="6.08" ry="6.19" fill="#fefefe"/>
      <rect x="696.23" y="469.96" width="25.92" height="7.43" fill="#d3d3d3"/>
      <path d="M614.58,493.91l69.24,98.64c1.06,1.5,3.25,1.5,4.3,0l68.78-98.64h-142.33Z" fill="#fefefe"/>
      <ellipse cx="686.92" cy="619.86" rx="8.1" ry="8.26" fill="#003238"/>
      <ellipse cx="686.92" cy="650.41" rx="8.1" ry="8.26" fill="#003238"/>
      <ellipse cx="686.92" cy="680.97" rx="8.1" ry="8.26" fill="#003238"/>
      <rect x="659.06" y="704.92" width="55.08" height="24.78" fill="#772828"/>
      <path d="M659.22,704.93v24.77h55.09v-24.77h-55.09ZM662.46,726.39v-18.17h48.6v18.17h-48.6Z" fill="#b7b7b7"/>
      <path d="M531.3,497.57l-65.08,8.97c-6.36.88-12.2-3.67-13.06-10.15l-9.83-74.1c-1.44-10.85,6.02-20.84,16.66-22.3l49.56-6.83c10.64-1.47,20.44,6.14,21.88,16.99l9.83,74.1c.86,6.48-3.6,12.44-9.95,13.32Z" fill="#f59476"/>
      <rect x="1042.84" y="224.03" width="566.66" height="566.66" rx="60.17" ry="60.17" fill="#271a4c"/>
      <rect x="1027.61" y="209.1" width="566.66" height="566.66" rx="60.17" ry="60.17" fill="#f7f0fc" stroke="#271a4c" stroke-miterlimit="10" stroke-width="2"/>
      <path d="M1514.01,775.76l-94.47-.07-47.49-156.92c-7.44-24.58,6.2-50.89,30.3-58.48,5.55-1.75,11.19-2.36,16.69-1.96,18.33,1.34,34.95,13.94,40.67,32.85l54.3,184.56Z" fill="#68318c"/>
      <path d="M1252.96,615.54l-41.81,158.59-91.9,1.64,45.12-184.51c5.04-19.12,21.19-32.33,39.46-34.35,5.47-.61,11.13-.21,16.74,1.33,24.36,6.67,38.94,32.46,32.39,57.3Z" fill="#68318c"/>
      <path d="M1469.44,650.55v125.16h-315.62v-125.16c0-73.26,46.8-135.22,111.19-155.75,12.48-3.98,25.61-6.4,39.18-7.04h.01c2.45-.13,4.93-.19,7.42-.19.53,0,1.07,0,1.59.01h.01c14.13.13,27.81,2.2,40.83,5.94,26.53,7.63,50.24,22.23,69.17,41.78,28.56,29.5,46.22,70.25,46.22,115.25Z" fill="#794199"/>
      <rect x="1262.43" y="387.81" width="93.89" height="98.39" fill="#ed926e"/>
      <circle cx="1224.7" cy="325.19" r="23.64" fill="#f7a27a"/>
      <circle cx="1399.77" cy="325.19" r="23.64" fill="#f7a27a"/>
      <g>
        <g>
          <path d="M1374.82,258.77c-1.13-4.73-1.28-9.48-.57-14.04-10.57-2.16-19.61-9.96-22.81-21.03-4.6-15.89,4.56-32.5,20.46-37.1,15.89-4.6,32.5,4.56,37.1,20.46.67,2.33,1.04,4.68,1.15,7,15.19.01,29.23,9.63,34.31,24.58l-69.63,20.13Z" fill="#1c1c1c"/>
          <path d="M1374.82,258.77c.06.24.12.48.18.71-10.57,8.96-15.51,23.6-11.41,37.77,5.57,19.25,25.69,30.35,44.94,24.78s29.97-25.04,25.02-44c10.57-8.96,15.51-23.6,11.41-37.77-.16-.55-.33-1.09-.51-1.63l-69.63,20.13Z" fill="#828184"/>
        </g>
        <g>
          <path d="M1246.79,258.77c1.13-4.73,1.28-9.48.57-14.04,10.57-2.16,19.61-9.96,22.81-21.03,4.6-15.89-4.56-32.5-20.46-37.1-15.89-4.6-32.5,4.56-37.1,20.46-.67,2.33-1.04,4.68-1.15,7-15.19.01-29.23,9.63-34.31,24.58l69.63,20.13Z" fill="#1c1c1c"/>
          <path d="M1246.79,258.77c-.06.24-.12.48-.18.71,10.57,8.96,15.51,23.6,11.41,37.77-5.57,19.25-25.69,30.35-44.94,24.78-18.94-5.48-29.97-25.04-25.02-44-10.57-8.96-15.51-23.6-11.41-37.77.16-.55.33-1.09.51-1.63l69.63,20.13Z" fill="#828184"/>
        </g>
        <path d="M1336.2,149.49c-9.67,0-18.6,3.13-25.86,8.43-7.25-5.3-16.19-8.43-25.86-8.43-24.25,0-43.9,19.65-43.9,43.9s19.65,43.9,43.9,43.9c9.67,0,18.6-3.13,25.86-8.43,7.25,5.3,16.19,8.43,25.86,8.43,24.25,0,43.9-19.65,43.9-43.9s-19.65-43.9-43.9-43.9Z" fill="#1c1c1c"/>
      </g>
      <path d="M1308.08,192.3h0c-43.6,0-78.94,35.34-78.94,78.94v94.23c0,27.03,13.59,50.87,34.3,65.1,7.99,14.92,23.72,25.07,41.83,25.07h7.49c18.95,0,35.3-11.12,42.89-27.18,19.05-14.41,31.36-37.26,31.36-62.99v-94.23c0-43.6-35.34-78.94-78.94-78.94Z" fill="#f7a27a"/>
      <g>
        <g>
          <path d="M1281.01,268.33h-32.05c-1.26,2.45-1.97,5.24-1.97,8.18,0,9.94,8.06,18,18,18s17.99-8.06,17.99-18c0-2.95-.71-5.73-1.96-8.18Z" fill="#fff"/>
          <path d="M1278.26,276.51c0,7.16-5.81,12.97-12.97,12.97s-12.97-5.81-12.97-12.97c0-3.1,1.09-5.95,2.91-8.18h20.12c1.82,2.23,2.91,5.08,2.91,8.18Z" fill="#24245b"/>
        </g>
        <polyline points="1245.71 267.84 1248.77 267.93 1255.07 268.11 1272.81 268.62 1277.03 268.74 1284.88 268.97" fill="none" stroke="#161616" stroke-linecap="round" stroke-miterlimit="10" stroke-width="4"/>
      </g>
      <g>
        <g>
          <path d="M1332.47,276.51c0,9.94,8.05,18,17.99,18,9.94,0,18-8.06,18-18,0-2.95-.71-5.73-1.97-8.18h-32.05c-1.26,2.45-1.96,5.24-1.96,8.18Z" fill="#fff"/>
          <path d="M1337.18,276.51c0,7.16,5.81,12.97,12.97,12.97s12.97-5.81,12.97-12.97c0-3.1-1.09-5.95-2.91-8.18h-20.12c-1.82,2.23-2.91,5.08-2.91,8.18Z" fill="#24245b"/>
        </g>
        <polyline points="1330.56 268.97 1338.41 268.74 1342.63 268.62 1360.37 268.11 1366.68 267.93 1369.74 267.84" fill="none" stroke="#161616" stroke-linecap="round" stroke-miterlimit="10" stroke-width="4"/>
      </g>
      <rect x="1329.61" y="233.2" width="21.41" height="12.84" rx="5" ry="5" fill="#878387"/>
      <rect x="1267.65" y="226.74" width="21.41" height="12.84" rx="5" ry="5" transform="translate(425.62 -747.35) rotate(38.65)" fill="#878387"/>
      <path d="M1282.44,309.86h53.21c11.06,0,20.04,8.98,20.04,20.04v17.02h-93.28v-17.02c0-11.06,8.98-20.04,20.04-20.04Z" fill="#828184"/>
      <path d="M1228.41,692.36v74.24h-74.72v-74.24c0-1,.05-2,.14-2.99,1.51-16.53,15.52-29.58,32.42-29.58h9.59c17.92,0,32.57,14.66,32.57,32.57Z" fill="#794199"/>
      <path d="M1469.3,692.36v74.24h-74.72v-74.24c0-17.92,14.66-32.57,32.58-32.57h9.59c17.9,0,32.56,14.66,32.56,32.57Z" fill="#794199"/>
      <rect x="1153.82" y="727.98" width="315.62" height="47.73" fill="#271a4c"/>
      <polygon points="1262.43 467.81 1308.43 482.47 1356.32 467.81 1356.32 487.58 1308.08 610.38 1262.4 487.58 1262.43 467.81" fill="#feffff"/>
      <polygon points="1332.29 507.34 1319.91 519.27 1332.29 706.27 1308.78 734.63 1284.49 707.63 1296.02 519.27 1285.41 507.34 1308.78 482.98 1332.29 507.34" fill="#c6c6ff"/>
      <rect x="1352.66" y="599.2" width="46.45" height="12.46" rx="4.23" ry="4.23" fill="#c6c6ff"/>
      <path d="M1370.02,611.33v-17.4c0-4.11,3.36-7.47,7.47-7.47h0c4.11,0,7.47,3.36,7.47,7.47v36.71c0,2.4-1.96,4.36-4.36,4.36h0c-2.4,0-4.36-1.96-4.36-4.36v-19.29l-6.22-.03Z" fill="#0d2436"/>
      <line x1="1389.23" y1="274.9" x2="1379.44" y2="274.9" fill="none" stroke="#2a063f" stroke-linecap="round" stroke-miterlimit="10" stroke-width="6"/>
      <rect x="1322.61" y="247.48" width="55.51" height="56.83" rx="27.75" ry="27.75" fill="#dfe1ff" opacity=".4"/>
      <rect x="1321.25" y="246.04" width="56.87" height="59.06" rx="28.43" ry="28.43" fill="none" stroke="#2a063f" stroke-miterlimit="10" stroke-width="6"/>
      <rect x="1239.83" y="247.15" width="53.4" height="56.83" rx="26.7" ry="26.7" fill="#dfe1ff" opacity=".4"/>
      <line x1="1236.24" y1="274.9" x2="1226.93" y2="274.9" fill="none" stroke="#2a063f" stroke-linecap="round" stroke-miterlimit="10" stroke-width="6"/>
      <rect x="1238.05" y="246.04" width="56.95" height="59.06" rx="28.48" ry="28.48" fill="none" stroke="#2a063f" stroke-miterlimit="10" stroke-width="6"/>
      <path d="M1294.57,284.08s11-12.26,26.95-.8" fill="none" stroke="#2a063f" stroke-linecap="round" stroke-miterlimit="10" stroke-width="6"/>
      <path d="M1333.72,365.75s-21.46,16.01-44.17,3.24" fill="none" stroke="#601d1c" stroke-linecap="round" stroke-miterlimit="10" stroke-width="3"/>
    </g>
    <g id="floor">
      <ellipse cx="996.55" cy="1754.08" rx="706.67" ry="141.33" fill="#e5e1e1"/>
    </g>
    <g id="youssif">
      <polygon points="1518.17 1257.88 1461.53 1282.2 1461.48 1282.09 1443.49 1239.26 1426.31 1198.38 1483.82 1177.89 1500.45 1216.62 1503.72 1224.24 1518.17 1257.88" fill="#074f73"/>
      <polygon points="1518.17 1257.88 1461.53 1282.2 1461.48 1282.09 1443.46 1239.27 1443.49 1239.26 1500.45 1216.62 1503.72 1224.24 1518.17 1257.88" fill="#f49a78"/>
      <circle cx="1493.84" cy="1271.12" r="38.96" fill="#f49a78"/>
      <rect x="1146.79" y="884.76" width="266.33" height="290.89" rx="85.6" ry="85.6" fill="#19359b"/>
      <circle cx="1354.5" cy="790.76" r="30.56" fill="#3f1010"/>
      <circle cx="1201.49" cy="790.76" r="30.56" fill="#3f1010"/>
      <circle cx="1201.65" cy="781.64" r="16.53" fill="#f49a78"/>
      <circle cx="1357.65" cy="781.64" r="16.53" fill="#f49a78"/>
      <path d="M1340.62,924.36l-124.95,2.25-11.09-38.17c0-5.62.8-10.48,6.36-10.48h132.04c5.23,0,9.47,4.29,9.47,9.59l-11.83,36.81Z" fill="#003238"/>
      <rect x="1196.63" y="1209.8" width="77.09" height="481.44" fill="#042a40"/>
      <rect x="1295.56" y="1209.8" width="77.09" height="481.44" fill="#042a40"/>
      <polygon points="1041.23 818.93 970.68 767.93 934.57 817.88 1007.39 870.01 1041.23 818.93" fill="#074f73"/>
      <polyline points="920.44 807.89 956.12 833.68 991.38 783.11 979.32 771.25" fill="#f49a78"/>
      <path d="M1205.45,937.78c12.83,9.28,15.21,28.11,5.28,41.84h0c-9.93,13.74-28.56,17.39-41.39,8.11l-198.34-144.11,34.43-50.43,200.02,144.59Z" fill="#108b65"/>
      <path d="M1389.6,958.47c-6.69-15.58-24.9-22.85-40.48-16.16h0c-15.58,6.69-22.85,24.9-16.16,40.48l104.09,240.9,56.79-22.47-104.24-242.75Z" fill="#108b65"/>
      <path d="M1222.8,912.77h107.23c39.05,0,70.76,31.71,70.76,70.76v143.12c0,6.69-5.43,12.12-12.12,12.12h-224.49c-6.69,0-12.12-5.43-12.12-12.12v-143.12c0-39.05,31.71-70.76,70.76-70.76Z" fill="#108b65"/>
      <path d="M1167.62,1139.88h223.57v49.37c0,34.89-28.33,63.22-63.22,63.22h-97.14c-34.89,0-63.22-28.33-63.22-63.22v-49.37h0Z" fill="#042a40"/>
      <path d="M1284.24,941.57l-4.82,1.5-4.84-1.5c-18.24,0-33.02-14.78-33.02-33.02v-57.37h75.69v57.37c0,18.24-14.78,33.02-33.02,33.02Z" fill="#f27145"/>
      <path d="M1230.75,692.27h97.32c13.55,0,24.55,11,24.55,24.55v98.26c0,32.35-26.27,58.62-58.62,58.62h-29.19c-32.35,0-58.62-26.27-58.62-58.62v-98.26c0-13.55,11-24.55,24.55-24.55Z" fill="#f49a78"/>
      <rect x="1274.65" y="791.03" width="9.53" height="12.2" rx="4.76" ry="4.76" fill="#f27145"/>
      <circle cx="1251.55" cy="675.25" r="41.28" fill="#3f1010"/>
      <circle cx="1310.55" cy="673.06" r="43.47" fill="#3f1010"/>
      <circle cx="1376.17" cy="659.05" r="44.99" fill="#3f1010"/>
      <circle cx="1342.48" cy="622.21" r="36.84" fill="#3f1010"/>
      <ellipse cx="1296.25" cy="595.5" rx="42.02" ry="36.84" fill="#3f1010"/>
      <circle cx="1274.65" cy="638.52" r="36.84" fill="#3f1010"/>
      <circle cx="1232.75" cy="607.87" r="36.84" fill="#3f1010"/>
      <circle cx="1194.01" cy="648.91" r="39.11" fill="#3f1010"/>
      <circle cx="1181.12" cy="701.66" r="48.61" fill="#3f1010"/>
      <circle cx="1376.17" cy="699.36" r="49.62" fill="#3f1010"/>
      <circle cx="1181.77" cy="749.25" r="32.59" fill="#3f1010"/>
      <circle cx="1379.62" cy="752.38" r="30.56" fill="#3f1010"/>
      <g>
        <rect x="1295.82" y="752.38" width="29.83" height="38.32" rx="10.94" ry="10.94" fill="#fff"/>
        <rect x="1301.3" y="757.59" width="18.5" height="28.68" rx="7.21" ry="7.21" fill="url(#linear-gradient)"/>
        <circle cx="1304.8" cy="760.66" r="3.01" fill="#fff"/>
      </g>
      <path d="M1281.14,997.38c-2.84-.31-5.25-2.38-8.15-3.16-6-1.62-12.5-1.9-18.39.36-33.71,12.92-18.31,66.59,8.79,77.71,0,0,4.1,1.68,11.42-2.52,0,0,8.28-3.23,19.59.97,11.31,4.2,16.89-3.23,16.89-3.23,0,0,10.65-10.97,13.83-20.99,0,0-17.51-7.36-14.59-29.52,0,0,4.53-10.54,10.99-13.77.65-.32.97-.71,1.05-1.13.03-.17.03-.34-.01-.51-.58-2.65-8.58-6.4-9.6-6.78-4.94-1.85-10.52-2.74-15.91-2.14-2.8.31-5.54,1-8.17,2.02-2.54.98-4.92,3.01-7.75,2.7Z" fill="#70baa3"/>
      <path d="M1281.03,989.92c.13-1.83.67-3.66,1.37-5.35,3.77-9.11,11.46-17.02,21.9-16.9.48,0-4.87,13.08-5.4,13.92-2.24,3.51-5.2,6.62-8.91,8.58-2.06,1.08-4.46,1.96-6.8,2.14-2.1.17-2.3.01-2.17-2.24,0-.05,0-.1,0-.15Z" fill="#70baa3"/>
      <g>
        <rect x="1231.7" y="752.89" width="29.83" height="38.32" rx="10.94" ry="10.94" fill="#fff"/>
        <rect x="1237.18" y="758.1" width="18.5" height="28.68" rx="7.21" ry="7.21" fill="url(#linear-gradient-2)"/>
        <circle cx="1240.68" cy="761.16" r="3.01" fill="#fff"/>
      </g>
      <rect x="1292.53" y="720" width="36.41" height="13.18" rx="4.99" ry="4.99" fill="#3f1010"/>
      <rect x="1228.41" y="720" width="36.41" height="13.18" rx="4.99" ry="4.99" fill="#3f1010"/>
      <g>
        <path d="M1252.29,817.74c-1.82,0-3.26,1.57-3.05,3.38,1.68,14.9,14.32,26.48,29.67,26.48s28-11.58,29.67-26.48c.2-1.8-1.24-3.38-3.05-3.38h-53.24Z" fill="#c93939"/>
        <g clip-path="url(#clippath)">
          <path d="M1252.63,816.74h51.38v1.63c0,5.03-4.08,9.11-9.11,9.11h-33.15c-5.03,0-9.11-4.08-9.11-9.11v-1.63h0Z" fill="#fff"/>
        </g>
      </g>
      <path d="M1354.4,925.04c1.63-.41,2.79-1.84,2.84-3.52.19-5.73.1-19.75-3.92-38.35-.91-4.19-5.31-6.62-9.33-5.13-15.07,5.59-49.82,23.18-63.74,65.03-.11.32.18.63.51.55l73.64-18.59Z" fill="#06565b"/>
      <path d="M1201.88,925c-1.63-.39-2.81-1.8-2.89-3.48-.26-5.73-.32-19.75,3.7-38.35.91-4.19,5.31-6.62,9.33-5.13,15.07,5.59,54.52,23.18,68.49,65.04.11.32-.18.63-.51.55l-78.13-18.64Z" fill="#06565b"/>
      <rect x="1359.83" y="910.62" width="19.79" height="197.85" rx="7.5" ry="7.5" fill="#19359b"/>
      <rect x="1175.7" y="910.62" width="19.79" height="197.85" rx="7.5" ry="7.5" fill="#19359b"/>
      <g>
        <g>
          <circle cx="1246.62" cy="771.29" r="26" transform="translate(-143.86 307.05) rotate(-13.28)" fill="#99fff5" opacity=".43"/>
          <g clip-path="url(#clippath-1)">
            <rect x="1220.05" y="759.45" width="52.53" height="23.34" transform="translate(881.99 -648.46) rotate(43.86)" fill="#fff" opacity=".23"/>
            <rect x="1239.24" y="740.26" width="52.53" height="23.34" transform="translate(874.05 -667.1) rotate(43.86)" fill="#fff" opacity=".23"/>
          </g>
        </g>
        <g>
          <circle cx="1310.74" cy="771.54" r="26" transform="translate(-142.2 321.78) rotate(-13.28)" fill="#99fff5" opacity=".43"/>
          <g clip-path="url(#clippath-2)">
            <rect x="1284.17" y="759.7" width="52.53" height="23.34" transform="translate(900.06 -692.82) rotate(43.86)" fill="#fff" opacity=".23"/>
            <rect x="1303.36" y="740.52" width="52.53" height="23.34" transform="translate(892.12 -711.46) rotate(43.86)" fill="#fff" opacity=".23"/>
          </g>
        </g>
        <path d="M1246.62,741.75c-16.31,0-29.54,13.22-29.54,29.54s13.22,29.54,29.54,29.54,29.54-13.22,29.54-29.54-13.22-29.54-29.54-29.54ZM1246.62,797.29c-14.36,0-26-11.64-26-26s11.64-26,26-26,26,11.64,26,26-11.64,26-26,26Z" fill="#e03b3b"/>
        <path d="M1310.74,742.01c-16.31,0-29.54,13.22-29.54,29.54s13.22,29.54,29.54,29.54,29.54-13.22,29.54-29.54-13.22-29.54-29.54-29.54ZM1310.74,797.54c-14.36,0-26-11.64-26-26s11.64-26,26-26,26,11.64,26,26-11.64,26-26,26Z" fill="#e03b3b"/>
        <rect x="1272.96" y="769.78" width="10.6" height="4.54" rx="1.72" ry="1.72" fill="#e03b3b"/>
        <path d="M1216.03,774.22l-10.98.1c-1.25,0-2.27-1.02-2.27-2.27h0c0-1.25,1.02-2.27,2.27-2.27h10.6c1.25,0,2.27,1.02,2.27,2.27h0c0,1.25-.64,2.18-1.9,2.18Z" fill="#e03b3b"/>
        <rect x="1339.1" y="769.78" width="15.15" height="4.54" rx="1.72" ry="1.72" fill="#e03b3b"/>
      </g>
      <circle cx="1333.34" cy="823.04" r="3.03" fill="#ea6d42"/>
      <circle cx="1325.51" cy="817.74" r="1.26" fill="#ea6d42"/>
      <circle cx="1329.8" cy="809.41" r="2.02" fill="#ea6d42"/>
      <circle cx="1334.35" cy="799.82" r="1.51" fill="#ea6d42"/>
      <circle cx="1318.69" cy="807.39" r="2.02" fill="#ea6d42"/>
      <circle cx="1307.08" cy="804.36" r="1.51" fill="#ea6d42"/>
      <circle cx="1240.44" cy="806.89" r="2.52" fill="#ea6d42"/>
      <circle cx="1229.08" cy="809.16" r="1.77" fill="#ea6d42"/>
      <circle cx="1252.81" cy="804.11" r="1.26" fill="#ea6d42"/>
      <circle cx="1234.63" cy="818.25" r="1.77" fill="#ea6d42"/>
      <circle cx="1226.81" cy="823.55" r="2.52" fill="#ea6d42"/>
      <circle cx="1225.54" cy="801.08" r="1.26" fill="#ea6d42"/>
      <circle cx="1220.47" cy="812.81" r="1.98" fill="#ea6d42"/>
      <circle cx="1217.83" cy="804.9" r="1.98" fill="#ea6d42"/>
      <circle cx="1217.83" cy="820.73" r="1.98" fill="#ea6d42"/>
      <circle cx="1211.89" cy="812.15" r="1.32" fill="#ea6d42"/>
      <circle cx="1314.78" cy="812.15" r="1.32" fill="#ea6d42"/>
      <circle cx="1341.16" cy="804.24" r="1.32" fill="#ea6d42"/>
      <circle cx="1338.52" cy="813.47" r="1.32" fill="#ea6d42"/>
      <rect x="1257.95" y="934.83" width="5.24" height="113" rx="1.99" ry="1.99" fill="#fff"/>
      <path d="M1293.87,937.45c0-1.45,1.17-2.62,2.62-2.62h0c1.45,0,2.62,1.17,2.62,2.62v107.76c0,1.45-1.17,2.62-2.62,2.62h0c-1.45,0-2.62-1.17-2.62-2.62" fill="#fff"/>
      <rect x="1285.64" y="1016.4" width="21.7" height="4.49" rx="1.14" ry="1.14" fill="#fff"/>
      <rect x="1287.89" y="1020.15" width="17.21" height="4.49" rx="1.14" ry="1.14" fill="#fff"/>
      <rect x="1249.72" y="1016.4" width="21.7" height="4.49" rx="1.14" ry="1.14" fill="#fff"/>
      <rect x="1251.97" y="1020.15" width="17.21" height="4.49" rx="1.14" ry="1.14" fill="#fff"/>
      <g>
        <rect x="1440.57" y="1224.81" width="68.22" height="14.7" rx="1.24" ry="1.24" transform="translate(-355.47 646.11) rotate(-22.12)" fill="#232323"/>
        <rect x="1483.22" y="1207.45" width="29.41" height="26.81" rx="2.66" ry="2.66" transform="translate(-349.5 654.03) rotate(-22.12)" fill="#191919"/>
        <g>
          <rect x="1484.94" y="1209.02" width="25.97" height="23.68" rx="2.66" ry="2.66" transform="translate(-349.5 654.03) rotate(-22.12)" fill="#2d2d2d"/>
          <g clip-path="url(#clippath-3)">
            <rect x="1480.12" y="1220.58" width="33.87" height="5.28" transform="translate(841.9 -595.63) rotate(30.94)" fill="#d9fffe" mix-blend-mode="lighten" opacity=".29"/>
            <rect x="1487.5" y="1214.59" width="33.87" height="3.2" transform="translate(839.34 -600.42) rotate(30.94)" fill="#d9fffe" mix-blend-mode="lighten" opacity=".29"/>
          </g>
        </g>
      </g>
      <path d="M1296.87,1688.9h82.78c16.87,0,30.57,13.7,30.57,30.57v6.96c0,2.27-1.85,4.12-4.12,4.12h-109.23c-2.27,0-4.12-1.85-4.12-4.12v-33.41c0-2.27,1.85-4.12,4.12-4.12Z" fill="#1cad7d"/>
      <path d="M1163.16,1688.9h112.07c1.49,0,2.69,1.21,2.69,2.69v10c0,15.98-12.97,28.95-28.95,28.95h-85.82c-1.49,0-2.69-1.21-2.69-2.69v-36.26c0-1.49,1.21-2.69,2.69-2.69Z" transform="translate(2438.4 3419.45) rotate(-180)" fill="#1cad7d"/>
      <path d="M958.11,807.2c-11.68,3.69-25.01,5.03-33.84,6.43-15.21,2.41-30.88,3.28-46.09.38-9.81-1.87-17.58-10.49-18.79-20.34-.65-5.28.49-10.37,2.95-14.66,4.6-8.02,13.8-12.12,22.97-10.96,21.44,2.7,43.4-.48,65.76-8.35,13.57-4.77,28.58,3.49,31.05,17.65.07.4.13.8.18,1.21,1.97,16.04-9.86,24.11-24.18,28.63Z" fill="#f49a78"/>
    </g>
    <g id="jana">
      <g>
        <circle cx="843.66" cy="1222.89" r="56.36"/>
        <circle cx="873.72" cy="1282.58" r="56.36"/>
        <circle cx="790.1" cy="1299.38" r="56.36"/>
        <circle cx="843.56" cy="1366.46" r="56.36"/>
        <circle cx="844.34" cy="1060.11" r="56"/>
        <circle cx="883.68" cy="1122.39" r="56.36"/>
        <circle cx="803.99" cy="1137.57" r="56.36"/>
        <circle cx="908.09" cy="1201.79" r="56.36"/>
        <circle cx="746.08" cy="1359.24" r="59.79"/>
      </g>
      <path d="M691.87,1383l124.14,9.19c41.76,3.09,78.45-28.54,81.54-70.3l27.67-373.75c4.9-66.17-44.39-132.06-110.56-136.96l-35.35-2.62c-66.17-4.9-125.16,52.97-130.06,119.15l-27.67,373.75c-3.09,41.76,28.54,78.45,70.3,81.54Z"/>
      <g>
        <circle cx="619.76" cy="1237.03" r="56.36"/>
        <circle cx="581.24" cy="1291.65" r="56.36"/>
        <circle cx="661.47" cy="1320.57" r="56.36"/>
        <circle cx="642.92" cy="1077.81" r="56"/>
        <circle cx="593.23" cy="1129.7" r="56.36"/>
        <circle cx="663.57" cy="1163.6" r="56.36"/>
        <circle cx="559.99" cy="1190.46" r="56.36"/>
        <circle cx="694.36" cy="1386.13" r="59.79"/>
      </g>
      <path d="M747.97,1105.35l75.76,5.61-3.8,51.31-75.76-5.61,3.8-51.31Z" fill="#e5876a"/>
      <path d="M812.92,1383.99c0,31.46-25.51,56.97-56.97,56.97-31.46,0-56.97-25.51-56.97-56.97,0-31.46,25.51-56.97,56.97-56.97,31.46,0,56.97,25.51,56.97,56.97Z"/>
      <path d="M776.13,859.29h36.84c49.81,0,90.25,40.44,90.25,90.25v63.51c0,57.89-47,104.88-104.88,104.88h-7.28c-57.89,0-104.88-47-104.88-104.88v-63.81c0-49.65,40.31-89.95,89.95-89.95Z" transform="translate(1514.23 2033.2) rotate(-175.77)" fill="#f9bb9b"/>
      <circle cx="819.93" cy="1040.17" r="8.71" fill="#e5876a"/>
      <rect x="860.85" y="1179.06" width="52.45" height="303.51" rx="14.5" ry="14.5" transform="translate(2159.17 2300.23) rotate(161)" fill="#ffa573"/>
      <g>
        <path d="M860.85,1179.06h52.45v289.01c0,8-6.5,14.5-14.5,14.5h-23.45c-8,0-14.5-6.5-14.5-14.5v-289.01h0Z" transform="translate(2159.17 2300.23) rotate(161)" fill="#f9bb9b"/>
        <path d="M837.66,1187.33h0c13.64-4.7,28.64,2.62,33.34,16.26l38.79,112.64-50.09,15.64-38.3-111.2c-4.7-13.64,2.62-28.64,16.26-33.34Z" fill="#f9bb9b"/>
        <circle cx="929.6" cy="1454.28" r="37.98" fill="#f9bb9b"/>
      </g>
      <path d="M759.12,1252.93l-28.66,270.25c-.58,5.51-5.53,9.51-11.04,8.92l-46.08-4.89,29.72-280.23,56.06,5.95Z" fill="#77daff"/>
      <rect x="552.92" y="1460.58" width="470.09" height="56.37" transform="translate(-706.61 2265.67) rotate(-89.57)" fill="#77daff"/>
      <path d="M758.62,1709.09h101.9c2.66,0,4.81,2.16,4.81,4.81v21.23c0,4.59-3.73,8.32-8.32,8.32h-86.41c-11.2,0-20.3-9.1-20.3-20.3v-5.74c0-4.59,3.73-8.32,8.32-8.32Z" transform="translate(1521.61 3493.5) rotate(-176.92)" fill="#19359b"/>
      <path d="M653.33,1225.74l-3.84,51.82c-2.66,35.98,17,68.45,47.28,83.79,9.93,5.05,21.01,8.25,32.8,9.12l51.52,3.81c47.78,3.54,89.36-32.32,92.9-80.1l3.84-51.82c2.24-30.27-11.34-58.06-33.75-75.24-6.79-5.24-14.42-9.48-22.65-12.52-7.45-2.75-15.39-4.51-23.69-5.13l-51.52-3.81c-6.3-.47-12.42.69-18.49.59-51.61-.83-71.34,38.03-74.41,79.5Z" fill="#77daff"/>
      <path d="M869.28,1198.59l30.1,47.28c1.89,2.97,1.06,6.9-1.87,8.85l-59.13,39.45,7.49-101.14,23.41,5.56Z" fill="#77daff"/>
      <path d="M649.65,1275.38l-.16,2.18c-2.66,35.98,17,68.45,47.28,83.79,12.78,5.43,26.8,8.68,40.33,9.68l43.98,3.26c47.78,3.54,89.38-32.33,92.91-80.1l2.47-33.3c.15-2.09-.41-4.16-1.6-5.88l-33.68-48.76,3.28-45.77c.19-2.62-1.6-4.89-4-5.07l-14.77-1.09c-2.4-.18-4.49,1.81-4.68,4.42l-2.16,30.68c-.17,2.34-2.06,4.13-4.21,3.97l-54.43-4.11c-2.16-.16-3.75-2.2-3.58-4.55l1.97-35.64c.05-.65-.03-1.27-.21-1.85-.52-1.76-1.98-3.09-3.79-3.22l-14.77-1.09c-2.4-.18-4.49,1.81-4.68,4.42l-3.39,43.33-82.1,84.7Z" fill="#19359b"/>
      <path d="M768.7,1223.62h31.54c10.76,0,19.5,8.74,19.5,19.5v34.38c0,1.21-.98,2.19-2.19,2.19h-66.16c-1.21,0-2.19-.98-2.19-2.19v-34.38c0-10.76,8.74-19.5,19.5-19.5Z" transform="translate(1474.37 2557.81) rotate(-175.77)" fill="none" stroke="#6ec8f1" stroke-miterlimit="10"/>
      <g>
        <path d="M799.87,837.74h10.93c57.34,0,103.89,46.55,103.89,103.89v22.93h-15.34c-54.91,0-99.48-44.58-99.48-99.48v-27.34h0Z" transform="translate(1645.68 1863.15) rotate(-175.77)"/>
        <path d="M741.6,849.56h58.78v12.02c0,63.51-51.56,115.06-115.06,115.06h0v-70.8c0-31.07,25.22-56.29,56.29-56.29Z" transform="translate(69.45 -52.36) rotate(4.23)"/>
      </g>
      <g>
        <path d="M813.59,1074.86c-.02,3.12-.83,6.06-2.23,8.63-1.98,3.63-5.16,6.5-9.01,8.09-2.18.91-4.58,1.4-7.09,1.39-9.83-.06-17.77-7.88-18.09-17.6-.02-.24-.02-.49-.02-.73,0-.88.07-1.74.21-2.58,1.3-8.83,8.94-15.58,18.13-15.53,10.06.06,18.17,8.28,18.1,18.33Z" fill="#a92c2c"/>
        <path d="M802.34,1091.58c-2.18.91-4.58,1.4-7.09,1.39-9.83-.06-17.77-7.88-18.09-17.6,4.21-.43,8.64.27,12.8,2.27,6.14,2.95,10.48,8.11,12.38,13.95Z" fill="#ef6565"/>
      </g>
      <ellipse cx="688.18" cy="1002.31" rx="28.03" ry="23.86" transform="translate(-362.2 1614.61) rotate(-85.77)" fill="#f9bb9b"/>
      <path d="M713.45,1544.65l-135.58,40.25c-18.76,5.57-37.55-2.01-41.98-16.94h0c-4.43-14.92,7.18-31.53,25.94-37.1l123.44-36.65c18.76-5.57,37.55,2.01,41.98,16.94l2.87,9.66c2.85,9.59-4.61,20.26-16.66,23.84Z" fill="#77daff"/>
      <path d="M506.2,1565.86h91.27c3.47,0,6.28,2.82,6.28,6.28v20.73c0,4.06-3.29,7.35-7.35,7.35h-78.23c-10.67,0-19.33-8.66-19.33-19.33v-7.69c0-4.06,3.29-7.35,7.35-7.35Z" transform="translate(-774.04 2609.41) rotate(-108.55)" fill="#19359b"/>
      <circle cx="763.12" cy="994.28" r="32.9" fill="#fff"/>
      <path d="M789.9,977.04c-15.98-22.84-51.23-16.74-57.83,10.51-1.98,8.1-.76,16.72,3.09,24.17.13.25.03.55-.22.68-.22.11-.48.05-.63-.14-8.29-10.6-8.14-26.91-.11-37.82,7.76-11.25,22.59-16.86,35.82-13.46,8.72,2.11,16.39,7.91,20.72,15.52.29.55-.47,1.04-.84.54h0Z" fill="#070782"/>
      <circle cx="765.91" cy="1000.63" r="23.71" fill="url(#linear-gradient-3)"/>
      <circle cx="748.62" cy="987.69" r="5.72" fill="#fff"/>
      <circle cx="864.8" cy="1001.81" r="32.9" fill="#fff"/>
      <path d="M840.1,980.16c15.12-19.11,45.41-15.45,56.23,6.28,6.33,11.97,4.08,28.13-5.68,37.39-.2.19-.52.19-.71-.01-.17-.18-.18-.45-.05-.64,4.9-6.81,7.39-15.16,6.62-23.46-1.71-22.07-25.46-35.68-45.47-26.25-3.8,1.74-7.25,4.28-10.19,7.34-.4.46-1.16-.18-.76-.65h0Z" fill="#070782"/>
      <circle cx="865.81" cy="1008.9" r="23.71" fill="url(#linear-gradient-4)"/>
      <circle cx="850.54" cy="996.1" r="5.72" fill="#fff"/>
      <path d="M806.78,834.93c18.31,1.65,36.33,7.14,52.04,16.7l.05.03c.19.12.39.24.58.36,8.93,5.52,17.21,12.1,24.73,19.42,12.95,12.6,23.92,27.69,30.56,44.56,3.65,9.28,5.96,19.18,6.05,29.18l.06,6.71c-.5-52.37-61.69-110.19-114.06-109.69-64.69-3.09-140.7,84.22-140.2,136.59l-.06-6.71c-.12-12.7,6.5-33.66,11.42-45.28,5.82-13.75,13.43-30.72,23.04-42.13,10.21-12.12,19.82-21.89,33.32-30.21,18.44-11.36,37.57-19.84,59.21-20.06,4.42-.05,8.84.13,13.25.53Z" fill="#77daff"/>
      <path d="M718.48,1166.46h0c-14.31,8.66-39.62,26.18-59.81,19.49l-56.26,73.75c-9.87,11.01-8.55,24.63,2.74,34.17l2.55,2.11c10.84,9.16,31.17,3.35,51.32-23.89l61.49-68.61c9.63-10.74,8.71-27.41-2.03-37.03Z" fill="#f9bb9b"/>
      <path d="M699.14,1153.17c-2.05-1.02-4.5-.84-6.37.48l-56.2,39.54c-2.74,1.39-3.29,5.08-1.07,7.21l47.07,45.08c2.17,2.08,5.74,1.46,7.09-1.23l40.77-52.22c.86-1.72.83-22.19-.54-23.55l-30.75-15.32Z" fill="#77daff"/>
      <path d="M696.46,1154h0c14.47,0,26.23,11.75,26.23,26.23v159.72c0,6.47-5.25,11.73-11.73,11.73h-29c-6.47,0-11.73-5.25-11.73-11.73v-159.72c0-14.47,11.75-26.23,26.23-26.23Z" transform="translate(-332.14 2251.15) rotate(-105.07)" fill="#f9bb9b"/>
      <circle cx="781.48" cy="1223.89" r="37.98" fill="#f9bb9b"/>
    </g>
    <g id="sunny">
      <path d="M1150.94,1692.99l-70.2,32.76c-3.62,1.69-7.89-.25-9-4.08l-46.5-160.15c-.9-3.11.62-6.4,3.56-7.74l31.21-14.16c3-1.36,6.55-.26,8.26,2.56l85.49,141.55c2,3.31.69,7.62-2.82,9.26Z" fill="#f59c4e"/>
      <path d="M941.27,1444.19c-22.38-12.07-221.85-121.53-248.26-205-.75-2.38,1.69-4.54,3.99-3.56l49.61,21.11c2.65,1.13,5.17-1.82,3.66-4.26l-28.35-45.81c-1.55-2.51,1.13-5.49,3.79-4.2l38.58,18.63c2.26,1.09,4.76-.96,4.14-3.39l-8.23-31.96c-.73-2.84,2.68-4.89,4.84-2.91l54.67,49.87c1.77,1.61,4.62.56,4.91-1.82l2.05-16.75c.32-2.6,3.6-3.54,5.22-1.49,10.19,12.84,36.06,47.7,54.88,92.66.12.28.28.54.47.77l86.82,100.85c.96,1.12.95,2.78-.03,3.88l-29.18,32.76c-.91,1.02-2.38,1.29-3.59.64Z" fill="#f59c4e" stroke="#682212" stroke-miterlimit="10" stroke-width="3"/>
      <polygon points="1061.61 1822.15 1025.72 1822.15 1025.72 1568.54 1055.29 1565.61 1061.61 1822.15" fill="#772828"/>
      <polygon points="1017.42 1568.37 1011.23 1822.14 975.34 1822.14 987.94 1565.19 1017.42 1568.37" fill="#772828"/>
      <path d="M946.5,1470.55l-79.76-47.7c-1.86-1.11-2.34-3.59-1.03-5.32l50.01-65.89,76.36,66.78-45.59,52.12Z" fill="#19359b"/>
      <path d="M1126.86,1586.2c-69.43,30.82-149.27,30.16-216.85-6.36l36.9-215.05,160.03,1.2,19.92,220.21Z" fill="#19359b"/>
      <ellipse cx="987.27" cy="1385.37" rx="31.17" ry="32.96" fill="#fff"/>
      <ellipse cx="1046.6" cy="1388.37" rx="31.17" ry="32.96" fill="#fff"/>
      <path d="M933.14,1822.03h79.17v25.7c0,1.63-1.32,2.94-2.94,2.94h-76.22c-2.4,0-4.36-1.95-4.36-4.36v-19.94c0-2.4,1.95-4.36,4.36-4.36Z" transform="translate(-129.22 74.35) rotate(-4.11)" fill="#772828"/>
      <path d="M1029.2,1822.29h75.75c1.63,0,2.94,1.32,2.94,2.94v25.7h-78.69c-2.4,0-4.36-1.95-4.36-4.36v-19.94c0-2.4,1.95-4.36,4.36-4.36Z" transform="translate(1998.24 3744.98) rotate(-175.89)" fill="#772828"/>
      <path d="M1058.07,1521.48c1-.18,1.72.94,1.15,1.78l-28.49,33.09c-.65.94.32,2.14,1.38,1.71l109.64-17.92s120.66-54.1,4.54-158.44c-.09-.08-2.01-.47-2.12-.53l-12.49-13.26c-.37-.18-.8-.15-1.14.08l-21.27,14.32c-.29.2-.48.52-.5.87l.34,12.82c-.02.32,4.1-1.03,4.33-.79,3.55,3.74,24,47.12-3.24,52.45-.06.01-.12.02-.19.02l-78.85,4.98c-1.09.07-1.48,1.48-.57,2.09l25.53,17.27c.79.53.62,1.75-.29,2.04l-65.23,21.22c-1.13.37-1.02,2.01.15,2.22l67.84,23.82c.9.16,1.26,1.26.63,1.92" fill="#f49d4d" stroke="#682212" stroke-miterlimit="10" stroke-width="2"/>
      <path d="M1109.61,1424.76c-1.65-2.22-3.8-4.03-5.48-6.23-1.79-2.34-3.04-5.08-5.03-7.26-1.59-1.74-3.6-3.07-5.07-4.91-2.64-3.32-2.3-10.12-2.97-14.21-.89-5.48-1.96-11.17-.47-16.52,1.15-4.12,3.65-7.64,5.44-11.48,1.16-2.5,1.56-7.84,3.98-9.47,5.17-3.47,13.08,1.99,17.45,4.57,1.91,1.13,3.81,2.26,5.71,3.41,4.87,2.95,9.7,5.98,14.46,9.11,8.75,5.75,17.28,11.82,25.58,18.2,8.71,6.69,16.95,14.8,22.99,24.23,6.56,10.23,9.23,21.55,12.43,33.11.51,1.84.19,4.41-2.28,4.26-.81-.05-1.57-.4-2.31-.75-20.81-9.83-42.6-12.96-65.44-11.41-2.85.19-5.87.22-8.68.73-1.91.35-3.49,1.09-4.7-1.03-1.34-2.37-2.09-5.27-2.46-7.95-.36-2.61-1.58-4.27-3.17-6.41Z" fill="#19359b"/>
      <path d="M1175.31,1270.91c-.39-2.91-3.34-4.75-6.11-3.78-2.51.88-4.79,2.84-6.58,4.79-1.47,1.6-4.15.59-4.32-1.58-3.19-41.91-12.93-69.73-12.93-69.73-45.72-115.25-78.67-111.5-78.67-111.5-1.58.65-2.28,3.47-2.51,6.9-3.72-10.76-8.09-21.26-13.44-31.31-9.6-18.02-22.29-35.68-39.1-47.62-3.76-2.67-9.1-6.86-13.73-7.7-4.18-.76-3.15-1.13-5.1,2.96-1.22,2.55-1.77,5.7-2.46,8.43-2.94,11.66-4.2,23.65-6.56,35.42-3.03,15.11-9.1,29.74-16.85,43.39-8.89,8.33-14.41,17.29-17.82,25.24l-.39-10.83s-1.08-20.66-6.01-21.62c0,0-33.05,2.79-55.25,124.77,0,0-4.08,29.19,1.01,70.91.26,2.16-2.17,3.67-3.92,2.39-2.14-1.56-4.77-3.03-7.4-3.4-2.9-.41-5.44,1.98-5.25,4.9.83,12.94,7.93,56.86,64.6,85.29,7.29,4.93,12.6,7.04,12.6,7.04,59.75,32.72,144.86,4.48,144.86,4.48,5.34-2.65,10.33-5.36,15-8.14,70.11-41.57,68.24-95.36,66.32-109.71Z" fill="#f59c4e" stroke="#682212" stroke-miterlimit="10" stroke-width="3"/>
      <ellipse cx="1077.77" cy="1285.26" rx="42.83" ry="14.28" transform="translate(-262.36 2293.99) rotate(-86.99)" fill="#772828"/>
      <ellipse cx="969.99" cy="1279.59" rx="42.83" ry="14.28" transform="translate(-358.81 2180.99) rotate(-86.99)" fill="#772828"/>
      <path d="M996.96,1350.69c-.31,5.28-.44,10.56-.4,15.85.03,5.27.23,10.54.57,15.8s.81,10.48,1.41,15.7c.6,5.21,1.31,10.4,2.13,15.57.81,5.15,1.73,10.28,2.72,15.4.99,5.08,2.06,10.14,3.19,15.19s2.31,9.98,3.54,14.94c1.21,4.9,2.47,9.78,3.76,14.66s2.55,9.56,3.86,14.33c.58,2.12,1.16,4.25,1.74,6.37.55,1.99.95,4.04,1.58,6,.4,1.25,2,3.37,3.49,2.25.57-.43.75-1.08.96-1.73.9-2.78,1.74-5.59,2.59-8.38.77-2.56,1.53-5.12,2.28-7.68.86-2.96,1.71-5.92,2.54-8.89.93-3.33,1.82-6.66,2.69-10.01.95-3.67,1.87-7.34,2.75-11.02.95-3.97,1.85-7.95,2.7-11.94.91-4.24,1.76-8.5,2.55-12.77.83-4.49,1.6-8.98,2.3-13.49.73-4.7,1.38-9.4,1.96-14.12.59-4.87,1.1-9.76,1.51-14.65.42-5.02.75-10.05.96-15.09.22-5.14.33-10.28.31-15.43,0-2.68-.05-5.36-.13-8.04,0,0-26.86-45.79-53.57,1.18Z" fill="#772828"/>
      <path d="M1109.31,1403.98h-185.94l8.28-6.59c1.23-.98,2.75-1.51,4.32-1.5l163.03.27c1.91,0,3.73.8,5.04,2.19l5.27,5.64Z" fill="#16b6ff"/>
      <path d="M1087.05,1578.37l-141.79,1.47c-2.18.02-4.06-1.53-4.45-3.68l-17.43-172.18h185.94l-17.87,170.66c-.37,2.14-2.22,3.7-4.39,3.72Z" fill="#57e1fe"/>
      <path d="M1114.02,1446.54c-1.16.47-2.43.85-3.83,1.12-.06.01-.12.02-.19.02l-78.85,4.98c-1.09.07-1.48,1.48-.57,2.09l25.53,17.27c.79.53.62,1.75-.29,2.04l-65.23,21.22c-1.13.37-1.02,2.01.15,2.22l67.84,23.82c.9.16,1.26,1.26.63,1.92l-28.49,33.09c-.65.94.32,2.14,1.38,1.71,6.26-1.02,12.53-2.05,18.79-3.07l40.35-6.6c10.19-1.67,20.38-3.33,30.58-5,6.47-1.06,13.22-2.04,19.54-4.13,6.83-2.26,12.74-6.13,18.5-10.36" fill="#f49d4d" stroke="#682212" stroke-miterlimit="10" stroke-width="2"/>
      <path d="M947.08,1421.76l36.45-.39c2.05-.02,3.68,1.76,3.56,3.88l-1.99,36.41c-.1,1.9-1.58,3.4-3.41,3.46l-30.12,1.06c-1.83.06-3.41-1.34-3.63-3.23l-4.34-37.09c-.25-2.17,1.37-4.09,3.47-4.12Z" fill="#074f73"/>
    </g>
  </g>
</svg>
