<svg width="100%" height="100%" viewBox="0 0 56 56" xmlns="http://www.w3.org/2000/svg">
  <g>
    <path d="M56 28C56 43.464 43.464 56 28 56C12.536 56 0 43.464 0 28C0 12.536 12.536 0 28 0C43.464 0 56 12.536 56 28ZM8.73087 28C8.73087 38.642 17.358 47.2691 28 47.2691C38.642 47.2691 47.2691 38.642 47.2691 28C47.2691 17.358 38.642 8.73087 28 8.73087C17.358 8.73087 8.73087 17.358 8.73087 28Z" fill="#999999"/>
    <path d="M51.6346 28C54.0455 28 56.0348 26.0339 55.6604 23.6522C55.3176 21.4714 54.7173 19.3338 53.8686 17.2849C52.4615 13.8877 50.399 10.8011 47.799 8.20101C45.1989 5.60097 42.1123 3.5385 38.7151 2.13137C36.6662 1.28268 34.5286 0.682404 32.3478 0.339619C29.9661 -0.0347534 28 1.95447 28 4.36544C28 6.7764 29.9789 8.68172 32.3282 9.22326C33.3663 9.46255 34.3851 9.78806 35.374 10.1976C37.7118 11.166 39.836 12.5854 41.6253 14.3747C43.4146 16.164 44.834 18.2882 45.8024 20.626C46.2119 21.6149 46.5375 22.6337 46.7767 23.6718C47.3183 26.0211 49.2236 28 51.6346 28Z" fill="#666666"/>
    
    <animateTransform 
      attributeName="transform" 
      type="rotate" 
      from="0 28 28" 
      to="360 28 28" 
      dur="1s" 
      repeatCount="indefinite"/>
  </g>
</svg>

