<svg width="100%" height="100%" viewBox="0 0 24 24" fill="none" xmlns="http://www.w3.org/2000/svg">
<path d="M12 14.5898C12.624 14.5898 13.1298 15.0957 13.1299 15.7197C13.1299 16.3438 12.6241 16.8496 12 16.8496C11.376 16.8495 10.8701 16.3438 10.8701 15.7197C10.8702 15.0957 11.376 14.5899 12 14.5898Z" fill="#437DFA" stroke="#437DFA"/>
<path d="M12 2.5C14.7014 2.5 16.0943 3.35162 16.8418 4.41504C17.6148 5.51485 17.7803 6.95135 17.7803 8.28027V9.97168L18.2178 10.0264C19.5447 10.1922 20.3125 10.5956 20.7793 11.2676C21.2677 11.9708 21.5 13.0662 21.5 14.79V16.6504C21.5 18.6826 21.1818 19.8358 20.5088 20.5088C19.8358 21.1818 18.6826 21.5 16.6504 21.5H7.34961C5.31744 21.5 4.16421 21.1818 3.49121 20.5088C2.81822 19.8358 2.50004 18.6826 2.5 16.6504V14.79C2.5 13.0662 2.73227 11.9708 3.2207 11.2676C3.68753 10.5956 4.45532 10.1922 5.78223 10.0264L6.21973 9.97168V8.28027C6.21973 6.95135 6.38521 5.51485 7.1582 4.41504C7.90569 3.35162 9.29865 2.5 12 2.5ZM12 12.2002C10.065 12.2002 8.48062 13.7726 8.48047 15.7197C8.48047 17.6548 10.0528 19.2402 12 19.2402C13.9461 19.2402 15.5195 17.6659 15.5195 15.7197C15.5194 13.7837 13.9361 12.2002 12 12.2002ZM12 2.90039C9.90625 2.90039 8.50723 3.40417 7.65723 4.4209C6.82456 5.4172 6.62012 6.79278 6.62012 8.28027V9.94043H6.84961V9.9502H17.3799V8.28027C17.3799 6.79278 17.1754 5.4172 16.3428 4.4209C15.4928 3.40417 14.0938 2.90039 12 2.90039Z" fill="#437DFA" stroke="#437DFA"/>
</svg>
