<?xml version="1.0" encoding="UTF-8"?>
<svg id="Layer_1"
  xmlns="http://www.w3.org/2000/svg"
  xmlns:xlink="http://www.w3.org/1999/xlink" viewBox="0 0 1626.44 637.38">
  <defs>
    <linearGradient id="login-dark" x1="1280.78" y1="247.69" x2="1299.98" y2="247.69" gradientTransform="translate(-.99 490.16) rotate(-21.5)" gradientUnits="userSpaceOnUse">
      <stop offset="0" stop-color="#1500d4"/>
      <stop offset="1" stop-color="#3258de"/>
    </linearGradient>
    <linearGradient id="login-dark-2" x1="1064.13" y1="330.85" x2="1081.04" y2="330.85" gradientTransform="translate(5.31 678.45) rotate(-35.18)" xlink:href="#login-dark"/>
    <linearGradient id="login-dark-3" x1="242.56" y1="122.15" x2="256.66" y2="122.15" gradientTransform="translate(-5.34 -2.8)" gradientUnits="userSpaceOnUse">
      <stop offset="0" stop-color="#3953a3"/>
      <stop offset="1" stop-color="#3264ae"/>
    </linearGradient>
    <linearGradient id="login-dark-4" x1="211.88" y1="122.15" x2="225.97" y2="122.15" gradientTransform="translate(-5.33 -1.77)" xlink:href="#login-dark-3"/>
    <linearGradient id="login-dark-5" x1="162.83" y1="294.95" x2="319.39" y2="294.95" gradientTransform="matrix(1,0,0,1,0,0)" xlink:href="#login-dark-3"/>
    <linearGradient id="login-dark-6" x1="447.62" y1="166.74" x2="458.75" y2="166.74" gradientTransform="translate(-20.19 28.48) rotate(-4.84)" gradientUnits="userSpaceOnUse">
      <stop offset="0" stop-color="#28b473"/>
      <stop offset=".39" stop-color="#1ea264"/>
      <stop offset=".96" stop-color="#0d8249"/>
    </linearGradient>
    <linearGradient id="login-dark-7" x1="430.9" y1="170.49" x2="436.88" y2="170.49" gradientTransform="translate(-20.19 28.48) rotate(-4.84)" gradientUnits="userSpaceOnUse">
      <stop offset="0" stop-color="#3953a3"/>
      <stop offset="1" stop-color="#198bcc"/>
    </linearGradient>
  </defs>
  <line x1="1440.98" y1="521.68" x2="1625.44" y2="521.68" fill="none" stroke="#fafafa" stroke-linecap="round" stroke-miterlimit="10" stroke-width="2"/>
  <line x1="1288.99" y1="521.68" x2="1156.17" y2="521.68" fill="none" stroke="#fafafa" stroke-linecap="round" stroke-miterlimit="10" stroke-width="2"/>
  <line x1="1042.89" y1="521.68" x2="1" y2="521.68" fill="none" stroke="#fafafa" stroke-linecap="round" stroke-miterlimit="10" stroke-width="2"/>
  <line x1="1343.32" y1="521.68" x2="1383.16" y2="521.68" fill="none" stroke="#fafafa" stroke-linecap="round" stroke-miterlimit="10" stroke-width="2"/>
  <g>
    <path d="M1487.8,583.33c0,7.9-54.12,14.31-120.87,14.31-66.76,0-120.88-6.41-120.88-14.31,0-4.62,18.5-8.74,47.21-11.36,4.79,6.9,12.38,11.36,20.92,11.36,9.53,0,17.89-5.56,22.48-13.87,9.67-.29,19.82-.45,30.27-.45s20.4.15,29.98.44c5.14,13.55,17.69,20.02,30.94,16.69,7.51-1.89,14.53-6.79,18.12-13.65h.01c25.61,2.63,41.82,6.51,41.82,10.84Z" fill="#cececd"/>
    <g>
      <path d="M1404.05,272.74c0,38.41-31.14,69.56-69.56,69.56-38.41,0-69.56-31.14-69.56-69.56s31.14-69.56,69.56-69.56c38.41,0,69.56,31.14,69.56,69.56Z" fill="none" stroke="#fafafa" stroke-miterlimit="10" stroke-width="3"/>
      <path d="M1293.65,216.44s42.17,11.83,19.83,55.76c-1.57,3.08-2.97,6.25-4.27,9.46-3.46,8.54-13.81,26-38.85,18.04" fill="none" stroke="#fafafa" stroke-miterlimit="10" stroke-width="3"/>
      <rect x="1360.42" y="262.7" width="26.71" height="29.12" rx="9.28" ry="9.28" transform="translate(80.09 -261.73) rotate(11.21)" fill="none" stroke="#fafafa" stroke-miterlimit="10" stroke-width="3"/>
      <line x1="1378.18" y1="263.29" x2="1390.27" y2="213.65" fill="none" stroke="#fafafa" stroke-miterlimit="10" stroke-width="3"/>
      <path d="M1398.48,207.56c0,3.71-3.01,6.72-6.72,6.72s-6.72-3.01-6.72-6.72,3.01-6.72,6.72-6.72,6.72,3.01,6.72,6.72Z" fill="#38b459" stroke="#fafafa" stroke-miterlimit="10"/>
      <rect x="1283.25" y="234.46" width="14.27" height="26.48" rx="6.37" ry="6.37" transform="translate(180.57 -455.69) rotate(21.5)" fill="url(#login-dark)"/>
      <path d="M1340.44,554.68v-.05l5.62-64.25c.09-1.02.69-1.93,1.61-2.38,2.72-1.34,9.61-3.07,24.19,1.62,1.71.54,3.01,1.93,3.48,3.66l16.91,61.53,1.15,3.39" fill="none" stroke="#fafafa" stroke-miterlimit="10" stroke-width="3"/>
      <polyline points="1447.69 558.9 1448.21 558.78 1447.56 555.41 1446.27 548.8 1436.66 499.57" fill="none" stroke="#fafafa" stroke-miterlimit="10" stroke-width="3"/>
      <path d="M1287.92,554.81v-.05l.08-2.41,2.81-86.7c.36-68.6,9.34-132.41,9.34-132.41" fill="none" stroke="#fafafa" stroke-miterlimit="10" stroke-width="3"/>
      <path d="M1340.44,554.63v.05c0,5.41-1.39,10.47-3.78,14.78-4.59,8.31-12.95,13.87-22.48,13.87-8.54,0-16.13-4.46-20.92-11.36-3.32-4.77-5.31-10.71-5.34-17.16v-.18c0-.77.02-1.53.08-2.28v-.03" fill="none" stroke="#fafafa" stroke-miterlimit="10" stroke-width="3"/>
      <path d="M1392.45,555.37c.16,1.73,2.8,8.43,3.24,10.18.34,1.36.75,2.66,1.22,3.9,5.14,13.55,17.69,20.02,30.94,16.69,7.51-1.89,14.53-6.79,18.12-13.65h.01c2.09-3.98,3.02-8.62,2.23-13.71.02-1.15-.89-4.76-1-5.94-.16-1.7-.11-.85-.54-2.57-.12-.5-.26-.99-.4-1.47v-.02" fill="none" stroke="#fafafa" stroke-miterlimit="10" stroke-width="3"/>
      <path d="M1460.85,385.68l33.85-19.54c3.12-1.8,7.1-.73,8.89,2.38l36.49,63.2c1.8,3.11.73,7.09-2.38,8.89l-97.8,56.46c-3.11,1.8-7.09.73-8.89-2.38l-36.5-63.2c-1.8-3.12-.73-7.1,2.39-8.89l23.69-13.68" fill="none" stroke="#fafafa" stroke-miterlimit="10" stroke-width="3"/>
      <path d="M1481.7,433.33c0,6.33-5.14,11.46-11.46,11.46-5.45,0-10.02-3.81-11.18-8.91,5.29-1.43,8.24-4.28,8.24-4.28,2.56-3.31,3.94-6.59,4.58-9.61,5.55.8,9.82,5.56,9.82,11.34Z" fill="#38b459" stroke="#fafafa" stroke-miterlimit="10"/>
      <path d="M1405.77,317.42c-7.94,5.05-8.22,6.46-8.22,6.46-10.74,13.36-7.28,36.34-7.28,36.34,1.26,11.55,5.96,15.16,5.96,15.16,7.22,9.03,40.43,56.22,40.43,56.22,9.41,5.74,17.09,5.72,22.4,4.28,5.29-1.43,8.24-4.28,8.24-4.28,2.56-3.31,3.94-6.59,4.58-9.61,1.71-7.96-1.65-14.11-1.65-14.11-12.15-38.53-45.69-73.22-63.75-89.81-.24-.22-.48-.44-.71-.65-6.76-6.17-11.18-9.66-11.18-9.66" fill="none" stroke="#fafafa" stroke-miterlimit="10" stroke-width="2"/>
      <path d="M1377.71,327.24s-15.3,61.98,35.36,71.13" fill="none" stroke="#fafafa" stroke-miterlimit="10" stroke-width="2"/>
      <path d="M1395.22,306.69s29.29-11.32,34.71,12.26c0,0,6.31,23.35,6.95,31.17" fill="none" stroke="#fafafa" stroke-miterlimit="10" stroke-width="2"/>
      <path d="M1293.1,328.64s-18.54,14.25-47.6,6.31c0,0-14.62-3.25-21.66-6.31-6.16-2.68-24.73-5.24-29.06,13.08,0,0-4.51,16.36,10.11,25.9,0,0,29.42,17.48,51.32,19.73.85.09,1.7.18,2.55.32,4.33.7,20.1,2.9,35.56.89" fill="none" stroke="#fafafa" stroke-miterlimit="10" stroke-width="2"/>
      <path d="M1285.88,332.66s-3.54,33.34,9.3,46.88" fill="none" stroke="#fafafa" stroke-miterlimit="10" stroke-width="2"/>
      <path d="M1420.6,408.92s-70.57-36.12-127.75,1.85" fill="none" stroke="#fafafa" stroke-miterlimit="10" stroke-width="2"/>
      <circle cx="1347.25" cy="409.02" r="10.65" fill="#38b459" stroke="#2f3087" stroke-miterlimit="10"/>
    </g>
  </g>
  <g>
    <path d="M805.89,445.3l-55.04-428.22c-1.13-8.91-8.71-15.58-17.68-15.58h-362.97" fill="none" stroke="#fafafa" stroke-miterlimit="10" stroke-width="3"/>
    <line x1="543.71" y1="281.58" x2="543.71" y2="281.57" fill="none" stroke="#141141" stroke-miterlimit="10" stroke-width="3"/>
    <polyline points="759.34 315.19 772.65 414.37 435.2 417.84" fill="none" stroke="#fafafa" stroke-miterlimit="10" stroke-width="3"/>
    <path d="M759.34,315.19l-4.95-36.76-31.21-234.7c-1.03-7.74-7.93-13.54-16.09-13.54h-299.74s-30.58,0-30.58,0h-10.43" fill="none" stroke="#fafafa" stroke-miterlimit="10" stroke-width="3"/>
    <path d="M559.86,448.44l459.7-2.65-.07,7.78c-.21,24.97-20.43,45.13-45.39,45.27l-813.52,4.58c-22.6.13-40.94-18.26-40.75-40.86l.1-11.58,445.95-2.57" fill="none" stroke="#fafafa" stroke-miterlimit="10" stroke-width="3"/>
    <path d="M772.41,447.83v1.13c0,.86-.05,1.71-.16,2.54-1.24,9.85-9.57,17.54-18.84,18.46h-130.11c-10.55-.92-18.6-8.17-19.83-17.48-.11-.82-.17-1.67-.17-2.52v-.31" fill="none" stroke="#fafafa" stroke-miterlimit="10" stroke-width="3"/>
    <g>
      <path d="M370.32,1.5H100.73c-9.05,0-16.15,7.76-15.34,16.78l38.5,431.44" fill="none" stroke="#fafafa" stroke-miterlimit="10" stroke-width="3"/>
      <path d="M366.24,30.07l-234.89,1.23c-8.24,0-14.7,6.75-13.96,14.59l35.04,374.97,286.94-2.96" fill="none" stroke="#fafafa" stroke-miterlimit="10" stroke-width="3"/>
    </g>
    <rect x="387.18" y="8.36" width="51.26" height="14.22" rx="7.11" ry="7.11" transform="translate(825.63 30.95) rotate(-180)" fill="none" stroke="#fafafa" stroke-miterlimit="10" stroke-width="2"/>
    <rect x="360.81" y="8.36" width="18.76" height="14.22" rx="7.11" ry="7.11" transform="translate(740.39 30.95) rotate(180)" fill="none" stroke="#fafafa" stroke-miterlimit="10" stroke-width="2"/>
  </g>
  <path d="M1222.58,620.23c0,9.48-50.46,17.15-112.71,17.15s-112.71-7.67-112.71-17.15c0-5.5,17-10.39,43.43-13.53,3.59,8.79,11.61,14.91,20.93,14.91,10.39,0,19.17-7.61,22-18.06,8.45-.31,17.28-.47,26.35-.47,5.94,0,11.77.07,17.45.21h.28l1.36,5.11h0s.01.02.01.02c.2.45.42.89.65,1.32,5.3,10.88,10.92,11.87,19.16,11.87,10.42,0,19.39-6.71,21.61-15.85,31.38,3.05,52.19,8.39,52.19,14.47Z" fill="#cececd"/>
  <g>
    <path d="M1147.55,402.61c7.24-4.88,13.35-11.31,17.83-18.83,5.78-9.67,8.89-21.12,8.29-33.34-.71-14.62-6.83-27.89-16.36-37.87-2.81-2.96-5.93-5.62-9.3-7.94-8.82-6.09-19.33-9.86-30.66-10.39-13.36-.63-25.8,3.16-35.99,10.05-6.86,4.63-12.7,10.66-17.1,17.69h-.01c-2.19,3.49-4.03,7.22-5.46,11.14-2.31,6.34-3.57,13.18-3.57,20.31,0,6.65,1.1,13.06,3.13,19.03,4.42,13.05,13.26,24.06,24.75,31.24h0" fill="none" stroke="#fafafa" stroke-miterlimit="10" stroke-width="3"/>
    <rect x="1071.7" y="402.61" width="97.78" height="105.78" rx="17.48" ry="17.48" fill="none" stroke="#fafafa" stroke-miterlimit="10" stroke-width="3"/>
    <path d="M1152,402.61h-53.22v23.85c0,8.59,6.96,15.56,15.56,15.56h55.14" fill="none" stroke="#fafafa" stroke-miterlimit="10" stroke-width="2"/>
    <path d="M1169.48,486.46h-67.44c-3.11,0-5.63-2.52-5.63-5.63v-.59c0-3.44,2.79-6.22,6.22-6.22h66.85" fill="none" stroke="#fafafa" stroke-miterlimit="10"/>
    <path d="M1129.33,458.02c0,2.9-2.35,5.26-5.26,5.26-2.9,0-5.26-2.35-5.26-5.26s2.35-5.26,5.26-5.26c2.9,0,5.26,2.35,5.26,5.26Z" fill="#2bb359" stroke="#12578b" stroke-miterlimit="10" stroke-width=".5"/>
    <circle cx="1153.81" cy="307.24" r="6.37" fill="#2bb359" stroke="#fafafa" stroke-miterlimit="10" stroke-width=".75"/>
    <path d="M1146.26,458.02c0,2.9-2.35,5.26-5.26,5.26s-5.26-2.35-5.26-5.26,2.35-5.26,5.26-5.26,5.26,2.35,5.26,5.26Z" fill="#2bb359" stroke="#12578b" stroke-miterlimit="10" stroke-width=".5"/>
    <path d="M1081.36,304.29c7.28,8.15,11.91,18.69,12.67,27.36,1.85,20.88-19.43,41.32-35.68,40.81" fill="none" stroke="#fafafa" stroke-miterlimit="10" stroke-width="2"/>
    <rect x="1113.36" y="341.89" width="26.44" height="29.11" rx="12" ry="12" transform="translate(229.32 -412.43) rotate(23.04)" fill="none" stroke="#fafafa" stroke-miterlimit="10" stroke-width="3"/>
    <line x1="1133.4" y1="343.53" x2="1150.48" y2="312.5" fill="none" stroke="#fafafa" stroke-miterlimit="10" stroke-width="2"/>
    <rect x="1066.97" y="320.3" width="11.23" height="21.1" rx="5.62" ry="5.62" transform="translate(386.58 -557.57) rotate(35.18)" fill="url(#login-dark-2)"/>
    <path d="M1083.11,403.7c-8.11.92-42.95-33.46-53.55-44.14-3.22-3.24-6.79-6.12-10.74-8.43-12.04-7.03-20.46-5.36-26.06-1.46-8.48,5.92-10.91,17.37-6.33,26.63,13.2,26.72,60.94,68.65,60.94,68.65l-8.65,148.24-.17,2.94v.15s-.07,1.11-.07,1.11h.1" fill="none" stroke="#fafafa" stroke-miterlimit="10" stroke-width="3"/>
    <path d="M1129.62,609.74l-.28.09-.37-1.41h-.01v-.02l-1.36-5.11-.63-2.36h0s-.01-.02-.01-.03l-14.58-54.73c-.46-1.73-1.29-3.37-2.46-4.73-3-3.47-6.11-4.19-8.77-3.8-3.96.59-7.02,3.83-7.69,7.78l-9.2,54.64h-.03" fill="none" stroke="#fafafa" stroke-miterlimit="10" stroke-width="3"/>
    <line x1="1167.69" y1="586.8" x2="1153.82" y2="508.39" fill="none" stroke="#fafafa" stroke-miterlimit="10" stroke-width="3"/>
    <path d="M1084.23,600.06c-.16,1.19-.4,2.36-.71,3.49-2.83,10.45-11.61,18.06-22,18.06-9.32,0-17.34-6.12-20.93-14.91-1.18-2.86-1.88-6-2.01-9.3-.02-.37-.03-.74-.03-1.12,0-.08,0-.17.01-.25v-.15c0-.88.06-1.74.15-2.59,0-.03.01-.07.01-.1" fill="none" stroke="#fafafa" stroke-miterlimit="10" stroke-width="3"/>
    <path d="M1167.69,586.8c-.05-.3-.1-.57-.14-.81-.95-5.8,2.4,7.41,3.16,12.51.37,2.53.24,4.97-.32,7.26-2.22,9.14-11.19,15.85-21.61,15.85-8.24,0-13.86-.99-19.16-11.87-.23-.43-.45-.87-.65-1.32h-.01v-.02c-.73-1.61-1.28-3.32-1.64-5.11-.15-.77-.27-1.56-.35-2.36h0" fill="none" stroke="#fafafa" stroke-miterlimit="10" stroke-width="3"/>
    <path d="M1126.96,600.9s.01.01.01.02c0-.01-.01-.01-.01-.02-.05-.14-.1-.27-.15-.38,0,.01-.06-.15-.13-.34-.04-.1-.07-.19-.11-.27-.14-.35-.21-.54-.2-.53,0,0,0-.02,0-.02" fill="none" stroke="#fafafa" stroke-miterlimit="10" stroke-width="3"/>
    <path d="M1047.26,446.75s9.88,22.87,24.44,22.87" fill="none" stroke="#fafafa" stroke-miterlimit="10" stroke-width="2"/>
    <path d="M1045.99,468.51s6.27,15.1,25.71,19.77" fill="none" stroke="#fafafa" stroke-miterlimit="10" stroke-width="2"/>
    <path d="M1168.45,414.16l16.67,22.34c4.57,6.13,3.31,14.82-2.83,19.4l-12.81,9.56" fill="none" stroke="#fafafa" stroke-miterlimit="10" stroke-width="3"/>
    <path d="M1169.48,466.37h-10.63c-2.05,0-3.9-.83-5.25-2.17-1.34-1.35-2.17-3.2-2.17-5.25,0-4.1,3.32-7.43,7.42-7.43h10.63" fill="none" stroke="#fafafa" stroke-miterlimit="10"/>
    <path d="M987.43,355.22l-36.96-23.14-21.45-13.45h-.02l-23.09-14.46-12.87-8.05-17.4-10.9-11.12-6.96c-.47-.29-.98-.43-1.49-.43-1.17,0-2.28.73-2.68,1.94s.08,2.54,1.15,3.23l3.42,2.22,16.21,10.53,18.31,11.89,16.55,10.75,20.53,13.33,47.95,31.14" fill="none" stroke="#fafafa" stroke-miterlimit="10" stroke-width="2"/>
    <polyline points="1169.48 469.21 1200.04 488.35 1193.44 498.57 1169.48 483.01" fill="none" stroke="#fafafa" stroke-miterlimit="10" stroke-width="2"/>
  </g>
  <g>
    <circle cx="228.78" cy="116.9" r="38.88" fill="none" stroke="#fafafa" stroke-miterlimit="10"/>
    <path d="M259.12,115.87c.54,16.11-5.68,29.43-28.19,30.16-23.95.77-31.93-12-32.47-28.11-.54-16.11,13.37-25.62,29.48-26.17,16.11-.54,30.64,8.01,31.18,24.12Z" fill="none" stroke="#fafafa" stroke-miterlimit="10"/>
    <path d="M204.28,147.07s-22.31,19.64-21.15,54.01" fill="none" stroke="#fafafa" stroke-miterlimit="10"/>
    <path d="M257.11,144.08s23.58,18.09,24.74,52.46" fill="none" stroke="#fafafa" stroke-miterlimit="10"/>
    <line x1="204.99" y1="168.12" x2="202.32" y2="199.23" fill="none" stroke="#fafafa" stroke-linecap="round" stroke-miterlimit="10" stroke-width=".75"/>
    <line x1="257.87" y1="166.34" x2="263.28" y2="197.17" fill="none" stroke="#fafafa" stroke-linecap="round" stroke-miterlimit="10" stroke-width=".75"/>
    <path d="M190.53,109.97l-4.61,3.13c-.76.51-1.2,1.38-1.17,2.29l.38,11.34c.03.8.57,1.49,1.34,1.71l5.72,1.62" fill="none" stroke="#fafafa" stroke-miterlimit="10"/>
    <path d="M266.5,107.4l4.82,2.81c.79.46,1.29,1.29,1.32,2.21l.38,11.34c.03.8-.47,1.53-1.22,1.8l-5.6,2" fill="none" stroke="#fafafa" stroke-miterlimit="10"/>
    <line x1="189.73" y1="112.12" x2="189.08" y2="93.07" fill="none" stroke="#fafafa" stroke-linecap="square" stroke-miterlimit="10"/>
    <line x1="267.47" y1="110.62" x2="266.76" y2="89.69" fill="none" stroke="#fafafa" stroke-linecap="square" stroke-miterlimit="10"/>
    <circle cx="188.87" cy="86.66" r="6.38" fill="#23b24f" stroke="#fafafa" stroke-miterlimit="10" stroke-width=".75"/>
    <circle cx="266.57" cy="84.04" r="6.38" fill="#23b24f" stroke="#fafafa" stroke-miterlimit="10" stroke-width=".75"/>
    <rect x="237.22" y="111.5" width="14.1" height="15.69" rx="7.05" ry="7.05" transform="translate(-3.89 8.32) rotate(-1.94)" fill="url(#login-dark-3)"/>
    <rect x="242.77" y="167.05" width="9.59" height="9.85" transform="translate(-5.67 8.46) rotate(-1.94)" fill="#23b24f" stroke="#fafafa" stroke-miterlimit="10" stroke-width=".75"/>
    <circle cx="243.39" cy="115.97" r="2.28" fill="#fff"/>
    <rect x="206.55" y="112.54" width="14.1" height="15.69" rx="7.05" ry="7.05" transform="translate(-3.94 7.28) rotate(-1.94)" fill="url(#login-dark-4)"/>
    <circle cx="212.72" cy="117.01" r="2.28" fill="#fff"/>
    <path d="M301.9,196.8l-135.51,4.26c-2.38.07-4.4-1.69-4.56-4l-10.15-140.27c-.18-2.49,1.84-4.62,4.42-4.64l137-1.06c2.36-.02,4.31,1.75,4.46,4.04l8.66,137.08c.15,2.44-1.8,4.52-4.31,4.6Z" fill="none" stroke="#1b8442" stroke-miterlimit="10" stroke-width="2"/>
  </g>
  <g>
    <circle cx="240.95" cy="285.77" r="38.88" fill="none" stroke="#fafafa" stroke-miterlimit="10"/>
    <path d="M271.28,284.75c.54,16.11-5.68,29.43-28.19,30.16-23.95.77-31.93-12-32.47-28.11-.54-16.11,13.37-25.62,29.48-26.17,16.11-.54,30.64,8.01,31.18,24.12Z" fill="none" stroke="#fafafa" stroke-miterlimit="10"/>
    <path d="M216.44,315.95s-22.31,19.64-21.15,54.01" fill="none" stroke="#fafafa" stroke-miterlimit="10"/>
    <path d="M269.28,312.96s23.58,18.09,24.74,52.46" fill="none" stroke="#fafafa" stroke-miterlimit="10"/>
    <line x1="217.16" y1="337" x2="214.48" y2="368.11" fill="none" stroke="#fafafa" stroke-linecap="round" stroke-miterlimit="10" stroke-width=".75"/>
    <line x1="270.03" y1="335.22" x2="275.44" y2="366.05" fill="none" stroke="#fafafa" stroke-linecap="round" stroke-miterlimit="10" stroke-width=".75"/>
    <path d="M202.7,278.85l-4.61,3.13c-.76.51-1.2,1.38-1.17,2.29l.38,11.34c.03.8.57,1.49,1.34,1.71l5.72,1.62" fill="none" stroke="#fafafa" stroke-miterlimit="10"/>
    <path d="M278.66,276.28l4.82,2.81c.79.46,1.29,1.29,1.32,2.21l.38,11.34c.03.8-.47,1.53-1.22,1.8l-5.6,2" fill="none" stroke="#fafafa" stroke-miterlimit="10"/>
    <line x1="201.89" y1="280.99" x2="201.25" y2="261.94" fill="none" stroke="#fafafa" stroke-linecap="square" stroke-miterlimit="10"/>
    <line x1="279.63" y1="279.5" x2="278.93" y2="258.57" fill="none" stroke="#fafafa" stroke-linecap="square" stroke-miterlimit="10"/>
    <circle cx="201.03" cy="255.54" r="6.38" fill="#23b24f" stroke="#fafafa" stroke-miterlimit="10" stroke-width=".75"/>
    <circle cx="278.74" cy="252.91" r="6.38" fill="#23b24f" stroke="#fafafa" stroke-miterlimit="10" stroke-width=".75"/>
    <rect x="254.94" y="335.93" width="9.59" height="9.85" transform="translate(-11.37 8.97) rotate(-1.94)" fill="none" stroke="#fafafa" stroke-miterlimit="10" stroke-width=".75"/>
    <path d="M314.07,365.68l-135.51,4.26c-2.38.07-4.4-1.69-4.56-4l-10.15-140.27c-.18-2.49,1.84-4.62,4.42-4.64l137-1.06c2.36-.02,4.31,1.75,4.46,4.04l8.66,137.08c.15,2.44-1.8,4.52-4.31,4.6Z" fill="none" stroke="url(#login-dark-5)" stroke-miterlimit="10" stroke-width="2"/>
    <path d="M232.09,291.89c0-.21,0-.43,0-.64-.15-4.59-3.59-8.19-7.67-8.05s-7.28,3.96-7.12,8.55c0,.22.02.43.04.64" fill="none" stroke="#3c59c6" stroke-linecap="round" stroke-miterlimit="10" stroke-width="3"/>
    <path d="M264.17,290.81c0-.21,0-.43,0-.64-.15-4.59-3.59-8.19-7.67-8.05s-7.28,3.96-7.12,8.55c0,.22.02.43.04.64" fill="none" stroke="#3c59c6" stroke-linecap="round" stroke-miterlimit="10" stroke-width="3"/>
    <polygon points="260.11 350.63 258.28 343.5 251.01 342.29 258.15 340.46 259.35 333.2 261.18 340.33 268.45 341.53 261.31 343.37 260.11 350.63" fill="#23b24f" stroke="#fafafa" stroke-miterlimit="10" stroke-width=".75"/>
  </g>
  <g>
    <circle cx="427.1" cy="283.2" r="38.88" fill="none" stroke="#fafafa" stroke-miterlimit="10"/>
    <path d="M457.43,282.18c.54,16.11-5.68,29.43-28.19,30.16-23.95.77-31.93-12-32.47-28.11-.54-16.11,13.37-25.62,29.48-26.17,16.11-.54,30.64,8.01,31.18,24.12Z" fill="none" stroke="#fafafa" stroke-miterlimit="10"/>
    <path d="M402.59,313.38s-22.31,19.64-21.15,54.01" fill="none" stroke="#fafafa" stroke-miterlimit="10"/>
    <path d="M455.43,310.39s23.58,18.09,24.74,52.46" fill="none" stroke="#fafafa" stroke-miterlimit="10"/>
    <line x1="403.3" y1="334.43" x2="400.63" y2="365.53" fill="none" stroke="#fafafa" stroke-linecap="round" stroke-miterlimit="10" stroke-width=".75"/>
    <line x1="456.18" y1="332.64" x2="461.59" y2="363.47" fill="none" stroke="#fafafa" stroke-linecap="round" stroke-miterlimit="10" stroke-width=".75"/>
    <path d="M388.84,276.27l-4.61,3.13c-.76.51-1.2,1.38-1.17,2.29l.38,11.34c.03.8.57,1.49,1.34,1.71l5.72,1.62" fill="none" stroke="#fafafa" stroke-miterlimit="10"/>
    <path d="M464.81,273.71l4.82,2.81c.79.46,1.29,1.29,1.32,2.21l.38,11.34c.03.8-.47,1.53-1.22,1.8l-5.6,2" fill="none" stroke="#fafafa" stroke-miterlimit="10"/>
    <line x1="388.04" y1="278.42" x2="387.4" y2="259.37" fill="none" stroke="#fafafa" stroke-linecap="square" stroke-miterlimit="10"/>
    <line x1="465.78" y1="276.92" x2="465.08" y2="255.99" fill="none" stroke="#fafafa" stroke-linecap="square" stroke-miterlimit="10"/>
    <circle cx="387.18" cy="252.97" r="6.38" fill="#2c3189" stroke="#fafafa" stroke-miterlimit="10" stroke-width=".75"/>
    <circle cx="464.88" cy="250.34" r="6.38" fill="#23b24f" stroke="#fafafa" stroke-miterlimit="10" stroke-width=".75"/>
    <rect x="440.96" y="333.49" width="9.85" height="9.59" transform="translate(-26.97 38.86) rotate(-4.84)" fill="#3e499d" stroke="#fafafa" stroke-miterlimit="10" stroke-width=".75"/>
    <path d="M500.09,361.13l-135.51,4.31c-2.38.08-4.39-1.66-4.56-3.95l-10.04-138.46c-.18-2.46,1.85-4.56,4.42-4.58l137-1.16c2.36-.02,4.31,1.73,4.45,3.99l8.55,135.31c.15,2.4-1.8,4.46-4.31,4.54Z" fill="none" stroke="#3bbc66" stroke-miterlimit="10" stroke-width="2"/>
  </g>
  <path d="M489.77,194.05l-143.51,3.07c-1.2.03-2.21-.9-2.29-2.11l-8.61-141.55c-.08-1.29.95-2.38,2.24-2.38h143.07c1.18,0,2.16.92,2.24,2.1l9.05,138.48c.08,1.28-.91,2.36-2.19,2.39Z" fill="none" stroke="#5c8eff" stroke-miterlimit="10" stroke-width="2"/>
  <g>
    <circle cx="603.14" cy="115.41" r="38.88" fill="none" stroke="#fafafa" stroke-miterlimit="10"/>
    <path d="M633.47,114.38c.54,16.11-5.68,29.43-28.19,30.16-23.95.77-31.93-12-32.47-28.11s13.37-25.62,29.48-26.17c16.11-.54,30.64,8.01,31.18,24.12Z" fill="none" stroke="#fafafa" stroke-miterlimit="10"/>
    <path d="M578.63,145.59s-20.72,18.25-21.17,50.34" fill="none" stroke="#fafafa" stroke-miterlimit="10"/>
    <path d="M631.47,142.6s22.52,17.27,24.62,50.13" fill="none" stroke="#fafafa" stroke-miterlimit="10"/>
    <line x1="579.34" y1="166.64" x2="576.88" y2="195.3" fill="none" stroke="#fafafa" stroke-linecap="round" stroke-miterlimit="10" stroke-width=".75"/>
    <line x1="637.22" y1="193.34" x2="632.22" y2="164.85" fill="none" stroke="#fafafa" stroke-linecap="round" stroke-miterlimit="10" stroke-width=".75"/>
    <path d="M564.88,108.48l-4.61,3.13c-.76.51-1.2,1.38-1.17,2.29l.38,11.34c.03.8.57,1.49,1.34,1.71l5.72,1.62" fill="none" stroke="#fafafa" stroke-miterlimit="10"/>
    <path d="M640.85,105.92l4.82,2.81c.79.46,1.29,1.29,1.32,2.21l.38,11.34c.03.8-.47,1.53-1.22,1.8l-5.6,2" fill="none" stroke="#fafafa" stroke-miterlimit="10"/>
    <line x1="641.82" y1="109.13" x2="641.35" y2="95.09" fill="none" stroke="#fafafa" stroke-linecap="square" stroke-miterlimit="10"/>
    <circle cx="641.35" cy="88.72" r="6.38" fill="#23b24f" stroke="#fafafa" stroke-miterlimit="10" stroke-width=".75"/>
    <line x1="562.14" y1="110.27" x2="561.66" y2="96.23" fill="none" stroke="#fafafa" stroke-linecap="square" stroke-miterlimit="10"/>
    <circle cx="561.66" cy="89.85" r="6.38" fill="#23b24f" stroke="#fafafa" stroke-miterlimit="10" stroke-width=".75"/>
    <path d="M671.57,192.23l-135.5,4.4c-2.38.08-4.39-1.62-4.55-3.85l-9.85-135.38c-.17-2.4,1.85-4.46,4.42-4.49l136.99-1.32c2.36-.02,4.31,1.68,4.45,3.89l8.36,132.31c.15,2.35-1.81,4.37-4.32,4.45Z" fill="none" stroke="#3bbc66" stroke-miterlimit="10" stroke-width="2"/>
    <path d="M594.28,121.53c0-.21,0-.43,0-.64-.15-4.59-3.59-8.19-7.67-8.05s-7.28,3.96-7.12,8.55c0,.22.02.43.04.64" fill="none" stroke="#3c59c6" stroke-linecap="round" stroke-miterlimit="10" stroke-width="3"/>
    <path d="M626.36,120.44c0-.21,0-.43,0-.64-.15-4.59-3.59-8.19-7.67-8.05s-7.28,3.96-7.12,8.55c0,.22.02.43.04.64" fill="none" stroke="#3c59c6" stroke-linecap="round" stroke-miterlimit="10" stroke-width="3"/>
    <polygon points="628.65 172.28 623.05 176.08 616.96 173.12 616.47 166.38 622.08 162.58 628.16 165.54 628.65 172.28" fill="#23b24f" stroke="#fafafa" stroke-miterlimit="10" stroke-width=".75"/>
  </g>
  <g>
    <circle cx="618.8" cy="279.54" r="38.88" fill="none" stroke="#fafafa" stroke-miterlimit="10"/>
    <path d="M649.13,278.52c.54,16.11-5.68,29.43-28.19,30.16-23.95.77-31.93-12-32.47-28.11-.54-16.11,13.37-25.62,29.48-26.17,16.11-.54,30.64,8.01,31.18,24.12Z" fill="none" stroke="#fafafa" stroke-miterlimit="10"/>
    <path d="M594.29,309.72s-20.17,17.77-21.14,49.07" fill="none" stroke="#fafafa" stroke-miterlimit="10"/>
    <path d="M647.13,306.73s21.94,16.83,24.53,48.88" fill="none" stroke="#fafafa" stroke-miterlimit="10"/>
    <line x1="595" y1="330.77" x2="592.65" y2="358.16" fill="none" stroke="#fafafa" stroke-linecap="round" stroke-miterlimit="10" stroke-width=".75"/>
    <line x1="652.66" y1="356.22" x2="647.88" y2="328.99" fill="none" stroke="#fafafa" stroke-linecap="round" stroke-miterlimit="10" stroke-width=".75"/>
    <path d="M580.54,272.62l-4.61,3.13c-.76.51-1.2,1.38-1.17,2.29l.38,11.34c.03.8.57,1.49,1.34,1.71l5.72,1.62" fill="none" stroke="#fafafa" stroke-miterlimit="10"/>
    <path d="M656.51,270.05l4.82,2.81c.79.46,1.29,1.29,1.32,2.21l.38,11.34c.03.8-.47,1.53-1.22,1.8l-5.6,2" fill="none" stroke="#fafafa" stroke-miterlimit="10"/>
    <line x1="579.74" y1="274.76" x2="579.1" y2="255.71" fill="none" stroke="#fafafa" stroke-linecap="square" stroke-miterlimit="10"/>
    <line x1="657.48" y1="273.27" x2="656.78" y2="252.34" fill="none" stroke="#fafafa" stroke-linecap="square" stroke-miterlimit="10"/>
    <circle cx="578.88" cy="249.31" r="6.38" fill="#2c3189" stroke="#fafafa" stroke-miterlimit="10" stroke-width=".75"/>
    <circle cx="656.59" cy="246.68" r="6.38" fill="#2c3189" stroke="#fafafa" stroke-miterlimit="10" stroke-width=".75"/>
    <rect x="632.78" y="329.7" width="9.59" height="9.85" transform="translate(-10.94 21.73) rotate(-1.94)" fill="none" stroke="#fafafa" stroke-miterlimit="10" stroke-width=".75"/>
    <path d="M691.64,354.96l-135.5,4.37c-2.38.08-4.39-1.63-4.56-3.88l-9.9-136.16c-.18-2.42,1.85-4.49,4.42-4.51l136.99-1.28c2.36-.02,4.31,1.7,4.45,3.91l8.41,133.06c.15,2.36-1.81,4.39-4.32,4.47Z" fill="none" stroke="#5c8eff" stroke-miterlimit="10" stroke-width="2"/>
    <polygon points="637.96 344.4 636.13 337.27 628.86 336.06 636 334.23 637.2 326.97 639.03 334.1 646.3 335.3 639.16 337.14 637.96 344.4" fill="#23b24f" stroke="#fafafa" stroke-miterlimit="10" stroke-width=".75"/>
    <rect x="627.96" y="270.05" width="13.05" height="16.69" rx="5.63" ry="5.63" transform="translate(-9.04 21.59) rotate(-1.94)" fill="#23b24f"/>
    <rect x="597.4" y="271.2" width="13.05" height="16.69" rx="5.63" ry="5.63" transform="translate(-9.1 20.56) rotate(-1.94)" fill="#23b24f"/>
    <circle cx="602.11" cy="276.92" r="3.33" fill="#fff"/>
    <circle cx="632.22" cy="275.81" r="3.33" fill="#fff"/>
  </g>
  <path d="M449.57,284.7c0-.21-.01-.43-.03-.64-.39-4.57-4-7.99-8.07-7.65-4.08.35-7.07,4.33-6.68,8.9.02.22.04.43.08.64" fill="none" stroke="#3c59c6" stroke-linecap="round" stroke-miterlimit="10" stroke-width="3"/>
  <path d="M419.1,286.37c0-.21-.01-.43-.03-.64-.39-4.57-4-7.99-8.07-7.65s-7.07,4.33-6.68,8.9c.02.22.04.43.08.64" fill="none" stroke="#3c59c6" stroke-linecap="round" stroke-miterlimit="10" stroke-width="3"/>
  <g>
    <g>
      <g>
        <path d="M454.49,196.43s0,.04,0,.06v-.06s0,0,0,0Z" fill="#f7ada3"/>
        <polygon points="445.94 162.15 444.09 158.05 439.91 156.83 443.82 154.92 444.96 150.57 446.82 154.67 451 155.89 447.08 157.8 445.94 162.15" fill="url(#login-dark-6)" stroke="#fafafa" stroke-miterlimit="10"/>
      </g>
      <g>
        <line x1="392.35" y1="76.44" x2="392.35" y2="76.44" fill="none" stroke="#221f1f" stroke-miterlimit="10"/>
        <path d="M391.91,121.47c1.61,2.21,3.44,4.24,5.47,6.05.18.17.37.33.56.49.84.72,1.7,1.4,2.6,2.04,7.06,5.06,15.9,7.73,25.24,6.94,6.48-.55,12.44-2.7,17.53-6.03,2.07-1.35,3.99-2.9,5.74-4.62" fill="none" stroke="#fafafa" stroke-miterlimit="10"/>
        <path d="M455.09,118.67s0,0,0,0c-1.27,2.12-2.74,4.11-4.4,5.95-.53.59-1.07,1.15-1.64,1.7" fill="none" stroke="#fafafa" stroke-miterlimit="10"/>
        <path d="M448.38,87.47s0,0,0,.02" fill="none" stroke="#221f1f" stroke-miterlimit="10"/>
        <line x1="385.34" y1="92.33" x2="385.34" y2="92.33" fill="none" stroke="#221f1f" stroke-miterlimit="10"/>
        <path d="M463,88.47l1.62.76c.44.2.73.63.75,1.12l.65,12.87c.03.67-.4,1.27-1.04,1.46l-1.45.42-.37.11" fill="none" stroke="#fafafa" stroke-miterlimit="10"/>
        <line x1="459.82" y1="106.16" x2="459.81" y2="106.16" fill="none" stroke="#221f1f" stroke-miterlimit="10"/>
        <path d="M449.05,126.33h0c.02.29.97,11.44,2.09,25.3,1.01,12.46,2.16,27.1,2.91,37.99.17,2.49.32,4.78.45,6.81,0,.02,0,.04,0,.06" fill="none" stroke="#fafafa" stroke-miterlimit="10"/>
        <path d="M397.39,127.52s0,0-.01,0c-3.29-.38-6.34-.93-9.15-1.61-15.29-3.66-22.45-11.16-26.89-14.22-1.67-1.15-8.54-7.44-10.11-8.72h0c-.9-.73-2.18-.79-3.11-.1-3.33,2.46-13.55,10.84,3.33,29.76.71.79,1.7,1.9,2.47,2.99,2.49,3.51,10.94,16.71,36.93,21.72l-7.51,38.26" fill="none" stroke="#fafafa" stroke-miterlimit="10"/>
        <polyline points="448.85 156.93 449.06 159.4 446.61 159.61" fill="none" stroke="#fafafa" stroke-miterlimit="10" stroke-width=".75"/>
        <polyline points="442.05 155.79 441.84 153.32 444.3 153.11" fill="none" stroke="#fafafa" stroke-miterlimit="10" stroke-width=".75"/>
        <polyline points="446.04 152.96 448.5 152.75 448.71 155.22" fill="none" stroke="#fafafa" stroke-miterlimit="10" stroke-width=".75"/>
        <polyline points="442.2 157.5 442.41 159.97 444.86 159.76" fill="none" stroke="#fafafa" stroke-miterlimit="10" stroke-width=".75"/>
        <path d="M388.18,125.8s.02.04.05.11c.67,1.52,8.37,19.37,2.63,31.43,0,0,11.12-2.26,9.86-17.56-.27-3.29-1.12-7.18-2.77-11.77,0,0,12.63,23.89,27.71,29.17,0,0,14.49-8.73,17.5-25.93" fill="none" stroke="#fafafa" stroke-miterlimit="10"/>
        <path d="M450.69,124.63s18.44,13.64,14.83,55.76c-.28,3.27-1.98,6.33-4.77,8.07-1.75,1.09-3.99,1.78-6.7,1.16" fill="none" stroke="#fafafa" stroke-miterlimit="10"/>
        <path d="M413.79,105.42c0-.23,0-.46-.03-.69-.3-3.55-2.96-6.23-5.93-5.97s-5.14,3.33-4.84,6.89c.02.23.05.46.09.69" fill="none" stroke="#3c59c6" stroke-linecap="round" stroke-miterlimit="10" stroke-width="4"/>
        <path d="M443.11,102.93c0-.23,0-.46-.03-.69-.3-3.55-2.96-6.23-5.93-5.97s-5.14,3.33-4.84,6.89c.02.23.05.46.09.69" fill="none" stroke="#3c59c6" stroke-linecap="round" stroke-miterlimit="10" stroke-width="4"/>
        <path d="M400.7,139.77h0" fill="none" stroke="#221f1f" stroke-miterlimit="10"/>
      </g>
    </g>
    <path d="M382,93.64c-1.12,35.75,19.85,28.44,19.85,28.44,0,0,.95,1.45-7.35-4.67-7.69-5.67-6.8-21.35-6.62-23.63,0-.02.02-.01.02,0,.06,12.59,8.07,15.32,10.19,15.83.19.05.34-.17.24-.34-10.66-17.45,5.05-31.32,6.29-32.37.03-.02.07,0,.06.04-3.34,19.53,5.95,16.69,5.95,16.69-1.53-10.76,5.32-18.79,6.97-20.54.12-.13.34-.04.34.14-.02,2.67.26,15.43,7.53,19.52.19.11.42-.07.35-.28-.73-2.19-3.13-10.19-1.09-14.3,0-.01.03-.01.03,0,.13.88,2.12,13.98,7.84,17.09.13.07.28-.05.24-.19-.5-1.47-2.26-6.95-2.17-11.35,0-.01.02-.01.02,0,.24.72,2.69,7.66,9.7,11.45,2.76,1.49,5.93,2.08,9.06,1.81h0c.34-.03.55-.4.39-.71-1.03-1.95-3.99-8.01-4.5-13.99,0-.08.1-.13.15-.06,1.48,1.78,8.16,14.54,7.58,23.84-.52,8.41-3.37,13.23-5.5,14.43-.17.1-.1.35.1.35,3.49-.1,18.12-1.98,15.7-26.78,0,0,.15-14.6-6.34-25.53-.39-.66-.77-1.32-1.15-1.99-1.72-3.06-9.24-13.67-30.23-12.13,0,0-33.75-3.11-44.54,25.84-3.23,8.65-7.15,20.8-5.87,35.28l.49,6.07" fill="none" stroke="#fafafa" stroke-miterlimit="10" stroke-width="1.25"/>
    <path d="M378.34,153.93l.15,1.85s1.03,7.16-7.9,5.9c0,0-.93,10.75,8.16,10.89,4.68.07,6.88-3.49,7.9-6.96.49-3.68.9-6.45.9-6.45,0,0,.07,3.18-.9,6.45-.74,5.56-1.69,13.23-1.74,16.68-.08,5.73-.03,5.46-.03,5.46" fill="none" stroke="#fafafa" stroke-miterlimit="10" stroke-width="1.25"/>
    <path d="M463.4,103.43s3.01,41.44,14.69,50.16c0,0-7.47,9.75-12.05-2.63,0,0,8.74,14.91-.2,26.44" fill="none" stroke="#fafafa" stroke-miterlimit="10" stroke-width="1.25"/>
    <path d="M443.3,130.95s.88,16.74,7.83,20.68" fill="none" stroke="#fafafa" stroke-miterlimit="10"/>
    <path d="M429.65,162.93c.22,1.65-.93,3.17-2.57,3.39s-3.15-.95-3.36-2.6.59-6.34,2.23-6.56,3.49,4.12,3.71,5.78Z" fill="url(#login-dark-7)" stroke="#fafafa" stroke-miterlimit="10"/>
    <circle cx="425.67" cy="164.49" r=".62" fill="#fff"/>
    <path d="M411.91,117.39c-.25.02-.44.25-.41.5.82,6.78,6.76,11.75,13.5,11.18s11.77-6.47,11.43-13.29c-.01-.26-.24-.45-.49-.43l-24.03,2.04Z" fill="none" stroke="#fafafa" stroke-miterlimit="10"/>
    <path d="M419.31,299.08c-.19.02-.34.19-.32.39.63,5.22,5.21,9.05,10.4,8.61s9.07-4.99,8.81-10.24c0-.2-.18-.35-.38-.33l-18.52,1.57Z" fill="none" stroke="#fafafa" stroke-miterlimit="10"/>
  </g>
</svg>