<svg width="100%" height="100%" viewBox="0 0 57 56" fill="#000" xmlns="http://www.w3.org/2000/svg">
    <g id="logo-blue-01 1" clip-path="url(#clip0_14717_214693)">
        <path id="Vector"
            d="M28.5 55.4401C43.964 55.4401 56.5 43.1548 56.5 28.0001C56.5 12.8454 43.964 0.560059 28.5 0.560059C13.036 0.560059 0.5 12.8454 0.5 28.0001C0.5 43.1548 13.036 55.4401 28.5 55.4401Z"
            fill="inherit" />
        <path id="Vector_2"
            d="M13.5003 36.1021C17.2154 36.1021 20.2272 33.1506 20.2272 29.5098C20.2272 25.869 17.2154 22.9175 13.5003 22.9175C9.78515 22.9175 6.77344 25.869 6.77344 29.5098C6.77344 33.1506 9.78515 36.1021 13.5003 36.1021Z"
            fill="#F2F2F2" />
        <path id="Vector_3"
            d="M28.5003 36.1021C32.2154 36.1021 35.2271 33.1506 35.2271 29.5098C35.2271 25.869 32.2154 22.9175 28.5003 22.9175C24.7852 22.9175 21.7734 25.869 21.7734 29.5098C21.7734 33.1506 24.7852 36.1021 28.5003 36.1021Z"
            fill="#F2F2F2" />
        <path id="Vector_4"
            d="M43.5003 36.1021C47.2154 36.1021 50.2271 33.1506 50.2271 29.5098C50.2271 25.869 47.2154 22.9175 43.5003 22.9175C39.7852 22.9175 36.7734 25.869 36.7734 29.5098C36.7734 33.1506 39.7852 36.1021 43.5003 36.1021Z"
            fill="#F2F2F2" />
    </g>
    <defs>
        <clipPath id="clip0_14717_214693">
            <rect width="56" height="56" fill="white" transform="translate(0.5)" />
        </clipPath>
    </defs>
</svg>