<svg width="100%" height="100%" viewBox="0 0 40 40" fill="none" xmlns="http://www.w3.org/2000/svg">
  <g clip-path="url(#clip0_14466_73314)">
    <path
      d="M20 39.5999C31.0457 39.5999 40 30.8247 40 19.9999C40 9.17512 31.0457 0.399902 20 0.399902C8.95431 0.399902 0 9.17512 0 19.9999C0 30.8247 8.95431 39.5999 20 39.5999Z"
      fill="#437DFA" />
    <path
      d="M9.28585 25.7872C11.9395 25.7872 14.0908 23.679 14.0908 21.0784C14.0908 18.4778 11.9395 16.3696 9.28585 16.3696C6.63218 16.3696 4.48096 18.4778 4.48096 21.0784C4.48096 23.679 6.63218 25.7872 9.28585 25.7872Z"
      fill="#F2F2F2" />
    <path
      d="M20 25.7872C22.6536 25.7872 24.8049 23.679 24.8049 21.0784C24.8049 18.4778 22.6536 16.3696 20 16.3696C17.3463 16.3696 15.1951 18.4778 15.1951 21.0784C15.1951 23.679 17.3463 25.7872 20 25.7872Z"
      fill="#F2F2F2" />
    <path
      d="M30.7143 25.7872C33.368 25.7872 35.5192 23.679 35.5192 21.0784C35.5192 18.4778 33.368 16.3696 30.7143 16.3696C28.0606 16.3696 25.9094 18.4778 25.9094 21.0784C25.9094 23.679 28.0606 25.7872 30.7143 25.7872Z"
      fill="#F2F2F2" />
  </g>
  <defs>
    <clipPath id="clip0_14466_73314">
      <rect width="40" height="40" fill="white" />
    </clipPath>
  </defs>
</svg>