<?xml version="1.0" encoding="UTF-8"?>
<svg id="Layer_1" xmlns="http://www.w3.org/2000/svg" xmlns:xlink="http://www.w3.org/1999/xlink"
  viewBox="0 0 235 235.63">
  <defs>
    <linearGradient id="linear-gradient" x1="115.84" y1="150.86" x2="117.34" y2="41.01" gradientUnits="userSpaceOnUse">
      <stop offset="0" stop-color="#2bb673" />
      <stop offset=".06" stop-color="#25a676" />
      <stop offset=".29" stop-color="#136d81" />
      <stop offset=".46" stop-color="#074a88" />
      <stop offset=".55" stop-color="#033d8b" />
      <stop offset=".68" stop-color="#05377c" />
      <stop offset=".85" stop-color="#08316e" />
      <stop offset="1" stop-color="#093069" />
    </linearGradient>
  </defs>
  <path
    d="M235,117.82c0,34.43-14.73,65.41-38.22,86.96-10.18,9.34-22.01,16.91-35.01,22.21-12.53,5.11-26.15,8.13-40.4,8.58-1.29.04-2.58.07-3.88.07h-.51c-16.32-.07-31.86-3.48-45.97-9.57-12.57-5.43-24.01-13.01-33.86-22.27C14.29,182.3,0,151.73,0,117.82,0,52.75,52.61,0,117.5,0s117.5,52.75,117.5,117.82Z"
    fill="#093069" />
  <path
    d="M196.12,204.41c-10.1,9.3-21.83,16.84-34.72,22.12-12.43,5.09-25.93,8.09-40.06,8.55-1.28.04-2.56.07-3.85.07h-.51c-16.18-.07-31.59-3.46-45.58-9.53-12.43-5.4-23.75-12.92-33.5-22.1-.05-.04-.06-.11-.04-.17l7.16-17.9,30.61-20.8,2.71-1.83-.9-.77,87.82.77,17.75,15.21,7.06,19.38,6.05,7.02Z"
    fill="#fff" />
  <line x1="71.41" y1="225.61" x2="71.41" y2="181.54" fill="none" stroke="#231f20" stroke-linecap="round"
    stroke-miterlimit="10" />
  <line x1="161.4" y1="226.53" x2="161.4" y2="181.54" fill="none" stroke="#231f20" stroke-linecap="round"
    stroke-miterlimit="10" />
  <g>
    <g>
      <path
        d="M193.65,169.36l2.48,35.05-37.11-34.3c-.85-.8-1.96-1.25-3.13-1.25h-77.9c-1.03,0-2.01.38-2.77,1.08l-37.03,33.87,1.36-33.37c.24-5.7,4.88-10.2,10.58-10.28l34.18-.4c10.1,2.88,21.59,2.34,33.03,1.88,16.86-.68,30.89.37,35.01-1.45.86-.38,1.72-.81,2.56-1.26l27.54-.33c6.04-.07,11.03,4.71,11.2,10.75Z"
        fill="#d9ebff" />
      <path
        d="M186.43,93.74v24.18c0,2.26-1.4,4.34-3.67,5.44l-5.96,2.89-.3-.07c1.06-5.04,1.65-10.66,1.69-16.92.07-10.98-1.96-21.14-5.73-30.04l.27-.12,10.93,9.04c1.77,1.46,2.77,3.49,2.77,5.61Z"
        fill="#d1d6db" />
      <path
        d="M172.46,79.22c3.76,8.9,5.79,19.05,5.73,30.04-.04,6.27-.63,11.88-1.69,16.92-1.29,6.18-3.28,11.5-5.8,16.15-4.24,7.81-9.71,13.27-15.79,16.61-.84.46-1.69.88-2.56,1.26-4.12,1.82-18.15.77-35.01,1.45-11.45.46-22.94,1-33.03-1.88-5.45-1.56-10.5-4.12-14.92-8.21-6.82-6.34-10.5-15.08-12.32-25.31-.91-5.08-1.37-10.54-1.53-16.26-.33-11.64,1.74-21.99,5.61-30.88,10.1-23.22,32.45-36.48,56.19-36.48,25.51,0,45.72,14.4,55.12,36.6ZM162.61,136.45c3.24-2.5,11.77-10.2,7.61-43.1-2.62-20.74-25.64-37.83-55.23-37.83s-46.96,17.94-51.52,36.17c-3.45,13.76-2.91,33.34,5.52,44.03,4.94,6.26,13.03,4.56,16.48,4.16,21.79-2.53,19.56-4.03,32.02-3.8,8.61.15,10.59-.55,28.45,2.89,7.81,1.51,10.78,2,16.66-2.53Z"
        fill="#fff" />
      <path
        d="M170.22,93.35c4.16,32.9-4.37,40.6-7.61,43.1-5.88,4.54-8.84,4.04-16.66,2.53-17.87-3.44-19.84-2.75-28.45-2.89-12.47-.23-10.23,1.26-32.02,3.8-3.45.4-11.54,2.09-16.48-4.16-8.43-10.68-8.97-30.26-5.52-44.03,4.56-18.24,22.36-36.17,51.52-36.17s52.61,17.09,55.23,37.83Z"
        fill="url(#linear-gradient)" />
      <path
        d="M61.14,79.1h0c-3.88,8.89-5.95,19.25-5.61,30.88.16,5.72.62,11.18,1.53,16.26l-5.96-2.89c-2.27-1.1-3.67-3.18-3.67-5.44v-24.18c0-2.12,1-4.15,2.77-5.61l10.93-9.04Z"
        fill="#d1d6db" />
    </g>
    <g>
      <path
        d="M172.46,79.22c3.76,8.9,5.79,19.05,5.73,30.04-.04,6.27-.63,11.88-1.69,16.92-1.29,6.18-3.28,11.5-5.8,16.15-4.24,7.81-9.71,13.27-15.79,16.61-.84.46-1.69.88-2.56,1.26-4.12,1.82-18.15.77-35.01,1.45-11.45.46-22.94,1-33.03-1.88-5.45-1.56-10.5-4.12-14.92-8.21-6.82-6.34-10.5-15.08-12.32-25.31-.91-5.08-1.37-10.54-1.53-16.26-.33-11.64,1.74-21.99,5.61-30.88,10.1-23.22,32.45-36.48,56.19-36.48,25.51,0,45.72,14.4,55.12,36.6Z"
        fill="none" stroke="#231f20" stroke-miterlimit="10" />
      <path d="M61.14,79.1l-10.93,9.04c-1.77,1.46-2.77,3.49-2.77,5.61v24.18c0,2.26,1.4,4.34,3.67,5.44l5.96,2.89"
        fill="none" stroke="#231f20" stroke-miterlimit="10" />
      <path d="M172.73,79.1l10.93,9.04c1.77,1.46,2.77,3.49,2.77,5.61v24.18c0,2.26-1.4,4.34-3.67,5.44l-5.96,2.89"
        fill="none" stroke="#231f20" stroke-miterlimit="10" />
      <path
        d="M154.91,158.94l27.54-.33c6.04-.07,11.03,4.71,11.2,10.75l2.48,35.05-37.11-34.3c-.85-.8-1.96-1.25-3.13-1.25h-77.9c-1.03,0-2.01.38-2.77,1.08l-37.03,33.87,1.36-33.37c.24-5.7,4.88-10.2,10.58-10.28l34.18-.4"
        fill="none" stroke="#231f20" stroke-miterlimit="10" stroke-width=".75" />
    </g>
  </g>
  <path
    d="M141.53,216.89l-17.24,6.01c-.12.05-.21.14-.24.26l-3.51,11.91c-1.28.04-2.56.07-3.85.07h-.51l-4.07-11.69c-.04-.12-.14-.21-.26-.24l-17.51-5.17c-.37-.11-.38-.62-.02-.75l17.25-6.01c.11-.04.21-.14.24-.26l5.17-17.51c.11-.37.63-.38.75-.02l6.01,17.25c.05.11.14.21.26.24l17.52,5.17c.37.11.38.63.02.75Z"
    fill="#2bb673" />
</svg>