<?xml version="1.0" encoding="UTF-8"?>
<svg id="Layer_1"
  xmlns="http://www.w3.org/2000/svg"
  xmlns:xlink="http://www.w3.org/1999/xlink" viewBox="0 0 286.99 288.96">
  <defs>
    <linearGradient id="logo" x1="139.25" y1="293" x2="147.42" y2="7.14" gradientUnits="userSpaceOnUse">
      <stop offset="0" stop-color="#2bb673" />
      <stop offset=".06" stop-color="#25a676" />
      <stop offset=".29" stop-color="#136d81" />
      <stop offset=".46" stop-color="#074a88" />
      <stop offset=".55" stop-color="#033d8b" />
      <stop offset=".68" stop-color="#05377c" />
      <stop offset=".85" stop-color="#08316e" />
      <stop offset="1" stop-color="#093069" />
    </linearGradient>
    <linearGradient id="logo-2" x1="145.48" y1="288.94" x2="141.51" y2=".01" gradientUnits="userSpaceOnUse">
      <stop offset=".24" stop-color="#2bb673" />
      <stop offset=".43" stop-color="#187e7d" />
      <stop offset=".65" stop-color="#064589" />
      <stop offset="1" stop-color="#033d8b" />
    </linearGradient>
    <linearGradient id="logo-3" x1="141.91" y1="185.04" x2="143.75" y2="50.22" xlink:href="#logo" />
    <linearGradient id="logo-4" x1="144.81" y1="291.36" x2="144" y2="232.77" xlink:href="#logo" />
  </defs>
  <path d="M261.41,63.02c-.71-.83-1.35-1.71-1.86-2.65-7.95-11.1-17.41-21.01-28.11-29.42-.62-.33-1.18-.74-1.67-1.29-7.13-5.44-14.79-10.22-22.87-14.26-.05,0-.08-.01-.09-.01-.14-.06-.28-.12-.42-.18-.06-.04-.12-.08-.18-.14-.03-.02-.04-.03-.05-.04C187.24,5.73,165.97.5,143.49.5c-11.59,0-22.85,1.4-33.63,4.02-.54.24-1.12.38-1.73.43-14.9,3.82-28.85,9.99-41.47,18.1,0,0-.01,0-.02.01C26.87,48.63.5,93.45.5,144.48c0,41.44,17.39,78.8,45.22,105.07,11.99,11.31,25.91,20.57,41.21,27.21,17.17,7.45,36.08,11.61,55.94,11.7h.62c1.58,0,3.15-.03,4.72-.08,17.34-.56,33.91-4.24,49.16-10.49,15.82-6.48,30.22-15.73,42.61-27.14,28.58-26.33,46.51-64.19,46.51-106.27,0-30.24-9.26-58.29-25.08-81.46Z" fill="url(#logo)" stroke="url(#logo-2)" stroke-miterlimit="10" />
  <path d="M240.44,250.75c-12.39,11.41-26.79,20.66-42.61,27.14-15.25,6.25-31.82,9.93-49.16,10.49-1.57.05-3.14.08-4.72.08h-.62c-19.86-.09-38.77-4.25-55.94-11.7-15.26-6.62-29.15-15.85-41.11-27.12-.06-.05-.08-.14-.05-.21l8.79-21.97,37.57-25.53,3.32-2.25-1.11-.95,107.77.95,21.78,18.67,8.67,23.78,7.42,8.62Z" fill="#fff" />
  <line x1="87.39" y1="276.76" x2="87.39" y2="222.68" fill="none" stroke="#000b38" stroke-linecap="round" stroke-miterlimit="10" />
  <line x1="197.83" y1="277.89" x2="197.83" y2="222.68" fill="none" stroke="#000b38" stroke-linecap="round" stroke-miterlimit="10" />
  <g>
    <g>
      <path d="M237.41,207.75l3.03,43-45.54-42.09c-1.04-.98-2.41-1.53-3.84-1.53h-95.6c-1.26,0-2.47.47-3.4,1.32l-45.44,41.57,1.67-40.95c.29-6.98,5.99-12.52,12.98-12.6l41.95-.5c12.39,3.54,26.49,2.88,40.54,2.31,20.7-.84,37.91.45,42.96-1.78,1.06-.47,2.11-.99,3.14-1.55l33.8-.4c7.42-.08,13.53,5.79,13.75,13.2Z" fill="#d9ebff" />
      <path d="M228.54,114.95v29.67c0,2.76-1.72,5.31-4.5,6.66l-7.31,3.55-.36-.08c1.29-6.19,2.01-13.07,2.06-20.77.08-13.48-2.41-25.94-7.03-36.86l.33-.14,13.41,11.08c2.17,1.8,3.4,4.28,3.4,6.89Z" fill="#d1d6db" />
      <path d="M143.96,166.91c-15.31-.27-12.57,1.55-39.31,4.67-4.23.49-14.16,2.57-20.22-5.12-10.35-13.11-11-37.14-6.78-54.03,5.59-22.37,27.44-44.39,63.22-44.39s64.56,20.98,67.78,46.42c5.11,40.37-5.36,49.82-9.33,52.89-7.22,5.58-10.86,4.96-20.45,3.11-21.92-4.22-24.35-3.36-34.91-3.55Z" fill="url(#logo-3)" />
      <path d="M74.8,96.98c12.39-28.5,39.82-44.77,68.96-44.77,31.3,0,56.11,17.66,67.64,44.91,4.62,10.92,7.11,23.38,7.03,36.86-.05,7.7-.77,14.58-2.06,20.77h-.01c-1.58,7.58-4.02,14.12-7.12,19.83-5.2,9.57-11.92,16.28-19.38,20.37-1.03.56-2.08,1.08-3.14,1.55-5.05,2.23-22.26.94-42.96,1.78-14.05.57-28.15,1.23-40.54-2.31-6.69-1.91-12.88-5.04-18.3-10.07-8.38-7.79-12.88-18.51-15.12-31.07-1.13-6.25-1.69-12.95-1.89-19.96-.41-14.27,2.13-26.98,6.89-37.89ZM140.87,68.04c-35.78,0-57.63,22.02-63.22,44.39-4.22,16.89-3.57,40.92,6.78,54.03,6.06,7.69,15.99,5.61,20.22,5.12,26.74-3.12,24-4.94,39.31-4.67,10.56.19,12.99-.67,34.91,3.55,9.59,1.85,13.23,2.47,20.45-3.11,3.97-3.07,14.44-12.52,9.33-52.89-3.22-25.44-31.45-46.42-67.78-46.42Z" fill="#fff" />
      <path d="M57.98,144.62v-29.67c0-2.61,1.23-5.09,3.4-6.89l13.41-11.08h.01c-4.76,10.91-7.3,23.62-6.89,37.89.2,7.01.76,13.71,1.89,19.96h-.01l-7.31-3.55c-2.78-1.35-4.5-3.9-4.5-6.66Z" fill="#d1d6db" />
    </g>
    <g>
      <path d="M211.4,97.12c4.62,10.92,7.11,23.38,7.03,36.86-.05,7.7-.77,14.58-2.06,20.77h-.01c-1.58,7.58-4.02,14.12-7.12,19.83-5.2,9.57-11.92,16.28-19.38,20.37-1.03.56-2.08,1.08-3.14,1.55-5.05,2.23-22.26.94-42.96,1.78-14.05.57-28.15,1.23-40.54-2.31-6.69-1.91-12.88-5.04-18.3-10.07-8.38-7.79-12.88-18.51-15.12-31.07-1.13-6.25-1.69-12.95-1.89-19.96-.41-14.27,2.13-26.98,6.89-37.89,12.39-28.5,39.82-44.77,68.96-44.77,31.3,0,56.11,17.66,67.64,44.91Z" fill="none" stroke="#020d2b" stroke-miterlimit="10" />
      <path d="M74.79,96.98l-13.41,11.08c-2.17,1.8-3.4,4.28-3.4,6.89v29.67c0,2.76,1.72,5.31,4.5,6.66l7.31,3.55" fill="none" stroke="#010c2d" stroke-miterlimit="10" />
      <path d="M211.73,96.98l13.41,11.08c2.17,1.8,3.4,4.28,3.4,6.89v29.67c0,2.76-1.72,5.31-4.5,6.66l-7.31,3.55" fill="none" stroke="#020d2b" stroke-miterlimit="10" />
      <path d="M189.86,194.95l33.8-.4c7.42-.08,13.53,5.79,13.75,13.2l3.03,43-45.54-42.09c-1.04-.98-2.41-1.53-3.84-1.53h-95.6c-1.26,0-2.47.47-3.4,1.32l-45.44,41.57,1.67-40.95c.29-6.98,5.99-12.52,12.98-12.6l41.95-.5" fill="none" stroke="#050e4f" stroke-miterlimit="10" stroke-width=".75" />
    </g>
  </g>
  <path d="M173.44,266.06l-21.16,7.38c-.15.06-.26.17-.3.32l-4.31,14.62c-1.57.05-3.14.08-4.72.08h-.62l-5-14.34c-.05-.15-.17-.26-.32-.3l-21.49-6.35c-.46-.13-.47-.76-.03-.92l21.17-7.38c.14-.05.26-.17.3-.32l6.34-21.49c.13-.46.77-.47.92-.03l7.38,21.17c.06.14.17.26.32.3l21.5,6.34c.45.13.47.77.02.92Z" fill="url(#logo-4)" />
  <path d="M83.38,105.38c-.11.07-.14.15-.19.15-.86,0-.47-1.64-.04-2.38,3.59-6.25,20.76-32.81,52.15-31.99h0c-32.15,1.87-51.58,34.01-51.92,34.23Z" fill="#fff" />
</svg>