<svg width="58" height="36" viewBox="0 0 58 36" fill="none" xmlns="http://www.w3.org/2000/svg">
<path d="M36.8419 3.85547H21.1602V32.1418H36.8419V3.85547Z" fill="#666666"/>
<path d="M22.1568 17.9975C22.1568 12.5008 24.6945 7.2534 28.9785 3.85283C21.2135 -2.29459 9.96179 -0.946089 3.83801 6.90162C-2.28577 14.6966 -0.942451 25.9918 6.87508 32.1392C13.396 37.2869 22.5072 37.2869 29.0281 32.1392C24.6974 28.7415 22.1568 23.4941 22.1568 17.9945V17.9975Z" fill="#CCCCCC"/>
<path d="M58.0002 17.9975C58.0002 27.9442 49.9841 35.9883 40.0786 35.9883C36.0457 35.9883 32.1617 34.6398 29.0254 32.1392C36.7904 25.9918 38.1366 14.6966 32.0128 6.85178C31.1163 5.75246 30.1205 4.70297 29.0254 3.85283C36.7904 -2.29459 48.0917 -0.946089 54.1659 6.90162C56.6539 10.0501 58.0002 13.949 58.0002 17.9975Z" fill="#CCCCCC"/>
<path d="M56.3094 29.142V28.5411H56.5576V28.4414H55.959V28.5411H56.2072V29.142H56.3065H56.3094ZM57.4542 29.142V28.4414H57.2556L57.057 28.9398L56.8584 28.4414H56.6599V29.142H56.8088V28.5909L57.0074 29.0394H57.1563L57.3549 28.5909V29.142H57.4542Z" fill="#666666"/>
</svg>
