<svg width="73" height="36" viewBox="0 0 73 36" fill="none" xmlns="http://www.w3.org/2000/svg">
    <path
        d="M71.0265 2.02344L68.8744 29.2753C68.6692 32.0365 66.3643 34.1835 63.5966 34.2358H19.0098C7.99135 34.2358 7.22306 29.9918 7.78615 21.9655L9.58041 2.02582H71.0289L71.0265 2.02344Z"
        fill="#E6E6E6" />
    <path
        d="M26.7445 2.02344L24.4372 34.2335H13.2637C2.24525 34.2335 1.47697 29.9894 2.04006 21.9631L3.83432 2.02344H26.7421H26.7445Z"
        fill="#666666" />
    <path
        d="M29.3599 15.0605L28.9495 20.9398C28.7443 23.0868 30.3333 24.9791 32.4855 25.1838H34.6377C36.995 25.1338 38.942 23.2915 39.097 20.9398L39.7627 10.8164H33.8694C31.4595 10.8664 29.5126 12.7087 29.3599 15.0605ZM35.5085 20.9398C35.4584 21.2468 35.2007 21.5015 34.8929 21.5015H33.0987C32.7909 21.5015 32.5857 21.2968 32.5857 20.9897V20.9398L32.9961 15.0605C33.0462 14.7534 33.3039 14.4987 33.6117 14.4987H35.969L35.5085 20.9398Z"
        fill="#666666" />
    <path
        d="M62.621 10.8171H56.625L55.9593 20.9405C55.9593 21.3499 55.9593 21.7069 56.0619 22.0664H55.8066C53.9098 22.0664 52.9888 20.7382 53.1415 18.2841L53.4493 13.9901L53.5519 12.4572C53.602 11.5883 52.9363 10.8719 52.0654 10.7695H49.9132L49.8107 12.4572L49.5554 16.5465V17.2106L49.5052 17.67V18.2841L49.4551 19.3076C49.405 20.1264 49.4551 20.9429 49.6078 21.7617C49.1473 22.0164 48.6845 22.1187 48.1739 22.1187C46.5347 22.1187 44.4327 21.607 44.4327 18.7435L44.7404 12.5071C44.843 11.6383 44.1774 10.8719 43.3065 10.8195H41.1543L41.0517 12.5071L40.0782 27.1816C40.0281 28.1028 39.873 30.4021 39.873 30.4021H41.8725C42.7959 30.4021 43.6143 29.6357 43.6668 28.7145L43.8719 25.1346C44.435 25.4416 45.8714 25.5939 46.7423 25.5939C48.1763 25.5939 49.51 24.9798 50.4334 23.9063C51.3043 24.9798 52.638 25.5939 54.3798 25.5939C55.5585 25.5939 56.687 25.2369 57.608 24.5704C57.9659 24.9275 58.3763 25.1845 58.8893 25.3369C59.1971 25.4392 59.555 25.4392 59.8628 25.4392H61.657C64.0144 25.3892 65.9613 23.5469 66.1665 21.1952L66.5769 15.1112C66.7821 12.9642 65.1931 11.0718 63.0409 10.8671C62.8882 10.8171 62.7331 10.8171 62.6305 10.8171H62.621ZM62.5184 21.1452C62.5184 21.4523 62.2106 21.7069 61.9028 21.7069H60.1085C59.8007 21.7069 59.5955 21.5022 59.5955 21.1952V21.1452L60.0059 14.4994H62.3633C62.6711 14.4994 62.8763 14.7041 62.8763 15.0112V15.0612L62.5184 21.1452Z"
        fill="#666666" />
    <path
        d="M31.4595 7.3415L31.4093 8.16032C31.3592 8.92677 31.9223 9.64323 32.6906 9.69322H33.4589C34.3298 9.69322 34.9955 9.02912 35.0981 8.16032L35.2508 5.80859H33.0461C32.2254 5.80859 31.5096 6.47269 31.4571 7.3415H31.4595Z"
        fill="#666666" />
    <path
        d="M35.6118 7.3415L35.5617 8.16032C35.5116 8.92677 36.0747 9.64323 36.8931 9.69322H37.6112C38.4821 9.69322 39.1478 9.02912 39.2504 8.16032L39.4031 5.80859H37.251C36.3801 5.80859 35.6619 6.47269 35.6118 7.3415Z"
        fill="#666666" />
    <path
        d="M42.6844 9.64086H43.5052C44.2735 9.69084 44.9917 9.12909 45.0418 8.31266V8.26267L45.0919 7.59857C45.142 6.72977 44.6815 5.80859 43.8607 5.80859H41.3507L41.198 7.95561C41.1479 8.82442 41.8136 9.59087 42.6844 9.64323V9.64086Z"
        fill="#666666" />
    <path
        d="M44.5805 28.0485L44.5304 28.8673C44.4803 29.6338 45.0434 30.3503 45.8117 30.4002H46.6325C47.5034 30.4002 48.1691 29.7361 48.2717 28.8673L48.4244 26.5156H46.2722C45.3488 26.5156 44.633 27.2321 44.5805 28.0485Z"
        fill="#666666" />
    <path
        d="M48.9868 28.0485L48.9367 28.8673C48.8866 29.6338 49.4497 30.3503 50.218 30.4002H50.9862C51.8571 30.4002 52.5228 29.7361 52.6254 28.8673L52.7781 26.5156H50.626C49.7551 26.5156 49.0369 27.2321 48.9868 28.0485Z"
        fill="#666666" />
    <path
        d="M51.6525 9.58933H51.192C51.0894 9.58933 51.0894 9.53935 51.0894 9.48698L51.2421 7.54467V7.08527C51.2421 6.88057 51.1395 6.77822 50.9343 6.77822H50.4214C50.3879 6.77822 50.3712 6.79488 50.3712 6.8282C50.4213 7.13526 50.4213 7.44232 50.3712 7.69701C50.3211 8.10642 50.3211 8.56581 50.2686 8.97522C50.2686 9.12756 50.2686 9.28228 50.2185 9.43462C50.1684 9.58696 50.1684 9.53697 50.0658 9.53697H49.1425C49.0741 9.53697 49.0399 9.50285 49.0399 9.43462C49.09 8.77052 49.1425 8.10642 49.1926 7.43994V6.98054C49.1926 6.8282 49.09 6.72585 48.9874 6.72585H48.4243C48.3909 6.72585 48.3742 6.74251 48.3742 6.77584C48.3241 7.18525 48.3241 7.59466 48.2716 8.00407C48.2191 8.41347 48.2215 8.92523 48.169 9.38463C48.169 9.48698 48.1189 9.53697 48.0163 9.53697H47.0929C46.9903 9.53697 46.9402 9.48698 46.9903 9.38463C47.0404 8.72053 47.0929 8.00407 47.143 7.33997C47.1931 6.88057 47.1931 6.41879 47.2456 5.9594C47.2456 5.85705 47.2957 5.85705 47.3983 5.80706C47.6536 5.75707 47.8588 5.75707 48.1165 5.70471C48.5269 5.65472 48.8848 5.65472 49.2952 5.70471C49.5004 5.70471 49.7557 5.80706 49.9609 5.85705H50.0635C50.4738 5.70471 50.9343 5.65234 51.3447 5.65234C51.5499 5.65234 51.7026 5.70233 51.9078 5.75469C52.2156 5.85705 52.4709 6.11174 52.5234 6.41879C52.5735 6.67348 52.5735 6.98054 52.5234 7.23761L52.4208 8.92524C52.4208 9.07757 52.4208 9.23229 52.3707 9.38463C52.3206 9.53697 52.3206 9.48698 52.218 9.48698L51.6549 9.58933H51.6525Z"
        fill="#666666" />
    <path
        d="M58.6743 8.05566H57.6483C57.5982 8.05566 57.5457 8.05566 57.5457 8.15801C57.5457 8.46507 57.6483 8.61741 57.9561 8.61741H59.3901C59.4927 8.61741 59.5428 8.61741 59.5428 8.76975C59.5428 8.97445 59.5428 9.17916 59.4927 9.43385C59.4927 9.48383 59.4426 9.5362 59.3901 9.5362C59.0322 9.58618 58.7244 9.63855 58.3641 9.63855H57.4407C57.2355 9.63855 57.0304 9.5362 56.8252 9.43385C56.62 9.28151 56.4673 9.0768 56.4673 8.81973C56.4172 8.46269 56.4172 8.10327 56.4673 7.74622C56.4673 7.43917 56.5174 7.13211 56.62 6.82505C56.6701 6.518 56.8753 6.21094 57.1831 6.0586C57.3358 5.95625 57.541 5.90626 57.7461 5.8539C58.2066 5.80391 58.6695 5.80391 59.0775 5.8539C59.2827 5.90388 59.4879 5.95625 59.6406 6.10859C59.7933 6.26092 59.9484 6.518 59.9484 6.77269C59.9985 7.1821 59.9985 7.5915 59.9484 8.00091C59.9484 8.0509 59.8983 8.10327 59.8458 8.10327H59.6406L58.6671 8.05328L58.6743 8.05566ZM57.6483 7.34157H58.5717C58.7419 7.34157 58.8103 7.25668 58.7769 7.08688C58.7769 6.93455 58.6242 6.83219 58.4691 6.77983H58.1112C57.906 6.77983 57.7533 6.88218 57.7008 7.08688C57.6507 7.13687 57.6507 7.23922 57.6507 7.34157H57.6483Z"
        fill="#666666" />
    <path
        d="M54.9837 8.05401H54.0103C53.9077 8.05401 53.9077 8.104 53.9077 8.15636C53.9077 8.46342 54.0103 8.56577 54.318 8.61576H55.752C55.8546 8.61576 55.9047 8.61576 55.8546 8.71811C55.8546 8.92282 55.8045 9.17751 55.8045 9.38221C55.8045 9.4322 55.7544 9.48456 55.7019 9.48456C55.3941 9.53455 55.0362 9.53455 54.7284 9.58692C54.3705 9.58692 54.0103 9.58692 53.5999 9.53693C53.4472 9.53693 53.2921 9.43458 53.1394 9.38459C52.9342 9.23225 52.7815 9.02755 52.729 8.72049C52.6789 8.31108 52.6789 7.95404 52.729 7.54463C52.729 7.28994 52.7791 7.03287 52.8316 6.77818C52.8817 6.42113 53.0869 6.11408 53.3947 5.95936C53.5474 5.85701 53.7526 5.80702 53.9578 5.80702C54.4183 5.75703 54.8811 5.75703 55.3416 5.80702C55.5468 5.85701 55.752 5.90937 55.9047 6.06171C56.1099 6.21405 56.2125 6.47112 56.2125 6.72581V7.85169C56.2125 7.90167 56.1624 8.00403 56.0598 8.00403L54.9837 8.05401ZM55.0863 7.33993V7.03287C55.0863 6.88053 54.9336 6.77818 54.831 6.77818H54.4731C54.1653 6.77818 54.0126 7.03287 54.0126 7.33993H55.0887H55.0863Z"
        fill="#666666" />
    <path
        d="M64.822 6.729H64.1564C64.0538 6.729 64.0037 6.67902 64.0538 6.62665C64.0538 6.42195 64.1039 6.16725 64.1039 5.96255C64.1039 5.91256 64.154 5.8602 64.2065 5.8602C64.7195 5.75785 65.2825 5.70786 65.7955 5.75785C66.0508 5.75785 66.256 5.80783 66.5137 5.8602C66.8716 5.96255 67.1293 6.31959 67.1293 6.67902C67.1293 7.13841 67.0792 7.60019 67.0267 8.10957L66.9766 9.18308C66.9766 9.38778 66.9265 9.43777 66.7213 9.49013C66.0556 9.59249 65.3899 9.64247 64.7218 9.59249C64.5691 9.59249 64.3639 9.5425 64.2089 9.5425C63.9536 9.49251 63.7484 9.23544 63.6959 8.98075C63.6458 8.62371 63.6458 8.26429 63.7985 7.95723C63.9011 7.65017 64.2089 7.39548 64.5667 7.39548C64.7719 7.3455 64.9246 7.3455 65.1298 7.3455H65.8981C65.9315 7.3455 65.9482 7.32884 65.9482 7.29551V7.24552C65.9482 6.99083 65.8456 6.83612 65.5378 6.83612L64.8197 6.73376L64.822 6.729ZM65.848 7.95485H65.1298C64.9771 7.95485 64.822 8.0572 64.822 8.20954V8.36188C64.822 8.51422 64.9247 8.61657 65.0272 8.61657H65.0774C65.3327 8.61657 65.5903 8.61657 65.7955 8.56658C65.7955 8.56658 65.8456 8.56658 65.8456 8.5166C65.7955 8.36426 65.7955 8.15955 65.8456 7.95485H65.848Z"
        fill="#666666" />
    <path
        d="M61.7496 8.56655H63.2861C63.3363 8.56655 63.3362 8.61654 63.3362 8.6689C63.3362 8.92359 63.2861 9.18066 63.2861 9.43535C63.2861 9.53771 63.236 9.53771 63.1334 9.53771H60.1605C60.0078 9.53771 60.0078 9.48772 60.0078 9.38537C60.0078 9.28302 60.0078 9.02833 60.0579 8.87361C60.0579 8.82362 60.108 8.77126 60.108 8.72127L61.542 7.03365L61.7973 6.72659H60.4134C60.3116 6.72659 60.2607 6.67581 60.2607 6.57425L60.3108 5.91015C60.3108 5.8078 60.3609 5.75781 60.4635 5.75781H63.3339C63.4365 5.75781 63.4866 5.8078 63.4365 5.91015C63.4365 6.11486 63.4365 6.26719 63.3864 6.4719C63.3864 6.52188 63.3864 6.57425 63.3362 6.62424C62.8233 7.23835 62.3103 7.90245 61.7997 8.51656L61.7496 8.56655Z"
        fill="#666666" />
    <path
        d="M55.5983 26.7188C54.6749 26.7687 53.9591 27.4852 53.9066 28.4064L53.7539 30.4011H64.0041C64.9274 30.3511 65.6432 29.6346 65.6957 28.7134L65.8484 26.7188H55.5983Z"
        fill="#666666" />
    <path
        d="M62.4155 35H13.2667C8.09154 35 4.96352 34.1312 3.06906 32.1365C0.814307 29.6824 0.864413 25.8478 1.1221 21.8085L2.96646 1L72 1.04999L69.7953 28.1472C69.4375 31.9818 66.2593 34.8953 62.4155 34.9976V35ZM4.65812 2.78997L2.96646 21.9632C2.65867 26.3096 2.81376 29.1731 4.40043 30.9107C5.8869 32.4959 8.70474 33.2124 13.2667 33.2124H62.4155C65.336 33.1101 67.7458 30.9107 68.1037 27.9972L70.1532 2.84234L4.65573 2.79235L4.65812 2.78997Z"
        fill="#E6E6E6" stroke="#E6E6E6" stroke-miterlimit="10" />
    <path
        d="M16.4951 25.2877H10.6518C9.78092 25.2877 9.11523 24.6236 9.11523 23.7548V23.6024L9.93601 12.3556C10.0386 11.4344 10.8069 10.7203 11.7303 10.668H17.521C18.3919 10.668 19.0576 11.3321 19.0576 12.2009V12.3532L18.2368 23.6001C18.1867 24.5212 17.4161 25.2877 16.4951 25.2877ZM11.6277 11.8414C11.3199 11.8414 11.1147 12.0462 11.0646 12.3532L10.2438 23.6001C10.2438 23.9071 10.449 24.1118 10.7568 24.1118H16.6001C16.9078 24.1118 17.113 23.9071 17.1631 23.6001L17.9839 12.3532C17.9839 12.0462 17.7787 11.8414 17.4709 11.8414H11.6277Z"
        fill="#E6E6E6" />
    <path d="M17.9814 21.707L17.8788 22.8329H9.7832L9.88342 21.707H17.9814Z" fill="#E6E6E6" />
</svg>