<svg width="16" height="16" viewBox="0 0 16 16" fill="none" xmlns="http://www.w3.org/2000/svg">
    <path
        d="M10.6673 1.33398H5.33398C2.66732 1.33398 1.33398 2.66732 1.33398 5.33398V14.0007C1.33398 14.3673 1.63398 14.6673 2.00065 14.6673H10.6673C13.334 14.6673 14.6673 13.334 14.6673 10.6673V5.33398C14.6673 2.66732 13.334 1.33398 10.6673 1.33398Z"
        stroke="#666666" stroke-linecap="round" stroke-linejoin="round" />
    <path
        d="M8.60588 5.22677L5.14588 8.68677C5.01254 8.8201 4.88588 9.0801 4.85921 9.26677L4.67255 10.5868C4.60588 11.0668 4.93921 11.4001 5.41921 11.3334L6.7392 11.1468C6.92587 11.1201 7.18588 10.9934 7.31922 10.8601L10.7792 7.4001C11.3726 6.80677 11.6592 6.11343 10.7792 5.23343C9.89922 4.34677 9.20588 4.62677 8.60588 5.22677Z"
        stroke="#666666" stroke-miterlimit="10" stroke-linecap="round" stroke-linejoin="round" />
    <path d="M8.11328 5.7207C8.40661 6.76737 9.22661 7.59404 10.2799 7.88737" stroke="#666666"
        stroke-miterlimit="10" stroke-linecap="round" stroke-linejoin="round" />
</svg>