<svg width="100%" height="100%" viewBox="0 0 24 25" fill="none" xmlns="http://www.w3.org/2000/svg">
<path d="M12 19.5C15.31 19.5 18 16.81 18 13.5V8.5C18 5.19 15.31 2.5 12 2.5C8.69 2.5 6 5.19 6 8.5V13.5C6 16.81 8.69 19.5 12 19.5Z" stroke="#437DFA" stroke-width="1.5" stroke-linecap="round" stroke-linejoin="round"/>
<path d="M3 11.5V13.5C3 18.47 7.03 22.5 12 22.5C16.97 22.5 21 18.47 21 13.5V11.5" stroke="#437DFA" stroke-width="1.5" stroke-linecap="round" stroke-linejoin="round"/>
<path d="M9.10938 7.97969C10.8894 7.32969 12.8294 7.32969 14.6094 7.97969" stroke="#437DFA" stroke-width="1.5" stroke-linecap="round" stroke-linejoin="round"/>
<path d="M10.0293 10.9819C11.2293 10.6519 12.4993 10.6519 13.6993 10.9819" stroke="#437DFA" stroke-width="1.5" stroke-linecap="round" stroke-linejoin="round"/>
</svg>
