<svg width="100%" height="100%" viewBox="0 0 16 16" fill="none" xmlns="http://www.w3.org/2000/svg">
    <path
        d="M10.6667 4.2V4C10.6667 2.52667 9.47333 1.33333 8 1.33333C6.52667 1.33333 5.33333 2.52667 5.33333 4V7.33333"
        stroke="#292D32" stroke-width="1.5" stroke-linecap="round" stroke-linejoin="round" />
    <path
        d="M6.02667 9.46C6.51333 10 7.22 10.3333 8 10.3333C9.47333 10.3333 10.6667 9.14 10.6667 7.66667V7.33333"
        stroke="#292D32" stroke-width="1.5" stroke-linecap="round" stroke-linejoin="round" />
    <path
        d="M4.52 11.3C5.43333 12.1467 6.65333 12.6667 8 12.6667C10.8133 12.6667 13.1 10.38 13.1 7.56667V6.43333"
        stroke="#292D32" stroke-width="1.5" stroke-linecap="round" stroke-linejoin="round" />
    <path d="M2.9 6.43333V7.56667C2.9 8.27333 3.04 8.94 3.3 9.55333" stroke="#292D32"
        stroke-width="1.5" stroke-linecap="round" stroke-linejoin="round" />
    <path d="M13.38 1.89333L2.62 12.66" stroke="#292D32" stroke-width="1.5" stroke-linecap="round"
        stroke-linejoin="round" />
    <path d="M7.33333 2V4" stroke="#292D32" stroke-width="1.5" stroke-linecap="round"
        stroke-linejoin="round" />
    <path d="M8 12.6667V14.6667" stroke="#292D32" stroke-width="1.5" stroke-linecap="round"
        stroke-linejoin="round" />
</svg>