<svg width="100%" height="100%" viewBox="0 0 16 16" fill="none" xmlns="http://www.w3.org/2000/svg">
  <path
    d="M11.3335 13.6666H4.66683C2.66683 13.6666 1.3335 12.6666 1.3335 10.3333V5.66659C1.3335 3.33325 2.66683 2.33325 4.66683 2.33325H11.3335C13.3335 2.33325 14.6668 3.33325 14.6668 5.66659V10.3333C14.6668 12.6666 13.3335 13.6666 11.3335 13.6666Z"
    stroke="#000" stroke-miterlimit="10" stroke-linecap="round" stroke-linejoin="round" />
  <path d="M8 10C9.10457 10 10 9.10457 10 8C10 6.89543 9.10457 6 8 6C6.89543 6 6 6.89543 6 8C6 9.10457 6.89543 10 8 10Z"
    stroke="#000" stroke-miterlimit="10" stroke-linecap="round" stroke-linejoin="round" />
  <path d="M3.6665 6.33325V9.66659" stroke="#000" stroke-miterlimit="10" stroke-linecap="round"
    stroke-linejoin="round" />
  <path d="M12.3335 6.33325V9.66659" stroke="#000" stroke-miterlimit="10" stroke-linecap="round"
    stroke-linejoin="round" />
</svg>