<svg width="100%" height="100%" viewBox="0 0 554 350" fill="none" xmlns="http://www.w3.org/2000/svg">
  <path d="M518.029 95.6285L533.137 91.2168" stroke="#164383" stroke-width="2.5" stroke-miterlimit="10"
    stroke-linecap="round" />
  <path d="M507.577 64.8574L502.453 79.175" stroke="#164383" stroke-width="2.5" stroke-miterlimit="10"
    stroke-linecap="round" />
  <path d="M512.621 85.1243L529.688 66.4492" stroke="#164383" stroke-width="2.5" stroke-miterlimit="10"
    stroke-linecap="round" />
  <path d="M317.126 300.407L297.939 289.332V311.482L317.126 300.407Z" fill="#164383" />
  <path d="M343.028 300.407L323.84 289.332V311.482L343.028 300.407Z" fill="#164383" />
  <path d="M149.519 10.8093L130.332 -0.265625V21.885L149.519 10.8093Z" fill="#164383" />
  <path d="M175.419 10.8093L156.232 -0.265625V21.885L175.419 10.8093Z" fill="#164383" />
  <path d="M223.773 62.291H240.185" stroke="#164383" stroke-width="2.5" stroke-miterlimit="10" stroke-linecap="round" />
  <path d="M231.979 70.4959V54.0879" stroke="#164383" stroke-width="2.5" stroke-miterlimit="10"
    stroke-linecap="round" />
  <path d="M509.875 183.074H532.905" stroke="#164383" stroke-width="2.5" stroke-miterlimit="10"
    stroke-linecap="round" />
  <path d="M521.391 194.587V171.562" stroke="#164383" stroke-width="2.5" stroke-miterlimit="10"
    stroke-linecap="round" />
  <path d="M35.5996 258.656H60.3747" stroke="#164383" stroke-width="2.5" stroke-miterlimit="10"
    stroke-linecap="round" />
  <path d="M47.9883 271.041V246.271" stroke="#164383" stroke-width="2.5" stroke-miterlimit="10"
    stroke-linecap="round" />
  <path d="M111.232 40.6113H183.135" stroke="#27A568" stroke-width="3.5" stroke-miterlimit="10"
    stroke-linecap="round" />
  <path d="M203.787 301.113H275.69" stroke="#27A568" stroke-width="3.5" stroke-miterlimit="10" stroke-linecap="round" />
  <path d="M0.0917969 72.4238H127.522" stroke="#164383" stroke-width="2.5" stroke-miterlimit="10"
    stroke-linecap="round" />
  <path d="M47.8926 143.566H128.898" stroke="#1D5AAF" stroke-width="3.5" stroke-miterlimit="10"
    stroke-linecap="round" />
  <path d="M69.1406 134.092H108.134" stroke="#164383" stroke-width="2.5" stroke-miterlimit="10"
    stroke-linecap="round" />
  <path d="M438.775 199.266H470.766" stroke="#164383" stroke-width="2.5" stroke-miterlimit="10"
    stroke-linecap="round" />
  <path
    d="M416.535 167.812L450.215 89.9925C450.215 89.6381 450.215 89.4614 450.215 89.4868H142.871L108.973 167.812H416.535Z"
    fill="#1D5AAF" />
  <path
    d="M431.76 209.483C429.384 207.602 427.364 205.259 425.999 202.544C424.684 199.93 424.002 197.06 423.822 194.147C423.539 189.579 424.364 185.006 425.73 180.613H138.609L104.711 272.494H408.773L433.833 210.964C433.122 210.5 432.427 210.012 431.76 209.483Z"
    fill="#27A568" />
  <path d="M86.4688 112.268H146.538" stroke="#1D5AAF" stroke-width="2.5" stroke-miterlimit="10"
    stroke-linecap="round" />
  <path
    d="M432.889 95.264C432.889 94.9096 432.889 94.7329 432.889 94.7583H125.545L91.6465 173.083H125.545L91.6465 264.964H399.209L432.889 173.676C432.889 173.478 432.889 173.281 432.889 173.083"
    stroke="#164383" stroke-width="2.5" stroke-miterlimit="10" />
  <path
    d="M194.98 137V121.94H199V135.47L196.66 133.52H202.75V137H194.98ZM188.68 128.42V124.91H194.98V128.42H188.68ZM182.14 144.44C181.88 144.44 181.6 144.43 181.3 144.41C181 144.39 180.69 144.36 180.37 144.32L180.52 140.9C180.84 140.92 181.14 140.94 181.42 140.96C181.72 140.98 181.94 140.99 182.08 140.99C182.86 140.99 183.48 140.68 183.94 140.06C184.42 139.44 184.66 138.57 184.66 137.45V121.94H188.68V137.45C188.68 138.81 188.4 140.02 187.84 141.08C187.3 142.14 186.54 142.96 185.56 143.54C184.58 144.14 183.44 144.44 182.14 144.44ZM202.75 137V133.52C202.85 133.52 202.94 133.56 203.02 133.64C203.1 133.72 203.16 133.84 203.2 134C203.24 134.16 203.27 134.35 203.29 134.57C203.33 134.77 203.35 135 203.35 135.26C203.35 135.52 203.33 135.76 203.29 135.98C203.27 136.2 203.24 136.39 203.2 136.55C203.16 136.69 203.1 136.8 203.02 136.88C202.94 136.96 202.85 137 202.75 137ZM195.25 114.59V111.59H198.73V114.59H195.25ZM192.34 119.18V115.76H196.21V119.18H192.34ZM197.8 119.18V115.76H201.67V119.18H197.8ZM202.738 137V133.52H217.798L216.478 134.6V130.52C216.478 129.48 216.368 128.65 216.148 128.03C215.928 127.41 215.588 126.96 215.128 126.68C214.688 126.4 214.128 126.26 213.448 126.26H206.878L204.388 122.66L205.918 119.78C206.098 119.44 206.298 119.07 206.518 118.67C206.738 118.27 207.028 117.79 207.388 117.23C207.748 116.67 208.208 115.97 208.768 115.13L212.128 117.02C211.608 117.8 211.188 118.45 210.868 118.97C210.548 119.47 210.278 119.91 210.058 120.29C209.838 120.67 209.638 121.05 209.458 121.43L208.258 123.68L207.658 122.78H213.448C214.728 122.78 215.818 122.99 216.718 123.41C217.618 123.83 218.338 124.41 218.878 125.15C219.438 125.89 219.848 126.72 220.108 127.64C220.368 128.56 220.498 129.52 220.498 130.52V137H202.738ZM202.738 137C202.618 137 202.528 136.96 202.468 136.88C202.388 136.8 202.328 136.69 202.288 136.55C202.228 136.39 202.188 136.2 202.168 135.98C202.148 135.76 202.138 135.52 202.138 135.26C202.138 134.9 202.158 134.6 202.198 134.36C202.238 134.1 202.308 133.9 202.408 133.76C202.488 133.6 202.598 133.52 202.738 133.52V137ZM225.272 137V115.79H229.262V137H225.272ZM248.77 144.44C247.03 144.44 245.47 144.12 244.09 143.48C242.73 142.86 241.66 141.99 240.88 140.87C240.1 139.75 239.71 138.48 239.71 137.06C239.71 136.66 239.74 136.13 239.8 135.47C239.86 134.81 239.94 134.07 240.04 133.25C240.16 132.43 240.28 131.6 240.4 130.76C240.54 129.9 240.67 129.07 240.79 128.27L244.75 128.81C244.53 130.15 244.34 131.38 244.18 132.5C244.04 133.6 243.93 134.54 243.85 135.32C243.77 136.1 243.73 136.67 243.73 137.03C243.73 137.83 243.93 138.52 244.33 139.1C244.73 139.68 245.3 140.13 246.04 140.45C246.8 140.79 247.71 140.96 248.77 140.96C249.87 140.96 250.76 140.8 251.44 140.48C252.12 140.16 252.61 139.72 252.91 139.16C253.23 138.6 253.39 137.97 253.39 137.27V121.94H257.41V137.27C257.41 138.71 257.03 139.97 256.27 141.05C255.53 142.13 254.51 142.96 253.21 143.54C251.91 144.14 250.43 144.44 248.77 144.44ZM246.58 120.86V117.44H250.6V120.86H246.58ZM274.906 137V133.52H278.056V137H274.906ZM266.806 144.44C266.066 144.44 265.286 144.38 264.466 144.26C263.666 144.16 262.806 144.02 261.886 143.84L262.486 140.63C263.486 140.75 264.336 140.84 265.036 140.9C265.736 140.96 266.326 140.99 266.806 140.99C268.246 140.99 269.286 140.73 269.926 140.21C270.566 139.69 270.886 138.91 270.886 137.87V124.7L271.876 125.42H268.126C267.306 125.42 266.646 125.52 266.146 125.72C265.646 125.9 265.276 126.29 265.036 126.89C264.816 127.47 264.706 128.36 264.706 129.56C264.706 130.7 264.806 131.56 265.006 132.14C265.226 132.7 265.586 133.07 266.086 133.25C266.586 133.43 267.266 133.52 268.126 133.52H270.886V137H268.126C266.426 137 265.026 136.73 263.926 136.19C262.826 135.65 262.006 134.83 261.466 133.73C260.946 132.63 260.686 131.24 260.686 129.56C260.686 127.88 260.946 126.48 261.466 125.36C262.006 124.22 262.826 123.37 263.926 122.81C265.026 122.23 266.426 121.94 268.126 121.94H274.906V137.87C274.906 139.23 274.566 140.4 273.886 141.38C273.226 142.38 272.286 143.14 271.066 143.66C269.866 144.18 268.446 144.44 266.806 144.44ZM278.056 137V133.52C278.176 133.52 278.266 133.56 278.326 133.64C278.406 133.72 278.466 133.84 278.506 134C278.566 134.16 278.606 134.35 278.626 134.57C278.646 134.77 278.656 135 278.656 135.26C278.656 135.52 278.646 135.76 278.626 135.98C278.606 136.2 278.566 136.39 278.506 136.55C278.466 136.69 278.406 136.8 278.326 136.88C278.266 136.96 278.176 137 278.056 137ZM295.791 137V133.52H298.971V137H295.791ZM278.061 137C277.941 137 277.851 136.96 277.791 136.88C277.711 136.8 277.651 136.69 277.611 136.55C277.551 136.39 277.511 136.2 277.491 135.98C277.471 135.76 277.461 135.52 277.461 135.26C277.461 134.9 277.481 134.6 277.521 134.36C277.561 134.1 277.631 133.9 277.731 133.76C277.811 133.6 277.921 133.52 278.061 133.52V137ZM278.061 137V133.52H293.631L291.801 135.08V129.56C291.801 128.48 291.681 127.64 291.441 127.04C291.201 126.42 290.781 125.99 290.181 125.75C289.601 125.49 288.791 125.36 287.751 125.36C286.931 125.36 286.121 125.42 285.321 125.54C284.541 125.64 283.931 125.78 283.491 125.96L285.981 123.62C285.861 124.08 285.741 124.66 285.621 125.36C285.521 126.06 285.431 126.81 285.351 127.61C285.271 128.39 285.231 129.16 285.231 129.92C285.231 130.62 285.261 131.35 285.321 132.11C285.401 132.87 285.481 133.54 285.561 134.12C285.661 134.7 285.741 135.1 285.801 135.32L281.991 136.37C281.911 136.09 281.811 135.63 281.691 134.99C281.571 134.35 281.461 133.59 281.361 132.71C281.281 131.83 281.241 130.9 281.241 129.92C281.241 128.92 281.291 127.96 281.391 127.04C281.491 126.1 281.601 125.26 281.721 124.52C281.861 123.76 281.991 123.15 282.111 122.69C282.591 122.51 283.341 122.33 284.361 122.15C285.381 121.97 286.511 121.88 287.751 121.88C289.551 121.88 291.041 122.13 292.221 122.63C293.421 123.13 294.311 123.94 294.891 125.06C295.491 126.18 295.791 127.69 295.791 129.59V137H278.061ZM298.971 137V133.52C299.071 133.52 299.161 133.56 299.241 133.64C299.321 133.72 299.381 133.84 299.421 134C299.461 134.16 299.491 134.35 299.511 134.57C299.551 134.77 299.571 135 299.571 135.26C299.571 135.52 299.551 135.76 299.511 135.98C299.491 136.2 299.461 136.39 299.421 136.55C299.381 136.69 299.321 136.8 299.241 136.88C299.161 136.96 299.071 137 298.971 137ZM306.389 137V133.52H309.539V137H306.389ZM298.979 137C298.859 137 298.769 136.96 298.709 136.88C298.629 136.8 298.569 136.69 298.529 136.55C298.469 136.39 298.429 136.2 298.409 135.98C298.389 135.76 298.379 135.52 298.379 135.26C298.379 134.9 298.399 134.6 298.439 134.36C298.479 134.1 298.549 133.9 298.649 133.76C298.729 133.6 298.839 133.52 298.979 133.52V137ZM302.369 137V115.79H306.389V137H302.369ZM298.979 137V133.52H302.369V137H298.979ZM309.539 137V133.52C309.659 133.52 309.759 133.56 309.839 133.64C309.919 133.72 309.979 133.84 310.019 134C310.059 134.16 310.089 134.35 310.109 134.57C310.129 134.77 310.139 135 310.139 135.26C310.139 135.52 310.129 135.76 310.109 135.98C310.089 136.2 310.059 136.39 310.019 136.55C309.979 136.69 309.919 136.8 309.839 136.88C309.759 136.96 309.659 137 309.539 137ZM309.525 137V133.52H315.885C316.745 133.52 317.575 133.36 318.375 133.04C319.175 132.7 319.905 132.26 320.565 131.72C321.245 131.16 321.835 130.55 322.335 129.89C322.855 129.21 323.255 128.52 323.535 127.82C323.835 127.12 323.985 126.46 323.985 125.84V123.92L325.905 127.1C324.865 126.54 323.805 126.12 322.725 125.84C321.645 125.56 320.615 125.42 319.635 125.42C318.675 125.42 317.645 125.56 316.545 125.84C315.465 126.12 314.415 126.54 313.395 127.1L315.315 123.92V125.84C315.315 126.46 315.455 127.12 315.735 127.82C316.035 128.52 316.435 129.21 316.935 129.89C317.435 130.55 318.025 131.16 318.705 131.72C319.385 132.26 320.125 132.7 320.925 133.04C321.725 133.36 322.545 133.52 323.385 133.52H329.565V137H324.645C323.085 137 321.625 136.75 320.265 136.25C318.905 135.75 317.675 135.09 316.575 134.27C315.475 133.43 314.525 132.52 313.725 131.54C312.945 130.54 312.345 129.55 311.925 128.57C311.505 127.57 311.295 126.66 311.295 125.84V124.13C312.155 123.65 313.065 123.25 314.025 122.93C315.005 122.61 315.975 122.37 316.935 122.21C317.915 122.03 318.815 121.94 319.635 121.94C320.475 121.94 321.375 122.03 322.335 122.21C323.295 122.37 324.255 122.61 325.215 122.93C326.195 123.25 327.115 123.65 327.975 124.13V125.84C327.975 126.66 327.765 127.57 327.345 128.57C326.925 129.55 326.315 130.54 325.515 131.54C324.735 132.52 323.795 133.43 322.695 134.27C321.595 135.09 320.365 135.75 319.005 136.25C317.645 136.75 316.185 137 314.625 137H309.525ZM309.525 137C309.405 137 309.315 136.96 309.255 136.88C309.175 136.8 309.115 136.69 309.075 136.55C309.015 136.39 308.975 136.2 308.955 135.98C308.935 135.76 308.925 135.52 308.925 135.26C308.925 134.9 308.945 134.6 308.985 134.36C309.025 134.1 309.095 133.9 309.195 133.76C309.275 133.6 309.385 133.52 309.525 133.52V137ZM329.565 137V133.52C329.685 133.52 329.785 133.56 329.865 133.64C329.945 133.72 330.005 133.84 330.045 134C330.085 134.16 330.115 134.35 330.135 134.57C330.155 134.77 330.165 135 330.165 135.26C330.165 135.52 330.155 135.76 330.135 135.98C330.115 136.2 330.085 136.39 330.045 136.55C330.005 136.69 329.945 136.8 329.865 136.88C329.785 136.96 329.685 137 329.565 137ZM329.564 137V133.52H345.134L343.304 135.08V129.56C343.304 128.48 343.184 127.64 342.944 127.04C342.704 126.42 342.284 125.99 341.684 125.75C341.104 125.49 340.294 125.36 339.254 125.36C338.434 125.36 337.624 125.42 336.824 125.54C336.044 125.64 335.434 125.78 334.994 125.96L337.484 123.62C337.364 124.08 337.244 124.66 337.124 125.36C337.024 126.06 336.934 126.81 336.854 127.61C336.774 128.39 336.734 129.16 336.734 129.92C336.734 130.62 336.764 131.35 336.824 132.11C336.904 132.87 336.984 133.54 337.064 134.12C337.164 134.7 337.244 135.1 337.304 135.32L333.494 136.37C333.414 136.09 333.314 135.63 333.194 134.99C333.074 134.35 332.964 133.59 332.864 132.71C332.784 131.83 332.744 130.9 332.744 129.92C332.744 128.92 332.794 127.96 332.894 127.04C332.994 126.1 333.104 125.26 333.224 124.52C333.364 123.76 333.494 123.15 333.614 122.69C334.094 122.51 334.844 122.33 335.864 122.15C336.884 121.97 338.014 121.88 339.254 121.88C341.054 121.88 342.544 122.13 343.724 122.63C344.924 123.13 345.814 123.94 346.394 125.06C346.994 126.18 347.294 127.69 347.294 129.59V137H329.564ZM329.564 137C329.444 137 329.354 136.96 329.294 136.88C329.214 136.8 329.154 136.69 329.114 136.55C329.054 136.39 329.014 136.2 328.994 135.98C328.974 135.76 328.964 135.52 328.964 135.26C328.964 134.9 328.984 134.6 329.024 134.36C329.064 134.1 329.134 133.9 329.234 133.76C329.314 133.6 329.424 133.52 329.564 133.52V137Z"
    fill="#EAFAF3" />
  <path
    d="M215.221 206.15V203.9H226.321V206.15H215.221ZM215.221 201.15V198.9H226.321V201.15H215.221ZM224.15 245V239.2H229.85V245H224.15ZM217.5 245V209.65H224.15V245H217.5ZM229.85 245V239.2C230.05 239.2 230.2 239.267 230.3 239.4C230.433 239.533 230.533 239.733 230.6 240C230.7 240.267 230.767 240.583 230.8 240.95C230.833 241.283 230.85 241.667 230.85 242.1C230.85 242.533 230.833 242.933 230.8 243.3C230.767 243.667 230.7 243.983 230.6 244.25C230.533 244.483 230.433 244.667 230.3 244.8C230.2 244.933 230.05 245 229.85 245ZM241.796 245V239.2H247.046V245H241.796ZM229.846 245C229.646 245 229.496 244.933 229.396 244.8C229.262 244.667 229.162 244.483 229.096 244.25C228.996 243.983 228.929 243.667 228.896 243.3C228.862 242.933 228.846 242.533 228.846 242.1C228.846 241.5 228.879 241 228.946 240.6C229.012 240.167 229.129 239.833 229.296 239.6C229.429 239.333 229.612 239.2 229.846 239.2V245ZM229.846 245V239.2H238.996L235.096 242.45V219.9H241.796V245H229.846ZM247.046 245V239.2C247.246 239.2 247.412 239.267 247.546 239.4C247.679 239.533 247.779 239.733 247.846 240C247.912 240.267 247.962 240.583 247.996 240.95C248.029 241.283 248.046 241.667 248.046 242.1C248.046 242.533 248.029 242.933 247.996 243.3C247.962 243.667 247.912 243.983 247.846 244.25C247.779 244.483 247.679 244.667 247.546 244.8C247.412 244.933 247.246 245 247.046 245ZM235.096 255.65V249.95H241.796V255.65H235.096ZM247.033 245V239.2H258.883L254.983 242.45V219.9H261.633V245H247.033ZM247.033 245C246.833 245 246.683 244.933 246.583 244.8C246.45 244.667 246.35 244.483 246.283 244.25C246.183 243.983 246.117 243.667 246.083 243.3C246.05 242.933 246.033 242.533 246.033 242.1C246.033 241.5 246.067 241 246.133 240.6C246.2 240.167 246.317 239.833 246.483 239.6C246.617 239.333 246.8 239.2 247.033 239.2V245ZM248.833 255.65V249.95H255.283V255.65H248.833ZM257.933 255.65V249.95H264.383V255.65H257.933ZM280.118 245V239.2H286.568V245H280.118ZM270.418 257.4C269.984 257.4 269.518 257.383 269.018 257.35C268.518 257.317 268.001 257.267 267.468 257.2L267.718 251.5C268.251 251.533 268.751 251.567 269.218 251.6C269.718 251.633 270.084 251.65 270.318 251.65C271.618 251.65 272.651 251.133 273.418 250.1C274.218 249.067 274.618 247.617 274.618 245.75V219.9H281.318V245.75C281.318 248.017 280.851 250.033 279.918 251.8C279.018 253.567 277.751 254.933 276.118 255.9C274.484 256.9 272.584 257.4 270.418 257.4ZM286.568 245V239.2C286.768 239.2 286.918 239.267 287.018 239.4C287.151 239.533 287.251 239.733 287.318 240C287.418 240.267 287.484 240.583 287.518 240.95C287.551 241.283 287.568 241.667 287.568 242.1C287.568 242.533 287.551 242.933 287.518 243.3C287.484 243.667 287.418 243.983 287.318 244.25C287.251 244.483 287.151 244.667 287.018 244.8C286.918 244.933 286.768 245 286.568 245ZM286.584 245V239.2H309.934L307.884 240.95V224.25L309.584 225.7H303.284C301.817 225.7 300.667 225.883 299.834 226.25C299.001 226.617 298.417 227.3 298.084 228.3C297.751 229.267 297.584 230.65 297.584 232.45C297.584 234.417 297.751 235.883 298.084 236.85C298.417 237.783 299.001 238.417 299.834 238.75C300.667 239.05 301.817 239.2 303.284 239.2V244.4C300.451 244.4 298.117 244 296.284 243.2C294.451 242.4 293.084 241.133 292.184 239.4C291.317 237.633 290.884 235.317 290.884 232.45C290.884 229.717 291.317 227.417 292.184 225.55C293.084 223.683 294.451 222.283 296.284 221.35C298.117 220.383 300.451 219.9 303.284 219.9H314.584V245H286.584ZM286.584 245C286.384 245 286.234 244.933 286.134 244.8C286.001 244.667 285.901 244.483 285.834 244.25C285.734 243.983 285.667 243.667 285.634 243.3C285.601 242.933 285.584 242.533 285.584 242.1C285.584 241.5 285.617 241 285.684 240.6C285.751 240.167 285.867 239.833 286.034 239.6C286.167 239.333 286.351 239.2 286.584 239.2V245ZM296.234 215.3V209.6H302.684V215.3H296.234ZM305.334 215.3V209.6H311.784V215.3H305.334Z"
    fill="white" />
  <path d="M436.246 223.855H499.956" stroke="#27A568" stroke-width="3.5" stroke-miterlimit="10"
    stroke-linecap="round" />
  <path d="M431.41 249.902H553.379" stroke="#27A568" stroke-width="3.5" stroke-miterlimit="10" stroke-linecap="round" />
  <path d="M299.871 78.4707H364.491" stroke="#1D5AAF" stroke-width="3.5" stroke-miterlimit="10"
    stroke-linecap="round" />
  <path
    d="M450.328 280.363C450.328 280.363 464.556 251.455 459.272 226.961C455.089 207.571 426.599 196.612 428.184 186.197C429.912 174.841 464.598 170.845 472.98 156.317C480.183 143.835 480.135 108.247 480.135 108.247L397.412 94.7559C397.412 94.7559 386.055 128.483 388.916 142.607C392.246 159.045 423.862 173.856 421.891 185.171C420.082 195.55 389.586 196.888 379.457 213.944C366.66 235.489 370.96 267.42 370.96 267.42L450.328 280.363Z"
    fill="white" />
  <path
    d="M438.744 109.99C438.744 109.99 460.564 124.413 467.597 150.374C475.531 136.672 473.006 115.579 473.006 115.579L438.744 109.99Z"
    fill="#1D5AAF" />
  <path
    d="M456.363 281.188L428.797 276.693L392.542 270.779L364.975 266.284C358.259 265.188 351.926 269.743 350.831 276.458L349.969 281.741L389.696 288.22L425.951 294.133L465.678 300.613L466.54 295.33C467.636 288.615 463.079 282.283 456.363 281.188Z"
    fill="#FFF6D9" />
  <path
    d="M464.975 92.2461L428.72 86.3329L388.993 79.8535L388.131 85.1359C387.036 91.8506 391.592 98.1821 398.308 99.2768L425.874 103.773L462.129 109.686L489.695 114.182C496.412 115.277 502.744 110.722 503.84 104.007L504.702 98.7246L464.975 92.2461Z"
    fill="#27A568" />
  <path
    d="M461.593 286.417L434.027 281.921L397.772 276.008L370.205 271.512C363.489 270.417 357.156 274.972 356.061 281.687L355.199 286.969L394.926 293.448L431.181 299.362L470.908 305.841L471.77 300.559C472.866 293.844 468.309 287.512 461.593 286.417Z"
    fill="#27A568" />
  <path
    d="M459.745 87.0176L423.49 81.1044L383.763 74.625L382.901 79.9074C381.805 86.6221 386.361 92.9536 393.078 94.0482L420.645 98.544L456.9 104.457L484.466 108.953C491.182 110.048 497.515 105.493 498.61 98.7785L499.472 93.4961L459.745 87.0176Z"
    stroke="#164383" stroke-width="2.5" stroke-miterlimit="10" />
  <path
    d="M456.363 281.188L428.797 276.693L392.542 270.779L364.975 266.284C358.259 265.188 351.926 269.743 350.831 276.458L349.969 281.741L389.696 288.22L425.951 294.133L465.678 300.613L466.54 295.33C467.636 288.615 463.079 282.283 456.363 281.188Z"
    stroke="#164383" stroke-width="2.5" stroke-miterlimit="10" />
  <path
    d="M397.412 94.7559C397.412 94.7559 386.055 128.483 388.916 142.607C392.246 159.045 423.862 173.856 421.891 185.171C420.082 195.55 389.586 196.888 379.457 213.944C366.66 235.489 370.96 267.42 370.96 267.42"
    stroke="#164383" stroke-width="3.3" stroke-miterlimit="10" />
  <path
    d="M480.134 108.248C480.134 108.248 480.182 143.835 472.979 156.318C464.596 170.846 429.91 174.843 428.183 186.197C426.598 196.613 455.087 207.572 459.271 226.962C464.555 251.456 450.327 280.364 450.327 280.364"
    stroke="#164383" stroke-width="3.3" stroke-miterlimit="10" />
  <path
    d="M395.779 141.286C395.352 141.507 395.208 142.044 395.467 142.45C396.842 144.606 401.164 151.109 407.126 157.457C413.919 164.689 422.699 171.474 427.554 172.266C440.637 174.4 466.721 154.896 467.163 153.247C449.439 158.448 443.26 156.565 426.872 141.97C415.622 131.95 399.482 139.366 395.779 141.286Z"
    fill="#164383" />
  <path
    d="M446.444 275.369C445.268 263.936 439.981 229.783 418.589 226.295C397.399 222.838 381.355 253.124 376.346 263.936L446.444 275.369Z"
    fill="#164383" />
  <path
    d="M433.386 221.133C433.008 223.449 430.825 225.019 428.509 224.642C426.193 224.264 424.622 222.081 424.999 219.766C425.377 217.451 427.561 215.88 429.877 216.257C432.193 216.635 433.763 218.818 433.386 221.133Z"
    fill="#164383" />
  <path
    d="M416.726 211.358C416.439 213.117 414.78 214.311 413.02 214.024C411.26 213.737 410.066 212.078 410.353 210.318C410.64 208.558 412.3 207.365 414.06 207.652C415.82 207.939 417.013 209.598 416.726 211.358Z"
    fill="#164383" />
  <path
    d="M427.052 199.786C426.826 201.175 425.516 202.118 424.126 201.891C422.736 201.664 421.793 200.355 422.02 198.965C422.247 197.576 423.557 196.633 424.947 196.86C426.336 197.086 427.279 198.396 427.052 199.786Z"
    fill="#164383" />
  <path
    d="M435.738 206.863C435.738 206.863 449.323 213.233 453.53 228.137C457.043 240.581 453.891 249.652 453.891 249.652C453.891 249.652 450.024 233.754 448.121 228.859C443.072 215.878 435.738 206.863 435.738 206.863Z"
    fill="#1D5AAF" />
  <path d="M-4.24219 312.033H84.046" stroke="#1D5AAF" stroke-width="3.5" stroke-miterlimit="10"
    stroke-linecap="round" />
  <path d="M374.982 350.066H539.735" stroke="#164383" stroke-width="2.5" stroke-miterlimit="10"
    stroke-linecap="round" />
  <path
    d="M126.327 298.8C126.12 300.799 124.33 302.252 122.329 302.044C120.33 301.837 118.877 300.048 119.084 298.047C119.292 296.048 121.081 294.596 123.081 294.803C125.082 295.011 126.535 296.8 126.327 298.8Z"
    fill="white" stroke="#164383" stroke-width="2.5" stroke-miterlimit="10" />
  <path
    d="M83.1304 15.1046C85.1354 14.9514 86.6365 13.2022 86.4833 11.1978C86.3301 9.19327 84.5805 7.69249 82.5756 7.84568C80.5706 7.99886 79.0695 9.748 79.2227 11.7525C79.376 13.757 81.1255 15.2577 83.1304 15.1046Z"
    fill="white" stroke="#164383" stroke-width="2.5" stroke-miterlimit="10" />
  <path
    d="M537.678 311.766C539.655 311.399 540.959 309.499 540.592 307.522C540.225 305.546 538.324 304.241 536.347 304.608C534.37 304.976 533.065 306.876 533.433 308.852C533.8 310.829 535.701 312.133 537.678 311.766Z"
    fill="white" stroke="#164383" stroke-width="2.5" stroke-miterlimit="10" />
  <path
    d="M444.407 36.892C444.407 38.9027 442.776 40.532 440.766 40.532C438.755 40.532 437.125 38.9018 437.125 36.892C437.125 34.8821 438.756 33.252 440.766 33.252C442.777 33.252 444.407 34.8821 444.407 36.892Z"
    fill="white" stroke="#164383" stroke-width="2.5" stroke-miterlimit="10" />
  <path
    d="M144.783 342.958C144.483 345.842 141.902 347.938 139.018 347.638C136.133 347.338 134.037 344.758 134.337 341.874C134.637 338.99 137.218 336.895 140.103 337.194C142.988 337.494 145.082 340.074 144.783 342.958Z"
    fill="white" stroke="#164383" stroke-width="2.5" stroke-miterlimit="10" />
  <path
    d="M95.1682 204.709C95.1682 207.308 93.0607 209.415 90.4596 209.415C87.8594 209.415 85.752 207.307 85.752 204.709C85.752 202.109 87.8594 200.002 90.4596 200.002C93.0607 200.001 95.1682 202.109 95.1682 204.709Z"
    fill="#1D5AAF" />
  <path
    d="M512.43 281.764C515.395 281.764 517.798 279.361 517.798 276.398C517.798 273.434 515.395 271.031 512.43 271.031C509.466 271.031 507.062 273.434 507.062 276.398C507.062 279.361 509.466 281.764 512.43 281.764Z"
    fill="#27A568" />
  <path
    d="M407.617 53.1262C408.485 49.4359 406.197 45.7406 402.506 44.8724C398.815 44.0043 395.118 46.292 394.25 49.9823C393.382 53.6725 395.67 57.3678 399.361 58.236C403.052 59.1042 406.748 56.8164 407.617 53.1262Z"
    fill="white" stroke="#164383" stroke-width="2.5" stroke-miterlimit="10" />
  <path
    d="M91.7536 335.118C91.4945 337.618 89.2566 339.433 86.7571 339.173C84.2566 338.914 82.4406 336.677 82.7005 334.178C82.9605 331.678 85.1975 329.863 87.697 330.122C90.1966 330.382 92.0126 332.618 91.7536 335.118Z"
    fill="white" stroke="#164383" stroke-width="2.5" stroke-miterlimit="10" />
  <path d="M68.0064 100.913L62.6973 95.6055L57.3881 100.913L62.6973 106.221L68.0064 100.913Z" fill="#27A568" />
  <path d="M20.7776 195.593L17.0645 191.881L13.3513 195.593L17.0645 199.305L20.7776 195.593Z" fill="#27A568" />
  <path d="M177.469 321.29L173.756 317.578L170.043 321.29L173.756 325.003L177.469 321.29Z" fill="#1D5AAF" />
  <path d="M554.192 145.535L550.479 141.822L546.765 145.535L550.479 149.247L554.192 145.535Z" fill="#27A568" />
  <path d="M497.03 320.927L491.721 315.619L486.412 320.927L491.721 326.235L497.03 320.927Z" fill="#1D5AAF" />
  <path d="M455.506 66.6966L450.197 61.3887L444.888 66.6966L450.197 72.0046L455.506 66.6966Z" fill="#1D5AAF" />
</svg>