<svg width="12" height="4" viewBox="0 0 12 4" fill="none" xmlns="http://www.w3.org/2000/svg">
    <path
        d="M2.66667 2.0013C2.66667 2.73768 2.06971 3.33464 1.33333 3.33464C0.596954 3.33464 0 2.73768 0 2.0013C0 1.26492 0.596954 0.667969 1.33333 0.667969C2.06971 0.667969 2.66667 1.26492 2.66667 2.0013Z"
        fill="#F2F2F2" />
    <path
        d="M7.33333 2.0013C7.33333 2.73768 6.73638 3.33464 6 3.33464C5.26362 3.33464 4.66667 2.73768 4.66667 2.0013C4.66667 1.26492 5.26362 0.667969 6 0.667969C6.73638 0.667969 7.33333 1.26492 7.33333 2.0013Z"
        fill="#F2F2F2" />
    <path
        d="M12 2.0013C12 2.73768 11.403 3.33464 10.6667 3.33464C9.93029 3.33464 9.33333 2.73768 9.33333 2.0013C9.33333 1.26492 9.93029 0.667969 10.6667 0.667969C11.403 0.667969 12 1.26492 12 2.0013Z"
        fill="#F2F2F2" />
</svg>