<svg width="16" height="17" viewBox="0 0 16 17" fill="none" xmlns="http://www.w3.org/2000/svg">
    <mask id="path-1-inside-1_5508_31631" fill="white">
        <path
            d="M0.979713 9.44516L1.94638 8.47849L1.01305 7.54516C0.819714 7.35182 0.819714 7.03182 1.01305 6.83849C1.20638 6.64516 1.52638 6.64516 1.71971 6.83849L2.65305 7.77182L3.61971 6.80516C3.81305 6.61182 4.13305 6.61182 4.32638 6.80516C4.51971 6.99849 4.51971 7.31849 4.32638 7.51182L3.35971 8.47849L4.35305 9.47182C4.54638 9.66516 4.54638 9.98516 4.35305 10.1785C4.25305 10.2785 4.12638 10.3252 3.99971 10.3252C3.87305 10.3252 3.74638 10.2785 3.64638 10.1785L2.65305 9.18516L1.68638 10.1518C1.58638 10.2518 1.45971 10.2985 1.33305 10.2985C1.20638 10.2985 1.07971 10.2518 0.979713 10.1518C0.786379 9.95849 0.786379 9.64516 0.979713 9.44516Z" />
    </mask>
    <path
        d="M0.979713 9.44516L1.94638 8.47849L1.01305 7.54516C0.819714 7.35182 0.819714 7.03182 1.01305 6.83849C1.20638 6.64516 1.52638 6.64516 1.71971 6.83849L2.65305 7.77182L3.61971 6.80516C3.81305 6.61182 4.13305 6.61182 4.32638 6.80516C4.51971 6.99849 4.51971 7.31849 4.32638 7.51182L3.35971 8.47849L4.35305 9.47182C4.54638 9.66516 4.54638 9.98516 4.35305 10.1785C4.25305 10.2785 4.12638 10.3252 3.99971 10.3252C3.87305 10.3252 3.74638 10.2785 3.64638 10.1785L2.65305 9.18516L1.68638 10.1518C1.58638 10.2518 1.45971 10.2985 1.33305 10.2985C1.20638 10.2985 1.07971 10.2518 0.979713 10.1518C0.786379 9.95849 0.786379 9.64516 0.979713 9.44516Z"
        fill="#666666" />
    <path
        d="M0.979713 9.44516L0.260724 8.75013L0.266614 8.74404L0.272606 8.73805L0.979713 9.44516ZM1.94638 8.47849L2.65349 7.77138L3.36059 8.47849L2.65349 9.1856L1.94638 8.47849ZM1.01305 7.54516L1.72015 6.83805L1.72015 6.83805L1.01305 7.54516ZM1.71971 6.83849L1.01261 7.5456L1.01261 7.5456L1.71971 6.83849ZM2.65305 7.77182L3.36015 8.47893L2.65305 9.18604L1.94594 8.47893L2.65305 7.77182ZM3.61971 6.80516L4.32682 7.51226L4.32682 7.51226L3.61971 6.80516ZM4.32638 7.51182L3.61927 6.80472L3.61927 6.80472L4.32638 7.51182ZM3.35971 8.47849L2.65261 9.1856L1.9455 8.47849L2.65261 7.77138L3.35971 8.47849ZM4.35305 9.47182L3.64594 10.1789H3.64594L4.35305 9.47182ZM3.64638 10.1785L2.93927 10.8856H2.93927L3.64638 10.1785ZM2.65305 9.18516L1.94594 8.47805L2.65305 7.77094L3.36015 8.47805L2.65305 9.18516ZM1.68638 10.1518L2.39349 10.8589L2.39349 10.8589L1.68638 10.1518ZM0.272606 8.73805L1.23927 7.77138L2.65349 9.1856L1.68682 10.1523L0.272606 8.73805ZM1.23927 9.1856L0.30594 8.25226L1.72015 6.83805L2.65349 7.77138L1.23927 9.1856ZM0.30594 8.25226C-0.277917 7.66841 -0.277917 6.71524 0.30594 6.13138L1.72015 7.5456C1.91734 7.34841 1.91734 7.03524 1.72015 6.83805L0.30594 8.25226ZM0.30594 6.13138C0.889798 5.54753 1.84296 5.54753 2.42682 6.13138L1.01261 7.5456C1.2098 7.74279 1.52296 7.74279 1.72015 7.5456L0.30594 6.13138ZM2.42682 6.13138L3.36015 7.06472L1.94594 8.47893L1.01261 7.5456L2.42682 6.13138ZM1.94594 7.06472L2.91261 6.09805L4.32682 7.51226L3.36015 8.47893L1.94594 7.06472ZM2.91261 6.09805C3.49646 5.51419 4.44963 5.51419 5.03349 6.09805L3.61927 7.51226C3.81646 7.70945 4.12963 7.70945 4.32682 7.51226L2.91261 6.09805ZM5.03349 6.09805C5.61734 6.68191 5.61734 7.63507 5.03349 8.21893L3.61927 6.80472C3.42208 7.00191 3.42208 7.31507 3.61927 7.51226L5.03349 6.09805ZM5.03349 8.21893L4.06682 9.1856L2.65261 7.77138L3.61927 6.80472L5.03349 8.21893ZM4.06682 7.77138L5.06015 8.76472L3.64594 10.1789L2.65261 9.1856L4.06682 7.77138ZM5.06015 8.76472C5.64401 9.34857 5.64401 10.3017 5.06015 10.8856L3.64594 9.47138C3.44875 9.66857 3.44875 9.98174 3.64594 10.1789L5.06015 8.76472ZM5.06015 10.8856C4.76273 11.183 4.37728 11.3252 3.99971 11.3252V9.32516C3.87548 9.32516 3.74336 9.37396 3.64594 9.47138L5.06015 10.8856ZM3.99971 11.3252C3.62214 11.3252 3.23669 11.183 2.93927 10.8856L4.35349 9.47138C4.25606 9.37396 4.12395 9.32516 3.99971 9.32516V11.3252ZM2.93927 10.8856L1.94594 9.89226L3.36015 8.47805L4.35349 9.47138L2.93927 10.8856ZM3.36015 9.89226L2.39349 10.8589L0.979273 9.44472L1.94594 8.47805L3.36015 9.89226ZM2.39349 10.8589C2.09607 11.1563 1.71062 11.2985 1.33305 11.2985V9.29849C1.20881 9.29849 1.07669 9.3473 0.979273 9.44472L2.39349 10.8589ZM1.33305 11.2985C0.955474 11.2985 0.570025 11.1563 0.272606 10.8589L1.68682 9.44472C1.5894 9.3473 1.45729 9.29849 1.33305 9.29849V11.2985ZM0.272606 10.8589C-0.317735 10.2686 -0.300807 9.33103 0.260724 8.75013L1.6987 10.1402C1.87357 9.95928 1.89049 9.64839 1.68682 9.44472L0.272606 10.8589Z"
        fill="#666666" mask="url(#path-1-inside-1_5508_31631)" />
    <path
        d="M11.0154 4.96986L11.0154 4.96994L11.0072 4.96479L9.06154 3.74544C9.06136 3.74533 9.06119 3.74523 9.06101 3.74512C8.18204 3.19744 7.42973 3.16295 6.8957 3.45809C6.3675 3.75357 5.99935 4.40567 5.99935 5.44112V11.5611C5.99935 12.5968 6.36768 13.249 6.89609 13.5444C7.1159 13.6663 7.36437 13.7278 7.63268 13.7278C8.0519 13.7278 8.53438 13.5862 9.06059 13.2574C9.06073 13.2573 9.06087 13.2572 9.06102 13.2571L11.0072 12.0374L11.0071 12.0374L11.0154 12.0324C11.218 11.9109 11.4593 11.8345 11.7127 11.8345H12.3327H12.666C13.3836 11.8345 13.8647 11.6386 14.1675 11.3359C14.4702 11.0332 14.666 10.552 14.666 9.83445V7.16778C14.666 6.4502 14.4702 5.96905 14.1675 5.66634C13.8647 5.36362 13.3836 5.16778 12.666 5.16778H12.3327H11.7127C11.4593 5.16778 11.218 5.09137 11.0154 4.96986Z"
        fill="#666666" stroke="#666666" />
</svg>