<svg width="448" height="539" viewBox="0 0 448 539" fill="none" xmlns="http://www.w3.org/2000/svg">
    <g filter="url(#filter0_dd_4448_43640)">
        <mask id="path-1-inside-1_4448_43640" fill="white">
            <path fill-rule="evenodd" clip-rule="evenodd"
                d="M12.0464 290.748C11.8245 291.954 12.481 293.45 13.7938 296.442L30.2228 333.884L13.7938 371.327C12.481 374.319 11.8245 375.815 12.0464 377.021C12.2403 378.076 12.8496 379.009 13.7375 379.61C14.7535 380.298 16.3871 380.298 19.6544 380.298H76.4828C80.9633 380.298 83.2035 380.298 84.9148 379.426C86.4201 378.659 87.6439 377.435 88.4109 375.93C89.2828 374.219 89.2828 371.979 89.2828 367.498V300.271C89.2828 295.79 89.2828 293.55 88.4109 291.839C87.6439 290.333 86.4201 289.11 84.9148 288.343C83.2035 287.471 80.9632 287.471 76.4828 287.471H19.6544C16.3871 287.471 14.7535 287.471 13.7375 288.159C12.8496 288.76 12.2403 289.693 12.0464 290.748ZM434.206 296.442L434.206 296.442L417.777 333.884L434.206 371.327L434.206 371.327C435.519 374.319 436.175 375.815 435.953 377.021C435.759 378.076 435.15 379.009 434.262 379.61C433.246 380.298 431.612 380.298 428.345 380.298H371.517C367.036 380.298 364.796 380.298 363.085 379.426C361.58 378.659 360.356 377.435 359.589 375.93C358.717 374.219 358.717 371.979 358.717 367.498V300.271C358.717 295.79 358.717 293.55 359.589 291.839C360.356 290.333 361.58 289.11 363.085 288.343C364.796 287.471 367.036 287.471 371.517 287.471H428.345C431.612 287.471 433.246 287.471 434.262 288.159C435.15 288.76 435.759 289.693 435.953 290.748C436.175 291.954 435.519 293.45 434.206 296.442Z" />
        </mask>
        <path fill-rule="evenodd" clip-rule="evenodd"
            d="M12.0464 290.748C11.8245 291.954 12.481 293.45 13.7938 296.442L30.2228 333.884L13.7938 371.327C12.481 374.319 11.8245 375.815 12.0464 377.021C12.2403 378.076 12.8496 379.009 13.7375 379.61C14.7535 380.298 16.3871 380.298 19.6544 380.298H76.4828C80.9633 380.298 83.2035 380.298 84.9148 379.426C86.4201 378.659 87.6439 377.435 88.4109 375.93C89.2828 374.219 89.2828 371.979 89.2828 367.498V300.271C89.2828 295.79 89.2828 293.55 88.4109 291.839C87.6439 290.333 86.4201 289.11 84.9148 288.343C83.2035 287.471 80.9632 287.471 76.4828 287.471H19.6544C16.3871 287.471 14.7535 287.471 13.7375 288.159C12.8496 288.76 12.2403 289.693 12.0464 290.748ZM434.206 296.442L434.206 296.442L417.777 333.884L434.206 371.327L434.206 371.327C435.519 374.319 436.175 375.815 435.953 377.021C435.759 378.076 435.15 379.009 434.262 379.61C433.246 380.298 431.612 380.298 428.345 380.298H371.517C367.036 380.298 364.796 380.298 363.085 379.426C361.58 378.659 360.356 377.435 359.589 375.93C358.717 374.219 358.717 371.979 358.717 367.498V300.271C358.717 295.79 358.717 293.55 359.589 291.839C360.356 290.333 361.58 289.11 363.085 288.343C364.796 287.471 367.036 287.471 371.517 287.471H428.345C431.612 287.471 433.246 287.471 434.262 288.159C435.15 288.76 435.759 289.693 435.953 290.748C436.175 291.954 435.519 293.45 434.206 296.442Z"
            fill="#FFA00F" />
        <path
            d="M13.7938 296.442L14.2516 296.241L13.7938 296.442ZM12.0464 290.748L12.5382 290.838L12.0464 290.748ZM30.2228 333.884L30.6806 334.085L30.7688 333.884L30.6806 333.684L30.2228 333.884ZM13.7938 371.327L13.3359 371.126L13.7938 371.327ZM12.0464 377.021L11.5546 377.112H11.5546L12.0464 377.021ZM13.7375 379.61L13.4571 380.024H13.4571L13.7375 379.61ZM84.9148 379.426L84.6878 378.981L84.9148 379.426ZM88.4109 375.93L88.8564 376.157L88.4109 375.93ZM88.4109 291.839L88.8564 291.612V291.612L88.4109 291.839ZM84.9148 288.343L85.1418 287.897V287.897L84.9148 288.343ZM13.7375 288.159L13.4571 287.745L13.7375 288.159ZM434.206 296.442L433.759 296.217L433.753 296.229L433.748 296.241L434.206 296.442ZM434.206 296.442L434.653 296.667L434.659 296.655L434.664 296.643L434.206 296.442ZM417.777 333.884L417.319 333.684L417.231 333.884L417.319 334.085L417.777 333.884ZM434.206 371.327L433.748 371.528L433.753 371.539L434.206 371.327ZM434.206 371.327L434.664 371.126L434.658 371.114L434.206 371.327ZM435.953 377.021L435.461 376.931V376.931L435.953 377.021ZM434.262 379.61L433.982 379.196L434.262 379.61ZM363.085 379.426L362.858 379.872L363.085 379.426ZM359.589 375.93L359.143 376.157V376.157L359.589 375.93ZM359.589 291.839L359.143 291.612V291.612L359.589 291.839ZM363.085 288.343L362.858 287.897V287.897L363.085 288.343ZM434.262 288.159L433.982 288.573V288.573L434.262 288.159ZM435.953 290.748L435.461 290.838V290.838L435.953 290.748ZM14.2516 296.241C13.5914 294.737 13.1103 293.639 12.8188 292.767C12.5274 291.895 12.4501 291.317 12.5382 290.838L11.5546 290.657C11.4208 291.385 11.5608 292.158 11.8704 293.084C12.1798 294.01 12.6834 295.156 13.3359 296.643L14.2516 296.241ZM30.6806 333.684L14.2516 296.241L13.3359 296.643L29.7649 334.085L30.6806 333.684ZM14.2516 371.527L30.6806 334.085L29.7649 333.684L13.3359 371.126L14.2516 371.527ZM12.5382 376.931C12.4501 376.452 12.5274 375.873 12.8188 375.002C13.1103 374.13 13.5914 373.032 14.2516 371.527L13.3359 371.126C12.6834 372.613 12.1798 373.759 11.8704 374.685C11.5608 375.611 11.4208 376.384 11.5546 377.112L12.5382 376.931ZM14.0179 379.196C13.2409 378.67 12.7078 377.854 12.5382 376.931L11.5546 377.112C11.7728 378.298 12.4582 379.348 13.4571 380.024L14.0179 379.196ZM19.6544 379.798C18.0111 379.798 16.8129 379.798 15.8971 379.714C14.9819 379.631 14.4209 379.469 14.0179 379.196L13.4571 380.024C14.07 380.439 14.8339 380.621 15.8063 380.71C16.7782 380.799 18.0304 380.798 19.6544 380.798V379.798ZM76.4828 379.798H19.6544V380.798H76.4828V379.798ZM84.6878 378.981C83.9144 379.375 82.9996 379.584 81.6965 379.691C80.3876 379.798 78.7313 379.798 76.4828 379.798V380.798C78.7148 380.798 80.4188 380.799 81.7779 380.687C83.1429 380.576 84.2039 380.35 85.1418 379.872L84.6878 378.981ZM87.9654 375.703C87.2463 377.114 86.099 378.262 84.6878 378.981L85.1418 379.872C86.7411 379.057 88.0415 377.756 88.8564 376.157L87.9654 375.703ZM88.7828 367.498C88.7828 369.747 88.7824 371.403 88.6755 372.712C88.569 374.015 88.3595 374.93 87.9654 375.703L88.8564 376.157C89.3343 375.219 89.5607 374.158 89.6722 372.793C89.7832 371.434 89.7828 369.73 89.7828 367.498H88.7828ZM88.7828 300.271V367.498H89.7828V300.271H88.7828ZM87.9654 292.066C88.3595 292.839 88.569 293.754 88.6755 295.057C88.7824 296.366 88.7828 298.022 88.7828 300.271H89.7828C89.7828 298.039 89.7832 296.335 89.6722 294.976C89.5607 293.611 89.3343 292.55 88.8564 291.612L87.9654 292.066ZM84.6878 288.788C86.099 289.507 87.2463 290.655 87.9654 292.066L88.8564 291.612C88.0415 290.012 86.7411 288.712 85.1418 287.897L84.6878 288.788ZM76.4828 287.971C78.7313 287.971 80.3876 287.971 81.6965 288.078C82.9996 288.185 83.9144 288.394 84.6878 288.788L85.1418 287.897C84.2039 287.419 83.1429 287.193 81.7779 287.081C80.4188 286.97 78.7148 286.971 76.4828 286.971V287.971ZM19.6544 287.971H76.4828V286.971H19.6544V287.971ZM14.0179 288.573C14.4209 288.3 14.9819 288.138 15.8971 288.055C16.8129 287.971 18.0111 287.971 19.6544 287.971V286.971C18.0304 286.971 16.7782 286.97 15.8063 287.059C14.8339 287.147 14.07 287.33 13.4571 287.745L14.0179 288.573ZM12.5382 290.838C12.7078 289.915 13.2409 289.099 14.0179 288.573L13.4571 287.745C12.4582 288.421 11.7728 289.471 11.5546 290.657L12.5382 290.838ZM434.652 296.667L434.653 296.667L433.759 296.217L433.759 296.217L434.652 296.667ZM418.235 334.085L434.664 296.643L433.748 296.241L417.319 333.684L418.235 334.085ZM434.664 371.126L418.235 333.684L417.319 334.085L433.748 371.527L434.664 371.126ZM434.658 371.114L434.658 371.114L433.753 371.539L433.754 371.54L434.658 371.114ZM436.445 377.112C436.579 376.384 436.439 375.611 436.129 374.685C435.82 373.759 435.316 372.613 434.664 371.126L433.748 371.528C434.408 373.033 434.889 374.13 435.181 375.002C435.472 375.874 435.549 376.452 435.461 376.931L436.445 377.112ZM434.542 380.024C435.541 379.348 436.227 378.298 436.445 377.112L435.461 376.931C435.292 377.854 434.759 378.67 433.982 379.196L434.542 380.024ZM428.345 380.798C429.969 380.798 431.221 380.799 432.193 380.71C433.166 380.621 433.93 380.439 434.542 380.024L433.982 379.196C433.579 379.469 433.018 379.631 432.103 379.714C431.187 379.798 429.988 379.798 428.345 379.798V380.798ZM371.517 380.798H428.345V379.798H371.517V380.798ZM362.858 379.872C363.796 380.35 364.857 380.576 366.222 380.687C367.581 380.799 369.285 380.798 371.517 380.798V379.798C369.268 379.798 367.612 379.798 366.303 379.691C365 379.584 364.085 379.375 363.312 378.981L362.858 379.872ZM359.143 376.157C359.958 377.756 361.258 379.057 362.858 379.872L363.312 378.981C361.901 378.262 360.753 377.114 360.034 375.703L359.143 376.157ZM358.217 367.498C358.217 369.73 358.216 371.434 358.327 372.793C358.439 374.158 358.665 375.219 359.143 376.157L360.034 375.703C359.64 374.93 359.431 374.015 359.324 372.712C359.217 371.403 359.217 369.747 359.217 367.498H358.217ZM358.217 300.271V367.498H359.217V300.271H358.217ZM359.143 291.612C358.665 292.55 358.439 293.611 358.327 294.976C358.216 296.335 358.217 298.039 358.217 300.271H359.217C359.217 298.022 359.217 296.366 359.324 295.057C359.431 293.754 359.64 292.839 360.034 292.066L359.143 291.612ZM362.858 287.897C361.258 288.712 359.958 290.012 359.143 291.612L360.034 292.066C360.753 290.655 361.901 289.507 363.312 288.788L362.858 287.897ZM371.517 286.971C369.285 286.971 367.581 286.97 366.222 287.081C364.857 287.193 363.796 287.419 362.858 287.897L363.312 288.788C364.085 288.394 365 288.185 366.303 288.078C367.612 287.971 369.268 287.971 371.517 287.971V286.971ZM428.345 286.971H371.517V287.971H428.345V286.971ZM434.542 287.745C433.93 287.33 433.166 287.147 432.193 287.059C431.221 286.97 429.969 286.971 428.345 286.971V287.971C429.988 287.971 431.187 287.971 432.103 288.055C433.018 288.138 433.579 288.3 433.982 288.573L434.542 287.745ZM436.445 290.657C436.227 289.471 435.541 288.421 434.542 287.745L433.982 288.573C434.759 289.099 435.292 289.915 435.461 290.838L436.445 290.657ZM434.664 296.643C435.316 295.156 435.82 294.009 436.129 293.084C436.439 292.158 436.579 291.385 436.445 290.657L435.461 290.838C435.549 291.317 435.472 291.895 435.181 292.767C434.889 293.639 434.408 294.736 433.748 296.241L434.664 296.643Z"
            fill="url(#paint0_linear_4448_43640)" style="mix-blend-mode:darken"
            mask="url(#path-1-inside-1_4448_43640)" />
    </g>
    <path fill-rule="evenodd" clip-rule="evenodd"
        d="M12.0464 290.748C11.8245 291.954 12.481 293.45 13.7938 296.442L30.2228 333.884L13.7938 371.327C12.481 374.319 11.8245 375.815 12.0464 377.021C12.2403 378.076 12.8496 379.009 13.7375 379.61C14.7535 380.298 16.3871 380.298 19.6544 380.298H76.4828C80.9633 380.298 83.2035 380.298 84.9148 379.426C86.4201 378.659 87.6439 377.435 88.4109 375.93C89.2828 374.219 89.2828 371.979 89.2828 367.498V300.271C89.2828 295.79 89.2828 293.55 88.4109 291.839C87.6439 290.333 86.4201 289.11 84.9148 288.343C83.2035 287.471 80.9632 287.471 76.4828 287.471H19.6544C16.3871 287.471 14.7535 287.471 13.7375 288.159C12.8496 288.76 12.2403 289.693 12.0464 290.748ZM434.206 296.442L434.206 296.442L417.777 333.884L434.206 371.327L434.206 371.327C435.519 374.319 436.175 375.815 435.953 377.021C435.759 378.076 435.15 379.009 434.262 379.61C433.246 380.298 431.612 380.298 428.345 380.298H371.517C367.036 380.298 364.796 380.298 363.085 379.426C361.58 378.659 360.356 377.435 359.589 375.93C358.717 374.219 358.717 371.979 358.717 367.498V300.271C358.717 295.79 358.717 293.55 359.589 291.839C360.356 290.333 361.58 289.11 363.085 288.343C364.796 287.471 367.036 287.471 371.517 287.471H428.345C431.612 287.471 433.246 287.471 434.262 288.159C435.15 288.76 435.759 289.693 435.953 290.748C436.175 291.954 435.519 293.45 434.206 296.442Z"
        fill="url(#paint1_linear_4448_43640)" fill-opacity="0.3" style="mix-blend-mode:overlay" />
    <path fill-rule="evenodd" clip-rule="evenodd"
        d="M12.0464 290.748C11.8245 291.954 12.481 293.45 13.7938 296.442L30.2228 333.884L13.7938 371.327C12.481 374.319 11.8245 375.815 12.0464 377.021C12.2403 378.076 12.8496 379.009 13.7375 379.61C14.7535 380.298 16.3871 380.298 19.6544 380.298H76.4828C80.9633 380.298 83.2035 380.298 84.9148 379.426C86.4201 378.659 87.6439 377.435 88.4109 375.93C89.2828 374.219 89.2828 371.979 89.2828 367.498V300.271C89.2828 295.79 89.2828 293.55 88.4109 291.839C87.6439 290.333 86.4201 289.11 84.9148 288.343C83.2035 287.471 80.9632 287.471 76.4828 287.471H19.6544C16.3871 287.471 14.7535 287.471 13.7375 288.159C12.8496 288.76 12.2403 289.693 12.0464 290.748ZM434.206 296.442L434.206 296.442L417.777 333.884L434.206 371.327L434.206 371.327C435.519 374.319 436.175 375.815 435.953 377.021C435.759 378.076 435.15 379.009 434.262 379.61C433.246 380.298 431.612 380.298 428.345 380.298H371.517C367.036 380.298 364.796 380.298 363.085 379.426C361.58 378.659 360.356 377.435 359.589 375.93C358.717 374.219 358.717 371.979 358.717 367.498V300.271C358.717 295.79 358.717 293.55 359.589 291.839C360.356 290.333 361.58 289.11 363.085 288.343C364.796 287.471 367.036 287.471 371.517 287.471H428.345C431.612 287.471 433.246 287.471 434.262 288.159C435.15 288.76 435.759 289.693 435.953 290.748C436.175 291.954 435.519 293.45 434.206 296.442Z"
        fill="url(#paint2_radial_4448_43640)" fill-opacity="0.6" style="mix-blend-mode:overlay" />
    <path fill-rule="evenodd" clip-rule="evenodd"
        d="M12.0464 290.748C11.8245 291.954 12.481 293.45 13.7938 296.442L30.2228 333.884L13.7938 371.327C12.481 374.319 11.8245 375.815 12.0464 377.021C12.2403 378.076 12.8496 379.009 13.7375 379.61C14.7535 380.298 16.3871 380.298 19.6544 380.298H76.4828C80.9633 380.298 83.2035 380.298 84.9148 379.426C86.4201 378.659 87.6439 377.435 88.4109 375.93C89.2828 374.219 89.2828 371.979 89.2828 367.498V300.271C89.2828 295.79 89.2828 293.55 88.4109 291.839C87.6439 290.333 86.4201 289.11 84.9148 288.343C83.2035 287.471 80.9632 287.471 76.4828 287.471H19.6544C16.3871 287.471 14.7535 287.471 13.7375 288.159C12.8496 288.76 12.2403 289.693 12.0464 290.748ZM434.206 296.442L434.206 296.442L417.777 333.884L434.206 371.327L434.206 371.327C435.519 374.319 436.175 375.815 435.953 377.021C435.759 378.076 435.15 379.009 434.262 379.61C433.246 380.298 431.612 380.298 428.345 380.298H371.517C367.036 380.298 364.796 380.298 363.085 379.426C361.58 378.659 360.356 377.435 359.589 375.93C358.717 374.219 358.717 371.979 358.717 367.498V300.271C358.717 295.79 358.717 293.55 359.589 291.839C360.356 290.333 361.58 289.11 363.085 288.343C364.796 287.471 367.036 287.471 371.517 287.471H428.345C431.612 287.471 433.246 287.471 434.262 288.159C435.15 288.76 435.759 289.693 435.953 290.748C436.175 291.954 435.519 293.45 434.206 296.442Z"
        fill="black" fill-opacity="0.24" style="mix-blend-mode:overlay" />
    <path fill-rule="evenodd" clip-rule="evenodd"
        d="M12.0464 290.748C11.8245 291.954 12.481 293.45 13.7938 296.442L30.2228 333.884L13.7938 371.327C12.481 374.319 11.8245 375.815 12.0464 377.021C12.2403 378.076 12.8496 379.009 13.7375 379.61C14.7535 380.298 16.3871 380.298 19.6544 380.298H76.4828C80.9633 380.298 83.2035 380.298 84.9148 379.426C86.4201 378.659 87.6439 377.435 88.4109 375.93C89.2828 374.219 89.2828 371.979 89.2828 367.498V300.271C89.2828 295.79 89.2828 293.55 88.4109 291.839C87.6439 290.333 86.4201 289.11 84.9148 288.343C83.2035 287.471 80.9632 287.471 76.4828 287.471H19.6544C16.3871 287.471 14.7535 287.471 13.7375 288.159C12.8496 288.76 12.2403 289.693 12.0464 290.748ZM434.206 296.442L434.206 296.442L417.777 333.884L434.206 371.327L434.206 371.327C435.519 374.319 436.175 375.815 435.953 377.021C435.759 378.076 435.15 379.009 434.262 379.61C433.246 380.298 431.612 380.298 428.345 380.298H371.517C367.036 380.298 364.796 380.298 363.085 379.426C361.58 378.659 360.356 377.435 359.589 375.93C358.717 374.219 358.717 371.979 358.717 367.498V300.271C358.717 295.79 358.717 293.55 359.589 291.839C360.356 290.333 361.58 289.11 363.085 288.343C364.796 287.471 367.036 287.471 371.517 287.471H428.345C431.612 287.471 433.246 287.471 434.262 288.159C435.15 288.76 435.759 289.693 435.953 290.748C436.175 291.954 435.519 293.45 434.206 296.442Z"
        fill="black" fill-opacity="0.12" style="mix-blend-mode:darken" />
    <g filter="url(#filter1_dddd_4448_43640)">
        <path
            d="M42.0162 109.066C42.1142 101.752 42.1632 98.0945 43.6411 94.5383C44.911 91.4823 47.1006 88.587 49.6952 86.5328C52.7145 84.1423 56.803 82.9257 64.9799 80.4925C114.549 65.7422 161.989 42.3198 205.43 14.3057C212.422 9.79636 215.919 7.54169 219.299 6.75344C222.459 6.01654 225.223 6.01654 228.383 6.75344C231.763 7.54169 235.259 9.79636 242.252 14.3057C285.693 42.3198 333.133 65.7422 382.702 80.4925C390.879 82.9257 394.967 84.1423 397.987 86.5328C400.581 88.587 402.771 91.4823 404.041 94.5383C405.518 98.0945 405.567 101.752 405.665 109.066C406.138 144.285 402.572 214.581 371.978 276.72C333.894 354.073 266.507 400.871 237.618 418.259C233.436 420.776 231.345 422.035 228.142 422.74C225.738 423.269 221.943 423.269 219.54 422.74C216.337 422.035 214.246 420.776 210.064 418.259C181.175 400.871 113.788 354.073 75.7036 276.72C45.1098 214.581 41.5442 144.285 42.0162 109.066Z"
            fill="black" />
    </g>
    <mask id="mask0_4448_43640" style="mask-type:alpha" maskUnits="userSpaceOnUse" x="41" y="6"
        width="365" height="418">
        <path
            d="M42.0162 109.066C42.1142 101.752 42.1632 98.0945 43.6411 94.5383C44.911 91.4823 47.1006 88.587 49.6952 86.5328C52.7145 84.1423 56.803 82.9257 64.9799 80.4925C114.549 65.7422 161.989 42.3198 205.43 14.3057C212.422 9.79636 215.919 7.54169 219.299 6.75344C222.459 6.01654 225.223 6.01654 228.383 6.75344C231.763 7.54169 235.259 9.79636 242.252 14.3057C285.693 42.3198 333.133 65.7422 382.702 80.4925C390.879 82.9257 394.967 84.1423 397.987 86.5328C400.581 88.587 402.771 91.4823 404.041 94.5383C405.518 98.0945 405.567 101.752 405.665 109.066C406.138 144.285 402.572 214.581 371.978 276.72C333.894 354.073 266.507 400.871 237.618 418.259C233.436 420.776 231.345 422.035 228.142 422.74C225.738 423.269 221.943 423.269 219.54 422.74C216.337 422.035 214.246 420.776 210.064 418.259C181.175 400.871 113.788 354.073 75.7036 276.72C45.1098 214.581 41.5442 144.285 42.0162 109.066Z"
            fill="black" />
    </mask>
    <g mask="url(#mask0_4448_43640)">
        <mask id="mask1_4448_43640" style="mask-type:alpha" maskUnits="userSpaceOnUse" x="41" y="6"
            width="365" height="418">
            <path
                d="M42.0162 109.066C42.1142 101.752 42.1632 98.0945 43.6411 94.5383C44.911 91.4823 47.1006 88.587 49.6952 86.5328C52.7145 84.1423 56.803 82.9257 64.9799 80.4925C114.549 65.7422 161.989 42.3198 205.43 14.3057C212.422 9.79636 215.919 7.54169 219.299 6.75344C222.459 6.01654 225.223 6.01654 228.383 6.75344C231.763 7.54169 235.259 9.79636 242.252 14.3057C285.693 42.3198 333.133 65.7422 382.702 80.4925C390.879 82.9257 394.967 84.1423 397.987 86.5328C400.581 88.587 402.771 91.4823 404.041 94.5383C405.518 98.0945 405.567 101.752 405.665 109.066C406.138 144.285 402.572 214.581 371.978 276.72C333.894 354.073 266.507 400.871 237.618 418.259C233.436 420.776 231.345 422.035 228.142 422.74C225.738 423.269 221.943 423.269 219.54 422.74C216.337 422.035 214.246 420.776 210.064 418.259C181.175 400.871 113.788 354.073 75.7036 276.72C45.1098 214.581 41.5442 144.285 42.0162 109.066Z"
                fill="black" />
        </mask>
        <g mask="url(#mask1_4448_43640)">
            <rect x="-51.5117" y="-62.1289" width="550.235" height="549.63" fill="#2BB572" />
            <rect x="-51.5117" y="-62.1289" width="550.235" height="549.63"
                fill="url(#paint3_linear_4448_43640)" fill-opacity="0.6"
                style="mix-blend-mode:overlay" />
            <rect x="-51.5117" y="-62.1289" width="550.235" height="549.63"
                fill="url(#paint4_radial_4448_43640)" fill-opacity="0.6"
                style="mix-blend-mode:overlay" />
            <rect x="-51.5117" y="-62.1289" width="550.235" height="549.63" fill="black"
                fill-opacity="0.16" style="mix-blend-mode:overlay" />
            <rect x="-51.5117" y="-62.1289" width="550.235" height="549.63" fill="black"
                fill-opacity="0.12" style="mix-blend-mode:darken" />
        </g>
        <g filter="url(#filter2_d_4448_43640)">
            <mask id="mask2_4448_43640" style="mask-type:alpha" maskUnits="userSpaceOnUse" x="41"
                y="6" width="365" height="418">
                <path fill-rule="evenodd" clip-rule="evenodd"
                    d="M67.2596 88.1606C117.692 73.1533 165.819 49.3681 209.764 21.0293C213.339 18.7235 215.732 17.1839 217.651 16.1005C219.525 15.042 220.486 14.6912 221.114 14.5448C223.078 14.0866 224.6 14.0866 226.564 14.5448C227.192 14.6912 228.153 15.042 230.027 16.1005C231.945 17.1839 234.339 18.7235 237.914 21.0293C281.858 49.3681 329.986 73.1533 380.418 88.1606C389.273 90.7955 391.502 91.6046 393.019 92.8054C394.547 94.0154 395.903 95.8086 396.651 97.6087C397.409 99.4312 397.559 101.312 397.664 109.174C398.131 143.965 394.557 212.745 364.799 273.187C327.719 348.5 261.888 394.313 233.49 411.406C229.113 414.04 228.129 414.551 226.419 414.928C225.149 415.207 222.528 415.207 221.258 414.928C219.549 414.551 218.564 414.04 214.188 411.406C185.79 394.313 119.959 348.5 82.8789 273.187C53.1206 212.745 49.5472 143.965 50.0135 109.174C50.1189 101.312 50.2693 99.4312 51.0266 97.6087C51.7747 95.8086 53.1308 94.0154 54.6591 92.8054C56.1758 91.6046 58.4052 90.7955 67.2596 88.1606ZM42.0142 109.067C42.1123 101.752 42.1613 98.0949 43.6391 94.5387C44.9091 91.4827 47.0986 88.5874 49.6932 86.5332C52.7125 84.1428 56.801 82.9261 64.9779 80.4929C114.547 65.7426 161.987 42.3202 205.428 14.3061C212.42 9.79677 215.917 7.5421 219.297 6.75384C222.457 6.01695 225.221 6.01695 228.381 6.75384C231.761 7.5421 235.257 9.79677 242.25 14.3061C285.691 42.3202 333.131 65.7426 382.7 80.4929C390.877 82.9261 394.965 84.1428 397.985 86.5332C400.579 88.5874 402.769 91.4827 404.039 94.5387C405.516 98.0949 405.565 101.752 405.664 109.067C406.136 144.285 402.57 214.581 371.976 276.72C333.892 354.073 266.505 400.871 237.616 418.26C233.434 420.777 231.343 422.035 228.14 422.741C225.736 423.27 221.941 423.27 219.538 422.741C216.335 422.035 214.244 420.777 210.062 418.26C181.173 400.871 113.786 354.073 75.7016 276.72C45.1078 214.581 41.5422 144.285 42.0142 109.067ZM211.113 66.0062C192.705 76.5768 174.355 87.114 155.073 96.1908C136.152 105.098 116.703 112.328 97.1675 119.59C95.933 120.049 94.6983 120.508 93.4633 120.968C91.9246 121.54 91.1553 121.827 90.5903 122.334C90.0955 122.778 89.7111 123.353 89.4899 123.979C89.2372 124.695 89.2663 125.507 89.3245 127.131C90.9052 171.206 98.4152 216.105 118.023 255.93C140.719 302.027 178.038 340.149 220.316 368.877C221.565 369.725 222.189 370.15 222.893 370.321C223.502 370.469 224.175 370.469 224.784 370.321C225.488 370.15 226.112 369.725 227.361 368.877C269.639 340.149 306.958 302.028 329.654 255.93C349.262 216.105 356.772 171.206 358.353 127.131C358.411 125.507 358.44 124.695 358.187 123.979C357.966 123.353 357.582 122.778 357.087 122.334C356.522 121.827 355.753 121.54 354.214 120.968C353.011 120.52 351.808 120.073 350.605 119.626C331.048 112.354 311.508 105.089 292.604 96.1908C273.322 87.114 254.972 76.5769 236.564 66.0062C233.38 64.1775 230.193 62.3478 227 60.5245C225.851 59.8686 225.277 59.5406 224.663 59.4113C224.121 59.2973 223.556 59.2973 223.014 59.4113C222.4 59.5406 221.826 59.8686 220.677 60.5245C217.484 62.3478 214.298 64.1775 211.113 66.0062Z"
                    fill="url(#paint5_linear_4448_43640)" />
            </mask>
            <g mask="url(#mask2_4448_43640)">
                <rect x="-51.5117" y="-62.1289" width="550.235" height="549.63" fill="#2BB572" />
                <rect x="-53.4766" y="-62.1289" width="550.235" height="549.63"
                    fill="url(#paint6_linear_4448_43640)" fill-opacity="0.6"
                    style="mix-blend-mode:overlay" />
                <rect x="-53.4766" y="-62.1289" width="550.235" height="549.63"
                    fill="url(#paint7_radial_4448_43640)" fill-opacity="0.6"
                    style="mix-blend-mode:overlay" />
                <g style="mix-blend-mode:soft-light">
                    <path fill-rule="evenodd" clip-rule="evenodd"
                        d="M-51.5117 -62.1289H223.606V487.501H-51.5117V-62.1289Z"
                        fill="url(#paint8_linear_4448_43640)" style="mix-blend-mode:lighten" />
                </g>
                <g style="mix-blend-mode:soft-light">
                    <mask id="path-15-inside-2_4448_43640" fill="white">
                        <path fill-rule="evenodd" clip-rule="evenodd"
                            d="M67.2596 88.1606C117.692 73.1533 165.819 49.3681 209.764 21.0293C213.339 18.7235 215.732 17.1839 217.651 16.1005C219.525 15.042 220.486 14.6912 221.114 14.5448C223.078 14.0866 224.6 14.0866 226.564 14.5448C227.192 14.6912 228.153 15.042 230.027 16.1005C231.945 17.1839 234.339 18.7235 237.914 21.0293C281.858 49.3681 329.986 73.1533 380.418 88.1606C389.273 90.7955 391.502 91.6046 393.019 92.8054C394.547 94.0154 395.903 95.8086 396.651 97.6087C397.409 99.4312 397.559 101.312 397.664 109.174C398.131 143.965 394.557 212.745 364.799 273.187C327.719 348.5 261.888 394.313 233.49 411.406C229.113 414.04 228.129 414.551 226.419 414.928C225.149 415.207 222.528 415.207 221.258 414.928C219.549 414.551 218.564 414.04 214.188 411.406C185.79 394.313 119.959 348.5 82.8789 273.187C53.1206 212.745 49.5472 143.965 50.0135 109.174C50.1189 101.312 50.2693 99.4312 51.0266 97.6087C51.7747 95.8086 53.1308 94.0154 54.6591 92.8054C56.1758 91.6046 58.4052 90.7955 67.2596 88.1606ZM42.0142 109.067C42.1123 101.752 42.1613 98.0949 43.6391 94.5387C44.9091 91.4827 47.0986 88.5874 49.6932 86.5332C52.7125 84.1428 56.801 82.9261 64.9779 80.4929C114.547 65.7426 161.987 42.3202 205.428 14.3061C212.42 9.79677 215.917 7.5421 219.297 6.75384C222.457 6.01695 225.221 6.01695 228.381 6.75384C231.761 7.5421 235.257 9.79677 242.25 14.3061C285.691 42.3202 333.131 65.7426 382.7 80.4929C390.877 82.9261 394.965 84.1428 397.985 86.5332C400.579 88.5874 402.769 91.4827 404.039 94.5387C405.516 98.0949 405.565 101.752 405.664 109.067C406.136 144.285 402.57 214.581 371.976 276.72C333.892 354.073 266.505 400.871 237.616 418.26C233.434 420.777 231.343 422.035 228.14 422.741C225.736 423.27 221.941 423.27 219.538 422.741C216.335 422.035 214.244 420.777 210.062 418.26C181.173 400.871 113.786 354.073 75.7016 276.72C45.1078 214.581 41.5422 144.285 42.0142 109.067ZM211.113 66.0062C192.705 76.5768 174.355 87.114 155.073 96.1908C136.152 105.098 116.703 112.328 97.1675 119.59C95.933 120.049 94.6983 120.508 93.4633 120.968C91.9246 121.54 91.1553 121.827 90.5903 122.334C90.0955 122.778 89.7111 123.353 89.4899 123.979C89.2372 124.695 89.2663 125.507 89.3245 127.131C90.9052 171.206 98.4152 216.105 118.023 255.93C140.719 302.027 178.038 340.149 220.316 368.877C221.565 369.725 222.189 370.15 222.893 370.321C223.502 370.469 224.175 370.469 224.784 370.321C225.488 370.15 226.112 369.725 227.361 368.877C269.639 340.149 306.958 302.028 329.654 255.93C349.262 216.105 356.772 171.206 358.353 127.131C358.411 125.507 358.44 124.695 358.187 123.979C357.966 123.353 357.582 122.778 357.087 122.334C356.522 121.827 355.753 121.54 354.214 120.968C353.011 120.52 351.808 120.073 350.605 119.626C331.048 112.354 311.508 105.089 292.604 96.1908C273.322 87.114 254.972 76.5769 236.564 66.0062C233.38 64.1775 230.193 62.3478 227 60.5245C225.851 59.8686 225.277 59.5406 224.663 59.4113C224.121 59.2973 223.556 59.2973 223.014 59.4113C222.4 59.5406 221.826 59.8686 220.677 60.5245C217.484 62.3478 214.298 64.1775 211.113 66.0062Z" />
                    </mask>
                    <path
                        d="M209.764 21.0293L210.034 21.4495V21.4495L209.764 21.0293ZM67.2596 88.1606L67.117 87.6814L67.2596 88.1606ZM217.651 16.1005L217.405 15.6651L217.651 16.1005ZM221.114 14.5448L221.227 15.0317L221.114 14.5448ZM226.564 14.5448L226.451 15.0317L226.564 14.5448ZM230.027 16.1005L230.273 15.6651V15.6651L230.027 16.1005ZM237.914 21.0293L238.185 20.6091V20.6091L237.914 21.0293ZM380.418 88.1606L380.561 87.6814L380.418 88.1606ZM393.019 92.8054L392.708 93.1974L393.019 92.8054ZM396.651 97.6087L396.189 97.8006L396.651 97.6087ZM397.664 109.174L397.164 109.181L397.664 109.174ZM364.799 273.187L364.35 272.966L364.799 273.187ZM233.49 411.406L233.232 410.977L233.49 411.406ZM226.419 414.928L226.312 414.44H226.312L226.419 414.928ZM221.258 414.928L221.366 414.44H221.366L221.258 414.928ZM214.188 411.406L214.446 410.977L214.188 411.406ZM82.8789 273.187L82.4303 273.408L82.8789 273.187ZM50.0135 109.174L49.5136 109.167L50.0135 109.174ZM51.0266 97.6087L51.4883 97.8006L51.0266 97.6087ZM54.6591 92.8054L54.3487 92.4134H54.3487L54.6591 92.8054ZM43.6391 94.5387L44.1008 94.7306L43.6391 94.5387ZM42.0142 109.067L42.5142 109.074L42.0142 109.067ZM49.6932 86.5332L49.3828 86.1412H49.3828L49.6932 86.5332ZM64.9779 80.4929L65.1205 80.9722L64.9779 80.4929ZM205.428 14.3061L205.699 14.7263L205.428 14.3061ZM219.297 6.75384L219.41 7.24077V7.24077L219.297 6.75384ZM228.381 6.75384L228.495 6.2669V6.2669L228.381 6.75384ZM242.25 14.3061L242.521 13.8859L242.25 14.3061ZM382.7 80.4929L382.557 80.9722L382.7 80.4929ZM397.985 86.5332L398.295 86.1412L397.985 86.5332ZM404.039 94.5387L403.577 94.7306L404.039 94.5387ZM405.664 109.067L406.164 109.06L405.664 109.067ZM371.976 276.72L372.425 276.941L371.976 276.72ZM237.616 418.26L237.358 417.831L237.616 418.26ZM228.14 422.741L228.247 423.229L228.14 422.741ZM219.538 422.741L219.431 423.229L219.538 422.741ZM210.062 418.26L210.32 417.831L210.062 418.26ZM75.7016 276.72L75.2531 276.941L75.7016 276.72ZM155.073 96.1908L155.286 96.6432L155.073 96.1908ZM211.113 66.0062L210.864 65.5726L211.113 66.0062ZM97.1675 119.59L96.9932 119.121V119.121L97.1675 119.59ZM93.4633 120.968L93.6377 121.436L93.4633 120.968ZM90.5903 122.334L90.9242 122.706L90.5903 122.334ZM89.4899 123.979L89.9614 124.146L89.4899 123.979ZM89.3245 127.131L88.8249 127.149L89.3245 127.131ZM118.023 255.93L118.472 255.71L118.023 255.93ZM220.316 368.877L220.035 369.29L220.316 368.877ZM222.893 370.321L223.011 369.835L222.893 370.321ZM224.784 370.321L224.903 370.807L224.784 370.321ZM227.361 368.877L227.642 369.29H227.642L227.361 368.877ZM329.654 255.93L329.206 255.71L329.654 255.93ZM358.353 127.131L357.853 127.113L358.353 127.131ZM358.187 123.979L358.659 123.813V123.813L358.187 123.979ZM357.087 122.334L356.753 122.706V122.706L357.087 122.334ZM354.214 120.968L354.039 121.436L354.039 121.436L354.214 120.968ZM350.605 119.626L350.431 120.094L350.605 119.626ZM292.604 96.1908L292.391 96.6432L292.604 96.1908ZM236.564 66.0062L236.813 65.5726L236.564 66.0062ZM227 60.5245L226.752 60.9587L227 60.5245ZM224.663 59.4113L224.56 59.9006L224.663 59.4113ZM223.014 59.4113L223.117 59.9006L223.014 59.4113ZM220.677 60.5245L220.925 60.9587L220.677 60.5245ZM209.493 20.6091C165.58 48.9276 117.496 72.6902 67.117 87.6814L67.4022 88.6399C117.889 73.6165 166.059 49.8086 210.034 21.4495L209.493 20.6091ZM217.405 15.6651C215.471 16.7575 213.063 18.3066 209.493 20.6091L210.034 21.4495C213.615 19.1404 215.994 17.6104 217.897 16.5358L217.405 15.6651ZM221 14.0579C220.306 14.2198 219.297 14.5964 217.405 15.6651L217.897 16.5358C219.753 15.4876 220.666 15.1625 221.227 15.0317L221 14.0579ZM226.678 14.0579C224.638 13.5823 223.039 13.5823 221 14.0579L221.227 15.0317C223.117 14.591 224.561 14.591 226.451 15.0317L226.678 14.0579ZM230.273 15.6651C228.38 14.5964 227.372 14.2198 226.678 14.0579L226.451 15.0317C227.012 15.1625 227.925 15.4876 229.781 16.5358L230.273 15.6651ZM238.185 20.6091C234.615 18.3066 232.207 16.7575 230.273 15.6651L229.781 16.5358C231.684 17.6104 234.063 19.1404 237.643 21.4495L238.185 20.6091ZM380.561 87.6814C330.182 72.6902 282.098 48.9276 238.185 20.6091L237.643 21.4495C281.619 49.8086 329.789 73.6165 380.276 88.6399L380.561 87.6814ZM393.329 92.4134C392.511 91.7656 391.518 91.2412 389.643 90.5515C387.772 89.8634 384.985 88.998 380.561 87.6814L380.276 88.6399C384.705 89.9581 387.461 90.8147 389.297 91.49C391.13 92.1638 392.01 92.6444 392.708 93.1974L393.329 92.4134ZM397.113 97.4168C396.332 95.5382 394.924 93.6762 393.329 92.4134L392.708 93.1974C394.17 94.3547 395.474 96.079 396.189 97.8006L397.113 97.4168ZM398.164 109.167C398.059 101.346 397.916 99.349 397.113 97.4168L396.189 97.8006C396.901 99.5133 397.058 101.279 397.164 109.181L398.164 109.167ZM365.247 273.408C395.058 212.859 398.631 143.985 398.164 109.167L397.164 109.181C397.63 143.945 394.056 212.63 364.35 272.966L365.247 273.408ZM233.748 411.834C262.176 394.723 328.105 348.848 365.247 273.408L364.35 272.966C327.333 348.151 261.599 393.903 233.232 410.977L233.748 411.834ZM226.527 415.416C228.331 415.019 229.387 414.459 233.748 411.834L233.232 410.977C228.84 413.621 227.927 414.084 226.312 414.44L226.527 415.416ZM221.151 415.416C221.838 415.567 222.853 415.638 223.839 415.638C224.825 415.638 225.84 415.567 226.527 415.416L226.312 414.44C225.729 414.568 224.798 414.638 223.839 414.638C222.88 414.638 221.949 414.568 221.366 414.44L221.151 415.416ZM213.93 411.834C218.291 414.459 219.347 415.019 221.151 415.416L221.366 414.44C219.751 414.084 218.838 413.621 214.446 410.977L213.93 411.834ZM82.4303 273.408C119.573 348.848 185.501 394.723 213.93 411.834L214.446 410.977C186.079 393.903 120.345 348.151 83.3275 272.966L82.4303 273.408ZM49.5136 109.167C49.0469 143.985 52.6198 212.859 82.4303 273.408L83.3275 272.966C53.6214 212.63 50.0475 143.945 50.5135 109.181L49.5136 109.167ZM50.5649 97.4168C49.7619 99.349 49.6184 101.346 49.5136 109.167L50.5135 109.181C50.6194 101.279 50.7766 99.5133 51.4883 97.8006L50.5649 97.4168ZM54.3487 92.4134C52.7538 93.6762 51.3456 95.5382 50.5649 97.4168L51.4883 97.8006C52.2038 96.079 53.5078 94.3547 54.9694 93.1974L54.3487 92.4134ZM67.117 87.6814C62.6924 88.998 59.9062 89.8634 58.0352 90.5515C56.1598 91.2412 55.1669 91.7656 54.3487 92.4134L54.9694 93.1974C55.668 92.6444 56.5482 92.1638 58.3803 91.49C60.2167 90.8147 62.9724 89.9581 67.4022 88.6399L67.117 87.6814ZM43.1774 94.3468C41.6545 98.0114 41.6118 101.78 41.5143 109.06L42.5142 109.074C42.6127 101.725 42.668 98.1784 44.1008 94.7306L43.1774 94.3468ZM49.3828 86.1412C46.7216 88.2482 44.48 91.2124 43.1774 94.3468L44.1008 94.7306C45.3382 91.7531 47.4756 88.9267 50.0036 86.9252L49.3828 86.1412ZM64.8353 80.0137C56.7007 82.4343 52.4961 83.6764 49.3828 86.1412L50.0036 86.9252C52.929 84.6091 56.9013 83.418 65.1205 80.9722L64.8353 80.0137ZM205.157 13.8859C161.748 41.8798 114.35 65.2794 64.8353 80.0137L65.1205 80.9722C114.744 66.2058 162.227 42.7607 205.699 14.7263L205.157 13.8859ZM219.183 6.2669C217.427 6.67652 215.66 7.46287 213.471 8.6992C211.285 9.93397 208.648 11.6344 205.157 13.8859L205.699 14.7263C209.2 12.4684 211.808 10.7869 213.963 9.56994C216.115 8.35453 217.787 7.61942 219.41 7.24077L219.183 6.2669ZM228.495 6.2669C225.26 5.51259 222.418 5.51259 219.183 6.2669L219.41 7.24077C222.495 6.5213 225.182 6.5213 228.268 7.24077L228.495 6.2669ZM242.521 13.8859C239.03 11.6344 236.393 9.93397 234.207 8.6992C232.018 7.46287 230.251 6.67652 228.495 6.2669L228.268 7.24077C229.891 7.61942 231.563 8.35453 233.715 9.56994C235.87 10.7869 238.478 12.4684 241.979 14.7263L242.521 13.8859ZM382.842 80.0137C333.327 65.2794 285.93 41.8798 242.521 13.8859L241.979 14.7263C285.451 42.7607 332.934 66.2058 382.557 80.9722L382.842 80.0137ZM398.295 86.1412C395.182 83.6764 390.977 82.4343 382.842 80.0137L382.557 80.9722C390.777 83.418 394.749 84.6091 397.674 86.9252L398.295 86.1412ZM404.5 94.3468C403.198 91.2124 400.956 88.2482 398.295 86.1412L397.674 86.9252C400.202 88.9267 402.34 91.7531 403.577 94.7306L404.5 94.3468ZM406.164 109.06C406.066 101.78 406.023 98.0114 404.5 94.3468L403.577 94.7306C405.01 98.1784 405.065 101.725 405.164 109.074L406.164 109.06ZM372.425 276.941C403.071 214.696 406.636 144.306 406.164 109.06L405.164 109.074C405.635 144.265 402.069 214.467 371.528 276.5L372.425 276.941ZM237.873 418.688C266.794 401.281 334.278 354.422 372.425 276.941L371.528 276.5C333.506 353.725 266.216 400.461 237.358 417.831L237.873 418.688ZM228.247 423.229C231.544 422.503 233.704 421.198 237.873 418.688L237.358 417.831C233.164 420.356 231.142 421.568 228.032 422.252L228.247 423.229ZM219.431 423.229C221.905 423.774 225.773 423.774 228.247 423.229L228.032 422.252C225.7 422.766 221.978 422.766 219.646 422.252L219.431 423.229ZM209.804 418.688C213.974 421.198 216.134 422.503 219.431 423.229L219.646 422.252C216.536 421.568 214.514 420.356 210.32 417.831L209.804 418.688ZM75.2531 276.941C113.4 354.422 180.884 401.281 209.804 418.688L210.32 417.831C181.461 400.461 114.172 353.725 76.1502 276.5L75.2531 276.941ZM41.5143 109.06C41.0419 144.306 44.607 214.696 75.2531 276.941L76.1502 276.5C45.6086 214.467 42.0425 144.265 42.5142 109.074L41.5143 109.06ZM155.286 96.6432C174.589 87.5563 192.957 77.0087 211.362 66.4398L210.864 65.5726C192.453 76.1449 174.121 86.6717 154.86 95.7384L155.286 96.6432ZM97.3417 120.059C116.874 112.798 136.342 105.56 155.286 96.6432L154.86 95.7384C135.961 104.635 116.532 111.858 96.9932 119.121L97.3417 120.059ZM93.6377 121.436C94.8726 120.977 96.1073 120.518 97.3417 120.059L96.9932 119.121C95.7588 119.58 94.524 120.039 93.2889 120.499L93.6377 121.436ZM90.9242 122.706C91.4016 122.277 92.0596 122.024 93.6377 121.436L93.2889 120.499C91.7896 121.057 90.9089 121.376 90.2563 121.962L90.9242 122.706ZM89.9614 124.146C90.1547 123.598 90.4918 123.094 90.9242 122.706L90.2563 121.961C89.6992 122.461 89.2675 123.107 89.0184 123.813L89.9614 124.146ZM89.8242 127.113C89.7645 125.448 89.7478 124.751 89.9614 124.146L89.0184 123.813C88.7266 124.64 88.7681 125.566 88.8249 127.149L89.8242 127.113ZM118.472 255.71C98.9061 215.97 91.4035 171.148 89.8242 127.113L88.8249 127.149C90.407 171.264 97.9242 216.24 117.575 256.151L118.472 255.71ZM220.597 368.463C178.373 339.772 141.12 301.711 118.472 255.71L117.575 256.151C140.317 302.344 177.704 340.527 220.035 369.29L220.597 368.463ZM223.011 369.835C222.416 369.69 221.877 369.333 220.597 368.463L220.035 369.29C221.253 370.118 221.962 370.609 222.774 370.807L223.011 369.835ZM224.666 369.835C224.134 369.964 223.543 369.964 223.011 369.835L222.774 370.807C223.462 370.974 224.215 370.974 224.903 370.807L224.666 369.835ZM227.08 368.463C225.8 369.333 225.261 369.69 224.666 369.835L224.903 370.807C225.715 370.609 226.425 370.118 227.642 369.29L227.08 368.463ZM329.206 255.71C306.557 301.712 269.305 339.771 227.08 368.463L227.642 369.29C269.973 340.526 307.36 302.344 330.103 256.151L329.206 255.71ZM357.853 127.113C356.274 171.148 348.771 215.97 329.206 255.71L330.103 256.151C349.753 216.24 357.27 171.264 358.852 127.149L357.853 127.113ZM357.716 124.146C357.929 124.751 357.913 125.448 357.853 127.113L358.852 127.149C358.909 125.566 358.951 124.64 358.659 123.813L357.716 124.146ZM356.753 122.706C357.185 123.094 357.522 123.598 357.716 124.146L358.659 123.813C358.41 123.107 357.978 122.462 357.421 121.962L356.753 122.706ZM354.039 121.436C355.618 122.024 356.276 122.277 356.753 122.706L357.421 121.962C356.768 121.376 355.888 121.057 354.388 120.499L354.039 121.436ZM350.431 120.094C351.634 120.541 352.837 120.989 354.039 121.436L354.388 120.499C353.185 120.051 351.982 119.604 350.779 119.157L350.431 120.094ZM292.391 96.6432C311.317 105.552 330.877 112.824 350.431 120.094L350.779 119.157C331.219 111.884 311.698 104.626 292.817 95.7384L292.391 96.6432ZM236.315 66.4398C254.72 77.0088 273.088 87.5563 292.391 96.6432L292.817 95.7384C273.556 86.6717 255.224 76.1449 236.813 65.5726L236.315 66.4398ZM226.752 60.9587C229.945 62.7817 233.13 64.6111 236.315 66.4398L236.813 65.5726C233.629 63.744 230.442 61.914 227.248 60.0903L226.752 60.9587ZM224.56 59.9006C225.079 60.0099 225.575 60.2865 226.752 60.9587L227.248 60.0903C226.128 59.4507 225.475 59.0714 224.766 58.9221L224.56 59.9006ZM223.117 59.9006C223.591 59.8009 224.086 59.8009 224.56 59.9006L224.766 58.9221C224.156 58.7937 223.521 58.7937 222.911 58.9221L223.117 59.9006ZM220.925 60.9587C222.102 60.2865 222.598 60.0099 223.117 59.9006L222.911 58.9221C222.202 59.0714 221.549 59.4507 220.429 60.0903L220.925 60.9587ZM211.362 66.4398C214.547 64.611 217.733 62.7817 220.925 60.9587L220.429 60.0903C217.235 61.914 214.049 63.7439 210.864 65.5726L211.362 66.4398Z"
                        fill="url(#paint9_linear_4448_43640)"
                        mask="url(#path-15-inside-2_4448_43640)" />
                </g>
            </g>
        </g>
        <g filter="url(#filter3_d_4448_43640)">
            <path fill-rule="evenodd" clip-rule="evenodd"
                d="M285.443 126.734C267.493 108.805 232.47 116.809 209.401 139.852C205.382 143.867 201.072 148.947 197.576 153.803C186.934 150.5 177.431 151.345 170.741 158.028C165.392 163.371 163.824 170.83 165.161 179.048L165.974 184.051C166.225 185.59 167.433 186.797 168.973 187.047L173.982 187.86C181.875 189.141 193.926 196.432 204.797 207.291C215.668 218.149 222.966 230.188 224.249 238.072L225.063 243.075C225.313 244.614 226.521 245.821 228.062 246.071L233.071 246.884C241.298 248.219 248.765 246.652 254.115 241.309C260.804 234.627 261.65 225.134 258.344 214.504C263.205 211.011 268.291 206.706 272.31 202.692C295.379 179.648 303.392 144.663 285.443 126.734ZM165.767 204.637C168.907 201.501 173.997 201.501 177.136 204.637C180.276 207.773 180.276 212.858 177.136 215.994L169.429 223.693C166.289 226.829 161.199 226.829 158.06 223.693C154.92 220.557 154.92 215.472 158.06 212.336L165.767 204.637ZM192.295 219.779C189.155 216.643 184.065 216.643 180.926 219.779L161.772 238.912C158.633 242.048 158.633 247.132 161.772 250.268C164.912 253.404 170.002 253.404 173.142 250.268L192.295 231.136C195.434 228 195.434 222.915 192.295 219.779ZM207.454 234.921C204.314 231.785 199.224 231.785 196.085 234.921L188.377 242.62C185.238 245.756 185.238 250.841 188.377 253.977C191.517 257.113 196.607 257.113 199.746 253.977L207.454 246.278C210.593 243.142 210.593 238.057 207.454 234.921Z"
                fill="white" />
            <path
                d="M285.619 126.557C276.568 117.516 263.23 115.033 249.295 117.683C235.358 120.333 220.791 128.121 209.225 139.675C205.236 143.66 200.963 148.689 197.478 153.511C186.859 150.256 177.31 151.113 170.565 157.851C165.142 163.267 163.568 170.817 164.914 179.089L165.728 184.092C165.995 185.737 167.287 187.027 168.933 187.294L173.942 188.107C177.842 188.74 182.796 190.864 188.141 194.196C193.482 197.525 199.198 202.05 204.621 207.467C210.044 212.885 214.574 218.594 217.907 223.929C221.242 229.268 223.369 234.216 224.002 238.112L224.816 243.115C225.084 244.76 226.375 246.05 228.022 246.317L233.03 247.13C241.311 248.475 248.869 246.902 254.291 241.486C261.036 234.748 261.894 225.21 258.636 214.602C263.463 211.121 268.498 206.853 272.487 202.868C284.053 191.315 291.85 176.763 294.504 162.842C297.157 148.922 294.671 135.599 285.619 126.557ZM177.313 204.461C174.076 201.227 168.828 201.227 165.59 204.461L157.883 212.159C154.646 215.393 154.646 220.636 157.883 223.87C161.12 227.103 166.368 227.103 169.605 223.87L177.313 216.171C180.55 212.937 180.55 207.694 177.313 204.461ZM192.472 219.603C189.235 216.369 183.986 216.369 180.749 219.603L161.596 238.735C158.359 241.969 158.359 247.212 161.596 250.445C164.833 253.679 170.081 253.679 173.318 250.445L192.472 231.313C195.709 228.079 195.709 222.836 192.472 219.603ZM207.63 234.745C204.393 231.511 199.145 231.511 195.908 234.745L188.2 242.444C184.963 245.677 184.963 250.92 188.2 254.154C191.438 257.387 196.686 257.387 199.923 254.154L207.63 246.455C210.868 243.221 210.868 237.978 207.63 234.745Z"
                stroke="url(#paint10_linear_4448_43640)" stroke-width="0.5" stroke-linecap="round"
                style="mix-blend-mode:color-burn" />
        </g>
    </g>
    <g filter="url(#filter4_dd_4448_43640)">
        <rect x="54.9688" y="271.498" width="336.745" height="87.8367" rx="8" fill="#FFA00F" />
        <rect x="55.2188" y="271.748" width="336.245" height="87.3367" rx="7.75"
            stroke="url(#paint11_linear_4448_43640)" stroke-width="0.5" stroke-linecap="round"
            style="mix-blend-mode:darken" />
    </g>
    <rect x="54.9688" y="271.498" width="336.745" height="87.8367" rx="8"
        fill="url(#paint12_linear_4448_43640)" fill-opacity="0.3" style="mix-blend-mode:overlay" />
    <rect x="54.9688" y="271.498" width="336.745" height="87.8367" rx="8"
        fill="url(#paint13_radial_4448_43640)" fill-opacity="0.6" style="mix-blend-mode:overlay" />
    <g filter="url(#filter5_i_4448_43640)">
        <ellipse cx="75.4529" cy="315.417" rx="5.49584" ry="5.98887" fill="black"
            fill-opacity="0.24" style="mix-blend-mode:color-burn" />
        <ellipse cx="75.4529" cy="315.417" rx="5.49584" ry="5.98887" fill="black"
            fill-opacity="0.32" style="mix-blend-mode:darken" />
    </g>
    <g filter="url(#filter6_i_4448_43640)">
        <ellipse cx="371.228" cy="315.417" rx="5.49584" ry="5.98887" fill="black"
            fill-opacity="0.24" style="mix-blend-mode:color-burn" />
        <ellipse cx="371.228" cy="315.417" rx="5.49584" ry="5.98887" fill="black"
            fill-opacity="0.32" style="mix-blend-mode:darken" />
    </g>
    <g filter="url(#filter7_i_4448_43640)">
        <path
            d="M162.801 327.461V323.749H166.161V327.461H162.801ZM149.809 327.461V323.749H161.425L158.513 326.277V320.901C158.513 319.386 158.353 318.213 158.033 317.381C157.734 316.549 157.222 315.962 156.497 315.621C155.793 315.28 154.822 315.109 153.585 315.109H150.993V311.397H153.585C155.548 311.397 157.212 311.717 158.577 312.357C159.964 312.997 161.009 314.021 161.713 315.429C162.438 316.816 162.801 318.64 162.801 320.901V327.461H149.809ZM166.161 327.461V323.749C166.289 323.749 166.396 323.792 166.481 323.877C166.566 323.962 166.63 324.09 166.673 324.261C166.716 324.432 166.748 324.634 166.769 324.869C166.79 325.082 166.801 325.328 166.801 325.605C166.801 325.882 166.79 326.138 166.769 326.373C166.748 326.608 166.716 326.81 166.673 326.981C166.63 327.13 166.566 327.248 166.481 327.333C166.396 327.418 166.289 327.461 166.161 327.461ZM166.154 327.461V323.749H173.738L171.242 325.829V311.397H175.498V327.461H166.154ZM166.154 327.461C166.026 327.461 165.93 327.418 165.866 327.333C165.781 327.248 165.717 327.13 165.674 326.981C165.61 326.81 165.567 326.608 165.546 326.373C165.525 326.138 165.514 325.882 165.514 325.605C165.514 325.221 165.535 324.901 165.578 324.645C165.621 324.368 165.695 324.154 165.802 324.005C165.887 323.834 166.005 323.749 166.154 323.749V327.461ZM167.306 334.277V330.629H171.434V334.277H167.306ZM173.13 334.277V330.629H177.258V334.277H173.13ZM192.114 327.461V323.749H195.474V327.461H192.114ZM179.122 327.461V323.749H190.738L187.826 326.277V320.901C187.826 319.386 187.666 318.213 187.346 317.381C187.047 316.549 186.535 315.962 185.81 315.621C185.106 315.28 184.135 315.109 182.898 315.109H180.306V311.397H182.898C184.86 311.397 186.524 311.717 187.89 312.357C189.276 312.997 190.322 314.021 191.026 315.429C191.751 316.816 192.114 318.64 192.114 320.901V327.461H179.122ZM195.474 327.461V323.749C195.602 323.749 195.708 323.792 195.794 323.877C195.879 323.962 195.943 324.09 195.986 324.261C196.028 324.432 196.06 324.634 196.082 324.869C196.103 325.082 196.114 325.328 196.114 325.605C196.114 325.882 196.103 326.138 196.082 326.373C196.06 326.608 196.028 326.81 195.986 326.981C195.943 327.13 195.879 327.248 195.794 327.333C195.708 327.418 195.602 327.461 195.474 327.461ZM195.467 327.461V323.749H209.227L207.787 324.933V319.013C207.787 317.733 207.381 316.762 206.571 316.101C205.781 315.44 204.523 315.109 202.795 315.109C202.304 315.109 201.632 315.152 200.779 315.237C199.925 315.301 198.997 315.408 197.995 315.557L197.579 312.165C198.496 311.952 199.424 311.77 200.363 311.621C201.323 311.472 202.261 311.397 203.179 311.397C204.928 311.397 206.464 311.706 207.787 312.325C209.109 312.922 210.144 313.786 210.891 314.917C211.659 316.048 212.043 317.413 212.043 319.013V327.461H195.467ZM195.467 327.461C195.339 327.461 195.243 327.418 195.179 327.333C195.093 327.248 195.029 327.13 194.987 326.981C194.923 326.81 194.88 326.608 194.859 326.373C194.837 326.138 194.827 325.882 194.827 325.605C194.827 325.221 194.848 324.901 194.891 324.645C194.933 324.368 195.008 324.154 195.115 324.005C195.2 323.834 195.317 323.749 195.467 323.749V327.461ZM201.643 334.277V330.629H205.931V334.277H201.643ZM239.975 327.461V323.749H243.367V327.461H239.975ZM222.983 338.085C222.791 336.933 222.61 335.813 222.439 334.725C222.29 333.637 222.215 332.677 222.215 331.845C222.215 330.181 222.535 328.741 223.175 327.525C223.815 326.33 224.722 325.402 225.895 324.741C227.069 324.08 228.455 323.749 230.055 323.749C230.375 323.749 230.77 323.749 231.239 323.749C231.73 323.749 232.295 323.749 232.935 323.749C233.575 323.749 234.29 323.749 235.079 323.749C235.869 323.749 236.733 323.749 237.671 323.749L235.719 325.605V319.557C235.719 318.448 235.591 317.573 235.335 316.933C235.101 316.272 234.663 315.802 234.023 315.525C233.405 315.248 232.498 315.109 231.303 315.109C230.493 315.109 229.661 315.173 228.807 315.301C227.975 315.408 227.314 315.557 226.823 315.749L229.511 313.253C229.362 313.765 229.223 314.405 229.095 315.173C228.989 315.941 228.903 316.741 228.839 317.573C228.775 318.384 228.743 319.152 228.743 319.877C228.743 320.666 228.775 321.466 228.839 322.277C228.903 323.066 228.978 323.77 229.063 324.389C229.17 325.008 229.255 325.434 229.319 325.669L225.255 326.789C225.149 326.49 225.031 326 224.903 325.317C224.797 324.634 224.69 323.834 224.583 322.917C224.498 321.978 224.455 320.986 224.455 319.941C224.455 318.896 224.498 317.882 224.583 316.901C224.69 315.898 224.818 315.002 224.967 314.213C225.117 313.402 225.255 312.752 225.383 312.261C225.938 312.048 226.759 311.856 227.847 311.685C228.935 311.493 230.109 311.397 231.367 311.397C232.754 311.397 233.938 311.536 234.919 311.813C235.922 312.069 236.743 312.442 237.383 312.933C238.045 313.424 238.567 314.01 238.951 314.693C239.335 315.354 239.602 316.101 239.751 316.933C239.901 317.765 239.975 318.65 239.975 319.589V327.461C239.037 327.461 238.055 327.461 237.031 327.461C236.029 327.461 235.047 327.461 234.087 327.461C233.149 327.461 232.317 327.461 231.591 327.461C230.887 327.461 230.375 327.461 230.055 327.461C229.714 327.461 229.341 327.504 228.935 327.589C228.53 327.696 228.135 327.888 227.751 328.165C227.389 328.464 227.09 328.901 226.855 329.477C226.621 330.074 226.503 330.864 226.503 331.845C226.503 332.613 226.567 333.509 226.695 334.533C226.845 335.557 227.015 336.741 227.207 338.085H222.983ZM243.367 327.461V323.749C243.474 323.749 243.57 323.792 243.655 323.877C243.741 323.962 243.805 324.09 243.847 324.261C243.89 324.432 243.922 324.634 243.943 324.869C243.986 325.082 244.007 325.328 244.007 325.605C244.007 325.882 243.986 326.138 243.943 326.373C243.922 326.608 243.89 326.81 243.847 326.981C243.805 327.13 243.741 327.248 243.655 327.333C243.57 327.418 243.474 327.461 243.367 327.461ZM251.277 327.461V323.749H254.637V327.461H251.277ZM243.373 327.461C243.245 327.461 243.149 327.418 243.085 327.333C243 327.248 242.936 327.13 242.893 326.981C242.829 326.81 242.786 326.608 242.765 326.373C242.744 326.138 242.733 325.882 242.733 325.605C242.733 325.221 242.754 324.901 242.797 324.645C242.84 324.368 242.914 324.154 243.021 324.005C243.106 323.834 243.224 323.749 243.373 323.749V327.461ZM246.989 327.461V304.837H251.277V327.461H246.989ZM243.373 327.461V323.749H246.989V327.461H243.373ZM254.637 327.461V323.749C254.765 323.749 254.872 323.792 254.957 323.877C255.042 323.962 255.106 324.09 255.149 324.261C255.192 324.432 255.224 324.634 255.245 324.869C255.266 325.082 255.277 325.328 255.277 325.605C255.277 325.882 255.266 326.138 255.245 326.373C255.224 326.608 255.192 326.81 255.149 326.981C255.106 327.13 255.042 327.248 254.957 327.333C254.872 327.418 254.765 327.461 254.637 327.461ZM254.623 327.461V323.749H261.407C262.324 323.749 263.21 323.578 264.063 323.237C264.916 322.874 265.695 322.405 266.399 321.829C267.124 321.232 267.754 320.581 268.287 319.877C268.842 319.152 269.268 318.416 269.567 317.669C269.887 316.922 270.047 316.218 270.047 315.557V313.509L272.095 316.901C270.986 316.304 269.855 315.856 268.703 315.557C267.551 315.258 266.452 315.109 265.407 315.109C264.383 315.109 263.284 315.258 262.111 315.557C260.959 315.856 259.839 316.304 258.751 316.901L260.799 313.509V315.557C260.799 316.218 260.948 316.922 261.247 317.669C261.567 318.416 261.994 319.152 262.527 319.877C263.06 320.581 263.69 321.232 264.415 321.829C265.14 322.405 265.93 322.874 266.783 323.237C267.636 323.578 268.511 323.749 269.407 323.749H275.999V327.461H270.751C269.087 327.461 267.53 327.194 266.079 326.661C264.628 326.128 263.316 325.424 262.143 324.549C260.97 323.653 259.956 322.682 259.103 321.637C258.271 320.57 257.631 319.514 257.183 318.469C256.735 317.402 256.511 316.432 256.511 315.557V313.733C257.428 313.221 258.399 312.794 259.423 312.453C260.468 312.112 261.503 311.856 262.527 311.685C263.572 311.493 264.532 311.397 265.407 311.397C266.303 311.397 267.263 311.493 268.287 311.685C269.311 311.856 270.335 312.112 271.359 312.453C272.404 312.794 273.386 313.221 274.303 313.733V315.557C274.303 316.432 274.079 317.402 273.631 318.469C273.183 319.514 272.532 320.57 271.679 321.637C270.847 322.682 269.844 323.653 268.671 324.549C267.498 325.424 266.186 326.128 264.735 326.661C263.284 327.194 261.727 327.461 260.063 327.461H254.623ZM254.623 327.461C254.495 327.461 254.399 327.418 254.335 327.333C254.25 327.248 254.186 327.13 254.143 326.981C254.079 326.81 254.036 326.608 254.015 326.373C253.994 326.138 253.983 325.882 253.983 325.605C253.983 325.221 254.004 324.901 254.047 324.645C254.09 324.368 254.164 324.154 254.271 324.005C254.356 323.834 254.474 323.749 254.623 323.749V327.461ZM275.999 327.461V323.749C276.127 323.749 276.234 323.792 276.319 323.877C276.404 323.962 276.468 324.09 276.511 324.261C276.554 324.432 276.586 324.634 276.607 324.869C276.628 325.082 276.639 325.328 276.639 325.605C276.639 325.882 276.628 326.138 276.607 326.373C276.586 326.608 276.554 326.81 276.511 326.981C276.468 327.13 276.404 327.248 276.319 327.333C276.234 327.418 276.127 327.461 275.999 327.461ZM275.998 327.461V323.749H292.606L290.654 325.413V319.525C290.654 318.373 290.526 317.477 290.27 316.837C290.014 316.176 289.566 315.717 288.926 315.461C288.307 315.184 287.443 315.045 286.334 315.045C285.459 315.045 284.595 315.109 283.742 315.237C282.91 315.344 282.259 315.493 281.79 315.685L284.446 313.189C284.318 313.68 284.19 314.298 284.062 315.045C283.955 315.792 283.859 316.592 283.774 317.445C283.689 318.277 283.646 319.098 283.646 319.909C283.646 320.656 283.678 321.434 283.742 322.245C283.827 323.056 283.913 323.77 283.998 324.389C284.105 325.008 284.19 325.434 284.254 325.669L280.19 326.789C280.105 326.49 279.998 326 279.87 325.317C279.742 324.634 279.625 323.824 279.518 322.885C279.433 321.946 279.39 320.954 279.39 319.909C279.39 318.842 279.443 317.818 279.55 316.837C279.657 315.834 279.774 314.938 279.902 314.149C280.051 313.338 280.19 312.688 280.318 312.197C280.83 312.005 281.63 311.813 282.718 311.621C283.806 311.429 285.011 311.333 286.334 311.333C288.254 311.333 289.843 311.6 291.102 312.133C292.382 312.666 293.331 313.53 293.95 314.725C294.59 315.92 294.91 317.53 294.91 319.557V327.461H275.998ZM275.998 327.461C275.87 327.461 275.774 327.418 275.71 327.333C275.625 327.248 275.561 327.13 275.518 326.981C275.454 326.81 275.411 326.608 275.39 326.373C275.369 326.138 275.358 325.882 275.358 325.605C275.358 325.221 275.379 324.901 275.422 324.645C275.465 324.368 275.539 324.154 275.646 324.005C275.731 323.834 275.849 323.749 275.998 323.749V327.461Z"
            fill="black" fill-opacity="0.24" style="mix-blend-mode:color-burn" />
        <path
            d="M162.801 327.461V323.749H166.161V327.461H162.801ZM149.809 327.461V323.749H161.425L158.513 326.277V320.901C158.513 319.386 158.353 318.213 158.033 317.381C157.734 316.549 157.222 315.962 156.497 315.621C155.793 315.28 154.822 315.109 153.585 315.109H150.993V311.397H153.585C155.548 311.397 157.212 311.717 158.577 312.357C159.964 312.997 161.009 314.021 161.713 315.429C162.438 316.816 162.801 318.64 162.801 320.901V327.461H149.809ZM166.161 327.461V323.749C166.289 323.749 166.396 323.792 166.481 323.877C166.566 323.962 166.63 324.09 166.673 324.261C166.716 324.432 166.748 324.634 166.769 324.869C166.79 325.082 166.801 325.328 166.801 325.605C166.801 325.882 166.79 326.138 166.769 326.373C166.748 326.608 166.716 326.81 166.673 326.981C166.63 327.13 166.566 327.248 166.481 327.333C166.396 327.418 166.289 327.461 166.161 327.461ZM166.154 327.461V323.749H173.738L171.242 325.829V311.397H175.498V327.461H166.154ZM166.154 327.461C166.026 327.461 165.93 327.418 165.866 327.333C165.781 327.248 165.717 327.13 165.674 326.981C165.61 326.81 165.567 326.608 165.546 326.373C165.525 326.138 165.514 325.882 165.514 325.605C165.514 325.221 165.535 324.901 165.578 324.645C165.621 324.368 165.695 324.154 165.802 324.005C165.887 323.834 166.005 323.749 166.154 323.749V327.461ZM167.306 334.277V330.629H171.434V334.277H167.306ZM173.13 334.277V330.629H177.258V334.277H173.13ZM192.114 327.461V323.749H195.474V327.461H192.114ZM179.122 327.461V323.749H190.738L187.826 326.277V320.901C187.826 319.386 187.666 318.213 187.346 317.381C187.047 316.549 186.535 315.962 185.81 315.621C185.106 315.28 184.135 315.109 182.898 315.109H180.306V311.397H182.898C184.86 311.397 186.524 311.717 187.89 312.357C189.276 312.997 190.322 314.021 191.026 315.429C191.751 316.816 192.114 318.64 192.114 320.901V327.461H179.122ZM195.474 327.461V323.749C195.602 323.749 195.708 323.792 195.794 323.877C195.879 323.962 195.943 324.09 195.986 324.261C196.028 324.432 196.06 324.634 196.082 324.869C196.103 325.082 196.114 325.328 196.114 325.605C196.114 325.882 196.103 326.138 196.082 326.373C196.06 326.608 196.028 326.81 195.986 326.981C195.943 327.13 195.879 327.248 195.794 327.333C195.708 327.418 195.602 327.461 195.474 327.461ZM195.467 327.461V323.749H209.227L207.787 324.933V319.013C207.787 317.733 207.381 316.762 206.571 316.101C205.781 315.44 204.523 315.109 202.795 315.109C202.304 315.109 201.632 315.152 200.779 315.237C199.925 315.301 198.997 315.408 197.995 315.557L197.579 312.165C198.496 311.952 199.424 311.77 200.363 311.621C201.323 311.472 202.261 311.397 203.179 311.397C204.928 311.397 206.464 311.706 207.787 312.325C209.109 312.922 210.144 313.786 210.891 314.917C211.659 316.048 212.043 317.413 212.043 319.013V327.461H195.467ZM195.467 327.461C195.339 327.461 195.243 327.418 195.179 327.333C195.093 327.248 195.029 327.13 194.987 326.981C194.923 326.81 194.88 326.608 194.859 326.373C194.837 326.138 194.827 325.882 194.827 325.605C194.827 325.221 194.848 324.901 194.891 324.645C194.933 324.368 195.008 324.154 195.115 324.005C195.2 323.834 195.317 323.749 195.467 323.749V327.461ZM201.643 334.277V330.629H205.931V334.277H201.643ZM239.975 327.461V323.749H243.367V327.461H239.975ZM222.983 338.085C222.791 336.933 222.61 335.813 222.439 334.725C222.29 333.637 222.215 332.677 222.215 331.845C222.215 330.181 222.535 328.741 223.175 327.525C223.815 326.33 224.722 325.402 225.895 324.741C227.069 324.08 228.455 323.749 230.055 323.749C230.375 323.749 230.77 323.749 231.239 323.749C231.73 323.749 232.295 323.749 232.935 323.749C233.575 323.749 234.29 323.749 235.079 323.749C235.869 323.749 236.733 323.749 237.671 323.749L235.719 325.605V319.557C235.719 318.448 235.591 317.573 235.335 316.933C235.101 316.272 234.663 315.802 234.023 315.525C233.405 315.248 232.498 315.109 231.303 315.109C230.493 315.109 229.661 315.173 228.807 315.301C227.975 315.408 227.314 315.557 226.823 315.749L229.511 313.253C229.362 313.765 229.223 314.405 229.095 315.173C228.989 315.941 228.903 316.741 228.839 317.573C228.775 318.384 228.743 319.152 228.743 319.877C228.743 320.666 228.775 321.466 228.839 322.277C228.903 323.066 228.978 323.77 229.063 324.389C229.17 325.008 229.255 325.434 229.319 325.669L225.255 326.789C225.149 326.49 225.031 326 224.903 325.317C224.797 324.634 224.69 323.834 224.583 322.917C224.498 321.978 224.455 320.986 224.455 319.941C224.455 318.896 224.498 317.882 224.583 316.901C224.69 315.898 224.818 315.002 224.967 314.213C225.117 313.402 225.255 312.752 225.383 312.261C225.938 312.048 226.759 311.856 227.847 311.685C228.935 311.493 230.109 311.397 231.367 311.397C232.754 311.397 233.938 311.536 234.919 311.813C235.922 312.069 236.743 312.442 237.383 312.933C238.045 313.424 238.567 314.01 238.951 314.693C239.335 315.354 239.602 316.101 239.751 316.933C239.901 317.765 239.975 318.65 239.975 319.589V327.461C239.037 327.461 238.055 327.461 237.031 327.461C236.029 327.461 235.047 327.461 234.087 327.461C233.149 327.461 232.317 327.461 231.591 327.461C230.887 327.461 230.375 327.461 230.055 327.461C229.714 327.461 229.341 327.504 228.935 327.589C228.53 327.696 228.135 327.888 227.751 328.165C227.389 328.464 227.09 328.901 226.855 329.477C226.621 330.074 226.503 330.864 226.503 331.845C226.503 332.613 226.567 333.509 226.695 334.533C226.845 335.557 227.015 336.741 227.207 338.085H222.983ZM243.367 327.461V323.749C243.474 323.749 243.57 323.792 243.655 323.877C243.741 323.962 243.805 324.09 243.847 324.261C243.89 324.432 243.922 324.634 243.943 324.869C243.986 325.082 244.007 325.328 244.007 325.605C244.007 325.882 243.986 326.138 243.943 326.373C243.922 326.608 243.89 326.81 243.847 326.981C243.805 327.13 243.741 327.248 243.655 327.333C243.57 327.418 243.474 327.461 243.367 327.461ZM251.277 327.461V323.749H254.637V327.461H251.277ZM243.373 327.461C243.245 327.461 243.149 327.418 243.085 327.333C243 327.248 242.936 327.13 242.893 326.981C242.829 326.81 242.786 326.608 242.765 326.373C242.744 326.138 242.733 325.882 242.733 325.605C242.733 325.221 242.754 324.901 242.797 324.645C242.84 324.368 242.914 324.154 243.021 324.005C243.106 323.834 243.224 323.749 243.373 323.749V327.461ZM246.989 327.461V304.837H251.277V327.461H246.989ZM243.373 327.461V323.749H246.989V327.461H243.373ZM254.637 327.461V323.749C254.765 323.749 254.872 323.792 254.957 323.877C255.042 323.962 255.106 324.09 255.149 324.261C255.192 324.432 255.224 324.634 255.245 324.869C255.266 325.082 255.277 325.328 255.277 325.605C255.277 325.882 255.266 326.138 255.245 326.373C255.224 326.608 255.192 326.81 255.149 326.981C255.106 327.13 255.042 327.248 254.957 327.333C254.872 327.418 254.765 327.461 254.637 327.461ZM254.623 327.461V323.749H261.407C262.324 323.749 263.21 323.578 264.063 323.237C264.916 322.874 265.695 322.405 266.399 321.829C267.124 321.232 267.754 320.581 268.287 319.877C268.842 319.152 269.268 318.416 269.567 317.669C269.887 316.922 270.047 316.218 270.047 315.557V313.509L272.095 316.901C270.986 316.304 269.855 315.856 268.703 315.557C267.551 315.258 266.452 315.109 265.407 315.109C264.383 315.109 263.284 315.258 262.111 315.557C260.959 315.856 259.839 316.304 258.751 316.901L260.799 313.509V315.557C260.799 316.218 260.948 316.922 261.247 317.669C261.567 318.416 261.994 319.152 262.527 319.877C263.06 320.581 263.69 321.232 264.415 321.829C265.14 322.405 265.93 322.874 266.783 323.237C267.636 323.578 268.511 323.749 269.407 323.749H275.999V327.461H270.751C269.087 327.461 267.53 327.194 266.079 326.661C264.628 326.128 263.316 325.424 262.143 324.549C260.97 323.653 259.956 322.682 259.103 321.637C258.271 320.57 257.631 319.514 257.183 318.469C256.735 317.402 256.511 316.432 256.511 315.557V313.733C257.428 313.221 258.399 312.794 259.423 312.453C260.468 312.112 261.503 311.856 262.527 311.685C263.572 311.493 264.532 311.397 265.407 311.397C266.303 311.397 267.263 311.493 268.287 311.685C269.311 311.856 270.335 312.112 271.359 312.453C272.404 312.794 273.386 313.221 274.303 313.733V315.557C274.303 316.432 274.079 317.402 273.631 318.469C273.183 319.514 272.532 320.57 271.679 321.637C270.847 322.682 269.844 323.653 268.671 324.549C267.498 325.424 266.186 326.128 264.735 326.661C263.284 327.194 261.727 327.461 260.063 327.461H254.623ZM254.623 327.461C254.495 327.461 254.399 327.418 254.335 327.333C254.25 327.248 254.186 327.13 254.143 326.981C254.079 326.81 254.036 326.608 254.015 326.373C253.994 326.138 253.983 325.882 253.983 325.605C253.983 325.221 254.004 324.901 254.047 324.645C254.09 324.368 254.164 324.154 254.271 324.005C254.356 323.834 254.474 323.749 254.623 323.749V327.461ZM275.999 327.461V323.749C276.127 323.749 276.234 323.792 276.319 323.877C276.404 323.962 276.468 324.09 276.511 324.261C276.554 324.432 276.586 324.634 276.607 324.869C276.628 325.082 276.639 325.328 276.639 325.605C276.639 325.882 276.628 326.138 276.607 326.373C276.586 326.608 276.554 326.81 276.511 326.981C276.468 327.13 276.404 327.248 276.319 327.333C276.234 327.418 276.127 327.461 275.999 327.461ZM275.998 327.461V323.749H292.606L290.654 325.413V319.525C290.654 318.373 290.526 317.477 290.27 316.837C290.014 316.176 289.566 315.717 288.926 315.461C288.307 315.184 287.443 315.045 286.334 315.045C285.459 315.045 284.595 315.109 283.742 315.237C282.91 315.344 282.259 315.493 281.79 315.685L284.446 313.189C284.318 313.68 284.19 314.298 284.062 315.045C283.955 315.792 283.859 316.592 283.774 317.445C283.689 318.277 283.646 319.098 283.646 319.909C283.646 320.656 283.678 321.434 283.742 322.245C283.827 323.056 283.913 323.77 283.998 324.389C284.105 325.008 284.19 325.434 284.254 325.669L280.19 326.789C280.105 326.49 279.998 326 279.87 325.317C279.742 324.634 279.625 323.824 279.518 322.885C279.433 321.946 279.39 320.954 279.39 319.909C279.39 318.842 279.443 317.818 279.55 316.837C279.657 315.834 279.774 314.938 279.902 314.149C280.051 313.338 280.19 312.688 280.318 312.197C280.83 312.005 281.63 311.813 282.718 311.621C283.806 311.429 285.011 311.333 286.334 311.333C288.254 311.333 289.843 311.6 291.102 312.133C292.382 312.666 293.331 313.53 293.95 314.725C294.59 315.92 294.91 317.53 294.91 319.557V327.461H275.998ZM275.998 327.461C275.87 327.461 275.774 327.418 275.71 327.333C275.625 327.248 275.561 327.13 275.518 326.981C275.454 326.81 275.411 326.608 275.39 326.373C275.369 326.138 275.358 325.882 275.358 325.605C275.358 325.221 275.379 324.901 275.422 324.645C275.465 324.368 275.539 324.154 275.646 324.005C275.731 323.834 275.849 323.749 275.998 323.749V327.461Z"
            fill="black" fill-opacity="0.32" style="mix-blend-mode:darken" />
    </g>
    <defs>
        <filter id="filter0_dd_4448_43640" x="0.00390625" y="279.471" width="447.992"
            height="116.828" filterUnits="userSpaceOnUse" color-interpolation-filters="sRGB">
            <feFlood flood-opacity="0" result="BackgroundImageFix" />
            <feColorMatrix in="SourceAlpha" type="matrix"
                values="0 0 0 0 0 0 0 0 0 0 0 0 0 0 0 0 0 0 127 0" result="hardAlpha" />
            <feOffset dy="4" />
            <feGaussianBlur stdDeviation="6" />
            <feColorMatrix type="matrix" values="0 0 0 0 0 0 0 0 0 0 0 0 0 0 0 0 0 0 0.16 0" />
            <feBlend mode="normal" in2="BackgroundImageFix" result="effect1_dropShadow_4448_43640" />
            <feColorMatrix in="SourceAlpha" type="matrix"
                values="0 0 0 0 0 0 0 0 0 0 0 0 0 0 0 0 0 0 127 0" result="hardAlpha" />
            <feOffset dy="2" />
            <feGaussianBlur stdDeviation="2" />
            <feColorMatrix type="matrix" values="0 0 0 0 0 0 0 0 0 0 0 0 0 0 0 0 0 0 0.24 0" />
            <feBlend mode="normal" in2="effect1_dropShadow_4448_43640"
                result="effect2_dropShadow_4448_43640" />
            <feBlend mode="normal" in="SourceGraphic" in2="effect2_dropShadow_4448_43640"
                result="shape" />
        </filter>
        <filter id="filter1_dddd_4448_43640" x="8.97852" y="0.201172" width="429.725"
            height="537.936" filterUnits="userSpaceOnUse" color-interpolation-filters="sRGB">
            <feFlood flood-opacity="0" result="BackgroundImageFix" />
            <feColorMatrix in="SourceAlpha" type="matrix"
                values="0 0 0 0 0 0 0 0 0 0 0 0 0 0 0 0 0 0 127 0" result="hardAlpha" />
            <feOffset dy="5" />
            <feGaussianBlur stdDeviation="5.5" />
            <feColorMatrix type="matrix" values="0 0 0 0 0 0 0 0 0 0 0 0 0 0 0 0 0 0 0.24 0" />
            <feBlend mode="normal" in2="BackgroundImageFix" result="effect1_dropShadow_4448_43640" />
            <feColorMatrix in="SourceAlpha" type="matrix"
                values="0 0 0 0 0 0 0 0 0 0 0 0 0 0 0 0 0 0 127 0" result="hardAlpha" />
            <feOffset dy="21" />
            <feGaussianBlur stdDeviation="10.5" />
            <feColorMatrix type="matrix" values="0 0 0 0 0 0 0 0 0 0 0 0 0 0 0 0 0 0 0.21 0" />
            <feBlend mode="normal" in2="effect1_dropShadow_4448_43640"
                result="effect2_dropShadow_4448_43640" />
            <feColorMatrix in="SourceAlpha" type="matrix"
                values="0 0 0 0 0 0 0 0 0 0 0 0 0 0 0 0 0 0 127 0" result="hardAlpha" />
            <feOffset dy="46" />
            <feGaussianBlur stdDeviation="14" />
            <feColorMatrix type="matrix" values="0 0 0 0 0 0 0 0 0 0 0 0 0 0 0 0 0 0 0.12 0" />
            <feBlend mode="normal" in2="effect2_dropShadow_4448_43640"
                result="effect3_dropShadow_4448_43640" />
            <feColorMatrix in="SourceAlpha" type="matrix"
                values="0 0 0 0 0 0 0 0 0 0 0 0 0 0 0 0 0 0 127 0" result="hardAlpha" />
            <feOffset dy="82" />
            <feGaussianBlur stdDeviation="16.5" />
            <feColorMatrix type="matrix" values="0 0 0 0 0 0 0 0 0 0 0 0 0 0 0 0 0 0 0.04 0" />
            <feBlend mode="normal" in2="effect3_dropShadow_4448_43640"
                result="effect4_dropShadow_4448_43640" />
            <feBlend mode="normal" in="SourceGraphic" in2="effect4_dropShadow_4448_43640"
                result="shape" />
        </filter>
        <filter id="filter2_d_4448_43640" x="33.9766" y="0.201172" width="379.725" height="432.936"
            filterUnits="userSpaceOnUse" color-interpolation-filters="sRGB">
            <feFlood flood-opacity="0" result="BackgroundImageFix" />
            <feColorMatrix in="SourceAlpha" type="matrix"
                values="0 0 0 0 0 0 0 0 0 0 0 0 0 0 0 0 0 0 127 0" result="hardAlpha" />
            <feOffset dy="2" />
            <feGaussianBlur stdDeviation="4" />
            <feColorMatrix type="matrix" values="0 0 0 0 0 0 0 0 0 0 0 0 0 0 0 0 0 0 0.1 0" />
            <feBlend mode="color-burn" in2="BackgroundImageFix"
                result="effect1_dropShadow_4448_43640" />
            <feBlend mode="normal" in="SourceGraphic" in2="effect1_dropShadow_4448_43640"
                result="shape" />
        </filter>
        <filter id="filter3_d_4448_43640" x="143.205" y="106.43" width="164.553" height="164.398"
            filterUnits="userSpaceOnUse" color-interpolation-filters="sRGB">
            <feFlood flood-opacity="0" result="BackgroundImageFix" />
            <feColorMatrix in="SourceAlpha" type="matrix"
                values="0 0 0 0 0 0 0 0 0 0 0 0 0 0 0 0 0 0 127 0" result="hardAlpha" />
            <feOffset dy="2" />
            <feGaussianBlur stdDeviation="6" />
            <feColorMatrix type="matrix" values="0 0 0 0 0 0 0 0 0 0 0 0 0 0 0 0 0 0 0.12 0" />
            <feBlend mode="plus-darker" in2="BackgroundImageFix"
                result="effect1_dropShadow_4448_43640" />
            <feBlend mode="normal" in="SourceGraphic" in2="effect1_dropShadow_4448_43640"
                result="shape" />
        </filter>
        <filter id="filter4_dd_4448_43640" x="42.9688" y="263.498" width="360.744" height="111.836"
            filterUnits="userSpaceOnUse" color-interpolation-filters="sRGB">
            <feFlood flood-opacity="0" result="BackgroundImageFix" />
            <feColorMatrix in="SourceAlpha" type="matrix"
                values="0 0 0 0 0 0 0 0 0 0 0 0 0 0 0 0 0 0 127 0" result="hardAlpha" />
            <feOffset dy="4" />
            <feGaussianBlur stdDeviation="6" />
            <feColorMatrix type="matrix" values="0 0 0 0 0 0 0 0 0 0 0 0 0 0 0 0 0 0 0.16 0" />
            <feBlend mode="normal" in2="BackgroundImageFix" result="effect1_dropShadow_4448_43640" />
            <feColorMatrix in="SourceAlpha" type="matrix"
                values="0 0 0 0 0 0 0 0 0 0 0 0 0 0 0 0 0 0 127 0" result="hardAlpha" />
            <feOffset dy="2" />
            <feGaussianBlur stdDeviation="2" />
            <feColorMatrix type="matrix" values="0 0 0 0 0 0 0 0 0 0 0 0 0 0 0 0 0 0 0.24 0" />
            <feBlend mode="normal" in2="effect1_dropShadow_4448_43640"
                result="effect2_dropShadow_4448_43640" />
            <feBlend mode="normal" in="SourceGraphic" in2="effect2_dropShadow_4448_43640"
                result="shape" />
        </filter>
        <filter id="filter5_i_4448_43640" x="69.957" y="309.428" width="10.9922" height="12.9785"
            filterUnits="userSpaceOnUse" color-interpolation-filters="sRGB">
            <feFlood flood-opacity="0" result="BackgroundImageFix" />
            <feBlend mode="normal" in="SourceGraphic" in2="BackgroundImageFix" result="shape" />
            <feColorMatrix in="SourceAlpha" type="matrix"
                values="0 0 0 0 0 0 0 0 0 0 0 0 0 0 0 0 0 0 127 0" result="hardAlpha" />
            <feOffset dy="1" />
            <feGaussianBlur stdDeviation="1" />
            <feComposite in2="hardAlpha" operator="arithmetic" k2="-1" k3="1" />
            <feColorMatrix type="matrix" values="0 0 0 0 0 0 0 0 0 0 0 0 0 0 0 0 0 0 0.24 0" />
            <feBlend mode="darken" in2="shape" result="effect1_innerShadow_4448_43640" />
        </filter>
        <filter id="filter6_i_4448_43640" x="365.732" y="309.428" width="10.9922" height="12.9785"
            filterUnits="userSpaceOnUse" color-interpolation-filters="sRGB">
            <feFlood flood-opacity="0" result="BackgroundImageFix" />
            <feBlend mode="normal" in="SourceGraphic" in2="BackgroundImageFix" result="shape" />
            <feColorMatrix in="SourceAlpha" type="matrix"
                values="0 0 0 0 0 0 0 0 0 0 0 0 0 0 0 0 0 0 127 0" result="hardAlpha" />
            <feOffset dy="1" />
            <feGaussianBlur stdDeviation="1" />
            <feComposite in2="hardAlpha" operator="arithmetic" k2="-1" k3="1" />
            <feColorMatrix type="matrix" values="0 0 0 0 0 0 0 0 0 0 0 0 0 0 0 0 0 0 0.24 0" />
            <feBlend mode="darken" in2="shape" result="effect1_innerShadow_4448_43640" />
        </filter>
        <filter id="filter7_i_4448_43640" x="149.809" y="304.838" width="145.102" height="34.2461"
            filterUnits="userSpaceOnUse" color-interpolation-filters="sRGB">
            <feFlood flood-opacity="0" result="BackgroundImageFix" />
            <feBlend mode="normal" in="SourceGraphic" in2="BackgroundImageFix" result="shape" />
            <feColorMatrix in="SourceAlpha" type="matrix"
                values="0 0 0 0 0 0 0 0 0 0 0 0 0 0 0 0 0 0 127 0" result="hardAlpha" />
            <feOffset dy="1" />
            <feGaussianBlur stdDeviation="1" />
            <feComposite in2="hardAlpha" operator="arithmetic" k2="-1" k3="1" />
            <feColorMatrix type="matrix" values="0 0 0 0 0 0 0 0 0 0 0 0 0 0 0 0 0 0 0.24 0" />
            <feBlend mode="darken" in2="shape" result="effect1_innerShadow_4448_43640" />
        </filter>
        <linearGradient id="paint0_linear_4448_43640" x1="224" y1="287.471" x2="224" y2="380.298"
            gradientUnits="userSpaceOnUse">
            <stop stop-opacity="0" />
            <stop offset="1" stop-opacity="0.16" />
        </linearGradient>
        <linearGradient id="paint1_linear_4448_43640" x1="224" y1="241.057" x2="224" y2="380.298"
            gradientUnits="userSpaceOnUse">
            <stop stop-color="white" />
            <stop offset="1" stop-color="white" stop-opacity="0" />
        </linearGradient>
        <radialGradient id="paint2_radial_4448_43640" cx="0" cy="0" r="1"
            gradientUnits="userSpaceOnUse"
            gradientTransform="translate(224 287.471) rotate(90) scale(92.8274 394.411)">
            <stop stop-color="white" />
            <stop offset="1" stop-color="white" stop-opacity="0" />
        </radialGradient>
        <linearGradient id="paint3_linear_4448_43640" x1="223.606" y1="0.152832" x2="223.606"
            y2="422.369" gradientUnits="userSpaceOnUse">
            <stop stop-color="white" />
            <stop offset="1" stop-color="white" stop-opacity="0" />
        </linearGradient>
        <radialGradient id="paint4_radial_4448_43640" cx="0" cy="0" r="1"
            gradientUnits="userSpaceOnUse"
            gradientTransform="translate(223.606 121.428) rotate(90) scale(278.483 211.524)">
            <stop stop-color="white" />
            <stop offset="1" stop-color="white" stop-opacity="0" />
        </radialGradient>
        <linearGradient id="paint5_linear_4448_43640" x1="404.616" y1="13.8525" x2="404.616"
            y2="423.402" gradientUnits="userSpaceOnUse">
            <stop stop-color="#49F0BC" />
            <stop offset="1" stop-color="#29DCCC" />
        </linearGradient>
        <linearGradient id="paint6_linear_4448_43640" x1="221.641" y1="0.152832" x2="221.641"
            y2="422.369" gradientUnits="userSpaceOnUse">
            <stop stop-color="white" />
            <stop offset="1" stop-color="white" stop-opacity="0" />
        </linearGradient>
        <radialGradient id="paint7_radial_4448_43640" cx="0" cy="0" r="1"
            gradientUnits="userSpaceOnUse"
            gradientTransform="translate(221.641 121.428) rotate(90) scale(278.483 211.524)">
            <stop stop-color="white" />
            <stop offset="1" stop-color="white" stop-opacity="0" />
        </radialGradient>
        <linearGradient id="paint8_linear_4448_43640" x1="-51.5117" y1="-62.1289" x2="-51.5117"
            y2="487.501" gradientUnits="userSpaceOnUse">
            <stop stop-color="white" />
            <stop offset="1" stop-color="white" stop-opacity="0.01" />
        </linearGradient>
        <linearGradient id="paint9_linear_4448_43640" x1="223.839" y1="6.20117" x2="223.839"
            y2="423.138" gradientUnits="userSpaceOnUse">
            <stop stop-color="white" />
            <stop offset="1" stop-color="#999999" />
        </linearGradient>
        <linearGradient id="paint10_linear_4448_43640" x1="225.481" y1="116.93" x2="225.481"
            y2="256.329" gradientUnits="userSpaceOnUse">
            <stop stop-color="#DFDFDF" />
            <stop offset="1" stop-color="#A9A9A9" />
        </linearGradient>
        <linearGradient id="paint11_linear_4448_43640" x1="223.341" y1="271.498" x2="223.341"
            y2="359.335" gradientUnits="userSpaceOnUse">
            <stop stop-opacity="0" />
            <stop offset="1" stop-opacity="0.16" />
        </linearGradient>
        <linearGradient id="paint12_linear_4448_43640" x1="223.341" y1="271.498" x2="223.341"
            y2="359.335" gradientUnits="userSpaceOnUse">
            <stop stop-color="white" />
            <stop offset="1" stop-color="white" stop-opacity="0" />
        </linearGradient>
        <radialGradient id="paint13_radial_4448_43640" cx="0" cy="0" r="1"
            gradientUnits="userSpaceOnUse"
            gradientTransform="translate(223.341 286.826) rotate(90) scale(72.5089 168.373)">
            <stop stop-color="white" />
            <stop offset="1" stop-color="white" stop-opacity="0" />
        </radialGradient>
    </defs>
</svg>