<svg width="100%" height="100%" viewBox="0 0 318 408" fill="none" xmlns="http://www.w3.org/2000/svg">
    <g filter="url(#filter0_dd_5449_42426)">
        <mask id="path-1-inside-1_5449_42426" fill="white">
            <path fill-rule="evenodd" clip-rule="evenodd"
                d="M13.0428 203.22C12.8203 204.426 13.4749 205.921 14.7841 208.912L24.9476 232.129L14.7841 255.345C13.4749 258.336 12.8203 259.831 13.0428 261.037C13.2372 262.092 13.8466 263.024 14.7343 263.624C15.75 264.312 17.3823 264.312 20.647 264.312H53.0047C57.4852 264.312 59.7254 264.312 61.4367 263.44C62.942 262.673 64.1658 261.449 64.9328 259.944C65.8047 258.233 65.8047 255.992 65.8047 251.512V212.745C65.8047 208.265 65.8047 206.025 64.9328 204.313C64.1658 202.808 62.942 201.584 61.4367 200.817C59.7254 199.945 57.4852 199.945 53.0047 199.945H20.647C17.3823 199.945 15.75 199.945 14.7343 200.633C13.8466 201.234 13.2372 202.166 13.0428 203.22ZM304.958 203.22C305.18 204.426 304.526 205.921 303.217 208.912L293.053 232.129L303.217 255.345C304.526 258.336 305.18 259.831 304.958 261.037C304.764 262.092 304.154 263.024 303.266 263.624C302.251 264.312 300.618 264.312 297.354 264.312H264.996C260.516 264.312 258.275 264.312 256.564 263.44C255.059 262.673 253.835 261.449 253.068 259.944C252.196 258.233 252.196 255.992 252.196 251.512V212.745C252.196 208.265 252.196 206.025 253.068 204.313C253.835 202.808 255.059 201.584 256.564 200.817C258.275 199.945 260.516 199.945 264.996 199.945H297.354C300.618 199.945 302.251 199.945 303.266 200.633C304.154 201.234 304.764 202.166 304.958 203.22Z" />
        </mask>
        <path fill-rule="evenodd" clip-rule="evenodd"
            d="M13.0428 203.22C12.8203 204.426 13.4749 205.921 14.7841 208.912L24.9476 232.129L14.7841 255.345C13.4749 258.336 12.8203 259.831 13.0428 261.037C13.2372 262.092 13.8466 263.024 14.7343 263.624C15.75 264.312 17.3823 264.312 20.647 264.312H53.0047C57.4852 264.312 59.7254 264.312 61.4367 263.44C62.942 262.673 64.1658 261.449 64.9328 259.944C65.8047 258.233 65.8047 255.992 65.8047 251.512V212.745C65.8047 208.265 65.8047 206.025 64.9328 204.313C64.1658 202.808 62.942 201.584 61.4367 200.817C59.7254 199.945 57.4852 199.945 53.0047 199.945H20.647C17.3823 199.945 15.75 199.945 14.7343 200.633C13.8466 201.234 13.2372 202.166 13.0428 203.22ZM304.958 203.22C305.18 204.426 304.526 205.921 303.217 208.912L293.053 232.129L303.217 255.345C304.526 258.336 305.18 259.831 304.958 261.037C304.764 262.092 304.154 263.024 303.266 263.624C302.251 264.312 300.618 264.312 297.354 264.312H264.996C260.516 264.312 258.275 264.312 256.564 263.44C255.059 262.673 253.835 261.449 253.068 259.944C252.196 258.233 252.196 255.992 252.196 251.512V212.745C252.196 208.265 252.196 206.025 253.068 204.313C253.835 202.808 255.059 201.584 256.564 200.817C258.275 199.945 260.516 199.945 264.996 199.945H297.354C300.618 199.945 302.251 199.945 303.266 200.633C304.154 201.234 304.764 202.166 304.958 203.22Z"
            fill="#FFA00F" />
        <path
            d="M14.7841 208.912L15.2422 208.711L14.7841 208.912ZM13.0428 203.22L13.5345 203.31L13.0428 203.22ZM24.9476 232.129L25.4056 232.329L25.4934 232.129L25.4056 231.928L24.9476 232.129ZM14.7841 255.345L15.2422 255.546L14.7841 255.345ZM13.0428 261.037L13.5345 260.947H13.5345L13.0428 261.037ZM14.7343 263.624L15.0146 263.21H15.0146L14.7343 263.624ZM61.4367 263.44L61.2097 262.994H61.2097L61.4367 263.44ZM64.9328 259.944L64.4873 259.717V259.717L64.9328 259.944ZM64.9328 204.313L64.4873 204.54L64.9328 204.313ZM61.4367 200.817L61.2097 201.263V201.263L61.4367 200.817ZM14.7343 200.633L14.454 200.219V200.219L14.7343 200.633ZM303.217 208.912L302.759 208.711V208.711L303.217 208.912ZM304.958 203.22L304.466 203.31V203.31L304.958 203.22ZM293.053 232.129L292.595 231.928L292.507 232.129L292.595 232.329L293.053 232.129ZM303.217 255.345L302.759 255.546L303.217 255.345ZM304.958 261.037L304.466 260.947V260.947L304.958 261.037ZM303.266 263.624L303.547 264.038V264.038L303.266 263.624ZM256.564 263.44L256.337 263.885L256.564 263.44ZM253.068 259.944L253.513 259.717L253.513 259.717L253.068 259.944ZM253.068 204.313L253.513 204.54V204.54L253.068 204.313ZM256.564 200.817L256.337 200.372V200.372L256.564 200.817ZM303.266 200.633L303.547 200.219V200.219L303.266 200.633ZM15.2422 208.711C14.5837 207.207 14.104 206.11 13.8134 205.238C13.523 204.367 13.4462 203.789 13.5345 203.31L12.5511 203.129C12.4169 203.857 12.5561 204.629 12.8647 205.555C13.1731 206.48 13.6754 207.626 14.3261 209.112L15.2422 208.711ZM25.4056 231.928L15.2422 208.711L14.3261 209.112L24.4895 232.329L25.4056 231.928ZM15.2422 255.546L25.4056 232.329L24.4895 231.928L14.3261 255.145L15.2422 255.546ZM13.5345 260.947C13.4462 260.468 13.523 259.89 13.8134 259.019C14.104 258.147 14.5837 257.05 15.2422 255.546L14.3261 255.145C13.6754 256.631 13.1731 257.777 12.8647 258.702C12.5561 259.628 12.4169 260.401 12.5511 261.128L13.5345 260.947ZM15.0146 263.21C14.2378 262.685 13.7046 261.869 13.5345 260.947L12.5511 261.128C12.7698 262.314 13.4554 263.363 14.454 264.038L15.0146 263.21ZM20.647 263.812C19.005 263.812 17.8077 263.811 16.8926 263.728C15.9782 263.645 15.4175 263.483 15.0146 263.21L14.454 264.038C15.0668 264.453 15.8301 264.635 16.8019 264.724C17.7731 264.812 19.0243 264.812 20.647 264.812V263.812ZM53.0047 263.812H20.647V264.812H53.0047V263.812ZM61.2097 262.994C60.4362 263.389 59.5215 263.598 58.2184 263.705C56.9095 263.811 55.2532 263.812 53.0047 263.812V264.812C55.2367 264.812 56.9407 264.812 58.2998 264.701C59.6648 264.59 60.7258 264.363 61.6637 263.885L61.2097 262.994ZM64.4873 259.717C63.7682 261.128 62.6209 262.275 61.2097 262.994L61.6637 263.885C63.263 263.071 64.5634 261.77 65.3783 260.171L64.4873 259.717ZM65.3047 251.512C65.3047 253.76 65.3043 255.417 65.1974 256.726C65.0909 258.029 64.8814 258.943 64.4873 259.717L65.3783 260.171C65.8562 259.233 66.0826 258.172 66.1941 256.807C66.3051 255.448 66.3047 253.744 66.3047 251.512H65.3047ZM65.3047 212.745V251.512H66.3047V212.745H65.3047ZM64.4873 204.54C64.8814 205.314 65.0909 206.229 65.1974 207.532C65.3043 208.841 65.3047 210.497 65.3047 212.745H66.3047C66.3047 210.513 66.3051 208.809 66.1941 207.45C66.0826 206.085 65.8562 205.024 65.3783 204.086L64.4873 204.54ZM61.2097 201.263C62.6209 201.982 63.7682 203.129 64.4873 204.54L65.3783 204.086C64.5634 202.487 63.263 201.187 61.6637 200.372L61.2097 201.263ZM53.0047 200.445C55.2532 200.445 56.9095 200.446 58.2184 200.553C59.5215 200.659 60.4362 200.869 61.2097 201.263L61.6637 200.372C60.7258 199.894 59.6648 199.667 58.2998 199.556C56.9407 199.445 55.2367 199.445 53.0047 199.445V200.445ZM20.647 200.445H53.0047V199.445H20.647V200.445ZM15.0146 201.047C15.4175 200.774 15.9782 200.613 16.8926 200.529C17.8077 200.446 19.005 200.445 20.647 200.445V199.445C19.0243 199.445 17.7731 199.445 16.8019 199.533C15.8301 199.622 15.0668 199.804 14.454 200.219L15.0146 201.047ZM13.5345 203.31C13.7046 202.388 14.2378 201.573 15.0146 201.047L14.454 200.219C13.4554 200.895 12.7698 201.943 12.5511 203.129L13.5345 203.31ZM303.675 209.112C304.325 207.626 304.828 206.48 305.136 205.555C305.445 204.629 305.584 203.857 305.45 203.129L304.466 203.31C304.555 203.789 304.478 204.367 304.187 205.238C303.897 206.11 303.417 207.207 302.759 208.711L303.675 209.112ZM293.511 232.329L303.675 209.112L302.759 208.711L292.595 231.928L293.511 232.329ZM303.675 255.145L293.511 231.928L292.595 232.329L302.759 255.546L303.675 255.145ZM305.45 261.128C305.584 260.401 305.445 259.628 305.136 258.702C304.828 257.777 304.325 256.631 303.675 255.145L302.759 255.546C303.417 257.05 303.897 258.147 304.187 259.019C304.478 259.89 304.555 260.468 304.466 260.947L305.45 261.128ZM303.547 264.038C304.545 263.363 305.231 262.314 305.45 261.128L304.466 260.947C304.296 261.869 303.763 262.685 302.986 263.21L303.547 264.038ZM297.354 264.812C298.976 264.812 300.228 264.812 301.199 264.724C302.171 264.635 302.934 264.453 303.547 264.038L302.986 263.21C302.583 263.483 302.023 263.645 301.108 263.728C300.193 263.811 298.996 263.812 297.354 263.812V264.812ZM264.996 264.812H297.354V263.812H264.996V264.812ZM256.337 263.885C257.275 264.363 258.336 264.59 259.701 264.701C261.06 264.812 262.764 264.812 264.996 264.812V263.812C262.748 263.812 261.091 263.811 259.782 263.705C258.479 263.598 257.564 263.389 256.791 262.994L256.337 263.885ZM252.622 260.171C253.437 261.77 254.738 263.071 256.337 263.885L256.791 262.994C255.38 262.275 254.232 261.128 253.513 259.717L252.622 260.171ZM251.696 251.512C251.696 253.744 251.696 255.448 251.807 256.807C251.918 258.172 252.145 259.233 252.622 260.171L253.513 259.717C253.119 258.943 252.91 258.029 252.803 256.726C252.696 255.417 252.696 253.76 252.696 251.512H251.696ZM251.696 212.745V251.512H252.696V212.745H251.696ZM252.622 204.086C252.145 205.024 251.918 206.085 251.807 207.45C251.696 208.809 251.696 210.513 251.696 212.745H252.696C252.696 210.497 252.696 208.841 252.803 207.532C252.91 206.229 253.119 205.314 253.513 204.54L252.622 204.086ZM256.337 200.372C254.738 201.187 253.437 202.487 252.622 204.086L253.513 204.54C254.232 203.129 255.38 201.982 256.791 201.263L256.337 200.372ZM264.996 199.445C262.764 199.445 261.06 199.445 259.701 199.556C258.336 199.667 257.275 199.894 256.337 200.372L256.791 201.263C257.564 200.869 258.479 200.659 259.782 200.553C261.091 200.446 262.748 200.445 264.996 200.445V199.445ZM297.354 199.445H264.996V200.445H297.354V199.445ZM303.547 200.219C302.934 199.804 302.171 199.622 301.199 199.533C300.228 199.445 298.976 199.445 297.354 199.445V200.445C298.996 200.445 300.193 200.446 301.108 200.529C302.023 200.613 302.583 200.774 302.986 201.047L303.547 200.219ZM305.45 203.129C305.231 201.943 304.545 200.895 303.547 200.219L302.986 201.047C303.763 201.573 304.296 202.388 304.466 203.31L305.45 203.129Z"
            fill="url(#paint0_linear_5449_42426)" style="mix-blend-mode:darken"
            mask="url(#path-1-inside-1_5449_42426)" />
    </g>
    <path fill-rule="evenodd" clip-rule="evenodd"
        d="M13.0428 203.22C12.8203 204.426 13.4749 205.921 14.7841 208.912L24.9476 232.129L14.7841 255.345C13.4749 258.336 12.8203 259.831 13.0428 261.037C13.2372 262.092 13.8466 263.024 14.7343 263.624C15.75 264.312 17.3823 264.312 20.647 264.312H53.0047C57.4852 264.312 59.7254 264.312 61.4367 263.44C62.942 262.673 64.1658 261.449 64.9328 259.944C65.8047 258.233 65.8047 255.992 65.8047 251.512V212.745C65.8047 208.265 65.8047 206.025 64.9328 204.313C64.1658 202.808 62.942 201.584 61.4367 200.817C59.7254 199.945 57.4852 199.945 53.0047 199.945H20.647C17.3823 199.945 15.75 199.945 14.7343 200.633C13.8466 201.234 13.2372 202.166 13.0428 203.22ZM304.958 203.22C305.18 204.426 304.526 205.921 303.217 208.912L293.053 232.129L303.217 255.345C304.526 258.336 305.18 259.831 304.958 261.037C304.764 262.092 304.154 263.024 303.266 263.624C302.251 264.312 300.618 264.312 297.354 264.312H264.996C260.516 264.312 258.275 264.312 256.564 263.44C255.059 262.673 253.835 261.449 253.068 259.944C252.196 258.233 252.196 255.992 252.196 251.512V212.745C252.196 208.265 252.196 206.025 253.068 204.313C253.835 202.808 255.059 201.584 256.564 200.817C258.275 199.945 260.516 199.945 264.996 199.945H297.354C300.618 199.945 302.251 199.945 303.266 200.633C304.154 201.234 304.764 202.166 304.958 203.22Z"
        fill="url(#paint1_linear_5449_42426)" fill-opacity="0.3" style="mix-blend-mode:overlay" />
    <path fill-rule="evenodd" clip-rule="evenodd"
        d="M13.0428 203.22C12.8203 204.426 13.4749 205.921 14.7841 208.912L24.9476 232.129L14.7841 255.345C13.4749 258.336 12.8203 259.831 13.0428 261.037C13.2372 262.092 13.8466 263.024 14.7343 263.624C15.75 264.312 17.3823 264.312 20.647 264.312H53.0047C57.4852 264.312 59.7254 264.312 61.4367 263.44C62.942 262.673 64.1658 261.449 64.9328 259.944C65.8047 258.233 65.8047 255.992 65.8047 251.512V212.745C65.8047 208.265 65.8047 206.025 64.9328 204.313C64.1658 202.808 62.942 201.584 61.4367 200.817C59.7254 199.945 57.4852 199.945 53.0047 199.945H20.647C17.3823 199.945 15.75 199.945 14.7343 200.633C13.8466 201.234 13.2372 202.166 13.0428 203.22ZM304.958 203.22C305.18 204.426 304.526 205.921 303.217 208.912L293.053 232.129L303.217 255.345C304.526 258.336 305.18 259.831 304.958 261.037C304.764 262.092 304.154 263.024 303.266 263.624C302.251 264.312 300.618 264.312 297.354 264.312H264.996C260.516 264.312 258.275 264.312 256.564 263.44C255.059 262.673 253.835 261.449 253.068 259.944C252.196 258.233 252.196 255.992 252.196 251.512V212.745C252.196 208.265 252.196 206.025 253.068 204.313C253.835 202.808 255.059 201.584 256.564 200.817C258.275 199.945 260.516 199.945 264.996 199.945H297.354C300.618 199.945 302.251 199.945 303.266 200.633C304.154 201.234 304.764 202.166 304.958 203.22Z"
        fill="url(#paint2_radial_5449_42426)" fill-opacity="0.6" style="mix-blend-mode:overlay" />
    <path fill-rule="evenodd" clip-rule="evenodd"
        d="M13.0428 203.22C12.8203 204.426 13.4749 205.921 14.7841 208.912L24.9476 232.129L14.7841 255.345C13.4749 258.336 12.8203 259.831 13.0428 261.037C13.2372 262.092 13.8466 263.024 14.7343 263.624C15.75 264.312 17.3823 264.312 20.647 264.312H53.0047C57.4852 264.312 59.7254 264.312 61.4367 263.44C62.942 262.673 64.1658 261.449 64.9328 259.944C65.8047 258.233 65.8047 255.992 65.8047 251.512V212.745C65.8047 208.265 65.8047 206.025 64.9328 204.313C64.1658 202.808 62.942 201.584 61.4367 200.817C59.7254 199.945 57.4852 199.945 53.0047 199.945H20.647C17.3823 199.945 15.75 199.945 14.7343 200.633C13.8466 201.234 13.2372 202.166 13.0428 203.22ZM304.958 203.22C305.18 204.426 304.526 205.921 303.217 208.912L293.053 232.129L303.217 255.345C304.526 258.336 305.18 259.831 304.958 261.037C304.764 262.092 304.154 263.024 303.266 263.624C302.251 264.312 300.618 264.312 297.354 264.312H264.996C260.516 264.312 258.275 264.312 256.564 263.44C255.059 262.673 253.835 261.449 253.068 259.944C252.196 258.233 252.196 255.992 252.196 251.512V212.745C252.196 208.265 252.196 206.025 253.068 204.313C253.835 202.808 255.059 201.584 256.564 200.817C258.275 199.945 260.516 199.945 264.996 199.945H297.354C300.618 199.945 302.251 199.945 303.266 200.633C304.154 201.234 304.764 202.166 304.958 203.22Z"
        fill="black" fill-opacity="0.24" style="mix-blend-mode:overlay" />
    <path fill-rule="evenodd" clip-rule="evenodd"
        d="M13.0428 203.22C12.8203 204.426 13.4749 205.921 14.7841 208.912L24.9476 232.129L14.7841 255.345C13.4749 258.336 12.8203 259.831 13.0428 261.037C13.2372 262.092 13.8466 263.024 14.7343 263.624C15.75 264.312 17.3823 264.312 20.647 264.312H53.0047C57.4852 264.312 59.7254 264.312 61.4367 263.44C62.942 262.673 64.1658 261.449 64.9328 259.944C65.8047 258.233 65.8047 255.992 65.8047 251.512V212.745C65.8047 208.265 65.8047 206.025 64.9328 204.313C64.1658 202.808 62.942 201.584 61.4367 200.817C59.7254 199.945 57.4852 199.945 53.0047 199.945H20.647C17.3823 199.945 15.75 199.945 14.7343 200.633C13.8466 201.234 13.2372 202.166 13.0428 203.22ZM304.958 203.22C305.18 204.426 304.526 205.921 303.217 208.912L293.053 232.129L303.217 255.345C304.526 258.336 305.18 259.831 304.958 261.037C304.764 262.092 304.154 263.024 303.266 263.624C302.251 264.312 300.618 264.312 297.354 264.312H264.996C260.516 264.312 258.275 264.312 256.564 263.44C255.059 262.673 253.835 261.449 253.068 259.944C252.196 258.233 252.196 255.992 252.196 251.512V212.745C252.196 208.265 252.196 206.025 253.068 204.313C253.835 202.808 255.059 201.584 256.564 200.817C258.275 199.945 260.516 199.945 264.996 199.945H297.354C300.618 199.945 302.251 199.945 303.266 200.633C304.154 201.234 304.764 202.166 304.958 203.22Z"
        fill="black" fill-opacity="0.12" style="mix-blend-mode:darken" />
    <g filter="url(#filter1_dddd_5449_42426)">
        <path
            d="M33.0934 83.1998C33.0224 76.1127 32.9869 72.5691 34.3823 68.9778C35.5806 65.8939 37.7063 62.9436 40.2523 60.8307C43.2173 58.3703 47.3674 57.0314 55.6677 54.3538C85.3637 44.7738 113.879 30.7718 140.357 14.217C147.556 9.71615 151.156 7.46571 154.456 6.71561C157.625 5.99515 160.152 5.99515 163.322 6.71561C166.622 7.46571 170.221 9.71615 177.42 14.217C203.899 30.7718 232.414 44.7738 262.11 54.3538C270.41 57.0314 274.56 58.3703 277.525 60.8307C280.071 62.9436 282.197 65.8939 283.395 68.9778C284.79 72.5691 284.755 76.1127 284.684 83.1998C284.424 109.16 280.678 153.179 261.369 192.491C236.729 242.653 194.359 274.284 172.625 288.034C168.671 290.536 166.694 291.787 163.363 292.552C160.96 293.103 156.817 293.103 154.414 292.552C151.083 291.787 149.106 290.536 145.152 288.034C123.418 274.284 81.0485 242.653 56.4088 192.491C37.0989 153.179 33.3535 109.16 33.0934 83.1998Z"
            fill="black" />
    </g>
    <mask id="mask0_5449_42426" style="mask-type:alpha" maskUnits="userSpaceOnUse" x="33" y="6"
        width="252" height="287">
        <path
            d="M33.0934 83.1998C33.0224 76.1127 32.9869 72.5691 34.3823 68.9778C35.5806 65.8939 37.7063 62.9436 40.2523 60.8307C43.2173 58.3703 47.3674 57.0314 55.6677 54.3538C85.3637 44.7738 113.879 30.7718 140.357 14.217C147.556 9.71615 151.156 7.46571 154.456 6.71561C157.625 5.99515 160.152 5.99515 163.322 6.71561C166.622 7.46571 170.221 9.71615 177.42 14.217C203.899 30.7718 232.414 44.7738 262.11 54.3538C270.41 57.0314 274.56 58.3703 277.525 60.8307C280.071 62.9436 282.197 65.8939 283.395 68.9778C284.79 72.5691 284.755 76.1127 284.684 83.1998C284.424 109.16 280.678 153.179 261.369 192.491C236.729 242.653 194.359 274.284 172.625 288.034C168.671 290.536 166.694 291.787 163.363 292.552C160.96 293.103 156.817 293.103 154.414 292.552C151.083 291.787 149.106 290.536 145.152 288.034C123.418 274.284 81.0485 242.653 56.4088 192.491C37.0989 153.179 33.3535 109.16 33.0934 83.1998Z"
            fill="black" />
    </mask>
    <g mask="url(#mask0_5449_42426)">
        <mask id="mask1_5449_42426" style="mask-type:alpha" maskUnits="userSpaceOnUse" x="33" y="6"
            width="252" height="287">
            <path
                d="M33.0934 83.1998C33.0224 76.1127 32.9869 72.5691 34.3823 68.9778C35.5806 65.8939 37.7063 62.9436 40.2523 60.8307C43.2173 58.3703 47.3674 57.0314 55.6677 54.3538C85.3637 44.7738 113.879 30.7718 140.357 14.217C147.556 9.71615 151.156 7.46571 154.456 6.71561C157.625 5.99515 160.152 5.99515 163.322 6.71561C166.622 7.46571 170.221 9.71615 177.42 14.217C203.899 30.7718 232.414 44.7738 262.11 54.3538C270.41 57.0314 274.56 58.3703 277.525 60.8307C280.071 62.9436 282.197 65.8939 283.395 68.9778C284.79 72.5691 284.755 76.1127 284.684 83.1998C284.424 109.16 280.678 153.179 261.369 192.491C236.729 242.653 194.359 274.284 172.625 288.034C168.671 290.536 166.694 291.787 163.363 292.552C160.96 293.103 156.817 293.103 154.414 292.552C151.083 291.787 149.106 290.536 145.152 288.034C123.418 274.284 81.0485 242.653 56.4088 192.491C37.0989 153.179 33.3535 109.16 33.0934 83.1998Z"
                fill="black" />
        </mask>
        <g mask="url(#mask1_5449_42426)">
            <rect x="-31.5977" y="-42.4668" width="380.647" height="381.113" fill="#2BB572" />
            <rect x="-31.5977" y="-42.4668" width="380.647" height="381.113"
                fill="url(#paint3_linear_5449_42426)" fill-opacity="0.6"
                style="mix-blend-mode:overlay" />
            <rect x="-31.5977" y="-42.4668" width="380.647" height="381.113"
                fill="url(#paint4_radial_5449_42426)" fill-opacity="0.6"
                style="mix-blend-mode:overlay" />
            <rect x="-31.5977" y="-42.4668" width="380.647" height="381.113" fill="black"
                fill-opacity="0.16" style="mix-blend-mode:overlay" />
            <rect x="-31.5977" y="-42.4668" width="380.647" height="381.113" fill="black"
                fill-opacity="0.12" style="mix-blend-mode:darken" />
        </g>
        <g filter="url(#filter2_d_5449_42426)">
            <mask id="mask2_5449_42426" style="mask-type:alpha" maskUnits="userSpaceOnUse" x="33"
                y="6" width="252" height="287">
                <path fill-rule="evenodd" clip-rule="evenodd"
                    d="M58.1221 61.966C88.5496 52.1501 117.661 37.8394 144.596 20.9989C148.272 18.7009 150.754 17.1526 152.728 16.0651C154.677 14.9912 155.642 14.6481 156.227 14.5152C158.23 14.06 159.544 14.06 161.547 14.5152C162.131 14.6481 163.097 14.9912 165.046 16.0651C167.02 17.1526 169.502 18.7009 173.177 20.9989C200.113 37.8394 229.224 52.1501 259.652 61.966C268.646 64.8673 270.929 65.7526 272.414 66.9856C273.913 68.2295 275.231 70.0582 275.936 71.8738C276.655 73.7229 276.759 75.5183 276.683 83.1182C276.427 108.605 272.723 151.225 254.186 188.962C230.493 237.197 189.557 267.853 168.347 281.272C164.264 283.855 163.379 284.338 161.572 284.753C161.172 284.845 160.19 284.964 158.887 284.964C157.584 284.964 156.602 284.845 156.202 284.753C154.395 284.338 153.51 283.855 149.427 281.272C128.217 267.853 87.2806 237.197 63.5876 188.962C45.0508 151.225 41.3466 108.605 41.0912 83.1182C41.0151 75.5183 41.1189 73.7229 41.8374 71.8738C42.5429 70.0582 43.8605 68.2295 45.3594 66.9856C46.8452 65.7526 49.1283 64.8673 58.1221 61.966ZM33.0916 83.1984C33.0206 76.1112 32.9851 72.5677 34.3806 68.9763C35.5788 65.8924 37.7046 62.9421 40.2506 60.8293C43.2155 58.3688 47.3657 57.03 55.6659 54.3523C85.362 44.7724 113.877 30.7703 140.355 14.2156C147.554 9.71472 151.154 7.46428 154.454 6.71418C157.624 5.99371 160.15 5.99371 163.32 6.71418C166.62 7.46427 170.219 9.71465 177.418 14.2154L177.418 14.2155C203.897 30.7703 232.412 44.7724 262.108 54.3523C270.408 57.03 274.558 58.3688 277.523 60.8293C280.069 62.9421 282.195 65.8924 283.393 68.9763C284.789 72.5677 284.753 76.1112 284.682 83.1984C284.422 109.158 280.677 153.178 261.367 192.49C236.727 242.652 194.357 274.283 172.624 288.033C168.669 290.535 166.692 291.786 163.361 292.55C160.958 293.102 156.816 293.102 154.412 292.55C151.082 291.786 149.105 290.535 145.15 288.033C123.417 274.283 81.0467 242.652 56.4071 192.49C37.0972 153.178 33.3518 109.158 33.0916 83.1984ZM150.084 46.3805C137.349 53.7102 124.655 61.0167 111.315 67.3105C98.2259 73.4865 84.7716 78.4999 71.2571 83.5357C70.8413 83.6906 70.4255 83.8456 70.0097 84.0006L70.0096 84.0006C68.4729 84.5733 67.7046 84.8597 67.1388 85.3691C66.645 85.8135 66.2583 86.3948 66.0391 87.0219C65.7878 87.7406 65.82 88.547 65.8843 90.1599C67.0851 120.273 72.3267 150.879 85.6849 178.074C101.191 209.642 126.565 235.816 155.365 255.648C156.602 256.5 157.221 256.926 157.931 257.101C158.542 257.251 159.232 257.251 159.843 257.101C160.553 256.926 161.172 256.5 162.409 255.648C191.209 235.815 216.583 209.642 232.089 178.074C245.447 150.879 250.689 120.273 251.89 90.1599V90.1596C251.954 88.5469 251.986 87.7405 251.735 87.0219C251.516 86.3948 251.129 85.8136 250.635 85.3691C250.069 84.8597 249.301 84.5733 247.764 84.0005L246.583 83.5603C233.053 78.5182 219.536 73.4807 206.458 67.3105C193.119 61.0167 180.425 53.7102 167.69 46.3805C165.813 45.2999 163.935 44.2188 162.053 43.1404C160.904 42.4818 160.33 42.1526 159.714 42.0224C159.171 41.9078 158.603 41.9078 158.06 42.0224C157.444 42.1526 156.87 42.4818 155.721 43.1404C153.839 44.2188 151.961 45.2999 150.084 46.3805Z"
                    fill="url(#paint5_linear_5449_42426)" />
            </mask>
            <g mask="url(#mask2_5449_42426)">
                <rect x="-31.5977" y="-42.4688" width="380.647" height="381.113" fill="#2BB572" />
                <rect x="-32.957" y="-42.4688" width="380.647" height="381.113"
                    fill="url(#paint6_linear_5449_42426)" fill-opacity="0.6"
                    style="mix-blend-mode:overlay" />
                <rect x="-32.957" y="-42.4688" width="380.647" height="381.113"
                    fill="url(#paint7_radial_5449_42426)" fill-opacity="0.6"
                    style="mix-blend-mode:overlay" />
                <g style="mix-blend-mode:soft-light">
                    <path fill-rule="evenodd" clip-rule="evenodd"
                        d="M-31.5977 -42.4688H158.726V338.645H-31.5977V-42.4688Z"
                        fill="url(#paint8_linear_5449_42426)" style="mix-blend-mode:lighten" />
                </g>
                <g style="mix-blend-mode:soft-light">
                    <mask id="path-15-inside-2_5449_42426" fill="white">
                        <path fill-rule="evenodd" clip-rule="evenodd"
                            d="M58.1221 61.966C88.5496 52.1501 117.661 37.8394 144.596 20.9989C148.272 18.7009 150.754 17.1526 152.728 16.0651C154.677 14.9912 155.642 14.6481 156.227 14.5152C158.23 14.06 159.544 14.06 161.547 14.5152C162.131 14.6481 163.097 14.9912 165.046 16.0651C167.02 17.1526 169.502 18.7009 173.177 20.9989C200.113 37.8394 229.224 52.1501 259.652 61.966C268.646 64.8673 270.929 65.7526 272.414 66.9856C273.913 68.2295 275.231 70.0582 275.936 71.8738C276.655 73.7229 276.759 75.5183 276.683 83.1182C276.427 108.605 272.723 151.225 254.186 188.962C230.493 237.197 189.557 267.853 168.347 281.272C164.264 283.855 163.379 284.338 161.572 284.753C161.172 284.845 160.19 284.964 158.887 284.964C157.584 284.964 156.602 284.845 156.202 284.753C154.395 284.338 153.51 283.855 149.427 281.272C128.217 267.853 87.2806 237.197 63.5876 188.962C45.0508 151.225 41.3466 108.605 41.0912 83.1182C41.0151 75.5183 41.1189 73.7229 41.8374 71.8738C42.5429 70.0582 43.8605 68.2295 45.3594 66.9856C46.8452 65.7526 49.1283 64.8673 58.1221 61.966ZM33.0916 83.1984C33.0206 76.1112 32.9851 72.5677 34.3806 68.9763C35.5788 65.8924 37.7046 62.9421 40.2506 60.8293C43.2155 58.3688 47.3657 57.03 55.6659 54.3523C85.362 44.7724 113.877 30.7703 140.355 14.2156C147.554 9.71472 151.154 7.46428 154.454 6.71418C157.624 5.99371 160.15 5.99371 163.32 6.71418C166.62 7.46427 170.219 9.71465 177.418 14.2154L177.418 14.2155C203.897 30.7703 232.412 44.7724 262.108 54.3523C270.408 57.03 274.558 58.3688 277.523 60.8293C280.069 62.9421 282.195 65.8924 283.393 68.9763C284.789 72.5677 284.753 76.1112 284.682 83.1984C284.422 109.158 280.677 153.178 261.367 192.49C236.727 242.652 194.357 274.283 172.624 288.033C168.669 290.535 166.692 291.786 163.361 292.55C160.958 293.102 156.816 293.102 154.412 292.55C151.082 291.786 149.105 290.535 145.15 288.033C123.417 274.283 81.0467 242.652 56.4071 192.49C37.0972 153.178 33.3518 109.158 33.0916 83.1984ZM150.084 46.3805C137.349 53.7102 124.655 61.0167 111.315 67.3105C98.2259 73.4865 84.7716 78.4999 71.2571 83.5357C70.8413 83.6906 70.4255 83.8456 70.0097 84.0006L70.0096 84.0006C68.4729 84.5733 67.7046 84.8597 67.1388 85.3691C66.645 85.8135 66.2583 86.3948 66.0391 87.0219C65.7878 87.7406 65.82 88.547 65.8843 90.1599C67.0851 120.273 72.3267 150.879 85.6849 178.074C101.191 209.642 126.565 235.816 155.365 255.648C156.602 256.5 157.221 256.926 157.931 257.101C158.542 257.251 159.232 257.251 159.843 257.101C160.553 256.926 161.172 256.5 162.409 255.648C191.209 235.815 216.583 209.642 232.089 178.074C245.447 150.879 250.689 120.273 251.89 90.1599V90.1596C251.954 88.5469 251.986 87.7405 251.735 87.0219C251.516 86.3948 251.129 85.8136 250.635 85.3691C250.069 84.8597 249.301 84.5733 247.764 84.0005L246.583 83.5603C233.053 78.5182 219.536 73.4807 206.458 67.3105C193.119 61.0167 180.425 53.7102 167.69 46.3805C165.813 45.2999 163.935 44.2188 162.053 43.1404C160.904 42.4818 160.33 42.1526 159.714 42.0224C159.171 41.9078 158.603 41.9078 158.06 42.0224C157.444 42.1526 156.87 42.4818 155.721 43.1404C153.839 44.2188 151.961 45.2999 150.084 46.3805Z" />
                    </mask>
                    <path
                        d="M144.596 20.9989L144.331 20.575L144.596 20.9989ZM58.1221 61.966L58.2756 62.4418L58.1221 61.966ZM152.728 16.0651L152.969 16.503L152.728 16.0651ZM156.227 14.5152L156.116 14.0276L156.227 14.5152ZM161.547 14.5152L161.436 15.0028V15.0028L161.547 14.5152ZM165.046 16.0651L164.805 16.503V16.503L165.046 16.0651ZM173.177 20.9989L172.912 21.4229L173.177 20.9989ZM259.652 61.966L259.498 62.4418L259.652 61.966ZM272.414 66.9856L272.095 67.3703L272.414 66.9856ZM275.936 71.8738L275.47 72.0549L275.936 71.8738ZM276.683 83.1182L276.183 83.1132L276.683 83.1182ZM254.186 188.962L253.737 188.742L254.186 188.962ZM168.347 281.272L168.079 280.85H168.079L168.347 281.272ZM161.572 284.753L161.46 284.266H161.46L161.572 284.753ZM156.202 284.753L156.314 284.266H156.314L156.202 284.753ZM149.427 281.272L149.695 280.85L149.427 281.272ZM63.5876 188.962L63.1388 189.183L63.5876 188.962ZM41.0912 83.1182L40.5913 83.1233L41.0912 83.1182ZM41.8374 71.8738L41.3714 71.6927L41.8374 71.8738ZM45.3594 66.9856L45.6787 67.3703L45.3594 66.9856ZM34.3806 68.9763L33.9145 68.7952H33.9145L34.3806 68.9763ZM33.0916 83.1984L33.5916 83.1934L33.0916 83.1984ZM40.2506 60.8293L39.9313 60.4445L40.2506 60.8293ZM55.6659 54.3523L55.8194 54.8282L55.6659 54.3523ZM140.355 14.2156L140.09 13.7916L140.355 14.2156ZM154.454 6.71418L154.343 6.22661V6.22661L154.454 6.71418ZM163.32 6.71418L163.431 6.22661V6.22661L163.32 6.71418ZM177.418 14.2154L177.153 14.6394L177.158 14.6424L177.418 14.2154ZM177.418 14.2155L177.683 13.7915L177.678 13.7885L177.418 14.2155ZM262.108 54.3523L261.954 54.8282L262.108 54.3523ZM277.523 60.8293L277.204 61.2141L277.523 60.8293ZM283.393 68.9763L283.859 68.7952L283.393 68.9763ZM284.682 83.1984L285.182 83.2034L284.682 83.1984ZM261.367 192.49L260.918 192.269L261.367 192.49ZM172.624 288.033L172.891 288.456L172.624 288.033ZM163.361 292.55L163.473 293.038L163.361 292.55ZM154.412 292.55L154.3 293.038H154.3L154.412 292.55ZM145.15 288.033L144.883 288.456L145.15 288.033ZM56.4071 192.49L55.9583 192.71L56.4071 192.49ZM111.315 67.3105L111.102 66.8583L111.315 67.3105ZM150.084 46.3805L149.834 45.9472L150.084 46.3805ZM71.2571 83.5357L71.0825 83.0672L71.2571 83.5357ZM70.0097 84.0006L70.1678 84.4749C70.1733 84.4731 70.1788 84.4711 70.1843 84.4691L70.0097 84.0006ZM70.0096 84.0006L69.8515 83.5263C69.8459 83.5281 69.8404 83.53 69.835 83.5321L70.0096 84.0006ZM67.1388 85.3691L67.4733 85.7407L67.4733 85.7407L67.1388 85.3691ZM66.0391 87.0219L66.5111 87.1869V87.1869L66.0391 87.0219ZM65.8843 90.1599L66.3839 90.1399L65.8843 90.1599ZM85.6849 178.074L86.1337 177.854L85.6849 178.074ZM155.365 255.648L155.081 256.06L155.365 255.648ZM157.931 257.101L157.812 257.586L157.931 257.101ZM159.843 257.101L159.723 256.615H159.723L159.843 257.101ZM162.409 255.648L162.693 256.06L162.409 255.648ZM232.089 178.074L231.64 177.854L232.089 178.074ZM251.89 90.1599L252.389 90.1798C252.39 90.1731 252.39 90.1665 252.39 90.1599H251.89ZM251.89 90.1596L251.39 90.1397C251.39 90.1463 251.39 90.1529 251.39 90.1596H251.89ZM251.735 87.0219L252.207 86.8569V86.8569L251.735 87.0219ZM250.635 85.3691L250.301 85.7407L250.635 85.3691ZM247.764 84.0005L247.939 83.532L247.939 83.532L247.764 84.0005ZM246.583 83.5603L246.758 83.0918L246.583 83.5603ZM206.458 67.3105L206.245 67.7627L206.458 67.3105ZM167.69 46.3805L167.94 45.9471L167.69 46.3805ZM162.053 43.1404L162.302 42.7066L162.053 43.1404ZM159.714 42.0224L159.817 41.5332L159.714 42.0224ZM158.06 42.0224L158.164 42.5116L158.06 42.0224ZM155.721 43.1404L155.969 43.5742L155.721 43.1404ZM144.331 20.575C117.424 37.3975 88.3503 51.689 57.9686 61.4901L58.2756 62.4418C88.7488 52.6112 117.897 38.2812 144.862 21.4229L144.331 20.575ZM152.486 15.6272C150.498 16.7229 148.002 18.28 144.331 20.575L144.862 21.4229C148.542 19.1218 151.01 17.5823 152.969 16.503L152.486 15.6272ZM156.116 14.0276C155.465 14.1757 154.451 14.5444 152.486 15.6272L152.969 16.503C154.902 15.4379 155.82 15.1205 156.338 15.0028L156.116 14.0276ZM161.657 14.0276C159.582 13.5559 158.192 13.5559 156.116 14.0276L156.338 15.0028C158.268 14.5642 159.506 14.5642 161.436 15.0028L161.657 14.0276ZM165.287 15.6272C163.323 14.5444 162.309 14.1757 161.657 14.0276L161.436 15.0028C161.954 15.1205 162.872 15.4379 164.805 16.503L165.287 15.6272ZM173.442 20.575C169.772 18.28 167.276 16.7229 165.287 15.6272L164.805 16.503C166.764 17.5823 169.232 19.1218 172.912 21.4229L173.442 20.575ZM259.805 61.4901C229.423 51.689 200.349 37.3975 173.442 20.575L172.912 21.4229C199.876 38.2812 229.025 52.6112 259.498 62.4418L259.805 61.4901ZM272.734 66.6008C271.931 65.9347 270.932 65.3819 269.031 64.636C267.134 63.8913 264.3 62.94 259.805 61.4901L259.498 62.4418C263.998 63.8933 266.802 64.8354 268.666 65.5669C270.527 66.2972 271.412 66.8035 272.095 67.3703L272.734 66.6008ZM276.402 71.6927C275.666 69.7978 274.298 67.899 272.734 66.6008L272.095 67.3703C273.529 68.56 274.796 70.3185 275.47 72.0549L276.402 71.6927ZM277.183 83.1233C277.258 75.5611 277.164 73.6521 276.402 71.6927L275.47 72.0549C276.146 73.7937 276.259 75.4755 276.183 83.1132L277.183 83.1233ZM254.635 189.183C273.22 151.347 276.927 108.64 277.183 83.1233L276.183 83.1132C275.928 108.571 272.226 151.103 253.737 188.742L254.635 189.183ZM168.614 281.695C189.857 268.255 230.883 237.538 254.635 189.183L253.737 188.742C230.104 236.857 189.257 267.451 168.079 280.85L168.614 281.695ZM161.684 285.24C163.587 284.803 164.542 284.271 168.614 281.695L168.079 280.85C163.986 283.439 163.171 283.873 161.46 284.266L161.684 285.24ZM158.887 285.464C160.211 285.464 161.233 285.344 161.684 285.24L161.46 284.266C161.11 284.346 160.17 284.464 158.887 284.464V285.464ZM156.09 285.24C156.541 285.344 157.563 285.464 158.887 285.464V284.464C157.604 284.464 156.664 284.346 156.314 284.266L156.09 285.24ZM149.16 281.695C153.232 284.271 154.187 284.803 156.09 285.24L156.314 284.266C154.603 283.873 153.788 283.439 149.695 280.85L149.16 281.695ZM63.1388 189.183C86.891 237.538 127.917 268.255 149.16 281.695L149.695 280.85C128.517 267.451 87.6703 236.857 64.0363 188.742L63.1388 189.183ZM40.5913 83.1233C40.847 108.64 44.5537 151.347 63.1388 189.183L64.0363 188.742C45.548 151.103 41.8463 108.571 41.5912 83.1132L40.5913 83.1233ZM41.3714 71.6927C40.61 73.6521 40.5155 75.5611 40.5913 83.1233L41.5912 83.1132C41.5147 75.4755 41.6278 73.7937 42.3035 72.0549L41.3714 71.6927ZM45.0401 66.6008C43.4757 67.899 42.1077 69.7978 41.3714 71.6927L42.3035 72.0549C42.9782 70.3185 44.2452 68.56 45.6787 67.3703L45.0401 66.6008ZM57.9686 61.4901C53.4742 62.94 50.6401 63.8913 48.7426 64.636C46.8419 65.3819 45.8428 65.9347 45.0401 66.6008L45.6787 67.3703C46.3618 66.8035 47.2471 66.2972 49.1079 65.5669C50.9718 64.8354 53.7762 63.8933 58.2756 62.4418L57.9686 61.4901ZM33.9145 68.7952C32.4768 72.4955 32.521 76.1483 32.5917 83.2034L33.5916 83.1934C33.5203 76.0742 33.4935 72.6399 34.8466 69.1574L33.9145 68.7952ZM39.9313 60.4445C37.3198 62.6117 35.1436 65.6321 33.9145 68.7952L34.8466 69.1574C36.0141 66.1528 38.0893 63.2726 40.5699 61.2141L39.9313 60.4445ZM55.5124 53.8765C47.2555 56.5401 42.9887 57.9073 39.9313 60.4445L40.5699 61.2141C43.4424 58.8303 47.4758 57.5198 55.8194 54.8282L55.5124 53.8765ZM140.09 13.7916C113.64 30.3285 85.1628 44.3113 55.5124 53.8765L55.8194 54.8282C85.5612 45.2335 114.113 31.2121 140.621 14.6396L140.09 13.7916ZM154.343 6.22661C152.627 6.6168 150.854 7.39238 148.626 8.62043C146.398 9.84762 143.685 11.5442 140.09 13.7916L140.621 14.6396C144.225 12.3861 146.911 10.707 149.108 9.49627C151.304 8.28635 152.981 7.56166 154.565 7.20174L154.343 6.22661ZM163.431 6.22661C160.188 5.48957 157.586 5.48957 154.343 6.22661L154.565 7.20174C157.662 6.49786 160.112 6.49786 163.209 7.20174L163.431 6.22661ZM177.683 13.7914C174.088 11.544 171.375 9.84753 169.148 8.62037C166.92 7.39235 165.147 6.61679 163.431 6.22661L163.209 7.20174C164.792 7.56165 166.47 8.28633 168.666 9.49621C170.863 10.7069 173.549 12.386 177.153 14.6393L177.683 13.7914ZM177.678 13.7885L177.678 13.7884L177.158 14.6424L177.158 14.6425L177.678 13.7885ZM262.261 53.8765C232.611 44.3113 204.133 30.3285 177.683 13.7915L177.153 14.6395C203.66 31.2121 232.213 45.2335 261.954 54.8282L262.261 53.8765ZM277.843 60.4445C274.785 57.9073 270.518 56.5401 262.261 53.8765L261.954 54.8282C270.298 57.5198 274.331 58.8303 277.204 61.2141L277.843 60.4445ZM283.859 68.7952C282.63 65.6321 280.454 62.6117 277.843 60.4445L277.204 61.2141C279.685 63.2726 281.76 66.1528 282.927 69.1574L283.859 68.7952ZM285.182 83.2034C285.253 76.1483 285.297 72.4955 283.859 68.7952L282.927 69.1574C284.28 72.6399 284.254 76.0742 284.182 83.1934L285.182 83.2034ZM261.816 192.71C281.174 153.3 284.922 109.193 285.182 83.2034L284.182 83.1934C283.922 109.124 280.18 153.056 260.918 192.269L261.816 192.71ZM172.891 288.456C194.657 274.685 237.117 242.993 261.816 192.71L260.918 192.269C236.338 242.311 194.057 273.881 172.356 287.61L172.891 288.456ZM163.473 293.038C166.899 292.251 168.945 290.952 172.891 288.456L172.356 287.61C168.394 290.117 166.485 291.32 163.25 292.063L163.473 293.038ZM154.3 293.038C155.552 293.325 157.23 293.464 158.887 293.464C160.544 293.464 162.222 293.325 163.473 293.038L163.25 292.063C162.098 292.327 160.503 292.464 158.887 292.464C157.271 292.464 155.676 292.327 154.524 292.063L154.3 293.038ZM144.883 288.456C148.829 290.952 150.875 292.251 154.3 293.038L154.524 292.063C151.289 291.32 149.38 290.117 145.417 287.61L144.883 288.456ZM55.9583 192.71C80.6571 242.993 123.117 274.685 144.883 288.456L145.417 287.61C123.717 273.881 81.4363 242.311 56.8558 192.269L55.9583 192.71ZM32.5917 83.2034C32.8521 109.193 36.6001 153.3 55.9583 192.71L56.8558 192.269C37.5943 153.056 33.8514 109.124 33.5916 83.1934L32.5917 83.2034ZM111.529 67.7627C124.89 61.4588 137.601 54.1419 150.333 46.8139L149.834 45.9472C137.097 53.2785 124.42 60.5746 111.102 66.8583L111.529 67.7627ZM71.4317 84.0042C84.943 78.9696 98.4171 73.9492 111.529 67.7627L111.102 66.8583C98.0347 73.0239 84.6003 78.0302 71.0825 83.0672L71.4317 84.0042ZM70.1843 84.4691C70.6001 84.3141 71.0159 84.1592 71.4317 84.0042L71.0825 83.0672C70.6668 83.2221 70.2509 83.3771 69.835 83.5321L70.1843 84.4691ZM70.1677 84.4749L70.1678 84.4749L69.8515 83.5262L69.8515 83.5263L70.1677 84.4749ZM67.4733 85.7407C67.9514 85.3102 68.6083 85.0565 70.1842 84.4691L69.835 83.5321C68.3376 84.0902 67.4578 84.4091 66.8043 84.9974L67.4733 85.7407ZM66.5111 87.1869C66.7026 86.6391 67.042 86.1289 67.4733 85.7407L66.8043 84.9974C66.2481 85.4981 65.8141 86.1504 65.5671 86.8569L66.5111 87.1869ZM66.3839 90.1399C66.318 88.4862 66.2987 87.7944 66.5111 87.1869L65.5671 86.8569C65.277 87.6867 65.322 88.6078 65.3847 90.1798L66.3839 90.1399ZM86.1337 177.854C72.8171 150.743 67.5831 120.213 66.3839 90.1399L65.3847 90.1798C66.5871 120.333 71.8363 151.015 85.2361 178.295L86.1337 177.854ZM155.648 255.236C126.901 235.44 101.594 209.327 86.1337 177.854L85.2361 178.295C100.788 209.956 126.228 236.191 155.081 256.06L155.648 255.236ZM158.051 256.615C157.45 256.467 156.916 256.109 155.648 255.236L155.081 256.06C156.288 256.891 156.992 257.385 157.812 257.586L158.051 256.615ZM159.723 256.615C159.191 256.746 158.583 256.746 158.051 256.615L157.812 257.586C158.501 257.756 159.273 257.756 159.962 257.586L159.723 256.615ZM162.126 255.236C160.857 256.109 160.324 256.467 159.723 256.615L159.962 257.586C160.782 257.385 161.486 256.891 162.693 256.06L162.126 255.236ZM231.64 177.854C216.18 209.328 190.873 235.44 162.126 255.236L162.693 256.06C191.546 236.191 216.985 209.957 232.538 178.295L231.64 177.854ZM251.39 90.1399C250.191 120.213 244.957 150.743 231.64 177.854L232.538 178.295C245.938 151.015 251.187 120.333 252.389 90.1798L251.39 90.1399ZM251.39 90.1596V90.1599H252.39V90.1596H251.39ZM251.263 87.1869C251.475 87.7944 251.456 88.4862 251.39 90.1397L252.389 90.1795C252.452 88.6077 252.497 87.6867 252.207 86.8569L251.263 87.1869ZM250.301 85.7407C250.732 86.129 251.071 86.6391 251.263 87.1869L252.207 86.8569C251.96 86.1505 251.526 85.4982 250.97 84.9975L250.301 85.7407ZM247.59 84.469C249.166 85.0565 249.823 85.3103 250.301 85.7407L250.97 84.9975C250.316 84.4092 249.436 84.0902 247.939 83.532L247.59 84.469ZM246.408 84.0288L247.59 84.469L247.939 83.532L246.758 83.0918L246.408 84.0288ZM206.245 67.7627C219.344 73.9433 232.882 78.988 246.408 84.0288L246.758 83.0918C233.225 78.0485 219.727 73.018 206.672 66.8583L206.245 67.7627ZM167.441 46.8138C180.173 54.1419 192.884 61.4587 206.245 67.7627L206.672 66.8583C193.354 60.5746 180.677 53.2785 167.94 45.9471L167.441 46.8138ZM161.805 43.5742C163.685 44.6523 165.563 45.7332 167.441 46.8138L167.94 45.9471C166.062 44.8666 164.184 43.7853 162.302 42.7066L161.805 43.5742ZM159.61 42.5116C160.131 42.6217 160.627 42.8992 161.805 43.5742L162.302 42.7066C161.182 42.0644 160.528 41.6835 159.817 41.5332L159.61 42.5116ZM158.164 42.5116C158.638 42.4114 159.136 42.4114 159.61 42.5116L159.817 41.5332C159.206 41.4042 158.567 41.4042 157.957 41.5332L158.164 42.5116ZM155.969 43.5742C157.147 42.8992 157.643 42.6217 158.164 42.5116L157.957 41.5332C157.246 41.6835 156.592 42.0644 155.472 42.7066L155.969 43.5742ZM150.333 46.8139C152.211 45.7332 154.088 44.6524 155.969 43.5742L155.472 42.7066C153.59 43.7853 151.712 44.8666 149.834 45.9472L150.333 46.8139Z"
                        fill="url(#paint9_linear_5449_42426)"
                        mask="url(#path-15-inside-2_5449_42426)" />
                </g>
            </g>
        </g>
        <g filter="url(#filter3_d_5449_42426)">
            <path fill-rule="evenodd" clip-rule="evenodd"
                d="M201.503 88.4898C189.086 76.0575 164.857 81.6076 148.898 97.5857C146.118 100.37 143.137 103.892 140.718 107.259C133.356 104.969 126.782 105.555 122.154 110.189C118.453 113.894 117.368 119.066 118.293 124.765L118.856 128.234C119.029 129.301 119.865 130.137 120.931 130.311L124.396 130.875C129.856 131.763 138.193 136.818 145.714 144.348C153.234 151.877 158.283 160.225 159.17 165.692L159.733 169.161C159.906 170.228 160.742 171.064 161.808 171.238L165.273 171.802C170.964 172.728 176.13 171.641 179.831 167.936C184.458 163.303 185.044 156.72 182.757 149.35C186.12 146.928 189.638 143.943 192.418 141.159C208.377 125.181 213.92 100.922 201.503 88.4898ZM118.713 142.508C120.885 140.333 124.406 140.333 126.578 142.508C128.75 144.682 128.75 148.208 126.578 150.383L121.246 155.721C119.074 157.896 115.553 157.896 113.381 155.721C111.209 153.547 111.209 150.021 113.381 147.846L118.713 142.508ZM137.064 153.007C134.893 150.833 131.371 150.833 129.199 153.007L115.949 166.274C113.777 168.448 113.777 171.974 115.949 174.148C118.121 176.323 121.642 176.323 123.814 174.148L137.064 160.882C139.236 158.708 139.236 155.182 137.064 153.007ZM147.551 163.507C145.379 161.332 141.858 161.332 139.686 163.507L134.354 168.845C132.182 171.02 132.182 174.546 134.354 176.72C136.526 178.895 140.047 178.895 142.219 176.72L147.551 171.382C149.723 169.207 149.723 165.681 147.551 163.507Z"
                fill="white" />
            <path
                d="M201.68 88.3131C195.395 82.0201 186.138 80.2976 176.482 82.1383C166.824 83.9792 156.733 89.3877 148.722 97.409C145.971 100.163 143.027 103.634 140.62 106.967C133.28 104.725 126.66 105.323 121.977 110.012C118.203 113.79 117.113 119.053 118.046 124.805L118.609 128.274C118.8 129.447 119.719 130.367 120.891 130.558L124.356 131.121C127.039 131.558 130.456 133.025 134.15 135.333C137.839 137.638 141.789 140.772 145.537 144.524C149.285 148.277 152.415 152.231 154.717 155.925C157.022 159.623 158.487 163.044 158.923 165.732L159.486 169.201C159.677 170.374 160.595 171.294 161.768 171.485L165.232 172.048C170.978 172.983 176.234 171.891 180.008 168.113C184.69 163.424 185.288 156.796 183.048 149.447C186.377 147.037 189.845 144.089 192.595 141.335C200.607 133.314 206.008 123.211 207.847 113.541C209.685 103.873 207.965 94.606 201.68 88.3131ZM126.755 142.331C124.485 140.059 120.805 140.059 118.536 142.331L113.204 147.67C110.935 149.942 110.935 153.626 113.204 155.898C115.473 158.17 119.153 158.17 121.423 155.898L126.755 150.559C129.024 148.287 129.024 144.603 126.755 142.331ZM137.241 152.831C134.972 150.558 131.292 150.558 129.023 152.831L115.772 166.097C113.503 168.369 113.503 172.053 115.772 174.325C118.042 176.597 121.722 176.597 123.991 174.325L137.241 161.059C139.511 158.787 139.511 155.103 137.241 152.831ZM147.728 163.33C145.458 161.058 141.779 161.058 139.509 163.33L134.177 168.669C131.908 170.941 131.908 174.625 134.177 176.897C136.447 179.169 140.127 179.169 142.396 176.897L147.728 171.558C149.997 169.286 149.997 165.602 147.728 163.33Z"
                stroke="url(#paint10_linear_5449_42426)" stroke-width="0.5" stroke-linecap="round"
                style="mix-blend-mode:color-burn" />
        </g>
    </g>
    <g filter="url(#filter4_dd_5449_42426)">
        <rect x="42.0664" y="188.869" width="232.957" height="60.906" rx="8" fill="#FFA00F" />
        <rect x="42.3164" y="189.119" width="232.457" height="60.406" rx="7.75"
            stroke="url(#paint11_linear_5449_42426)" stroke-width="0.5" stroke-linecap="round"
            style="mix-blend-mode:darken" />
    </g>
    <rect x="42.0664" y="188.869" width="232.957" height="60.906" rx="8"
        fill="url(#paint12_linear_5449_42426)" fill-opacity="0.3" style="mix-blend-mode:overlay" />
    <rect x="42.0664" y="188.869" width="232.957" height="60.906" rx="8"
        fill="url(#paint13_radial_5449_42426)" fill-opacity="0.6" style="mix-blend-mode:overlay" />
    <g filter="url(#filter5_i_5449_42426)">
        <ellipse cx="55.2375" cy="219.323" rx="3.80197" ry="4.15268" fill="black"
            fill-opacity="0.24" style="mix-blend-mode:color-burn" />
        <ellipse cx="55.2375" cy="219.323" rx="3.80197" ry="4.15268" fill="black"
            fill-opacity="0.32" style="mix-blend-mode:darken" />
    </g>
    <g filter="url(#filter6_i_5449_42426)">
        <ellipse cx="259.851" cy="219.323" rx="3.80197" ry="4.15268" fill="black"
            fill-opacity="0.24" style="mix-blend-mode:color-burn" />
        <ellipse cx="259.851" cy="219.323" rx="3.80197" ry="4.15268" fill="black"
            fill-opacity="0.32" style="mix-blend-mode:darken" />
    </g>
    <g filter="url(#filter7_i_5449_42426)">
        <path
            d="M113.165 227.713V224.929H115.685V227.713H113.165ZM103.421 227.713V224.929H112.133L109.949 226.825V222.793C109.949 221.657 109.829 220.777 109.589 220.153C109.365 219.529 108.981 219.089 108.437 218.833C107.909 218.577 107.181 218.449 106.253 218.449H104.309V215.665H106.253C107.725 215.665 108.973 215.905 109.997 216.385C111.037 216.865 111.821 217.633 112.349 218.689C112.893 219.729 113.165 221.097 113.165 222.793V227.713H103.421ZM115.685 227.713V224.929C115.781 224.929 115.861 224.961 115.925 225.025C115.989 225.089 116.037 225.185 116.069 225.313C116.101 225.441 116.125 225.593 116.141 225.769C116.157 225.929 116.165 226.113 116.165 226.321C116.165 226.529 116.157 226.721 116.141 226.897C116.125 227.073 116.101 227.225 116.069 227.353C116.037 227.465 115.989 227.553 115.925 227.617C115.861 227.681 115.781 227.713 115.685 227.713ZM115.68 227.713V224.929H121.368L119.496 226.489V215.665H122.688V227.713H115.68ZM115.68 227.713C115.584 227.713 115.512 227.681 115.464 227.617C115.4 227.553 115.352 227.465 115.32 227.353C115.272 227.225 115.24 227.073 115.224 226.897C115.208 226.721 115.2 226.529 115.2 226.321C115.2 226.033 115.216 225.793 115.248 225.601C115.28 225.393 115.336 225.233 115.416 225.121C115.48 224.993 115.568 224.929 115.68 224.929V227.713ZM116.544 232.825V230.089H119.64V232.825H116.544ZM120.912 232.825V230.089H124.008V232.825H120.912ZM135.149 227.713V224.929H137.669V227.713H135.149ZM125.405 227.713V224.929H134.117L131.933 226.825V222.793C131.933 221.657 131.813 220.777 131.573 220.153C131.349 219.529 130.965 219.089 130.421 218.833C129.893 218.577 129.165 218.449 128.237 218.449H126.293V215.665H128.237C129.709 215.665 130.957 215.905 131.981 216.385C133.021 216.865 133.805 217.633 134.333 218.689C134.877 219.729 135.149 221.097 135.149 222.793V227.713H125.405ZM137.669 227.713V224.929C137.765 224.929 137.845 224.961 137.909 225.025C137.973 225.089 138.021 225.185 138.053 225.313C138.085 225.441 138.109 225.593 138.125 225.769C138.141 225.929 138.149 226.113 138.149 226.321C138.149 226.529 138.141 226.721 138.125 226.897C138.109 227.073 138.085 227.225 138.053 227.353C138.021 227.465 137.973 227.553 137.909 227.617C137.845 227.681 137.765 227.713 137.669 227.713ZM137.664 227.713V224.929H147.984L146.904 225.817V221.377C146.904 220.417 146.6 219.689 145.992 219.193C145.4 218.697 144.456 218.449 143.16 218.449C142.792 218.449 142.288 218.481 141.648 218.545C141.008 218.593 140.312 218.673 139.56 218.785L139.248 216.241C139.936 216.081 140.632 215.945 141.336 215.833C142.056 215.721 142.76 215.665 143.448 215.665C144.76 215.665 145.912 215.897 146.904 216.361C147.896 216.809 148.672 217.457 149.232 218.305C149.808 219.153 150.096 220.177 150.096 221.377V227.713H137.664ZM137.664 227.713C137.568 227.713 137.496 227.681 137.448 227.617C137.384 227.553 137.336 227.465 137.304 227.353C137.256 227.225 137.224 227.073 137.208 226.897C137.192 226.721 137.184 226.529 137.184 226.321C137.184 226.033 137.2 225.793 137.232 225.601C137.264 225.393 137.32 225.233 137.4 225.121C137.464 224.993 137.552 224.929 137.664 224.929V227.713ZM142.296 232.825V230.089H145.512V232.825H142.296ZM171.046 227.713V224.929H173.59V227.713H171.046ZM158.302 235.681C158.158 234.817 158.022 233.977 157.894 233.161C157.782 232.345 157.726 231.625 157.726 231.001C157.726 229.753 157.966 228.673 158.446 227.761C158.926 226.865 159.606 226.169 160.486 225.673C161.366 225.177 162.406 224.929 163.606 224.929C163.846 224.929 164.142 224.929 164.494 224.929C164.862 224.929 165.286 224.929 165.766 224.929C166.246 224.929 166.782 224.929 167.374 224.929C167.966 224.929 168.614 224.929 169.318 224.929L167.854 226.321V221.785C167.854 220.953 167.758 220.297 167.566 219.817C167.39 219.321 167.062 218.969 166.582 218.761C166.118 218.553 165.438 218.449 164.542 218.449C163.934 218.449 163.31 218.497 162.67 218.593C162.046 218.673 161.55 218.785 161.182 218.929L163.198 217.057C163.086 217.441 162.982 217.921 162.886 218.497C162.806 219.073 162.742 219.673 162.694 220.297C162.646 220.905 162.622 221.481 162.622 222.025C162.622 222.617 162.646 223.217 162.694 223.825C162.742 224.417 162.798 224.945 162.862 225.409C162.942 225.873 163.006 226.193 163.054 226.369L160.006 227.209C159.926 226.985 159.838 226.617 159.742 226.105C159.662 225.593 159.582 224.993 159.502 224.305C159.438 223.601 159.406 222.857 159.406 222.073C159.406 221.289 159.438 220.529 159.502 219.793C159.582 219.041 159.678 218.369 159.79 217.777C159.902 217.169 160.006 216.681 160.102 216.313C160.518 216.153 161.134 216.009 161.95 215.881C162.766 215.737 163.646 215.665 164.59 215.665C165.63 215.665 166.518 215.769 167.254 215.977C168.006 216.169 168.622 216.449 169.102 216.817C169.598 217.185 169.99 217.625 170.278 218.137C170.566 218.633 170.766 219.193 170.878 219.817C170.99 220.441 171.046 221.105 171.046 221.809V227.713C170.342 227.713 169.606 227.713 168.838 227.713C168.086 227.713 167.35 227.713 166.63 227.713C165.926 227.713 165.302 227.713 164.758 227.713C164.23 227.713 163.846 227.713 163.606 227.713C163.35 227.713 163.07 227.745 162.766 227.809C162.462 227.889 162.166 228.033 161.878 228.241C161.606 228.465 161.382 228.793 161.206 229.225C161.03 229.673 160.942 230.265 160.942 231.001C160.942 231.577 160.99 232.249 161.086 233.017C161.198 233.785 161.326 234.673 161.47 235.681H158.302ZM173.59 227.713V224.929C173.67 224.929 173.742 224.961 173.806 225.025C173.87 225.089 173.918 225.185 173.95 225.313C173.982 225.441 174.006 225.593 174.022 225.769C174.054 225.929 174.07 226.113 174.07 226.321C174.07 226.529 174.054 226.721 174.022 226.897C174.006 227.073 173.982 227.225 173.95 227.353C173.918 227.465 173.87 227.553 173.806 227.617C173.742 227.681 173.67 227.713 173.59 227.713ZM179.522 227.713V224.929H182.042V227.713H179.522ZM173.594 227.713C173.498 227.713 173.426 227.681 173.378 227.617C173.314 227.553 173.266 227.465 173.234 227.353C173.186 227.225 173.154 227.073 173.138 226.897C173.122 226.721 173.114 226.529 173.114 226.321C173.114 226.033 173.13 225.793 173.162 225.601C173.194 225.393 173.25 225.233 173.33 225.121C173.394 224.993 173.482 224.929 173.594 224.929V227.713ZM176.306 227.713V210.745H179.522V227.713H176.306ZM173.594 227.713V224.929H176.306V227.713H173.594ZM182.042 227.713V224.929C182.138 224.929 182.218 224.961 182.282 225.025C182.346 225.089 182.394 225.185 182.426 225.313C182.458 225.441 182.482 225.593 182.498 225.769C182.514 225.929 182.522 226.113 182.522 226.321C182.522 226.529 182.514 226.721 182.498 226.897C182.482 227.073 182.458 227.225 182.426 227.353C182.394 227.465 182.346 227.553 182.282 227.617C182.218 227.681 182.138 227.713 182.042 227.713ZM182.031 227.713V224.929H187.119C187.807 224.929 188.471 224.801 189.111 224.545C189.751 224.273 190.335 223.921 190.863 223.489C191.407 223.041 191.879 222.553 192.279 222.025C192.695 221.481 193.015 220.929 193.239 220.369C193.479 219.809 193.599 219.281 193.599 218.785V217.249L195.135 219.793C194.303 219.345 193.455 219.009 192.591 218.785C191.727 218.561 190.903 218.449 190.119 218.449C189.351 218.449 188.527 218.561 187.647 218.785C186.783 219.009 185.943 219.345 185.127 219.793L186.663 217.249V218.785C186.663 219.281 186.775 219.809 186.999 220.369C187.239 220.929 187.559 221.481 187.959 222.025C188.359 222.553 188.831 223.041 189.375 223.489C189.919 223.921 190.511 224.273 191.151 224.545C191.791 224.801 192.447 224.929 193.119 224.929H198.063V227.713H194.127C192.879 227.713 191.711 227.513 190.623 227.113C189.535 226.713 188.551 226.185 187.671 225.529C186.791 224.857 186.031 224.129 185.391 223.345C184.767 222.545 184.287 221.753 183.951 220.969C183.615 220.169 183.447 219.441 183.447 218.785V217.417C184.135 217.033 184.863 216.713 185.631 216.457C186.415 216.201 187.191 216.009 187.959 215.881C188.743 215.737 189.463 215.665 190.119 215.665C190.791 215.665 191.511 215.737 192.279 215.881C193.047 216.009 193.815 216.201 194.583 216.457C195.367 216.713 196.103 217.033 196.791 217.417V218.785C196.791 219.441 196.623 220.169 196.287 220.969C195.951 221.753 195.463 222.545 194.823 223.345C194.199 224.129 193.447 224.857 192.567 225.529C191.687 226.185 190.703 226.713 189.615 227.113C188.527 227.513 187.359 227.713 186.111 227.713H182.031ZM182.031 227.713C181.935 227.713 181.863 227.681 181.815 227.617C181.751 227.553 181.703 227.465 181.671 227.353C181.623 227.225 181.591 227.073 181.575 226.897C181.559 226.721 181.551 226.529 181.551 226.321C181.551 226.033 181.567 225.793 181.599 225.601C181.631 225.393 181.687 225.233 181.767 225.121C181.831 224.993 181.919 224.929 182.031 224.929V227.713ZM198.063 227.713V224.929C198.159 224.929 198.239 224.961 198.303 225.025C198.367 225.089 198.415 225.185 198.447 225.313C198.479 225.441 198.503 225.593 198.519 225.769C198.535 225.929 198.543 226.113 198.543 226.321C198.543 226.529 198.535 226.721 198.519 226.897C198.503 227.073 198.479 227.225 198.447 227.353C198.415 227.465 198.367 227.553 198.303 227.617C198.239 227.681 198.159 227.713 198.063 227.713ZM198.062 227.713V224.929H210.518L209.054 226.177V221.761C209.054 220.897 208.958 220.225 208.766 219.745C208.574 219.249 208.238 218.905 207.758 218.713C207.294 218.505 206.646 218.401 205.814 218.401C205.158 218.401 204.51 218.449 203.87 218.545C203.246 218.625 202.758 218.737 202.406 218.881L204.398 217.009C204.302 217.377 204.206 217.841 204.11 218.401C204.03 218.961 203.958 219.561 203.894 220.201C203.83 220.825 203.798 221.441 203.798 222.049C203.798 222.609 203.822 223.193 203.87 223.801C203.934 224.409 203.998 224.945 204.062 225.409C204.142 225.873 204.206 226.193 204.254 226.369L201.206 227.209C201.142 226.985 201.062 226.617 200.966 226.105C200.87 225.593 200.782 224.985 200.702 224.281C200.638 223.577 200.606 222.833 200.606 222.049C200.606 221.249 200.646 220.481 200.726 219.745C200.806 218.993 200.894 218.321 200.99 217.729C201.102 217.121 201.206 216.633 201.302 216.265C201.686 216.121 202.286 215.977 203.102 215.833C203.918 215.689 204.822 215.617 205.814 215.617C207.254 215.617 208.446 215.817 209.39 216.217C210.35 216.617 211.062 217.265 211.526 218.161C212.006 219.057 212.246 220.265 212.246 221.785V227.713H198.062ZM198.062 227.713C197.966 227.713 197.894 227.681 197.846 227.617C197.782 227.553 197.734 227.465 197.702 227.353C197.654 227.225 197.622 227.073 197.606 226.897C197.59 226.721 197.582 226.529 197.582 226.321C197.582 226.033 197.598 225.793 197.63 225.601C197.662 225.393 197.718 225.233 197.798 225.121C197.862 224.993 197.95 224.929 198.062 224.929V227.713Z"
            fill="black" fill-opacity="0.24" style="mix-blend-mode:color-burn" />
        <path
            d="M113.165 227.713V224.929H115.685V227.713H113.165ZM103.421 227.713V224.929H112.133L109.949 226.825V222.793C109.949 221.657 109.829 220.777 109.589 220.153C109.365 219.529 108.981 219.089 108.437 218.833C107.909 218.577 107.181 218.449 106.253 218.449H104.309V215.665H106.253C107.725 215.665 108.973 215.905 109.997 216.385C111.037 216.865 111.821 217.633 112.349 218.689C112.893 219.729 113.165 221.097 113.165 222.793V227.713H103.421ZM115.685 227.713V224.929C115.781 224.929 115.861 224.961 115.925 225.025C115.989 225.089 116.037 225.185 116.069 225.313C116.101 225.441 116.125 225.593 116.141 225.769C116.157 225.929 116.165 226.113 116.165 226.321C116.165 226.529 116.157 226.721 116.141 226.897C116.125 227.073 116.101 227.225 116.069 227.353C116.037 227.465 115.989 227.553 115.925 227.617C115.861 227.681 115.781 227.713 115.685 227.713ZM115.68 227.713V224.929H121.368L119.496 226.489V215.665H122.688V227.713H115.68ZM115.68 227.713C115.584 227.713 115.512 227.681 115.464 227.617C115.4 227.553 115.352 227.465 115.32 227.353C115.272 227.225 115.24 227.073 115.224 226.897C115.208 226.721 115.2 226.529 115.2 226.321C115.2 226.033 115.216 225.793 115.248 225.601C115.28 225.393 115.336 225.233 115.416 225.121C115.48 224.993 115.568 224.929 115.68 224.929V227.713ZM116.544 232.825V230.089H119.64V232.825H116.544ZM120.912 232.825V230.089H124.008V232.825H120.912ZM135.149 227.713V224.929H137.669V227.713H135.149ZM125.405 227.713V224.929H134.117L131.933 226.825V222.793C131.933 221.657 131.813 220.777 131.573 220.153C131.349 219.529 130.965 219.089 130.421 218.833C129.893 218.577 129.165 218.449 128.237 218.449H126.293V215.665H128.237C129.709 215.665 130.957 215.905 131.981 216.385C133.021 216.865 133.805 217.633 134.333 218.689C134.877 219.729 135.149 221.097 135.149 222.793V227.713H125.405ZM137.669 227.713V224.929C137.765 224.929 137.845 224.961 137.909 225.025C137.973 225.089 138.021 225.185 138.053 225.313C138.085 225.441 138.109 225.593 138.125 225.769C138.141 225.929 138.149 226.113 138.149 226.321C138.149 226.529 138.141 226.721 138.125 226.897C138.109 227.073 138.085 227.225 138.053 227.353C138.021 227.465 137.973 227.553 137.909 227.617C137.845 227.681 137.765 227.713 137.669 227.713ZM137.664 227.713V224.929H147.984L146.904 225.817V221.377C146.904 220.417 146.6 219.689 145.992 219.193C145.4 218.697 144.456 218.449 143.16 218.449C142.792 218.449 142.288 218.481 141.648 218.545C141.008 218.593 140.312 218.673 139.56 218.785L139.248 216.241C139.936 216.081 140.632 215.945 141.336 215.833C142.056 215.721 142.76 215.665 143.448 215.665C144.76 215.665 145.912 215.897 146.904 216.361C147.896 216.809 148.672 217.457 149.232 218.305C149.808 219.153 150.096 220.177 150.096 221.377V227.713H137.664ZM137.664 227.713C137.568 227.713 137.496 227.681 137.448 227.617C137.384 227.553 137.336 227.465 137.304 227.353C137.256 227.225 137.224 227.073 137.208 226.897C137.192 226.721 137.184 226.529 137.184 226.321C137.184 226.033 137.2 225.793 137.232 225.601C137.264 225.393 137.32 225.233 137.4 225.121C137.464 224.993 137.552 224.929 137.664 224.929V227.713ZM142.296 232.825V230.089H145.512V232.825H142.296ZM171.046 227.713V224.929H173.59V227.713H171.046ZM158.302 235.681C158.158 234.817 158.022 233.977 157.894 233.161C157.782 232.345 157.726 231.625 157.726 231.001C157.726 229.753 157.966 228.673 158.446 227.761C158.926 226.865 159.606 226.169 160.486 225.673C161.366 225.177 162.406 224.929 163.606 224.929C163.846 224.929 164.142 224.929 164.494 224.929C164.862 224.929 165.286 224.929 165.766 224.929C166.246 224.929 166.782 224.929 167.374 224.929C167.966 224.929 168.614 224.929 169.318 224.929L167.854 226.321V221.785C167.854 220.953 167.758 220.297 167.566 219.817C167.39 219.321 167.062 218.969 166.582 218.761C166.118 218.553 165.438 218.449 164.542 218.449C163.934 218.449 163.31 218.497 162.67 218.593C162.046 218.673 161.55 218.785 161.182 218.929L163.198 217.057C163.086 217.441 162.982 217.921 162.886 218.497C162.806 219.073 162.742 219.673 162.694 220.297C162.646 220.905 162.622 221.481 162.622 222.025C162.622 222.617 162.646 223.217 162.694 223.825C162.742 224.417 162.798 224.945 162.862 225.409C162.942 225.873 163.006 226.193 163.054 226.369L160.006 227.209C159.926 226.985 159.838 226.617 159.742 226.105C159.662 225.593 159.582 224.993 159.502 224.305C159.438 223.601 159.406 222.857 159.406 222.073C159.406 221.289 159.438 220.529 159.502 219.793C159.582 219.041 159.678 218.369 159.79 217.777C159.902 217.169 160.006 216.681 160.102 216.313C160.518 216.153 161.134 216.009 161.95 215.881C162.766 215.737 163.646 215.665 164.59 215.665C165.63 215.665 166.518 215.769 167.254 215.977C168.006 216.169 168.622 216.449 169.102 216.817C169.598 217.185 169.99 217.625 170.278 218.137C170.566 218.633 170.766 219.193 170.878 219.817C170.99 220.441 171.046 221.105 171.046 221.809V227.713C170.342 227.713 169.606 227.713 168.838 227.713C168.086 227.713 167.35 227.713 166.63 227.713C165.926 227.713 165.302 227.713 164.758 227.713C164.23 227.713 163.846 227.713 163.606 227.713C163.35 227.713 163.07 227.745 162.766 227.809C162.462 227.889 162.166 228.033 161.878 228.241C161.606 228.465 161.382 228.793 161.206 229.225C161.03 229.673 160.942 230.265 160.942 231.001C160.942 231.577 160.99 232.249 161.086 233.017C161.198 233.785 161.326 234.673 161.47 235.681H158.302ZM173.59 227.713V224.929C173.67 224.929 173.742 224.961 173.806 225.025C173.87 225.089 173.918 225.185 173.95 225.313C173.982 225.441 174.006 225.593 174.022 225.769C174.054 225.929 174.07 226.113 174.07 226.321C174.07 226.529 174.054 226.721 174.022 226.897C174.006 227.073 173.982 227.225 173.95 227.353C173.918 227.465 173.87 227.553 173.806 227.617C173.742 227.681 173.67 227.713 173.59 227.713ZM179.522 227.713V224.929H182.042V227.713H179.522ZM173.594 227.713C173.498 227.713 173.426 227.681 173.378 227.617C173.314 227.553 173.266 227.465 173.234 227.353C173.186 227.225 173.154 227.073 173.138 226.897C173.122 226.721 173.114 226.529 173.114 226.321C173.114 226.033 173.13 225.793 173.162 225.601C173.194 225.393 173.25 225.233 173.33 225.121C173.394 224.993 173.482 224.929 173.594 224.929V227.713ZM176.306 227.713V210.745H179.522V227.713H176.306ZM173.594 227.713V224.929H176.306V227.713H173.594ZM182.042 227.713V224.929C182.138 224.929 182.218 224.961 182.282 225.025C182.346 225.089 182.394 225.185 182.426 225.313C182.458 225.441 182.482 225.593 182.498 225.769C182.514 225.929 182.522 226.113 182.522 226.321C182.522 226.529 182.514 226.721 182.498 226.897C182.482 227.073 182.458 227.225 182.426 227.353C182.394 227.465 182.346 227.553 182.282 227.617C182.218 227.681 182.138 227.713 182.042 227.713ZM182.031 227.713V224.929H187.119C187.807 224.929 188.471 224.801 189.111 224.545C189.751 224.273 190.335 223.921 190.863 223.489C191.407 223.041 191.879 222.553 192.279 222.025C192.695 221.481 193.015 220.929 193.239 220.369C193.479 219.809 193.599 219.281 193.599 218.785V217.249L195.135 219.793C194.303 219.345 193.455 219.009 192.591 218.785C191.727 218.561 190.903 218.449 190.119 218.449C189.351 218.449 188.527 218.561 187.647 218.785C186.783 219.009 185.943 219.345 185.127 219.793L186.663 217.249V218.785C186.663 219.281 186.775 219.809 186.999 220.369C187.239 220.929 187.559 221.481 187.959 222.025C188.359 222.553 188.831 223.041 189.375 223.489C189.919 223.921 190.511 224.273 191.151 224.545C191.791 224.801 192.447 224.929 193.119 224.929H198.063V227.713H194.127C192.879 227.713 191.711 227.513 190.623 227.113C189.535 226.713 188.551 226.185 187.671 225.529C186.791 224.857 186.031 224.129 185.391 223.345C184.767 222.545 184.287 221.753 183.951 220.969C183.615 220.169 183.447 219.441 183.447 218.785V217.417C184.135 217.033 184.863 216.713 185.631 216.457C186.415 216.201 187.191 216.009 187.959 215.881C188.743 215.737 189.463 215.665 190.119 215.665C190.791 215.665 191.511 215.737 192.279 215.881C193.047 216.009 193.815 216.201 194.583 216.457C195.367 216.713 196.103 217.033 196.791 217.417V218.785C196.791 219.441 196.623 220.169 196.287 220.969C195.951 221.753 195.463 222.545 194.823 223.345C194.199 224.129 193.447 224.857 192.567 225.529C191.687 226.185 190.703 226.713 189.615 227.113C188.527 227.513 187.359 227.713 186.111 227.713H182.031ZM182.031 227.713C181.935 227.713 181.863 227.681 181.815 227.617C181.751 227.553 181.703 227.465 181.671 227.353C181.623 227.225 181.591 227.073 181.575 226.897C181.559 226.721 181.551 226.529 181.551 226.321C181.551 226.033 181.567 225.793 181.599 225.601C181.631 225.393 181.687 225.233 181.767 225.121C181.831 224.993 181.919 224.929 182.031 224.929V227.713ZM198.063 227.713V224.929C198.159 224.929 198.239 224.961 198.303 225.025C198.367 225.089 198.415 225.185 198.447 225.313C198.479 225.441 198.503 225.593 198.519 225.769C198.535 225.929 198.543 226.113 198.543 226.321C198.543 226.529 198.535 226.721 198.519 226.897C198.503 227.073 198.479 227.225 198.447 227.353C198.415 227.465 198.367 227.553 198.303 227.617C198.239 227.681 198.159 227.713 198.063 227.713ZM198.062 227.713V224.929H210.518L209.054 226.177V221.761C209.054 220.897 208.958 220.225 208.766 219.745C208.574 219.249 208.238 218.905 207.758 218.713C207.294 218.505 206.646 218.401 205.814 218.401C205.158 218.401 204.51 218.449 203.87 218.545C203.246 218.625 202.758 218.737 202.406 218.881L204.398 217.009C204.302 217.377 204.206 217.841 204.11 218.401C204.03 218.961 203.958 219.561 203.894 220.201C203.83 220.825 203.798 221.441 203.798 222.049C203.798 222.609 203.822 223.193 203.87 223.801C203.934 224.409 203.998 224.945 204.062 225.409C204.142 225.873 204.206 226.193 204.254 226.369L201.206 227.209C201.142 226.985 201.062 226.617 200.966 226.105C200.87 225.593 200.782 224.985 200.702 224.281C200.638 223.577 200.606 222.833 200.606 222.049C200.606 221.249 200.646 220.481 200.726 219.745C200.806 218.993 200.894 218.321 200.99 217.729C201.102 217.121 201.206 216.633 201.302 216.265C201.686 216.121 202.286 215.977 203.102 215.833C203.918 215.689 204.822 215.617 205.814 215.617C207.254 215.617 208.446 215.817 209.39 216.217C210.35 216.617 211.062 217.265 211.526 218.161C212.006 219.057 212.246 220.265 212.246 221.785V227.713H198.062ZM198.062 227.713C197.966 227.713 197.894 227.681 197.846 227.617C197.782 227.553 197.734 227.465 197.702 227.353C197.654 227.225 197.622 227.073 197.606 226.897C197.59 226.721 197.582 226.529 197.582 226.321C197.582 226.033 197.598 225.793 197.63 225.601C197.662 225.393 197.718 225.233 197.798 225.121C197.862 224.993 197.95 224.929 198.062 224.929V227.713Z"
            fill="black" fill-opacity="0.32" style="mix-blend-mode:darken" />
    </g>
    <defs>
        <filter id="filter0_dd_5449_42426" x="1" y="191.945" width="316" height="88.3672"
            filterUnits="userSpaceOnUse" color-interpolation-filters="sRGB">
            <feFlood flood-opacity="0" result="BackgroundImageFix" />
            <feColorMatrix in="SourceAlpha" type="matrix"
                values="0 0 0 0 0 0 0 0 0 0 0 0 0 0 0 0 0 0 127 0" result="hardAlpha" />
            <feOffset dy="4" />
            <feGaussianBlur stdDeviation="6" />
            <feColorMatrix type="matrix" values="0 0 0 0 0 0 0 0 0 0 0 0 0 0 0 0 0 0 0.16 0" />
            <feBlend mode="normal" in2="BackgroundImageFix" result="effect1_dropShadow_5449_42426" />
            <feColorMatrix in="SourceAlpha" type="matrix"
                values="0 0 0 0 0 0 0 0 0 0 0 0 0 0 0 0 0 0 127 0" result="hardAlpha" />
            <feOffset dy="2" />
            <feGaussianBlur stdDeviation="2" />
            <feColorMatrix type="matrix" values="0 0 0 0 0 0 0 0 0 0 0 0 0 0 0 0 0 0 0.24 0" />
            <feBlend mode="normal" in2="effect1_dropShadow_5449_42426"
                result="effect2_dropShadow_5449_42426" />
            <feBlend mode="normal" in="SourceGraphic" in2="effect2_dropShadow_5449_42426"
                result="shape" />
        </filter>
        <filter id="filter1_dddd_5449_42426" x="0.0664062" y="0.175781" width="317.645"
            height="407.789" filterUnits="userSpaceOnUse" color-interpolation-filters="sRGB">
            <feFlood flood-opacity="0" result="BackgroundImageFix" />
            <feColorMatrix in="SourceAlpha" type="matrix"
                values="0 0 0 0 0 0 0 0 0 0 0 0 0 0 0 0 0 0 127 0" result="hardAlpha" />
            <feOffset dy="5" />
            <feGaussianBlur stdDeviation="5.5" />
            <feColorMatrix type="matrix" values="0 0 0 0 0 0 0 0 0 0 0 0 0 0 0 0 0 0 0.24 0" />
            <feBlend mode="normal" in2="BackgroundImageFix" result="effect1_dropShadow_5449_42426" />
            <feColorMatrix in="SourceAlpha" type="matrix"
                values="0 0 0 0 0 0 0 0 0 0 0 0 0 0 0 0 0 0 127 0" result="hardAlpha" />
            <feOffset dy="21" />
            <feGaussianBlur stdDeviation="10.5" />
            <feColorMatrix type="matrix" values="0 0 0 0 0 0 0 0 0 0 0 0 0 0 0 0 0 0 0.21 0" />
            <feBlend mode="normal" in2="effect1_dropShadow_5449_42426"
                result="effect2_dropShadow_5449_42426" />
            <feColorMatrix in="SourceAlpha" type="matrix"
                values="0 0 0 0 0 0 0 0 0 0 0 0 0 0 0 0 0 0 127 0" result="hardAlpha" />
            <feOffset dy="46" />
            <feGaussianBlur stdDeviation="14" />
            <feColorMatrix type="matrix" values="0 0 0 0 0 0 0 0 0 0 0 0 0 0 0 0 0 0 0.12 0" />
            <feBlend mode="normal" in2="effect2_dropShadow_5449_42426"
                result="effect3_dropShadow_5449_42426" />
            <feColorMatrix in="SourceAlpha" type="matrix"
                values="0 0 0 0 0 0 0 0 0 0 0 0 0 0 0 0 0 0 127 0" result="hardAlpha" />
            <feOffset dy="82" />
            <feGaussianBlur stdDeviation="16.5" />
            <feColorMatrix type="matrix" values="0 0 0 0 0 0 0 0 0 0 0 0 0 0 0 0 0 0 0.04 0" />
            <feBlend mode="normal" in2="effect3_dropShadow_5449_42426"
                result="effect4_dropShadow_5449_42426" />
            <feBlend mode="normal" in="SourceGraphic" in2="effect4_dropShadow_5449_42426"
                result="shape" />
        </filter>
        <filter id="filter2_d_5449_42426" x="25.0645" y="0.173828" width="267.645" height="302.791"
            filterUnits="userSpaceOnUse" color-interpolation-filters="sRGB">
            <feFlood flood-opacity="0" result="BackgroundImageFix" />
            <feColorMatrix in="SourceAlpha" type="matrix"
                values="0 0 0 0 0 0 0 0 0 0 0 0 0 0 0 0 0 0 127 0" result="hardAlpha" />
            <feOffset dy="2" />
            <feGaussianBlur stdDeviation="4" />
            <feColorMatrix type="matrix" values="0 0 0 0 0 0 0 0 0 0 0 0 0 0 0 0 0 0 0.1 0" />
            <feBlend mode="color-burn" in2="BackgroundImageFix"
                result="effect1_dropShadow_5449_42426" />
            <feBlend mode="normal" in="SourceGraphic" in2="effect1_dropShadow_5449_42426"
                result="shape" />
        </filter>
        <filter id="filter3_d_5449_42426" x="99.252" y="71.1914" width="121.541" height="121.66"
            filterUnits="userSpaceOnUse" color-interpolation-filters="sRGB">
            <feFlood flood-opacity="0" result="BackgroundImageFix" />
            <feColorMatrix in="SourceAlpha" type="matrix"
                values="0 0 0 0 0 0 0 0 0 0 0 0 0 0 0 0 0 0 127 0" result="hardAlpha" />
            <feOffset dy="2" />
            <feGaussianBlur stdDeviation="6" />
            <feColorMatrix type="matrix" values="0 0 0 0 0 0 0 0 0 0 0 0 0 0 0 0 0 0 0.12 0" />
            <feBlend mode="plus-darker" in2="BackgroundImageFix"
                result="effect1_dropShadow_5449_42426" />
            <feBlend mode="normal" in="SourceGraphic" in2="effect1_dropShadow_5449_42426"
                result="shape" />
        </filter>
        <filter id="filter4_dd_5449_42426" x="30.0664" y="180.869" width="256.957" height="84.9062"
            filterUnits="userSpaceOnUse" color-interpolation-filters="sRGB">
            <feFlood flood-opacity="0" result="BackgroundImageFix" />
            <feColorMatrix in="SourceAlpha" type="matrix"
                values="0 0 0 0 0 0 0 0 0 0 0 0 0 0 0 0 0 0 127 0" result="hardAlpha" />
            <feOffset dy="4" />
            <feGaussianBlur stdDeviation="6" />
            <feColorMatrix type="matrix" values="0 0 0 0 0 0 0 0 0 0 0 0 0 0 0 0 0 0 0.16 0" />
            <feBlend mode="normal" in2="BackgroundImageFix" result="effect1_dropShadow_5449_42426" />
            <feColorMatrix in="SourceAlpha" type="matrix"
                values="0 0 0 0 0 0 0 0 0 0 0 0 0 0 0 0 0 0 127 0" result="hardAlpha" />
            <feOffset dy="2" />
            <feGaussianBlur stdDeviation="2" />
            <feColorMatrix type="matrix" values="0 0 0 0 0 0 0 0 0 0 0 0 0 0 0 0 0 0 0.24 0" />
            <feBlend mode="normal" in2="effect1_dropShadow_5449_42426"
                result="effect2_dropShadow_5449_42426" />
            <feBlend mode="normal" in="SourceGraphic" in2="effect2_dropShadow_5449_42426"
                result="shape" />
        </filter>
        <filter id="filter5_i_5449_42426" x="51.4355" y="215.17" width="7.60352" height="9.30469"
            filterUnits="userSpaceOnUse" color-interpolation-filters="sRGB">
            <feFlood flood-opacity="0" result="BackgroundImageFix" />
            <feBlend mode="normal" in="SourceGraphic" in2="BackgroundImageFix" result="shape" />
            <feColorMatrix in="SourceAlpha" type="matrix"
                values="0 0 0 0 0 0 0 0 0 0 0 0 0 0 0 0 0 0 127 0" result="hardAlpha" />
            <feOffset dy="1" />
            <feGaussianBlur stdDeviation="1" />
            <feComposite in2="hardAlpha" operator="arithmetic" k2="-1" k3="1" />
            <feColorMatrix type="matrix" values="0 0 0 0 0 0 0 0 0 0 0 0 0 0 0 0 0 0 0.24 0" />
            <feBlend mode="darken" in2="shape" result="effect1_innerShadow_5449_42426" />
        </filter>
        <filter id="filter6_i_5449_42426" x="256.049" y="215.17" width="7.60352" height="9.30469"
            filterUnits="userSpaceOnUse" color-interpolation-filters="sRGB">
            <feFlood flood-opacity="0" result="BackgroundImageFix" />
            <feBlend mode="normal" in="SourceGraphic" in2="BackgroundImageFix" result="shape" />
            <feColorMatrix in="SourceAlpha" type="matrix"
                values="0 0 0 0 0 0 0 0 0 0 0 0 0 0 0 0 0 0 127 0" result="hardAlpha" />
            <feOffset dy="1" />
            <feGaussianBlur stdDeviation="1" />
            <feComposite in2="hardAlpha" operator="arithmetic" k2="-1" k3="1" />
            <feColorMatrix type="matrix" values="0 0 0 0 0 0 0 0 0 0 0 0 0 0 0 0 0 0 0.24 0" />
            <feBlend mode="darken" in2="shape" result="effect1_innerShadow_5449_42426" />
        </filter>
        <filter id="filter7_i_5449_42426" x="103.42" y="210.744" width="108.826" height="25.9375"
            filterUnits="userSpaceOnUse" color-interpolation-filters="sRGB">
            <feFlood flood-opacity="0" result="BackgroundImageFix" />
            <feBlend mode="normal" in="SourceGraphic" in2="BackgroundImageFix" result="shape" />
            <feColorMatrix in="SourceAlpha" type="matrix"
                values="0 0 0 0 0 0 0 0 0 0 0 0 0 0 0 0 0 0 127 0" result="hardAlpha" />
            <feOffset dy="1" />
            <feGaussianBlur stdDeviation="1" />
            <feComposite in2="hardAlpha" operator="arithmetic" k2="-1" k3="1" />
            <feColorMatrix type="matrix" values="0 0 0 0 0 0 0 0 0 0 0 0 0 0 0 0 0 0 0.24 0" />
            <feBlend mode="darken" in2="shape" result="effect1_innerShadow_5449_42426" />
        </filter>
        <linearGradient id="paint0_linear_5449_42426" x1="159" y1="199.945" x2="159" y2="264.312"
            gradientUnits="userSpaceOnUse">
            <stop stop-opacity="0" />
            <stop offset="1" stop-opacity="0.16" />
        </linearGradient>
        <linearGradient id="paint1_linear_5449_42426" x1="159" y1="167.762" x2="159" y2="264.312"
            gradientUnits="userSpaceOnUse">
            <stop stop-color="white" />
            <stop offset="1" stop-color="white" stop-opacity="0" />
        </linearGradient>
        <radialGradient id="paint2_radial_5449_42426" cx="0" cy="0" r="1"
            gradientUnits="userSpaceOnUse"
            gradientTransform="translate(159.001 199.945) rotate(90) scale(64.3666 271.629)">
            <stop stop-color="white" />
            <stop offset="1" stop-color="white" stop-opacity="0" />
        </radialGradient>
        <linearGradient id="paint3_linear_5449_42426" x1="158.726" y1="0.719388" x2="158.726"
            y2="293.485" gradientUnits="userSpaceOnUse">
            <stop stop-color="white" />
            <stop offset="1" stop-color="white" stop-opacity="0" />
        </linearGradient>
        <radialGradient id="paint4_radial_5449_42426" cx="0" cy="0" r="1"
            gradientUnits="userSpaceOnUse"
            gradientTransform="translate(158.726 84.8115) rotate(90) scale(193.1 146.33)">
            <stop stop-color="white" />
            <stop offset="1" stop-color="white" stop-opacity="0" />
        </radialGradient>
        <linearGradient id="paint5_linear_5449_42426" x1="283.958" y1="11.4368" x2="283.958"
            y2="293.146" gradientUnits="userSpaceOnUse">
            <stop stop-color="#49F0BC" />
            <stop offset="1" stop-color="#29DCCC" />
        </linearGradient>
        <linearGradient id="paint6_linear_5449_42426" x1="157.367" y1="0.717434" x2="157.366"
            y2="293.483" gradientUnits="userSpaceOnUse">
            <stop stop-color="white" />
            <stop offset="1" stop-color="white" stop-opacity="0" />
        </linearGradient>
        <radialGradient id="paint7_radial_5449_42426" cx="0" cy="0" r="1"
            gradientUnits="userSpaceOnUse"
            gradientTransform="translate(157.366 84.8096) rotate(90) scale(193.1 146.33)">
            <stop stop-color="white" />
            <stop offset="1" stop-color="white" stop-opacity="0" />
        </radialGradient>
        <linearGradient id="paint8_linear_5449_42426" x1="-31.5977" y1="-42.4687" x2="-31.5977"
            y2="338.645" gradientUnits="userSpaceOnUse">
            <stop stop-color="white" />
            <stop offset="1" stop-color="white" stop-opacity="0.01" />
        </linearGradient>
        <linearGradient id="paint9_linear_5449_42426" x1="158.887" y1="6.17383" x2="158.887"
            y2="292.964" gradientUnits="userSpaceOnUse">
            <stop stop-color="white" />
            <stop offset="1" stop-color="#999999" />
        </linearGradient>
        <linearGradient id="paint10_linear_5449_42426" x1="160.023" y1="81.6914" x2="160.023"
            y2="178.351" gradientUnits="userSpaceOnUse">
            <stop stop-color="#DFDFDF" />
            <stop offset="1" stop-color="#A9A9A9" />
        </linearGradient>
        <linearGradient id="paint11_linear_5449_42426" x1="158.545" y1="188.869" x2="158.545"
            y2="249.775" gradientUnits="userSpaceOnUse">
            <stop stop-opacity="0" />
            <stop offset="1" stop-opacity="0.16" />
        </linearGradient>
        <linearGradient id="paint12_linear_5449_42426" x1="158.545" y1="188.869" x2="158.545"
            y2="249.775" gradientUnits="userSpaceOnUse">
            <stop stop-color="white" />
            <stop offset="1" stop-color="white" stop-opacity="0" />
        </linearGradient>
        <radialGradient id="paint13_radial_5449_42426" cx="0" cy="0" r="1"
            gradientUnits="userSpaceOnUse"
            gradientTransform="translate(158.545 199.497) rotate(90) scale(50.2777 116.478)">
            <stop stop-color="white" />
            <stop offset="1" stop-color="white" stop-opacity="0" />
        </radialGradient>
    </defs>
</svg>