<svg width="100%" height="100%" viewBox="0 0 260 340" fill="none" xmlns="http://www.w3.org/2000/svg">
  <g filter="url(#filter0_dd_12392_56002)">
    <mask id="path-1-inside-1_12392_56002" fill="white">
      <path fill-rule="evenodd" clip-rule="evenodd"
        d="M28.0428 184.944C27.8203 186.15 28.4749 187.646 29.7841 190.636L35.7809 204.335L29.7841 218.034C28.4749 221.024 27.8203 222.52 28.0428 223.726C28.2372 224.78 28.8466 225.712 29.7343 226.313C30.75 227 32.3823 227 35.647 227H51.7547C56.2351 227 58.4754 227 60.1866 226.128C61.6919 225.361 62.9158 224.138 63.6828 222.632C64.5547 220.921 64.5547 218.681 64.5547 214.2V194.47C64.5547 189.99 64.5547 187.749 63.6828 186.038C62.9158 184.533 61.6919 183.309 60.1866 182.542C58.4754 181.67 56.2351 181.67 51.7547 181.67H35.647C32.3823 181.67 30.75 181.67 29.7343 182.357C28.8466 182.958 28.2372 183.89 28.0428 184.944ZM232.333 184.944C232.556 186.15 231.901 187.646 230.592 190.636L224.595 204.335L230.592 218.034C231.901 221.024 232.556 222.52 232.333 223.726C232.139 224.78 231.529 225.712 230.642 226.313C229.626 227 227.994 227 224.729 227H208.621C204.141 227 201.901 227 200.189 226.128C198.684 225.361 197.46 224.138 196.693 222.632C195.821 220.921 195.821 218.681 195.821 214.2V194.47C195.821 189.99 195.821 187.749 196.693 186.038C197.46 184.533 198.684 183.309 200.189 182.542C201.901 181.67 204.141 181.67 208.621 181.67H224.729C227.994 181.67 229.626 181.67 230.642 182.357C231.529 182.958 232.139 183.89 232.333 184.944Z" />
    </mask>
    <path fill-rule="evenodd" clip-rule="evenodd"
      d="M28.0428 184.944C27.8203 186.15 28.4749 187.646 29.7841 190.636L35.7809 204.335L29.7841 218.034C28.4749 221.024 27.8203 222.52 28.0428 223.726C28.2372 224.78 28.8466 225.712 29.7343 226.313C30.75 227 32.3823 227 35.647 227H51.7547C56.2351 227 58.4754 227 60.1866 226.128C61.6919 225.361 62.9158 224.138 63.6828 222.632C64.5547 220.921 64.5547 218.681 64.5547 214.2V194.47C64.5547 189.99 64.5547 187.749 63.6828 186.038C62.9158 184.533 61.6919 183.309 60.1866 182.542C58.4754 181.67 56.2351 181.67 51.7547 181.67H35.647C32.3823 181.67 30.75 181.67 29.7343 182.357C28.8466 182.958 28.2372 183.89 28.0428 184.944ZM232.333 184.944C232.556 186.15 231.901 187.646 230.592 190.636L224.595 204.335L230.592 218.034C231.901 221.024 232.556 222.52 232.333 223.726C232.139 224.78 231.529 225.712 230.642 226.313C229.626 227 227.994 227 224.729 227H208.621C204.141 227 201.901 227 200.189 226.128C198.684 225.361 197.46 224.138 196.693 222.632C195.821 220.921 195.821 218.681 195.821 214.2V194.47C195.821 189.99 195.821 187.749 196.693 186.038C197.46 184.533 198.684 183.309 200.189 182.542C201.901 181.67 204.141 181.67 208.621 181.67H224.729C227.994 181.67 229.626 181.67 230.642 182.357C231.529 182.958 232.139 183.89 232.333 184.944Z"
      fill="#FFA00F" />
    <path
      d="M29.7841 190.636L30.2422 190.436L29.7841 190.636ZM28.0428 184.944L28.5345 185.035L28.0428 184.944ZM35.7809 204.335L36.2389 204.536L36.3267 204.335L36.2389 204.135L35.7809 204.335ZM29.7841 218.034L29.3261 217.833L29.7841 218.034ZM28.0428 223.726L28.5345 223.635L28.0428 223.726ZM29.7343 226.313L30.0146 225.899H30.0146L29.7343 226.313ZM60.1866 226.128L59.9597 225.683L60.1866 226.128ZM63.6828 222.632L63.2373 222.405V222.405L63.6828 222.632ZM63.6828 186.038L63.2373 186.265L63.6828 186.038ZM60.1866 182.542L59.9597 182.987V182.987L60.1866 182.542ZM29.7343 182.357L29.454 181.943V181.943L29.7343 182.357ZM230.592 190.636L230.134 190.436V190.436L230.592 190.636ZM232.333 184.944L231.841 185.035V185.035L232.333 184.944ZM224.595 204.335L224.137 204.135L224.049 204.335L224.137 204.536L224.595 204.335ZM230.592 218.034L230.134 218.234L230.592 218.034ZM232.333 223.726L231.841 223.635V223.635L232.333 223.726ZM230.642 226.313L230.361 225.899H230.361L230.642 226.313ZM200.189 226.128L200.416 225.683L200.189 226.128ZM196.693 222.632L197.139 222.405L197.139 222.405L196.693 222.632ZM196.693 186.038L197.139 186.265V186.265L196.693 186.038ZM200.189 182.542L200.416 182.987V182.987L200.189 182.542ZM230.642 182.357L230.361 182.771L230.361 182.771L230.642 182.357ZM30.2422 190.436C29.5837 188.932 29.104 187.835 28.8134 186.963C28.523 186.092 28.4462 185.514 28.5345 185.035L27.5511 184.854C27.4169 185.581 27.5561 186.354 27.8647 187.279C28.1731 188.204 28.6754 189.35 29.3261 190.837L30.2422 190.436ZM36.2389 204.135L30.2422 190.436L29.3261 190.837L35.3229 204.536L36.2389 204.135ZM30.2422 218.234L36.2389 204.536L35.3229 204.135L29.3261 217.833L30.2422 218.234ZM28.5345 223.635C28.4462 223.157 28.523 222.578 28.8134 221.707C29.104 220.835 29.5837 219.738 30.2422 218.234L29.3261 217.833C28.6754 219.32 28.1731 220.466 27.8647 221.391C27.5561 222.317 27.4169 223.089 27.5511 223.817L28.5345 223.635ZM30.0146 225.899C29.2378 225.373 28.7046 224.558 28.5345 223.635L27.5511 223.817C27.7698 225.002 28.4554 226.051 29.454 226.727L30.0146 225.899ZM35.647 226.5C34.005 226.5 32.8077 226.5 31.8926 226.416C30.9782 226.333 30.4175 226.172 30.0146 225.899L29.454 226.727C30.0668 227.142 30.8301 227.324 31.8019 227.412C32.7731 227.501 34.0243 227.5 35.647 227.5V226.5ZM51.7547 226.5H35.647V227.5H51.7547V226.5ZM59.9597 225.683C59.1862 226.077 58.2715 226.287 56.9684 226.393C55.6595 226.5 54.0032 226.5 51.7547 226.5V227.5C53.9867 227.5 55.6907 227.501 57.0498 227.39C58.4148 227.278 59.4758 227.052 60.4136 226.574L59.9597 225.683ZM63.2373 222.405C62.5182 223.816 61.3709 224.964 59.9597 225.683L60.4136 226.574C62.013 225.759 63.3134 224.459 64.1283 222.859L63.2373 222.405ZM64.0547 214.2C64.0547 216.449 64.0543 218.105 63.9474 219.414C63.8409 220.717 63.6313 221.632 63.2373 222.405L64.1283 222.859C64.6062 221.921 64.8326 220.86 64.9441 219.495C65.0551 218.136 65.0547 216.432 65.0547 214.2H64.0547ZM64.0547 194.47V214.2H65.0547V194.47H64.0547ZM63.2373 186.265C63.6313 187.038 63.8409 187.953 63.9474 189.256C64.0543 190.565 64.0547 192.221 64.0547 194.47H65.0547C65.0547 192.238 65.0551 190.534 64.9441 189.175C64.8326 187.81 64.6062 186.749 64.1283 185.811L63.2373 186.265ZM59.9597 182.987C61.3709 183.706 62.5182 184.854 63.2373 186.265L64.1283 185.811C63.3134 184.212 62.013 182.911 60.4136 182.096L59.9597 182.987ZM51.7547 182.17C54.0032 182.17 55.6595 182.17 56.9684 182.277C58.2715 182.384 59.1862 182.593 59.9597 182.987L60.4136 182.096C59.4758 181.618 58.4148 181.392 57.0498 181.281C55.6907 181.17 53.9867 181.17 51.7547 181.17V182.17ZM35.647 182.17H51.7547V181.17H35.647V182.17ZM30.0146 182.771C30.4175 182.499 30.9782 182.337 31.8926 182.254C32.8077 182.17 34.005 182.17 35.647 182.17V181.17C34.0243 181.17 32.7731 181.169 31.8019 181.258C30.8301 181.346 30.0668 181.529 29.454 181.943L30.0146 182.771ZM28.5345 185.035C28.7046 184.113 29.2378 183.297 30.0146 182.771L29.454 181.943C28.4554 182.619 27.7698 183.668 27.5511 184.854L28.5345 185.035ZM231.05 190.837C231.701 189.35 232.203 188.204 232.511 187.279C232.82 186.354 232.959 185.581 232.825 184.854L231.841 185.035C231.93 185.514 231.853 186.092 231.563 186.963C231.272 187.835 230.792 188.932 230.134 190.436L231.05 190.837ZM225.053 204.536L231.05 190.837L230.134 190.436L224.137 204.135L225.053 204.536ZM231.05 217.833L225.053 204.135L224.137 204.536L230.134 218.234L231.05 217.833ZM232.825 223.817C232.959 223.089 232.82 222.317 232.511 221.391C232.203 220.466 231.701 219.32 231.05 217.833L230.134 218.234C230.792 219.738 231.272 220.835 231.563 221.707C231.853 222.578 231.93 223.157 231.841 223.635L232.825 223.817ZM230.922 226.727C231.921 226.051 232.606 225.002 232.825 223.817L231.841 223.635C231.671 224.558 231.138 225.373 230.361 225.899L230.922 226.727ZM224.729 227.5C226.352 227.5 227.603 227.501 228.574 227.412C229.546 227.324 230.309 227.142 230.922 226.727L230.361 225.899C229.958 226.172 229.398 226.333 228.483 226.416C227.568 226.5 226.371 226.5 224.729 226.5V227.5ZM208.621 227.5H224.729V226.5H208.621V227.5ZM199.962 226.574C200.9 227.052 201.961 227.278 203.326 227.39C204.685 227.501 206.389 227.5 208.621 227.5V226.5C206.373 226.5 204.717 226.5 203.408 226.393C202.104 226.287 201.19 226.077 200.416 225.683L199.962 226.574ZM196.248 222.859C197.063 224.459 198.363 225.759 199.962 226.574L200.416 225.683C199.005 224.964 197.858 223.816 197.139 222.405L196.248 222.859ZM195.321 214.2C195.321 216.432 195.321 218.136 195.432 219.495C195.543 220.86 195.77 221.921 196.248 222.859L197.139 222.405C196.745 221.632 196.535 220.717 196.429 219.414C196.322 218.105 196.321 216.449 196.321 214.2H195.321ZM195.321 194.47V214.2H196.321V194.47H195.321ZM196.248 185.811C195.77 186.749 195.543 187.81 195.432 189.175C195.321 190.534 195.321 192.238 195.321 194.47H196.321C196.321 192.221 196.322 190.565 196.429 189.256C196.535 187.953 196.745 187.038 197.139 186.265L196.248 185.811ZM199.962 182.096C198.363 182.911 197.063 184.212 196.248 185.811L197.139 186.265C197.858 184.854 199.005 183.706 200.416 182.987L199.962 182.096ZM208.621 181.17C206.389 181.17 204.685 181.17 203.326 181.281C201.961 181.392 200.9 181.618 199.962 182.096L200.416 182.987C201.19 182.593 202.104 182.384 203.408 182.277C204.717 182.17 206.373 182.17 208.621 182.17V181.17ZM224.729 181.17H208.621V182.17H224.729V181.17ZM230.922 181.943C230.309 181.529 229.546 181.346 228.574 181.258C227.603 181.169 226.352 181.17 224.729 181.17V182.17C226.371 182.17 227.568 182.17 228.483 182.254C229.398 182.337 229.958 182.499 230.361 182.771L230.922 181.943ZM232.825 184.854C232.606 183.668 231.921 182.619 230.922 181.943L230.361 182.771C231.138 183.297 231.671 184.113 231.841 185.035L232.825 184.854Z"
      fill="url(#paint0_linear_12392_56002)" style="mix-blend-mode:darken" mask="url(#path-1-inside-1_12392_56002)" />
  </g>
  <path fill-rule="evenodd" clip-rule="evenodd"
    d="M28.0428 184.944C27.8203 186.15 28.4749 187.646 29.7841 190.636L35.7809 204.335L29.7841 218.034C28.4749 221.024 27.8203 222.52 28.0428 223.726C28.2372 224.78 28.8466 225.712 29.7343 226.313C30.75 227 32.3823 227 35.647 227H51.7547C56.2351 227 58.4754 227 60.1866 226.128C61.6919 225.361 62.9158 224.138 63.6828 222.632C64.5547 220.921 64.5547 218.681 64.5547 214.2V194.47C64.5547 189.99 64.5547 187.749 63.6828 186.038C62.9158 184.533 61.6919 183.309 60.1866 182.542C58.4754 181.67 56.2351 181.67 51.7547 181.67H35.647C32.3823 181.67 30.75 181.67 29.7343 182.357C28.8466 182.958 28.2372 183.89 28.0428 184.944ZM232.333 184.944C232.556 186.15 231.901 187.646 230.592 190.636L224.595 204.335L230.592 218.034C231.901 221.024 232.556 222.52 232.333 223.726C232.139 224.78 231.529 225.712 230.642 226.313C229.626 227 227.994 227 224.729 227H208.621C204.141 227 201.901 227 200.189 226.128C198.684 225.361 197.46 224.138 196.693 222.632C195.821 220.921 195.821 218.681 195.821 214.2V194.47C195.821 189.99 195.821 187.749 196.693 186.038C197.46 184.533 198.684 183.309 200.189 182.542C201.901 181.67 204.141 181.67 208.621 181.67H224.729C227.994 181.67 229.626 181.67 230.642 182.357C231.529 182.958 232.139 183.89 232.333 184.944Z"
    fill="url(#paint1_linear_12392_56002)" fill-opacity="0.3" style="mix-blend-mode:overlay" />
  <path fill-rule="evenodd" clip-rule="evenodd"
    d="M28.0428 184.944C27.8203 186.15 28.4749 187.646 29.7841 190.636L35.7809 204.335L29.7841 218.034C28.4749 221.024 27.8203 222.52 28.0428 223.726C28.2372 224.78 28.8466 225.712 29.7343 226.313C30.75 227 32.3823 227 35.647 227H51.7547C56.2351 227 58.4754 227 60.1866 226.128C61.6919 225.361 62.9158 224.138 63.6828 222.632C64.5547 220.921 64.5547 218.681 64.5547 214.2V194.47C64.5547 189.99 64.5547 187.749 63.6828 186.038C62.9158 184.533 61.6919 183.309 60.1866 182.542C58.4754 181.67 56.2351 181.67 51.7547 181.67H35.647C32.3823 181.67 30.75 181.67 29.7343 182.357C28.8466 182.958 28.2372 183.89 28.0428 184.944ZM232.333 184.944C232.556 186.15 231.901 187.646 230.592 190.636L224.595 204.335L230.592 218.034C231.901 221.024 232.556 222.52 232.333 223.726C232.139 224.78 231.529 225.712 230.642 226.313C229.626 227 227.994 227 224.729 227H208.621C204.141 227 201.901 227 200.189 226.128C198.684 225.361 197.46 224.138 196.693 222.632C195.821 220.921 195.821 218.681 195.821 214.2V194.47C195.821 189.99 195.821 187.749 196.693 186.038C197.46 184.533 198.684 183.309 200.189 182.542C201.901 181.67 204.141 181.67 208.621 181.67H224.729C227.994 181.67 229.626 181.67 230.642 182.357C231.529 182.958 232.139 183.89 232.333 184.944Z"
    fill="url(#paint2_radial_12392_56002)" fill-opacity="0.6" style="mix-blend-mode:overlay" />
  <path fill-rule="evenodd" clip-rule="evenodd"
    d="M28.0428 184.944C27.8203 186.15 28.4749 187.646 29.7841 190.636L35.7809 204.335L29.7841 218.034C28.4749 221.024 27.8203 222.52 28.0428 223.726C28.2372 224.78 28.8466 225.712 29.7343 226.313C30.75 227 32.3823 227 35.647 227H51.7547C56.2351 227 58.4754 227 60.1866 226.128C61.6919 225.361 62.9158 224.138 63.6828 222.632C64.5547 220.921 64.5547 218.681 64.5547 214.2V194.47C64.5547 189.99 64.5547 187.749 63.6828 186.038C62.9158 184.533 61.6919 183.309 60.1866 182.542C58.4754 181.67 56.2351 181.67 51.7547 181.67H35.647C32.3823 181.67 30.75 181.67 29.7343 182.357C28.8466 182.958 28.2372 183.89 28.0428 184.944ZM232.333 184.944C232.556 186.15 231.901 187.646 230.592 190.636L224.595 204.335L230.592 218.034C231.901 221.024 232.556 222.52 232.333 223.726C232.139 224.78 231.529 225.712 230.642 226.313C229.626 227 227.994 227 224.729 227H208.621C204.141 227 201.901 227 200.189 226.128C198.684 225.361 197.46 224.138 196.693 222.632C195.821 220.921 195.821 218.681 195.821 214.2V194.47C195.821 189.99 195.821 187.749 196.693 186.038C197.46 184.533 198.684 183.309 200.189 182.542C201.901 181.67 204.141 181.67 208.621 181.67H224.729C227.994 181.67 229.626 181.67 230.642 182.357C231.529 182.958 232.139 183.89 232.333 184.944Z"
    fill="black" fill-opacity="0.24" style="mix-blend-mode:overlay" />
  <path fill-rule="evenodd" clip-rule="evenodd"
    d="M28.0428 184.944C27.8203 186.15 28.4749 187.646 29.7841 190.636L35.7809 204.335L29.7841 218.034C28.4749 221.024 27.8203 222.52 28.0428 223.726C28.2372 224.78 28.8466 225.712 29.7343 226.313C30.75 227 32.3823 227 35.647 227H51.7547C56.2351 227 58.4754 227 60.1866 226.128C61.6919 225.361 62.9158 224.138 63.6828 222.632C64.5547 220.921 64.5547 218.681 64.5547 214.2V194.47C64.5547 189.99 64.5547 187.749 63.6828 186.038C62.9158 184.533 61.6919 183.309 60.1866 182.542C58.4754 181.67 56.2351 181.67 51.7547 181.67H35.647C32.3823 181.67 30.75 181.67 29.7343 182.357C28.8466 182.958 28.2372 183.89 28.0428 184.944ZM232.333 184.944C232.556 186.15 231.901 187.646 230.592 190.636L224.595 204.335L230.592 218.034C231.901 221.024 232.556 222.52 232.333 223.726C232.139 224.78 231.529 225.712 230.642 226.313C229.626 227 227.994 227 224.729 227H208.621C204.141 227 201.901 227 200.189 226.128C198.684 225.361 197.46 224.138 196.693 222.632C195.821 220.921 195.821 218.681 195.821 214.2V194.47C195.821 189.99 195.821 187.749 196.693 186.038C197.46 184.533 198.684 183.309 200.189 182.542C201.901 181.67 204.141 181.67 208.621 181.67H224.729C227.994 181.67 229.626 181.67 230.642 182.357C231.529 182.958 232.139 183.89 232.333 184.944Z"
    fill="black" fill-opacity="0.12" style="mix-blend-mode:darken" />
  <g filter="url(#filter1_dddd_12392_56002)">
    <path
      d="M33.2023 69.5621C32.9805 62.6953 32.8695 59.2619 34.1867 55.638C35.3168 52.5285 37.3821 49.5262 39.8818 47.3589C42.7951 44.8329 47.0041 43.3753 55.4221 40.46C74.7535 33.7653 93.3887 24.6738 110.919 14.079C118.314 9.61015 122.011 7.37572 125.224 6.66573C128.398 5.96447 130.68 5.96447 133.854 6.66573C137.067 7.37572 140.764 9.61015 148.159 14.079C165.689 24.6738 184.325 33.7653 203.656 40.46C212.074 43.3753 216.283 44.8329 219.196 47.3589C221.696 49.5262 223.761 52.5285 224.891 55.638C226.209 59.2619 226.098 62.6953 225.876 69.5621C225.221 89.812 221.672 120.446 208.112 148.052C190.333 184.248 160.513 207.86 143.173 219.302C139.46 221.753 137.604 222.978 134.163 223.795C131.764 224.365 127.314 224.365 124.915 223.795C121.475 222.978 119.618 221.753 115.905 219.302C98.5653 207.86 68.7455 184.248 50.9661 148.052C37.406 120.446 33.8567 89.812 33.2023 69.5621Z"
      fill="black" />
  </g>
  <mask id="mask0_12392_56002" style="mask-type:alpha" maskUnits="userSpaceOnUse" x="33" y="6" width="194" height="219">
    <path
      d="M33.2023 69.5621C32.9805 62.6953 32.8695 59.2619 34.1867 55.638C35.3168 52.5285 37.3821 49.5262 39.8818 47.3589C42.7951 44.8329 47.0041 43.3753 55.4221 40.46C74.7535 33.7653 93.3887 24.6738 110.919 14.079C118.314 9.61015 122.011 7.37572 125.224 6.66573C128.398 5.96447 130.68 5.96447 133.854 6.66573C137.067 7.37572 140.764 9.61015 148.159 14.079C165.689 24.6738 184.325 33.7653 203.656 40.46C212.074 43.3753 216.283 44.8329 219.196 47.3589C221.696 49.5262 223.761 52.5285 224.891 55.638C226.209 59.2619 226.098 62.6953 225.876 69.5621C225.221 89.812 221.672 120.446 208.112 148.052C190.333 184.248 160.513 207.86 143.173 219.302C139.46 221.753 137.604 222.978 134.163 223.795C131.764 224.365 127.314 224.365 124.915 223.795C121.475 222.978 119.618 221.753 115.905 219.302C98.5653 207.86 68.7455 184.248 50.9661 148.052C37.406 120.446 33.8567 89.812 33.2023 69.5621Z"
      fill="black" />
  </mask>
  <g mask="url(#mask0_12392_56002)">
    <mask id="mask1_12392_56002" style="mask-type:alpha" maskUnits="userSpaceOnUse" x="33" y="6" width="194"
      height="219">
      <path
        d="M33.2023 69.5621C32.9805 62.6953 32.8695 59.2619 34.1867 55.638C35.3168 52.5285 37.3821 49.5262 39.8818 47.3589C42.7951 44.8329 47.0041 43.3753 55.4221 40.46C74.7535 33.7653 93.3887 24.6738 110.919 14.079C118.314 9.61015 122.011 7.37572 125.224 6.66573C128.398 5.96447 130.68 5.96447 133.854 6.66573C137.067 7.37572 140.764 9.61015 148.159 14.079C165.689 24.6738 184.325 33.7653 203.656 40.46C212.074 43.3753 216.283 44.8329 219.196 47.3589C221.696 49.5262 223.761 52.5285 224.891 55.638C226.209 59.2619 226.098 62.6953 225.876 69.5621C225.221 89.812 221.672 120.446 208.112 148.052C190.333 184.248 160.513 207.86 143.173 219.302C139.46 221.753 137.604 222.978 134.163 223.795C131.764 224.365 127.314 224.365 124.915 223.795C121.475 222.978 119.618 221.753 115.905 219.302C98.5653 207.86 68.7455 184.248 50.9661 148.052C37.406 120.446 33.8567 89.812 33.2023 69.5621Z"
        fill="black" />
    </mask>
    <g mask="url(#mask1_12392_56002)">
      <rect x="-16.5098" y="-32.0938" width="291.848" height="292.206" fill="#437DFA" />
      <rect x="-16.5098" y="-32.0938" width="291.848" height="292.206" fill="url(#paint3_linear_12392_56002)"
        fill-opacity="0.6" style="mix-blend-mode:overlay" />
      <rect x="-16.5098" y="-32.0938" width="291.848" height="292.206" fill="url(#paint4_radial_12392_56002)"
        fill-opacity="0.6" style="mix-blend-mode:overlay" />
      <rect x="-16.5098" y="-32.0938" width="291.848" height="292.206" fill="black" fill-opacity="0.16"
        style="mix-blend-mode:overlay" />
      <rect x="-16.5098" y="-32.0938" width="291.848" height="292.206" fill="black" fill-opacity="0.12"
        style="mix-blend-mode:darken" />
    </g>
    <g filter="url(#filter2_d_12392_56002)">
      <mask id="mask2_12392_56002" style="mask-type:alpha" maskUnits="userSpaceOnUse" x="33" y="6" width="194"
        height="219">
        <path fill-rule="evenodd" clip-rule="evenodd"
          d="M58.0364 48.0204C77.974 41.1156 97.1169 31.7668 115.053 20.9266C118.823 18.6482 121.39 17.1002 123.415 16.0149C125.435 14.9322 126.404 14.5981 126.946 14.4782C128.984 14.0281 130.087 14.0281 132.124 14.4782C132.667 14.5981 133.636 14.9322 135.656 16.0149C137.681 17.1002 140.247 18.6482 144.017 20.9266C161.954 31.7668 181.097 41.1156 201.034 48.0204C205.344 49.513 208.205 50.5079 210.369 51.4239C212.464 52.3102 213.389 52.9165 213.952 53.4041C215.423 54.6795 216.704 56.5419 217.369 58.3716C218.05 60.2465 218.114 61.9597 217.876 69.3046C217.238 89.0488 213.769 118.384 200.928 144.526C184.047 178.893 155.56 201.541 138.763 212.626C134.996 215.112 134.211 215.561 132.31 216.013C131.965 216.095 130.947 216.224 129.535 216.224C128.123 216.224 127.105 216.095 126.761 216.013C124.86 215.561 124.075 215.112 120.308 212.626C103.51 201.541 75.0238 178.893 58.1429 144.526C45.3017 118.384 41.8324 89.0488 41.1944 69.3046C40.9571 61.9597 41.0203 60.2465 41.7017 58.3716C42.3667 56.5419 43.6479 54.6795 45.1188 53.4041C45.6812 52.9165 46.6069 52.3102 48.7014 51.4239C50.8661 50.5079 53.7263 49.513 58.0364 48.0204ZM33.1986 69.5629C32.9767 62.6962 32.8658 59.2628 34.1829 55.6389C35.3131 52.5294 37.3783 49.5271 39.8781 47.3597C42.7914 44.8338 47.0004 43.3761 55.4183 40.4609L55.4184 40.4608C74.7497 33.7661 93.385 24.6747 110.916 14.0799C118.31 9.61099 122.007 7.37656 125.221 6.66658C128.395 5.96531 130.676 5.96531 133.85 6.66658C137.064 7.37656 140.761 9.61099 148.155 14.0799C165.686 24.6747 184.321 33.7661 203.652 40.4608C212.07 43.3761 216.279 44.8338 219.193 47.3597C221.692 49.5271 223.758 52.5294 224.888 55.6389C226.205 59.2628 226.094 62.6962 225.872 69.5629C225.218 89.8129 221.668 120.447 208.108 148.053C190.329 184.249 160.509 207.861 143.169 219.303C139.456 221.753 137.6 222.979 134.16 223.796C131.761 224.366 127.31 224.366 124.911 223.796C121.471 222.979 119.614 221.753 115.901 219.303C98.5616 207.861 68.7418 184.249 50.9624 148.053C37.4023 120.447 33.8529 89.8129 33.1986 69.5629ZM122.787 36.031C113.023 41.6508 103.29 47.2528 93.0626 52.0784C83.04 56.8073 72.7385 60.6472 62.3907 64.503C60.854 65.0756 60.0857 65.3619 59.5185 65.8737C59.0253 66.3188 58.636 66.9065 58.4185 67.5342C58.1685 68.2561 58.2038 69.058 58.2744 70.6618C59.2754 93.4059 63.3266 116.472 73.4111 137.003C85.1533 160.908 104.276 180.779 126.02 195.915C127.245 196.767 127.857 197.193 128.573 197.371C129.183 197.522 129.89 197.522 130.5 197.371C131.216 197.193 131.828 196.767 133.053 195.915C154.797 180.778 173.919 160.908 185.662 137.003C195.746 116.472 199.797 93.4059 200.798 70.6619C200.869 69.058 200.904 68.2561 200.654 67.5342C200.437 66.9065 200.048 66.3189 199.554 65.8738C198.987 65.362 198.219 65.0756 196.682 64.503C186.339 60.6486 176.007 56.7951 166.01 52.0784C155.783 47.2528 146.05 41.6508 136.286 36.031C135.092 35.3438 133.898 34.6564 132.702 33.9701C131.555 33.3115 130.981 32.9822 130.364 32.8518C129.822 32.7371 129.251 32.7371 128.709 32.8518C128.092 32.9822 127.518 33.3115 126.371 33.9701C125.175 34.6564 123.981 35.3439 122.787 36.031Z"
          fill="url(#paint5_linear_12392_56002)" />
      </mask>
      <g mask="url(#mask2_12392_56002)">
        <rect x="-16.5117" y="-32.0938" width="291.848" height="292.206" fill="#437DFA" />
        <rect x="-17.5527" y="-32.0938" width="291.848" height="292.206" fill="url(#paint6_linear_12392_56002)"
          fill-opacity="0.6" style="mix-blend-mode:overlay" />
        <rect x="-17.5527" y="-32.0938" width="291.848" height="292.206" fill="url(#paint7_radial_12392_56002)"
          fill-opacity="0.6" style="mix-blend-mode:overlay" />
        <g style="mix-blend-mode:soft-light">
          <path fill-rule="evenodd" clip-rule="evenodd" d="M-16.5117 -32.0938H129.412V260.112H-16.5117V-32.0938Z"
            fill="url(#paint8_linear_12392_56002)" style="mix-blend-mode:lighten" />
        </g>
        <g style="mix-blend-mode:soft-light">
          <mask id="path-15-inside-2_12392_56002" fill="white">
            <path fill-rule="evenodd" clip-rule="evenodd"
              d="M58.0364 48.0204C77.974 41.1156 97.1169 31.7668 115.053 20.9266C118.823 18.6482 121.39 17.1002 123.415 16.0149C125.435 14.9322 126.404 14.5981 126.946 14.4782C128.984 14.0281 130.087 14.0281 132.124 14.4782C132.667 14.5981 133.636 14.9322 135.656 16.0149C137.681 17.1002 140.247 18.6482 144.017 20.9266C161.954 31.7668 181.097 41.1156 201.034 48.0204C205.344 49.513 208.205 50.5079 210.369 51.4239C212.464 52.3102 213.389 52.9165 213.952 53.4041C215.423 54.6795 216.704 56.5419 217.369 58.3716C218.05 60.2465 218.114 61.9597 217.876 69.3046C217.238 89.0488 213.769 118.384 200.928 144.526C184.047 178.893 155.56 201.541 138.763 212.626C134.996 215.112 134.211 215.561 132.31 216.013C131.965 216.095 130.947 216.224 129.535 216.224C128.123 216.224 127.105 216.095 126.761 216.013C124.86 215.561 124.075 215.112 120.308 212.626C103.51 201.541 75.0238 178.893 58.1429 144.526C45.3017 118.384 41.8324 89.0488 41.1944 69.3046C40.9571 61.9597 41.0203 60.2465 41.7017 58.3716C42.3667 56.5419 43.6479 54.6795 45.1188 53.4041C45.6812 52.9165 46.6069 52.3102 48.7014 51.4239C50.8661 50.5079 53.7263 49.513 58.0364 48.0204ZM33.1986 69.5629C32.9767 62.6962 32.8658 59.2628 34.1829 55.6389C35.3131 52.5294 37.3783 49.5271 39.8781 47.3597C42.7914 44.8338 47.0004 43.3761 55.4183 40.4609L55.4184 40.4608C74.7497 33.7661 93.385 24.6747 110.916 14.0799C118.31 9.61099 122.007 7.37656 125.221 6.66658C128.395 5.96531 130.676 5.96531 133.85 6.66658C137.064 7.37656 140.761 9.61099 148.155 14.0799C165.686 24.6747 184.321 33.7661 203.652 40.4608C212.07 43.3761 216.279 44.8338 219.193 47.3597C221.692 49.5271 223.758 52.5294 224.888 55.6389C226.205 59.2628 226.094 62.6962 225.872 69.5629C225.218 89.8129 221.668 120.447 208.108 148.053C190.329 184.249 160.509 207.861 143.169 219.303C139.456 221.753 137.6 222.979 134.16 223.796C131.761 224.366 127.31 224.366 124.911 223.796C121.471 222.979 119.614 221.753 115.901 219.303C98.5616 207.861 68.7418 184.249 50.9624 148.053C37.4023 120.447 33.8529 89.8129 33.1986 69.5629ZM122.787 36.031C113.023 41.6508 103.29 47.2528 93.0626 52.0784C83.04 56.8073 72.7385 60.6472 62.3907 64.503C60.854 65.0756 60.0857 65.3619 59.5185 65.8737C59.0253 66.3188 58.636 66.9065 58.4185 67.5342C58.1685 68.2561 58.2038 69.058 58.2744 70.6618C59.2754 93.4059 63.3266 116.472 73.4111 137.003C85.1533 160.908 104.276 180.779 126.02 195.915C127.245 196.767 127.857 197.193 128.573 197.371C129.183 197.522 129.89 197.522 130.5 197.371C131.216 197.193 131.828 196.767 133.053 195.915C154.797 180.778 173.919 160.908 185.662 137.003C195.746 116.472 199.797 93.4059 200.798 70.6619C200.869 69.058 200.904 68.2561 200.654 67.5342C200.437 66.9065 200.048 66.3189 199.554 65.8738C198.987 65.362 198.219 65.0756 196.682 64.503C186.339 60.6486 176.007 56.7951 166.01 52.0784C155.783 47.2528 146.05 41.6508 136.286 36.031C135.092 35.3438 133.898 34.6564 132.702 33.9701C131.555 33.3115 130.981 32.9822 130.364 32.8518C129.822 32.7371 129.251 32.7371 128.709 32.8518C128.092 32.9822 127.518 33.3115 126.371 33.9701C125.175 34.6564 123.981 35.3439 122.787 36.031Z" />
          </mask>
          <path
            d="M115.053 20.9266L115.312 21.3545L115.053 20.9266ZM58.0364 48.0204L57.8728 47.5479L58.0364 48.0204ZM123.415 16.0149L123.179 15.5742L123.415 16.0149ZM126.946 14.4782L127.054 14.9664L126.946 14.4782ZM132.124 14.4782L132.016 14.9664L132.124 14.4782ZM135.656 16.0149L135.42 16.4556L135.656 16.0149ZM144.017 20.9266L144.276 20.4987L144.017 20.9266ZM201.034 48.0204L200.871 48.4928L201.034 48.0204ZM210.369 51.4239L210.174 51.8844L210.369 51.4239ZM213.952 53.4041L214.279 53.0263L213.952 53.4041ZM217.369 58.3716L217.839 58.2008V58.2008L217.369 58.3716ZM217.876 69.3046L217.376 69.2884L217.876 69.3046ZM200.928 144.526L201.377 144.747L200.928 144.526ZM138.763 212.626L138.488 212.209L138.763 212.626ZM132.31 216.013L132.194 215.527L132.31 216.013ZM126.761 216.013L126.876 215.527L126.761 216.013ZM120.308 212.626L120.583 212.209L120.308 212.626ZM58.1429 144.526L57.6941 144.747L58.1429 144.526ZM41.1944 69.3046L41.6942 69.2884L41.1944 69.3046ZM41.7017 58.3716L41.2318 58.2008L41.7017 58.3716ZM45.1188 53.4041L45.4464 53.7819L45.1188 53.4041ZM48.7014 51.4239L48.8963 51.8844L48.7014 51.4239ZM34.1829 55.6389L33.713 55.4681L34.1829 55.6389ZM33.1986 69.5629L32.6989 69.5791L33.1986 69.5629ZM39.8781 47.3597L40.2056 47.7375H40.2056L39.8781 47.3597ZM55.4183 40.4609L55.2602 39.9865L55.2547 39.9884L55.4183 40.4609ZM55.4184 40.4608L55.5765 40.9352L55.582 40.9333L55.4184 40.4608ZM110.916 14.0799L110.657 13.6519L110.916 14.0799ZM125.221 6.66658L125.113 6.17835V6.17835L125.221 6.66658ZM133.85 6.66658L133.742 7.1548L133.85 6.66658ZM148.155 14.0799L147.896 14.5078L148.155 14.0799ZM203.652 40.4608L203.816 39.9884L203.652 40.4608ZM219.193 47.3597L218.865 47.7375L219.193 47.3597ZM224.888 55.6389L224.418 55.8097L224.888 55.6389ZM225.872 69.5629L225.372 69.5468L225.872 69.5629ZM208.108 148.053L207.66 147.833L208.108 148.053ZM143.169 219.303L142.894 218.886L143.169 219.303ZM134.16 223.796L134.275 224.283H134.275L134.16 223.796ZM124.911 223.796L124.795 224.283H124.795L124.911 223.796ZM115.901 219.303L116.177 218.886L115.901 219.303ZM50.9624 148.053L50.5136 148.274L50.9624 148.053ZM93.0626 52.0784L92.8492 51.6262L93.0626 52.0784ZM122.787 36.031L122.537 35.5977L122.787 36.031ZM62.3907 64.503L62.5653 64.9716H62.5653L62.3907 64.503ZM59.5185 65.8737L59.1835 65.5025H59.1835L59.5185 65.8737ZM58.4185 67.5342L58.891 67.6979L58.4185 67.5342ZM58.2744 70.6618L58.7739 70.6399L58.2744 70.6618ZM73.4111 137.003L73.8599 136.782L73.4111 137.003ZM126.02 195.915L126.306 195.504L126.02 195.915ZM128.573 197.371L128.693 196.886L128.693 196.886L128.573 197.371ZM130.5 197.371L130.379 196.886L130.5 197.371ZM133.053 195.915L133.338 196.325L133.053 195.915ZM185.662 137.003L186.11 137.223L185.662 137.003ZM200.798 70.6619L200.299 70.6399V70.6399L200.798 70.6619ZM200.654 67.5342L200.182 67.6979V67.6979L200.654 67.5342ZM199.554 65.8738L199.219 66.245L199.554 65.8738ZM196.682 64.503L196.507 64.9715L196.682 64.503ZM166.01 52.0784L165.797 52.5306L166.01 52.0784ZM136.286 36.031L136.036 36.4643L136.286 36.031ZM132.702 33.9701L132.453 34.4038L132.702 33.9701ZM130.364 32.8518L130.261 33.341L130.364 32.8518ZM128.709 32.8518L128.605 32.3626L128.709 32.8518ZM126.371 33.9701L126.122 33.5365L126.371 33.9701ZM114.795 20.4987C96.8836 31.3235 77.7725 40.6563 57.8728 47.5479L58.2 48.4928C78.1756 41.575 97.3501 32.21 115.312 21.3545L114.795 20.4987ZM123.179 15.5742C121.139 16.6671 118.56 18.2231 114.795 20.4987L115.312 21.3545C119.087 19.0733 121.64 17.5333 123.651 16.4556L123.179 15.5742ZM126.839 13.99C126.229 14.1246 125.213 14.4841 123.179 15.5742L123.651 16.4556C125.657 15.3803 126.579 15.0715 127.054 14.9664L126.839 13.99ZM132.232 13.99C131.195 13.7609 130.371 13.6406 129.535 13.6406C128.7 13.6406 127.875 13.7609 126.839 13.99L127.054 14.9664C128.055 14.7454 128.801 14.6406 129.535 14.6406C130.27 14.6406 131.016 14.7454 132.016 14.9664L132.232 13.99ZM135.892 15.5742C133.858 14.4841 132.841 14.1246 132.232 13.99L132.016 14.9664C132.492 15.0715 133.413 15.3803 135.42 16.4556L135.892 15.5742ZM144.276 20.4987C140.511 18.2231 137.931 16.6671 135.892 15.5742L135.42 16.4556C137.431 17.5333 139.984 19.0733 143.759 21.3545L144.276 20.4987ZM201.198 47.5479C181.298 40.6563 162.187 31.3235 144.276 20.4987L143.759 21.3545C161.721 32.21 180.895 41.575 200.871 48.4928L201.198 47.5479ZM210.564 50.9634C208.38 50.0394 205.501 49.0383 201.198 47.5479L200.871 48.4928C205.187 49.9877 208.029 50.9765 210.174 51.8844L210.564 50.9634ZM214.279 53.0263C213.661 52.4902 212.682 51.8595 210.564 50.9634L210.174 51.8844C212.246 52.7609 213.118 53.3429 213.624 53.7819L214.279 53.0263ZM217.839 58.2008C217.145 56.2911 215.815 54.3575 214.279 53.0263L213.624 53.7819C215.031 55.0015 216.263 56.7927 216.899 58.5424L217.839 58.2008ZM218.376 69.3207C218.612 62.0112 218.561 60.1865 217.839 58.2008L216.899 58.5424C217.54 60.3066 217.615 61.9081 217.376 69.2884L218.376 69.3207ZM201.377 144.747C214.263 118.513 217.737 89.0965 218.376 69.3207L217.376 69.2884C216.74 89.001 213.275 118.255 200.479 144.306L201.377 144.747ZM139.038 213.043C155.87 201.936 184.439 179.228 201.377 144.747L200.479 144.306C183.654 178.558 155.251 201.146 138.488 212.209L139.038 213.043ZM132.425 216.499C134.424 216.024 135.277 215.526 139.038 213.043L138.488 212.209C134.715 214.699 133.998 215.098 132.194 215.527L132.425 216.499ZM129.535 216.724C130.966 216.724 132.027 216.594 132.425 216.499L132.194 215.527C131.903 215.596 130.929 215.724 129.535 215.724V216.724ZM126.645 216.499C127.043 216.594 128.105 216.724 129.535 216.724V215.724C128.142 215.724 127.167 215.596 126.876 215.527L126.645 216.499ZM120.032 213.043C123.794 215.526 124.647 216.024 126.645 216.499L126.876 215.527C125.072 215.098 124.356 214.699 120.583 212.209L120.032 213.043ZM57.6941 144.747C74.6312 179.228 103.201 201.936 120.032 213.043L120.583 212.209C103.82 201.146 75.4164 178.558 58.5917 144.306L57.6941 144.747ZM40.6947 69.3207C41.3337 89.0965 44.808 118.513 57.6941 144.747L58.5917 144.306C45.7954 118.255 42.3311 89.001 41.6942 69.2884L40.6947 69.3207ZM41.2318 58.2008C40.5101 60.1865 40.4585 62.0112 40.6947 69.3207L41.6942 69.2884C41.4557 61.9081 41.5304 60.3066 42.1716 58.5424L41.2318 58.2008ZM44.7913 53.0263C43.256 54.3574 41.9259 56.2911 41.2318 58.2008L42.1716 58.5424C42.8076 56.7927 44.0397 55.0015 45.4464 53.7819L44.7913 53.0263ZM48.5066 50.9634C46.3889 51.8595 45.4097 52.4902 44.7913 53.0263L45.4464 53.7819C45.9527 53.3429 46.8248 52.7609 48.8963 51.8844L48.5066 50.9634ZM57.8728 47.5479C53.5692 49.0383 50.6903 50.0394 48.5066 50.9634L48.8963 51.8844C51.0419 50.9765 53.8834 49.9877 58.2 48.4928L57.8728 47.5479ZM33.713 55.4681C32.3561 59.2013 32.478 62.7422 32.6989 69.5791L33.6984 69.5468C33.4755 62.6501 33.3755 59.3243 34.6529 55.8097L33.713 55.4681ZM39.5506 46.9819C36.9865 49.2051 34.8723 52.2786 33.713 55.4681L34.6529 55.8097C35.754 52.7801 37.7702 49.8491 40.2056 47.7375L39.5506 46.9819ZM55.2547 39.9884C51.0521 41.4439 47.8768 42.5432 45.3891 43.5958C42.8971 44.6503 41.0631 45.6705 39.5506 46.9819L40.2056 47.7375C41.6064 46.523 43.3335 45.5514 45.7788 44.5168C48.2285 43.4802 51.3667 42.3932 55.582 40.9333L55.2547 39.9884ZM55.2603 39.9865L55.2602 39.9865L55.5765 40.9352L55.5765 40.9352L55.2603 39.9865ZM110.657 13.6519C93.1517 24.2314 74.5482 33.3068 55.2548 39.9884L55.582 40.9333C74.9512 34.2254 93.6182 25.1179 111.174 14.5078L110.657 13.6519ZM125.113 6.17835C123.439 6.54804 121.664 7.30926 119.4 8.52294C117.135 9.73644 114.35 11.4203 110.657 13.6519L111.174 14.5078C114.876 12.2706 117.636 10.6028 119.872 9.40434C122.108 8.20608 123.788 7.4951 125.328 7.1548L125.113 6.17835ZM133.958 6.17835C130.713 5.46138 128.358 5.46138 125.113 6.17835L125.328 7.1548C128.431 6.46923 130.639 6.46923 133.742 7.1548L133.958 6.17835ZM148.414 13.6519C144.721 11.4203 141.935 9.73644 139.671 8.52294C137.406 7.30926 135.631 6.54804 133.958 6.17835L133.742 7.1548C135.282 7.4951 136.963 8.20608 139.199 9.40434C141.435 10.6028 144.195 12.2706 147.896 14.5078L148.414 13.6519ZM203.816 39.9884C184.522 33.3068 165.919 24.2314 148.414 13.6519L147.896 14.5078C165.452 25.1179 184.119 34.2254 203.489 40.9333L203.816 39.9884ZM219.52 46.9819C218.008 45.6705 216.174 44.6503 213.682 43.5958C211.194 42.5432 208.019 41.4438 203.816 39.9884L203.489 40.9333C207.704 42.3931 210.842 43.4802 213.292 44.5168C215.737 45.5514 217.464 46.523 218.865 47.7375L219.52 46.9819ZM225.358 55.4681C224.198 52.2786 222.084 49.2051 219.52 46.9819L218.865 47.7375C221.3 49.8491 223.317 52.7801 224.418 55.8097L225.358 55.4681ZM226.372 69.5791C226.593 62.7422 226.715 59.2013 225.358 55.4681L224.418 55.8097C225.695 59.3243 225.595 62.6501 225.372 69.5468L226.372 69.5791ZM208.557 148.274C222.162 120.576 225.716 89.8606 226.372 69.5791L225.372 69.5468C224.719 89.7651 221.175 120.318 207.66 147.833L208.557 148.274ZM143.445 219.721C160.818 208.256 190.722 184.584 208.557 148.274L207.66 147.833C189.936 183.914 160.2 207.466 142.894 218.886L143.445 219.721ZM134.275 224.283C137.812 223.442 139.735 222.169 143.445 219.721L142.894 218.886C139.177 221.338 137.388 222.515 134.044 223.31L134.275 224.283ZM124.795 224.283C126.048 224.58 127.804 224.724 129.535 224.724C131.266 224.724 133.022 224.58 134.275 224.283L134.044 223.31C132.898 223.582 131.229 223.724 129.535 223.724C127.842 223.724 126.173 223.582 125.027 223.31L124.795 224.283ZM115.626 219.721C119.336 222.169 121.259 223.442 124.795 224.283L125.027 223.31C121.683 222.515 119.893 221.338 116.177 218.886L115.626 219.721ZM50.5136 148.274C68.3491 184.584 98.2523 208.256 115.626 219.721L116.177 218.886C98.8709 207.466 69.1344 183.914 51.4112 147.833L50.5136 148.274ZM32.6989 69.5791C33.3542 89.8606 36.9085 120.576 50.5136 148.274L51.4112 147.833C37.896 120.318 34.3516 89.7651 33.6984 69.5468L32.6989 69.5791ZM93.2759 52.5306C103.525 47.6949 113.275 42.0825 123.036 36.4644L122.537 35.5977C112.771 41.2191 103.055 46.8108 92.8492 51.6262L93.2759 52.5306ZM62.5653 64.9716C72.91 61.1169 83.2312 57.27 93.2759 52.5306L92.8492 51.6262C82.8488 56.3447 72.5671 60.1775 62.2161 64.0345L62.5653 64.9716ZM59.8535 66.2449C60.3328 65.8124 60.9894 65.5588 62.5653 64.9716L62.2161 64.0345C60.7186 64.5925 59.8386 64.9114 59.1835 65.5025L59.8535 66.2449ZM58.891 67.6979C59.0808 67.1498 59.4228 66.6335 59.8535 66.2449L59.1835 65.5025C58.6277 66.0041 58.1911 66.6632 57.9461 67.3706L58.891 67.6979ZM58.7739 70.6399C58.7015 68.9956 58.6796 68.3082 58.891 67.6979L57.9461 67.3706C57.6574 68.204 57.7061 69.1204 57.7749 70.6838L58.7739 70.6399ZM73.8599 136.782C63.8164 116.335 59.7731 93.3439 58.7739 70.6399L57.7749 70.6838C58.7776 93.4679 62.8368 116.609 72.9624 137.223L73.8599 136.782ZM126.306 195.504C104.614 180.405 85.5564 160.594 73.8599 136.782L72.9624 137.223C84.7502 161.221 103.938 181.152 125.734 196.325L126.306 195.504ZM128.693 196.886C128.087 196.735 127.56 196.378 126.306 195.504L125.734 196.325C126.929 197.157 127.626 197.651 128.453 197.856L128.693 196.886ZM130.379 196.886C129.848 197.018 129.224 197.018 128.693 196.886L128.453 197.856C129.142 198.027 129.931 198.027 130.62 197.856L130.379 196.886ZM132.767 195.504C131.512 196.378 130.985 196.735 130.379 196.886L130.62 197.856C131.446 197.651 132.144 197.157 133.338 196.325L132.767 195.504ZM185.213 136.782C173.516 160.594 154.459 180.404 132.767 195.504L133.338 196.325C155.135 181.152 174.322 161.221 186.11 137.223L185.213 136.782ZM200.299 70.6399C199.3 93.3439 195.256 116.335 185.213 136.782L186.11 137.223C196.236 116.609 200.295 93.4679 201.298 70.6838L200.299 70.6399ZM200.182 67.6979C200.393 68.3082 200.371 68.9956 200.299 70.6399L201.298 70.6839C201.367 69.1204 201.415 68.204 201.127 67.3706L200.182 67.6979ZM199.219 66.245C199.65 66.6336 199.992 67.1498 200.182 67.6979L201.127 67.3706C200.882 66.6632 200.445 66.0041 199.889 65.5026L199.219 66.245ZM196.507 64.9715C198.083 65.5588 198.74 65.8125 199.219 66.245L199.889 65.5026C199.234 64.9115 198.354 64.5925 196.857 64.0344L196.507 64.9715ZM165.797 52.5306C175.816 57.2578 186.168 61.1183 196.507 64.9715L196.857 64.0344C186.511 60.1789 176.198 56.3325 166.224 51.6262L165.797 52.5306ZM136.036 36.4643C145.797 42.0825 155.548 47.6949 165.797 52.5306L166.224 51.6262C156.017 46.8107 146.302 41.2191 136.535 35.5976L136.036 36.4643ZM132.453 34.4038C133.649 35.0899 134.843 35.7771 136.036 36.4643L136.535 35.5976C135.342 34.9105 134.147 34.2229 132.951 33.5365L132.453 34.4038ZM130.261 33.341C130.782 33.4513 131.277 33.7288 132.453 34.4038L132.951 33.5365C131.832 32.8942 131.179 32.5132 130.467 32.3626L130.261 33.341ZM128.812 33.341C129.286 33.2407 129.786 33.2407 130.261 33.341L130.467 32.3626C129.857 32.2334 129.216 32.2334 128.605 32.3626L128.812 33.341ZM126.62 34.4038C127.796 33.7288 128.291 33.4513 128.812 33.341L128.605 32.3626C127.893 32.5132 127.241 32.8942 126.122 33.5365L126.62 34.4038ZM123.036 36.4644C124.23 35.7772 125.424 35.0899 126.62 34.4038L126.122 33.5365C124.926 34.2229 123.731 34.9105 122.537 35.5977L123.036 36.4644Z"
            fill="url(#paint9_linear_12392_56002)" mask="url(#path-15-inside-2_12392_56002)" />
        </g>
      </g>
    </g>
    <g filter="url(#filter3_d_12392_56002)">
      <path fill-rule="evenodd" clip-rule="evenodd"
        d="M162.212 68.312C152.692 58.78 134.115 63.0353 121.879 75.286C119.747 77.4205 117.461 80.1213 115.607 82.7027C109.963 80.9472 104.922 81.3964 101.374 84.9489C98.5366 87.7896 97.7045 91.7552 98.4137 96.1245L98.8454 98.7843C98.9782 99.6025 99.6189 100.244 100.436 100.377L103.093 100.809C107.279 101.49 113.671 105.366 119.437 111.139C125.203 116.912 129.074 123.312 129.755 127.504L130.186 130.164C130.319 130.982 130.96 131.623 131.777 131.756L134.434 132.189C138.798 132.899 142.758 132.065 145.595 129.225C149.144 125.672 149.592 120.625 147.839 114.974C150.417 113.117 153.115 110.829 155.247 108.694C167.482 96.4435 171.732 77.844 162.212 68.312ZM98.7354 109.729C100.401 108.061 103.1 108.061 104.766 109.729C106.431 111.396 106.431 114.099 104.766 115.766L100.678 119.859C99.0124 121.527 96.3125 121.527 94.6473 119.859C92.9821 118.192 92.9821 115.489 94.6473 113.822L98.7354 109.729ZM112.806 117.779C111.141 116.112 108.441 116.112 106.776 117.779L96.6166 127.95C94.9514 129.618 94.9514 132.321 96.6166 133.988C98.2818 135.655 100.982 135.655 102.647 133.988L112.806 123.816C114.471 122.149 114.471 119.446 112.806 117.779ZM120.846 125.829C119.181 124.162 116.481 124.162 114.816 125.829L110.728 129.922C109.063 131.589 109.063 134.292 110.728 135.96C112.393 137.627 115.093 137.627 116.758 135.96L120.846 131.867C122.511 130.199 122.511 127.496 120.846 125.829Z"
        fill="white" />
      <path
        d="M114.639 125.652C116.402 123.887 119.261 123.887 121.023 125.652C122.786 127.417 122.786 130.278 121.023 132.043L116.935 136.137C115.172 137.901 112.314 137.901 110.551 136.137C108.788 134.372 108.788 131.51 110.551 129.745L114.639 125.652ZM106.599 117.603C108.361 115.838 111.22 115.838 112.982 117.603C114.745 119.367 114.745 122.228 112.982 123.993L102.823 134.165C101.06 135.93 98.2022 135.93 96.4395 134.165C94.6768 132.4 94.6768 129.538 96.4395 127.773L106.599 117.603ZM143.017 63.3848C150.433 61.9711 157.552 63.2929 162.389 68.1357C167.225 72.9785 168.546 80.1055 167.134 87.5303C165.722 94.9564 161.574 102.713 155.424 108.871C153.322 110.975 150.673 113.225 148.129 115.07C149.836 120.701 149.376 125.793 145.772 129.401C142.862 132.315 138.811 133.154 134.394 132.436L131.737 132.003C130.814 131.853 130.09 131.128 129.939 130.204L129.508 127.544C129.175 125.495 128.056 122.879 126.291 120.047C124.528 117.219 122.131 114.19 119.261 111.315C116.39 108.441 113.365 106.041 110.54 104.276C107.711 102.509 105.099 101.389 103.053 101.056L100.396 100.624C99.4721 100.474 98.7486 99.7483 98.5986 98.8242L98.167 96.1641C97.4493 91.7418 98.2869 87.6864 101.197 84.7725C104.801 81.1648 109.886 80.7036 115.51 82.4121C117.353 79.8645 119.6 77.2137 121.702 75.1094C127.852 68.9519 135.599 64.7987 143.017 63.3848ZM98.5586 109.552C100.321 107.787 103.18 107.787 104.942 109.552C106.705 111.317 106.705 114.179 104.942 115.943L100.854 120.036C99.0917 121.801 96.2336 121.801 94.4707 120.036C92.708 118.271 92.7081 115.41 94.4707 113.646L98.5586 109.552Z"
        stroke="url(#paint10_linear_12392_56002)" stroke-width="0.5" stroke-linecap="round"
        style="mix-blend-mode:color-burn" />
    </g>
  </g>
  <g filter="url(#filter4_dd_12392_56002)">
    <rect x="47.3672" y="174" width="165" height="43" rx="8" fill="#FFA00F" />
    <rect x="47.6172" y="174.25" width="164.5" height="42.5" rx="7.75" stroke="url(#paint11_linear_12392_56002)"
      stroke-width="0.5" stroke-linecap="round" style="mix-blend-mode:darken" />
  </g>
  <rect x="47.3672" y="174" width="165" height="43" rx="8" fill="url(#paint12_linear_12392_56002)" fill-opacity="0.3"
    style="mix-blend-mode:overlay" />
  <rect x="47.3672" y="174" width="165" height="43" rx="8" fill="url(#paint13_radial_12392_56002)" fill-opacity="0.6"
    style="mix-blend-mode:overlay" />
  <g filter="url(#filter5_i_12392_56002)">
    <ellipse cx="56.8672" cy="195" rx="2.5" ry="3" fill="black" fill-opacity="0.24" style="mix-blend-mode:color-burn" />
    <ellipse cx="56.8672" cy="195" rx="2.5" ry="3" fill="black" fill-opacity="0.32" style="mix-blend-mode:darken" />
  </g>
  <g filter="url(#filter6_i_12392_56002)">
    <circle cx="201.367" cy="195" r="3" fill="black" fill-opacity="0.24" style="mix-blend-mode:color-burn" />
    <circle cx="201.367" cy="195" r="3" fill="black" fill-opacity="0.32" style="mix-blend-mode:darken" />
  </g>
  <g filter="url(#filter7_i_12392_56002)">
    <path
      d="M103.099 201V199.376H104.569V201H103.099ZM97.4155 201V199.376H102.497L101.223 200.482V198.13C101.223 197.467 101.153 196.954 101.013 196.59C100.883 196.226 100.659 195.969 100.341 195.82C100.033 195.671 99.6088 195.596 99.0675 195.596H97.9335V193.972H99.0675C99.9261 193.972 100.654 194.112 101.251 194.392C101.858 194.672 102.315 195.12 102.623 195.736C102.941 196.343 103.099 197.141 103.099 198.13V201H97.4155ZM104.569 201V199.376C104.625 199.376 104.672 199.395 104.709 199.432C104.747 199.469 104.775 199.525 104.793 199.6C104.812 199.675 104.826 199.763 104.835 199.866C104.845 199.959 104.849 200.067 104.849 200.188C104.849 200.309 104.845 200.421 104.835 200.524C104.826 200.627 104.812 200.715 104.793 200.79C104.775 200.855 104.747 200.907 104.709 200.944C104.672 200.981 104.625 201 104.569 201ZM104.566 201V199.376H107.884L106.792 200.286V193.972H108.654V201H104.566ZM104.566 201C104.51 201 104.468 200.981 104.44 200.944C104.403 200.907 104.375 200.855 104.356 200.79C104.328 200.715 104.31 200.627 104.3 200.524C104.291 200.421 104.286 200.309 104.286 200.188C104.286 200.02 104.296 199.88 104.314 199.768C104.333 199.647 104.366 199.553 104.412 199.488C104.45 199.413 104.501 199.376 104.566 199.376V201ZM105.07 203.982V202.386H106.876V203.982H105.07ZM107.618 203.982V202.386H109.424V203.982H107.618ZM115.924 201V199.376H117.394V201H115.924ZM110.24 201V199.376H115.322L114.048 200.482V198.13C114.048 197.467 113.978 196.954 113.838 196.59C113.707 196.226 113.483 195.969 113.166 195.82C112.858 195.671 112.433 195.596 111.892 195.596H110.758V193.972H111.892C112.75 193.972 113.478 194.112 114.076 194.392C114.682 194.672 115.14 195.12 115.448 195.736C115.765 196.343 115.924 197.141 115.924 198.13V201H110.24ZM117.394 201V199.376C117.45 199.376 117.496 199.395 117.534 199.432C117.571 199.469 117.599 199.525 117.618 199.6C117.636 199.675 117.65 199.763 117.66 199.866C117.669 199.959 117.674 200.067 117.674 200.188C117.674 200.309 117.669 200.421 117.66 200.524C117.65 200.627 117.636 200.715 117.618 200.79C117.599 200.855 117.571 200.907 117.534 200.944C117.496 200.981 117.45 201 117.394 201ZM117.391 201V199.376H123.411L122.781 199.894V197.304C122.781 196.744 122.603 196.319 122.249 196.03C121.903 195.741 121.353 195.596 120.597 195.596C120.382 195.596 120.088 195.615 119.715 195.652C119.341 195.68 118.935 195.727 118.497 195.792L118.315 194.308C118.716 194.215 119.122 194.135 119.533 194.07C119.953 194.005 120.363 193.972 120.765 193.972C121.53 193.972 122.202 194.107 122.781 194.378C123.359 194.639 123.812 195.017 124.139 195.512C124.475 196.007 124.643 196.604 124.643 197.304V201H117.391ZM117.391 201C117.335 201 117.293 200.981 117.265 200.944C117.227 200.907 117.199 200.855 117.181 200.79C117.153 200.715 117.134 200.627 117.125 200.524C117.115 200.421 117.111 200.309 117.111 200.188C117.111 200.02 117.12 199.88 117.139 199.768C117.157 199.647 117.19 199.553 117.237 199.488C117.274 199.413 117.325 199.376 117.391 199.376V201ZM120.093 203.982V202.386H121.969V203.982H120.093ZM136.863 201V199.376H138.347V201H136.863ZM129.429 205.648C129.345 205.144 129.266 204.654 129.191 204.178C129.126 203.702 129.093 203.282 129.093 202.918C129.093 202.19 129.233 201.56 129.513 201.028C129.793 200.505 130.19 200.099 130.703 199.81C131.217 199.521 131.823 199.376 132.523 199.376C132.663 199.376 132.836 199.376 133.041 199.376C133.256 199.376 133.503 199.376 133.783 199.376C134.063 199.376 134.376 199.376 134.721 199.376C135.067 199.376 135.445 199.376 135.855 199.376L135.001 200.188V197.542C135.001 197.057 134.945 196.674 134.833 196.394C134.731 196.105 134.539 195.899 134.259 195.778C133.989 195.657 133.592 195.596 133.069 195.596C132.715 195.596 132.351 195.624 131.977 195.68C131.613 195.727 131.324 195.792 131.109 195.876L132.285 194.784C132.22 195.008 132.159 195.288 132.103 195.624C132.057 195.96 132.019 196.31 131.991 196.674C131.963 197.029 131.949 197.365 131.949 197.682C131.949 198.027 131.963 198.377 131.991 198.732C132.019 199.077 132.052 199.385 132.089 199.656C132.136 199.927 132.173 200.113 132.201 200.216L130.423 200.706C130.377 200.575 130.325 200.361 130.269 200.062C130.223 199.763 130.176 199.413 130.129 199.012C130.092 198.601 130.073 198.167 130.073 197.71C130.073 197.253 130.092 196.809 130.129 196.38C130.176 195.941 130.232 195.549 130.297 195.204C130.363 194.849 130.423 194.565 130.479 194.35C130.722 194.257 131.081 194.173 131.557 194.098C132.033 194.014 132.547 193.972 133.097 193.972C133.704 193.972 134.222 194.033 134.651 194.154C135.09 194.266 135.449 194.429 135.729 194.644C136.019 194.859 136.247 195.115 136.415 195.414C136.583 195.703 136.7 196.03 136.765 196.394C136.831 196.758 136.863 197.145 136.863 197.556V201C136.453 201 136.023 201 135.575 201C135.137 201 134.707 201 134.287 201C133.877 201 133.513 201 133.195 201C132.887 201 132.663 201 132.523 201C132.374 201 132.211 201.019 132.033 201.056C131.856 201.103 131.683 201.187 131.515 201.308C131.357 201.439 131.226 201.63 131.123 201.882C131.021 202.143 130.969 202.489 130.969 202.918C130.969 203.254 130.997 203.646 131.053 204.094C131.119 204.542 131.193 205.06 131.277 205.648H129.429ZM138.347 201V199.376C138.394 199.376 138.436 199.395 138.473 199.432C138.511 199.469 138.539 199.525 138.557 199.6C138.576 199.675 138.59 199.763 138.599 199.866C138.618 199.959 138.627 200.067 138.627 200.188C138.627 200.309 138.618 200.421 138.599 200.524C138.59 200.627 138.576 200.715 138.557 200.79C138.539 200.855 138.511 200.907 138.473 200.944C138.436 200.981 138.394 201 138.347 201ZM141.808 201V199.376H143.278V201H141.808ZM138.35 201C138.294 201 138.252 200.981 138.224 200.944C138.186 200.907 138.158 200.855 138.14 200.79C138.112 200.715 138.093 200.627 138.084 200.524C138.074 200.421 138.07 200.309 138.07 200.188C138.07 200.02 138.079 199.88 138.098 199.768C138.116 199.647 138.149 199.553 138.196 199.488C138.233 199.413 138.284 199.376 138.35 199.376V201ZM139.932 201V191.102H141.808V201H139.932ZM138.35 201V199.376H139.932V201H138.35ZM143.278 201V199.376C143.334 199.376 143.38 199.395 143.418 199.432C143.455 199.469 143.483 199.525 143.502 199.6C143.52 199.675 143.534 199.763 143.544 199.866C143.553 199.959 143.558 200.067 143.558 200.188C143.558 200.309 143.553 200.421 143.544 200.524C143.534 200.627 143.52 200.715 143.502 200.79C143.483 200.855 143.455 200.907 143.418 200.944C143.38 200.981 143.334 201 143.278 201ZM143.271 201V199.376H146.239C146.641 199.376 147.028 199.301 147.401 199.152C147.775 198.993 148.115 198.788 148.423 198.536C148.741 198.275 149.016 197.99 149.249 197.682C149.492 197.365 149.679 197.043 149.809 196.716C149.949 196.389 150.019 196.081 150.019 195.792V194.896L150.915 196.38C150.43 196.119 149.935 195.923 149.431 195.792C148.927 195.661 148.447 195.596 147.989 195.596C147.541 195.596 147.061 195.661 146.547 195.792C146.043 195.923 145.553 196.119 145.077 196.38L145.973 194.896V195.792C145.973 196.081 146.039 196.389 146.169 196.716C146.309 197.043 146.496 197.365 146.729 197.682C146.963 197.99 147.238 198.275 147.555 198.536C147.873 198.788 148.218 198.993 148.591 199.152C148.965 199.301 149.347 199.376 149.739 199.376H152.623V201H150.327C149.599 201 148.918 200.883 148.283 200.65C147.649 200.417 147.075 200.109 146.561 199.726C146.048 199.334 145.605 198.909 145.231 198.452C144.867 197.985 144.587 197.523 144.391 197.066C144.195 196.599 144.097 196.175 144.097 195.792V194.994C144.499 194.77 144.923 194.583 145.371 194.434C145.829 194.285 146.281 194.173 146.729 194.098C147.187 194.014 147.607 193.972 147.989 193.972C148.381 193.972 148.801 194.014 149.249 194.098C149.697 194.173 150.145 194.285 150.593 194.434C151.051 194.583 151.48 194.77 151.881 194.994V195.792C151.881 196.175 151.783 196.599 151.587 197.066C151.391 197.523 151.107 197.985 150.733 198.452C150.369 198.909 149.931 199.334 149.417 199.726C148.904 200.109 148.33 200.417 147.695 200.65C147.061 200.883 146.379 201 145.651 201H143.271ZM143.271 201C143.215 201 143.173 200.981 143.145 200.944C143.108 200.907 143.08 200.855 143.061 200.79C143.033 200.715 143.015 200.627 143.005 200.524C142.996 200.421 142.991 200.309 142.991 200.188C142.991 200.02 143.001 199.88 143.019 199.768C143.038 199.647 143.071 199.553 143.117 199.488C143.155 199.413 143.206 199.376 143.271 199.376V201ZM152.623 201V199.376C152.679 199.376 152.726 199.395 152.763 199.432C152.801 199.469 152.829 199.525 152.847 199.6C152.866 199.675 152.88 199.763 152.889 199.866C152.899 199.959 152.903 200.067 152.903 200.188C152.903 200.309 152.899 200.421 152.889 200.524C152.88 200.627 152.866 200.715 152.847 200.79C152.829 200.855 152.801 200.907 152.763 200.944C152.726 200.981 152.679 201 152.623 201ZM152.623 201V199.376H159.889L159.035 200.104V197.528C159.035 197.024 158.979 196.632 158.867 196.352C158.755 196.063 158.559 195.862 158.279 195.75C158.008 195.629 157.63 195.568 157.145 195.568C156.762 195.568 156.384 195.596 156.011 195.652C155.647 195.699 155.362 195.764 155.157 195.848L156.319 194.756C156.263 194.971 156.207 195.241 156.151 195.568C156.104 195.895 156.062 196.245 156.025 196.618C155.988 196.982 155.969 197.341 155.969 197.696C155.969 198.023 155.983 198.363 156.011 198.718C156.048 199.073 156.086 199.385 156.123 199.656C156.17 199.927 156.207 200.113 156.235 200.216L154.457 200.706C154.42 200.575 154.373 200.361 154.317 200.062C154.261 199.763 154.21 199.409 154.163 198.998C154.126 198.587 154.107 198.153 154.107 197.696C154.107 197.229 154.13 196.781 154.177 196.352C154.224 195.913 154.275 195.521 154.331 195.176C154.396 194.821 154.457 194.537 154.513 194.322C154.737 194.238 155.087 194.154 155.563 194.07C156.039 193.986 156.566 193.944 157.145 193.944C157.985 193.944 158.68 194.061 159.231 194.294C159.791 194.527 160.206 194.905 160.477 195.428C160.757 195.951 160.897 196.655 160.897 197.542V201H152.623ZM152.623 201C152.567 201 152.525 200.981 152.497 200.944C152.46 200.907 152.432 200.855 152.413 200.79C152.385 200.715 152.366 200.627 152.357 200.524C152.348 200.421 152.343 200.309 152.343 200.188C152.343 200.02 152.352 199.88 152.371 199.768C152.39 199.647 152.422 199.553 152.469 199.488C152.506 199.413 152.558 199.376 152.623 199.376V201Z"
      fill="black" fill-opacity="0.24" style="mix-blend-mode:color-burn" />
    <path
      d="M103.099 201V199.376H104.569V201H103.099ZM97.4155 201V199.376H102.497L101.223 200.482V198.13C101.223 197.467 101.153 196.954 101.013 196.59C100.883 196.226 100.659 195.969 100.341 195.82C100.033 195.671 99.6088 195.596 99.0675 195.596H97.9335V193.972H99.0675C99.9261 193.972 100.654 194.112 101.251 194.392C101.858 194.672 102.315 195.12 102.623 195.736C102.941 196.343 103.099 197.141 103.099 198.13V201H97.4155ZM104.569 201V199.376C104.625 199.376 104.672 199.395 104.709 199.432C104.747 199.469 104.775 199.525 104.793 199.6C104.812 199.675 104.826 199.763 104.835 199.866C104.845 199.959 104.849 200.067 104.849 200.188C104.849 200.309 104.845 200.421 104.835 200.524C104.826 200.627 104.812 200.715 104.793 200.79C104.775 200.855 104.747 200.907 104.709 200.944C104.672 200.981 104.625 201 104.569 201ZM104.566 201V199.376H107.884L106.792 200.286V193.972H108.654V201H104.566ZM104.566 201C104.51 201 104.468 200.981 104.44 200.944C104.403 200.907 104.375 200.855 104.356 200.79C104.328 200.715 104.31 200.627 104.3 200.524C104.291 200.421 104.286 200.309 104.286 200.188C104.286 200.02 104.296 199.88 104.314 199.768C104.333 199.647 104.366 199.553 104.412 199.488C104.45 199.413 104.501 199.376 104.566 199.376V201ZM105.07 203.982V202.386H106.876V203.982H105.07ZM107.618 203.982V202.386H109.424V203.982H107.618ZM115.924 201V199.376H117.394V201H115.924ZM110.24 201V199.376H115.322L114.048 200.482V198.13C114.048 197.467 113.978 196.954 113.838 196.59C113.707 196.226 113.483 195.969 113.166 195.82C112.858 195.671 112.433 195.596 111.892 195.596H110.758V193.972H111.892C112.75 193.972 113.478 194.112 114.076 194.392C114.682 194.672 115.14 195.12 115.448 195.736C115.765 196.343 115.924 197.141 115.924 198.13V201H110.24ZM117.394 201V199.376C117.45 199.376 117.496 199.395 117.534 199.432C117.571 199.469 117.599 199.525 117.618 199.6C117.636 199.675 117.65 199.763 117.66 199.866C117.669 199.959 117.674 200.067 117.674 200.188C117.674 200.309 117.669 200.421 117.66 200.524C117.65 200.627 117.636 200.715 117.618 200.79C117.599 200.855 117.571 200.907 117.534 200.944C117.496 200.981 117.45 201 117.394 201ZM117.391 201V199.376H123.411L122.781 199.894V197.304C122.781 196.744 122.603 196.319 122.249 196.03C121.903 195.741 121.353 195.596 120.597 195.596C120.382 195.596 120.088 195.615 119.715 195.652C119.341 195.68 118.935 195.727 118.497 195.792L118.315 194.308C118.716 194.215 119.122 194.135 119.533 194.07C119.953 194.005 120.363 193.972 120.765 193.972C121.53 193.972 122.202 194.107 122.781 194.378C123.359 194.639 123.812 195.017 124.139 195.512C124.475 196.007 124.643 196.604 124.643 197.304V201H117.391ZM117.391 201C117.335 201 117.293 200.981 117.265 200.944C117.227 200.907 117.199 200.855 117.181 200.79C117.153 200.715 117.134 200.627 117.125 200.524C117.115 200.421 117.111 200.309 117.111 200.188C117.111 200.02 117.12 199.88 117.139 199.768C117.157 199.647 117.19 199.553 117.237 199.488C117.274 199.413 117.325 199.376 117.391 199.376V201ZM120.093 203.982V202.386H121.969V203.982H120.093ZM136.863 201V199.376H138.347V201H136.863ZM129.429 205.648C129.345 205.144 129.266 204.654 129.191 204.178C129.126 203.702 129.093 203.282 129.093 202.918C129.093 202.19 129.233 201.56 129.513 201.028C129.793 200.505 130.19 200.099 130.703 199.81C131.217 199.521 131.823 199.376 132.523 199.376C132.663 199.376 132.836 199.376 133.041 199.376C133.256 199.376 133.503 199.376 133.783 199.376C134.063 199.376 134.376 199.376 134.721 199.376C135.067 199.376 135.445 199.376 135.855 199.376L135.001 200.188V197.542C135.001 197.057 134.945 196.674 134.833 196.394C134.731 196.105 134.539 195.899 134.259 195.778C133.989 195.657 133.592 195.596 133.069 195.596C132.715 195.596 132.351 195.624 131.977 195.68C131.613 195.727 131.324 195.792 131.109 195.876L132.285 194.784C132.22 195.008 132.159 195.288 132.103 195.624C132.057 195.96 132.019 196.31 131.991 196.674C131.963 197.029 131.949 197.365 131.949 197.682C131.949 198.027 131.963 198.377 131.991 198.732C132.019 199.077 132.052 199.385 132.089 199.656C132.136 199.927 132.173 200.113 132.201 200.216L130.423 200.706C130.377 200.575 130.325 200.361 130.269 200.062C130.223 199.763 130.176 199.413 130.129 199.012C130.092 198.601 130.073 198.167 130.073 197.71C130.073 197.253 130.092 196.809 130.129 196.38C130.176 195.941 130.232 195.549 130.297 195.204C130.363 194.849 130.423 194.565 130.479 194.35C130.722 194.257 131.081 194.173 131.557 194.098C132.033 194.014 132.547 193.972 133.097 193.972C133.704 193.972 134.222 194.033 134.651 194.154C135.09 194.266 135.449 194.429 135.729 194.644C136.019 194.859 136.247 195.115 136.415 195.414C136.583 195.703 136.7 196.03 136.765 196.394C136.831 196.758 136.863 197.145 136.863 197.556V201C136.453 201 136.023 201 135.575 201C135.137 201 134.707 201 134.287 201C133.877 201 133.513 201 133.195 201C132.887 201 132.663 201 132.523 201C132.374 201 132.211 201.019 132.033 201.056C131.856 201.103 131.683 201.187 131.515 201.308C131.357 201.439 131.226 201.63 131.123 201.882C131.021 202.143 130.969 202.489 130.969 202.918C130.969 203.254 130.997 203.646 131.053 204.094C131.119 204.542 131.193 205.06 131.277 205.648H129.429ZM138.347 201V199.376C138.394 199.376 138.436 199.395 138.473 199.432C138.511 199.469 138.539 199.525 138.557 199.6C138.576 199.675 138.59 199.763 138.599 199.866C138.618 199.959 138.627 200.067 138.627 200.188C138.627 200.309 138.618 200.421 138.599 200.524C138.59 200.627 138.576 200.715 138.557 200.79C138.539 200.855 138.511 200.907 138.473 200.944C138.436 200.981 138.394 201 138.347 201ZM141.808 201V199.376H143.278V201H141.808ZM138.35 201C138.294 201 138.252 200.981 138.224 200.944C138.186 200.907 138.158 200.855 138.14 200.79C138.112 200.715 138.093 200.627 138.084 200.524C138.074 200.421 138.07 200.309 138.07 200.188C138.07 200.02 138.079 199.88 138.098 199.768C138.116 199.647 138.149 199.553 138.196 199.488C138.233 199.413 138.284 199.376 138.35 199.376V201ZM139.932 201V191.102H141.808V201H139.932ZM138.35 201V199.376H139.932V201H138.35ZM143.278 201V199.376C143.334 199.376 143.38 199.395 143.418 199.432C143.455 199.469 143.483 199.525 143.502 199.6C143.52 199.675 143.534 199.763 143.544 199.866C143.553 199.959 143.558 200.067 143.558 200.188C143.558 200.309 143.553 200.421 143.544 200.524C143.534 200.627 143.52 200.715 143.502 200.79C143.483 200.855 143.455 200.907 143.418 200.944C143.38 200.981 143.334 201 143.278 201ZM143.271 201V199.376H146.239C146.641 199.376 147.028 199.301 147.401 199.152C147.775 198.993 148.115 198.788 148.423 198.536C148.741 198.275 149.016 197.99 149.249 197.682C149.492 197.365 149.679 197.043 149.809 196.716C149.949 196.389 150.019 196.081 150.019 195.792V194.896L150.915 196.38C150.43 196.119 149.935 195.923 149.431 195.792C148.927 195.661 148.447 195.596 147.989 195.596C147.541 195.596 147.061 195.661 146.547 195.792C146.043 195.923 145.553 196.119 145.077 196.38L145.973 194.896V195.792C145.973 196.081 146.039 196.389 146.169 196.716C146.309 197.043 146.496 197.365 146.729 197.682C146.963 197.99 147.238 198.275 147.555 198.536C147.873 198.788 148.218 198.993 148.591 199.152C148.965 199.301 149.347 199.376 149.739 199.376H152.623V201H150.327C149.599 201 148.918 200.883 148.283 200.65C147.649 200.417 147.075 200.109 146.561 199.726C146.048 199.334 145.605 198.909 145.231 198.452C144.867 197.985 144.587 197.523 144.391 197.066C144.195 196.599 144.097 196.175 144.097 195.792V194.994C144.499 194.77 144.923 194.583 145.371 194.434C145.829 194.285 146.281 194.173 146.729 194.098C147.187 194.014 147.607 193.972 147.989 193.972C148.381 193.972 148.801 194.014 149.249 194.098C149.697 194.173 150.145 194.285 150.593 194.434C151.051 194.583 151.48 194.77 151.881 194.994V195.792C151.881 196.175 151.783 196.599 151.587 197.066C151.391 197.523 151.107 197.985 150.733 198.452C150.369 198.909 149.931 199.334 149.417 199.726C148.904 200.109 148.33 200.417 147.695 200.65C147.061 200.883 146.379 201 145.651 201H143.271ZM143.271 201C143.215 201 143.173 200.981 143.145 200.944C143.108 200.907 143.08 200.855 143.061 200.79C143.033 200.715 143.015 200.627 143.005 200.524C142.996 200.421 142.991 200.309 142.991 200.188C142.991 200.02 143.001 199.88 143.019 199.768C143.038 199.647 143.071 199.553 143.117 199.488C143.155 199.413 143.206 199.376 143.271 199.376V201ZM152.623 201V199.376C152.679 199.376 152.726 199.395 152.763 199.432C152.801 199.469 152.829 199.525 152.847 199.6C152.866 199.675 152.88 199.763 152.889 199.866C152.899 199.959 152.903 200.067 152.903 200.188C152.903 200.309 152.899 200.421 152.889 200.524C152.88 200.627 152.866 200.715 152.847 200.79C152.829 200.855 152.801 200.907 152.763 200.944C152.726 200.981 152.679 201 152.623 201ZM152.623 201V199.376H159.889L159.035 200.104V197.528C159.035 197.024 158.979 196.632 158.867 196.352C158.755 196.063 158.559 195.862 158.279 195.75C158.008 195.629 157.63 195.568 157.145 195.568C156.762 195.568 156.384 195.596 156.011 195.652C155.647 195.699 155.362 195.764 155.157 195.848L156.319 194.756C156.263 194.971 156.207 195.241 156.151 195.568C156.104 195.895 156.062 196.245 156.025 196.618C155.988 196.982 155.969 197.341 155.969 197.696C155.969 198.023 155.983 198.363 156.011 198.718C156.048 199.073 156.086 199.385 156.123 199.656C156.17 199.927 156.207 200.113 156.235 200.216L154.457 200.706C154.42 200.575 154.373 200.361 154.317 200.062C154.261 199.763 154.21 199.409 154.163 198.998C154.126 198.587 154.107 198.153 154.107 197.696C154.107 197.229 154.13 196.781 154.177 196.352C154.224 195.913 154.275 195.521 154.331 195.176C154.396 194.821 154.457 194.537 154.513 194.322C154.737 194.238 155.087 194.154 155.563 194.07C156.039 193.986 156.566 193.944 157.145 193.944C157.985 193.944 158.68 194.061 159.231 194.294C159.791 194.527 160.206 194.905 160.477 195.428C160.757 195.951 160.897 196.655 160.897 197.542V201H152.623ZM152.623 201C152.567 201 152.525 200.981 152.497 200.944C152.46 200.907 152.432 200.855 152.413 200.79C152.385 200.715 152.366 200.627 152.357 200.524C152.348 200.421 152.343 200.309 152.343 200.188C152.343 200.02 152.352 199.88 152.371 199.768C152.39 199.647 152.422 199.553 152.469 199.488C152.506 199.413 152.558 199.376 152.623 199.376V201Z"
      fill="black" fill-opacity="0.32" style="mix-blend-mode:darken" />
  </g>
  <defs>
    <filter id="filter0_dd_12392_56002" x="16" y="173.67" width="228.377" height="69.3301" filterUnits="userSpaceOnUse"
      color-interpolation-filters="sRGB">
      <feFlood flood-opacity="0" result="BackgroundImageFix" />
      <feColorMatrix in="SourceAlpha" type="matrix" values="0 0 0 0 0 0 0 0 0 0 0 0 0 0 0 0 0 0 127 0"
        result="hardAlpha" />
      <feOffset dy="4" />
      <feGaussianBlur stdDeviation="6" />
      <feColorMatrix type="matrix" values="0 0 0 0 0 0 0 0 0 0 0 0 0 0 0 0 0 0 0.16 0" />
      <feBlend mode="normal" in2="BackgroundImageFix" result="effect1_dropShadow_12392_56002" />
      <feColorMatrix in="SourceAlpha" type="matrix" values="0 0 0 0 0 0 0 0 0 0 0 0 0 0 0 0 0 0 127 0"
        result="hardAlpha" />
      <feOffset dy="2" />
      <feGaussianBlur stdDeviation="2" />
      <feColorMatrix type="matrix" values="0 0 0 0 0 0 0 0 0 0 0 0 0 0 0 0 0 0 0.24 0" />
      <feBlend mode="normal" in2="effect1_dropShadow_12392_56002" result="effect2_dropShadow_12392_56002" />
      <feBlend mode="normal" in="SourceGraphic" in2="effect2_dropShadow_12392_56002" result="shape" />
    </filter>
    <filter id="filter1_dddd_12392_56002" x="0.0664062" y="0.140625" width="258.945" height="339.082"
      filterUnits="userSpaceOnUse" color-interpolation-filters="sRGB">
      <feFlood flood-opacity="0" result="BackgroundImageFix" />
      <feColorMatrix in="SourceAlpha" type="matrix" values="0 0 0 0 0 0 0 0 0 0 0 0 0 0 0 0 0 0 127 0"
        result="hardAlpha" />
      <feOffset dy="5" />
      <feGaussianBlur stdDeviation="5.5" />
      <feColorMatrix type="matrix" values="0 0 0 0 0 0 0 0 0 0 0 0 0 0 0 0 0 0 0.24 0" />
      <feBlend mode="normal" in2="BackgroundImageFix" result="effect1_dropShadow_12392_56002" />
      <feColorMatrix in="SourceAlpha" type="matrix" values="0 0 0 0 0 0 0 0 0 0 0 0 0 0 0 0 0 0 127 0"
        result="hardAlpha" />
      <feOffset dy="21" />
      <feGaussianBlur stdDeviation="10.5" />
      <feColorMatrix type="matrix" values="0 0 0 0 0 0 0 0 0 0 0 0 0 0 0 0 0 0 0.21 0" />
      <feBlend mode="normal" in2="effect1_dropShadow_12392_56002" result="effect2_dropShadow_12392_56002" />
      <feColorMatrix in="SourceAlpha" type="matrix" values="0 0 0 0 0 0 0 0 0 0 0 0 0 0 0 0 0 0 127 0"
        result="hardAlpha" />
      <feOffset dy="46" />
      <feGaussianBlur stdDeviation="14" />
      <feColorMatrix type="matrix" values="0 0 0 0 0 0 0 0 0 0 0 0 0 0 0 0 0 0 0.12 0" />
      <feBlend mode="normal" in2="effect2_dropShadow_12392_56002" result="effect3_dropShadow_12392_56002" />
      <feColorMatrix in="SourceAlpha" type="matrix" values="0 0 0 0 0 0 0 0 0 0 0 0 0 0 0 0 0 0 127 0"
        result="hardAlpha" />
      <feOffset dy="82" />
      <feGaussianBlur stdDeviation="16.5" />
      <feColorMatrix type="matrix" values="0 0 0 0 0 0 0 0 0 0 0 0 0 0 0 0 0 0 0.04 0" />
      <feBlend mode="normal" in2="effect3_dropShadow_12392_56002" result="effect4_dropShadow_12392_56002" />
      <feBlend mode="normal" in="SourceGraphic" in2="effect4_dropShadow_12392_56002" result="shape" />
    </filter>
    <filter id="filter2_d_12392_56002" x="25.0625" y="0.140625" width="208.945" height="234.084"
      filterUnits="userSpaceOnUse" color-interpolation-filters="sRGB">
      <feFlood flood-opacity="0" result="BackgroundImageFix" />
      <feColorMatrix in="SourceAlpha" type="matrix" values="0 0 0 0 0 0 0 0 0 0 0 0 0 0 0 0 0 0 127 0"
        result="hardAlpha" />
      <feOffset dy="2" />
      <feGaussianBlur stdDeviation="4" />
      <feColorMatrix type="matrix" values="0 0 0 0 0 0 0 0 0 0 0 0 0 0 0 0 0 0 0.1 0" />
      <feBlend mode="color-burn" in2="BackgroundImageFix" result="effect1_dropShadow_12392_56002" />
      <feBlend mode="normal" in="SourceGraphic" in2="effect1_dropShadow_12392_56002" result="shape" />
    </filter>
    <filter id="filter3_d_12392_56002" x="80.8984" y="52.5996" width="99.0195" height="99.1113"
      filterUnits="userSpaceOnUse" color-interpolation-filters="sRGB">
      <feFlood flood-opacity="0" result="BackgroundImageFix" />
      <feColorMatrix in="SourceAlpha" type="matrix" values="0 0 0 0 0 0 0 0 0 0 0 0 0 0 0 0 0 0 127 0"
        result="hardAlpha" />
      <feOffset dy="2" />
      <feGaussianBlur stdDeviation="6" />
      <feColorMatrix type="matrix" values="0 0 0 0 0 0 0 0 0 0 0 0 0 0 0 0 0 0 0.12 0" />
      <feBlend mode="plus-darker" in2="BackgroundImageFix" result="effect1_dropShadow_12392_56002" />
      <feBlend mode="normal" in="SourceGraphic" in2="effect1_dropShadow_12392_56002" result="shape" />
    </filter>
    <filter id="filter4_dd_12392_56002" x="35.3672" y="166" width="189" height="67" filterUnits="userSpaceOnUse"
      color-interpolation-filters="sRGB">
      <feFlood flood-opacity="0" result="BackgroundImageFix" />
      <feColorMatrix in="SourceAlpha" type="matrix" values="0 0 0 0 0 0 0 0 0 0 0 0 0 0 0 0 0 0 127 0"
        result="hardAlpha" />
      <feOffset dy="4" />
      <feGaussianBlur stdDeviation="6" />
      <feColorMatrix type="matrix" values="0 0 0 0 0 0 0 0 0 0 0 0 0 0 0 0 0 0 0.16 0" />
      <feBlend mode="normal" in2="BackgroundImageFix" result="effect1_dropShadow_12392_56002" />
      <feColorMatrix in="SourceAlpha" type="matrix" values="0 0 0 0 0 0 0 0 0 0 0 0 0 0 0 0 0 0 127 0"
        result="hardAlpha" />
      <feOffset dy="2" />
      <feGaussianBlur stdDeviation="2" />
      <feColorMatrix type="matrix" values="0 0 0 0 0 0 0 0 0 0 0 0 0 0 0 0 0 0 0.24 0" />
      <feBlend mode="normal" in2="effect1_dropShadow_12392_56002" result="effect2_dropShadow_12392_56002" />
      <feBlend mode="normal" in="SourceGraphic" in2="effect2_dropShadow_12392_56002" result="shape" />
    </filter>
    <filter id="filter5_i_12392_56002" x="54.3672" y="192" width="5" height="7" filterUnits="userSpaceOnUse"
      color-interpolation-filters="sRGB">
      <feFlood flood-opacity="0" result="BackgroundImageFix" />
      <feBlend mode="normal" in="SourceGraphic" in2="BackgroundImageFix" result="shape" />
      <feColorMatrix in="SourceAlpha" type="matrix" values="0 0 0 0 0 0 0 0 0 0 0 0 0 0 0 0 0 0 127 0"
        result="hardAlpha" />
      <feOffset dy="1" />
      <feGaussianBlur stdDeviation="1" />
      <feComposite in2="hardAlpha" operator="arithmetic" k2="-1" k3="1" />
      <feColorMatrix type="matrix" values="0 0 0 0 0 0 0 0 0 0 0 0 0 0 0 0 0 0 0.24 0" />
      <feBlend mode="darken" in2="shape" result="effect1_innerShadow_12392_56002" />
    </filter>
    <filter id="filter6_i_12392_56002" x="198.367" y="192" width="6" height="7" filterUnits="userSpaceOnUse"
      color-interpolation-filters="sRGB">
      <feFlood flood-opacity="0" result="BackgroundImageFix" />
      <feBlend mode="normal" in="SourceGraphic" in2="BackgroundImageFix" result="shape" />
      <feColorMatrix in="SourceAlpha" type="matrix" values="0 0 0 0 0 0 0 0 0 0 0 0 0 0 0 0 0 0 127 0"
        result="hardAlpha" />
      <feOffset dy="1" />
      <feGaussianBlur stdDeviation="1" />
      <feComposite in2="hardAlpha" operator="arithmetic" k2="-1" k3="1" />
      <feColorMatrix type="matrix" values="0 0 0 0 0 0 0 0 0 0 0 0 0 0 0 0 0 0 0.24 0" />
      <feBlend mode="darken" in2="shape" result="effect1_innerShadow_12392_56002" />
    </filter>
    <filter id="filter7_i_12392_56002" x="97.416" y="191.102" width="63.4805" height="15.5469"
      filterUnits="userSpaceOnUse" color-interpolation-filters="sRGB">
      <feFlood flood-opacity="0" result="BackgroundImageFix" />
      <feBlend mode="normal" in="SourceGraphic" in2="BackgroundImageFix" result="shape" />
      <feColorMatrix in="SourceAlpha" type="matrix" values="0 0 0 0 0 0 0 0 0 0 0 0 0 0 0 0 0 0 127 0"
        result="hardAlpha" />
      <feOffset dy="1" />
      <feGaussianBlur stdDeviation="1" />
      <feComposite in2="hardAlpha" operator="arithmetic" k2="-1" k3="1" />
      <feColorMatrix type="matrix" values="0 0 0 0 0 0 0 0 0 0 0 0 0 0 0 0 0 0 0.24 0" />
      <feBlend mode="darken" in2="shape" result="effect1_innerShadow_12392_56002" />
    </filter>
    <linearGradient id="paint0_linear_12392_56002" x1="130.188" y1="181.67" x2="130.188" y2="227"
      gradientUnits="userSpaceOnUse">
      <stop stop-opacity="0" />
      <stop offset="1" stop-opacity="0.16" />
    </linearGradient>
    <linearGradient id="paint1_linear_12392_56002" x1="130.188" y1="159.005" x2="130.188" y2="227"
      gradientUnits="userSpaceOnUse">
      <stop stop-color="white" />
      <stop offset="1" stop-color="white" stop-opacity="0" />
    </linearGradient>
    <radialGradient id="paint2_radial_12392_56002" cx="0" cy="0" r="1" gradientUnits="userSpaceOnUse"
      gradientTransform="translate(130.188 181.67) rotate(90) scale(45.3304 190.117)">
      <stop stop-color="white" />
      <stop offset="1" stop-color="white" stop-opacity="0" />
    </radialGradient>
    <linearGradient id="paint3_linear_12392_56002" x1="129.414" y1="1.01779" x2="129.414" y2="225.486"
      gradientUnits="userSpaceOnUse">
      <stop stop-color="white" />
      <stop offset="1" stop-color="white" stop-opacity="0" />
    </linearGradient>
    <radialGradient id="paint4_radial_12392_56002" cx="0" cy="0" r="1" gradientUnits="userSpaceOnUse"
      gradientTransform="translate(129.414 65.4926) rotate(90) scale(148.053 112.193)">
      <stop stop-color="white" />
      <stop offset="1" stop-color="white" stop-opacity="0" />
    </radialGradient>
    <linearGradient id="paint5_linear_12392_56002" x1="225.432" y1="10.1428" x2="225.432" y2="224.362"
      gradientUnits="userSpaceOnUse">
      <stop stop-color="#49F0BC" />
      <stop offset="1" stop-color="#29DCCC" />
    </linearGradient>
    <linearGradient id="paint6_linear_12392_56002" x1="128.371" y1="1.01779" x2="128.371" y2="225.486"
      gradientUnits="userSpaceOnUse">
      <stop stop-color="white" />
      <stop offset="1" stop-color="white" stop-opacity="0" />
    </linearGradient>
    <radialGradient id="paint7_radial_12392_56002" cx="0" cy="0" r="1" gradientUnits="userSpaceOnUse"
      gradientTransform="translate(128.371 65.4926) rotate(90) scale(148.053 112.193)">
      <stop stop-color="white" />
      <stop offset="1" stop-color="white" stop-opacity="0" />
    </radialGradient>
    <linearGradient id="paint8_linear_12392_56002" x1="-16.5117" y1="-32.0937" x2="-16.5117" y2="260.112"
      gradientUnits="userSpaceOnUse">
      <stop stop-color="white" />
      <stop offset="1" stop-color="white" stop-opacity="0.01" />
    </linearGradient>
    <linearGradient id="paint9_linear_12392_56002" x1="129.535" y1="6.14062" x2="129.535" y2="224.224"
      gradientUnits="userSpaceOnUse">
      <stop stop-color="white" />
      <stop offset="1" stop-color="#999999" />
    </linearGradient>
    <linearGradient id="paint10_linear_12392_56002" x1="130.408" y1="63.0996" x2="130.408" y2="137.21"
      gradientUnits="userSpaceOnUse">
      <stop stop-color="#DFDFDF" />
      <stop offset="1" stop-color="#A9A9A9" />
    </linearGradient>
    <linearGradient id="paint11_linear_12392_56002" x1="129.867" y1="174" x2="129.867" y2="217"
      gradientUnits="userSpaceOnUse">
      <stop stop-opacity="0" />
      <stop offset="1" stop-opacity="0.16" />
    </linearGradient>
    <linearGradient id="paint12_linear_12392_56002" x1="129.867" y1="174" x2="129.867" y2="217"
      gradientUnits="userSpaceOnUse">
      <stop stop-color="white" />
      <stop offset="1" stop-color="white" stop-opacity="0" />
    </linearGradient>
    <radialGradient id="paint13_radial_12392_56002" cx="0" cy="0" r="1" gradientUnits="userSpaceOnUse"
      gradientTransform="translate(129.867 181.504) rotate(90) scale(35.4964 82.5)">
      <stop stop-color="white" />
      <stop offset="1" stop-color="white" stop-opacity="0" />
    </radialGradient>
  </defs>
</svg>