<svg width="168" height="168" viewBox="0 0 168 168" fill="none" xmlns="http://www.w3.org/2000/svg">
<path opacity="0.28" d="M84 168C130.392 168 168 130.392 168 84C168 37.6081 130.392 0 84 0C37.6081 0 0 37.6081 0 84C0 130.392 37.6081 168 84 168Z" fill="#DFEAFC"/>
<path d="M145.955 135.565L118.847 131.518C117.983 131.389 117.387 130.583 117.516 129.719L123.153 91.9546C123.282 91.0901 124.088 90.4939 124.952 90.623L152.06 94.6697C152.924 94.7988 153.52 95.6043 153.391 96.4687L147.754 134.233C147.624 135.097 146.819 135.694 145.955 135.565Z" fill="#2C5BF1"/>
<path d="M150.905 96.663L125.471 92.8672L120.004 129.498L145.438 133.294L150.905 96.663Z" fill="white"/>
<path opacity="0.55" d="M145.464 133.112L145.435 133.307L120.002 129.51L125.47 92.8789L135.269 94.3415C131.924 97.7341 129.583 102.181 128.826 107.253C127.077 118.972 134.369 129.949 145.464 133.112Z" fill="#F2F2F2"/>
<path opacity="0.22" d="M132.574 103.73L146.398 105.794C146.616 105.826 146.819 105.676 146.851 105.459C146.883 105.241 146.733 105.038 146.516 105.006L132.692 102.942C132.474 102.91 132.271 103.059 132.239 103.277C132.206 103.495 132.356 103.697 132.574 103.73Z" fill="#437DFA"/>
<path opacity="0.22" d="M132.258 105.847L146.082 107.911C146.299 107.943 146.502 107.793 146.535 107.576C146.567 107.358 146.417 107.155 146.199 107.123L132.375 105.059C132.157 105.027 131.955 105.177 131.922 105.394C131.89 105.612 132.04 105.814 132.258 105.847Z" fill="#437DFA"/>
<path d="M130.241 104.06C130.092 105.059 129.161 105.747 128.162 105.598C127.163 105.449 126.475 104.519 126.624 103.52C126.773 102.521 127.703 101.832 128.702 101.981C129.701 102.13 130.39 103.061 130.241 104.06Z" fill="#437DFA"/>
<path d="M127.545 103.659L128.049 104.339L129.409 103.332" stroke="white" stroke-width="1.253" stroke-miterlimit="10" stroke-linecap="round" stroke-linejoin="round"/>
<path opacity="0.22" d="M131.57 110.445L145.394 112.509C145.612 112.541 145.815 112.391 145.847 112.173C145.879 111.956 145.73 111.753 145.512 111.721L131.688 109.657C131.47 109.624 131.267 109.774 131.235 109.992C131.202 110.21 131.353 110.413 131.57 110.445Z" fill="#437DFA"/>
<path opacity="0.22" d="M131.254 112.562L145.078 114.626C145.295 114.658 145.498 114.508 145.531 114.291C145.563 114.073 145.413 113.87 145.195 113.838L131.371 111.774C131.154 111.742 130.951 111.891 130.918 112.109C130.886 112.327 131.036 112.53 131.254 112.562Z" fill="#437DFA"/>
<path d="M129.237 110.778C129.088 111.777 128.157 112.466 127.158 112.317C126.159 112.168 125.471 111.237 125.62 110.238C125.769 109.24 126.699 108.551 127.698 108.7C128.697 108.85 129.386 109.78 129.237 110.778Z" fill="#437DFA"/>
<path d="M126.541 110.378L127.044 111.058L128.405 110.051" stroke="white" stroke-width="1.253" stroke-miterlimit="10" stroke-linecap="round" stroke-linejoin="round"/>
<path opacity="0.22" d="M130.564 117.168L144.388 119.231C144.606 119.264 144.809 119.114 144.841 118.896C144.874 118.678 144.724 118.476 144.506 118.443L130.682 116.379C130.464 116.347 130.261 116.497 130.229 116.715C130.197 116.932 130.347 117.135 130.564 117.168Z" fill="#437DFA"/>
<path opacity="0.22" d="M130.248 119.285L144.072 121.349C144.29 121.381 144.493 121.231 144.525 121.013C144.557 120.795 144.407 120.593 144.19 120.56L130.366 118.497C130.148 118.464 129.945 118.614 129.913 118.832C129.88 119.049 130.03 119.252 130.248 119.285Z" fill="#437DFA"/>
<path d="M128.235 117.501C128.086 118.5 127.155 119.189 126.156 119.04C125.158 118.89 124.469 117.96 124.618 116.961C124.767 115.962 125.697 115.273 126.696 115.423C127.695 115.572 128.384 116.503 128.235 117.501Z" fill="#437DFA"/>
<path d="M125.537 117.097L126.041 117.777L127.401 116.77" stroke="white" stroke-width="1.253" stroke-miterlimit="10" stroke-linecap="round" stroke-linejoin="round"/>
<path opacity="0.22" d="M129.562 123.886L143.386 125.95C143.604 125.982 143.807 125.833 143.839 125.615C143.872 125.397 143.722 125.194 143.504 125.162L129.68 123.098C129.462 123.066 129.259 123.216 129.227 123.433C129.195 123.651 129.345 123.854 129.562 123.886Z" fill="#437DFA"/>
<path opacity="0.22" d="M129.246 126.003L143.07 128.067C143.287 128.1 143.49 127.95 143.523 127.732C143.555 127.514 143.405 127.311 143.188 127.279L129.363 125.215C129.146 125.183 128.943 125.333 128.911 125.551C128.878 125.768 129.028 125.971 129.246 126.003Z" fill="#437DFA"/>
<path d="M127.231 124.216C127.082 125.214 126.151 125.904 125.153 125.754C124.154 125.605 123.465 124.675 123.614 123.676C123.763 122.677 124.694 121.988 125.692 122.137C126.691 122.286 127.38 123.217 127.231 124.216Z" fill="#437DFA"/>
<path d="M124.535 123.815L125.039 124.495L126.4 123.488" stroke="white" stroke-width="1.253" stroke-miterlimit="10" stroke-linecap="round" stroke-linejoin="round"/>
<path opacity="0.22" d="M145.102 101.538L129.598 99.2241C129.295 99.179 129.086 98.8965 129.131 98.5932L129.143 98.5123C129.188 98.209 129.471 98.0001 129.774 98.0452L145.278 100.359C145.581 100.405 145.79 100.687 145.745 100.99L145.733 101.072C145.687 101.375 145.405 101.584 145.102 101.538Z" fill="#437DFA"/>
<path d="M144.5 95.7192L131.842 93.8296L132.084 92.2071C132.276 90.923 133.472 90.0373 134.756 90.2293L142.765 91.4248C144.049 91.6163 144.935 92.8129 144.743 94.0967L144.5 95.7192Z" fill="#FFC107"/>
<g opacity="0.74">
<path d="M73.6372 60.4052C64.9088 52.5856 57.429 42.0913 52.5762 30.8405C53.3913 30.4837 54.206 30.1264 55.0211 29.7695C59.6609 40.7109 68.5523 49.6458 77.72 54.8282" fill="white"/>
</g>
<path d="M48.8927 32.7328L40.9713 17.0195L40.7227 21.2997C40.6715 22.3669 40.5308 23.4194 40.3011 24.4576C40.1608 25.1035 39.9828 25.746 39.7712 26.3777C38.8339 29.1745 38.9353 32.2102 40.0529 34.9345L40.8233 36.8068L40.8399 36.8488L48.8927 32.7328Z" fill="#2C5BF1"/>
<path d="M39.5928 15.3858L40.8811 17.9417L40.7243 21.2992C40.673 22.3664 40.5323 23.4189 40.3027 24.4571L36.5123 16.9385C36.0845 16.0903 36.4275 15.0497 37.2762 14.6219C37.7024 14.4072 38.1764 14.3872 38.5927 14.5244C39.0139 14.6635 39.3781 14.9595 39.5928 15.3858Z" fill="#437DFA"/>
<path d="M48.4728 33.002C48.6968 33.4464 47.1694 34.6685 45.0613 35.7314C42.9529 36.7943 41.0621 37.2953 40.8382 36.851C40.6143 36.4066 42.1416 35.1845 44.2497 34.1216C46.3582 33.0587 48.2489 32.5573 48.4728 33.002Z" fill="#233889"/>
<path d="M66.5767 23.8742L66.5528 23.836L65.5057 22.1033C63.9803 19.5847 61.5997 17.6979 58.794 16.7879C58.1605 16.5821 57.538 16.3436 56.9353 16.0719C55.9637 15.6391 55.0338 15.1261 54.1454 14.533L50.5566 12.1875L58.478 27.9008L66.5767 23.8742Z" fill="#2C5BF1"/>
<path d="M50.0639 10.1025L51.3523 12.6584L54.1448 14.5291C55.0332 15.1226 55.9627 15.6356 56.9347 16.068L53.1443 8.54936C52.7166 7.7011 51.676 7.3581 50.8277 7.7855C50.4019 8.00017 50.104 8.36938 49.9668 8.7856C49.8276 9.20799 49.8492 9.67663 50.0639 10.1025Z" fill="#437DFA"/>
<path d="M58.9437 27.726C59.1676 28.1707 61.0588 27.6693 63.1669 26.6064C65.2754 25.5435 66.8027 24.3218 66.5788 23.877C66.3549 23.4323 64.4637 23.9337 62.3556 24.9966C60.2468 26.0595 58.7194 27.2816 58.9437 27.726Z" fill="#233889"/>
<path d="M42.4768 2.38216L37.8926 4.69298L38.2787 1.74472C38.3766 0.987809 39.2102 0.567345 39.8808 0.936937L42.4768 2.38216Z" fill="#FFC107"/>
<path d="M49.6723 9.32678L58.9214 27.6742L48.446 32.9549L39.1969 14.6074C37.8808 11.9968 37.3605 9.05354 37.7012 6.15114L37.8916 4.68973L42.4759 2.37891L43.7639 3.09497C46.3032 4.54559 48.3566 6.71613 49.6723 9.32678Z" fill="white"/>
<path opacity="0.09" d="M45.3714 19.5297C47.7238 24.1961 51.7435 27.4611 56.3435 28.975L48.4456 32.9565L39.1974 14.6102C37.8805 11.9984 37.3606 9.05783 37.7013 6.15427L37.8928 4.69363L42.4767 2.38281L43.7647 3.09733C44.1223 3.30121 44.4692 3.51895 44.806 3.75057C42.7588 8.6628 42.7881 14.4055 45.3714 19.5297Z" fill="#437DFA"/>
<path d="M58.4483 29.7068L50.4125 33.7577C50.1265 33.9018 49.7778 33.7869 49.6332 33.5006L49.1758 32.593L58.2479 28.0195L58.7054 28.9271C58.8495 29.2139 58.7347 29.5626 58.4483 29.7068Z" fill="#FFC107"/>
<path d="M58.0357 29.9141L58.1348 30.1106C58.5275 30.8899 58.3082 31.8133 57.6553 32.3386C57.559 32.4191 57.448 32.4889 57.3312 32.5475L53.3624 34.548C53.2461 34.6066 53.1239 34.6544 53.0017 34.6841C52.1908 34.8964 51.3179 34.5238 50.9252 33.7445L50.8262 33.5479L58.0357 29.9141Z" fill="#2C5BF1"/>
<path opacity="0.39" d="M49.1536 13.8604C49.9891 15.5176 49.3228 17.5386 47.6656 18.3742C46.008 19.2097 43.987 18.5434 43.1515 16.8862C42.316 15.229 42.9823 13.208 44.6399 12.3724C46.2975 11.5365 48.3181 12.2029 49.1536 13.8604Z" fill="#437DFA"/>
<path d="M57.6541 32.3377C57.5577 32.4182 57.4468 32.488 57.33 32.5466L53.3612 34.5471C53.2448 34.6057 53.1226 34.6535 53.0005 34.6832C52.864 34.2677 53.7296 33.448 54.9783 32.8187C56.2274 32.1893 57.4009 31.9812 57.6541 32.3377Z" fill="#233889"/>
<path opacity="0.39" d="M53.2344 22.9666L48.2671 25.4705C47.921 25.6451 47.499 25.506 47.3244 25.1599L47.0519 24.6196C46.8773 24.2735 47.0165 23.8515 47.3625 23.6769L52.3299 21.173C52.676 20.9984 53.098 21.1375 53.2726 21.4836L53.545 22.024C53.7196 22.37 53.5805 22.792 53.2344 22.9666Z" fill="#437DFA"/>
<path d="M56.0012 95.3929L17.7579 106.789C17.1671 106.965 16.5458 106.629 16.3697 106.038L8.35156 79.1312L48.7335 67.0977L56.7516 94.0047C56.9281 94.5955 56.592 95.2167 56.0012 95.3929Z" fill="white"/>
<path opacity="0.31" d="M38.3279 100.659L17.759 106.788C17.169 106.964 16.5474 106.628 16.3716 106.038L8.35352 79.1313L19.6351 75.7695C19.4582 78.5182 19.7554 81.3439 20.5874 84.1364C23.1534 92.7473 30.1387 98.8357 38.3279 100.659Z" fill="#F2F2F2"/>
<path d="M48.7338 67.0965L8.35186 79.13L6.99682 74.5831C6.51623 72.9699 7.43424 71.2722 9.04749 70.7912L43.5869 60.4989C45.2001 60.0179 46.8978 60.9363 47.3787 62.5496L48.7338 67.0965Z" fill="#FFC107"/>
<path d="M12.7975 71.9067C12.4625 71.7255 12.0772 71.6858 11.7122 71.7941C10.9587 72.0188 10.5283 72.8147 10.7529 73.5681C10.8616 73.9331 11.1063 74.2337 11.4413 74.4148C11.6525 74.5293 11.8841 74.5871 12.1176 74.5871C12.2544 74.5871 12.392 74.567 12.5269 74.527C12.8919 74.4183 13.1925 74.1739 13.374 73.8386C13.5551 73.5037 13.5952 73.118 13.4865 72.753C13.3767 72.3888 13.1324 72.0878 12.7975 71.9067Z" fill="#CC9900"/>
<path d="M17.791 69.9849C17.426 70.0936 17.125 70.338 16.9439 70.6733C16.7627 71.0082 16.7226 71.3936 16.8317 71.7589C16.9404 72.1239 17.1847 72.4245 17.52 72.606C17.7316 72.7205 17.9628 72.7783 18.1964 72.7783C18.3332 72.7783 18.4708 72.7582 18.6057 72.7182C18.9706 72.6095 19.2716 72.3651 19.4528 72.0298C19.6339 71.6949 19.6736 71.3095 19.5649 70.9442C19.3402 70.1907 18.5444 69.7614 17.791 69.9849Z" fill="#CC9900"/>
<path d="M31.0366 66.4732C30.7017 66.2917 30.3159 66.2523 29.9509 66.3606C29.586 66.4693 29.285 66.7137 29.1038 67.049C28.9227 67.3839 28.883 67.7693 28.9917 68.1346C29.1004 68.4996 29.3447 68.8006 29.68 68.9817C29.8916 69.0962 30.1228 69.154 30.3564 69.154C30.4932 69.154 30.6308 69.1339 30.7657 69.0939C31.1306 68.9852 31.4312 68.7404 31.6128 68.4055C31.7939 68.0706 31.8336 67.6849 31.7249 67.3199C31.6162 66.9553 31.3719 66.6547 31.0366 66.4732Z" fill="#CC9900"/>
<path d="M24.9568 68.2855C24.6219 68.1043 24.2365 68.0646 23.8711 68.1733C23.5062 68.282 23.2055 68.5263 23.024 68.8616C22.8429 69.1965 22.8028 69.5823 22.9115 69.9473C23.0202 70.3123 23.2645 70.6129 23.5998 70.7944C23.811 70.9089 24.0426 70.9671 24.2762 70.9671C24.413 70.9671 24.5506 70.947 24.6855 70.9069C25.4389 70.6822 25.869 69.8868 25.6447 69.133C25.536 68.7676 25.2917 68.467 24.9568 68.2855Z" fill="#CC9900"/>
<path d="M37.119 64.6604C36.7837 64.4793 36.3987 64.44 36.0333 64.5479C35.6684 64.6566 35.3678 64.9009 35.1862 65.2362C35.0047 65.5715 34.965 65.9565 35.0737 66.3218C35.1824 66.6868 35.4267 66.9874 35.762 67.1689C35.9732 67.2834 36.2048 67.3412 36.4384 67.3412C36.5752 67.3412 36.7128 67.3212 36.8477 67.2811C37.6011 67.0564 38.0312 66.2609 37.8069 65.5075C37.6982 65.1425 37.4539 64.8415 37.119 64.6604Z" fill="#CC9900"/>
<path d="M43.8831 63.6988C43.7744 63.3338 43.5297 63.0329 43.1948 62.8517C42.8599 62.6706 42.4741 62.6313 42.1091 62.7396C41.7442 62.8482 41.4436 63.0926 41.262 63.4279C41.0809 63.7628 41.0412 64.1486 41.1499 64.5135C41.3345 65.1317 41.903 65.5321 42.5173 65.5321C42.6518 65.5321 42.7882 65.5129 42.9235 65.4728C43.2884 65.3637 43.5894 65.1194 43.7706 64.7845C43.9521 64.4492 43.9922 64.0638 43.8831 63.6988Z" fill="#CC9900"/>
<path d="M12.0519 73.7742C11.6965 73.7742 11.3686 73.5426 11.2618 73.185L10.1654 69.506C10.0355 69.0694 10.2837 68.6103 10.7199 68.4801C11.157 68.3494 11.6156 68.5984 11.7459 69.0347L12.8423 72.7136C12.9722 73.1503 12.724 73.6093 12.2877 73.7396C12.2091 73.7631 12.1297 73.7742 12.0519 73.7742Z" fill="#2C5BF1"/>
<path d="M18.1339 71.9615C17.7786 71.9615 17.4506 71.7298 17.3438 71.3722L16.2474 67.6932C16.1175 67.2566 16.3657 66.7976 16.802 66.6673C17.239 66.5374 17.6976 66.7856 17.8279 67.2219L18.9243 70.9009C19.0542 71.3375 18.806 71.7965 18.3697 71.9268C18.2911 71.9503 18.2117 71.9615 18.1339 71.9615Z" fill="#2C5BF1"/>
<path d="M24.212 70.1528C23.8567 70.1528 23.5287 69.9212 23.422 69.5636L22.3255 65.8846C22.1956 65.4479 22.4438 64.9889 22.8801 64.8587C23.3171 64.7288 23.7757 64.9774 23.906 65.4133L25.0025 69.0922C25.1323 69.5289 24.8841 69.9879 24.4479 70.1181C24.3693 70.1417 24.2902 70.1528 24.212 70.1528Z" fill="#2C5BF1"/>
<path d="M30.294 68.3401C29.9387 68.3401 29.6107 68.1089 29.504 67.7509L28.4075 64.0719C28.2777 63.6356 28.5259 63.1762 28.9625 63.0464C29.3988 62.9161 29.8582 63.1647 29.988 63.6009L31.0845 67.2799C31.2144 67.7162 30.9662 68.1756 30.5299 68.3054C30.4513 68.3289 30.3719 68.3401 30.294 68.3401Z" fill="#2C5BF1"/>
<path d="M36.3737 66.5274C36.0184 66.5274 35.6904 66.2958 35.5837 65.9382L34.4876 62.2592C34.3577 61.8229 34.6059 61.3636 35.0426 61.2337C35.4788 61.1038 35.9382 61.3524 36.0681 61.7886L37.1642 65.4676C37.2941 65.9039 37.0459 66.3633 36.6092 66.4931C36.531 66.5167 36.4516 66.5274 36.3737 66.5274Z" fill="#2C5BF1"/>
<path d="M42.4538 64.7153C42.0985 64.7153 41.7705 64.4836 41.6638 64.126L40.5677 60.447C40.4378 60.0108 40.686 59.5514 41.1227 59.4215C41.5589 59.2908 42.0183 59.5398 42.1482 59.9765L43.2443 63.6554C43.3741 64.0917 43.1259 64.5511 42.6897 64.681C42.6111 64.7045 42.5317 64.7153 42.4538 64.7153Z" fill="#2C5BF1"/>
<path opacity="0.22" d="M20.0797 80.2034L14.3262 81.918L15.8426 87.0067L21.5961 85.2921L20.0797 80.2034Z" fill="#437DFA"/>
<path opacity="0.22" d="M28.4762 77.7034L22.7227 79.418L24.2391 84.5067L29.9926 82.7921L28.4762 77.7034Z" fill="#437DFA"/>
<path opacity="0.22" d="M36.8707 75.1995L31.1172 76.9141L32.6336 82.0028L38.3871 80.2882L36.8707 75.1995Z" fill="#437DFA"/>
<path d="M32.716 78.1673C32.5943 78.1673 32.4821 78.0883 32.4455 77.9653C32.4008 77.8158 32.486 77.6586 32.6355 77.6142L35.9815 76.6172C36.131 76.5729 36.2883 76.6577 36.3326 76.8072C36.3773 76.9568 36.2921 77.114 36.1426 77.1583L32.7966 78.1553C32.77 78.1638 32.7426 78.1673 32.716 78.1673Z" fill="#437DFA"/>
<path d="M33.0774 79.3821C32.9556 79.3821 32.8434 79.3027 32.8068 79.1802C32.7621 79.0306 32.8473 78.8734 32.9968 78.8291L36.3428 77.8321C36.492 77.7878 36.6496 77.8725 36.6939 78.0221C36.7386 78.1716 36.6534 78.3288 36.5039 78.3732L33.1579 79.3702C33.1313 79.3783 33.104 79.3821 33.0774 79.3821Z" fill="#437DFA"/>
<path d="M33.4367 80.5893C33.315 80.5893 33.2028 80.5103 33.1662 80.3874C33.1215 80.2378 33.2067 80.0806 33.3562 80.0363L36.7022 79.0392C36.8517 78.9945 37.009 79.0797 37.0533 79.2292C37.098 79.3788 37.0128 79.536 36.8633 79.5803L33.5173 80.5773C33.4907 80.5854 33.4633 80.5893 33.4367 80.5893Z" fill="#437DFA"/>
<path opacity="0.22" d="M45.2672 72.6995L39.5137 74.4141L41.0301 79.5027L46.7836 77.7882L45.2672 72.6995Z" fill="#437DFA"/>
<path opacity="0.22" d="M22.2555 87.5042L16.502 89.2188L18.0184 94.3074L23.7719 92.5929L22.2555 87.5042Z" fill="#437DFA"/>
<path opacity="0.22" d="M30.652 85.0042L24.8984 86.7188L26.4149 91.8074L32.1684 90.0929L30.652 85.0042Z" fill="#437DFA"/>
<path opacity="0.22" d="M39.0485 82.5042L33.2949 84.2188L34.8113 89.3074L40.5649 87.5929L39.0485 82.5042Z" fill="#437DFA"/>
<path opacity="0.22" d="M47.4449 80.0003L41.6914 81.7148L43.2078 86.8035L48.9614 85.089L47.4449 80.0003Z" fill="#437DFA"/>
<path opacity="0.22" d="M24.4 94.7073L18.6465 96.4219L20.1629 101.511L25.9164 99.796L24.4 94.7073Z" fill="#437DFA"/>
<path opacity="0.22" d="M32.7985 92.2073L27.0449 93.9219L28.5613 99.0106L34.3149 97.296L32.7985 92.2073Z" fill="#437DFA"/>
<path opacity="0.22" d="M41.1949 89.7034L35.4414 91.418L36.9578 96.5067L42.7114 94.7921L41.1949 89.7034Z" fill="#437DFA"/>
<path opacity="0.22" d="M49.5895 87.1995L43.8359 88.9141L45.3524 94.0028L51.1059 92.2882L49.5895 87.1995Z" fill="#437DFA"/>
<path d="M28.6418 95.1718C28.52 95.1718 28.4079 95.0924 28.3713 94.9699C28.3266 94.8203 28.4117 94.6631 28.5613 94.6184L31.9073 93.621C32.0568 93.5771 32.214 93.6615 32.2584 93.811C32.3031 93.9605 32.2179 94.1178 32.0684 94.1625L28.7224 95.1599C28.6958 95.168 28.6684 95.1718 28.6418 95.1718Z" fill="#437DFA"/>
<path d="M29.0031 96.3825C28.8814 96.3825 28.7692 96.3031 28.7326 96.1805C28.6879 96.031 28.7731 95.8738 28.9226 95.8291L32.2686 94.8317C32.4177 94.7885 32.5754 94.8721 32.6197 95.0217C32.6644 95.1712 32.5792 95.3284 32.4297 95.3731L29.0837 96.3705C29.0567 96.3786 29.0297 96.3825 29.0031 96.3825Z" fill="#437DFA"/>
<path d="M29.3625 97.5935C29.2407 97.5935 29.1286 97.5142 29.092 97.3916C29.0473 97.2421 29.1324 97.0848 29.282 97.0401L32.628 96.0427C32.7775 95.9992 32.9347 96.0832 32.9791 96.2327C33.0238 96.3823 32.9386 96.5395 32.7891 96.5842L29.4431 97.5816C29.4165 97.5897 29.3891 97.5935 29.3625 97.5935Z" fill="#437DFA"/>
<path d="M36.8494 87.3287C36.7542 87.3572 36.6486 87.3491 36.5549 87.2982L35.3613 86.6527C35.1733 86.5509 35.1031 86.3162 35.2049 86.1282C35.3066 85.9397 35.5417 85.8699 35.7294 85.9717L36.5827 86.433L37.6891 84.3866C37.7913 84.1985 38.0256 84.1287 38.214 84.2301C38.4017 84.3318 38.4719 84.5669 38.3705 84.755L37.0794 87.1417C37.0282 87.2362 36.9442 87.3005 36.8494 87.3287Z" fill="#437DFA"/>
<path d="M17.8591 84.9498C17.7639 84.9779 17.6583 84.9702 17.5647 84.9193L16.3711 84.2738C16.183 84.172 16.1129 83.9373 16.2146 83.7493C16.3164 83.5608 16.5511 83.491 16.7392 83.5928L17.5924 84.0541L18.6993 82.0077C18.8014 81.8196 19.0357 81.7498 19.2242 81.8512C19.4119 81.9529 19.482 82.188 19.3807 82.3757L18.09 84.7625C18.0379 84.8573 17.9539 84.9216 17.8591 84.9498Z" fill="#437DFA"/>
<path d="M45.2478 84.8287C45.1526 84.8572 45.047 84.8491 44.9534 84.7982L43.7598 84.1527C43.5717 84.0509 43.5016 83.8162 43.6033 83.6282C43.7051 83.4397 43.9402 83.37 44.1278 83.4717L44.9811 83.933L46.0876 81.8866C46.1897 81.6985 46.424 81.6287 46.6125 81.7301C46.8002 81.8318 46.8703 82.0669 46.7689 82.255L45.4779 84.6417C45.427 84.7362 45.343 84.8005 45.2478 84.8287Z" fill="#437DFA"/>
<path d="M138.92 37.9009L140.73 39.7109L141.812 38.6296L140.002 36.8196L138.92 37.9009Z" fill="#669FFD"/>
<path d="M139.895 36.9994L141.633 38.7371C142.157 39.2612 143.007 39.2612 143.531 38.7371L143.875 38.3922C144.4 37.868 144.4 37.0183 143.875 36.4941L142.138 34.7564C141.614 34.2322 140.764 34.2322 140.24 34.7564L139.895 35.1013C139.371 35.6254 139.371 36.4752 139.895 36.9994Z" fill="#437DFA"/>
<path d="M121.469 32.3125H126.338V30.6437H121.469V32.3125Z" fill="#669FFD"/>
<path d="M120.086 30.601H127.718C128.316 30.601 128.801 30.1162 128.801 29.5184V26.5474C128.801 25.9497 128.316 25.4648 127.718 25.4648H120.086C119.488 25.4648 119.004 25.9497 119.004 26.5474V29.5184C119.004 30.1162 119.488 30.601 120.086 30.601Z" fill="#437DFA"/>
<path d="M129.306 76.8886C141.53 73.8906 149.009 61.5508 146.011 49.327C143.013 37.1032 130.673 29.6243 118.45 32.6223C106.226 35.6204 98.7468 47.9601 101.745 60.1839C104.743 72.4077 117.083 79.8867 129.306 76.8886Z" fill="#437DFA"/>
<path d="M138.519 69.3891C146.604 61.3041 146.604 48.1959 138.519 40.1109C130.434 32.026 117.326 32.026 109.241 40.1109C101.156 48.1959 101.156 61.3041 109.241 69.3891C117.326 77.474 130.434 77.474 138.519 69.3891Z" fill="white"/>
<path opacity="0.09" d="M128.478 34.5587C126.999 34.2222 125.464 34.0469 123.883 34.0469C112.447 34.0469 103.178 43.3164 103.178 54.7518C103.178 66.1875 112.447 75.4566 123.883 75.4566C125.464 75.4566 126.999 75.2813 128.478 74.9452C119.255 72.8525 112.369 64.6067 112.369 54.7521C112.369 44.8972 119.255 36.6514 128.478 34.5587Z" fill="#437DFA"/>
<path d="M123.881 55.4274C124.255 55.4274 124.558 55.1245 124.558 54.751V39.5908C124.558 39.2174 124.255 38.9141 123.881 38.9141C123.508 38.9141 123.205 39.217 123.205 39.5908V54.751C123.205 55.1245 123.508 55.4274 123.881 55.4274Z" fill="#2C5BF1"/>
<path d="M129.708 65.4357C129.824 65.4357 129.941 65.406 130.048 65.3436C130.371 65.1555 130.481 64.7416 130.293 64.4186L124.467 54.4142C124.279 54.0912 123.864 53.9822 123.541 54.1702C123.218 54.3583 123.109 54.7722 123.297 55.0952L129.123 65.0996C129.249 65.3154 129.476 65.4357 129.708 65.4357Z" fill="#2C5BF1"/>
<path d="M122.021 54.7509C122.021 55.7784 122.854 56.6112 123.882 56.6112C124.909 56.6112 125.742 55.7784 125.742 54.7509C125.742 53.7235 124.909 52.8906 123.882 52.8906C122.854 52.8906 122.021 53.7235 122.021 54.7509Z" fill="#669FFD"/>
<path d="M123.881 37.7375C124.068 37.7375 124.22 37.586 124.22 37.3991V35.3384C124.22 35.1515 124.068 35 123.881 35C123.694 35 123.543 35.1515 123.543 35.3384V37.3991C123.543 37.586 123.694 37.7375 123.881 37.7375Z" fill="#2C5BF1"/>
<path d="M132.559 40.0666C132.676 40.0666 132.789 40.0057 132.852 39.8975L133.882 38.1131C133.975 37.9512 133.92 37.7443 133.758 37.651C133.597 37.5573 133.39 37.6128 133.296 37.7747L132.266 39.5591C132.173 39.7209 132.228 39.9279 132.39 40.0212C132.443 40.052 132.501 40.0666 132.559 40.0666Z" fill="#2C5BF1"/>
<path d="M138.911 46.4179C138.968 46.4179 139.027 46.4033 139.08 46.3724L140.864 45.3423C141.026 45.249 141.082 45.042 140.988 44.8802C140.894 44.7183 140.687 44.6628 140.526 44.7565L138.741 45.7866C138.58 45.8799 138.524 46.0868 138.618 46.2487C138.681 46.3574 138.794 46.4179 138.911 46.4179Z" fill="#2C5BF1"/>
<path d="M141.235 55.0908H143.296C143.482 55.0908 143.634 54.9394 143.634 54.7524C143.634 54.5655 143.482 54.4141 143.296 54.4141H141.235C141.048 54.4141 140.896 54.5655 140.896 54.7524C140.896 54.9394 141.048 55.0908 141.235 55.0908Z" fill="#2C5BF1"/>
<path d="M140.697 64.7973C140.813 64.7973 140.927 64.7368 140.99 64.6281C141.083 64.4662 141.028 64.2593 140.866 64.166L139.082 63.1355C138.921 63.0418 138.713 63.0969 138.62 63.2592C138.526 63.421 138.582 63.628 138.743 63.7213L140.528 64.7518C140.581 64.7826 140.639 64.7973 140.697 64.7973Z" fill="#2C5BF1"/>
<path d="M133.59 71.9065C133.647 71.9065 133.705 71.8918 133.758 71.861C133.92 71.7674 133.976 71.5608 133.882 71.3989L132.852 69.6145C132.759 69.4527 132.552 69.3972 132.39 69.4908C132.228 69.5845 132.173 69.7911 132.266 69.9529L133.296 71.7373C133.359 71.846 133.473 71.9065 133.59 71.9065Z" fill="#2C5BF1"/>
<path d="M123.881 74.5066C124.068 74.5066 124.22 74.3551 124.22 74.1682V72.1079C124.22 71.921 124.068 71.7695 123.881 71.7695C123.694 71.7695 123.543 71.921 123.543 72.1079V74.1682C123.543 74.3551 123.694 74.5066 123.881 74.5066Z" fill="#2C5BF1"/>
<path d="M114.174 71.9065C114.291 71.9065 114.404 71.846 114.467 71.7373L115.497 69.9529C115.591 69.7911 115.536 69.5841 115.374 69.4908C115.212 69.3972 115.005 69.4527 114.912 69.6145L113.881 71.3989C113.788 71.5608 113.843 71.7677 114.005 71.861C114.058 71.8918 114.116 71.9065 114.174 71.9065Z" fill="#2C5BF1"/>
<path d="M107.067 64.7969C107.125 64.7969 107.183 64.7823 107.236 64.7515L109.021 63.7209C109.183 63.6276 109.238 63.4207 109.145 63.2588C109.051 63.0973 108.844 63.0418 108.683 63.1351L106.898 64.1657C106.736 64.2593 106.68 64.4659 106.774 64.6277C106.837 64.7364 106.951 64.7969 107.067 64.7969Z" fill="#2C5BF1"/>
<path d="M104.467 55.0908H106.528C106.715 55.0908 106.866 54.9394 106.866 54.7524C106.866 54.5655 106.715 54.4141 106.528 54.4141H104.467C104.28 54.4141 104.129 54.5655 104.129 54.7524C104.129 54.9394 104.28 55.0908 104.467 55.0908Z" fill="#2C5BF1"/>
<path d="M108.851 46.4179C108.968 46.4179 109.082 46.357 109.145 46.2487C109.238 46.0868 109.183 45.8799 109.021 45.7866L107.236 44.7565C107.075 44.6628 106.867 44.7183 106.774 44.8802C106.68 45.042 106.736 45.249 106.898 45.3423L108.683 46.3724C108.736 46.4033 108.794 46.4179 108.851 46.4179Z" fill="#2C5BF1"/>
<path d="M115.205 40.0664C115.262 40.0664 115.321 40.0517 115.374 40.0209C115.536 39.9276 115.591 39.7207 115.497 39.5588L114.467 37.7744C114.374 37.613 114.166 37.5575 114.005 37.6507C113.843 37.744 113.788 37.951 113.881 38.1128L114.912 39.8972C114.974 40.0055 115.088 40.0664 115.205 40.0664Z" fill="#2C5BF1"/>
<path d="M88.3388 84.0003C95.2446 78.9185 107.974 67.8045 107.974 54.9023H60.0293C60.0293 67.8045 72.7585 78.9185 79.6643 84.0003C72.7588 89.0821 60.0293 100.196 60.0293 113.098H107.974C107.974 100.196 95.2446 89.0821 88.3388 84.0003Z" fill="white"/>
<path d="M105.509 108.024C104.797 105.366 102.697 103.316 100.075 102.482C96.9098 101.474 92.5598 100.52 88.5737 101.11C88.5286 101.117 88.4747 101.117 88.4149 101.113C87.7382 101.067 87.2106 100.5 87.1343 99.8259L85.4732 85.1331C85.3942 84.434 85.6937 83.7457 86.2594 83.3272L87.2876 82.5668C91.0537 79.8027 96.1748 75.5291 100.134 70.3294C100.554 69.7786 100.101 68.9948 99.4164 69.0961C95.3921 69.6927 87.1508 70.4068 80.255 67.7303C74.2348 65.3906 70.9867 67.2007 69.4131 68.846C68.5313 69.7678 68.5363 71.2165 69.3615 72.1897C73.062 76.5531 77.4131 80.1415 80.7163 82.5672L81.7149 83.306C82.2964 83.7361 82.5955 84.4498 82.4941 85.1662L80.4866 99.3726C80.3637 100.242 79.4985 100.802 78.6548 100.557L77.9488 100.351C75.6572 99.6848 73.2732 99.3942 70.8888 99.4902C67.9301 99.6093 65.225 101.319 63.9737 104.003C62.8822 106.343 62.1349 108.798 61.8887 111.327H106.115C106.006 110.209 105.8 109.107 105.509 108.024Z" fill="#C5D9FC"/>
<path d="M105.933 50.7031H62.0742C59.7549 50.7031 57.875 52.5831 57.875 54.9024H110.132C110.132 52.5831 108.252 50.7031 105.933 50.7031Z" fill="#2C5BF1"/>
<path d="M62.0727 117.297H105.931C108.251 117.297 110.131 115.417 110.131 113.098H57.873C57.873 115.417 59.7534 117.297 62.0727 117.297Z" fill="#2C5BF1"/>
<path d="M25.0906 130.411C22.3963 124.797 24.884 118.034 30.6522 115.534C35.8616 113.276 42.0283 115.416 44.7171 120.416C46.3319 123.419 46.4117 126.801 45.2602 129.705C44.6193 131.322 44.2678 133.043 44.356 134.78C44.4204 136.042 44.6308 137.258 45.0891 138.213L41.8078 139.787L38.5266 141.362C38.0683 140.407 37.2517 139.482 36.3071 138.642C35.0064 137.486 33.4417 136.684 31.7779 136.171C28.9465 135.298 26.4734 133.293 25.0906 130.411Z" fill="#FFC107"/>
<path opacity="0.67" d="M30.9671 127.045C31.1309 126.918 31.3537 126.954 31.4747 127.112L32.3842 128.305C32.8575 128.142 33.2375 128.265 33.5438 128.381C33.8603 128.498 34.0383 128.555 34.305 128.427C34.5709 128.3 34.6376 128.125 34.744 127.805C34.8577 127.456 35.0006 127.023 35.5579 126.756C36.114 126.489 36.5407 126.649 36.8844 126.778C37.2005 126.897 37.3781 126.953 37.6425 126.826C37.9073 126.699 37.9747 126.526 38.0795 126.204C38.1817 125.892 38.3231 125.52 38.7459 125.252L38.3848 123.797C38.337 123.603 38.448 123.407 38.6495 123.358C38.8438 123.31 39.0399 123.427 39.0881 123.622L43.0669 139.663C43.1082 139.833 43.0238 140.003 42.8715 140.076C42.8496 140.086 42.8272 140.095 42.8025 140.102C42.6075 140.149 42.4118 140.032 42.3636 139.838L38.9397 126.034C38.8715 126.136 38.823 126.261 38.7682 126.429C38.6538 126.778 38.5116 127.211 37.9554 127.478C37.3993 127.744 36.9727 127.585 36.6289 127.456C36.3129 127.336 36.1352 127.281 35.8709 127.407C35.6042 127.535 35.5371 127.71 35.4311 128.03C35.3178 128.379 35.1744 128.812 34.6183 129.079C34.0614 129.346 33.6336 129.187 33.2906 129.057C33.1242 128.995 32.9958 128.955 32.8733 128.945L41.4988 140.253C41.6202 140.412 41.5889 140.638 41.4302 140.761C41.4093 140.776 41.3885 140.788 41.367 140.798C41.2147 140.871 41.029 140.831 40.9222 140.692L30.8989 127.551C30.7767 127.392 30.8079 127.166 30.9671 127.045Z" fill="white"/>
<path d="M42.2618 146.424L46.7007 144.294C47.2873 144.013 47.5343 143.309 47.253 142.722L45.0883 138.211L38.5254 141.36L40.6901 145.871C40.9719 146.458 41.6752 146.705 42.2618 146.424Z" fill="white"/>
<path d="M44.2018 147.059L45.9842 146.203C46.6872 145.866 46.9832 145.023 46.6459 144.32L42.3184 146.397C42.6556 147.099 43.4988 147.396 44.2018 147.059Z" fill="#2C5BF1"/>
<path d="M38.9555 143.731C38.8392 143.69 38.7382 143.604 38.6804 143.484C38.5651 143.244 38.6665 142.956 38.9066 142.84L45.9955 139.438C46.2356 139.323 46.5239 139.424 46.6391 139.665C46.7544 139.905 46.653 140.193 46.4129 140.308L39.324 143.71C39.2041 143.768 39.0723 143.771 38.9555 143.731Z" fill="#2C5BF1"/>
<path d="M39.9204 145.73C39.804 145.689 39.703 145.604 39.6452 145.484C39.53 145.244 39.6313 144.955 39.8714 144.84L46.9604 141.438C47.2005 141.323 47.4887 141.424 47.604 141.664C47.7192 141.905 47.6179 142.193 47.3778 142.308L40.2888 145.71C40.169 145.768 40.0368 145.771 39.9204 145.73Z" fill="#2C5BF1"/>
<path opacity="0.09" d="M84.8217 83.9996C77.9193 89.0829 65.1897 100.194 65.1897 113.097H60.0293C60.0293 100.194 72.7588 89.0829 79.6651 83.9996C72.7588 78.9162 60.0293 67.8053 60.0293 54.9023H65.1897C65.1897 67.8053 77.9193 78.9162 84.8217 83.9996Z" fill="#437DFA"/>
</svg>
