<?xml version="1.0" encoding="UTF-8" standalone="no"?>
<svg
   width="466.22684"
   height="247.06213"
   viewBox="0 0 466.22684 247.06213"
   fill="none"
   version="1.1"
   id="svg114"
   xmlns="http://www.w3.org/2000/svg"
   xmlns:svg="http://www.w3.org/2000/svg">
  <path
     d="m 139.4207,149.54514 h 18.927 v 29.551 h -18.927 v 33.333 h -35.962 v -33.333 H 24.914101 v -27.659 L 89.265701,41.983136 H 139.4227 V 149.54714 Z m -77.599599,0 H 103.4607 V 78.386136 Z"
     fill="#a4aabc"
     id="path1" />
  <path
     d="m 192.1557,197.00914 c -13.268,-13.944 -21.357,-34.67 -24.482,-61.915 -3.151,-27.48 0.276,-49.525004 10.331,-65.670004 10.056,-16.145 24.708,-25.44 44.218,-27.679 19.507,-2.239 35.882,3.498 48.915,17.468 13.268,13.944 21.332,34.435 24.455,61.680004 3.177,27.715 -0.249,49.76 -10.043,66.114 -9.821,16.117 -24.473,25.414 -43.981,27.651 -19.744,2.265 -36.145,-3.705 -49.413,-17.649 z m 66.2,-70.653 c -2.397,-20.903 -6.415,-35.195004 -11.852,-43.137004 -5.434,-7.942 -12.502,-11.415 -20.962,-10.444 -19.744,2.265 -24.614,22.099 -20.629,56.858004 4.712,41.102 15.917,55.758 32.841,53.818 19.744,-2.265 24.588,-22.334 20.602,-57.093 z"
     fill="#a4aabc"
     id="path2" />
  <path
     d="m 437.2867,149.54514 h 18.927 v 29.551 h -18.927 v 33.333 h -35.962 v -33.333 h -78.546 v -27.659 l 64.351,-109.454004 h 50.157 V 149.54714 Z m -77.601,0 h 41.639 V 78.386136 Z"
     fill="#a4aabc"
     id="path3" />
  <path
     d="m 293.8817,221.00414 -290.2155991,-0.117 c -2.025,0 -3.66610007682403,-1.644 -3.66610007682403,-3.67 0,-2.025 1.64310007682403,-3.669 3.66800007682403,-3.669 H 291.5607 l 2.578,2.314 -2.21,1.18 2.327,2.094 -0.376,1.868 z"
     fill="#d7dadd"
     id="path4" />
  <path
     d="m 462.7107,214.67714 -155.579,6.406 0.338,-1.877 -2.369,-2.047 2.186,-1.222 -2.624,-2.271 157.748,-6.326 c 2.023,-0.082 3.729,1.492 3.813,3.516 0.083,2.026 -1.49,3.736 -3.515,3.819 z"
     fill="#d7dadd"
     id="path5" />
  <path
     d="m 307.6747,222.63614 -2.357,2.063 2.828,0.709 z"
     fill="#d7dadd"
     id="path6" />
  <path
     d="m 303.1357,232.95614 -1.621,0.603 -0.589,1.799 2.329,0.147 z"
     fill="#d7dadd"
     id="path7" />
  <path
     d="m 296.4677,223.57914 -1.619,0.605 -0.591,1.799 2.329,0.147 z"
     fill="#d7dadd"
     id="path8" />
  <path
     d="m 310.8937,244.51314 -1.621,0.605 -0.589,1.797 2.329,0.147 z"
     fill="#d7dadd"
     id="path9" />
  <path
     d="m 271.9597,56.206136 c -0.794,7.719 -1.194,17.544 3.865,23.426 1.714,1.994 3.99,3.535 5.299,5.817 1.585,2.764 1.492,6.189 0.851,9.309 -0.64,3.123 -1.778,6.141004 -2.154,9.306004 -1.102,9.301 4.476,18.325 3.901,27.675 -0.215,3.484 -1.281,6.859 -1.792,10.312 -0.512,3.452 -0.402,7.209 1.513,10.129"
     stroke="#772828"
     stroke-width="4"
     stroke-miterlimit="10"
     id="path10" />
  <path
     d="m 268.2837,59.475136 c 2.222,0 4.022,-1.906 4.022,-4.256 0,-2.351 -1.8,-4.257 -4.022,-4.257 -2.221,0 -4.022,1.906 -4.022,4.257 0,2.35 1.801,4.256 4.022,4.256 z"
     fill="#2d2dad"
     id="path11" />
  <path
     d="m 275.9417,59.860136 c 2.222,0 4.022,-1.906 4.022,-4.257 0,-2.351 -1.8,-4.256 -4.022,-4.256 -2.221,0 -4.022,1.905 -4.022,4.256 0,2.351 1.801,4.257 4.022,4.257 z"
     fill="#2d2dad"
     id="path12" />
  <path
     d="m 310.4917,146.61614 c 4.623,0 8.37,-3.749 8.37,-8.374 0,-4.625 -3.747,-8.374 -8.37,-8.374 -4.623,0 -8.371,3.749 -8.371,8.374 0,4.625 3.748,8.374 8.371,8.374 z"
     fill="#000000"
     id="path13" />
  <path
     d="m 305.4307,155.16114 c 4.623,0 8.371,-3.749 8.371,-8.374 0,-4.625 -3.748,-8.374 -8.371,-8.374 -4.623,0 -8.37,3.749 -8.37,8.374 0,4.625 3.747,8.374 8.37,8.374 z"
     fill="#000000"
     id="path14" />
  <path
     d="m 317.6507,158.49914 c 4.623,0 8.37,-3.749 8.37,-8.374 0,-4.625 -3.747,-8.374 -8.37,-8.374 -4.623,0 -8.37,3.749 -8.37,8.374 0,4.625 3.747,8.374 8.37,8.374 z"
     fill="#000000"
     id="path15" />
  <path
     d="m 309.0487,167.89714 c 4.623,0 8.371,-3.749 8.371,-8.374 0,-4.624 -3.748,-8.374 -8.371,-8.374 -4.622,0 -8.37,3.75 -8.37,8.374 0,4.625 3.748,8.374 8.37,8.374 z"
     fill="#000000"
     id="path16" />
  <path
     d="m 312.0457,122.42814 c 4.593,0 8.316,-3.725 8.316,-8.32 0,-4.595 -3.723,-8.32 -8.316,-8.32 -4.594,0 -8.317,3.725 -8.317,8.32 0,4.595 3.723,8.32 8.317,8.32 z"
     fill="#000000"
     id="path17" />
  <path
     d="m 305.5847,131.31314 c 4.622,0 8.37,-3.749 8.37,-8.374 0,-4.624 -3.748,-8.374 -8.37,-8.374 -4.623,0 -8.371,3.75 -8.371,8.374 0,4.625 3.748,8.374 8.371,8.374 z"
     fill="#000000"
     id="path18" />
  <path
     d="m 317.2367,134.37414 c 4.623,0 8.37,-3.749 8.37,-8.374 0,-4.625 -3.747,-8.374 -8.37,-8.374 -4.623,0 -8.37,3.749 -8.37,8.374 0,4.625 3.747,8.374 8.37,8.374 z"
     fill="#000000"
     id="path19" />
  <path
     d="m 301.1627,142.83714 c 4.623,0 8.37,-3.749 8.37,-8.374 0,-4.625 -3.747,-8.374 -8.37,-8.374 -4.623,0 -8.371,3.749 -8.371,8.374 0,4.625 3.748,8.374 8.371,8.374 z"
     fill="#000000"
     id="path20" />
  <path
     d="m 323.5647,168.32814 c 4.904,0 8.879,-3.977 8.879,-8.883 0,-4.906 -3.975,-8.883 -8.879,-8.883 -4.905,0 -8.88,3.977 -8.88,8.883 0,4.906 3.975,8.883 8.88,8.883 z"
     fill="#000000"
     id="path21" />
  <path
     d="m 323.5767,78.470136 c 11.34,-0.062 20.598,9.1 20.659,20.445 l 0.278,51.385004 c 0.039,7.16 -5.74,13.002 -12.895,13.041 l -15.163,0.082 c -7.157,0.039 -12.997,-5.743 -13.035,-12.9 l -0.278,-51.386004 c -0.062,-11.344 9.096,-20.606 20.436,-20.667 z"
     fill="#000000"
     id="path22" />
  <path
     d="m 343.5217,150.98714 c 4.623,0 8.371,-3.749 8.371,-8.374 0,-4.625 -3.748,-8.374 -8.371,-8.374 -4.623,0 -8.37,3.749 -8.37,8.374 0,4.625 3.747,8.374 8.37,8.374 z"
     fill="#000000"
     id="path23" />
  <path
     d="m 348.6657,157.86014 c 4.623,0 8.37,-3.749 8.37,-8.374 0,-4.625 -3.747,-8.374 -8.37,-8.374 -4.623,0 -8.371,3.749 -8.371,8.374 0,4.625 3.748,8.374 8.371,8.374 z"
     fill="#000000"
     id="path24" />
  <path
     d="m 336.4937,162.94614 c 4.623,0 8.37,-3.749 8.37,-8.374 0,-4.625 -3.747,-8.374 -8.37,-8.374 -4.623,0 -8.371,3.749 -8.371,8.374 0,4.625 3.748,8.374 8.371,8.374 z"
     fill="#000000"
     id="path25" />
  <path
     d="m 339.5857,165.70814 c 4.622,0 8.37,-3.749 8.37,-8.374 0,-4.625 -3.748,-8.374 -8.37,-8.374 -4.623,0 -8.371,3.749 -8.371,8.374 0,4.625 3.748,8.374 8.371,8.374 z"
     fill="#000000"
     id="path26" />
  <path
     d="m 341.7077,127.10014 c 4.593,0 8.316,-3.725 8.316,-8.32 0,-4.595 -3.723,-8.32 -8.316,-8.32 -4.594,0 -8.317,3.725 -8.317,8.32 0,4.595 3.723,8.32 8.317,8.32 z"
     fill="#000000"
     id="path27" />
  <path
     d="m 348.5427,135.34814 c 4.622,0 8.37,-3.749 8.37,-8.373 0,-4.625 -3.748,-8.374 -8.37,-8.374 -4.623,0 -8.371,3.749 -8.371,8.374 0,4.624 3.748,8.373 8.371,8.373 z"
     fill="#000000"
     id="path28" />
  <path
     d="m 337.7747,139.65914 c 4.623,0 8.37,-3.749 8.37,-8.374 0,-4.625 -3.747,-8.374 -8.37,-8.374 -4.623,0 -8.37,3.749 -8.37,8.374 0,4.625 3.747,8.374 8.37,8.374 z"
     fill="#000000"
     id="path29" />
  <path
     d="m 352.8487,144.69214 c 4.623,0 8.371,-3.749 8.371,-8.374 0,-4.624 -3.748,-8.374 -8.371,-8.374 -4.623,0 -8.37,3.75 -8.37,8.374 0,4.625 3.747,8.374 8.37,8.374 z"
     fill="#000000"
     id="path30" />
  <path
     d="m 330.9537,172.83814 c 4.904,0 8.88,-3.977 8.88,-8.883 0,-4.906 -3.976,-8.884 -8.88,-8.884 -4.904,0 -8.879,3.978 -8.879,8.884 0,4.906 3.975,8.883 8.879,8.883 z"
     fill="#000000"
     id="path31" />
  <path
     d="m 330.5817,121.42514 -11.255,0.762 0.518,7.626 11.254,-0.762 z"
     fill="#e5876a"
     id="path32" />
  <path
     d="m 324.2467,170.18014 c 4.673,0 8.46,-3.789 8.46,-8.464 0,-4.674 -3.787,-8.463 -8.46,-8.463 -4.672,0 -8.46,3.789 -8.46,8.463 0,4.675 3.788,8.464 8.46,8.464 z"
     fill="#000000"
     id="path33" />
  <path
     d="m 321.1847,84.938136 2.547,-0.173 c 8.172,-0.555 15.255,5.633 15.809,13.807 l 0.743,10.957004 c 0.47,6.938 -4.776,12.95 -11.711,13.421 l -7.079,0.48 c -6.908,0.469 -12.897,-4.762 -13.366,-11.673 l -0.746,-11.003 c -0.554,-8.176004 5.631,-15.262004 13.801,-15.816004 z"
     fill="#f9bb9b"
     id="path34" />
  <path
     d="m 319.8707,112.07014 c 0.714,0 1.293,-0.579 1.293,-1.293 0,-0.714 -0.579,-1.294 -1.293,-1.294 -0.714,0 -1.293,0.58 -1.293,1.294 0,0.714 0.579,1.293 1.293,1.293 z"
     fill="#e5876a"
     id="path35" />
  <path
     d="m 319.0467,137.17414 -0.855,1.832 c -0.674,1.443 -2.392,2.067 -3.834,1.394 l -32.63,-15.243 3.296,-7.061 32.63,15.243 c 1.441,0.673 2.066,2.393 1.393,3.835 z"
     fill="#f9bb9b"
     id="path36" />
  <path
     d="m 318.6317,138.10714 c 0.907,-1.942 0.06,-4.273 -1.882,-5.178 l -16.031,-7.489 -3.091,7.156 15.826,7.393 c 1.942,0.908 4.271,0.06 5.176,-1.882 z"
     fill="#f9bb9b"
     id="path37" />
  <path
     d="m 282.4127,126.11114 c 3.116,0 5.641,-2.527 5.641,-5.644 0,-3.117 -2.525,-5.644 -5.641,-5.644 -3.116,0 -5.641,2.527 -5.641,5.644 0,3.117 2.525,5.644 5.641,5.644 z"
     fill="#f9bb9b"
     id="path38" />
  <path
     d="m 366.4217,110.97014 4.148,6.596 -28.939,18.211 c -1.347,0.847 -3.13,0.441 -3.978,-0.907 l -1.076,-1.711 c -0.847,-1.348 -0.441,-3.131 0.906,-3.979 z"
     fill="#f9bb9b"
     id="path39" />
  <path
     d="m 369.1597,118.84314 c 3.116,0 5.641,-2.527 5.641,-5.644 0,-3.117 -2.525,-5.643 -5.641,-5.643 -3.115,0 -5.641,2.526 -5.641,5.643 0,3.117 2.526,5.644 5.641,5.644 z"
     fill="#f9bb9b"
     id="path40" />
  <path
     d="m 330.7457,158.96814 5.715,23.739 c 0.376,1.562 2.502,2.388 4.75,1.846 2.248,-0.541 3.765,-2.246 3.39,-3.808 l -5.715,-23.739 c -0.376,-1.562 -2.503,-2.388 -4.75,-1.847 -2.248,0.541 -3.766,2.247 -3.39,3.809 z"
     fill="#77daff"
     id="path41" />
  <path
     d="m 360.5307,168.74714 -21.752,8.51 c -2.153,0.842 -3.215,3.271 -2.373,5.425 0.841,2.153 3.269,3.216 5.422,2.374 l 21.752,-8.511 c 2.153,-0.842 3.215,-3.271 2.373,-5.424 -0.841,-2.154 -3.269,-3.217 -5.422,-2.374 z"
     fill="#77daff"
     id="path42" />
  <path
     d="m 319.8557,153.18214 -5.034,58.149 8.339,0.723 5.034,-58.149 z"
     fill="#8de1ff"
     id="path43" />
  <path
     d="m 310.7967,209.09514 11.973,0.364 c 0.819,0.025 1.463,0.71 1.438,1.529 l -0.084,2.761 c -0.014,0.473 -0.41,0.846 -0.883,0.831 l -14.735,-0.448 c -0.819,-0.024 -1.463,-0.709 -1.438,-1.528 0.061,-1.997 1.73,-3.571 3.729,-3.511 z"
     fill="#19359b"
     id="path44" />
  <path
     d="m 344.5257,139.40014 0.521,7.703 c 0.362,5.349 -2.588,10.155 -7.099,12.404 -1.478,0.742 -3.127,1.206 -4.879,1.325 l -7.655,0.519 c -7.099,0.482 -13.24,-4.885 -13.721,-11.985 l -0.521,-7.704 c -0.305,-4.499 1.736,-8.614 5.082,-11.148 1.015,-0.772 2.15,-1.395 3.376,-1.838 1.108,-0.402 2.289,-0.657 3.523,-0.741 l 7.654,-0.519 c 0.935,-0.064 1.854,-0.026 2.745,0.105 5.874,0.86 10.558,5.716 10.976,11.879 z"
     fill="#77daff"
     id="path45" />
  <path
     d="m 317.3247,131.23114 -7.233,-4.121 c -0.453,-0.259 -1.03,-0.108 -1.299,0.342 l -5.247,9.677 c -0.247,0.456 -0.028,1.023 0.459,1.196 l 11.213,3.97 z"
     fill="#77daff"
     id="path46" />
  <path
     d="m 335.7747,128.73914 9.025,-7.073 c 0.443,-0.382 1.121,-0.292 1.45,0.193 l 5.402,9.268 c 0.334,0.573 0.092,1.307 -0.515,1.57 l -9.755,4.221 -5.605,-8.179 z"
     fill="#77daff"
     id="path47" />
  <path
     d="m 345.0257,146.77514 0.022,0.325 c 0.362,5.349 -2.588,10.155 -7.1,12.403 -1.903,0.794 -3.988,1.264 -5.997,1.401 l -6.534,0.444 c -7.098,0.482 -13.242,-4.885 -13.724,-11.986 l -0.336,-4.949 c -0.022,-0.31 0.064,-0.617 0.243,-0.871 l 5.046,-7.212 -0.443,-6.804 c -0.026,-0.388 0.241,-0.724 0.599,-0.748 l 2.194,-0.15 c 0.356,-0.023 0.664,0.273 0.69,0.661 l 0.292,4.559 c 0.024,0.348 0.303,0.615 0.623,0.593 l 10.312,-0.376 c 0.322,-0.022 0.559,-0.324 0.535,-0.672 l -0.261,-5.296 c -0.006,-0.095 0.006,-0.189 0.032,-0.274 0.08,-0.261 0.298,-0.456 0.565,-0.476 l 2.194,-0.149 c 0.356,-0.024 0.664,0.272 0.69,0.66 l 0.844,7.292 9.508,11.625 z"
     fill="#19359b"
     id="path48" />
  <path
     d="m 320.5847,141.91514 9.582,-0.65 c 0.24,-0.017 0.448,0.165 0.464,0.405 l 0.272,4.005 c 0.144,2.136 -1.472,3.989 -3.608,4.134 l -2.711,0.184 c -2.135,0.145 -3.987,-1.473 -4.132,-3.609 l -0.272,-4.005 c -0.016,-0.24 0.165,-0.448 0.405,-0.464 z"
     stroke="#6ec8f1"
     stroke-miterlimit="10"
     id="path49" />
  <path
     d="m 322.4157,80.993136 0.12,1.779 c 0.637,9.393 -6.469,17.538004 -15.86,18.176004 l -0.12,-1.779004 c -0.637,-9.393 6.469,-17.539 15.86,-18.176 z"
     fill="#000000"
     id="path50" />
  <path
     d="m 340.6767,101.72614 c -9.409,0.638 -17.566,-6.486004 -18.204,-15.898004 l -0.121,-1.783 5.879,-0.399 c 6.166,-0.419 11.51,4.249 11.929,10.418 l 0.519,7.662004 z"
     fill="#000000"
     id="path51" />
  <path
     d="m 366.0617,178.38614 -4.876,-9.275 c -0.361,-0.687 -0.096,-1.539 0.591,-1.9 l 2.207,-1.162 c 0.588,-0.309 1.315,-0.082 1.623,0.505 l 6.038,11.485 c 0.361,0.687 0.096,1.539 -0.591,1.9 -1.806,0.951 -4.044,0.255 -4.994,-1.552 z"
     fill="#19359b"
     id="path52" />
  <path
     d="m 328.9357,109.39314 c 2.698,0 4.885,-2.188 4.885,-4.887 0,-2.7 -2.187,-4.888004 -4.885,-4.888004 -2.699,0 -4.886,2.188004 -4.886,4.888004 0,2.699 2.187,4.887 4.886,4.887 z"
     fill="#ffffff"
     id="path53" />
  <path
     d="m 324.8277,101.82514 c 2.318,-4.004004 8.363,-2.915004 9.296,1.584 0.272,1.34 -0.068,2.79 -0.905,3.807 -0.036,0.042 -0.098,0.05 -0.142,0.014 -0.035,-0.03 -0.045,-0.079 -0.025,-0.121 1.117,-2.209 0.525,-5.069 -1.57,-6.418 -2.059,-1.407004 -5.054,-0.798004 -6.487,1.242 -0.067,0.099 -0.23,-0.004 -0.167,-0.108 z"
     fill="#070782"
     id="path54" />
  <path
     d="m 328.2407,109.29414 c 1.22,0 2.208,-0.989 2.208,-2.209 0,-1.22 -0.988,-2.209 -2.208,-2.209 -1.219,0 -2.207,0.989 -2.207,2.209 0,1.22 0.988,2.209 2.207,2.209 z"
     fill="url(#paint0_linear_17600_19279)"
     id="path55"
     style="fill:url(#paint0_linear_17600_19279)" />
  <path
     d="m 312.7787,110.48914 c 2.698,0 4.886,-2.188 4.886,-4.888 0,-2.699 -2.188,-4.887 -4.886,-4.887 -2.698,0 -4.885,2.188 -4.885,4.887 0,2.7 2.187,4.888 4.885,4.888 z"
     fill="#ffffff"
     id="path56" />
  <path
     d="m 316.3357,102.52014 c -1.692,-1.827 -4.744,-2.026 -6.594,-0.354 -1.893,1.618 -2.096,4.531 -0.69,6.571 0.03,0.046 0.018,0.107 -0.028,0.139 -0.04,0.026 -0.089,0.02 -0.123,-0.01 -0.969,-0.895 -1.5,-2.284 -1.41,-3.649 0.077,-1.37 0.765,-2.685 1.814,-3.563 2.108,-1.818004 5.53,-1.502 7.183,0.739 0.071,0.099 -0.064,0.217 -0.152,0.129 z"
     fill="#070782"
     id="path57" />
  <path
     d="m 322.1007,81.196136 c -2.719,0.229 -5.402,1.027 -7.744,2.434 l -0.008,0.004 c -0.029,0.018 -0.057,0.036 -0.087,0.052 -1.331,0.811 -2.566,1.781 -3.69,2.861 -1.933,1.861 -3.578,4.092 -4.579,6.593 -0.551,1.375 -0.903,2.844 -0.925,4.33 l -0.016,0.997 c 0.123,-7.781 9.264,-16.314 17.039,-16.19 9.61,-0.398 20.817,12.642 20.694,20.423004 l 0.016,-0.997 c 0.029,-1.887004 -0.935,-5.007004 -1.655,-6.736004 -0.852,-2.048 -1.966,-4.577 -3.384,-6.281 -1.506,-1.809 -2.922,-3.269 -4.919,-4.519 -2.727,-1.705 -5.562,-2.983 -8.774,-3.035 -0.657,-0.01 -1.313,0.01 -1.97,0.066 z"
     fill="#77daff"
     id="path58" />
  <path
     d="m 322.8127,115.18514 c -0.953,0.472 -2.075,0.342 -3.135,0.404 -0.519,0.03 -1.076,0.129 -1.44,0.501 -0.159,0.164 -0.271,0.371 -0.36,0.582 -0.137,0.324 -0.231,0.676 -0.211,1.028 0.038,0.677 0.497,1.276 1.07,1.634 0.875,0.549 2.16,0.924 3.131,0.404 0.537,-0.286 0.84,-0.661 1.49,-0.732 0.877,-0.098 1.792,0.083 2.628,-0.336 1.189,-0.599 2.888,-2.446 1.909,-3.843 -0.411,-0.589 -1.118,-0.961 -1.806,-1.129 -1.46,-0.352 -2.13,0.918 -3.28,1.485 z"
     fill="#a92c2c"
     id="path59" />
  <path
     d="m 313.7137,110.13214 c 1.22,0 2.208,-0.989 2.208,-2.209 0,-1.22 -0.988,-2.209 -2.208,-2.209 -1.219,0 -2.208,0.989 -2.208,2.209 0,1.22 0.989,2.209 2.208,2.209 z"
     fill="url(#paint1_linear_17600_19279)"
     id="path60"
     style="fill:url(#paint1_linear_17600_19279)" />
  <path
     d="m 340.0747,108.82714 c 2.298,0 4.161,-1.864 4.161,-4.163 0,-2.299 -1.863,-4.163 -4.161,-4.163 -2.299,0 -4.162,1.864 -4.162,4.163 0,2.299 1.863,4.163 4.162,4.163 z"
     fill="#f9bb9b"
     id="path61" />
  <path
     d="m 293.2657,34.636136 c 0,11.579 -9.385,20.968 -20.96,20.968 -0.696,0 -1.383,-0.034 -2.059,-0.101 -10.61,-1.035 -18.901,-9.984 -18.901,-20.867 0,-11.58 9.385,-20.969 20.96,-20.969 6.413,0 12.156,2.8835 15.997,7.423 3.097,3.653 4.963,8.38 4.963,13.546 z"
     fill="#f59c4e"
     stroke="#5e0606"
     stroke-width="2"
     stroke-miterlimit="10"
     id="path62" />
  <path
     d="m 262.7977,14.944636 c 0.37,-0.8218 0.565,-1.6994 0.482,-2.5929 -0.201,-2.1234 -1.84,-3.8626004 -3.869,-4.4019004 -1.003,-0.2667 -2.98,-0.5333 -2.763,1.0945 0.055,0.4159 0.224,0.9572004 0.081,1.3691004 -0.246,0.7045 -1.078,0.402 -1.42,-0.0577 -1.134,-1.5263004 -1.307,-3.9701004 -0.468,-5.6635004 0.951,-1.9184 3.372,-2.7721 5.316,-3.2398 2.737,-0.66060005 5.698,-0.58100005 8.41,0.1612 3.751,1.0289 7.111,3.4328 9.295,6.6506 0.082,0.1214 0.352,-1.0527 0.36,-1.1164 0.074,-0.6308 0.493,-2.2527 1.351,-1.3054 4.772,5.2874004 7.962,11.6713004 8.778,18.7997004 0.076,0.662 0.131,1.327 0.165,1.994 0.014,0.276 -0.131,1.747 0.038,1.896 0.29,0.422 0.959,0.207 1.363,-0.109 0.403,-0.317 0.879,-0.725 1.36,-0.547 0.39,0.143 0.549,0.601 0.629,1.008 0.531,2.731 -0.494,5.71 -2.59,7.537 -1.148,0.999 -2.938,1.631 -4.15,0.712 -0.519,-0.394 -0.825,-1.001 -1.124,-1.582 -1.424,-2.76 -3.087,-5.397 -4.968,-7.87 -0.46,-0.605 -0.939,-1.206 -1.528,-1.684 -0.539,-0.438 -1.16,-0.764 -1.802,-1.023 -4.416,-1.777 -9.483,-0.314 -14.139,-1.295 -0.907,-0.191 -1.876,-0.536 -2.352,-1.334 -0.264,-0.443 -0.399,-0.947 -0.543,-1.438 -0.085,-0.293 -0.455,-0.9914 -0.322,-1.278 0.068,-0.1453 0.199,-0.2488 0.326,-0.3443 0.816,-0.6228 1.691,-1.1999 2.403,-1.9402 0.476,-0.4935 1.685,-1.6597 1.685,-2.4 z"
     fill="#f59c4e"
     id="path63" />
  <path
     d="m 262.1657,16.196436 c 0.348,-0.4338 0.632,-0.8935 0.632,-1.2537 0.37,-0.8219 0.565,-1.6995 0.482,-2.593 -0.201,-2.1233 -1.84,-3.8626004 -3.869,-4.4019004 -1.003,-0.2666 -2.98,-0.5333 -2.763,1.0945 0.055,0.4159 0.224,0.9572 0.081,1.3691004 -0.246,0.7045 -1.078,0.402 -1.42,-0.0577 -1.134,-1.5263004 -1.307,-3.9700004 -0.468,-5.6635004 0.951,-1.9184 3.372,-2.7721 5.316,-3.2397 2.737,-0.66070005 5.698,-0.58110005 8.41,0.1612 3.751,1.0288 7.111,3.4327 9.295,6.6505 0.082,0.1214 0.352,-1.0527 0.36,-1.1163 0.074,-0.6309 0.493,-2.2527 1.351,-1.3055 3.722,4.1253 6.483,8.9172004 7.905,14.2107004"
     stroke="#5e0606"
     stroke-width="2"
     stroke-miterlimit="10"
     id="path64" />
  <path
     d="m 293.2657,34.635136 c 0,11.58 -9.385,20.968 -20.96,20.968 -0.696,0 -1.382,-0.033 -2.059,-0.101 1.065,-0.275 2.113,-0.601 3.161,-0.925 2.178,-0.673 4.372,-1.356 6.367,-2.456 3.265,-1.795 6.276,-4.688 8.445,-7.703 1.923,-2.677 2.898,-5.911 3.168,-9.172 0.263,-3.146 -0.163,-6.342 -1.209,-9.298 -0.35,-0.985 -0.766,-1.944 -1.251,-2.863 -0.255,-0.486 -0.677,-1.327 -0.625,-1.996 3.097,3.654 4.963,8.38 4.963,13.546 z"
     fill="#e88943"
     id="path65" />
  <path
     d="m 277.0887,34.506136 c 0.16,-3.05 -0.534,-5.566 -1.55,-5.619 -1.015,-0.054 -1.969,2.375 -2.129,5.425 -0.161,3.05 0.533,5.566 1.549,5.62 1.016,0.053 1.969,-2.376 2.13,-5.426 z"
     fill="url(#paint2_linear_17600_19279)"
     id="path66"
     style="fill:url(#paint2_linear_17600_19279)" />
  <path
     d="m 287.3657,20.053136 c 0.324,0.334 0.636,0.68 0.939,1.037 3.097,3.653 4.963,8.379 4.963,13.545 0,11.58 -9.385,20.969 -20.96,20.969 -0.696,0 -1.383,-0.034 -2.059,-0.101 -10.61,-1.035 -18.901,-9.984 -18.901,-20.868 0,-7.954 4.428,-14.8748 10.952,-18.4289"
     stroke="#5e0606"
     stroke-width="2"
     stroke-linecap="round"
     stroke-linejoin="round"
     id="path67" />
  <path
     d="m 263.7167,33.803136 c 0.16,-3.05 -0.534,-5.566 -1.55,-5.62 -1.016,-0.053 -1.969,2.376 -2.129,5.426 -0.161,3.05 0.533,5.566 1.549,5.62 1.016,0.053 1.969,-2.376 2.13,-5.426 z"
     fill="url(#paint3_linear_17600_19279)"
     id="path68"
     style="fill:url(#paint3_linear_17600_19279)" />
  <path
     d="m 263.0427,44.056136 c -2.873,6.613 -4.158,13.042 -4.709,19.39 2.457,0.615 10.688,-9.171 11.738,-17.34 0,0 -1.706,-6.555 -7.029,-2.048 z"
     fill="url(#paint4_linear_17600_19279)"
     id="path69"
     style="fill:url(#paint4_linear_17600_19279)" />
  <path
     d="m 328.9347,109.51814 c 1.884,0 3.412,-1.528 3.412,-3.413 0,-1.885 -1.528,-3.413 -3.412,-3.413 -1.884,0 -3.411,1.528 -3.411,3.413 0,1.885 1.527,3.413 3.411,3.413 z"
     fill="url(#paint5_linear_17600_19279)"
     id="path70"
     style="fill:url(#paint5_linear_17600_19279)" />
  <path
     d="m 326.4287,104.61714 c 0.306,0 0.553,-0.247 0.553,-0.553 0,-0.306 -0.247,-0.553 -0.553,-0.553 -0.305,0 -0.553,0.247 -0.553,0.553 0,0.306 0.248,0.553 0.553,0.553 z"
     fill="#ffffff"
     id="path71" />
  <path
     d="m 313.7137,110.33614 c 1.885,0 3.412,-1.528 3.412,-3.412 0,-1.885 -1.527,-3.413 -3.412,-3.413 -1.884,0 -3.411,1.528 -3.411,3.413 0,1.884 1.527,3.412 3.411,3.412 z"
     fill="url(#paint6_linear_17600_19279)"
     id="path72"
     style="fill:url(#paint6_linear_17600_19279)" />
  <path
     d="m 311.2077,105.43614 c 0.305,0 0.553,-0.248 0.553,-0.554 0,-0.305 -0.248,-0.553 -0.553,-0.553 -0.306,0 -0.553,0.248 -0.553,0.553 0,0.306 0.247,0.554 0.553,0.554 z"
     fill="#ffffff"
     id="path73" />
  <defs
     id="defs114">
    <linearGradient
       id="paint0_linear_17600_19279"
       x1="353.81201"
       y1="189.367"
       x2="353.53299"
       y2="185.341"
       gradientUnits="userSpaceOnUse"
       gradientTransform="translate(-25.403299,-79.998864)">
      <stop
         stop-color="#2BB673"
         id="stop73" />
      <stop
         offset="0.06"
         stop-color="#25A676"
         id="stop74" />
      <stop
         offset="0.29"
         stop-color="#136D81"
         id="stop75" />
      <stop
         offset="0.46"
         stop-color="#074A88"
         id="stop76" />
      <stop
         offset="0.55"
         stop-color="#033D8B"
         id="stop77" />
      <stop
         offset="0.6"
         stop-color="#05377D"
         id="stop78" />
      <stop
         offset="0.66"
         stop-color="#073371"
         id="stop79" />
      <stop
         offset="0.75"
         stop-color="#08306A"
         id="stop80" />
      <stop
         offset="1"
         stop-color="#093069"
         id="stop81" />
    </linearGradient>
    <linearGradient
       id="paint1_linear_17600_19279"
       x1="339.285"
       y1="190.205"
       x2="339.00299"
       y2="186.179"
       gradientUnits="userSpaceOnUse"
       gradientTransform="translate(-25.403299,-79.998864)">
      <stop
         stop-color="#2BB673"
         id="stop82" />
      <stop
         offset="0.06"
         stop-color="#25A676"
         id="stop83" />
      <stop
         offset="0.29"
         stop-color="#136D81"
         id="stop84" />
      <stop
         offset="0.46"
         stop-color="#074A88"
         id="stop85" />
      <stop
         offset="0.55"
         stop-color="#033D8B"
         id="stop86" />
      <stop
         offset="0.6"
         stop-color="#05377D"
         id="stop87" />
      <stop
         offset="0.66"
         stop-color="#073371"
         id="stop88" />
      <stop
         offset="0.75"
         stop-color="#08306A"
         id="stop89" />
      <stop
         offset="1"
         stop-color="#093069"
         id="stop90" />
    </linearGradient>
    <linearGradient
       id="paint2_linear_17600_19279"
       x1="300.34799"
       y1="114.135"
       x2="304.07501"
       y2="117.745"
       gradientUnits="userSpaceOnUse"
       gradientTransform="translate(-25.403299,-79.998864)">
      <stop
         stop-color="#772828"
         id="stop91" />
      <stop
         offset="0.82"
         stop-color="#491010"
         id="stop92" />
    </linearGradient>
    <linearGradient
       id="paint3_linear_17600_19279"
       x1="286.51801"
       y1="112.804"
       x2="291.08899"
       y2="118.326"
       gradientUnits="userSpaceOnUse"
       gradientTransform="translate(-25.403299,-79.998864)">
      <stop
         stop-color="#772828"
         id="stop93" />
      <stop
         offset="0.82"
         stop-color="#491010"
         id="stop94" />
    </linearGradient>
    <linearGradient
       id="paint4_linear_17600_19279"
       x1="285.78201"
       y1="129.89"
       x2="293.5"
       y2="138.73801"
       gradientUnits="userSpaceOnUse"
       gradientTransform="translate(-25.403299,-79.998864)">
      <stop
         stop-color="#772828"
         id="stop95" />
      <stop
         offset="0.82"
         stop-color="#491010"
         id="stop96" />
    </linearGradient>
    <linearGradient
       id="paint5_linear_17600_19279"
       x1="354.59399"
       y1="189.64"
       x2="354.16"
       y2="183.41901"
       gradientUnits="userSpaceOnUse"
       gradientTransform="translate(-25.403299,-79.998864)">
      <stop
         stop-color="#2BB673"
         id="stop97" />
      <stop
         offset="0.06"
         stop-color="#25A676"
         id="stop98" />
      <stop
         offset="0.29"
         stop-color="#136D81"
         id="stop99" />
      <stop
         offset="0.46"
         stop-color="#074A88"
         id="stop100" />
      <stop
         offset="0.55"
         stop-color="#033D8B"
         id="stop101" />
      <stop
         offset="0.6"
         stop-color="#05377D"
         id="stop102" />
      <stop
         offset="0.66"
         stop-color="#073371"
         id="stop103" />
      <stop
         offset="0.75"
         stop-color="#08306A"
         id="stop104" />
      <stop
         offset="1"
         stop-color="#093069"
         id="stop105" />
    </linearGradient>
    <linearGradient
       id="paint6_linear_17600_19279"
       x1="339.37201"
       y1="190.45799"
       x2="338.93799"
       y2="184.239"
       gradientUnits="userSpaceOnUse"
       gradientTransform="translate(-25.403299,-79.998864)">
      <stop
         stop-color="#2BB673"
         id="stop106" />
      <stop
         offset="0.06"
         stop-color="#25A676"
         id="stop107" />
      <stop
         offset="0.29"
         stop-color="#136D81"
         id="stop108" />
      <stop
         offset="0.46"
         stop-color="#074A88"
         id="stop109" />
      <stop
         offset="0.55"
         stop-color="#033D8B"
         id="stop110" />
      <stop
         offset="0.6"
         stop-color="#05377D"
         id="stop111" />
      <stop
         offset="0.66"
         stop-color="#073371"
         id="stop112" />
      <stop
         offset="0.75"
         stop-color="#08306A"
         id="stop113" />
      <stop
         offset="1"
         stop-color="#093069"
         id="stop114" />
    </linearGradient>
  </defs>
</svg>
