<svg width="196" height="88" viewBox="0 0 196 88" fill="none" xmlns="http://www.w3.org/2000/svg">
    <g clip-path="url(#clip0_8528_30088)">
        <path
            d="M195.306 0.837338C194.643 0.118056 193.685 -0.160869 192.742 0.0907295L135.432 15.3964C134.507 15.6433 133.817 16.3475 133.585 17.2799C133.353 18.2124 133.633 19.1599 134.333 19.8147L148.511 33.07L146.406 46.9804C146.327 47.5069 146.581 48.0019 147.054 48.2417C147.231 48.3312 147.417 48.3749 147.602 48.3748C147.809 48.3748 148.012 48.3187 148.194 48.2118C148.195 48.2113 148.196 48.2113 148.197 48.2109L158.943 42.8224L173.548 56.4768C174.033 56.9307 174.662 57.1741 175.307 57.1741C175.515 57.1741 175.725 57.149 175.932 57.0973C176.783 56.8858 177.464 56.2631 177.754 55.4315L195.85 3.46359C196.172 2.53845 195.969 1.55662 195.306 0.837338ZM147.378 47.5968C147.226 47.52 147.078 47.3464 147.117 47.0891L149.148 33.6655L155.293 39.4103L147.934 47.5104C147.753 47.6896 147.528 47.6731 147.378 47.5968ZM149.476 32.9848L185.086 10.0107L155.792 38.8899L149.476 32.9848ZM149.681 46.6595L155.819 39.9023L158.381 42.297L149.681 46.6595ZM195.171 3.22511L177.075 55.1929C176.866 55.7936 176.374 56.2436 175.76 56.3962C175.145 56.5492 174.501 56.3814 174.037 55.9479L156.319 39.3823L188.082 8.06844C188.214 7.93879 188.226 7.73016 188.111 7.58546C187.996 7.44065 187.791 7.40658 187.636 7.50673L148.932 32.4768L134.823 19.2859C134.317 18.813 134.115 18.1285 134.283 17.455C134.45 16.7814 134.949 16.2728 135.616 16.0945L192.926 0.788944C193.607 0.606927 194.3 0.808567 194.778 1.32813C195.257 1.8477 195.404 2.55687 195.171 3.22511Z"
            fill="#F2F2F2" />
        <path
            d="M-38.6405 87.9985C-38.6833 87.9985 -38.7268 87.9908 -38.7692 87.9744C-38.9545 87.903 -39.0471 87.6941 -38.9761 87.5079C-38.8437 87.161 -38.7067 86.8116 -38.5689 86.4694C-38.4944 86.2845 -38.2847 86.1957 -38.101 86.2701C-37.917 86.345 -37.8282 86.5556 -37.9027 86.7405C-38.0388 87.0785 -38.1742 87.4238 -38.305 87.7665C-38.3597 87.9101 -38.4959 87.9985 -38.6405 87.9985ZM40.6223 87.7228C40.6147 87.7228 40.6073 87.7225 40.5997 87.7221C40.1071 87.6915 39.6061 87.6406 39.1107 87.5706C38.9141 87.5429 38.7772 87.3603 38.8047 87.1628C38.8321 86.9651 39.0133 86.8277 39.2106 86.8553C39.6876 86.9226 40.1699 86.9717 40.6439 87.0011C40.8421 87.0134 40.9928 87.1847 40.9806 87.3838C40.9689 87.5753 40.8107 87.7228 40.6223 87.7228ZM44.2853 87.5774C44.1089 87.5774 43.9551 87.447 43.9298 87.2664C43.9023 87.0689 44.0391 86.8864 44.2358 86.8586C44.7054 86.7922 45.1823 86.7059 45.6536 86.6021C45.8475 86.5597 46.0391 86.6827 46.0816 86.8776C46.124 87.0725 46.0014 87.2651 45.8075 87.3077C45.3185 87.4154 44.8234 87.5049 44.3357 87.5737C44.3188 87.5762 44.3018 87.5774 44.2853 87.5774ZM35.5907 86.7329C35.5537 86.7329 35.5161 86.7271 35.4789 86.7149C35.0141 86.5621 34.5426 86.3905 34.0773 86.2048C33.8929 86.1311 33.8028 85.9211 33.876 85.7358C33.9494 85.5504 34.1581 85.46 34.3428 85.5335C34.7942 85.7138 35.2515 85.8803 35.7023 86.0284C35.8909 86.0905 35.9939 86.2943 35.9322 86.4839C35.8826 86.6361 35.7419 86.7329 35.5907 86.7329ZM49.2288 86.2089C49.0876 86.2089 48.9535 86.1246 48.8965 85.9852C48.8208 85.8009 48.9083 85.5897 49.0919 85.5138C49.5319 85.3315 49.9756 85.1308 50.4106 84.9174C50.5888 84.8302 50.8041 84.9043 50.8913 85.0835C50.9784 85.2628 50.9044 85.479 50.726 85.5665C50.2775 85.7867 49.8199 85.9936 49.3657 86.1815C49.3208 86.2 49.2744 86.2089 49.2288 86.2089ZM30.8998 84.6378C30.8404 84.6378 30.7803 84.6228 30.7247 84.5916C30.2998 84.3528 29.8693 84.0976 29.4455 83.8336C29.2768 83.7285 29.2248 83.5058 29.3294 83.3363C29.434 83.1668 29.6555 83.1147 29.8243 83.2197C30.239 83.4781 30.6601 83.7277 31.0756 83.9612C31.2488 84.0586 31.3106 84.2787 31.2137 84.4527C31.148 84.5711 31.0257 84.6378 30.8998 84.6378ZM71.5703 84.007C71.3722 84.007 71.2113 83.8456 71.2109 83.6464C71.2106 83.4471 71.3712 83.285 71.5697 83.2847C72.0486 83.2838 72.5377 83.2729 73.0235 83.252C73.2195 83.2436 73.3894 83.3981 73.3978 83.5973C73.4063 83.7966 73.2524 83.9652 73.0541 83.9736C72.5587 83.995 72.0596 84.0062 71.5709 84.007C71.5707 84.007 71.5706 84.007 71.5703 84.007ZM67.9056 83.8092C67.8923 83.8092 67.8789 83.8084 67.8655 83.8069C67.5738 83.7743 67.2783 83.7371 66.987 83.6959C66.7883 83.668 66.5898 83.6379 66.3917 83.6055C66.1957 83.5736 66.0627 83.3881 66.0946 83.1912C66.1263 82.9943 66.3108 82.8606 66.5068 82.8927C66.6997 82.9241 66.8931 82.9535 67.0868 82.9807C67.3714 83.0208 67.6599 83.0573 67.9448 83.089C68.1421 83.1111 68.2843 83.2896 68.2623 83.4879C68.2419 83.6725 68.0862 83.8092 67.9056 83.8092ZM53.738 83.7444C53.6233 83.7444 53.5106 83.6894 53.441 83.5869C53.3289 83.4223 53.3711 83.1975 53.535 83.0849C53.9295 82.8142 54.3248 82.527 54.7098 82.2312C54.8675 82.1101 55.0932 82.1402 55.2136 82.2987C55.3342 82.4572 55.3041 82.6838 55.1464 82.8051C54.751 83.1085 54.3453 83.4036 53.9405 83.6814C53.8784 83.7241 53.8079 83.7444 53.738 83.7444ZM76.6943 83.6405C76.5173 83.6405 76.3632 83.5092 76.3386 83.3281C76.3118 83.1305 76.4495 82.9484 76.6461 82.9215C77.1188 82.8567 77.6034 82.7821 78.0863 82.6995C78.2828 82.6669 78.4677 82.7986 78.5008 82.995C78.5341 83.1917 78.4024 83.3782 78.2068 83.4115C77.7161 83.4953 77.2236 83.5713 76.7431 83.6371C76.7267 83.6394 76.7104 83.6405 76.6943 83.6405ZM-36.7511 83.5932C-36.8036 83.5932 -36.8568 83.5815 -36.9071 83.5572C-37.0858 83.4704 -37.1608 83.2546 -37.0744 83.075C-36.86 82.6285 -36.6375 82.1814 -36.413 81.7462C-36.3216 81.569 -36.1047 81.4999 -35.9286 81.5916C-35.7524 81.6835 -35.6836 81.9014 -35.7749 82.0784C-35.9962 82.5076 -36.2156 82.9487 -36.4272 83.3889C-36.4892 83.518 -36.6175 83.5932 -36.7511 83.5932ZM62.8713 82.7901C62.8377 82.7901 62.8034 82.7853 62.7693 82.7752C62.2973 82.6348 61.8211 82.4804 61.3542 82.3158C61.167 82.2497 61.0683 82.0436 61.134 81.8555C61.1998 81.6673 61.4049 81.5683 61.5921 81.6342C62.0477 81.7948 62.5123 81.9458 62.9729 82.0826C63.1633 82.1392 63.2719 82.3401 63.2156 82.5314C63.1696 82.6883 63.0265 82.7901 62.8713 82.7901ZM81.7414 82.6643C81.5796 82.6643 81.4327 82.5538 81.3926 82.3889C81.3454 82.1951 81.4635 81.9997 81.6562 81.9523C82.1176 81.839 82.5933 81.7157 83.0702 81.586C83.2619 81.5336 83.4592 81.6476 83.511 81.8401C83.563 82.0327 83.4497 82.231 83.2581 82.2831C82.7756 82.4144 82.294 82.5391 81.8271 82.6539C81.7982 82.661 81.7696 82.6643 81.7414 82.6643ZM26.6121 81.7931C26.5364 81.7931 26.4601 81.7693 26.3951 81.7198C26.0106 81.4267 25.6185 81.1178 25.2296 80.8017C25.0753 80.6762 25.0515 80.4488 25.1763 80.2938C25.3011 80.1386 25.5273 80.1148 25.6817 80.2402C26.0647 80.5516 26.4509 80.8557 26.8295 81.1443C26.9876 81.2648 27.0187 81.4913 26.8987 81.6502C26.8279 81.7439 26.7207 81.7931 26.6121 81.7931ZM86.6819 81.235C86.5306 81.235 86.39 81.1384 86.3403 80.9862C86.2786 80.7966 86.3815 80.5926 86.57 80.5307C87.0203 80.3825 87.4867 80.2244 87.9562 80.0611C88.1439 79.9958 88.3485 80.0957 88.4135 80.2843C88.4784 80.4728 88.3791 80.6784 88.1915 80.7436C87.718 80.9083 87.2477 81.0677 86.7936 81.2172C86.7567 81.2291 86.7189 81.235 86.6819 81.235ZM58.0905 80.9044C58.0369 80.9044 57.9826 80.8922 57.9313 80.8667C57.4889 80.6465 57.0461 80.4126 56.6156 80.1713C56.4422 80.0742 56.38 79.8543 56.4767 79.6801C56.5733 79.506 56.7919 79.4433 56.9656 79.5405C57.131 79.6332 57.2983 79.7247 57.4667 79.8149C57.8014 79.4818 58.1321 79.1367 58.45 78.7885C58.5843 78.6417 58.8115 78.6317 58.9578 78.7666C59.1041 78.9014 59.1138 79.1299 58.9796 79.2768C58.7064 79.5762 58.4236 79.8734 58.1373 80.1628C58.1749 80.1817 58.2127 80.2006 58.2503 80.2194C58.4282 80.3079 58.501 80.5245 58.4129 80.7033C58.3501 80.8306 58.2227 80.9044 58.0905 80.9044ZM91.5216 79.4918C91.3772 79.4918 91.2411 79.4039 91.1862 79.2604C91.1146 79.0743 91.207 78.8653 91.3922 78.7936C91.8486 78.6167 92.3033 78.4375 92.7565 78.2563C92.9411 78.1822 93.1499 78.273 93.2232 78.4583C93.2966 78.6437 93.2065 78.8536 93.0221 78.9273C92.5667 79.1095 92.1094 79.2897 91.6507 79.4674C91.6083 79.4838 91.5646 79.4918 91.5216 79.4918ZM-34.2851 79.0649C-34.3497 79.0649 -34.4151 79.0475 -34.474 79.0107C-34.6428 78.9058 -34.6948 78.6831 -34.5902 78.5136C-34.3292 78.0903 -34.0601 77.6693 -33.7903 77.2622C-33.6803 77.0963 -33.4573 77.051 -33.292 77.1618C-33.1268 77.2724 -33.0821 77.4966 -33.1921 77.6626C-33.4575 78.0631 -33.7223 78.4775 -33.9793 78.894C-34.0472 79.0042 -34.1648 79.0649 -34.2851 79.0649ZM22.6789 78.4669C22.5923 78.4669 22.5057 78.4357 22.4367 78.3724C22.0916 78.0556 21.7379 77.7263 21.3558 77.3657C21.2111 77.2291 21.2039 77.0006 21.3398 76.8552C21.4754 76.7096 21.7031 76.7024 21.8478 76.8392C22.2275 77.1976 22.5788 77.5245 22.9215 77.8392C23.068 77.9737 23.0784 78.2021 22.9444 78.3494C22.8735 78.4273 22.7764 78.4669 22.6789 78.4669ZM53.6986 78.2289C53.6252 78.2289 53.551 78.2062 53.4871 78.1595C53.088 77.867 52.6913 77.5609 52.3078 77.2496C52.1534 77.1242 52.1293 76.8967 52.254 76.7417C52.3787 76.5864 52.6051 76.5622 52.7594 76.6876C53.1339 76.9916 53.5211 77.2905 53.9106 77.5759C54.071 77.6935 54.1062 77.9195 53.9891 78.0804C53.9188 78.1775 53.8094 78.2289 53.6986 78.2289ZM96.2883 77.5552C96.1478 77.5552 96.0144 77.4719 95.9567 77.3335C95.8799 77.1495 95.9661 76.9379 96.1492 76.8607C96.6001 76.671 97.0503 76.4798 97.5 76.2871C97.6831 76.2086 97.8938 76.2945 97.9717 76.4778C98.0495 76.6611 97.9645 76.8734 97.7819 76.9516C97.3309 77.1448 96.8792 77.3366 96.4269 77.527C96.3817 77.5462 96.3346 77.5552 96.2883 77.5552ZM61.0321 76.5352C60.9591 76.5352 60.8853 76.5129 60.8217 76.4667C60.661 76.3497 60.6249 76.124 60.7412 75.9624C61.0223 75.5723 61.2996 75.1679 61.5657 74.7609C61.6747 74.5942 61.8974 74.5478 62.0633 74.6573C62.2292 74.7667 62.2755 74.9907 62.1664 75.1573C61.8944 75.5735 61.6108 75.987 61.3236 76.3859C61.2532 76.4833 61.1434 76.5352 61.0321 76.5352ZM101.008 75.5074C100.871 75.5074 100.739 75.4275 100.68 75.2929C100.599 75.1106 100.681 74.8973 100.862 74.8162C101.309 74.6166 101.755 74.4155 102.2 74.2132C102.382 74.1307 102.594 74.2116 102.676 74.3934C102.758 74.5752 102.678 74.7891 102.497 74.8713C102.05 75.0744 101.602 75.2758 101.154 75.4761C101.107 75.4973 101.057 75.5074 101.008 75.5074ZM18.9479 74.9126C18.858 74.9126 18.768 74.879 18.6983 74.8113C18.3461 74.4698 17.9938 74.1285 17.6406 73.7885C17.4974 73.6505 17.4926 73.4218 17.6299 73.2778C17.7674 73.1338 17.9949 73.1294 18.138 73.267C18.4917 73.6078 18.8446 73.9495 19.1974 74.2915C19.3402 74.43 19.3444 74.6587 19.2065 74.8022C19.1359 74.8756 19.0419 74.9126 18.9479 74.9126ZM-31.3258 74.8467C-31.4047 74.8467 -31.4841 74.8207 -31.5505 74.7673C-31.7053 74.6424 -31.7301 74.4151 -31.6059 74.2595C-31.2969 73.8727 -30.9774 73.4881 -30.6564 73.1161C-30.5264 72.9654 -30.2995 72.949 -30.1494 73.08C-29.9995 73.2106 -29.9833 73.4386 -30.1134 73.5893C-30.4285 73.9543 -30.7421 74.332 -31.0453 74.7115C-31.1162 74.8005 -31.2206 74.8467 -31.3258 74.8467ZM49.8281 74.8371C49.7338 74.8371 49.6396 74.7999 49.569 74.7262C49.2257 74.3671 48.8882 73.9956 48.5663 73.6218C48.4363 73.471 48.4526 73.243 48.6027 73.1125C48.7528 72.982 48.9797 72.9982 49.1096 73.1491C49.4236 73.5134 49.7524 73.8756 50.0873 74.2258C50.2248 74.3695 50.2202 74.5981 50.0771 74.7363C50.0075 74.8036 49.9177 74.8371 49.8281 74.8371ZM105.683 73.357C105.548 73.357 105.419 73.2803 105.358 73.1496C105.273 72.9691 105.35 72.754 105.53 72.669C105.972 72.4597 106.414 72.249 106.855 72.037C107.034 71.9508 107.248 72.0269 107.334 72.2069C107.42 72.3869 107.344 72.6025 107.165 72.6885C106.723 72.9012 106.28 73.1125 105.836 73.3225C105.786 73.3458 105.734 73.357 105.683 73.357ZM63.7057 72.1291C63.651 72.1291 63.5954 72.1166 63.5434 72.0899C63.3663 71.9997 63.2958 71.7823 63.3856 71.6045C63.6035 71.1728 63.8152 70.7299 64.0145 70.2881C64.0965 70.1066 64.3091 70.0259 64.4904 70.1084C64.6711 70.1908 64.7512 70.4049 64.6692 70.5865C64.4655 71.0378 64.2492 71.4904 64.0265 71.9313C63.963 72.0568 63.8368 72.1291 63.7057 72.1291ZM15.2082 71.367C15.1222 71.367 15.0359 71.3362 14.9671 71.2737C14.5942 70.9347 14.2263 70.6068 13.8736 70.2988C13.7239 70.1681 13.7078 69.94 13.8381 69.7894C13.9683 69.6386 14.1953 69.623 14.345 69.7536C14.7013 70.0646 15.0728 70.3959 15.4493 70.7381C15.5966 70.8718 15.6078 71.1003 15.4747 71.2482C15.4039 71.3269 15.3062 71.367 15.2082 71.367ZM110.31 71.105C110.178 71.105 110.051 71.0316 109.988 70.9047C109.9 70.7262 109.972 70.5094 110.15 70.4205C110.587 70.2017 111.024 69.9814 111.46 69.7598C111.637 69.6698 111.854 69.741 111.943 69.919C112.033 70.0971 111.962 70.3142 111.785 70.4042C111.347 70.6265 110.909 70.8475 110.47 71.0671C110.419 71.0927 110.364 71.105 110.31 71.105ZM-27.8452 71.0525C-27.9408 71.0525 -28.0363 71.0144 -28.1071 70.9389C-28.2431 70.7936 -28.2361 70.5651 -28.0916 70.4284C-27.7309 70.0874 -27.3603 69.7516 -26.99 69.4302C-26.8399 69.2998 -26.6129 69.3166 -26.4831 69.4675C-26.3534 69.6184 -26.37 69.8464 -26.5203 69.9768C-26.8829 70.2915 -27.246 70.6206 -27.5993 70.9545C-27.6684 71.0202 -27.7568 71.0525 -27.8452 71.0525ZM46.6261 70.8042C46.5088 70.8042 46.3939 70.7466 46.3249 70.6407C46.0531 70.2232 45.7907 69.7944 45.5449 69.3662C45.4457 69.1934 45.5047 68.9726 45.6767 68.8729C45.8486 68.7733 46.0684 68.8326 46.1676 69.0053C46.4067 69.422 46.6622 69.8392 46.9265 70.2455C47.0352 70.4123 46.9886 70.6361 46.8224 70.7453C46.7618 70.7852 46.6935 70.8042 46.6261 70.8042ZM114.887 68.7525C114.758 68.7525 114.633 68.6822 114.569 68.5592C114.476 68.3826 114.544 68.1643 114.72 68.0715C115.153 67.8432 115.585 67.6132 116.016 67.3821C116.192 67.2882 116.409 67.355 116.502 67.5308C116.596 67.7068 116.53 67.9255 116.354 68.0195C115.922 68.2514 115.488 68.4819 115.054 68.711C115.001 68.739 114.944 68.7525 114.887 68.7525ZM11.2591 68.0616C11.184 68.0616 11.1083 68.0382 11.0436 67.9893C10.6491 67.6918 10.2523 67.4038 9.86406 67.1329C9.70113 67.0193 9.66064 66.7943 9.77385 66.6303C9.88682 66.4667 10.1108 66.4259 10.274 66.5395C10.6694 66.8155 11.0734 67.1088 11.475 67.4116C11.6337 67.5312 11.6658 67.7577 11.5467 67.9172C11.4763 68.0118 11.3682 68.0616 11.2591 68.0616ZM-23.8494 67.8129C-23.9639 67.8129 -24.0765 67.758 -24.1461 67.6558C-24.2584 67.4914 -24.2166 67.2667 -24.0528 67.1539C-23.6447 66.8729 -23.2262 66.5988 -22.8088 66.3389C-22.6402 66.2339 -22.4186 66.2861 -22.3141 66.4558C-22.2095 66.6254 -22.2616 66.848 -22.4304 66.9531C-22.8383 67.2068 -23.2474 67.4749 -23.6465 67.7496C-23.7086 67.7925 -23.7793 67.8129 -23.8494 67.8129ZM65.6747 67.3618C65.6374 67.3618 65.5997 67.3559 65.5623 67.3436C65.3737 67.2813 65.2711 67.0773 65.333 66.8878C65.4835 66.4279 65.626 65.9579 65.7571 65.4909C65.8109 65.299 66.0091 65.1874 66.2005 65.2412C66.3915 65.2954 66.5027 65.4948 66.4489 65.6868C66.3151 66.1637 66.1694 66.6437 66.0159 67.1134C65.9661 67.2652 65.8256 67.3618 65.6747 67.3618ZM119.413 66.3003C119.286 66.3003 119.163 66.2331 119.098 66.114C119.002 65.9394 119.065 65.7197 119.238 65.6231C119.666 65.3851 120.093 65.146 120.519 64.9055C120.692 64.8074 120.911 64.8695 121.008 65.0434C121.106 65.2174 121.044 65.4374 120.871 65.5352C120.444 65.7766 120.015 66.0165 119.586 66.2551C119.531 66.2858 119.471 66.3003 119.413 66.3003ZM44.2544 66.2297C44.1118 66.2297 43.9769 66.1437 43.9206 66.0026C43.7367 65.5407 43.5637 65.0682 43.4063 64.5983C43.3431 64.4093 43.4443 64.2045 43.6325 64.1408C43.8213 64.0772 44.0244 64.179 44.0877 64.3681C44.2407 64.8253 44.409 65.2849 44.588 65.7342C44.6618 65.9195 44.5722 66.1296 44.3878 66.2037C44.344 66.2213 44.2988 66.2297 44.2544 66.2297ZM6.91803 65.3084C6.86448 65.3084 6.81021 65.2962 6.75893 65.2707C6.33246 65.0587 5.88969 64.8547 5.44273 64.6641C5.26004 64.5862 5.17475 64.3742 5.25225 64.1905C5.32977 64.0071 5.54061 63.9215 5.72354 63.9991C6.1832 64.1951 6.6389 64.4052 7.07771 64.6234C7.25561 64.7118 7.32857 64.9284 7.24052 65.1072C7.17775 65.2346 7.05028 65.3084 6.91803 65.3084ZM-19.392 65.2534C-19.5273 65.2534 -19.6569 65.1761 -19.718 65.0449C-19.802 64.8642 -19.7241 64.6493 -19.5443 64.5649C-19.0973 64.3555 -18.6395 64.1539 -18.1834 63.9661C-17.9996 63.8907 -17.7897 63.9789 -17.7145 64.1636C-17.6393 64.3482 -17.7272 64.559 -17.9109 64.6346C-18.3564 64.818 -18.8037 65.0147 -19.2402 65.2194C-19.2895 65.2425 -19.3411 65.2534 -19.392 65.2534ZM123.883 63.7493C123.76 63.7493 123.639 63.685 123.572 63.57C123.472 63.3976 123.53 63.1764 123.702 63.076C124.124 62.8287 124.546 62.5802 124.967 62.3304C125.138 62.2288 125.358 62.286 125.459 62.4578C125.56 62.6295 125.503 62.8509 125.332 62.9523C124.91 63.2028 124.487 63.452 124.064 63.7001C124.007 63.7334 123.945 63.7493 123.883 63.7493ZM2.11731 63.4803C2.08532 63.4803 2.05297 63.4759 2.02075 63.467C1.5587 63.3379 1.08514 63.2181 0.613262 63.1108C0.41967 63.0669 0.298199 62.8734 0.341923 62.6789C0.385651 62.4845 0.577919 62.3621 0.771751 62.4064C1.25501 62.516 1.73995 62.6388 2.21326 62.771C2.40458 62.8244 2.51635 63.0235 2.46328 63.2157C2.41908 63.3755 2.2746 63.4803 2.11731 63.4803ZM-14.5745 63.4708C-14.7322 63.4708 -14.8768 63.3657 -14.9209 63.2056C-14.9736 63.0133 -14.8613 62.8144 -14.67 62.7615C-14.196 62.63 -13.7112 62.508 -13.2287 62.3986C-13.0355 62.3548 -12.8427 62.4769 -12.7991 62.6717C-12.7555 62.8662 -12.8771 63.0595 -13.0707 63.1034C-13.5421 63.2101 -14.0158 63.3293 -14.4788 63.4576C-14.5108 63.4666 -14.543 63.4708 -14.5745 63.4708ZM-2.92876 62.5201C-2.94134 62.5201 -2.95403 62.5195 -2.96685 62.5181C-3.44604 62.4674 -3.93301 62.4273 -4.41423 62.3991C-4.61237 62.3875 -4.76368 62.2166 -4.75206 62.0175C-4.74044 61.8184 -4.56973 61.6689 -4.37231 61.678C-3.88006 61.7069 -3.38183 61.7479 -2.8915 61.7999C-2.69419 61.8208 -2.55092 61.9984 -2.57176 62.1969C-2.59129 62.3824 -2.74715 62.5201 -2.92876 62.5201ZM-9.52846 62.5154C-9.71031 62.5154 -9.86629 62.3775 -9.88545 62.1917C-9.90594 61.9933 -9.76266 61.8158 -9.56524 61.7951C-9.07455 61.7438 -8.57632 61.7034 -8.08444 61.6753C-7.88629 61.665 -7.71642 61.8161 -7.70516 62.0152C-7.6939 62.2143 -7.84532 62.3849 -8.04346 62.3964C-8.52421 62.4239 -9.0113 62.4634 -9.49085 62.5136C-9.50343 62.5148 -9.516 62.5154 -9.52846 62.5154ZM66.9086 62.3512C66.8886 62.3512 66.8684 62.3494 66.8481 62.346C66.6523 62.3128 66.5207 62.1263 66.5537 61.9296C66.6342 61.4521 66.7055 60.966 66.7657 60.4846C66.7903 60.2867 66.9705 60.1473 67.167 60.1712C67.3641 60.196 67.5036 60.3766 67.4789 60.5746C67.4175 61.0661 67.3448 61.5626 67.2626 62.0503C67.2327 62.2265 67.0807 62.3512 66.9086 62.3512ZM42.818 61.2768C42.6487 61.2768 42.4979 61.1561 42.4653 60.9828C42.3732 60.4952 42.2932 59.9985 42.2275 59.5067C42.2012 59.3089 42.3393 59.1273 42.5359 59.1007C42.7337 59.0751 42.9136 59.213 42.94 59.4105C43.0039 59.8895 43.0819 60.3732 43.1715 60.8482C43.2085 61.0442 43.0804 61.2331 42.8853 61.2703C42.8627 61.2748 42.8402 61.2768 42.818 61.2768ZM128.297 61.1004C128.176 61.1004 128.058 61.0391 127.99 60.9278C127.887 60.7576 127.94 60.5354 128.109 60.4312C128.526 60.1747 128.942 59.9171 129.357 59.6579C129.526 59.5529 129.748 59.6049 129.852 59.7743C129.957 59.9437 129.905 60.1664 129.737 60.2716C129.32 60.5314 128.903 60.7901 128.484 61.0472C128.426 61.0834 128.361 61.1004 128.297 61.1004ZM132.652 58.355C132.534 58.355 132.418 58.2965 132.35 58.1891C132.242 58.0213 132.291 57.7979 132.457 57.69C132.869 57.4243 133.279 57.1575 133.689 56.8892C133.855 56.7804 134.078 56.8275 134.186 56.9947C134.294 57.1618 134.247 57.3855 134.081 57.4944C133.67 57.7633 133.259 58.0312 132.846 58.2976C132.786 58.3365 132.719 58.355 132.652 58.355ZM67.3826 57.2115C67.3805 57.2115 67.3784 57.2115 67.3763 57.2114C67.1779 57.208 67.0196 57.0436 67.0231 56.8441C67.0263 56.6547 67.028 56.4651 67.028 56.2755C67.028 55.9796 67.0241 55.6798 67.0162 55.3841C67.0109 55.1848 67.1675 55.0188 67.3658 55.0135C67.5677 55.0048 67.7293 55.1656 67.7347 55.3649C67.7426 55.6669 67.7468 55.9734 67.7468 56.2755C67.7468 56.4692 67.7451 56.6629 67.7419 56.8565C67.7385 57.0538 67.5782 57.2115 67.3826 57.2115ZM42.3393 56.1402C42.1408 56.1402 41.9799 55.9784 41.9799 55.779C41.98 55.2828 41.9934 54.7799 42.0197 54.2844C42.0303 54.0852 42.2025 53.9324 42.3978 53.943C42.5959 53.9537 42.748 54.1238 42.7375 54.323C42.7119 54.8057 42.6988 55.2956 42.6987 55.7792C42.6987 55.9786 42.5378 56.1402 42.3393 56.1402ZM136.946 55.5135C136.83 55.5135 136.717 55.4578 136.647 55.3544C136.536 55.189 136.58 54.9646 136.744 54.853C137.15 54.5784 137.554 54.3025 137.958 54.0251C138.122 53.9127 138.345 53.9549 138.457 54.1194C138.569 54.2839 138.527 54.5087 138.363 54.6214C137.959 54.8996 137.553 55.1762 137.147 55.4518C137.085 55.4935 137.015 55.5135 136.946 55.5135ZM141.176 52.5773C141.063 52.5773 140.952 52.5242 140.882 52.4246C140.767 52.2617 140.806 52.0363 140.968 51.9212C141.367 51.6376 141.765 51.3525 142.163 51.0664C142.324 50.9502 142.549 50.9874 142.664 51.1494C142.78 51.3115 142.743 51.5372 142.582 51.6535C142.183 51.9406 141.784 52.2264 141.383 52.5108C141.32 52.5557 141.247 52.5773 141.176 52.5773ZM67.0749 52.0594C66.8983 52.0594 66.7442 51.9287 66.7193 51.7479C66.6527 51.2659 66.5748 50.7811 66.4875 50.3066C66.4514 50.1105 66.5803 49.9223 66.7756 49.8859C66.9693 49.8493 67.1581 49.9791 67.1943 50.1754C67.2834 50.6602 67.3632 51.1559 67.4313 51.6485C67.4586 51.8461 67.3213 52.0285 67.1246 52.0559C67.1079 52.0583 67.0914 52.0594 67.0749 52.0594ZM42.8193 51.0038C42.797 51.0038 42.7745 51.0016 42.7519 50.9973C42.5568 50.9601 42.4288 50.7712 42.4657 50.5752C42.5578 50.0867 42.6642 49.5951 42.7822 49.114C42.8296 48.9204 43.0241 48.8015 43.2172 48.8497C43.4098 48.8973 43.5277 49.093 43.4801 49.2868C43.3652 49.7553 43.2616 50.2341 43.1719 50.7097C43.1393 50.883 42.9885 51.0038 42.8193 51.0038ZM65.9678 47.0196C65.8141 47.0196 65.6719 46.9198 65.6245 46.7645C65.4822 46.2995 65.3276 45.8339 65.1652 45.3804C65.098 45.1927 65.1949 44.9859 65.3818 44.9182C65.5684 44.8509 65.7745 44.9482 65.8417 45.1359C66.0078 45.5998 66.1658 46.0764 66.3115 46.5523C66.3699 46.743 66.2635 46.945 66.0737 47.0036C66.0384 47.0146 66.0028 47.0196 65.9678 47.0196ZM44.2502 46.0499C44.206 46.0499 44.1609 46.0418 44.1173 46.0242C43.9329 45.9504 43.843 45.7404 43.9164 45.5551C44.0996 45.0929 44.298 44.6308 44.5061 44.1814C44.5897 44.0004 44.8032 43.9221 44.9835 44.0061C45.1634 44.0902 45.2414 44.305 45.1577 44.4859C44.9554 44.9232 44.7623 45.3728 44.5842 45.8224C44.5281 45.9638 44.393 46.0499 44.2502 46.0499ZM64.0317 42.2415C63.904 42.2415 63.7801 42.1729 63.715 42.0521C63.4824 41.6193 63.2355 41.2002 62.9813 40.8064C62.8732 40.639 62.9207 40.4154 63.0872 40.3069C63.2541 40.1984 63.4764 40.246 63.5842 40.4133C63.8489 40.8232 64.1057 41.2591 64.3475 41.7087C64.4417 41.8843 64.3767 42.1033 64.202 42.1981C64.1478 42.2275 64.0893 42.2415 64.0317 42.2415ZM46.6318 41.483C46.5613 41.483 46.49 41.4622 46.4276 41.4187C46.2644 41.3052 46.2237 41.0801 46.3368 40.9163C46.623 40.5009 46.9271 40.0966 47.2406 39.7146C47.3668 39.5608 47.5932 39.5387 47.7467 39.6657C47.8997 39.7926 47.9214 40.0203 47.7952 40.1741C47.4944 40.5407 47.2026 40.9287 46.9276 41.3275C46.8578 41.4287 46.7458 41.483 46.6318 41.483ZM60.9265 38.1537C60.8414 38.1537 60.7558 38.1235 60.6873 38.062C60.3255 37.7376 59.949 37.445 59.5678 37.1925C59.4021 37.0827 59.3563 36.8588 59.4655 36.6922C59.5748 36.5257 59.7977 36.4797 59.9634 36.5895C60.3736 36.8612 60.7782 37.1754 61.1659 37.5232C61.3138 37.656 61.3269 37.8843 61.1947 38.0331C61.1237 38.113 61.0254 38.1537 60.9265 38.1537ZM50.1703 37.7645C50.059 37.7645 49.9494 37.7129 49.879 37.6155C49.7624 37.4541 49.7981 37.2282 49.9587 37.1111C50.3775 36.8056 50.8085 36.5317 51.2396 36.297C51.4141 36.202 51.6323 36.2671 51.7267 36.4424C51.8212 36.6178 51.7564 36.837 51.5818 36.932C51.1784 37.1517 50.7743 37.4086 50.381 37.6956C50.3173 37.7422 50.2433 37.7645 50.1703 37.7645ZM56.364 35.9581C56.3489 35.9581 56.3337 35.9571 56.3183 35.9552C56.2842 35.9509 56.2497 35.9468 56.2152 35.9428C55.7866 35.8946 55.3516 35.8854 54.9223 35.9151C54.7241 35.9278 54.5528 35.7787 54.5391 35.5795C54.5256 35.3805 54.6751 35.2081 54.873 35.1944C55.3454 35.1618 55.8239 35.1721 56.2947 35.2248C56.3327 35.2291 56.3708 35.2336 56.4087 35.2384C56.6056 35.2635 56.7451 35.4442 56.7201 35.6421C56.697 35.8247 56.5424 35.958 56.364 35.9581Z"
            fill="#F2F2F2" />
    </g>
    <defs>
        <clipPath id="clip0_8528_30088">
            <rect width="235" height="88" fill="white" transform="translate(-39)" />
        </clipPath>
    </defs>
</svg>