<svg width="126" height="42" viewBox="0 0 126 42" fill="none" xmlns="http://www.w3.org/2000/svg">
    <path
        d="M0.358509 36.9957C0.315848 36.9933 0.273011 36.9848 0.23186 36.9694C0.0520142 36.9025 -0.0256704 36.7318 0.0582902 36.5882C0.214737 36.3206 0.376014 36.0514 0.537508 35.7878C0.624841 35.6454 0.840205 35.5868 1.01829 35.6561C1.19657 35.7257 1.27031 35.8975 1.18298 36.0399C1.02346 36.3002 0.864139 36.5663 0.709542 36.8306C0.644831 36.9414 0.502745 37.0038 0.358509 36.9957ZM79.4444 41.2062C79.4369 41.2058 79.4295 41.2052 79.422 41.2044C78.9328 41.1526 78.4366 41.0842 77.9473 41.0011C77.7531 40.9682 77.6294 40.8158 77.6708 40.6608C77.712 40.5057 77.9024 40.4069 78.0973 40.4398C78.5684 40.5198 79.046 40.5856 79.5168 40.6354C79.7136 40.6562 79.8519 40.8004 79.8257 40.9575C79.8006 41.1087 79.6324 41.2167 79.4444 41.2062ZM83.1086 41.2956C82.9327 41.2858 82.7884 41.1738 82.7759 41.0293C82.7623 40.8712 82.9116 40.7342 83.1098 40.7232C83.5829 40.6968 84.0647 40.6551 84.5421 40.5992C84.7386 40.5763 84.921 40.6845 84.9497 40.8414C84.9783 40.9982 84.8424 41.144 84.6461 41.1669C84.1507 41.225 83.6505 41.2682 83.1592 41.2956C83.1421 41.2965 83.1251 41.2965 83.1086 41.2956ZM74.4949 40.1405C74.458 40.1384 74.4209 40.1317 74.3847 40.12C73.9318 39.9729 73.4735 39.8106 73.0224 39.6374C72.8437 39.5687 72.7686 39.3972 72.8547 39.2544C72.9408 39.1116 73.1554 39.0516 73.3345 39.1202C73.7721 39.2883 74.2166 39.4459 74.6559 39.5884C74.8396 39.6482 74.928 39.8154 74.8531 39.9623C74.793 40.0801 74.6458 40.1489 74.4949 40.1405ZM88.1361 40.4872C87.9952 40.4793 87.8674 40.4051 87.8204 40.2914C87.7578 40.1411 87.86 39.9786 88.0484 39.9287C88.5002 39.8088 88.9569 39.6746 89.4058 39.5297C89.5898 39.4706 89.7993 39.5413 89.8737 39.6882C89.9479 39.8352 89.8589 40.0024 89.6748 40.0618C89.2119 40.2112 88.7409 40.3497 88.2746 40.4732C88.2285 40.4853 88.1817 40.4898 88.1361 40.4872ZM69.963 38.2179C69.9038 38.2146 69.8448 38.1994 69.7916 38.1715C69.3845 37.9585 68.9731 37.7322 68.5689 37.4993C68.408 37.4066 68.3718 37.2271 68.488 37.0987C68.6043 36.9702 68.8289 36.9412 68.9899 37.0339C69.3854 37.2619 69.7879 37.4832 70.1859 37.6915C70.3519 37.7784 70.398 37.9562 70.2891 38.0888C70.2153 38.1789 70.0886 38.2249 69.963 38.2179ZM110.577 39.9905C110.38 39.9794 110.23 39.8426 110.244 39.6846C110.258 39.5266 110.429 39.4072 110.627 39.418C111.105 39.4441 111.594 39.4627 112.08 39.4734C112.276 39.4776 112.435 39.6095 112.429 39.7679C112.423 39.9264 112.258 40.0514 112.06 40.047C111.564 40.0363 111.065 40.0172 110.578 39.9905C110.578 39.9905 110.577 39.9905 110.577 39.9905ZM106.935 39.6289C106.922 39.6282 106.909 39.6269 106.896 39.6249C106.607 39.5827 106.315 39.5367 106.027 39.4878C105.831 39.4546 105.635 39.4197 105.44 39.3829C105.246 39.3467 105.127 39.1922 105.172 39.038C105.218 38.8837 105.411 38.788 105.605 38.8244C105.795 38.8601 105.986 38.8942 106.177 38.9266C106.458 38.9743 106.743 39.0193 107.025 39.0604C107.22 39.0889 107.35 39.2383 107.314 39.3942C107.281 39.5394 107.116 39.639 106.935 39.6289ZM92.8075 38.786C92.6931 38.7796 92.5845 38.7297 92.5223 38.6446C92.4221 38.5078 92.48 38.332 92.6514 38.252C93.0639 38.0594 93.4785 37.8539 93.8833 37.641C94.0491 37.5538 94.2721 37.5903 94.3811 37.7227C94.4903 37.855 94.4443 38.0329 94.2784 38.1202C93.8627 38.3386 93.4372 38.5498 93.0139 38.7474C92.949 38.7777 92.8772 38.7899 92.8075 38.786ZM115.714 39.9864C115.538 39.9765 115.393 39.8638 115.381 39.7189C115.369 39.5607 115.519 39.4242 115.717 39.4138C116.193 39.3889 116.681 39.3568 117.169 39.3183C117.367 39.3035 117.542 39.4182 117.562 39.5757C117.581 39.7335 117.437 39.8739 117.239 39.8894C116.744 39.9284 116.247 39.9611 115.763 39.9864C115.747 39.9873 115.73 39.9873 115.714 39.9864ZM2.55307 33.6099C2.50073 33.607 2.44849 33.5947 2.40001 33.5726C2.22782 33.4939 2.1682 33.3186 2.26699 33.1811C2.51229 32.8392 2.76565 32.4973 3.0202 32.1649C3.12384 32.0296 3.34511 31.9869 3.51432 32.0695C3.68365 32.1521 3.73692 32.3287 3.63341 32.4639C3.38251 32.7917 3.13256 33.129 2.89057 33.4661C2.81959 33.5649 2.68631 33.6174 2.55307 33.6099ZM101.985 38.54C101.952 38.5381 101.918 38.5324 101.885 38.5225C101.424 38.3848 100.959 38.2358 100.505 38.0793C100.323 38.0165 100.239 37.8476 100.318 37.7022C100.397 37.5567 100.608 37.4897 100.791 37.5524C101.234 37.7051 101.687 37.8507 102.136 37.985C102.322 38.0404 102.417 38.2058 102.347 38.3542C102.29 38.476 102.14 38.5487 101.985 38.54ZM120.818 39.4947C120.656 39.4857 120.517 39.3899 120.489 39.2569C120.455 39.1007 120.587 38.9524 120.783 38.9256C121.251 38.8616 121.734 38.7905 122.219 38.7143C122.414 38.6835 122.603 38.7849 122.641 38.9403C122.679 39.0959 122.552 39.2467 122.357 39.2773C121.867 39.3544 121.378 39.4264 120.904 39.4912C120.874 39.4952 120.846 39.4963 120.818 39.4947ZM65.8859 35.7238C65.8104 35.7195 65.736 35.6964 65.6747 35.6535C65.3117 35.3997 64.9423 35.133 64.5767 34.8607C64.4316 34.7527 64.4238 34.5711 64.5592 34.4552C64.6946 34.3392 64.9219 34.333 65.0671 34.441C65.4273 34.7092 65.7911 34.9718 66.1485 35.2217C66.2977 35.326 66.3128 35.5073 66.182 35.6265C66.1048 35.6968 65.9943 35.7298 65.8859 35.7238ZM125.846 38.638C125.695 38.6295 125.562 38.5451 125.523 38.4217C125.475 38.268 125.592 38.112 125.784 38.0735C126.244 37.9812 126.72 37.882 127.2 37.7788C127.392 37.7375 127.589 37.8281 127.64 37.9812C127.692 38.1342 127.578 38.2916 127.387 38.3329C126.903 38.4369 126.422 38.537 125.959 38.6301C125.921 38.6375 125.883 38.64 125.846 38.638ZM97.3489 36.7783C97.2955 36.7753 97.2421 36.7626 97.1928 36.7395C96.7669 36.5403 96.3417 36.3302 95.9292 36.1149C95.7631 36.0282 95.7166 35.8505 95.8253 35.7178C95.9338 35.5852 96.1563 35.5477 96.3227 35.6345C96.4813 35.7172 96.6416 35.7991 96.8033 35.88C97.1606 35.6347 97.5147 35.3796 97.8564 35.1215C98.0006 35.0126 98.228 35.0173 98.3645 35.1325C98.5009 35.2475 98.4945 35.4291 98.3503 35.538C98.0567 35.7601 97.7538 35.9798 97.4478 36.1932C97.484 36.2103 97.5203 36.2274 97.5565 36.2443C97.7278 36.3244 97.7852 36.5002 97.6846 36.637C97.6131 36.7343 97.4809 36.7857 97.3489 36.7783ZM130.797 37.5268C130.653 37.5187 130.523 37.4415 130.478 37.3247C130.42 37.1732 130.527 37.0127 130.717 36.9662C131.184 36.8515 131.65 36.7349 132.115 36.6166C132.305 36.5681 132.507 36.6518 132.567 36.8028C132.627 36.9538 132.522 37.1152 132.333 37.1633C131.866 37.2822 131.397 37.3994 130.927 37.5146C130.884 37.5253 130.839 37.5292 130.797 37.5268ZM5.33144 30.1588C5.26703 30.1552 5.20301 30.1377 5.1468 30.1053C4.9858 30.0127 4.9496 29.8332 5.06585 29.7047C5.35601 29.3839 5.65401 29.0653 5.95175 28.7577C6.07324 28.6323 6.29881 28.6089 6.45593 28.7059C6.61294 28.8028 6.64175 28.983 6.52038 29.1084C6.2274 29.411 5.93416 29.7246 5.64854 30.0404C5.57303 30.124 5.45142 30.1655 5.33144 30.1588ZM62.1965 32.8678C62.1101 32.8629 62.0259 32.8334 61.9615 32.7793C61.6395 32.509 61.3099 32.2282 60.954 31.9211C60.8193 31.8047 60.8282 31.6232 60.974 31.5156C61.1196 31.4078 61.3471 31.4148 61.4818 31.5313C61.8355 31.8365 62.1628 32.1153 62.4826 32.3838C62.6193 32.4986 62.6136 32.6803 62.4695 32.7895C62.3933 32.8472 62.2937 32.8732 62.1965 32.8678ZM93.1561 34.4124C93.0829 34.4083 93.0105 34.3862 92.9499 34.3456C92.5725 34.0915 92.1982 33.8267 91.8376 33.5585C91.6924 33.4506 91.6844 33.2689 91.8197 33.153C91.955 33.0369 92.1825 33.0304 92.3276 33.1384C92.6798 33.4002 93.045 33.6588 93.4134 33.9068C93.5652 34.0089 93.5844 34.19 93.4563 34.311C93.3794 34.384 93.2667 34.4186 93.1561 34.4124ZM135.688 36.2583C135.548 36.2504 135.42 36.177 135.373 36.064C135.309 35.9139 135.41 35.751 135.598 35.7001C136.061 35.5749 136.523 35.4486 136.986 35.321C137.174 35.269 137.378 35.3488 137.443 35.4984C137.507 35.6481 137.408 35.8115 137.22 35.8634C136.757 35.9913 136.293 36.118 135.828 36.2437C135.782 36.2563 135.734 36.2609 135.688 36.2583ZM100.591 33.4799C100.518 33.4758 100.446 33.454 100.385 33.4138C100.233 33.3121 100.213 33.1312 100.341 33.0097C100.648 32.7162 100.954 32.4112 101.248 32.1035C101.368 31.9774 101.593 31.9531 101.751 32.0491C101.909 32.1451 101.939 32.3252 101.819 32.4512C101.518 32.7658 101.206 33.0777 100.892 33.3779C100.815 33.4511 100.702 33.4861 100.591 33.4799ZM140.54 34.899C140.403 34.8913 140.277 34.8206 140.228 34.7107C140.16 34.5617 140.256 34.3972 140.443 34.343C140.903 34.2098 141.362 34.0754 141.82 33.9399C142.007 33.8847 142.213 33.9607 142.282 34.1093C142.351 34.2579 142.256 34.423 142.069 34.478C141.609 34.614 141.149 34.7486 140.688 34.8824C140.639 34.8965 140.589 34.9018 140.54 34.899ZM58.7246 29.8423C58.635 29.8373 58.5476 29.8057 58.4828 29.7481C58.1555 29.4578 57.8281 29.1676 57.4997 28.8783C57.3665 28.761 57.3778 28.5795 57.5248 28.473C57.6722 28.3666 57.8994 28.3758 58.0325 28.4928C58.3613 28.7827 58.6893 29.0733 59.0172 29.364C59.1499 29.4817 59.138 29.6633 58.9904 29.7693C58.9148 29.8235 58.8184 29.8476 58.7246 29.8423ZM8.5801 26.981C8.50135 26.9766 8.42395 26.9515 8.3615 26.9055C8.21589 26.7979 8.20714 26.6163 8.342 26.4999C8.6774 26.2107 9.02315 25.9237 9.36957 25.6468C9.50983 25.5346 9.73731 25.5343 9.87783 25.6465C10.0181 25.7584 10.0182 25.94 9.87786 26.0522C9.53791 26.3239 9.1985 26.6056 8.86935 26.8895C8.79235 26.9561 8.68502 26.9869 8.5801 26.981ZM89.5337 31.508C89.4397 31.5027 89.3483 31.468 89.283 31.4056C88.9658 31.1019 88.6553 30.7886 88.3605 30.4743C88.2415 30.3475 88.2737 30.1677 88.4327 30.0727C88.5916 29.9777 88.8168 30.0031 88.9357 30.13C89.2233 30.4363 89.5258 30.7417 89.8352 31.038C89.9623 31.1596 89.9417 31.3405 89.7891 31.442C89.715 31.4915 89.6231 31.513 89.5337 31.508ZM145.354 33.4559C145.22 33.4484 145.096 33.3804 145.044 33.2734C144.973 33.1256 145.065 32.9594 145.25 32.9021C145.706 32.7609 146.161 32.6186 146.616 32.4752C146.801 32.4169 147.009 32.4892 147.082 32.6367C147.155 32.7841 147.064 32.9507 146.88 33.0089C146.424 33.1528 145.967 33.2955 145.509 33.4371C145.458 33.4528 145.406 33.4588 145.354 33.4559ZM103.567 30.1372C103.513 30.1341 103.458 30.1211 103.408 30.097C103.238 30.0157 103.183 29.8394 103.285 29.7035C103.533 29.3736 103.775 29.0344 104.005 28.6954C104.099 28.5561 104.317 28.504 104.492 28.5795C104.667 28.655 104.732 28.8291 104.637 28.9685C104.402 29.3148 104.154 29.6613 103.901 29.9984C103.829 30.0942 103.698 30.1445 103.567 30.1372ZM55.2435 26.8233C55.1577 26.8185 55.0739 26.7892 55.0097 26.7359C54.6615 26.4464 54.3176 26.1659 53.9874 25.9021C53.8473 25.7902 53.8473 25.6085 53.9878 25.4964C54.1283 25.3842 54.3558 25.3845 54.496 25.4964C54.8295 25.7627 55.1768 26.046 55.5283 26.3383C55.6658 26.4526 55.6609 26.6343 55.5178 26.744C55.4416 26.8024 55.3413 26.8288 55.2435 26.8233ZM150.128 31.9297C149.997 31.9223 149.875 31.857 149.821 31.7529C149.746 31.6065 149.833 31.4387 150.017 31.3782C150.468 31.2292 150.92 31.079 151.371 30.9278C151.553 30.8664 151.764 30.9348 151.841 31.081C151.918 31.2271 151.832 31.3952 151.649 31.4566C151.197 31.6084 150.744 31.759 150.29 31.9085C150.238 31.926 150.182 31.9327 150.128 31.9297ZM12.3189 24.1684C12.2235 24.163 12.131 24.1275 12.0656 24.0637C11.9402 23.9409 11.9632 23.7602 12.117 23.6599C12.5008 23.4099 12.8941 23.1644 13.2861 22.9303C13.445 22.8354 13.6703 22.8614 13.7891 22.9882C13.9079 23.1151 13.8752 23.2949 13.7162 23.3898C13.3323 23.619 12.947 23.8595 12.5711 24.1045C12.4975 24.1526 12.4071 24.1733 12.3189 24.1684ZM86.6232 28.1328C86.5063 28.1262 86.3957 28.0742 86.3343 27.9864C86.0925 27.6403 85.861 27.2858 85.6459 26.9327C85.5591 26.7902 85.6334 26.6185 85.812 26.5491C85.9905 26.4798 86.2056 26.539 86.2924 26.6815C86.5017 27.025 86.7271 27.37 86.9622 27.7068C87.0589 27.8451 86.9967 28.0198 86.8232 28.0971C86.76 28.1253 86.6905 28.1365 86.6232 28.1328ZM154.86 30.3209C154.731 30.3137 154.611 30.251 154.556 30.1499C154.476 30.0048 154.559 29.8356 154.741 29.7719C155.188 29.6151 155.636 29.457 156.082 29.2979C156.264 29.2333 156.476 29.2984 156.557 29.4429C156.637 29.5876 156.556 29.7572 156.375 29.822C155.927 29.9816 155.478 30.1401 155.029 30.2974C154.974 30.3166 154.916 30.3241 154.86 30.3209ZM51.5367 23.983C51.4618 23.9788 51.3879 23.9559 51.3268 23.9136C50.9542 23.6558 50.5787 23.4053 50.2104 23.1689C50.0559 23.0698 50.0313 22.8892 50.1558 22.7656C50.28 22.6422 50.5063 22.6224 50.6611 22.7216C51.0362 22.9623 51.4185 23.2174 51.7977 23.4798C51.9477 23.5835 51.9638 23.7648 51.8338 23.8845C51.7568 23.9556 51.6456 23.9891 51.5367 23.983ZM16.5326 21.8241C16.4184 21.8177 16.3099 21.7679 16.2477 21.683C16.1473 21.5464 16.2048 21.3706 16.3761 21.2904C16.803 21.0905 17.2397 20.8966 17.6743 20.714C17.8499 20.6402 18.0673 20.694 18.1596 20.8342C18.252 20.9745 18.1843 21.148 18.0086 21.2219C17.5838 21.4002 17.1569 21.5898 16.7395 21.7853C16.6745 21.8157 16.6025 21.828 16.5326 21.8241ZM105.867 26.4688C105.83 26.4668 105.792 26.46 105.756 26.4481C105.572 26.3883 105.484 26.2208 105.559 26.0741C105.742 25.7181 105.917 25.3535 106.081 24.9907C106.148 24.8416 106.353 24.7642 106.54 24.8176C106.727 24.8712 106.824 25.0354 106.757 25.1846C106.59 25.5551 106.411 25.9274 106.225 26.2911C106.164 26.4086 106.017 26.4773 105.867 26.4688ZM159.546 28.6303C159.42 28.6232 159.302 28.5631 159.245 28.465C159.162 28.3213 159.24 28.1507 159.42 28.0838C159.863 27.9191 160.306 27.7535 160.748 27.5866C160.927 27.5185 161.142 27.58 161.226 27.7233C161.311 27.8666 161.234 28.0376 161.055 28.1054C160.612 28.2728 160.167 28.439 159.723 28.6041C159.665 28.6254 159.605 28.6336 159.546 28.6303ZM84.5791 24.3747C84.4369 24.3667 84.3084 24.2911 84.2621 24.1761C84.1112 23.7998 83.9719 23.4156 83.8479 23.0343C83.7981 22.881 83.9135 22.7244 84.1057 22.6844C84.2985 22.6446 84.4939 22.7366 84.5438 22.89C84.6643 23.2609 84.7998 23.6346 84.9468 24.0006C85.0073 24.1516 84.9032 24.3132 84.7141 24.3616C84.6691 24.373 84.6234 24.3772 84.5791 24.3747ZM47.4 21.5583C47.3466 21.5553 47.2933 21.5426 47.244 21.5196C46.8335 21.3277 46.4061 21.1412 45.9737 20.9652C45.7969 20.8933 45.7267 20.7205 45.817 20.5793C45.9072 20.4382 46.1235 20.3821 46.3006 20.4539C46.7453 20.6349 47.1851 20.8269 47.6075 21.0243C47.7787 21.1043 47.8363 21.28 47.7359 21.4169C47.6643 21.5143 47.5319 21.5657 47.4 21.5583ZM21.159 20.0446C21.0241 20.037 20.9002 19.9685 20.8485 19.8611C20.7774 19.7132 20.8702 19.5473 21.0555 19.4904C21.5161 19.3494 21.987 19.2153 22.4551 19.0919C22.6438 19.0423 22.8469 19.124 22.909 19.2746C22.971 19.4251 22.8685 19.5873 22.68 19.6369C22.2227 19.7574 21.7626 19.8883 21.3128 20.0262C21.262 20.0417 21.2098 20.0474 21.159 20.0446ZM164.185 26.8583C164.062 26.8514 163.946 26.7937 163.888 26.6988C163.8 26.5566 163.873 26.3845 164.052 26.3146C164.49 26.1421 164.929 25.9687 165.366 25.7943C165.544 25.7233 165.76 25.7809 165.848 25.9227C165.937 26.0645 165.864 26.2368 165.687 26.3076C165.248 26.4825 164.809 26.6564 164.369 26.8294C164.31 26.8526 164.246 26.8617 164.185 26.8583ZM42.7397 19.8412C42.7078 19.8394 42.6759 19.8341 42.6444 19.8253C42.1925 19.6971 41.7286 19.5757 41.2654 19.4643C41.0754 19.4187 40.9678 19.2586 41.0251 19.1068C41.0824 18.9552 41.2828 18.8689 41.473 18.9148C41.9474 19.0288 42.4225 19.1532 42.8853 19.2844C43.0724 19.3374 43.1699 19.5015 43.1035 19.6508C43.0481 19.775 42.8966 19.85 42.7397 19.8412ZM26.0899 18.9009C25.9327 18.8921 25.7958 18.8008 25.7631 18.6714C25.724 18.5161 25.85 18.3648 26.0446 18.3335C26.5267 18.2558 27.0189 18.1861 27.5078 18.1264C27.7036 18.1025 27.8873 18.21 27.9171 18.3668C27.9469 18.5234 27.812 18.6699 27.6158 18.6938C27.1381 18.7521 26.6572 18.8201 26.1863 18.8959C26.1538 18.9012 26.1213 18.9027 26.0899 18.9009ZM37.7737 18.7982C37.7612 18.7975 37.7485 18.7963 37.7358 18.7945C37.2614 18.7275 36.7785 18.6686 36.3004 18.6193C36.1036 18.599 35.9647 18.4552 35.9903 18.298C36.0159 18.1409 36.1967 18.0319 36.3929 18.0502C36.8819 18.1006 37.3761 18.1609 37.8615 18.2295C38.0569 18.2571 38.1873 18.4058 38.1525 18.562C38.12 18.7079 37.9549 18.8084 37.7737 18.7982ZM31.1907 18.4257C31.0093 18.4156 30.8634 18.2975 30.8573 18.1492C30.8508 17.9909 31.0063 17.8581 31.2046 17.8528C31.6977 17.8395 32.1976 17.8354 32.6902 17.8406C32.8886 17.8435 33.0474 17.9728 33.0446 18.1312C33.0419 18.2896 32.8788 18.4164 32.6804 18.4144C32.1989 18.4093 31.7102 18.4134 31.2283 18.4264C31.2157 18.4267 31.2031 18.4264 31.1907 18.4257ZM107.45 22.5667C107.43 22.5655 107.41 22.563 107.39 22.5592C107.197 22.5219 107.079 22.3668 107.126 22.2127C107.24 21.8387 107.345 21.4574 107.439 21.0793C107.477 20.9238 107.667 20.8234 107.861 20.8533C108.056 20.884 108.182 21.0349 108.144 21.1905C108.048 21.5766 107.941 21.966 107.824 22.3479C107.782 22.4859 107.622 22.5763 107.45 22.5667ZM83.4946 20.369C83.3258 20.3596 83.1838 20.2555 83.1635 20.1163C83.1059 19.7247 83.061 19.3266 83.0301 18.9331C83.0177 18.7749 83.1683 18.6387 83.3662 18.6286C83.5653 18.6194 83.7351 18.7387 83.7475 18.8967C83.7777 19.2799 83.8214 19.6676 83.8774 20.0491C83.9006 20.2065 83.7594 20.3491 83.5622 20.3676C83.5393 20.3699 83.5167 20.3703 83.4946 20.369ZM168.775 25.0056C168.654 24.9988 168.54 24.9435 168.481 24.8516C168.389 24.7109 168.458 24.5378 168.634 24.4647C169.068 24.2847 169.501 24.1037 169.934 23.9215C170.109 23.8478 170.327 23.9014 170.419 24.0414C170.512 24.1815 170.444 24.3551 170.269 24.4291C169.835 24.6117 169.4 24.7934 168.965 24.9739C168.904 24.9992 168.838 25.0091 168.775 25.0056ZM173.312 23.073C173.194 23.0664 173.083 23.0136 173.022 22.9246C172.926 22.7856 172.99 22.6113 173.164 22.5351C173.593 22.3475 174.021 22.1589 174.449 21.9692C174.622 21.8923 174.841 21.942 174.937 22.0806C175.034 22.2191 174.971 22.3937 174.798 22.4708C174.369 22.661 173.939 22.8502 173.509 23.0383C173.447 23.0658 173.378 23.0767 173.312 23.073ZM108.284 18.5197C108.282 18.5195 108.28 18.5194 108.278 18.5192C108.08 18.5055 107.934 18.3663 107.952 18.2084C107.968 18.0585 107.983 17.9083 107.996 17.758C108.017 17.5235 108.034 17.2856 108.047 17.0509C108.056 16.8926 108.224 16.7698 108.422 16.7767C108.624 16.7811 108.774 16.9176 108.765 17.0758C108.752 17.3156 108.735 17.5587 108.713 17.7982C108.7 17.9517 108.684 18.1051 108.668 18.2584C108.65 18.4146 108.479 18.5306 108.284 18.5197ZM83.3784 16.2713C83.1803 16.2602 83.0312 16.123 83.0453 15.9649C83.0803 15.5716 83.129 15.1738 83.19 14.7826C83.2147 14.6253 83.3972 14.5138 83.5912 14.5331C83.7881 14.5527 83.9279 14.696 83.9034 14.8532C83.8438 15.2344 83.7964 15.622 83.7622 16.0052C83.7482 16.1632 83.5764 16.2824 83.3784 16.2713ZM177.795 21.0609C177.679 21.0544 177.57 21.0039 177.508 20.9181C177.409 20.7808 177.468 20.6054 177.64 20.5261C178.064 20.3312 178.487 20.1351 178.909 19.9378C179.08 19.8578 179.3 19.9038 179.4 20.0404C179.501 20.1771 179.443 20.3529 179.272 20.433C178.848 20.6309 178.424 20.8275 177.999 21.0232C177.935 21.0528 177.864 21.0648 177.795 21.0609ZM182.221 18.9701C182.108 18.9638 182.001 18.9156 181.938 18.8327C181.836 18.6972 181.89 18.5207 182.06 18.4385C182.478 18.2361 182.895 18.0324 183.311 17.8278C183.48 17.7447 183.702 17.7868 183.806 17.9217C183.91 18.0565 183.857 18.2334 183.688 18.3165C183.27 18.5218 182.852 18.726 182.432 18.929C182.366 18.9611 182.292 18.9741 182.221 18.9701ZM108.34 14.4191C108.164 14.4093 108.019 14.2971 108.007 14.1524C107.974 13.7666 107.931 13.3781 107.877 12.9972C107.855 12.8397 107.997 12.6977 108.194 12.6798C108.39 12.6616 108.569 12.775 108.591 12.9327C108.646 13.3219 108.691 13.7192 108.724 14.1134C108.737 14.2715 108.588 14.4084 108.389 14.4192C108.373 14.4201 108.356 14.4201 108.34 14.4191ZM84.2184 12.2272C84.1962 12.2259 84.1739 12.223 84.1516 12.2183C83.9597 12.1779 83.8452 12.021 83.8958 11.8678C84.022 11.4857 84.1627 11.102 84.3143 10.7274C84.3752 10.5766 84.5775 10.4932 84.7668 10.5422C84.9556 10.5907 85.0594 10.7523 84.9983 10.9033C84.8508 11.2682 84.7137 11.6419 84.5908 12.0138C84.5461 12.1494 84.3872 12.2366 84.2184 12.2272ZM107.59 10.363C107.436 10.3544 107.302 10.2674 107.265 10.1416C107.156 9.76512 107.035 9.38744 106.904 9.01896C106.851 8.86646 106.962 8.70796 107.153 8.66479C107.344 8.62188 107.543 8.71048 107.596 8.86298C107.73 9.23997 107.854 9.62653 107.966 10.0118C108.01 10.1662 107.89 10.3204 107.697 10.3562C107.661 10.3629 107.625 10.3649 107.59 10.363ZM85.9941 8.38096C85.95 8.37849 85.9057 8.36948 85.8634 8.35312C85.6847 8.28433 85.6097 8.11291 85.696 7.97008C85.9112 7.61404 86.1416 7.25885 86.3808 6.91432C86.4769 6.77559 86.6954 6.7254 86.8693 6.80207C87.0429 6.87882 87.1056 7.05339 87.0094 7.19212C86.7769 7.52734 86.5526 7.8729 86.3433 8.2193C86.2774 8.32817 86.1366 8.38894 85.9941 8.38096ZM105.994 6.46793C105.867 6.46079 105.748 6.39948 105.692 6.30006C105.49 5.94406 105.274 5.59815 105.048 5.27177C104.952 5.13311 105.015 4.95849 105.188 4.88183C105.362 4.80519 105.581 4.8553 105.677 4.99394C105.912 5.3336 106.137 5.69343 106.347 6.06329C106.429 6.20766 106.348 6.37767 106.167 6.443C106.111 6.46325 106.052 6.47115 105.994 6.46793ZM88.6911 4.8945C88.6207 4.89056 88.5511 4.87007 88.4919 4.83214C88.3371 4.73306 88.3123 4.55236 88.4366 4.42883C88.7513 4.11566 89.0831 3.81218 89.4227 3.52696C89.5594 3.41208 89.7868 3.40727 89.9309 3.5165C90.0746 3.62561 90.0804 3.80725 89.9436 3.92212C89.6178 4.19584 89.2994 4.48704 88.9971 4.78776C88.9203 4.8641 88.8047 4.90087 88.6911 4.8945ZM103.185 3.05461C103.1 3.04986 103.016 3.02113 102.952 2.96855C102.614 2.6912 102.259 2.43832 101.897 2.21685C101.739 2.12058 101.709 1.94056 101.83 1.81462C101.951 1.68877 102.176 1.66478 102.334 1.76105C102.724 1.99931 103.105 2.27094 103.468 2.56824C103.606 2.68174 103.603 2.86346 103.46 2.974C103.384 3.03339 103.283 3.06014 103.185 3.05461ZM92.4823 2.14513C92.3712 2.13891 92.2655 2.09185 92.2022 2.01074C92.0972 1.87628 92.1487 1.69928 92.3172 1.61543C92.7564 1.39668 93.2057 1.20371 93.6521 1.04175C93.8329 0.976224 94.0459 1.04003 94.1278 1.18422C94.2097 1.32851 94.1297 1.49863 93.9489 1.56416C93.5309 1.71573 93.1098 1.89676 92.6973 2.10223C92.6305 2.1356 92.5552 2.14921 92.4823 2.14513ZM98.7877 1.05951C98.7726 1.05866 98.7575 1.05705 98.7423 1.05467C98.7086 1.04932 98.6745 1.04415 98.6403 1.03908C98.2161 0.976962 97.7829 0.945309 97.3526 0.944891C97.154 0.943831 96.9936 0.816143 96.994 0.657478C96.9945 0.49901 97.1557 0.370738 97.3541 0.370919C97.8276 0.371457 98.3042 0.406406 98.7702 0.474503C98.8078 0.479964 98.8454 0.485715 98.8829 0.491647C99.0776 0.522497 99.2039 0.6735 99.1652 0.828961C99.1293 0.972404 98.9656 1.06938 98.7877 1.05951Z"
        fill="#666" />
</svg>