<svg width="24" height="24" viewBox="0 0 24 24" fill="none" xmlns="http://www.w3.org/2000/svg">
    <path
        d="M10.15 4.89V19.11C10.15 19.7297 10.017 20.0326 9.84219 20.1973C9.65974 20.3691 9.31726 20.5 8.64 20.5H5.01C4.33274 20.5 3.99026 20.3691 3.80781 20.1973C3.63301 20.0326 3.5 19.7297 3.5 19.11V4.89C3.5 4.27031 3.63301 3.96737 3.80781 3.80273C3.99026 3.63089 4.33274 3.5 5.01 3.5H8.64C9.31726 3.5 9.65974 3.63089 9.84219 3.80273C10.017 3.96737 10.15 4.27031 10.15 4.89Z"
        fill="#F2F2F2" stroke="#F2F2F2" />
    <path
        d="M20.5016 4.89V19.11C20.5016 19.7297 20.3686 20.0326 20.1937 20.1973C20.0113 20.3691 19.6688 20.5 18.9916 20.5H15.3616C14.6843 20.5 14.3418 20.3691 14.1594 20.1973C13.9846 20.0326 13.8516 19.7297 13.8516 19.11V4.89C13.8516 4.27241 13.9861 3.96881 14.1624 3.80339C14.3467 3.63049 14.6903 3.5 15.3616 3.5H18.9916C19.6688 3.5 20.0113 3.63089 20.1937 3.80273C20.3686 3.96737 20.5016 4.27031 20.5016 4.89Z"
        fill="#F2F2F2" stroke="#F2F2F2" />
</svg>