<svg width="202" height="160" viewBox="0 0 202 160" fill="none" xmlns="http://www.w3.org/2000/svg">
<mask id="mask0_25603_97321" style="mask-type:luminance" maskUnits="userSpaceOnUse" x="13" y="37" width="177" height="123">
<path d="M18.0323 113.106C62.8683 138.517 109.623 153.907 155.083 159.274C158.079 159.631 161.249 157.506 162.508 154.35C171.342 132.253 180.12 109.777 188.818 86.9195C190.252 83.1401 188.652 79.7206 185.319 79.4029C141.656 75.1953 96.077 61.4359 51.5688 38.125C48.4598 36.5009 45.0144 37.4073 43.704 40.2457C33.7662 61.7872 23.8913 82.8496 14.1137 103.433C12.6484 106.513 14.4801 111.088 18.0323 113.106Z" fill="white"/>
</mask>
<g mask="url(#mask0_25603_97321)">
<path d="M15.45 120.316C61.0027 143.781 108.606 156.868 154.875 159.574C158.021 159.761 161.227 157.507 162.527 154.256C171.286 132.361 179.991 110.092 188.617 87.4482C190.161 83.3826 188.428 79.7029 184.823 79.3548C141.253 75.0854 95.7856 61.3109 51.3895 38.0303C48.0168 36.2674 44.2851 37.2421 42.8871 40.3147C32.1152 63.9985 21.4191 87.1197 10.8404 109.678C9.23308 113.101 11.4289 118.239 15.45 120.316Z" fill="url(#paint0_linear_25603_97321)"/>
</g>
<mask id="mask1_25603_97321" style="mask-type:luminance" maskUnits="userSpaceOnUse" x="13" y="37" width="177" height="123">
<path d="M18.0323 113.106C62.8683 138.517 109.623 153.907 155.083 159.274C158.079 159.631 161.249 157.506 162.508 154.35C171.342 132.253 180.12 109.777 188.818 86.9195C190.252 83.1401 188.652 79.7206 185.319 79.4029C141.656 75.1953 96.077 61.4359 51.5688 38.125C48.4598 36.5009 45.0144 37.4073 43.704 40.2457C33.7662 61.7872 23.8913 82.8496 14.1137 103.433C12.6484 106.513 14.4801 111.088 18.0323 113.106Z" fill="white"/>
</mask>
<g mask="url(#mask1_25603_97321)">
<path d="M15.2572 120.191C60.8644 143.725 108.532 156.852 154.862 159.572C158.012 159.761 161.222 157.506 162.521 154.255C171.282 132.362 179.988 110.092 188.616 87.4484C190.162 83.3827 188.423 79.703 184.814 79.3539C141.184 75.0779 95.6516 61.2698 51.1968 37.9296C47.8197 36.1613 44.0838 37.1327 42.6858 40.2031C31.9139 63.8816 21.2167 86.9941 10.637 109.544C9.0307 112.966 11.2319 118.109 15.2572 120.191Z" fill="url(#paint1_linear_25603_97321)"/>
</g>
<path d="M38.1913 84.7138C37.5943 86.005 38.2351 87.7571 39.6118 88.6515C47.8558 93.9791 52.3307 103.58 49.9918 112.059C49.5998 113.479 50.3987 115.146 51.8512 115.806C80.8829 128.996 110.368 138.121 139.478 143.185C140.796 143.406 142.195 142.673 142.944 141.407C146.474 135.451 153.219 131.699 159.656 131.409C161.053 131.35 162.41 130.306 162.949 128.866C164.839 123.807 166.727 118.731 168.613 113.637C169.192 112.071 168.671 110.5 167.341 110.039C160.834 107.762 157.567 100.52 159.483 92.8299C159.885 91.2112 159.022 89.7877 157.548 89.521C129.532 84.4351 101.001 75.5362 72.7105 62.822C71.4577 62.2594 70.0533 62.6334 69.3879 63.7327C64.9599 71.0661 55.8455 73.8254 47.2577 70.2823C45.9515 69.7478 44.6186 70.2129 44.1028 71.3773C42.1291 75.8419 40.1586 80.2871 38.1913 84.7138ZM143.239 104.954C148.146 106.077 150.671 111.665 149.002 117.603C147.333 123.546 140.745 128.362 135.824 127.093C130.904 125.833 129.534 119.153 131.214 113.333C132.893 107.509 138.331 103.835 143.239 104.954ZM111.561 88.7458C119.718 91.4075 123.638 100.432 120.502 111.233C117.366 122.034 107.107 127.446 98.944 124.387C90.7833 121.345 87.8217 111.402 90.9627 100.962C94.1027 90.5119 103.404 86.0939 111.561 88.7458ZM72.4926 82.4684C78.1103 85.0043 80.4621 91.2036 78.498 97.6946C76.5339 104.189 69.2117 107.579 63.6089 104.846C58.0051 102.122 56.2268 94.5277 58.1802 88.1929C60.1325 81.857 66.8749 79.939 72.4926 82.4684Z" fill="#70CFB1"/>
<path d="M139.636 140.986C139.562 140.986 139.49 140.981 139.42 140.969C110.141 135.876 80.7855 126.704 52.18 113.708C51.3832 113.346 51.0265 112.456 51.1931 111.852C53.6816 102.835 49.1372 92.4777 40.1435 86.6654C39.3852 86.1732 39.0734 85.2506 39.3019 84.7551C41.2799 80.3046 43.2504 75.8583 45.223 71.3915C45.3586 71.0847 45.6448 71.0197 45.8606 71.0197C46.0186 71.0197 46.1842 71.0554 46.354 71.1237C49.0069 72.2188 51.7464 72.7749 54.4922 72.7749C61.1171 72.7749 67.0691 69.4671 70.4141 63.9281C70.6362 63.5605 71.0432 63.5215 71.2076 63.5215C71.3913 63.5215 71.5772 63.5627 71.7587 63.644C99.8623 76.2736 128.528 85.2939 156.956 90.4535C157.215 90.5002 157.412 90.6259 157.54 90.8265C157.699 91.0769 157.736 91.4228 157.643 91.8001C155.518 100.33 159.249 108.367 166.515 110.91C166.617 110.946 166.761 111.016 166.861 111.23C167.004 111.539 166.991 111.99 166.825 112.436C164.952 117.497 163.047 122.619 161.163 127.659C160.853 128.49 160.041 129.14 159.276 129.173C152.028 129.498 144.965 133.725 141.281 139.942C140.911 140.567 140.25 140.986 139.636 140.986ZM141.13 102.517C135.951 102.517 131.014 106.609 129.388 112.246C128.163 116.491 128.474 121.033 130.2 124.099C131.339 126.121 133.042 127.472 135.125 128.005C135.775 128.173 136.464 128.258 137.17 128.258C142.582 128.258 148.549 123.288 150.2 117.404C151.225 113.759 150.859 110.036 149.195 107.19C147.856 104.9 145.753 103.326 143.269 102.758C142.572 102.597 141.853 102.517 141.13 102.517ZM106.518 85.7558C98.5369 85.7558 91.7166 91.2905 89.1416 99.8566C85.6279 111.533 89.3061 121.975 98.0862 125.247C99.7598 125.874 101.536 126.192 103.364 126.192C111.569 126.192 119.107 119.963 121.696 111.044C125.008 99.6398 120.908 89.5819 111.727 86.5852C110.034 86.0344 108.281 85.7558 106.518 85.7558ZM67.2442 79.1521C62.0388 79.1521 57.8693 82.1889 56.3634 87.0774C54.3448 93.6258 55.8486 102.36 62.6144 105.648C64.1214 106.383 65.7565 106.756 67.4728 106.756C73.0211 106.756 78.044 102.96 79.6876 97.5235C81.8899 90.2443 79.065 83.1896 72.8171 80.3685C71.0485 79.5727 69.1218 79.1521 67.2442 79.1521Z" fill="#8EE8CD"/>
<mask id="mask2_25603_97321" style="mask-type:luminance" maskUnits="userSpaceOnUse" x="29" y="0" width="169" height="105">
<path d="M192.499 81.0534C146.995 102.609 97.6748 109.264 51.4492 101.017C48.4022 100.478 45.603 97.5556 44.8757 94.2663C39.778 71.2264 34.7232 48.0022 29.7195 24.5948C28.895 20.7254 31.0738 18.0984 34.4967 18.7565C79.3328 27.3454 128.027 21.3737 173.901 0.839396C177.106 -0.590634 180.174 0.568352 180.919 3.57911C186.565 26.4108 192.164 49.0192 197.701 71.4042C198.529 74.7565 196.104 79.3436 192.499 81.0534Z" fill="white"/>
</mask>
<g mask="url(#mask2_25603_97321)">
<path d="M193.674 88.8144C147.897 108.12 98.1841 112.301 51.6061 101.356C48.4395 100.615 45.6231 97.5626 44.8734 94.1735C39.8164 71.3418 34.7999 48.3301 29.8348 25.1363C28.9473 20.9731 31.3033 18.1499 35.005 18.8535C79.761 27.3112 128.331 21.2788 174.085 0.756404C177.562 -0.797222 180.883 0.448498 181.669 3.70537C187.727 28.8063 193.729 53.6491 199.658 78.235C200.558 81.9678 197.715 87.1079 193.674 88.8144Z" fill="url(#paint2_linear_25603_97321)"/>
</g>
<mask id="mask3_25603_97321" style="mask-type:luminance" maskUnits="userSpaceOnUse" x="29" y="0" width="169" height="105">
<path d="M192.499 81.0534C146.995 102.609 97.6748 109.264 51.4492 101.017C48.4022 100.478 45.603 97.5556 44.8757 94.2663C39.778 71.2264 34.7232 48.0022 29.7195 24.5948C28.895 20.7254 31.0738 18.0984 34.4967 18.7565C79.3328 27.3454 128.027 21.3737 173.901 0.839396C177.106 -0.590634 180.174 0.568352 180.919 3.57911C186.565 26.4108 192.164 49.0192 197.701 71.4042C198.529 74.7565 196.104 79.3436 192.499 81.0534Z" fill="white"/>
</mask>
<g mask="url(#mask3_25603_97321)">
<path d="M193.872 88.7046C148.045 108.089 98.2621 112.306 51.62 101.357C48.4491 100.615 45.6296 97.5624 44.8798 94.1743C39.8207 71.3426 34.8021 48.3299 29.8358 25.136C28.9473 20.9728 31.3086 18.1507 35.0146 18.8543C79.8325 27.3217 128.474 21.2601 174.284 0.667235C177.765 -0.891813 181.089 0.348486 181.875 3.60536C187.934 28.6997 193.936 53.5361 199.865 78.1144C200.765 81.845 197.918 86.9916 193.872 88.7046Z" fill="url(#paint3_linear_25603_97321)"/>
</g>
<path d="M175.279 35.473C174.992 34.2327 173.818 33.6353 172.497 34.0582C163.81 36.864 155.55 33.0336 152.557 25.1874C152.106 24.01 150.821 23.4842 149.516 23.9103C120.052 33.5421 89.9318 37.3682 60.835 35.3874C59.3046 35.2833 58.1928 36.3978 58.3209 38.0078C58.9393 45.6556 54.4195 51.6316 47.4945 51.9493C46.0805 52.0122 45.2912 53.3132 45.6105 54.9221C46.6476 60.1511 47.6878 65.3725 48.7281 70.5863C49.0239 72.0694 50.2073 73.4193 51.5967 73.8616C57.9952 75.915 64.1053 81.1505 66.6065 87.6545C67.1373 89.0368 68.4083 90.0852 69.7604 90.211C99.6689 92.7989 130.466 89.3317 160.364 79.8083C161.86 79.3313 162.904 77.7451 162.774 76.2555C161.999 67.3685 167.926 58.2202 176.561 53.5972C178.004 52.8231 178.899 51.0874 178.558 49.7039C177.467 44.9683 176.373 40.225 175.279 35.473ZM83.1575 63.8752C83.826 69.7829 81.3034 75.8652 76.177 75.9031C71.0473 75.9497 65.2822 69.7634 64.6243 63.7787C63.9654 57.7952 67.4577 53.1874 72.5724 53.247C77.6861 53.3121 82.49 57.9578 83.1575 63.8752ZM125.154 59.3813C126.405 70.1559 121.792 79.5167 113.236 80.9781C104.678 82.4635 95.4428 75.1019 94.1964 64.104C92.9479 53.0996 98.4353 45.2425 106.987 44.051C115.541 42.879 123.903 48.5862 125.154 59.3813ZM159.076 51.1025C159.847 57.7312 156.859 65.2174 151.011 67.2037C145.164 69.2007 138.657 64.7393 137.875 58.0098C137.093 51.2782 140.464 45.4616 146.328 43.6217C152.192 41.7905 158.305 44.4674 159.076 51.1025Z" fill="#70CFB1"/>
<path d="M89.039 88.8041C89.0369 88.8041 89.0401 88.8041 89.039 88.8041C82.6524 88.8041 76.2123 88.5265 69.895 87.9801C69.1613 87.9129 68.3912 87.2624 68.074 86.4362C65.5151 79.7826 59.2341 73.9985 52.0721 71.7001C51.2262 71.4301 50.453 70.5411 50.2714 69.6304C49.2301 64.4166 48.1909 59.1963 47.1539 53.9673C47.061 53.5 47.1464 53.1812 47.2564 53.0381C47.2874 52.998 47.3515 52.9156 47.564 52.9059C51.0895 52.7443 54.2647 51.2319 56.5064 48.6472C59.0462 45.7188 60.2487 41.6662 59.891 37.2373C59.8739 37.0302 59.891 36.7419 60.065 36.55C60.2231 36.3754 60.4645 36.3385 60.6386 36.3385C60.6685 36.3385 60.6994 36.3396 60.7293 36.3418C65.7052 36.6811 70.7772 36.8524 75.8054 36.8524C100.558 36.8524 125.52 32.7944 149.999 24.792C150.14 24.7454 150.28 24.7227 150.412 24.7227C150.608 24.7227 150.956 24.7747 151.09 25.1271C153.632 31.7926 159.673 35.9331 166.852 35.9331C168.879 35.9331 170.939 35.5991 172.975 34.9421C173.097 34.9031 173.216 34.8825 173.324 34.8825C173.647 34.8825 173.711 35.0462 173.746 35.198L177.027 49.43C177.181 50.0556 176.697 51.0801 175.827 51.5463C166.415 56.5845 160.403 66.5416 161.208 75.7582C161.274 76.5193 160.66 77.4018 159.894 77.6457C136.649 85.0496 112.807 88.8041 89.039 88.8041ZM109.189 41.6629C108.388 41.6629 107.576 41.7193 106.777 41.8288C97.142 43.1699 91.3267 52.1426 92.6329 63.6479C93.8066 74.0105 101.882 82.1277 111.015 82.1277C111.851 82.1277 112.687 82.0561 113.502 81.9141C122.551 80.3681 128.111 70.5433 126.717 58.5544C125.565 48.6093 118.357 41.6629 109.189 41.6629ZM72.4753 51.0096C69.8106 51.0096 67.3841 52.0981 65.6422 54.0746C63.6087 56.3828 62.6667 59.7514 63.0597 63.3172C63.8116 70.153 70.2805 76.8629 76.1193 76.8629H76.1909C78.4027 76.8467 80.3743 75.9186 81.8919 74.1796C84.1241 71.6199 85.2081 67.3569 84.7211 63.0548C83.981 56.4912 78.5395 51.0877 72.5917 51.0107L72.4753 51.0096ZM149.928 40.8227C148.577 40.8227 147.21 41.0352 145.865 41.4548C139.271 43.5245 135.432 49.9959 136.311 57.5581C137.033 63.7737 142.222 68.6427 148.122 68.6427C149.278 68.6427 150.419 68.453 151.513 68.0789C158.509 65.7024 161.437 57.1331 160.639 50.2756C159.982 44.6217 155.677 40.8227 149.928 40.8227Z" fill="#8EE8CD"/>
<path d="M102.594 112.968C73.916 111.418 39.9437 107.535 12.8334 101.097C2.60936 98.5482 -1.7588 90.5589 0.645292 80.5324C4.52644 65.1685 12.4062 45.1947 20.7388 30.3751C26.2882 20.74 34.9284 14.6567 46.1019 15.7745C76.0093 18.7657 107.627 20.4711 135.668 24.3221C146.385 25.7944 154.041 37.5784 151.552 47.9626C147.354 64.4226 140.073 82.511 130.758 98.3997C124.821 108.245 113.716 113.46 102.594 112.968Z" fill="url(#paint4_linear_25603_97321)"/>
<path d="M102.594 112.967C73.916 111.418 39.9437 107.535 12.8334 101.097C2.60936 98.5478 -1.7588 90.5585 0.645292 80.532C4.52644 65.1682 12.4062 45.1944 20.7388 30.3747C26.2882 20.7396 34.9316 14.6292 46.1019 15.7741C76.0093 18.838 107.627 21.8477 135.668 24.3218C146.442 25.2726 154.041 37.578 151.552 47.9623C147.354 64.4222 140.073 82.5107 130.758 98.3993C124.821 108.245 113.716 113.46 102.594 112.967Z" fill="#437DFA"/>
<path opacity="0.3" d="M110.27 87.0015C109.906 87.0102 109.545 86.9906 109.186 86.9429L100.718 85.8078C96.8206 85.2852 94.8587 81.5177 96.3357 77.3913C97.8128 73.265 102.169 70.3442 106.067 70.8667L114.536 72.0019C118.433 72.5245 120.395 76.292 118.918 80.4184C117.576 84.1653 113.861 86.918 110.27 87.0015ZM84.8664 83.5961C84.5022 83.6048 84.1401 83.5852 83.7824 83.5375L75.3141 82.4024C71.417 81.8798 69.455 78.1112 70.9321 73.9859C72.4102 69.8606 76.7677 66.9388 80.6638 67.4624L89.132 68.5976C93.0292 69.1201 94.9911 72.8887 93.5141 77.014C92.1716 80.7599 88.456 83.5126 84.8664 83.5961ZM59.4617 80.1896C59.0975 80.1983 58.7365 80.1787 58.3776 80.131L49.9094 78.9959C46.0122 78.4733 44.0503 74.7058 45.5274 70.5794C47.0044 66.4541 51.3619 63.5334 55.2591 64.0549L63.7273 65.19C67.6245 65.7126 69.5864 69.4801 68.1093 73.6065C66.7679 77.3534 63.0523 80.1061 59.4617 80.1896ZM34.058 76.7831C33.6938 76.7918 33.3328 76.7723 32.974 76.7246L24.5057 75.5894C20.6086 75.0668 18.6466 71.2993 20.1237 67.173C21.6007 63.0477 25.9593 60.1258 29.8554 60.6484L38.3236 61.7835C42.2208 62.3061 44.1827 66.0736 42.7057 70.2C41.3632 73.9469 37.6476 76.6996 34.058 76.7831Z" fill="#2C5BF1"/>
<path opacity="0.3" d="M46.7639 81.4657L29.2529 79.1174L23.4162 78.3346C20.7302 77.9747 17.7269 79.988 16.708 82.8318C15.6902 85.6756 17.0423 88.2733 19.7284 88.6332C19.7284 88.6332 43.5727 91.8099 43.8237 91.8044C46.2983 91.747 48.8594 89.8497 49.7843 87.2672C50.8021 84.4234 49.45 81.8257 46.7639 81.4657Z" fill="#2C5BF1"/>
<path opacity="0.3" d="M74.5711 84.7784C74.5711 84.7784 65.7344 83.717 65.7333 83.717L59.8967 82.9342C57.2106 82.5743 54.2074 84.5876 53.1885 87.4314C52.1707 90.2752 53.5228 92.8729 56.2088 93.2328C56.2088 93.2328 71.3799 95.1225 71.6309 95.1171C74.1055 95.0597 76.6665 93.1624 77.5914 90.5798C78.6103 87.736 77.2572 85.1383 74.5711 84.7784Z" fill="#2C5BF1"/>
<path d="M110.27 85.0484C109.906 85.057 109.545 85.0375 109.186 84.9898L100.718 83.8547C96.8206 83.3321 94.8587 79.5646 96.3357 75.4382C97.8128 71.3118 102.169 68.3911 106.067 68.9136L114.536 70.0488C118.433 70.5713 120.395 74.3389 118.918 78.4652C117.576 82.2122 113.861 84.9649 110.27 85.0484ZM84.8664 81.643C84.5022 81.6516 84.1401 81.6321 83.7824 81.5844L75.3141 80.4493C71.417 79.9267 69.455 76.1581 70.9321 72.0328C72.4102 67.9075 76.7677 64.9857 80.6638 65.5093L89.132 66.6445C93.0292 67.167 94.9911 70.9356 93.5141 75.0609C92.1716 78.8068 88.456 81.5595 84.8664 81.643ZM59.4617 78.2365C59.0975 78.2452 58.7365 78.2256 58.3776 78.1779L49.9094 77.0428C46.0122 76.5202 44.0503 72.7527 45.5274 68.6263C47.0044 64.4999 51.3619 61.5803 55.2591 62.1017L63.7273 63.2369C67.6245 63.7595 69.5864 67.527 68.1093 71.6533C66.7679 75.4003 63.0523 78.153 59.4617 78.2365ZM34.058 74.83C33.6938 74.8387 33.3328 74.8192 32.974 74.7714L24.5057 73.6363C20.6086 73.1137 18.6466 69.3462 20.1237 65.2198C21.6007 61.0935 25.9593 58.1727 29.8554 58.6953L38.3236 59.8304C42.2208 60.353 44.1827 64.1205 42.7057 68.2469C41.3632 71.9938 37.6476 74.7465 34.058 74.83Z" fill="url(#paint5_linear_25603_97321)"/>
<path opacity="0.3" d="M42.157 51.9363L33.9419 50.67C31.5944 50.3079 30.2562 47.7503 31.2751 45.5733L35.3153 36.94C36.3962 34.6296 38.8035 33.2711 41.3069 33.5574L50.3209 34.5873C52.6854 34.8573 54.1198 37.3715 53.1735 39.5876L49.7196 47.6842C48.4422 50.6809 45.3365 52.4264 42.157 51.9363Z" fill="#2C5BF1"/>
<path opacity="0.3" d="M118.083 61.1844L109.868 59.9181C107.52 59.556 106.182 56.9984 107.201 54.8214L111.241 46.188C112.322 43.8777 114.729 42.5192 117.233 42.8054L126.247 43.8354C128.611 44.1053 130.046 46.6195 129.1 48.8356L125.646 56.9322C124.368 59.9289 121.262 61.6744 118.083 61.1844Z" fill="#2C5BF1"/>
<path d="M41.5398 50.3055L33.3247 49.0392C30.9772 48.677 29.639 46.1195 30.6579 43.9424L34.6981 35.3091C35.779 32.9988 38.1863 31.6403 40.6897 31.9265L49.7037 32.9565C52.0682 33.2264 53.5026 35.7406 52.5563 37.9567L49.1024 46.0533C47.824 49.05 44.7193 50.7955 41.5398 50.3055Z" fill="url(#paint6_linear_25603_97321)"/>
<path d="M42.6056 47.9913C42.3685 47.9913 42.1292 47.9729 41.8932 47.9371L33.6781 46.6697C33.1676 46.5906 32.9166 46.2458 32.813 46.0474C32.7094 45.849 32.5673 45.4446 32.7895 44.9708L36.8298 36.3375C37.4129 35.0907 38.6678 34.2852 40.0263 34.2852C40.1588 34.2852 40.2923 34.2927 40.4247 34.3079L49.4376 35.339C49.9524 35.3975 50.2162 35.7336 50.3273 35.9288C50.4383 36.1239 50.5943 36.5229 50.3892 37.0054L46.9353 45.102C46.1866 46.8573 44.4874 47.9913 42.6056 47.9913Z" fill="url(#paint7_linear_25603_97321)"/>
<defs>
<linearGradient id="paint0_linear_25603_97321" x1="109.617" y1="64.6941" x2="85.7893" y2="143.749" gradientUnits="userSpaceOnUse">
<stop stop-color="#3F9D7B"/>
<stop offset="0.3856" stop-color="#43AB85"/>
<stop offset="0.8536" stop-color="#4AC296"/>
<stop offset="1" stop-color="#3F9D7B"/>
</linearGradient>
<linearGradient id="paint1_linear_25603_97321" x1="176.048" y1="129.134" x2="20.0555" y2="73.6197" gradientUnits="userSpaceOnUse">
<stop offset="0.0188" stop-color="#8EE8CD"/>
<stop offset="0.037" stop-color="#72D8B6"/>
<stop offset="0.056" stop-color="#5CCCA4"/>
<stop offset="0.0744" stop-color="#4FC59A"/>
<stop offset="0.0909" stop-color="#4AC296"/>
<stop offset="0.8678" stop-color="#4AC296"/>
<stop offset="0.9006" stop-color="#48BD92"/>
<stop offset="0.9404" stop-color="#44AE87"/>
<stop offset="0.972" stop-color="#3F9D7B"/>
</linearGradient>
<linearGradient id="paint2_linear_25603_97321" x1="104.242" y1="22.8132" x2="133.023" y2="103.776" gradientUnits="userSpaceOnUse">
<stop stop-color="#8EE8CD"/>
<stop offset="0.0452" stop-color="#73D9B7"/>
<stop offset="0.1032" stop-color="#55C89F"/>
<stop offset="0.1362" stop-color="#4AC296"/>
<stop offset="0.8439" stop-color="#4AC296"/>
<stop offset="0.8991" stop-color="#49BF94"/>
<stop offset="0.9455" stop-color="#46B48C"/>
<stop offset="0.9886" stop-color="#41A37F"/>
<stop offset="1" stop-color="#3F9D7B"/>
</linearGradient>
<linearGradient id="paint3_linear_25603_97321" x1="35.4689" y1="78.8601" x2="192.475" y2="30.9225" gradientUnits="userSpaceOnUse">
<stop offset="0.6565" stop-color="#3F9D7B"/>
<stop offset="0.7546" stop-color="#42A782"/>
<stop offset="0.9212" stop-color="#4AC296"/>
<stop offset="0.922" stop-color="#4AC296"/>
<stop offset="0.9389" stop-color="#52C69C"/>
<stop offset="0.9644" stop-color="#66D2AD"/>
<stop offset="0.9953" stop-color="#88E5C8"/>
<stop offset="1" stop-color="#8EE8CD"/>
</linearGradient>
<linearGradient id="paint4_linear_25603_97321" x1="83.5166" y1="8.36564" x2="68.487" y2="117.925" gradientUnits="userSpaceOnUse">
<stop stop-color="#496CFB"/>
<stop offset="0.0018046" stop-color="#4B6FFB"/>
<stop offset="0.0212" stop-color="#5F8BFB"/>
<stop offset="0.0421" stop-color="#6FA1FA"/>
<stop offset="0.065" stop-color="#7AB0FA"/>
<stop offset="0.0915" stop-color="#81B9FA"/>
<stop offset="0.1296" stop-color="#83BCFA"/>
<stop offset="0.1647" stop-color="#7AB0F9"/>
<stop offset="0.2364" stop-color="#6B9EF8"/>
<stop offset="0.3217" stop-color="#6191F7"/>
<stop offset="0.4329" stop-color="#5C89F6"/>
<stop offset="0.6669" stop-color="#5A87F6"/>
<stop offset="0.7408" stop-color="#5782F7"/>
<stop offset="0.8242" stop-color="#4F75F9"/>
<stop offset="0.8498" stop-color="#4C6FFA"/>
<stop offset="0.9267" stop-color="#3453FA"/>
</linearGradient>
<linearGradient id="paint5_linear_25603_97321" x1="70.6273" y1="63.9786" x2="68.083" y2="81.5231" gradientUnits="userSpaceOnUse">
<stop offset="0.029" stop-color="#CFEBFE"/>
<stop offset="0.0759" stop-color="#E1F1FD"/>
<stop offset="0.1306" stop-color="#EEF6FB"/>
<stop offset="0.179" stop-color="#F3F8FB"/>
<stop offset="0.295" stop-color="#EFF6FB"/>
<stop offset="0.4148" stop-color="#E2F2FC"/>
<stop offset="0.5305" stop-color="#CFEBFE"/>
<stop offset="0.5996" stop-color="#C8E6FB"/>
<stop offset="0.7017" stop-color="#B4DAF3"/>
<stop offset="0.8236" stop-color="#93C5E6"/>
<stop offset="0.9333" stop-color="#70AED8"/>
</linearGradient>
<linearGradient id="paint6_linear_25603_97321" x1="36.7503" y1="33.1848" x2="46.9309" y2="49.1811" gradientUnits="userSpaceOnUse">
<stop stop-color="#F9D075"/>
<stop offset="0.1826" stop-color="#F9C870"/>
<stop offset="0.459" stop-color="#FAB463"/>
<stop offset="0.7931" stop-color="#FA924E"/>
<stop offset="1" stop-color="#FB793F"/>
</linearGradient>
<linearGradient id="paint7_linear_25603_97321" x1="34.0748" y1="39.9142" x2="47.0822" y2="46.4885" gradientUnits="userSpaceOnUse">
<stop stop-color="#F29E50"/>
<stop offset="0.037" stop-color="#F4AC5A"/>
<stop offset="0.1089" stop-color="#F7C069"/>
<stop offset="0.1805" stop-color="#F8CC72"/>
<stop offset="0.251" stop-color="#F9D075"/>
<stop offset="0.3759" stop-color="#F9BF6A"/>
<stop offset="0.6237" stop-color="#FA914E"/>
<stop offset="0.7448" stop-color="#FB793F"/>
<stop offset="0.8604" stop-color="#FA7B40"/>
<stop offset="0.9213" stop-color="#F98344"/>
<stop offset="0.9692" stop-color="#F5914A"/>
<stop offset="1" stop-color="#F29E50"/>
</linearGradient>
</defs>
</svg>
