<svg width="16" height="17" viewBox="0 0 16 17" fill="none"
    xmlns="http://www.w3.org/2000/svg">
    <g clip-path="url(#clip0_1389_34199)">
        <path d="M13.6629 7.70004L8.7829 2.83604C8.3349 2.37204 8.2229 2.66004 8.2229 2.88404V5.12404L4.5909 7.81204H2.3989C1.7749 7.81204 2.2709 8.48404 2.1749 8.37204L4.9269 11.108L2.6229 13.428C2.4949 13.556 2.4949 13.764 2.6229 13.892C2.7509 14.02 2.9589 14.02 3.0869 13.892L5.3909 11.588L8.1269 14.34C8.0469 14.26 8.7029 14.692 8.7029 14.116V11.908L11.3909 8.27604H13.4229C13.7589 8.26004 14.2069 8.26004 13.6629 7.70004ZM3.1829 8.43604H4.6069L8.0789 11.908V13.332L3.1829 8.43604ZM8.3829 11.268L5.2309 8.11604L8.4469 5.78004L10.7509 8.11604L8.3829 11.268ZM11.2309 7.63604L8.8629 5.26804V3.84404L12.6549 7.63604H11.2309Z" fill="#666666"/>
        <path d="M128.642 -170.7V98.7395H-156.798V-170.7H128.642ZM129.922 -171.98H-158.078V100.02H129.922V-171.98Z" fill="#666666"/>
    </g>
    <defs>
        <clipPath id="clip0_1389_34199">
            <rect width="16" height="16" fill="white" transform="translate(0 0.5)"/>
        </clipPath>
    </defs>
</svg>
