<svg width="100%" height="100%" viewBox="0 0 24 24" fill="none" xmlns="http://www.w3.org/2000/svg">
    <path
        d="M7.86086 2.95907L16.8909 5.95907C22.9609 7.98907 22.9609 11.2991 16.8909 13.3191L14.2109 14.2091L13.3209 16.8891C11.3009 22.9591 7.98086 22.9591 5.96086 16.8891L2.95086 7.86907C1.61086 3.81907 3.81086 1.60907 7.86086 2.95907ZM7.54086 8.33907L11.3409 12.1591C11.4909 12.3091 11.6809 12.3791 11.8709 12.3791C12.0609 12.3791 12.2509 12.3091 12.4009 12.1591C12.6909 11.8691 12.6909 11.3891 12.4009 11.0991L8.60086 7.27907C8.31086 6.98907 7.83086 6.98907 7.54086 7.27907C7.25086 7.56907 7.25086 8.04907 7.54086 8.33907Z"
        fill="#145234" />
</svg>