<svg width="100%" height="100%" viewBox="0 0 21 22" fill="none" xmlns="http://www.w3.org/2000/svg">
    <path
        d="M7.78392 16.844L7.78344 16.8439C7.68613 16.8089 7.59326 16.7484 7.50505 16.6591L3.32719 12.4264C3.17085 12.268 3.09333 12.0618 3.10045 11.7976C3.10825 11.5326 3.1935 11.3243 3.35148 11.1642C3.50911 11.0045 3.70935 10.9233 3.96043 10.9233C4.2115 10.9233 4.41174 11.0045 4.56937 11.1642L8.04283 14.6832L8.114 14.7553L8.18517 14.6832L16.4195 6.34094C16.5765 6.18186 16.7806 6.1 17.041 6.1C17.3008 6.1 17.5046 6.18181 17.6616 6.34094C17.8188 6.50018 17.9 6.70732 17.9 6.97154C17.9 7.23649 17.8188 7.44393 17.6616 7.60313L8.72295 16.6591C8.63475 16.7484 8.54188 16.8089 8.44457 16.8439L8.44409 16.844C8.3425 16.8811 8.23272 16.9 8.114 16.9C7.99528 16.9 7.88551 16.8811 7.78392 16.844Z"
        fill="#666666" stroke="#F2F2F2" stroke-width="0.2" />
</svg>