<svg width="24" height="24" viewBox="0 0 24 24" fill="none" xmlns="http://www.w3.org/2000/svg">
    <path
        d="M24.0001 11.9996C24.0001 18.6269 18.6277 23.9993 12.0006 23.9993C5.37337 23.9993 0.000976562 18.6269 0.000976562 11.9996C0.000976562 5.37242 5.37337 0 12.0006 0C18.6277 0 24.0001 5.37242 24.0001 11.9996ZM2.40089 11.9996C2.40089 17.3014 6.69881 21.5994 12.0006 21.5994C17.3023 21.5994 21.6002 17.3014 21.6002 11.9996C21.6002 6.69787 17.3023 2.39993 12.0006 2.39993C6.69881 2.39993 2.40089 6.69787 2.40089 11.9996Z"
        fill="#CCCCCC" />
    <path
        d="M11.9994 22.7993C11.9994 23.462 11.4609 24.0055 10.8015 23.9393C9.63663 23.8225 8.49296 23.5355 7.40741 23.0859C5.95155 22.4828 4.62873 21.5989 3.51447 20.4847C2.4002 19.3704 1.51632 18.0476 0.913285 16.5917C0.463632 15.5061 0.176694 14.3625 0.0598196 13.1976C-0.00634248 12.5382 0.537111 11.9996 1.19983 11.9996C1.86255 11.9996 2.39206 12.5389 2.47469 13.1965C2.58142 14.0459 2.80153 14.879 3.13052 15.6733C3.61294 16.838 4.32005 17.8962 5.21146 18.7877C6.10287 19.6791 7.16113 20.3862 8.32582 20.8686C9.12006 21.1976 9.95319 21.4177 10.8026 21.5245C11.4601 21.6071 11.9994 22.1366 11.9994 22.7993Z"
        fill="#990000" />
</svg>