<svg width="47" height="47" viewBox="0 0 47 47" fill="none" xmlns="http://www.w3.org/2000/svg">
    <path
        d="M6.88299 40.117C3.81844 37.0525 1.66104 33.2001 0.649307 28.986C-0.362428 24.7718 -0.189085 20.3599 1.15017 16.2381C2.48943 12.1163 4.94243 8.44512 8.23797 5.63046C11.5335 2.8158 15.5432 0.9673 19.8238 0.289324C24.1044 -0.388651 28.489 0.130309 32.4931 1.78883C36.4971 3.44735 39.9645 6.18083 42.5119 9.68705C45.0593 13.1933 46.5875 17.3356 46.9276 21.6562C47.2676 25.9768 46.4062 30.3072 44.4387 34.1688L40.2509 32.035C41.825 28.9458 42.5141 25.4814 42.242 22.025C41.97 18.5685 40.7475 15.2546 38.7095 12.4496C36.6716 9.64466 33.8977 7.45788 30.6944 6.13106C27.4912 4.80425 23.9835 4.38908 20.559 4.93146C17.1346 5.47384 13.9268 6.95264 11.2904 9.20437C8.65394 11.4561 6.69154 14.393 5.62014 17.6905C4.54873 20.9879 4.41006 24.5174 5.21944 27.8888C6.02883 31.2601 7.75475 34.342 10.2064 36.7936L6.88299 40.117Z"
        fill="#D9D9D9" />
    <path
        d="M43.8435 29.285C45.0918 29.64 45.827 30.9457 45.3492 32.1524C43.9361 35.7209 41.6653 38.9008 38.7233 41.4025C35.1825 44.4134 30.8284 46.3067 26.2116 46.843C21.5948 47.3793 16.9226 46.5346 12.7859 44.4155C9.34875 42.6548 6.40954 40.0801 4.21604 36.9305C3.47429 35.8655 3.89063 34.4261 5.02438 33.7944C6.15814 33.1627 7.57809 33.5806 8.34623 34.6267C10.0688 36.9727 12.3194 38.8958 14.9287 40.2324C18.2381 41.9276 21.9758 42.6035 25.6693 42.1744C29.3627 41.7454 32.846 40.2307 35.6786 37.822C37.9121 35.9228 39.662 33.535 40.8009 30.8567C41.3087 29.6623 42.5951 28.93 43.8435 29.285Z"
        fill="#1D7C4E" />
</svg>