<svg width="100%" height="100%" viewBox="0 0 16 16" fill="none" xmlns="http://www.w3.org/2000/svg">
<path d="M15.2 8C15.6418 8 16.0041 7.64095 15.96 7.20133C15.8821 6.42473 15.6908 5.66226 15.391 4.93853C14.989 3.96793 14.3997 3.08601 13.6569 2.34315C12.914 1.60028 12.0321 1.011 11.0615 0.608964C10.3377 0.309185 9.57526 0.117887 8.79867 0.0399668C8.35905 -0.00414292 8 0.358172 8 0.8C8 1.24183 8.35954 1.59485 8.79792 1.64994C9.36422 1.72109 9.91966 1.86784 10.4492 2.08717C11.2257 2.4088 11.9312 2.88022 12.5255 3.47452C13.1198 4.06881 13.5912 4.77434 13.9128 5.55083C14.1322 6.08034 14.2789 6.63578 14.3501 7.20208C14.4052 7.64046 14.7582 8 15.2 8Z" fill="#666666"/>
</svg>