<svg width="186" height="284" viewBox="0 0 186 284" fill="none" xmlns="http://www.w3.org/2000/svg">
<path d="M82.4312 20.9876C81.6412 13.6056 79.5291 9.0503 73.588 4.2626C67.9665 -0.268762 61.9226 -0.147075 55.0857 0.0943054C45.7832 0.422463 36.4856 1.44484 27.3978 3.48859C19.5782 5.24707 11.1445 5.62311 5.40819 11.9898C-0.514884 18.5659 -0.55584 28.4525 0.572651 37.2249C1.1319 41.5678 1.89488 45.8857 2.85759 50.1577C3.58761 53.3964 4.48042 56.7079 6.50771 59.3382C8.85856 62.3883 12.5346 64.2066 16.3036 65.0056C20.0736 65.8035 23.9723 65.6759 27.8192 65.4524C38.7206 64.8191 49.5761 63.4346 60.2928 61.34C61.6839 64.461 63.4486 67.4154 65.5537 70.1075C66.3647 70.1653 66.7442 69.137 66.85 68.333C67.2195 65.5193 67.3923 62.6836 67.4103 59.8458C67.58 59.8079 67.7498 59.774 67.9196 59.7351C71.7954 58.8474 75.83 57.7682 78.7261 55.0482C81.4615 52.4788 82.8177 48.7613 83.5447 45.0818C85.1565 36.9407 83.293 29.043 82.4312 20.9876Z" fill="#2247DB"/>
<path d="M10.9723 23.219C12.0539 32.8962 13.1345 42.5733 14.216 52.2495C14.3618 53.5491 16.4181 53.5641 16.2713 52.2495C15.1897 42.5723 14.1092 32.8952 13.0276 23.219C12.8818 21.9184 10.8255 21.9044 10.9723 23.219Z" fill="#F2F2F2"/>
<path d="M21.5654 20.4449C22.7748 30.4373 23.9851 40.4286 25.1945 50.4209C25.3513 51.7176 27.4086 51.7336 27.2498 50.4209C26.0404 40.4286 24.831 30.4373 23.6206 20.4449C23.4629 19.1482 21.4066 19.1333 21.5654 20.4449Z" fill="#F2F2F2"/>
<path d="M13.2487 30.9938C16.4025 30.6686 19.5563 30.5589 22.725 30.6626C24.0513 30.7055 24.0463 28.6538 22.725 28.6099C19.5563 28.5062 16.4025 28.6169 13.2487 28.9411C11.9444 29.0757 11.9315 31.1304 13.2487 30.9938Z" fill="#F2F2F2"/>
<path d="M29.0999 20.7305C31.0373 20.4323 32.9757 20.1331 34.9141 19.8348C36.2204 19.6334 35.6641 17.6564 34.3679 17.8559C32.4305 18.1542 30.4921 18.4534 28.5537 18.7516C27.2474 18.9531 27.8047 20.93 29.0999 20.7305Z" fill="#F2F2F2"/>
<path d="M28.1278 20.4693C29.4291 30.1574 30.7314 39.8455 32.0326 49.5346C32.1025 50.0513 32.448 50.6109 33.0602 50.561C35.3592 50.3745 37.5662 50.0523 39.8202 49.5655C41.1155 49.2863 40.5662 47.3073 39.2739 47.5866C36.0363 48.2858 34.0809 49.4877 33.5666 45.6596C33.219 43.0762 32.8725 40.4928 32.525 37.9085C31.744 32.0954 30.963 26.2823 30.1821 20.4693C30.0093 19.1776 27.9521 19.1606 28.1278 20.4693Z" fill="#F2F2F2"/>
<path d="M32.4897 40.4469C33.8099 40.2165 35.1312 39.9861 36.4514 39.7567C37.7547 39.5293 37.2004 37.5514 35.9051 37.7778C34.5849 38.0082 33.2637 38.2386 31.9434 38.468C30.6392 38.6954 31.1944 40.6723 32.4897 40.4469Z" fill="#F2F2F2"/>
<path d="M38.6261 17.1103C40.197 27.0598 41.4913 37.0422 42.5119 47.0624C42.5659 47.5901 42.9394 48.1267 43.5396 48.0888C46.213 47.9202 48.8115 47.609 51.451 47.1512C52.7552 46.9248 52.2 44.9468 50.9047 45.1723C47.4284 45.7757 44.5992 47.2888 44.1478 43.0198C43.7912 39.6515 43.3818 36.2891 42.9593 32.9287C42.2713 27.4608 41.4683 22.0078 40.6085 16.5647C40.4018 15.2601 38.4214 15.8157 38.6261 17.1103Z" fill="#F2F2F2"/>
<path d="M46.3086 16.4506C47.4641 24.0421 48.6186 31.6336 49.774 39.2251C49.9518 40.3931 49.7141 43.3505 51.0014 44.1036C52.9847 45.2636 56.6848 44.3091 58.7959 44.0398C60.0922 43.8742 60.1082 41.8195 58.7959 41.987C58.2177 42.0608 52.4814 42.8658 52.3336 42.4758C51.287 39.7109 51.3359 35.9186 50.8895 32.9862C50.0237 27.2928 49.1569 21.5994 48.291 15.905C48.0923 14.5994 46.1119 15.1559 46.3086 16.4506Z" fill="#F2F2F2"/>
<path d="M70.2657 21.4677C68.9944 18.1981 63.4578 8.75139 58.862 13.6149C54.5757 18.1512 56.8676 26.6933 58.2078 32.0126C59.0297 35.2733 61.4515 44.1704 65.8946 44.0388C74.3842 43.7864 71.7288 26.2564 70.2657 21.4677C69.8802 20.206 67.8969 20.7436 68.2843 22.0133C69.1552 24.863 69.6345 27.6588 69.7524 30.6472C69.7704 31.109 68.7807 44.8447 64.6233 41.0853C62.3133 38.9977 61.2348 35.1576 60.3999 32.248C59.3683 28.6513 58.7401 24.9189 58.6293 21.1795C58.5643 18.9781 58.9518 12.8828 63.3689 15.0742C65.7168 16.2392 67.3706 19.6644 68.2834 22.0123C68.7587 23.2332 70.7461 22.7036 70.2657 21.4677Z" fill="#F2F2F2"/>
<path d="M57.1236 19.0598C59.056 21.3589 62.5284 22.0042 65.2348 20.6776C68.7221 18.969 70.2031 15.2705 70.3969 11.576C70.4668 10.2524 68.4115 10.2594 68.3416 11.576C68.2048 14.1803 67.3589 16.6959 65.2238 18.3367C63.1935 19.8967 60.1805 19.5156 58.5767 17.6075C57.7238 16.5931 56.2778 18.0534 57.1236 19.0598Z" fill="#F2F2F2"/>
<path d="M73.5679 160.886L56.9661 167.184L44.8383 124C44.4528 121.686 43.9415 119.398 43.6748 117.059C43.1635 112.575 49.6339 109.339 52.2384 106.594C52.6458 106.165 53.0453 105.676 53.1192 105.09C53.1931 104.503 52.7976 103.823 52.2054 103.808C51.9108 103.8 51.6382 103.951 51.3845 104.101C49.4731 105.233 47.6975 106.596 46.1086 108.148C47.3509 106.154 48.5843 104.138 49.523 101.98C49.9754 100.938 50.4697 99.7903 50.6405 98.6612C50.6964 98.2931 50.4707 96.1546 50.0193 96.1745C49.7177 96.1875 49.491 96.4428 49.3013 96.6772C49.1235 96.8987 48.9448 97.1201 48.767 97.3415C48.1838 98.0667 47.9791 98.9005 47.6126 99.7404C47.259 100.551 46.9345 101.374 46.574 102.182C45.8779 103.743 45.041 105.303 43.6888 106.397C43.7537 106.215 43.8186 106.032 43.8825 105.85C45.1668 102.206 46.4232 98.4667 46.6519 94.5816C46.7168 93.4775 47.1282 90.4263 45.6402 90.0164C43.8846 89.5326 44.1302 92.5927 44.0953 93.4894C43.9595 97.0363 43.2973 100.561 42.1359 103.916C41.8912 104.621 41.5766 105.377 40.9195 105.734C42.4674 101.38 42.7391 96.5815 41.6935 92.0811C41.4888 91.2023 40.6628 90.1071 39.9388 90.6457C39.5653 90.923 39.5583 91.4686 39.5893 91.9324C39.761 94.4849 40.0117 97.0523 39.7261 99.5948C39.5873 100.834 39.3486 102.178 38.8812 103.334C38.6545 103.895 38.3659 104.429 38.0244 104.928C37.7887 105.27 37.0986 105.793 36.9888 106.16C37.8007 103.455 37.6389 100.47 36.5414 97.8672C36.3426 97.3964 35.9312 96.8528 35.4458 97.0144C35.1972 97.0972 35.0414 97.3535 34.9994 97.6118C34.9575 97.8702 35.0084 98.1325 35.0534 98.3908C35.5057 100.97 35.0743 103.129 34.0477 105.488C33.5524 106.625 32.5178 107.652 31.7408 108.605C30.9099 109.622 30.075 110.645 29.4059 111.779C28.1196 113.959 27.3497 116.435 27.4765 118.939C27.4935 119.273 27.5194 119.607 27.5404 119.943C27.5384 119.943 27.5374 119.943 27.5354 119.943C27.5424 120.035 27.5514 120.141 27.5594 120.236C27.6343 121.373 27.7242 122.508 27.844 123.641C29.309 140.565 33.4345 179.005 41.5886 192.99C42.3516 194.3 43.4481 195.374 44.7664 196.123C64.1205 200.956 82.5159 183.736 82.5159 183.736L73.5679 160.886Z" fill="#DD7B66"/>
<path d="M181.299 267.333C181.322 265.835 181.498 264.356 181.72 262.881C184.029 252.466 192.367 208.634 176.675 178.981C158.76 145.128 158.906 195.843 158.906 195.843C158.906 195.843 165.252 225.059 166.614 250.951L166.577 250.941C166.795 253.904 166.446 256.872 166.053 259.794C165.665 262.67 164.742 265.535 162.934 267.843C162.222 268.752 161.386 269.561 160.7 270.49C160.52 270.733 160.342 271.025 160.417 271.318C160.461 271.492 160.591 271.634 160.74 271.735C161.55 272.287 162.628 271.712 163.429 271.148C165.357 269.789 167.384 268.306 168.239 266.112C168.169 268.609 168.395 271.046 168.092 273.528C167.792 275.975 167.085 278.358 166.2 280.654C165.999 281.175 165.843 281.885 166.311 282.189C167.176 282.752 168.528 281.244 169.073 280.663C169.96 279.716 170.293 278.308 170.641 277.093C171.428 274.341 172.025 271.535 172.428 268.701C172.32 272.862 171.359 276.912 171.097 281.052C171.04 281.957 171.011 282.945 171.546 283.677C171.64 283.805 171.757 283.927 171.909 283.975C172.281 284.094 172.623 283.735 172.836 283.408C174.679 280.576 174.954 277.174 175.298 273.912C175.422 272.738 175.541 271.553 175.502 270.377C175.84 274.16 176.177 277.943 176.515 281.728C176.547 282.087 176.584 282.46 176.772 282.767C176.961 283.074 177.352 283.29 177.688 283.161C177.873 283.09 178.01 282.932 178.122 282.769C178.725 281.889 178.825 280.769 178.888 279.705C179.105 276.017 179.113 272.317 178.886 268.629C179.005 270.569 179.709 272.626 180.44 274.41C180.929 275.603 182.01 277.605 183.264 278.114C183.497 278.209 183.79 278.25 183.982 278.085C184.206 277.892 184.167 277.539 184.098 277.251C183.295 273.892 181.247 270.785 181.299 267.333Z" fill="#DD7B66"/>
<path d="M157.046 98.3947C158.172 95.2826 159.299 92.1706 160.425 89.0586C162.154 84.2839 163.907 79.3546 163.67 74.2836C163.433 69.2116 160.703 63.9052 155.916 62.1956C157.572 60.1818 157.009 56.988 155.26 55.055C153.512 53.1219 150.898 52.2163 148.343 51.6976C145.786 51.1789 143.15 50.9645 140.7 50.0678C137.203 48.7871 134.345 46.2137 131.036 44.5051C125.096 41.4389 118.043 41.3382 111.427 42.3057C108.145 42.7855 104.804 43.5505 102.08 45.4407C99.3561 47.3308 97.3568 50.5665 97.7632 53.854C93.7336 54.1682 89.6471 55.7033 87.0296 58.7794C84.4131 61.8565 83.6311 66.6322 85.8392 70.0135C86.6291 71.2224 87.7337 72.1949 88.5735 73.3689C89.4134 74.5439 89.9827 76.07 89.4913 77.4275C89.0299 78.7022 87.7576 79.5161 87.1415 80.724C86.2496 82.4755 86.9767 84.7118 88.3708 86.0982C89.7649 87.4847 91.6834 88.1949 93.5649 88.7724C94.8891 89.1793 96.5439 89.9962 96.3282 91.3637" fill="#4D4D4D"/>
<path d="M98.376 88.6073C97.1516 87.6448 95.4369 87.2648 93.9749 87.8014C92.7016 88.2692 91.7259 89.3773 91.2305 90.6381C90.7352 91.8999 90.6833 93.3003 90.874 94.6428C91.5122 99.1373 95.1094 103.376 99.5025 104.445" fill="#CE6B5B"/>
<path d="M92.3795 87.9103C96.0546 88.2594 99.7347 88.5298 103.422 88.7223C104.415 88.7741 104.41 87.2341 103.422 87.1832C99.7347 86.9907 96.0546 86.7204 92.3795 86.3713C91.3898 86.2775 91.3988 87.8176 92.3795 87.9103Z" fill="#EDA34C"/>
<path d="M116.637 117.787L117.601 134.156C117.601 134.156 101.538 135.403 87.8721 143.406C74.2064 151.408 65.4102 158.444 65.4102 158.444L77.9903 192.501L86.1384 186.865C86.1384 186.865 86.8005 240.09 85.6071 247.457L146.618 251.337L153.804 199.119L158.492 208.479L185.722 189.67C185.722 189.67 172.007 147.922 142.852 136.847L133.33 133.688L131.164 115.248L116.637 117.787Z" fill="#DD7B66"/>
<path d="M128.073 56.2035C118.913 55.5961 107.739 58.5625 102.585 66.5639C99.2851 71.6858 98.4173 77.9756 98.0788 84.056C97.8201 88.6851 97.8201 93.3292 98.0788 97.9583C98.4093 103.866 99.3151 110.123 103.141 114.641C108.6 121.09 120.617 123.596 128.644 123.592C135.961 123.589 142.273 118.5 146.004 112.493C149.863 106.28 153.086 99.0086 154.434 91.8021C155.872 84.1128 155.788 73.6298 150.885 66.923C146.067 60.3329 135.861 56.7202 128.073 56.2035Z" fill="#DD7B66"/>
<path d="M116.281 101.811C116.25 102.524 116.632 103.207 117.111 103.747C118.068 104.823 119.412 105.548 120.838 105.756C121.371 105.833 121.922 105.84 122.443 105.703C123.745 105.358 124.673 104.145 125.054 102.854C125.386 101.731 125.374 100.545 125.317 99.3711C122.363 100.363 119.341 101.135 116.281 101.811Z" fill="white"/>
<path d="M108.882 90.4301C108.739 92.1816 108.006 93.5521 107.244 93.4893C106.483 93.4274 105.981 91.9572 106.124 90.2057C106.267 88.4542 107 87.0847 107.762 87.1465C108.524 87.2074 109.026 88.6776 108.882 90.4301Z" fill="#93413B"/>
<path d="M130.443 91.1821C130.3 92.9336 129.567 94.3041 128.805 94.2413C128.043 94.1794 127.542 92.7092 127.684 90.9577C127.827 89.2062 128.56 87.8357 129.322 87.8986C130.084 87.9594 130.586 89.4296 130.443 91.1821Z" fill="#93413B"/>
<path d="M111.659 77.6568C111.903 79.3055 109.728 80.9932 106.801 81.4251C103.874 81.857 101.304 80.8705 101.06 79.2218C100.815 77.573 102.99 75.8853 105.916 75.4534C108.843 75.0206 111.414 76.007 111.659 77.6568Z" fill="#93413B"/>
<path d="M136.709 81.7515C136.1 83.3035 133.373 83.6885 130.619 82.6113C127.863 81.5341 126.124 79.4016 126.733 77.8495C127.342 76.2975 130.068 75.9125 132.823 76.9897C135.578 78.067 137.318 80.1985 136.709 81.7515Z" fill="#93413B"/>
<path d="M113.185 54.8518C113.519 57.7683 115.338 60.3956 117.74 62.0872C120.142 63.7789 123.074 64.6028 126.003 64.8471C129.663 65.1514 133.462 64.6117 136.936 65.8017C137.116 65.8635 137.303 65.9343 137.429 66.078C137.608 66.2825 137.618 66.5787 137.631 66.85C137.837 70.9455 141.054 74.7018 145.073 75.5397C143.425 77.0508 142.08 78.9549 141.525 81.1203C140.971 83.2848 141.28 85.7215 142.623 87.5089C143.718 88.9662 145.409 89.9178 146.394 91.4518C147.5 93.1744 147.546 95.3408 148.025 97.3307C148.503 99.3206 149.799 101.451 151.842 101.614C153.194 101.721 154.484 100.885 155.267 99.7794C156.05 98.6743 156.412 97.3327 156.713 96.0131C157.819 91.1665 158.296 86.1764 158.128 81.2071C157.873 73.6904 155.845 65.7289 150.2 60.7527C148.413 59.1777 146.334 57.9678 144.198 56.9125C137.039 53.3786 129.065 51.5074 121.081 51.4865C117.422 51.4775 113.547 51.9313 110.643 54.1536" fill="#4D4D4D"/>
<path d="M142.852 136.85L142.038 136.579C138.498 140.97 133.41 144.066 127.805 144.494C121.016 145.013 114.088 141.015 111.003 135.123C105.064 136.255 96.0402 138.624 87.8702 143.408C74.2044 151.41 65.4082 158.446 65.4082 158.446L77.9884 192.502L86.1365 186.866C86.1365 186.866 86.7986 240.091 85.6052 247.458L146.616 251.338L153.802 199.12L158.49 208.48L185.72 189.671C185.722 189.672 172.007 147.924 142.852 136.85Z" fill="#2C5BF1"/>
<path d="M120.557 178.421C121.788 167.827 123.019 157.233 124.249 146.639C124.478 144.669 121.393 144.691 121.167 146.639C119.952 157.094 118.738 167.548 117.523 178.004C118.537 178.15 119.551 178.286 120.557 178.421Z" fill="#2247DB"/>
<path d="M128.874 155.786C128.78 156.822 128.225 157.619 127.637 157.565C127.049 157.512 126.648 156.629 126.742 155.593C126.836 154.556 127.391 153.759 127.979 153.813C128.567 153.866 128.967 154.75 128.874 155.786Z" fill="#2247DB"/>
<path d="M128.055 163.757C127.961 164.793 127.407 165.59 126.819 165.536C126.231 165.483 125.829 164.6 125.924 163.563C126.019 162.527 126.572 161.73 127.16 161.784C127.749 161.837 128.149 162.72 128.055 163.757Z" fill="#2247DB"/>
<path d="M126.885 173.364C126.791 174.401 126.237 175.197 125.649 175.144C125.06 175.091 124.659 174.207 124.754 173.171C124.849 172.134 125.402 171.337 125.99 171.391C126.58 171.445 126.98 172.328 126.885 173.364Z" fill="#2247DB"/>
<path d="M87.0331 194.689C87.2048 194.679 87.1918 192.206 87.1739 188.218C87.1549 184.23 87.1639 178.724 87.3586 172.647C87.5574 166.571 87.9049 161.076 88.1825 157.097C88.4582 153.119 88.6309 150.652 88.4611 150.631C88.3064 150.612 87.839 153.045 87.3476 157.018C86.8553 160.988 86.373 166.503 86.1732 172.61C85.9775 178.716 86.1013 184.25 86.336 188.244C86.5687 192.239 86.8783 194.698 87.0331 194.689Z" fill="#2247DB"/>
<path d="M154.85 202.792C154.926 202.761 154.677 201.958 154.163 200.535C153.649 199.111 152.869 197.066 151.881 194.548C150.733 191.675 149.563 188.746 148.357 185.727C147.022 182.415 145.553 178.78 144.398 174.861C143.237 170.948 142.565 167.095 142.568 163.585C142.555 160.071 143.161 156.922 144.056 154.425C144.929 151.911 146.088 150.066 146.961 148.858C147.4 148.252 147.763 147.796 148.02 147.494C148.267 147.183 148.385 147.003 148.356 146.973C148.328 146.943 148.154 147.065 147.848 147.327C147.532 147.58 147.106 147.994 146.6 148.57C145.593 149.717 144.279 151.56 143.27 154.13C142.239 156.681 141.522 159.936 141.475 163.577C141.412 167.223 142.075 171.201 143.259 175.193C144.439 179.192 145.955 182.848 147.346 186.143C148.633 189.129 149.882 192.026 151.106 194.868C152.192 197.345 153.09 199.342 153.736 200.711C154.381 202.081 154.774 202.823 154.85 202.792Z" fill="#2247DB"/>
<path opacity="0.12" d="M140.495 100.455C140.987 103.03 138.659 105.638 135.294 106.28C131.93 106.923 128.803 105.357 128.31 102.781C127.818 100.207 130.145 97.5985 133.51 96.9562C136.874 96.3148 140.002 97.8808 140.495 100.455Z" fill="#EA4E95"/>
<path opacity="0.12" d="M114.553 102.341C114.247 104.945 111.241 106.732 107.839 106.333C104.436 105.934 101.927 103.5 102.232 100.897C102.538 98.2937 105.544 96.5063 108.946 96.9053C112.349 97.3043 114.858 99.738 114.553 102.341Z" fill="#EA4E95"/>
<path d="M142.852 136.85L142.038 136.579C138.499 140.97 133.411 144.066 127.805 144.494C121.016 145.013 114.088 141.015 111.004 135.123C109.448 135.419 107.677 135.803 105.77 136.291C110.47 144.031 119.365 149.329 128.507 149.129C136.103 148.963 143.323 145.098 148.21 139.308C146.485 138.378 144.699 137.551 142.852 136.85Z" fill="#2247DB"/>
<path d="M114.011 94.5182C114.041 93.5187 114.311 92.6829 114.795 91.8899C114.83 91.8211 114.86 91.7493 114.898 91.6824C114.907 91.6894 114.916 91.6964 114.924 91.7024C115.036 91.5328 115.145 91.3633 115.276 91.1957C115.408 89.8741 115.423 88.5375 115.351 87.2797C115.093 84.9577 114.402 82.498 112.394 81.0647C109.21 78.7916 104.852 78.8155 101.099 78.7656C98.3275 78.7287 94.7913 79.1985 93.1395 81.749C91.1941 84.7532 90.8486 88.6363 91.3819 92.1074C91.8153 94.9281 92.3386 97.4815 95.2547 98.6216C99.0576 100.11 103.424 100.444 107.47 100.346C111.072 100.26 113.137 98.2486 114.252 95.5485C114.1 95.2253 114.001 94.8772 114.011 94.5182ZM108.414 98.7573C105.393 99.1213 102.163 98.6884 99.2024 98.1289C96.2164 97.5643 93.8575 96.7784 93.1754 93.5177C92.5762 90.6521 92.5473 87.8473 93.3123 85.0146C94.261 81.5026 97.0403 80.4533 100.359 80.3106C105.969 80.0683 113.055 80.4942 113.809 87.2807C114.044 91.3672 113.662 98.1259 108.414 98.7573Z" fill="#437DFA"/>
<path d="M144.632 89.5454C144.375 87.2233 143.684 84.7647 141.675 83.3303C138.492 81.0572 134.134 81.0811 130.381 81.0312C127.609 80.9943 124.073 81.4641 122.421 84.0146C120.385 87.1595 119.931 91.5393 120.137 95.2009C120.551 102.524 131.5 102.738 136.752 102.613C143.674 102.447 144.955 95.1909 144.632 89.5454C144.577 88.5589 143.035 88.5529 143.092 89.5454C143.325 93.6329 142.944 100.391 137.696 101.023C134.675 101.387 131.445 100.954 128.484 100.395C125.615 99.8519 122.637 98.9293 121.773 95.8153C121.05 93.209 121.915 89.7967 122.595 87.2792C123.544 83.7672 126.323 82.7179 129.642 82.5753C135.252 82.3329 142.338 82.7588 143.092 89.5454C143.199 90.5209 144.742 90.5318 144.632 89.5454Z" fill="#437DFA"/>
<path d="M144.527 92.5259C147.801 92.3643 151.064 92.3852 154.335 92.5877C156.028 92.6924 157.73 92.8401 159.391 93.1842C162.047 93.7338 163.109 95.8354 163.891 98.1704C164.205 99.107 165.694 98.705 165.377 97.7614C164.239 94.3622 162.658 92.2915 159.031 91.5404C154.372 90.5759 149.25 90.7534 144.527 90.9868C143.538 91.0357 143.533 92.5757 144.527 92.5259Z" fill="#437DFA"/>
<path d="M147.489 100.539C149.492 96.5065 155.448 93.1062 159.739 95.8023C161.933 97.1807 162.902 100.058 162.434 102.605C161.966 105.151 160.261 107.348 158.17 108.879C154.149 111.822 148.55 112.458 143.969 110.494" fill="#DD7B66"/>
<path d="M148.598 108.542C148.904 103.778 153.564 98.1991 158.812 100.049C159.443 100.272 159.711 99.2733 159.086 99.0529C153.181 96.9702 147.91 103.146 147.564 108.542C147.522 109.208 148.556 109.204 148.598 108.542Z" fill="#B5574D"/>
<path d="M153.039 100.358C154.493 102.939 153.47 105.884 150.798 107.107C150.196 107.383 150.719 108.267 151.316 107.993C154.503 106.534 155.633 102.87 153.927 99.839C153.601 99.2635 152.714 99.7801 153.039 100.358Z" fill="#B5574D"/>
<path d="M116.393 78.5988C117.077 81.8006 118.072 85.4432 116.278 88.4485C115.293 90.1002 113.935 91.2463 113.303 93.1205C112.31 96.0649 115.067 98.8318 117.676 99.4732C118.32 99.6308 118.593 98.6413 117.949 98.4837C115.035 97.7675 113.388 95.0406 114.782 92.2198C115.468 90.8304 116.709 89.7322 117.507 88.3956C119.233 85.503 118.031 81.3557 117.384 78.3275C117.246 77.6791 116.255 77.9534 116.393 78.5988Z" fill="#B5574D"/>
<path d="M115.301 89.6208C116.563 87.3267 119.67 87.9232 120.133 90.4457C120.313 91.4212 121.798 91.0073 121.619 90.0368C120.91 86.1807 115.838 85.4496 113.969 88.8438C113.491 89.7146 114.822 90.4916 115.301 89.6208Z" fill="#EDA34C"/>
</svg>
