<svg width="28" height="27" viewBox="0 0 28 27" fill="none" xmlns="http://www.w3.org/2000/svg">
<path d="M13.5383 1.10996C13.7091 0.699318 14.2909 0.699318 14.4617 1.10996L17.8503 9.25715C17.9223 9.43027 18.0851 9.54856 18.272 9.56354L27.0675 10.2687C27.5109 10.3042 27.6906 10.8575 27.3529 11.1468L20.6516 16.8872C20.5092 17.0092 20.447 17.2006 20.4905 17.3829L22.5378 25.9659C22.641 26.3985 22.1704 26.7405 21.7909 26.5086L14.2606 21.9092C14.1006 21.8115 13.8994 21.8115 13.7394 21.9092L6.20913 26.5086C5.82958 26.7405 5.35896 26.3985 5.46215 25.9659L7.50951 17.3829C7.55301 17.2006 7.49083 17.0092 7.34843 16.8872L0.64713 11.1468C0.309362 10.8575 0.489124 10.3042 0.932451 10.2687L9.72803 9.56354C9.91492 9.54856 10.0777 9.43027 10.1497 9.25715L13.5383 1.10996Z" fill="#FFC107"/>
</svg>
