<svg width="186" height="284" viewBox="0 0 186 284" fill="none" xmlns="http://www.w3.org/2000/svg">
    <path
        d="M82.4312 20.9876C81.6412 13.6056 79.5291 9.0503 73.588 4.2626C67.9665 -0.268762 61.9226 -0.147075 55.0857 0.0943054C45.7832 0.422463 36.4856 1.44484 27.3978 3.48859C19.5782 5.24707 11.1445 5.62311 5.40819 11.9898C-0.514884 18.5659 -0.55584 28.4525 0.572651 37.2249C1.1319 41.5678 1.89488 45.8857 2.85759 50.1577C3.58761 53.3964 4.48042 56.7079 6.50771 59.3382C8.85856 62.3883 12.5346 64.2066 16.3036 65.0056C20.0736 65.8035 23.9723 65.6759 27.8192 65.4524C38.7206 64.8191 49.5761 63.4346 60.2928 61.34C61.6839 64.461 63.4486 67.4154 65.5537 70.1075C66.3647 70.1653 66.7442 69.137 66.85 68.333C67.2195 65.5193 67.3923 62.6836 67.4103 59.8458C67.58 59.8079 67.7498 59.774 67.9196 59.7351C71.7954 58.8474 75.83 57.7682 78.7261 55.0482C81.4615 52.4788 82.8177 48.7613 83.5447 45.0818C85.1565 36.9407 83.293 29.043 82.4312 20.9876Z"
        fill="#1D7C4E" />
    <path
        d="M10.9723 23.219C12.0539 32.8962 13.1345 42.5733 14.216 52.2495C14.3618 53.5491 16.4181 53.5641 16.2713 52.2495C15.1897 42.5723 14.1092 32.8952 13.0276 23.219C12.8818 21.9184 10.8255 21.9044 10.9723 23.219Z"
        fill="#F2F2F2" />
    <path
        d="M21.5654 20.443C22.7748 30.4353 23.9851 40.4266 25.1945 50.419C25.3513 51.7156 27.4086 51.7316 27.2498 50.419C26.0404 40.4266 24.831 30.4353 23.6206 20.443C23.4629 19.1463 21.4066 19.1313 21.5654 20.443Z"
        fill="#F2F2F2" />
    <path
        d="M13.2487 30.9918C16.4025 30.6667 19.5563 30.557 22.725 30.6607C24.0513 30.7036 24.0463 28.6518 22.725 28.608C19.5563 28.5042 16.4025 28.6149 13.2487 28.9391C11.9444 29.0738 11.9315 31.1285 13.2487 30.9918Z"
        fill="#F2F2F2" />
    <path
        d="M29.0999 20.7325C31.0373 20.4343 32.9757 20.135 34.9141 19.8368C36.2204 19.6353 35.6641 17.6584 34.3679 17.8579C32.4305 18.1561 30.4921 18.4553 28.5537 18.7536C27.2474 18.9551 27.8047 20.932 29.0999 20.7325Z"
        fill="#F2F2F2" />
    <path
        d="M28.1278 20.4673C29.4291 30.1554 30.7314 39.8436 32.0326 49.5327C32.1025 50.0493 32.448 50.6089 33.0602 50.559C35.3592 50.3725 37.5662 50.0503 39.8202 49.5636C41.1155 49.2843 40.5662 47.3054 39.2739 47.5847C36.0363 48.2839 34.0809 49.4858 33.5666 45.6576C33.219 43.0743 32.8725 40.4909 32.525 37.9065C31.744 32.0935 30.963 26.2804 30.1821 20.4673C30.0093 19.1756 27.9521 19.1587 28.1278 20.4673Z"
        fill="#F2F2F2" />
    <path
        d="M32.4897 40.445C33.8099 40.2146 35.1312 39.9842 36.4514 39.7547C37.7547 39.5273 37.2004 37.5494 35.9051 37.7758C34.5849 38.0062 33.2637 38.2366 31.9434 38.4661C30.6392 38.6935 31.1944 40.6704 32.4897 40.445Z"
        fill="#F2F2F2" />
    <path
        d="M38.6261 17.1103C40.197 27.0598 41.4913 37.0422 42.5119 47.0624C42.5659 47.5901 42.9394 48.1267 43.5396 48.0888C46.213 47.9202 48.8115 47.609 51.451 47.1512C52.7552 46.9248 52.2 44.9468 50.9047 45.1723C47.4284 45.7757 44.5992 47.2888 44.1478 43.0198C43.7912 39.6515 43.3818 36.2891 42.9593 32.9287C42.2713 27.4608 41.4683 22.0078 40.6085 16.5647C40.4018 15.2601 38.4214 15.8157 38.6261 17.1103Z"
        fill="#F2F2F2" />
    <path
        d="M46.3086 16.4506C47.4641 24.0421 48.6186 31.6336 49.774 39.2251C49.9518 40.3931 49.7141 43.3505 51.0014 44.1036C52.9847 45.2636 56.6848 44.3091 58.7959 44.0398C60.0922 43.8742 60.1082 41.8195 58.7959 41.987C58.2177 42.0608 52.4814 42.8658 52.3336 42.4758C51.287 39.7109 51.3359 35.9186 50.8895 32.9862C50.0237 27.2928 49.1569 21.5994 48.291 15.905C48.0923 14.5994 46.1119 15.1559 46.3086 16.4506Z"
        fill="#F2F2F2" />
    <path
        d="M70.2657 21.4677C68.9944 18.1981 63.4578 8.75139 58.862 13.6149C54.5757 18.1512 56.8676 26.6933 58.2078 32.0126C59.0297 35.2733 61.4515 44.1704 65.8946 44.0388C74.3842 43.7864 71.7288 26.2564 70.2657 21.4677C69.8802 20.206 67.8969 20.7436 68.2843 22.0133C69.1552 24.863 69.6345 27.6588 69.7524 30.6472C69.7704 31.109 68.7807 44.8447 64.6233 41.0853C62.3133 38.9977 61.2348 35.1576 60.3999 32.248C59.3683 28.6513 58.7401 24.9189 58.6293 21.1795C58.5643 18.9781 58.9518 12.8828 63.3689 15.0742C65.7168 16.2392 67.3706 19.6644 68.2834 22.0123C68.7587 23.2332 70.7461 22.7036 70.2657 21.4677Z"
        fill="#F2F2F2" />
    <path
        d="M57.1236 19.0598C59.056 21.3589 62.5284 22.0042 65.2348 20.6776C68.7221 18.969 70.2031 15.2705 70.3969 11.576C70.4668 10.2524 68.4115 10.2594 68.3416 11.576C68.2048 14.1803 67.3589 16.6959 65.2238 18.3367C63.1935 19.8967 60.1805 19.5156 58.5767 17.6075C57.7238 16.5931 56.2778 18.0534 57.1236 19.0598Z"
        fill="#F2F2F2" />
    <path
        d="M73.5679 160.89L56.9661 167.188L44.8383 124.004C44.4528 121.69 43.9415 119.402 43.6748 117.063C43.1635 112.579 49.6339 109.343 52.2384 106.598C52.6458 106.169 53.0453 105.68 53.1192 105.094C53.1931 104.507 52.7976 103.827 52.2054 103.812C51.9108 103.804 51.6382 103.954 51.3845 104.105C49.4731 105.237 47.6975 106.6 46.1086 108.152C47.3509 106.158 48.5843 104.142 49.523 101.984C49.9754 100.942 50.4697 99.7942 50.6405 98.6651C50.6964 98.297 50.4707 96.1585 50.0193 96.1784C49.7177 96.1914 49.491 96.4468 49.3013 96.6812C49.1235 96.9026 48.9448 97.124 48.767 97.3454C48.1838 98.0706 47.9791 98.9044 47.6126 99.7443C47.259 100.555 46.9345 101.378 46.574 102.186C45.8779 103.747 45.041 105.307 43.6888 106.401C43.7537 106.219 43.8186 106.036 43.8825 105.854C45.1668 102.21 46.4232 98.4706 46.6519 94.5855C46.7168 93.4814 47.1282 90.4302 45.6402 90.0203C43.8846 89.5365 44.1302 92.5966 44.0953 93.4933C43.9595 97.0402 43.2973 100.565 42.1359 103.92C41.8912 104.625 41.5766 105.381 40.9195 105.738C42.4674 101.384 42.7391 96.5854 41.6935 92.085C41.4888 91.2062 40.6628 90.111 39.9388 90.6496C39.5653 90.9269 39.5583 91.4725 39.5893 91.9363C39.761 94.4888 40.0117 97.0562 39.7261 99.5987C39.5873 100.837 39.3486 102.182 38.8812 103.338C38.6545 103.899 38.3659 104.433 38.0244 104.932C37.7887 105.274 37.0986 105.797 36.9888 106.164C37.8007 103.459 37.6389 100.473 36.5414 97.8711C36.3426 97.4003 35.9312 96.8567 35.4458 97.0183C35.1972 97.1011 35.0414 97.3574 34.9994 97.6157C34.9575 97.8741 35.0084 98.1364 35.0534 98.3948C35.5057 100.974 35.0743 103.133 34.0477 105.492C33.5524 106.629 32.5178 107.656 31.7408 108.609C30.9099 109.626 30.075 110.649 29.4059 111.783C28.1196 113.963 27.3497 116.439 27.4765 118.943C27.4935 119.277 27.5194 119.611 27.5404 119.946C27.5384 119.947 27.5374 119.947 27.5354 119.947C27.5424 120.039 27.5514 120.145 27.5594 120.24C27.6343 121.377 27.7242 122.512 27.844 123.645C29.309 140.568 33.4345 179.009 41.5886 192.994C42.3516 194.303 43.4481 195.378 44.7664 196.127C64.1205 200.96 82.5159 183.74 82.5159 183.74L73.5679 160.89Z"
        fill="#DD7B66" />
    <path
        d="M181.299 267.335C181.322 265.837 181.498 264.358 181.72 262.883C184.029 252.468 192.367 208.636 176.675 178.982C158.76 145.13 158.906 195.845 158.906 195.845C158.906 195.845 165.252 225.061 166.614 250.953L166.577 250.943C166.795 253.906 166.446 256.874 166.053 259.796C165.665 262.672 164.742 265.537 162.934 267.845C162.222 268.754 161.386 269.563 160.7 270.491C160.52 270.735 160.342 271.027 160.417 271.32C160.461 271.494 160.591 271.636 160.74 271.737C161.55 272.289 162.628 271.714 163.429 271.15C165.357 269.791 167.384 268.308 168.239 266.114C168.169 268.611 168.395 271.048 168.092 273.53C167.792 275.977 167.085 278.36 166.2 280.656C165.999 281.177 165.843 281.887 166.311 282.191C167.176 282.754 168.528 281.246 169.073 280.665C169.96 279.718 170.293 278.31 170.641 277.094C171.428 274.343 172.025 271.537 172.428 268.703C172.32 272.864 171.359 276.914 171.097 281.054C171.04 281.959 171.011 282.946 171.546 283.679C171.64 283.807 171.757 283.929 171.909 283.977C172.281 284.096 172.623 283.737 172.836 283.41C174.679 280.578 174.954 277.176 175.298 273.914C175.422 272.74 175.541 271.555 175.502 270.379C175.84 274.162 176.177 277.945 176.515 281.73C176.547 282.089 176.584 282.462 176.772 282.769C176.961 283.076 177.352 283.292 177.688 283.163C177.873 283.092 178.01 282.934 178.122 282.771C178.725 281.891 178.825 280.771 178.888 279.707C179.105 276.019 179.113 272.319 178.886 268.631C179.005 270.571 179.709 272.628 180.44 274.412C180.929 275.605 182.01 277.607 183.264 278.116C183.497 278.211 183.79 278.252 183.982 278.087C184.206 277.894 184.167 277.541 184.098 277.253C183.295 273.894 181.247 270.787 181.299 267.335Z"
        fill="#DD7B66" />
    <path
        d="M157.046 98.3966C158.172 95.2846 159.299 92.1726 160.425 89.0606C162.154 84.2858 163.907 79.3565 163.67 74.2855C163.433 69.2136 160.703 63.9072 155.916 62.1976C157.572 60.1838 157.009 56.99 155.26 55.0569C153.512 53.1239 150.898 52.2182 148.343 51.6995C145.786 51.1809 143.15 50.9664 140.7 50.0697C137.203 48.789 134.345 46.2156 131.036 44.507C125.096 41.4409 118.043 41.3401 111.427 42.3077C108.145 42.7874 104.804 43.5525 102.08 45.4426C99.3561 47.3328 97.3568 50.5684 97.7632 53.856C93.7336 54.1702 89.6471 55.7053 87.0296 58.7814C84.4131 61.8585 83.6311 66.6342 85.8392 70.0155C86.6291 71.2244 87.7337 72.1969 88.5735 73.3709C89.4134 74.5459 89.9827 76.0719 89.4913 77.4295C89.0299 78.7042 87.7576 79.5181 87.1415 80.726C86.2496 82.4775 86.9767 84.7138 88.3708 86.1002C89.7649 87.4866 91.6834 88.1968 93.5649 88.7743C94.8891 89.1813 96.5439 89.9982 96.3282 91.3657"
        fill="#4D4D4D" />
    <path
        d="M98.376 88.6093C97.1516 87.6467 95.4369 87.2667 93.9749 87.8033C92.7016 88.2711 91.7259 89.3793 91.2305 90.6401C90.7352 91.9018 90.6833 93.3022 90.874 94.6448C91.5122 99.1392 95.1094 103.378 99.5025 104.447"
        fill="#CE6B5B" />
    <path
        d="M92.3795 87.9103C96.0546 88.2594 99.7347 88.5298 103.422 88.7223C104.415 88.7741 104.41 87.2341 103.422 87.1832C99.7347 86.9907 96.0546 86.7204 92.3795 86.3713C91.3898 86.2775 91.3988 87.8176 92.3795 87.9103Z"
        fill="#EDA34C" />
    <path
        d="M116.637 117.788L117.601 134.158C117.601 134.158 101.538 135.405 87.8721 143.408C74.2064 151.41 65.4102 158.446 65.4102 158.446L77.9903 192.503L86.1384 186.867C86.1384 186.867 86.8005 240.092 85.6071 247.458L146.618 251.338L153.804 199.121L158.492 208.481L185.722 189.672C185.722 189.672 172.007 147.924 142.852 136.849L133.33 133.69L131.164 115.25L116.637 117.788Z"
        fill="#DD7B66" />
    <path
        d="M128.073 56.2055C118.913 55.598 107.739 58.5644 102.585 66.5659C99.2851 71.6877 98.4173 77.9776 98.0788 84.0579C97.8201 88.687 97.8201 93.3311 98.0788 97.9602C98.4093 103.868 99.3151 110.125 103.141 114.643C108.6 121.092 120.617 123.598 128.644 123.594C135.961 123.591 142.273 118.501 146.004 112.495C149.863 106.282 153.086 99.0105 154.434 91.804C155.872 84.1148 155.788 73.6317 150.885 66.9249C146.067 60.3349 135.861 56.7221 128.073 56.2055Z"
        fill="#DD7B66" />
    <path
        d="M116.281 101.811C116.25 102.524 116.632 103.207 117.111 103.747C118.068 104.823 119.412 105.548 120.838 105.756C121.371 105.833 121.922 105.84 122.443 105.703C123.745 105.358 124.673 104.145 125.054 102.854C125.386 101.731 125.374 100.545 125.317 99.3711C122.363 100.363 119.341 101.135 116.281 101.811Z"
        fill="white" />
    <path
        d="M108.882 90.434C108.739 92.1855 108.006 93.556 107.244 93.4932C106.483 93.4313 105.981 91.9611 106.124 90.2096C106.267 88.4581 107 87.0886 107.762 87.1505C108.524 87.2113 109.026 88.6815 108.882 90.434Z"
        fill="#93413B" />
    <path
        d="M130.443 91.1841C130.3 92.9356 129.567 94.3061 128.805 94.2432C128.043 94.1814 127.542 92.7112 127.684 90.9597C127.827 89.2082 128.56 87.8377 129.322 87.9005C130.084 87.9614 130.586 89.4316 130.443 91.1841Z"
        fill="#93413B" />
    <path
        d="M111.659 77.6568C111.903 79.3055 109.728 80.9932 106.801 81.4251C103.874 81.857 101.304 80.8705 101.06 79.2218C100.815 77.573 102.99 75.8853 105.916 75.4534C108.843 75.0206 111.414 76.007 111.659 77.6568Z"
        fill="#93413B" />
    <path
        d="M136.709 81.7554C136.1 83.3074 133.373 83.6925 130.619 82.6152C127.863 81.538 126.124 79.4055 126.733 77.8534C127.342 76.3014 130.068 75.9164 132.823 76.9937C135.578 78.0709 137.318 80.2024 136.709 81.7554Z"
        fill="#93413B" />
    <path
        d="M113.185 54.8538C113.519 57.7703 115.338 60.3975 117.74 62.0892C120.142 63.7808 123.074 64.6047 126.003 64.8491C129.663 65.1533 133.462 64.6137 136.936 65.8036C137.116 65.8655 137.303 65.9363 137.429 66.0799C137.608 66.2844 137.618 66.5806 137.631 66.852C137.837 70.9474 141.054 74.7038 145.073 75.5416C143.425 77.0528 142.08 78.9569 141.525 81.1223C140.971 83.2867 141.28 85.7235 142.623 87.5109C143.718 88.9682 145.409 89.9197 146.394 91.4538C147.5 93.1763 147.546 95.3428 148.025 97.3327C148.503 99.3226 149.799 101.453 151.842 101.616C153.194 101.723 154.484 100.887 155.267 99.7814C156.05 98.6762 156.412 97.3347 156.713 96.0151C157.819 91.1685 158.296 86.1783 158.128 81.2091C157.873 73.6924 155.845 65.7308 150.2 60.7546C148.413 59.1797 146.334 57.9698 144.198 56.9145C137.039 53.3806 129.065 51.5094 121.081 51.4884C117.422 51.4794 113.547 51.9333 110.643 54.1556"
        fill="#4D4D4D" />
    <path
        d="M142.852 136.852L142.038 136.581C138.498 140.972 133.41 144.068 127.805 144.496C121.016 145.015 114.088 141.017 111.003 135.125C105.064 136.257 96.0402 138.626 87.8702 143.41C74.2044 151.412 65.4082 158.448 65.4082 158.448L77.9884 192.504L86.1365 186.868C86.1365 186.868 86.7986 240.093 85.6052 247.459L146.616 251.34L153.802 199.122L158.49 208.482L185.72 189.673C185.722 189.674 172.007 147.926 142.852 136.852Z"
        fill="#27A568" />
    <path
        d="M120.557 178.422C121.788 167.829 123.019 157.235 124.249 146.641C124.478 144.671 121.393 144.693 121.167 146.641C119.952 157.096 118.738 167.55 117.523 178.006C118.537 178.152 119.551 178.288 120.557 178.422Z"
        fill="#1D7C4E" />
    <path
        d="M128.874 155.788C128.78 156.824 128.225 157.621 127.637 157.567C127.049 157.514 126.648 156.631 126.742 155.595C126.836 154.558 127.391 153.761 127.979 153.815C128.567 153.868 128.967 154.752 128.874 155.788Z"
        fill="#1D7C4E" />
    <path
        d="M128.055 163.761C127.961 164.797 127.407 165.594 126.819 165.54C126.231 165.487 125.829 164.603 125.924 163.567C126.019 162.531 126.572 161.734 127.16 161.788C127.749 161.841 128.149 162.724 128.055 163.761Z"
        fill="#1D7C4E" />
    <path
        d="M126.885 173.366C126.791 174.402 126.237 175.199 125.649 175.146C125.06 175.093 124.659 174.209 124.754 173.173C124.849 172.136 125.402 171.339 125.99 171.393C126.58 171.447 126.98 172.33 126.885 173.366Z"
        fill="#1D7C4E" />
    <path
        d="M87.0331 194.691C87.2048 194.681 87.1918 192.208 87.1739 188.22C87.1549 184.232 87.1639 178.726 87.3586 172.649C87.5574 166.573 87.9049 161.078 88.1825 157.099C88.4582 153.121 88.6309 150.654 88.4611 150.633C88.3064 150.614 87.839 153.047 87.3476 157.02C86.8553 160.99 86.373 166.505 86.1732 172.611C85.9775 178.718 86.1013 184.252 86.336 188.246C86.5687 192.241 86.8783 194.7 87.0331 194.691Z"
        fill="#1D7C4E" />
    <path
        d="M154.85 202.796C154.926 202.765 154.677 201.962 154.163 200.539C153.649 199.115 152.869 197.069 151.881 194.552C150.733 191.679 149.563 188.75 148.357 185.731C147.022 182.419 145.553 178.784 144.398 174.864C143.237 170.952 142.565 167.098 142.568 163.588C142.555 160.074 143.161 156.926 144.056 154.429C144.929 151.914 146.088 150.07 146.961 148.862C147.4 148.256 147.763 147.8 148.02 147.498C148.267 147.187 148.385 147.007 148.356 146.977C148.328 146.947 148.154 147.069 147.848 147.331C147.532 147.584 147.106 147.997 146.6 148.574C145.593 149.721 144.279 151.564 143.27 154.134C142.239 156.685 141.522 159.94 141.475 163.58C141.412 167.227 142.075 171.205 143.259 175.197C144.439 179.196 145.955 182.852 147.346 186.146C148.633 189.133 149.882 192.03 151.106 194.872C152.192 197.349 153.09 199.346 153.736 200.715C154.381 202.085 154.774 202.827 154.85 202.796Z"
        fill="#1D7C4E" />
    <path opacity="0.12"
        d="M140.495 100.455C140.987 103.03 138.659 105.638 135.294 106.28C131.93 106.923 128.803 105.357 128.31 102.781C127.818 100.207 130.145 97.5985 133.51 96.9562C136.874 96.3148 140.002 97.8808 140.495 100.455Z"
        fill="#EA4E95" />
    <path opacity="0.12"
        d="M114.553 102.343C114.247 104.947 111.241 106.734 107.839 106.335C104.436 105.936 101.927 103.502 102.232 100.899C102.538 98.2957 105.544 96.5083 108.946 96.9073C112.349 97.3062 114.858 99.74 114.553 102.343Z"
        fill="#EA4E95" />
    <path
        d="M142.852 136.852L142.038 136.581C138.499 140.972 133.411 144.068 127.805 144.496C121.016 145.015 114.088 141.017 111.004 135.125C109.448 135.421 107.677 135.805 105.77 136.293C110.47 144.033 119.365 149.331 128.507 149.131C136.103 148.965 143.323 145.1 148.21 139.31C146.485 138.38 144.699 137.553 142.852 136.852Z"
        fill="#1D7C4E" />
    <path
        d="M114.011 94.5201C114.041 93.5207 114.311 92.6848 114.795 91.8919C114.83 91.823 114.86 91.7512 114.898 91.6844C114.907 91.6914 114.916 91.6984 114.924 91.7043C115.036 91.5348 115.145 91.3652 115.276 91.1976C115.408 89.876 115.423 88.5395 115.351 87.2817C115.093 84.9597 114.402 82.5 112.394 81.0667C109.21 78.7935 104.852 78.8174 101.099 78.7676C98.3275 78.7307 94.7913 79.2005 93.1395 81.7509C91.1941 84.7552 90.8486 88.6382 91.3819 92.1093C91.8153 94.9301 92.3386 97.4835 95.2547 98.6236C99.0576 100.112 103.424 100.446 107.47 100.348C111.072 100.262 113.137 98.2505 114.252 95.5505C114.1 95.2273 114.001 94.8792 114.011 94.5201ZM108.414 98.7592C105.393 99.1233 102.163 98.6904 99.2024 98.1308C96.2164 97.5663 93.8575 96.7803 93.1754 93.5197C92.5762 90.654 92.5473 87.8492 93.3123 85.0165C94.261 81.5045 97.0403 80.4552 100.359 80.3126C105.969 80.0702 113.055 80.4961 113.809 87.2827C114.044 91.3692 113.662 98.1278 108.414 98.7592Z"
        fill="#2BB572" />
    <path
        d="M144.632 89.5473C144.375 87.2253 143.684 84.7666 141.675 83.3323C138.492 81.0591 134.134 81.0831 130.381 81.0332C127.609 80.9963 124.073 81.4661 122.421 84.0165C120.385 87.1615 119.931 91.5412 120.137 95.2028C120.551 102.526 131.5 102.74 136.752 102.615C143.674 102.449 144.955 95.1928 144.632 89.5473C144.577 88.5609 143.035 88.5549 143.092 89.5473C143.325 93.6348 142.944 100.392 137.696 101.025C134.675 101.389 131.445 100.956 128.484 100.396C125.615 99.8539 122.637 98.9312 121.773 95.8172C121.05 93.2109 121.915 89.7987 122.595 87.2811C123.544 83.7692 126.323 82.7199 129.642 82.5772C135.252 82.3349 142.338 82.7608 143.092 89.5473C143.199 90.5228 144.742 90.5338 144.632 89.5473Z"
        fill="#2BB572" />
    <path
        d="M144.527 92.5278C147.801 92.3662 151.064 92.3872 154.335 92.5897C156.028 92.6944 157.73 92.842 159.391 93.1861C162.047 93.7357 163.109 95.8373 163.891 98.1723C164.205 99.1089 165.694 98.707 165.377 97.7634C164.239 94.3641 162.658 92.2934 159.031 91.5424C154.372 90.5778 149.25 90.7554 144.527 90.9888C143.538 91.0377 143.533 92.5777 144.527 92.5278Z"
        fill="#2BB572" />
    <path
        d="M147.489 100.541C149.492 96.5084 155.448 93.1082 159.739 95.8042C161.933 97.1827 162.902 100.06 162.434 102.607C161.966 105.153 160.261 107.35 158.17 108.881C154.149 111.824 148.55 112.46 143.969 110.495"
        fill="#DD7B66" />
    <path
        d="M148.598 108.544C148.904 103.78 153.564 98.201 158.812 100.051C159.443 100.274 159.711 99.2753 159.086 99.0548C153.181 96.9722 147.91 103.148 147.564 108.544C147.522 109.21 148.556 109.206 148.598 108.544Z"
        fill="#B5574D" />
    <path
        d="M153.039 100.36C154.493 102.941 153.47 105.886 150.798 107.109C150.196 107.385 150.719 108.269 151.316 107.995C154.503 106.536 155.633 102.872 153.927 99.8409C153.601 99.2654 152.714 99.7821 153.039 100.36Z"
        fill="#B5574D" />
    <path
        d="M116.393 78.5988C117.077 81.8006 118.072 85.4432 116.278 88.4485C115.293 90.1002 113.935 91.2463 113.303 93.1205C112.31 96.0649 115.067 98.8318 117.676 99.4732C118.32 99.6308 118.593 98.6413 117.949 98.4837C115.035 97.7675 113.388 95.0406 114.782 92.2198C115.468 90.8304 116.709 89.7322 117.507 88.3956C119.233 85.503 118.031 81.3557 117.384 78.3275C117.246 77.6791 116.255 77.9534 116.393 78.5988Z"
        fill="#B5574D" />
    <path
        d="M115.301 89.6228C116.563 87.3287 119.67 87.9251 120.133 90.4477C120.313 91.4232 121.798 91.0092 121.619 90.0387C120.91 86.1826 115.838 85.4515 113.969 88.8458C113.491 89.7165 114.822 90.4936 115.301 89.6228Z"
        fill="#EDA34C" />
</svg>