<svg width="500" height="455" viewBox="0 0 500 455" fill="none" xmlns="http://www.w3.org/2000/svg">
<path d="M500 382.4H0V382.65H500V382.4Z" fill="#EBEBEB"/>
<path d="M449.899 398.49H416.779V398.74H449.899V398.49Z" fill="#EBEBEB"/>
<path d="M331.219 401.211H322.529V401.461H331.219V401.211Z" fill="#EBEBEB"/>
<path d="M415.78 389.211H396.59V389.461H415.78V389.211Z" fill="#EBEBEB"/>
<path d="M95.6509 390.891H52.4609V391.141H95.6509V390.891Z" fill="#EBEBEB"/>
<path d="M110.891 390.891H104.561V391.141H110.891V390.891Z" fill="#EBEBEB"/>
<path d="M225.151 395.109H131.471V395.359H225.151V395.109Z" fill="#EBEBEB"/>
<path d="M237.001 337.8H43.9109C42.3983 337.797 40.9485 337.195 39.8798 336.124C38.8112 335.053 38.2109 333.603 38.2109 332.09V60.66C38.2241 59.156 38.8301 57.718 39.8974 56.6582C40.9646 55.5985 42.4069 55.0026 43.9109 55H237.001C238.515 55 239.968 55.6016 241.039 56.6724C242.109 57.7433 242.711 59.1956 242.711 60.71V332.09C242.711 333.604 242.109 335.057 241.039 336.128C239.968 337.198 238.515 337.8 237.001 337.8ZM43.9109 55.2C42.4646 55.2026 41.0784 55.7791 40.0566 56.8027C39.0348 57.8264 38.4609 59.2136 38.4609 60.66V332.09C38.4609 333.536 39.0348 334.924 40.0566 335.947C41.0784 336.971 42.4646 337.547 43.9109 337.55H237.001C238.448 337.547 239.835 336.971 240.859 335.948C241.882 334.924 242.458 333.537 242.461 332.09V60.66C242.458 59.2127 241.882 57.8255 240.859 56.8021C239.835 55.7787 238.448 55.2026 237.001 55.2H43.9109Z" fill="#EBEBEB"/>
<path d="M453.31 337.8H260.21C258.696 337.797 257.246 337.195 256.175 336.125C255.105 335.054 254.503 333.604 254.5 332.09V60.66C254.516 59.1551 255.124 57.7171 256.193 56.6576C257.262 55.5981 258.705 55.0025 260.21 55H453.31C454.812 55.0052 456.252 55.6022 457.317 56.6617C458.382 57.7212 458.987 59.1578 459 60.66V332.09C459 333.601 458.401 335.05 457.335 336.121C456.268 337.191 454.821 337.795 453.31 337.8ZM260.21 55.2C258.763 55.2026 257.375 55.7787 256.352 56.8021C255.329 57.8255 254.753 59.2127 254.75 60.66V332.09C254.753 333.537 255.329 334.924 256.352 335.948C257.375 336.971 258.763 337.547 260.21 337.55H453.31C454.757 337.547 456.145 336.971 457.168 335.948C458.191 334.924 458.767 333.537 458.77 332.09V60.66C458.767 59.2127 458.191 57.8255 457.168 56.8021C456.145 55.7787 454.757 55.2026 453.31 55.2H260.21Z" fill="#EBEBEB"/>
<path d="M134.99 199.649H56.5098L63.4598 113.199H128.03L134.99 199.649Z" fill="#EBEBEB"/>
<path d="M97.8794 199.65H93.6094V382.4H97.8794V199.65Z" fill="#F5F5F5"/>
<path d="M113.15 382.399H78.3398C78.3398 381.415 78.7307 380.472 79.4265 379.776C80.1222 379.08 81.0659 378.689 82.0499 378.689H109.45C110.432 378.692 111.373 379.084 112.067 379.78C112.76 380.475 113.15 381.417 113.15 382.399Z" fill="#F0F0F0"/>
<path d="M93.6094 206.36L97.8794 202.29V199.65H93.6094V206.36Z" fill="#E0E0E0"/>
<path d="M413.64 77.9004H165.9V196.56H413.64V77.9004Z" fill="#E0E0E0"/>
<path d="M422.739 77.9004H169.869V196.56H422.739V77.9004Z" fill="#F5F5F5"/>
<path d="M182.961 98.6895V175.77H409.661V98.6895L182.961 98.6895Z" fill="white"/>
<path d="M395.999 382.391H436.859C442.94 382.391 447.869 377.461 447.869 371.381V281.201C447.869 275.12 442.94 270.191 436.859 270.191H395.999C389.918 270.191 384.989 275.12 384.989 281.201V371.381C384.989 377.461 389.918 382.391 395.999 382.391Z" fill="#F5F5F5"/>
<path d="M377.169 382.391H418.029C424.11 382.391 429.039 377.461 429.039 371.381V281.201C429.039 275.12 424.11 270.191 418.029 270.191H377.169C371.088 270.191 366.159 275.12 366.159 281.201V371.381C366.159 377.461 371.088 382.391 377.169 382.391Z" fill="#E6E6E6"/>
<path d="M413.82 270.189H433.59C434.186 270.189 434.67 269.706 434.67 269.109V268.169C434.67 267.573 434.186 267.089 433.59 267.089H413.82C413.223 267.089 412.74 267.573 412.74 268.169V269.109C412.74 269.706 413.223 270.189 413.82 270.189Z" fill="#F5F5F5"/>
<path d="M407.25 270.189H427.02C427.616 270.189 428.1 269.706 428.1 269.109V268.169C428.1 267.573 427.616 267.089 427.02 267.089H407.25C406.653 267.089 406.17 267.573 406.17 268.169V269.109C406.17 269.706 406.653 270.189 407.25 270.189Z" fill="#E6E6E6"/>
<path d="M186.46 382.4L414.53 382.4C417.546 382.4 419.99 379.956 419.99 376.94V335.55C419.99 332.535 417.546 330.09 414.53 330.09H186.46C183.445 330.09 181 332.535 181 335.55V376.94C181 379.956 183.445 382.4 186.46 382.4Z" fill="#F0F0F0"/>
<path d="M164.709 233.43H358.999C365.109 233.43 370.489 238.95 370.999 245.75L376.169 314C376.689 320.8 372.169 326.32 366.029 326.32H171.719C165.599 326.32 160.229 320.8 159.719 314L154.579 245.77C154.049 239 158.599 233.43 164.709 233.43Z" fill="#EBEBEB"/>
<path d="M179.74 233.43H374.05C380.17 233.43 385.54 238.95 386.05 245.75L391.2 314C391.71 320.8 387.2 326.32 381.05 326.32H186.74C180.62 326.32 175.25 320.8 174.74 314L169.59 245.77C169.08 239 173.62 233.43 179.74 233.43Z" fill="#FAFAFA"/>
<path d="M288.34 314L283.19 245.78C282.7 239.31 277.6 234.04 271.82 234.04V232.77C278.25 232.77 283.92 238.56 284.46 245.68L289.6 313.91L288.34 314Z" fill="#F0F0F0"/>
<path d="M170.29 382.391H211.15C217.231 382.391 222.16 377.461 222.16 371.381V281.201C222.16 275.12 217.231 270.191 211.15 270.191H170.29C164.209 270.191 159.28 275.12 159.28 281.201V371.381C159.28 377.461 164.209 382.391 170.29 382.391Z" fill="#F5F5F5"/>
<path d="M216.24 334.85H419.66C423.261 334.85 426.18 331.931 426.18 328.33V312.4C426.18 308.799 423.261 305.88 419.66 305.88H216.24C212.639 305.88 209.72 308.799 209.72 312.4V328.33C209.72 331.931 212.639 334.85 216.24 334.85Z" fill="#F5F5F5"/>
<path d="M311.76 335.48V334.22C314.82 334.22 317.31 331.41 317.31 327.97V312.76C317.31 309.31 314.82 306.51 311.76 306.51V305.24C315.52 305.24 318.58 308.61 318.58 312.76V328C318.58 332.11 315.52 335.48 311.76 335.48Z" fill="#EBEBEB"/>
<path d="M151.47 382.391H192.33C198.411 382.391 203.34 377.461 203.34 371.381V281.201C203.34 275.12 198.411 270.191 192.33 270.191H151.47C145.389 270.191 140.46 275.12 140.46 281.201V371.381C140.46 377.461 145.389 382.391 151.47 382.391Z" fill="#E6E6E6"/>
<path d="M349.57 229.09C376.859 231.54 381.14 265.9 383.07 278.88C384.999 291.86 360.56 278.39 345.32 279.88C330.08 281.37 325.119 287.31 308.119 284.59C291.119 281.87 284.019 279.95 272.329 281.88C260.639 283.81 240.08 284.51 237.96 280.83C235.96 277.44 230.439 241.77 219.629 234.62C217.889 233.47 218.549 231.84 221.039 231.1C241.579 225 325 226.89 349.57 229.09Z" fill="#E6E6E6"/>
<path d="M249.999 427.56C357.082 427.56 443.889 422.492 443.889 416.24C443.889 409.988 357.082 404.92 249.999 404.92C142.917 404.92 56.1094 409.988 56.1094 416.24C56.1094 422.492 142.917 427.56 249.999 427.56Z" fill="#F5F5F5"/>
<path d="M397.08 127.609C397.105 125.102 396.547 122.623 395.45 120.369C394.51 118.719 392.01 114.369 360.84 114.369V113.369C392.59 113.369 395.11 117.789 396.32 119.909C397.497 122.304 398.096 124.941 398.07 127.609H397.08Z" fill="#669FFD"/>
<path d="M395.939 144.92L394.939 144.69C395.677 141.552 396.251 138.377 396.659 135.18L397.659 135.31C397.259 138.542 396.685 141.75 395.939 144.92Z" fill="#669FFD"/>
<path d="M393.28 121.599C389.09 114.239 330.1 116.799 319.16 119.939C304.36 124.199 297.71 162.409 296.58 171.629C296.58 171.629 305.27 162.509 312.93 160.199C316.58 161.479 356.81 168.509 364.3 170.509C372.86 172.799 381.95 170.509 386.13 163.049C390.31 155.589 397.65 129.289 393.28 121.599Z" fill="#669FFD"/>
<path d="M380.05 132.249C379.931 132.259 379.81 132.259 379.69 132.249C351.79 128.249 319.5 131.099 319.18 131.129C318.852 131.158 318.521 131.123 318.207 131.025C317.892 130.926 317.6 130.767 317.347 130.556C317.094 130.345 316.885 130.086 316.732 129.794C316.579 129.501 316.485 129.182 316.455 128.854C316.426 128.526 316.461 128.195 316.56 127.88C316.658 127.565 316.817 127.273 317.029 127.02C317.24 126.767 317.499 126.558 317.791 126.405C318.083 126.252 318.402 126.158 318.73 126.129C319.06 126.129 351.93 123.219 380.4 127.279C381.063 127.325 381.681 127.633 382.117 128.135C382.553 128.637 382.772 129.291 382.725 129.954C382.679 130.617 382.371 131.234 381.869 131.67C381.368 132.106 380.713 132.325 380.05 132.279V132.249Z" fill="white"/>
<path d="M376.001 145.629C375.854 145.644 375.707 145.644 375.561 145.629C355.42 142.19 334.978 140.85 314.561 141.629C313.898 141.669 313.246 141.444 312.749 141.003C312.252 140.563 311.951 139.943 311.911 139.279C311.871 138.616 312.096 137.965 312.537 137.468C312.978 136.971 313.598 136.669 314.261 136.629C335.063 135.806 355.895 137.147 376.421 140.629C376.749 140.657 377.069 140.749 377.361 140.9C377.654 141.051 377.914 141.259 378.127 141.51C378.34 141.762 378.501 142.053 378.601 142.367C378.701 142.681 378.738 143.011 378.711 143.339C378.683 143.668 378.591 143.987 378.44 144.28C378.289 144.573 378.082 144.833 377.83 145.046C377.578 145.258 377.287 145.419 376.973 145.52C376.66 145.62 376.329 145.657 376.001 145.629Z" fill="white"/>
<path d="M359.48 159.329C359.247 159.329 359.015 159.299 358.79 159.239C343.504 154.964 327.656 153.039 311.79 153.529C311.127 153.572 310.474 153.349 309.975 152.91C309.477 152.471 309.173 151.852 309.13 151.189C309.088 150.526 309.31 149.873 309.749 149.375C310.188 148.876 310.807 148.572 311.47 148.529C327.908 147.952 344.334 149.939 360.16 154.419C360.737 154.587 361.234 154.958 361.56 155.463C361.886 155.967 362.02 156.573 361.936 157.168C361.852 157.763 361.557 158.308 361.104 158.703C360.651 159.098 360.071 159.317 359.47 159.319L359.48 159.329Z" fill="white"/>
<path d="M111.36 112.45C114.57 104.61 156.2 100.75 167.45 102.45C182.67 104.77 194.53 144.52 196.45 155.45C196.45 155.45 186.67 147.51 178.77 146.21C175.32 147.94 153.94 155.51 146.37 157.21C137.72 159.12 128.86 159.44 123.76 152.6C118.66 145.76 108 120.63 111.36 112.45Z" fill="#669FFD"/>
<path opacity="0.1" d="M167.45 102.46C156.2 100.74 114.57 104.61 111.37 112.46C110.759 114.28 110.565 116.214 110.8 118.12C118.8 130.77 131.06 140.49 145.14 141.12C162.23 141.68 179.21 133.23 185.8 123.23C180.84 112.66 174.52 103.54 167.45 102.46Z" fill="black"/>
<path d="M184.297 115.322C194.211 102.659 191.983 84.3563 179.321 74.4416C166.658 64.5269 148.355 66.7548 138.44 79.4176C128.526 92.0805 130.754 110.383 143.416 120.298C156.079 130.212 174.382 127.985 184.297 115.322Z" fill="#669FFD"/>
<path opacity="0.4" d="M184.297 115.322C194.211 102.659 191.983 84.3563 179.321 74.4416C166.658 64.5269 148.355 66.7548 138.44 79.4176C128.526 92.0805 130.754 110.383 143.416 120.298C156.079 130.212 174.382 127.985 184.297 115.322Z" fill="white"/>
<path d="M160 88.3203C160.35 89.0303 159.29 90.1603 157.63 90.8403C155.97 91.5203 154.35 91.5103 153.99 90.8403C153.63 90.1703 154.7 89.0003 156.36 88.3203C158.02 87.6403 159.62 87.6203 160 88.3203Z" fill="#669FFD"/>
<path d="M152.221 81.1813C154.098 80.4644 156.091 80.095 158.101 80.0913C159.104 80.0789 160.108 80.1458 161.101 80.2913C162.123 80.4383 163.128 80.6862 164.101 81.0313C164.335 81.0891 164.54 81.2293 164.678 81.4262C164.817 81.6231 164.88 81.8635 164.856 82.1031C164.831 82.3427 164.721 82.5655 164.546 82.7305C164.37 82.8955 164.141 82.9917 163.901 83.0013C163.121 83.0913 162.251 83.2613 161.421 83.4313C160.591 83.6013 159.771 83.8613 158.951 84.1313C157.283 84.6849 155.701 85.4691 154.251 86.4613C154.723 85.6524 155.313 84.9178 156.001 84.2813C156.709 83.6673 157.484 83.134 158.311 82.6913C159.139 82.25 160.006 81.8852 160.901 81.6013C161.806 81.2954 162.741 81.0843 163.691 80.9713L163.421 82.8913C162.555 82.6049 161.673 82.3679 160.781 82.1813C159.861 81.9713 158.941 81.8213 158.001 81.6913C157.061 81.5613 156.111 81.4413 155.151 81.3813C154.191 81.3213 153.221 81.2713 152.221 81.1813Z" fill="#07162C"/>
<path d="M179.56 75.3494C179.038 75.5974 178.537 75.8849 178.06 76.2094C177.61 76.4958 177.195 76.8312 176.82 77.2094C176.452 77.5759 176.117 77.9741 175.82 78.3994C175.526 78.8044 175.271 79.2363 175.06 79.6894L173.89 78.6894C174.508 78.3063 175.183 78.0229 175.89 77.8494C176.578 77.6716 177.289 77.5974 178 77.6294C179.389 77.6595 180.731 78.1443 181.82 79.0094C181.187 78.8758 180.545 78.7889 179.9 78.7494C179.285 78.7105 178.668 78.7373 178.06 78.8294C177.467 78.9193 176.884 79.0666 176.32 79.2694C175.776 79.4636 175.254 79.7115 174.76 80.0094C174.672 80.0647 174.574 80.1021 174.471 80.1194C174.369 80.1367 174.264 80.1337 174.163 80.1105C174.061 80.0873 173.966 80.0443 173.881 79.9841C173.797 79.9238 173.725 79.8475 173.67 79.7594C173.613 79.6478 173.584 79.5245 173.584 79.3994C173.584 79.2744 173.613 79.1511 173.67 79.0394C173.913 78.4366 174.25 77.8762 174.67 77.3794C175.055 76.9285 175.503 76.5346 176 76.2094C176.525 75.8686 177.103 75.6153 177.71 75.4594C178.314 75.3099 178.941 75.2726 179.56 75.3494Z" fill="#07162C"/>
<path d="M184.129 82.7494C184.199 83.5094 182.879 84.2394 181.129 84.3894C179.379 84.5394 177.999 83.9994 177.939 83.2694C177.879 82.5394 179.189 81.7794 180.889 81.6294C182.589 81.4794 184.049 81.9994 184.129 82.7494Z" fill="#669FFD"/>
<path d="M160.73 92.1599C167.497 88.7456 174.843 86.6259 182.39 85.9099C182.686 85.8865 182.98 85.9769 183.212 86.1626C183.445 86.3484 183.597 86.6156 183.64 86.9099C184.47 95.4299 168.9 99.9099 160.64 93.9099C160.487 93.8156 160.363 93.6822 160.28 93.5236C160.197 93.365 160.158 93.1871 160.167 93.0083C160.177 92.8295 160.234 92.6564 160.332 92.5072C160.431 92.3579 160.569 92.238 160.73 92.1599Z" fill="#07162C"/>
<path d="M176.25 90.6094C175.716 90.8838 175.216 91.2194 174.76 91.6094C173.293 91.2778 171.755 91.4761 170.42 92.1694C169.523 92.5494 168.73 93.1376 168.105 93.8854C167.481 94.6332 167.044 95.519 166.83 96.4694C168.814 96.8053 170.839 96.8255 172.83 96.5294C174.336 96.3188 175.811 95.9224 177.22 95.3494C179.353 94.573 181.208 93.1809 182.55 91.3494C181.38 89.7294 178.74 89.4094 176.25 90.6094Z" fill="#669FFD"/>
<path d="M238.63 34.3593C225.5 21.0493 196.15 30.4793 207.34 48.9993C218.53 67.5193 243.56 80.9993 248.45 88.0693C251.78 73.6393 261.06 64.4393 267.09 52.3793C273.12 40.3193 257.28 22.5293 238.63 34.3593Z" fill="#669FFD"/>
<path opacity="0.3" d="M238.63 34.3593C225.5 21.0493 196.15 30.4793 207.34 48.9993C218.53 67.5193 243.56 80.9993 248.45 88.0693C251.78 73.6393 261.06 64.4393 267.09 52.3793C273.12 40.3193 257.28 22.5293 238.63 34.3593Z" fill="black"/>
<path d="M287.682 315.58H295.522L327.852 416.24H325.232L287.682 315.58Z" fill="#669FFD"/>
<path d="M255.98 315.58H263.83L276.07 416.24H273.45L255.98 315.58Z" fill="#669FFD"/>
<path d="M210.301 315.58H202.451L170.131 416.24H172.751L210.301 315.58Z" fill="#669FFD"/>
<path d="M241.99 315.58H234.15L221.91 416.24H224.53L241.99 315.58Z" fill="#669FFD"/>
<path d="M280.931 337.89C243.071 338.33 189.261 337.07 165.471 290.48C149.351 258.91 132.111 191.86 179.341 172.69C226.571 153.52 299.101 175.16 298.411 212.28C297.721 249.4 336.631 258.49 349.411 283.76C365.201 315.15 330.821 337.31 280.931 337.89Z" fill="#669FFD"/>
<path opacity="0.7" d="M280.931 337.89C243.071 338.33 189.261 337.07 165.471 290.48C149.351 258.91 132.111 191.86 179.341 172.69C226.571 153.52 299.101 175.16 298.411 212.28C297.721 249.4 336.631 258.49 349.411 283.76C365.201 315.15 330.821 337.31 280.931 337.89Z" fill="white"/>
<path opacity="0.3" d="M320.661 302.54C320.261 308.29 292.921 311.07 259.601 308.75C226.281 306.43 205.221 304.67 199.121 291.55C186.821 265.08 185.231 187.55 218.561 189.89C251.891 192.23 321.061 296.79 320.661 302.54Z" fill="#669FFD"/>
<path d="M270.46 187.631L270.72 189.421L271.03 191.331L271.7 195.191C272.19 197.761 272.7 200.341 273.27 202.901C274.395 207.97 275.784 212.977 277.43 217.901C277.86 219.101 278.25 220.341 278.74 221.511C279.23 222.681 279.62 223.911 280.15 225.051C280.68 226.191 281.15 227.471 281.52 228.281C281.71 228.711 281.86 229.081 281.94 229.281C282.02 229.481 282.07 229.501 281.23 229.071C280.403 228.682 279.493 228.503 278.58 228.551C277.961 228.588 277.352 228.73 276.78 228.971C276.547 229.078 276.32 229.198 276.1 229.331C275.93 229.444 275.766 229.568 275.61 229.701C275.299 229.927 275.057 230.235 274.91 230.591C274.91 230.721 274.91 230.731 275.02 230.661C275.6 229.945 276.056 229.137 276.37 228.271C277.32 226.131 278.14 223.491 279.02 221.051L287.37 221.461C287.921 224.521 288.109 227.636 287.93 230.741C287.828 232.632 287.451 234.499 286.81 236.281C286.568 236.935 286.263 237.565 285.9 238.161C285.346 239.084 284.636 239.903 283.8 240.581C283.505 240.817 283.194 241.035 282.87 241.231C282.506 241.46 282.121 241.654 281.72 241.811C280.829 242.188 279.877 242.401 278.91 242.441C277.301 242.501 275.706 242.128 274.29 241.361C272.873 240.59 271.603 239.574 270.54 238.361C269.85 237.597 269.215 236.785 268.64 235.931C267.744 234.593 266.933 233.2 266.21 231.761C264.791 229.112 263.509 226.392 262.37 223.611C260.113 218.157 258.258 212.546 256.82 206.821C256.09 203.981 255.48 201.121 254.94 198.241C254.67 196.801 254.43 195.361 254.21 193.901C254.11 193.171 254.01 192.431 253.92 191.691C253.83 190.951 253.75 190.251 253.66 189.351L270.46 187.631Z" fill="#FF8B7B"/>
<path d="M248.81 184.861C243.72 194.341 256.49 219.461 256.49 219.461L279.49 206.951C279.49 206.951 277.76 200.301 272.08 187.581C265.85 173.731 255 173.371 248.81 184.861Z" fill="#07162C"/>
<path d="M278.641 223.77L279.091 212.51L291.911 216.82C291.911 216.82 290.261 227 284.721 227L278.641 223.77Z" fill="#FF8B7B"/>
<path d="M287.64 204.501L291.88 206.771C292.695 207.211 293.328 207.925 293.667 208.787C294.005 209.65 294.028 210.604 293.73 211.481L291.91 216.821L279.09 212.511L282.31 206.181C282.546 205.718 282.873 205.306 283.27 204.97C283.667 204.634 284.127 204.381 284.623 204.224C285.119 204.068 285.641 204.012 286.159 204.059C286.677 204.107 287.18 204.257 287.64 204.501Z" fill="#FF8B7B"/>
<path d="M260.88 176.641C248.074 173.877 234.916 173.131 221.88 174.431C217.777 174.846 213.934 176.636 210.975 179.509C208.017 182.383 206.115 186.171 205.58 190.261C200.37 229.651 203.67 250.601 203.42 261.381L262.79 266.641C262.31 255.361 263.21 225.921 268.79 188.101C269.164 185.544 268.556 182.941 267.089 180.815C265.621 178.689 263.403 177.197 260.88 176.641Z" fill="#07162C"/>
<path d="M309.59 310.461L320.73 310.731L325.46 285.061L314.31 284.781L309.59 310.461Z" fill="#FF8B7B"/>
<path d="M322.311 308.78L310.731 305.12C310.529 305.049 310.308 305.057 310.111 305.143C309.914 305.228 309.757 305.384 309.671 305.58L305.521 314.67C305.423 314.902 305.374 315.152 305.377 315.404C305.38 315.656 305.436 315.905 305.54 316.134C305.645 316.364 305.795 316.569 305.983 316.737C306.171 316.905 306.392 317.032 306.631 317.11C310.831 318.35 312.251 318.45 317.501 320.11C323.641 322.05 326.111 323.53 333.311 325.81C337.661 327.18 339.821 323.03 338.091 322.02C332.631 318.84 326.501 313.82 324.681 310.44C324.131 309.606 323.284 309.012 322.311 308.78Z" fill="#07162C"/>
<path opacity="0.2" d="M325.451 285.071L323.021 298.301L311.871 298.021L314.301 284.791L325.451 285.071Z" fill="black"/>
<path d="M330.501 218.311C316.871 211.501 282.281 248.131 238.421 264.481C237.471 281.211 256.211 289.821 276.271 287.381C296.141 284.961 303.481 274.431 309.591 259.931C306.151 274.821 309.421 290.291 309.421 290.291L326.711 295.171C326.711 295.171 343.001 224.531 330.501 218.311Z" fill="#669FFD"/>
<path opacity="0.2" d="M330.501 218.311C316.871 211.501 282.281 248.131 238.421 264.481C237.471 281.211 256.211 289.821 276.271 287.381C296.141 284.961 303.481 274.431 309.591 259.931C306.151 274.821 309.421 290.291 309.421 290.291L326.711 295.171C326.711 295.171 343.001 224.531 330.501 218.311Z" fill="black"/>
<path d="M328.71 297.32L306.38 295.26L305.9 287.91L330.83 289.82L328.71 297.32Z" fill="#07162C"/>
<path d="M321.001 308.751C320.96 308.726 320.925 308.691 320.901 308.649C320.876 308.607 320.863 308.559 320.861 308.511C320.862 308.456 320.88 308.402 320.912 308.358C320.944 308.313 320.989 308.279 321.041 308.261C321.571 308.071 326.331 306.451 327.561 307.391C327.678 307.477 327.77 307.593 327.828 307.727C327.886 307.86 327.908 308.006 327.891 308.151C327.886 308.39 327.822 308.625 327.705 308.834C327.588 309.043 327.422 309.22 327.221 309.351C325.861 310.251 322.761 309.351 321.041 308.761L321.001 308.751ZM327.151 307.751C326.361 307.341 323.831 307.921 321.961 308.501C324.341 309.251 326.171 309.401 326.961 308.901C327.093 308.812 327.201 308.693 327.278 308.554C327.354 308.415 327.397 308.259 327.401 308.101C327.411 308.044 327.404 307.985 327.381 307.932C327.358 307.878 327.32 307.833 327.271 307.801L327.151 307.751Z" fill="#669FFD"/>
<path d="M321.001 308.751L320.941 308.701C320.907 308.67 320.883 308.63 320.871 308.586C320.858 308.542 320.858 308.495 320.871 308.451C320.871 308.331 321.611 305.401 323.181 304.451C323.402 304.31 323.651 304.215 323.911 304.174C324.17 304.133 324.436 304.145 324.691 304.211C325.401 304.381 325.551 304.781 325.561 305.081C325.561 306.351 322.611 308.371 321.201 308.771C321.134 308.79 321.062 308.783 321.001 308.751ZM324.821 304.801C324.737 304.762 324.65 304.731 324.561 304.711C324.373 304.666 324.178 304.659 323.988 304.69C323.797 304.721 323.615 304.789 323.451 304.891C322.451 305.521 321.781 307.241 321.521 308.091C322.991 307.461 325.051 305.841 325.031 305.091C325.001 305.001 325.001 304.911 324.771 304.801H324.821Z" fill="#669FFD"/>
<path d="M252.191 177.081C245.641 174.151 246.811 170.231 248.961 165.941L235.181 153.391C235.671 158.901 235.571 168.121 231.771 172.941C231.167 173.677 230.868 174.617 230.935 175.567C231.002 176.517 231.43 177.406 232.131 178.051C236.456 182.073 241.879 184.718 247.711 185.651C254.441 186.831 255.941 184.001 255.501 181.151C255.332 180.25 254.941 179.406 254.362 178.696C253.784 177.985 253.038 177.43 252.191 177.081Z" fill="#FF8B7B"/>
<path opacity="0.2" d="M240.8 158.511C239.33 158.001 239 160.001 239 162.821C239 165.641 243.79 170.601 247.39 170.171C247.71 168.691 248.246 167.266 248.98 165.941L240.8 158.511Z" fill="black"/>
<path d="M264.882 149.351C268.672 145.691 273.522 135.581 272.512 130.591C268.608 128.759 264.203 128.291 260.002 129.261C256.506 130.324 253.235 132.019 250.352 134.261L256.492 139.501L256.372 143.041L259.792 146.831L258.792 150.251C258.704 150.553 258.707 150.874 258.8 151.174C258.893 151.474 259.072 151.74 259.314 151.94C259.556 152.14 259.852 152.265 260.164 152.298C260.477 152.332 260.792 152.274 261.072 152.131L264.882 149.351Z" fill="#07162C"/>
<path d="M237.891 136.291C235.041 146.961 232.821 153.071 236.331 160.161C241.611 170.821 256.181 170.241 262.181 160.611C267.581 151.941 271.331 135.951 262.441 128.451C260.472 126.792 258.115 125.658 255.589 125.158C253.064 124.657 250.452 124.805 248 125.589C245.547 126.372 243.333 127.765 241.565 129.636C239.797 131.508 238.533 133.798 237.891 136.291Z" fill="#FF8B7B"/>
<path d="M233 142.71C232.45 136.12 232 131.16 232 125.34C234.88 124.61 239.32 122.63 244 124.83C247.242 126.521 250.146 128.792 252.57 131.53L245.57 135.53L245.05 139.04L241.05 142.15L241.41 145.69C241.441 146.003 241.381 146.317 241.236 146.596C241.09 146.874 240.867 147.104 240.593 147.257C240.319 147.41 240.006 147.48 239.692 147.457C239.379 147.435 239.079 147.321 238.83 147.13L233 142.71Z" fill="#07162C"/>
<path d="M272.52 133.77C277.59 131.12 284.52 118.31 272.64 118.85C264.97 119.2 255.57 120.22 247.58 115.73C247.58 115.73 249.9 119.73 255.86 120.25C268.81 121.43 269.22 119.33 273.09 120.25C279.9 121.73 272.52 133.77 272.52 133.77Z" fill="#07162C"/>
<path d="M273.542 122.211C264.992 117.441 255.602 121.151 248.332 118.391C241.062 115.631 233.252 119.951 231.932 125.391L252.542 131.581C260.352 137.191 262.142 138.361 266.422 137.091C272.642 135.211 282.082 127.001 273.542 122.211Z" fill="#07162C"/>
<path d="M233.68 124.201C230.02 124.881 228.07 128.091 231.23 132.201C230.08 127.771 233.6 126.261 233.6 126.261L233.68 124.201Z" fill="#07162C"/>
<path d="M229.491 144.921C229.727 146.274 230.229 147.567 230.967 148.725C231.705 149.884 232.664 150.885 233.791 151.671C236.791 153.751 239.551 151.331 239.731 147.851C239.881 144.721 238.491 139.851 234.951 139.171C231.411 138.491 228.941 141.571 229.491 144.921Z" fill="#FF8B7B"/>
<path d="M252.16 143.67C251.88 144.52 252.1 145.36 252.66 145.54C253.22 145.72 253.9 145.18 254.19 144.33C254.48 143.48 254.25 142.64 253.69 142.46C253.13 142.28 252.45 142.82 252.16 143.67Z" fill="#07162C"/>
<path d="M262.51 147.52C262.23 148.37 262.45 149.21 263.01 149.39C263.57 149.57 264.25 149.03 264.54 148.18C264.83 147.33 264.6 146.49 264.04 146.31C263.48 146.13 262.8 146.67 262.51 147.52Z" fill="#07162C"/>
<path d="M259.301 147C259.301 147 259.601 152.54 260.951 155.61C258.951 156.52 256.611 155.05 256.611 155.05L259.301 147Z" fill="#FF5652"/>
<path d="M252.241 156.1C251.328 155.682 250.51 155.08 249.839 154.331C249.168 153.583 248.658 152.704 248.341 151.75C248.332 151.717 248.33 151.682 248.334 151.648C248.338 151.613 248.349 151.58 248.367 151.55C248.384 151.519 248.407 151.493 248.434 151.472C248.462 151.45 248.493 151.435 248.526 151.425C248.56 151.416 248.595 151.414 248.629 151.418C248.664 151.422 248.697 151.433 248.727 151.451C248.757 151.468 248.784 151.491 248.805 151.518C248.827 151.546 248.842 151.577 248.851 151.61C249.222 152.662 249.836 153.611 250.642 154.38C251.448 155.15 252.424 155.719 253.491 156.04C253.525 156.049 253.557 156.065 253.584 156.087C253.611 156.109 253.634 156.137 253.65 156.168C253.666 156.199 253.675 156.233 253.677 156.268C253.679 156.303 253.674 156.338 253.661 156.37C253.651 156.403 253.635 156.434 253.612 156.461C253.59 156.487 253.563 156.509 253.532 156.525C253.501 156.541 253.468 156.55 253.433 156.553C253.399 156.556 253.364 156.551 253.331 156.54C252.958 156.422 252.593 156.275 252.241 156.1Z" fill="#07162C"/>
<path d="M250.82 138.541C250.737 138.498 250.665 138.436 250.61 138.361C250.533 138.245 250.505 138.103 250.531 137.967C250.557 137.83 250.636 137.71 250.75 137.631C251.431 137.137 252.22 136.812 253.051 136.683C253.882 136.555 254.732 136.626 255.53 136.891C255.596 136.917 255.656 136.956 255.707 137.005C255.757 137.055 255.798 137.113 255.825 137.178C255.853 137.243 255.868 137.313 255.869 137.384C255.87 137.455 255.857 137.525 255.83 137.591C255.804 137.656 255.765 137.716 255.716 137.767C255.666 137.817 255.608 137.858 255.543 137.886C255.478 137.913 255.408 137.928 255.337 137.929C255.266 137.93 255.196 137.917 255.13 137.891C254.496 137.69 253.823 137.642 253.166 137.749C252.51 137.857 251.888 138.118 251.35 138.511C251.273 138.564 251.183 138.595 251.09 138.6C250.996 138.605 250.903 138.585 250.82 138.541Z" fill="#07162C"/>
<path d="M268 144.861C267.916 144.834 267.841 144.786 267.781 144.721C267.722 144.656 267.68 144.577 267.66 144.491C267.519 143.845 267.225 143.243 266.802 142.735C266.379 142.226 265.84 141.827 265.23 141.571C265.102 141.522 264.997 141.424 264.94 141.299C264.882 141.174 264.875 141.032 264.92 140.902C264.966 140.772 265.06 140.665 265.183 140.603C265.306 140.541 265.449 140.53 265.58 140.571C266.354 140.887 267.041 141.385 267.582 142.022C268.123 142.659 268.503 143.417 268.69 144.231C268.72 144.368 268.697 144.511 268.624 144.63C268.551 144.749 268.435 144.836 268.3 144.871C268.201 144.898 268.097 144.895 268 144.861Z" fill="#07162C"/>
<path d="M347.39 400.35L356.53 393.97L345.12 370.49L335.98 376.87L347.39 400.35Z" fill="#FF8B7B"/>
<path d="M356.292 390.94L345.192 395.86C344.992 395.94 344.831 396.093 344.74 396.288C344.649 396.483 344.635 396.705 344.702 396.91L347.602 406.47C347.682 406.709 347.811 406.928 347.98 407.115C348.15 407.301 348.357 407.451 348.587 407.553C348.817 407.656 349.066 407.709 349.319 407.71C349.571 407.711 349.82 407.66 350.052 407.56C354.052 405.72 355.142 404.85 360.182 402.63C366.072 400.02 368.902 399.5 375.812 396.44C379.982 394.59 378.812 390.05 376.892 390.44C370.692 391.66 362.772 391.95 359.172 390.62C358.205 390.363 357.178 390.477 356.292 390.94Z" fill="#07162C"/>
<path opacity="0.2" d="M345.12 370.5L351 382.6L341.86 388.98L335.98 376.88L345.12 370.5Z" fill="black"/>
<path d="M295.851 308.811C220.661 306.461 201.851 307.101 203.441 261.381L241.651 264.771C241.651 264.771 308.251 268.881 316.511 291.051C328.931 324.401 351.601 375.791 351.601 375.791L336.601 385.711C336.601 385.711 305.801 348.061 295.851 308.811Z" fill="#669FFD"/>
<path d="M355.001 378.441L335.801 390.021L331.051 384.381L352.271 371.141L355.001 378.441Z" fill="#07162C"/>
<path d="M355.261 391.82C355.212 391.83 355.161 391.827 355.114 391.811C355.066 391.796 355.024 391.767 354.991 391.73C354.961 391.685 354.945 391.633 354.945 391.58C354.945 391.526 354.961 391.474 354.991 391.43C355.271 390.93 357.761 386.58 359.311 386.43C359.455 386.42 359.6 386.447 359.731 386.508C359.862 386.57 359.975 386.663 360.061 386.78C360.214 386.963 360.321 387.18 360.372 387.414C360.422 387.647 360.415 387.889 360.351 388.12C359.921 389.7 357.021 391.12 355.351 391.77L355.261 391.82ZM359.211 387.01C358.351 387.22 356.831 389.33 355.821 391.01C358.101 390.01 359.571 388.9 359.821 388.01C359.86 387.856 359.863 387.695 359.828 387.54C359.793 387.386 359.722 387.241 359.621 387.12C359.589 387.07 359.544 387.031 359.491 387.006C359.438 386.981 359.379 386.972 359.321 386.98L359.211 387.01Z" fill="#669FFD"/>
<path d="M355.262 391.821H355.182C355.135 391.821 355.09 391.808 355.051 391.783C355.012 391.758 354.981 391.723 354.962 391.681C354.902 391.571 353.502 388.901 354.042 387.151C354.118 386.896 354.247 386.66 354.419 386.457C354.591 386.254 354.803 386.088 355.042 385.971C355.692 385.631 356.042 385.821 356.272 386.041C357.132 386.981 356.272 390.461 355.442 391.701C355.422 391.733 355.396 391.76 355.365 391.78C355.334 391.801 355.298 391.815 355.262 391.821ZM355.512 386.331C355.424 386.356 355.34 386.393 355.262 386.441C355.088 386.528 354.934 386.65 354.81 386.8C354.686 386.95 354.595 387.124 354.542 387.311C354.192 388.461 354.842 390.171 355.212 390.981C355.902 389.541 356.372 386.981 355.852 386.401C355.822 386.361 355.742 386.281 355.512 386.331Z" fill="#669FFD"/>
<path d="M291.001 209.339L279.001 209.149C278.574 209.138 278.15 209.215 277.754 209.375C277.359 209.535 277 209.775 276.701 210.079L261.771 230.079C261.614 230.278 261.538 230.529 261.558 230.781C261.578 231.034 261.694 231.269 261.881 231.439C262.261 231.829 262.741 231.73 263.471 231.74L275.281 231.919C275.708 231.932 276.134 231.857 276.531 231.699C276.929 231.54 277.289 231.303 277.591 230.999L292.361 211.229C292.871 210.559 292.941 209.339 291.001 209.339Z" fill="#669FFD"/>
<path d="M228.36 187.76L228.55 190.14L228.78 192.65C228.95 194.33 229.13 196.01 229.33 197.65C229.74 201.01 230.19 204.37 230.78 207.65C231.81 214.143 233.416 220.532 235.58 226.74C236.1 228.23 236.73 229.69 237.34 231.05C237.62 231.76 237.75 231.91 237.71 232.05C237.67 232.19 237.94 232.43 238.79 232.48C239.923 232.512 241.054 232.364 242.14 232.04C243.549 231.635 244.928 231.138 246.27 230.55C247.7 229.92 249.14 229.19 250.59 228.41C252.04 227.63 253.49 226.79 254.92 225.89C256.35 224.99 257.83 224.06 259.15 223.19L264.97 229.19C263.71 230.77 262.51 232.14 261.17 233.53C259.83 234.92 258.48 236.22 257.01 237.48C255.529 238.786 253.969 240.002 252.34 241.12C250.616 242.333 248.789 243.393 246.88 244.29C244.667 245.341 242.307 246.053 239.88 246.4C238.403 246.589 236.908 246.589 235.43 246.4C233.751 246.167 232.122 245.657 230.61 244.89C229.092 244.126 227.712 243.112 226.53 241.89C225.481 240.78 224.574 239.544 223.83 238.21C222.83 236.4 221.91 234.64 221.1 232.82C218.022 225.777 215.718 218.421 214.23 210.88C213.49 207.19 212.86 203.5 212.41 199.8C212.17 197.94 211.97 196.09 211.82 194.22C211.74 193.28 211.66 192.35 211.61 191.4C211.56 190.45 211.51 189.56 211.48 188.46L228.36 187.76Z" fill="#FF8B7B"/>
<path d="M209.93 182.461C203.85 191.341 213.86 217.681 213.86 217.681L238.04 207.681C238.04 207.681 237.04 200.881 232.74 187.681C228.06 173.211 217.3 171.701 209.93 182.461Z" fill="#07162C"/>
<path d="M257.09 224.771L265.36 217.111L271.36 229.201C271.36 229.201 263.03 235.201 259.11 231.321L257.09 224.771Z" fill="#FF8B7B"/>
<path d="M277.07 217.47L278.47 222.06C278.742 222.945 278.69 223.898 278.323 224.748C277.957 225.598 277.3 226.29 276.47 226.7L271.41 229.2L265.41 217.11L272.16 214.89C272.652 214.737 273.169 214.682 273.682 214.729C274.195 214.776 274.694 214.923 275.15 215.163C275.606 215.402 276.01 215.73 276.34 216.125C276.669 216.521 276.917 216.978 277.07 217.47Z" fill="#FF8B7B"/>
</svg>
