<svg width="500" height="455" viewBox="0 0 500 455" fill="none" xmlns="http://www.w3.org/2000/svg">
    <path d="M500 382.398H0V382.648H500V382.398Z" fill="#EBEBEB" />
    <path d="M449.899 398.492H416.779V398.742H449.899V398.492Z" fill="#EBEBEB" />
    <path d="M331.219 401.211H322.529V401.461H331.219V401.211Z" fill="#EBEBEB" />
    <path d="M415.78 389.211H396.59V389.461H415.78V389.211Z" fill="#EBEBEB" />
    <path d="M95.6509 390.891H52.4609V391.141H95.6509V390.891Z" fill="#EBEBEB" />
    <path d="M110.891 390.891H104.561V391.141H110.891V390.891Z" fill="#EBEBEB" />
    <path d="M225.151 395.109H131.471V395.359H225.151V395.109Z" fill="#EBEBEB" />
    <path
        d="M237.001 337.8H43.9109C42.3983 337.797 40.9485 337.195 39.8798 336.124C38.8112 335.053 38.2109 333.603 38.2109 332.09V60.66C38.2241 59.156 38.8301 57.718 39.8974 56.6582C40.9646 55.5985 42.4069 55.0026 43.9109 55H237.001C238.515 55 239.968 55.6016 241.039 56.6724C242.109 57.7433 242.711 59.1956 242.711 60.71V332.09C242.711 333.604 242.109 335.057 241.039 336.128C239.968 337.198 238.515 337.8 237.001 337.8ZM43.9109 55.2C42.4646 55.2026 41.0784 55.7791 40.0566 56.8027C39.0348 57.8264 38.4609 59.2136 38.4609 60.66V332.09C38.4609 333.536 39.0348 334.924 40.0566 335.947C41.0784 336.971 42.4646 337.547 43.9109 337.55H237.001C238.448 337.547 239.835 336.971 240.859 335.948C241.882 334.924 242.458 333.537 242.461 332.09V60.66C242.458 59.2127 241.882 57.8255 240.859 56.8021C239.835 55.7787 238.448 55.2026 237.001 55.2H43.9109Z"
        fill="#EBEBEB" />
    <path
        d="M453.31 337.8H260.21C258.696 337.797 257.246 337.195 256.175 336.125C255.105 335.054 254.503 333.604 254.5 332.09V60.66C254.516 59.1551 255.124 57.7171 256.193 56.6576C257.262 55.5981 258.705 55.0025 260.21 55H453.31C454.812 55.0052 456.252 55.6022 457.317 56.6617C458.382 57.7212 458.987 59.1578 459 60.66V332.09C459 333.601 458.401 335.05 457.335 336.121C456.268 337.191 454.821 337.795 453.31 337.8ZM260.21 55.2C258.763 55.2026 257.375 55.7787 256.352 56.8021C255.329 57.8255 254.753 59.2127 254.75 60.66V332.09C254.753 333.537 255.329 334.924 256.352 335.948C257.375 336.971 258.763 337.547 260.21 337.55H453.31C454.757 337.547 456.145 336.971 457.168 335.948C458.191 334.924 458.767 333.537 458.77 332.09V60.66C458.767 59.2127 458.191 57.8255 457.168 56.8021C456.145 55.7787 454.757 55.2026 453.31 55.2H260.21Z"
        fill="#EBEBEB" />
    <path d="M134.99 199.649H56.5098L63.4598 113.199H128.03L134.99 199.649Z" fill="#EBEBEB" />
    <path d="M97.8794 199.648H93.6094V382.398H97.8794V199.648Z" fill="#F5F5F5" />
    <path
        d="M113.15 382.397H78.3398C78.3398 381.414 78.7307 380.47 79.4265 379.774C80.1222 379.078 81.0659 378.688 82.0499 378.688H109.45C110.432 378.69 111.373 379.082 112.067 379.778C112.76 380.473 113.15 381.415 113.15 382.397Z"
        fill="#F0F0F0" />
    <path d="M93.6094 206.358L97.8794 202.288V199.648H93.6094V206.358Z" fill="#E0E0E0" />
    <path d="M413.64 77.8984H165.9V196.558H413.64V77.8984Z" fill="#E0E0E0" />
    <path d="M422.739 77.8984H169.869V196.558H422.739V77.8984Z" fill="#F5F5F5" />
    <path d="M182.961 98.6895V175.77H409.661V98.6895L182.961 98.6895Z" fill="white" />
    <path
        d="M395.999 382.391H436.859C442.94 382.391 447.869 377.461 447.869 371.381V281.201C447.869 275.12 442.94 270.191 436.859 270.191H395.999C389.918 270.191 384.989 275.12 384.989 281.201V371.381C384.989 377.461 389.918 382.391 395.999 382.391Z"
        fill="#F5F5F5" />
    <path
        d="M377.169 382.391H418.029C424.11 382.391 429.039 377.461 429.039 371.381V281.201C429.039 275.12 424.11 270.191 418.029 270.191H377.169C371.088 270.191 366.159 275.12 366.159 281.201V371.381C366.159 377.461 371.088 382.391 377.169 382.391Z"
        fill="#E6E6E6" />
    <path
        d="M413.82 270.188H433.59C434.186 270.188 434.67 269.704 434.67 269.108V268.168C434.67 267.571 434.186 267.087 433.59 267.087H413.82C413.223 267.087 412.74 267.571 412.74 268.168V269.108C412.74 269.704 413.223 270.188 413.82 270.188Z"
        fill="#F5F5F5" />
    <path
        d="M407.25 270.188H427.02C427.616 270.188 428.1 269.704 428.1 269.108V268.168C428.1 267.571 427.616 267.087 427.02 267.087H407.25C406.653 267.087 406.17 267.571 406.17 268.168V269.108C406.17 269.704 406.653 270.188 407.25 270.188Z"
        fill="#E6E6E6" />
    <path
        d="M186.46 382.398L414.53 382.398C417.546 382.398 419.99 379.954 419.99 376.938V335.548C419.99 332.533 417.546 330.088 414.53 330.088H186.46C183.445 330.088 181 332.533 181 335.548V376.938C181 379.954 183.445 382.398 186.46 382.398Z"
        fill="#F0F0F0" />
    <path
        d="M164.709 233.43H358.999C365.109 233.43 370.489 238.95 370.999 245.75L376.169 314C376.689 320.8 372.169 326.32 366.029 326.32H171.719C165.599 326.32 160.229 320.8 159.719 314L154.579 245.77C154.049 239 158.599 233.43 164.709 233.43Z"
        fill="#EBEBEB" />
    <path
        d="M179.74 233.43H374.05C380.17 233.43 385.54 238.95 386.05 245.75L391.2 314C391.71 320.8 387.2 326.32 381.05 326.32H186.74C180.62 326.32 175.25 320.8 174.74 314L169.59 245.77C169.08 239 173.62 233.43 179.74 233.43Z"
        fill="#FAFAFA" />
    <path
        d="M288.34 314L283.19 245.78C282.7 239.31 277.6 234.04 271.82 234.04V232.77C278.25 232.77 283.92 238.56 284.46 245.68L289.6 313.91L288.34 314Z"
        fill="#F0F0F0" />
    <path
        d="M170.29 382.391H211.15C217.231 382.391 222.16 377.461 222.16 371.381V281.201C222.16 275.12 217.231 270.191 211.15 270.191H170.29C164.209 270.191 159.28 275.12 159.28 281.201V371.381C159.28 377.461 164.209 382.391 170.29 382.391Z"
        fill="#F5F5F5" />
    <path
        d="M216.24 334.852H419.66C423.261 334.852 426.18 331.932 426.18 328.332V312.402C426.18 308.801 423.261 305.882 419.66 305.882H216.24C212.639 305.882 209.72 308.801 209.72 312.402V328.332C209.72 331.932 212.639 334.852 216.24 334.852Z"
        fill="#F5F5F5" />
    <path
        d="M311.76 335.482V334.222C314.82 334.222 317.31 331.412 317.31 327.972V312.762C317.31 309.312 314.82 306.512 311.76 306.512V305.242C315.52 305.242 318.58 308.612 318.58 312.762V328.002C318.58 332.112 315.52 335.482 311.76 335.482Z"
        fill="#EBEBEB" />
    <path
        d="M151.47 382.391H192.33C198.411 382.391 203.34 377.461 203.34 371.381V281.201C203.34 275.12 198.411 270.191 192.33 270.191H151.47C145.389 270.191 140.46 275.12 140.46 281.201V371.381C140.46 377.461 145.389 382.391 151.47 382.391Z"
        fill="#E6E6E6" />
    <path
        d="M349.57 229.092C376.859 231.542 381.14 265.902 383.07 278.882C384.999 291.862 360.56 278.392 345.32 279.882C330.08 281.372 325.119 287.312 308.119 284.592C291.119 281.872 284.019 279.952 272.329 281.882C260.639 283.812 240.08 284.512 237.96 280.832C235.96 277.442 230.439 241.772 219.629 234.622C217.889 233.472 218.549 231.842 221.039 231.102C241.579 225.002 325 226.892 349.57 229.092Z"
        fill="#E6E6E6" />
    <path
        d="M249.999 427.562C357.082 427.562 443.889 422.494 443.889 416.242C443.889 409.99 357.082 404.922 249.999 404.922C142.917 404.922 56.1094 409.99 56.1094 416.242C56.1094 422.494 142.917 427.562 249.999 427.562Z"
        fill="#F5F5F5" />
    <path
        d="M397.08 127.607C397.105 125.1 396.547 122.622 395.45 120.367C394.51 118.717 392.01 114.367 360.84 114.367V113.367C392.59 113.367 395.11 117.787 396.32 119.907C397.497 122.302 398.096 124.939 398.07 127.607H397.08Z"
        fill="#5AD89B" />
    <path
        d="M395.939 144.92L394.939 144.69C395.677 141.552 396.251 138.377 396.659 135.18L397.659 135.31C397.259 138.542 396.685 141.75 395.939 144.92Z"
        fill="#5AD89B" />
    <path
        d="M393.28 121.595C389.09 114.235 330.1 116.795 319.16 119.935C304.36 124.195 297.71 162.405 296.58 171.625C296.58 171.625 305.27 162.505 312.93 160.195C316.58 161.475 356.81 168.505 364.3 170.505C372.86 172.795 381.95 170.505 386.13 163.045C390.31 155.585 397.65 129.285 393.28 121.595Z"
        fill="#5AD89B" />
    <path
        d="M380.05 132.247C379.931 132.257 379.81 132.257 379.69 132.247C351.79 128.247 319.5 131.097 319.18 131.127C318.852 131.157 318.521 131.121 318.207 131.023C317.892 130.924 317.6 130.765 317.347 130.554C317.094 130.343 316.885 130.084 316.732 129.792C316.579 129.5 316.485 129.18 316.455 128.852C316.426 128.524 316.461 128.193 316.56 127.878C316.658 127.564 316.817 127.271 317.029 127.018C317.24 126.765 317.499 126.556 317.791 126.403C318.083 126.25 318.402 126.157 318.73 126.127C319.06 126.127 351.93 123.217 380.4 127.277C381.063 127.323 381.681 127.631 382.117 128.133C382.553 128.635 382.772 129.289 382.725 129.952C382.679 130.615 382.371 131.232 381.869 131.668C381.368 132.104 380.713 132.323 380.05 132.277V132.247Z"
        fill="white" />
    <path
        d="M376.001 145.626C375.854 145.64 375.707 145.64 375.561 145.626C355.42 142.186 334.978 140.846 314.561 141.626C313.898 141.665 313.246 141.44 312.749 140.999C312.252 140.559 311.951 139.939 311.911 139.276C311.871 138.613 312.096 137.961 312.537 137.464C312.978 136.967 313.598 136.665 314.261 136.626C335.063 135.803 355.895 137.143 376.421 140.626C376.749 140.653 377.069 140.745 377.361 140.896C377.654 141.047 377.914 141.255 378.127 141.506C378.34 141.758 378.501 142.049 378.601 142.363C378.701 142.677 378.738 143.007 378.711 143.336C378.683 143.664 378.591 143.984 378.44 144.276C378.289 144.569 378.082 144.829 377.83 145.042C377.578 145.254 377.287 145.415 376.973 145.516C376.66 145.616 376.329 145.653 376.001 145.626Z"
        fill="white" />
    <path
        d="M359.48 159.327C359.247 159.327 359.015 159.297 358.79 159.237C343.504 154.962 327.656 153.037 311.79 153.527C311.127 153.57 310.474 153.347 309.975 152.908C309.477 152.469 309.173 151.85 309.13 151.187C309.088 150.524 309.31 149.871 309.749 149.373C310.188 148.874 310.807 148.57 311.47 148.527C327.908 147.95 344.334 149.937 360.16 154.417C360.737 154.585 361.234 154.956 361.56 155.461C361.886 155.965 362.02 156.571 361.936 157.166C361.852 157.761 361.557 158.306 361.104 158.701C360.651 159.096 360.071 159.315 359.47 159.317L359.48 159.327Z"
        fill="white" />
    <path
        d="M111.36 112.45C114.57 104.61 156.2 100.75 167.45 102.45C182.67 104.77 194.53 144.52 196.45 155.45C196.45 155.45 186.67 147.51 178.77 146.21C175.32 147.94 153.94 155.51 146.37 157.21C137.72 159.12 128.86 159.44 123.76 152.6C118.66 145.76 108 120.63 111.36 112.45Z"
        fill="#5AD89B" />
    <path opacity="0.1"
        d="M167.45 102.458C156.2 100.738 114.57 104.608 111.37 112.458C110.759 114.278 110.565 116.212 110.8 118.118C118.8 130.768 131.06 140.488 145.14 141.118C162.23 141.678 179.21 133.228 185.8 123.228C180.84 112.658 174.52 103.538 167.45 102.458Z"
        fill="black" />
    <path
        d="M184.297 115.32C194.211 102.657 191.983 84.3543 179.321 74.4397C166.658 64.525 148.355 66.7528 138.44 79.4157C128.526 92.0785 130.754 110.381 143.416 120.296C156.079 130.21 174.382 127.983 184.297 115.32Z"
        fill="#5AD89B" />
    <path opacity="0.4"
        d="M184.297 115.32C194.211 102.657 191.983 84.3543 179.321 74.4397C166.658 64.525 148.355 66.7528 138.44 79.4157C128.526 92.0785 130.754 110.381 143.416 120.296C156.079 130.21 174.382 127.983 184.297 115.32Z"
        fill="white" />
    <path
        d="M160 88.3183C160.35 89.0283 159.29 90.1583 157.63 90.8383C155.97 91.5183 154.35 91.5083 153.99 90.8383C153.63 90.1683 154.7 88.9983 156.36 88.3183C158.02 87.6383 159.62 87.6183 160 88.3183Z"
        fill="#5AD89B" />
    <path
        d="M152.221 81.1813C154.098 80.4644 156.091 80.095 158.101 80.0913C159.104 80.0789 160.108 80.1458 161.101 80.2913C162.123 80.4383 163.128 80.6862 164.101 81.0313C164.335 81.0891 164.54 81.2293 164.678 81.4262C164.817 81.6231 164.88 81.8635 164.856 82.1031C164.831 82.3427 164.721 82.5655 164.546 82.7305C164.37 82.8955 164.141 82.9917 163.901 83.0013C163.121 83.0913 162.251 83.2613 161.421 83.4313C160.591 83.6013 159.771 83.8613 158.951 84.1313C157.283 84.6849 155.701 85.4691 154.251 86.4613C154.723 85.6524 155.313 84.9178 156.001 84.2813C156.709 83.6673 157.484 83.134 158.311 82.6913C159.139 82.25 160.006 81.8852 160.901 81.6013C161.806 81.2954 162.741 81.0843 163.691 80.9713L163.421 82.8913C162.555 82.6049 161.673 82.3679 160.781 82.1813C159.861 81.9713 158.941 81.8213 158.001 81.6913C157.061 81.5613 156.111 81.4413 155.151 81.3813C154.191 81.3213 153.221 81.2713 152.221 81.1813Z"
        fill="#07162C" />
    <path
        d="M179.56 75.3475C179.038 75.5955 178.537 75.883 178.06 76.2075C177.61 76.4939 177.195 76.8292 176.82 77.2075C176.452 77.574 176.117 77.9722 175.82 78.3975C175.526 78.8024 175.271 79.2344 175.06 79.6875L173.89 78.6875C174.508 78.3044 175.183 78.0209 175.89 77.8475C176.578 77.6696 177.289 77.5955 178 77.6275C179.389 77.6576 180.731 78.1423 181.82 79.0075C181.187 78.8738 180.545 78.7869 179.9 78.7475C179.285 78.7085 178.668 78.7353 178.06 78.8275C177.467 78.9173 176.884 79.0647 176.32 79.2675C175.776 79.4617 175.254 79.7096 174.76 80.0075C174.672 80.0627 174.574 80.1001 174.471 80.1174C174.369 80.1348 174.264 80.1318 174.163 80.1085C174.061 80.0853 173.966 80.0423 173.881 79.9821C173.797 79.9219 173.725 79.8455 173.67 79.7575C173.613 79.6458 173.584 79.5225 173.584 79.3975C173.584 79.2724 173.613 79.1491 173.67 79.0375C173.913 78.4346 174.25 77.8743 174.67 77.3775C175.055 76.9266 175.503 76.5327 176 76.2075C176.525 75.8666 177.103 75.6133 177.71 75.4575C178.314 75.3079 178.941 75.2706 179.56 75.3475Z"
        fill="#07162C" />
    <path
        d="M184.129 82.7474C184.199 83.5074 182.879 84.2374 181.129 84.3874C179.379 84.5374 177.999 83.9974 177.939 83.2674C177.879 82.5374 179.189 81.7774 180.889 81.6274C182.589 81.4774 184.049 81.9974 184.129 82.7474Z"
        fill="#5AD89B" />
    <path
        d="M160.73 92.1599C167.497 88.7456 174.843 86.6259 182.39 85.9099C182.686 85.8865 182.98 85.9769 183.212 86.1626C183.445 86.3484 183.597 86.6156 183.64 86.9099C184.47 95.4299 168.9 99.9099 160.64 93.9099C160.487 93.8156 160.363 93.6822 160.28 93.5236C160.197 93.365 160.158 93.1871 160.167 93.0083C160.177 92.8295 160.234 92.6564 160.332 92.5072C160.431 92.3579 160.569 92.238 160.73 92.1599Z"
        fill="#07162C" />
    <path
        d="M176.25 90.6075C175.716 90.8818 175.216 91.2174 174.76 91.6075C173.293 91.2758 171.755 91.4742 170.42 92.1675C169.523 92.5474 168.73 93.1356 168.105 93.8834C167.481 94.6312 167.044 95.5171 166.83 96.4675C168.814 96.8033 170.839 96.8236 172.83 96.5275C174.336 96.3168 175.811 95.9205 177.22 95.3475C179.353 94.571 181.208 93.1789 182.55 91.3475C181.38 89.7275 178.74 89.4075 176.25 90.6075Z"
        fill="#5AD89B" />
    <path
        d="M238.63 34.3573C225.5 21.0473 196.15 30.4773 207.34 48.9973C218.53 67.5173 243.56 80.9973 248.45 88.0673C251.78 73.6373 261.06 64.4373 267.09 52.3773C273.12 40.3173 257.28 22.5273 238.63 34.3573Z"
        fill="#5AD89B" />
    <path opacity="0.3"
        d="M238.63 34.3573C225.5 21.0473 196.15 30.4773 207.34 48.9973C218.53 67.5173 243.56 80.9973 248.45 88.0673C251.78 73.6373 261.06 64.4373 267.09 52.3773C273.12 40.3173 257.28 22.5273 238.63 34.3573Z"
        fill="black" />
    <path d="M287.682 315.578H295.522L327.852 416.238H325.232L287.682 315.578Z" fill="#5AD89B" />
    <path d="M255.98 315.578H263.83L276.07 416.238H273.45L255.98 315.578Z" fill="#5AD89B" />
    <path d="M210.301 315.578H202.451L170.131 416.238H172.751L210.301 315.578Z" fill="#5AD89B" />
    <path d="M241.99 315.578H234.15L221.91 416.238H224.53L241.99 315.578Z" fill="#5AD89B" />
    <path
        d="M280.931 337.89C243.071 338.33 189.261 337.07 165.471 290.48C149.351 258.91 132.111 191.86 179.341 172.69C226.571 153.52 299.101 175.16 298.411 212.28C297.721 249.4 336.631 258.49 349.411 283.76C365.201 315.15 330.821 337.31 280.931 337.89Z"
        fill="#5AD89B" />
    <path opacity="0.7"
        d="M280.931 337.89C243.071 338.33 189.261 337.07 165.471 290.48C149.351 258.91 132.111 191.86 179.341 172.69C226.571 153.52 299.101 175.16 298.411 212.28C297.721 249.4 336.631 258.49 349.411 283.76C365.201 315.15 330.821 337.31 280.931 337.89Z"
        fill="white" />
    <path opacity="0.3"
        d="M320.661 302.538C320.261 308.288 292.921 311.068 259.601 308.748C226.281 306.428 205.221 304.668 199.121 291.548C186.821 265.078 185.231 187.548 218.561 189.888C251.891 192.228 321.061 296.788 320.661 302.538Z"
        fill="#5AD89B" />
    <path
        d="M270.46 187.633L270.72 189.423L271.03 191.333L271.7 195.193C272.19 197.763 272.7 200.343 273.27 202.903C274.395 207.972 275.784 212.979 277.43 217.903C277.86 219.103 278.25 220.343 278.74 221.513C279.23 222.683 279.62 223.913 280.15 225.053C280.68 226.193 281.15 227.473 281.52 228.283C281.71 228.713 281.86 229.083 281.94 229.283C282.02 229.483 282.07 229.503 281.23 229.073C280.403 228.684 279.493 228.505 278.58 228.553C277.961 228.589 277.352 228.732 276.78 228.973C276.547 229.08 276.32 229.2 276.1 229.333C275.93 229.446 275.766 229.57 275.61 229.703C275.299 229.929 275.057 230.237 274.91 230.593C274.91 230.723 274.91 230.733 275.02 230.663C275.6 229.947 276.056 229.139 276.37 228.273C277.32 226.133 278.14 223.493 279.02 221.053L287.37 221.463C287.921 224.523 288.109 227.638 287.93 230.743C287.828 232.634 287.451 234.5 286.81 236.283C286.568 236.937 286.263 237.567 285.9 238.163C285.346 239.086 284.636 239.905 283.8 240.583C283.505 240.819 283.194 241.037 282.87 241.233C282.506 241.462 282.121 241.656 281.72 241.813C280.829 242.19 279.877 242.403 278.91 242.443C277.301 242.503 275.706 242.13 274.29 241.363C272.873 240.592 271.603 239.576 270.54 238.363C269.85 237.599 269.215 236.787 268.64 235.933C267.744 234.595 266.933 233.202 266.21 231.763C264.791 229.114 263.509 226.394 262.37 223.613C260.113 218.159 258.258 212.547 256.82 206.823C256.09 203.983 255.48 201.123 254.94 198.243C254.67 196.803 254.43 195.363 254.21 193.903C254.11 193.173 254.01 192.433 253.92 191.693C253.83 190.953 253.75 190.253 253.66 189.353L270.46 187.633Z"
        fill="#FF8B7B" />
    <path
        d="M248.81 184.861C243.72 194.341 256.49 219.461 256.49 219.461L279.49 206.951C279.49 206.951 277.76 200.301 272.08 187.581C265.85 173.731 255 173.371 248.81 184.861Z"
        fill="#07162C" />
    <path
        d="M278.641 223.768L279.091 212.508L291.911 216.818C291.911 216.818 290.261 226.998 284.721 226.998L278.641 223.768Z"
        fill="#FF8B7B" />
    <path
        d="M287.64 204.501L291.88 206.771C292.695 207.211 293.328 207.925 293.667 208.787C294.005 209.65 294.028 210.604 293.73 211.481L291.91 216.821L279.09 212.511L282.31 206.181C282.546 205.718 282.873 205.306 283.27 204.97C283.667 204.634 284.127 204.381 284.623 204.224C285.119 204.068 285.641 204.012 286.159 204.059C286.677 204.107 287.18 204.257 287.64 204.501Z"
        fill="#FF8B7B" />
    <path
        d="M260.88 176.643C248.074 173.879 234.916 173.133 221.88 174.433C217.777 174.848 213.934 176.638 210.975 179.511C208.017 182.385 206.115 186.173 205.58 190.263C200.37 229.653 203.67 250.603 203.42 261.383L262.79 266.643C262.31 255.363 263.21 225.923 268.79 188.103C269.164 185.546 268.556 182.943 267.089 180.817C265.621 178.691 263.403 177.199 260.88 176.643Z"
        fill="#07162C" />
    <path d="M309.59 310.461L320.73 310.731L325.46 285.061L314.31 284.781L309.59 310.461Z"
        fill="#FF8B7B" />
    <path
        d="M322.311 308.778L310.731 305.118C310.529 305.047 310.308 305.055 310.111 305.141C309.914 305.226 309.757 305.382 309.671 305.578L305.521 314.668C305.423 314.9 305.374 315.15 305.377 315.402C305.38 315.654 305.436 315.903 305.54 316.132C305.645 316.362 305.795 316.567 305.983 316.735C306.171 316.903 306.392 317.03 306.631 317.108C310.831 318.348 312.251 318.448 317.501 320.108C323.641 322.048 326.111 323.528 333.311 325.808C337.661 327.178 339.821 323.028 338.091 322.018C332.631 318.838 326.501 313.818 324.681 310.438C324.131 309.604 323.284 309.01 322.311 308.778Z"
        fill="#07162C" />
    <path opacity="0.2"
        d="M325.451 285.069L323.021 298.299L311.871 298.019L314.301 284.789L325.451 285.069Z"
        fill="black" />
    <path
        d="M330.501 218.311C316.871 211.501 282.281 248.131 238.421 264.481C237.471 281.211 256.211 289.821 276.271 287.381C296.141 284.961 303.481 274.431 309.591 259.931C306.151 274.821 309.421 290.291 309.421 290.291L326.711 295.171C326.711 295.171 343.001 224.531 330.501 218.311Z"
        fill="#5AD89B" />
    <path opacity="0.2"
        d="M330.501 218.311C316.871 211.501 282.281 248.131 238.421 264.481C237.471 281.211 256.211 289.821 276.271 287.381C296.141 284.961 303.481 274.431 309.591 259.931C306.151 274.821 309.421 290.291 309.421 290.291L326.711 295.171C326.711 295.171 343.001 224.531 330.501 218.311Z"
        fill="black" />
    <path d="M328.71 297.32L306.38 295.26L305.9 287.91L330.83 289.82L328.71 297.32Z" fill="#07162C" />
    <path
        d="M321.001 308.753C320.96 308.728 320.925 308.693 320.901 308.651C320.876 308.609 320.863 308.561 320.861 308.513C320.862 308.458 320.88 308.404 320.912 308.36C320.944 308.315 320.989 308.281 321.041 308.263C321.571 308.073 326.331 306.453 327.561 307.393C327.678 307.479 327.77 307.595 327.828 307.729C327.886 307.862 327.908 308.008 327.891 308.153C327.886 308.392 327.822 308.627 327.705 308.836C327.588 309.045 327.422 309.222 327.221 309.353C325.861 310.253 322.761 309.353 321.041 308.763L321.001 308.753ZM327.151 307.753C326.361 307.343 323.831 307.923 321.961 308.503C324.341 309.253 326.171 309.403 326.961 308.903C327.093 308.814 327.201 308.695 327.278 308.556C327.354 308.417 327.397 308.261 327.401 308.103C327.411 308.046 327.404 307.987 327.381 307.933C327.358 307.88 327.32 307.835 327.271 307.803L327.151 307.753Z"
        fill="#5AD89B" />
    <path
        d="M321.001 308.749L320.941 308.699C320.907 308.668 320.883 308.628 320.871 308.584C320.858 308.54 320.858 308.493 320.871 308.449C320.871 308.329 321.611 305.399 323.181 304.449C323.402 304.308 323.651 304.214 323.911 304.172C324.17 304.131 324.436 304.143 324.691 304.209C325.401 304.379 325.551 304.779 325.561 305.079C325.561 306.349 322.611 308.369 321.201 308.769C321.134 308.788 321.062 308.781 321.001 308.749ZM324.821 304.799C324.737 304.76 324.65 304.729 324.561 304.709C324.373 304.664 324.178 304.657 323.988 304.688C323.797 304.719 323.615 304.787 323.451 304.889C322.451 305.519 321.781 307.239 321.521 308.089C322.991 307.459 325.051 305.839 325.031 305.089C325.001 304.999 325.001 304.909 324.771 304.799H324.821Z"
        fill="#5AD89B" />
    <path
        d="M252.191 177.081C245.641 174.151 246.811 170.231 248.961 165.941L235.181 153.391C235.671 158.901 235.571 168.121 231.771 172.941C231.167 173.677 230.868 174.617 230.935 175.567C231.002 176.517 231.43 177.406 232.131 178.051C236.456 182.073 241.879 184.718 247.711 185.651C254.441 186.831 255.941 184.001 255.501 181.151C255.332 180.25 254.941 179.406 254.362 178.696C253.784 177.985 253.038 177.43 252.191 177.081Z"
        fill="#FF8B7B" />
    <path opacity="0.2"
        d="M240.8 158.509C239.33 157.999 239 159.999 239 162.819C239 165.639 243.79 170.599 247.39 170.169C247.71 168.689 248.246 167.264 248.98 165.939L240.8 158.509Z"
        fill="black" />
    <path
        d="M264.882 149.349C268.672 145.689 273.522 135.579 272.512 130.589C268.608 128.757 264.203 128.289 260.002 129.259C256.506 130.322 253.235 132.017 250.352 134.259L256.492 139.499L256.372 143.039L259.792 146.829L258.792 150.249C258.704 150.551 258.707 150.872 258.8 151.172C258.893 151.472 259.072 151.738 259.314 151.938C259.556 152.138 259.852 152.263 260.164 152.297C260.477 152.33 260.792 152.272 261.072 152.129L264.882 149.349Z"
        fill="#07162C" />
    <path
        d="M237.891 136.291C235.041 146.961 232.821 153.071 236.331 160.161C241.611 170.821 256.181 170.241 262.181 160.611C267.581 151.941 271.331 135.951 262.441 128.451C260.472 126.792 258.115 125.658 255.589 125.158C253.064 124.657 250.452 124.805 248 125.589C245.547 126.372 243.333 127.765 241.565 129.636C239.797 131.508 238.533 133.798 237.891 136.291Z"
        fill="#FF8B7B" />
    <path
        d="M233 142.708C232.45 136.118 232 131.158 232 125.338C234.88 124.608 239.32 122.628 244 124.828C247.242 126.519 250.146 128.79 252.57 131.528L245.57 135.528L245.05 139.038L241.05 142.148L241.41 145.688C241.441 146.001 241.381 146.315 241.236 146.594C241.09 146.872 240.867 147.102 240.593 147.255C240.319 147.408 240.006 147.478 239.692 147.455C239.379 147.433 239.079 147.319 238.83 147.128L233 142.708Z"
        fill="#07162C" />
    <path
        d="M272.52 133.77C277.59 131.12 284.52 118.31 272.64 118.85C264.97 119.2 255.57 120.22 247.58 115.73C247.58 115.73 249.9 119.73 255.86 120.25C268.81 121.43 269.22 119.33 273.09 120.25C279.9 121.73 272.52 133.77 272.52 133.77Z"
        fill="#07162C" />
    <path
        d="M273.542 122.209C264.992 117.439 255.602 121.149 248.332 118.389C241.062 115.629 233.252 119.949 231.932 125.389L252.542 131.579C260.352 137.189 262.142 138.359 266.422 137.089C272.642 135.209 282.082 126.999 273.542 122.209Z"
        fill="#07162C" />
    <path
        d="M233.68 124.203C230.02 124.883 228.07 128.093 231.23 132.203C230.08 127.773 233.6 126.263 233.6 126.263L233.68 124.203Z"
        fill="#07162C" />
    <path
        d="M229.491 144.923C229.727 146.276 230.229 147.569 230.967 148.727C231.705 149.886 232.664 150.887 233.791 151.673C236.791 153.753 239.551 151.333 239.731 147.853C239.881 144.723 238.491 139.853 234.951 139.173C231.411 138.493 228.941 141.573 229.491 144.923Z"
        fill="#FF8B7B" />
    <path
        d="M252.16 143.67C251.88 144.52 252.1 145.36 252.66 145.54C253.22 145.72 253.9 145.18 254.19 144.33C254.48 143.48 254.25 142.64 253.69 142.46C253.13 142.28 252.45 142.82 252.16 143.67Z"
        fill="#07162C" />
    <path
        d="M262.51 147.518C262.23 148.368 262.45 149.208 263.01 149.388C263.57 149.568 264.25 149.028 264.54 148.178C264.83 147.328 264.6 146.488 264.04 146.308C263.48 146.128 262.8 146.668 262.51 147.518Z"
        fill="#07162C" />
    <path
        d="M259.301 147C259.301 147 259.601 152.54 260.951 155.61C258.951 156.52 256.611 155.05 256.611 155.05L259.301 147Z"
        fill="#FF5652" />
    <path
        d="M252.241 156.099C251.328 155.68 250.51 155.078 249.839 154.329C249.168 153.581 248.658 152.702 248.341 151.748C248.332 151.715 248.33 151.68 248.334 151.646C248.338 151.611 248.349 151.578 248.367 151.548C248.384 151.517 248.407 151.491 248.434 151.47C248.462 151.448 248.493 151.433 248.526 151.424C248.56 151.414 248.595 151.412 248.629 151.416C248.664 151.42 248.697 151.432 248.727 151.449C248.757 151.466 248.784 151.489 248.805 151.516C248.827 151.544 248.842 151.575 248.851 151.608C249.222 152.66 249.836 153.609 250.642 154.378C251.448 155.148 252.424 155.717 253.491 156.038C253.525 156.047 253.557 156.063 253.584 156.085C253.611 156.107 253.634 156.135 253.65 156.166C253.666 156.197 253.675 156.231 253.677 156.266C253.679 156.301 253.674 156.336 253.661 156.368C253.651 156.402 253.635 156.432 253.612 156.459C253.59 156.485 253.563 156.507 253.532 156.523C253.501 156.539 253.468 156.548 253.433 156.551C253.399 156.554 253.364 156.549 253.331 156.538C252.958 156.42 252.593 156.273 252.241 156.099Z"
        fill="#07162C" />
    <path
        d="M250.82 138.541C250.737 138.498 250.665 138.436 250.61 138.361C250.533 138.245 250.505 138.103 250.531 137.967C250.557 137.83 250.636 137.71 250.75 137.631C251.431 137.137 252.22 136.812 253.051 136.683C253.882 136.555 254.732 136.626 255.53 136.891C255.596 136.917 255.656 136.956 255.707 137.005C255.757 137.055 255.798 137.113 255.825 137.178C255.853 137.243 255.868 137.313 255.869 137.384C255.87 137.455 255.857 137.525 255.83 137.591C255.804 137.656 255.765 137.716 255.716 137.767C255.666 137.817 255.608 137.858 255.543 137.886C255.478 137.913 255.408 137.928 255.337 137.929C255.266 137.93 255.196 137.917 255.13 137.891C254.496 137.69 253.823 137.642 253.166 137.749C252.51 137.857 251.888 138.118 251.35 138.511C251.273 138.564 251.183 138.595 251.09 138.6C250.996 138.605 250.903 138.585 250.82 138.541Z"
        fill="#07162C" />
    <path
        d="M268 144.861C267.916 144.834 267.841 144.786 267.781 144.721C267.722 144.656 267.68 144.577 267.66 144.491C267.519 143.845 267.225 143.243 266.802 142.735C266.379 142.226 265.84 141.827 265.23 141.571C265.102 141.522 264.997 141.424 264.94 141.299C264.882 141.174 264.875 141.032 264.92 140.902C264.966 140.772 265.06 140.665 265.183 140.603C265.306 140.541 265.449 140.53 265.58 140.571C266.354 140.887 267.041 141.385 267.582 142.022C268.123 142.659 268.503 143.417 268.69 144.231C268.72 144.368 268.697 144.511 268.624 144.63C268.551 144.749 268.435 144.836 268.3 144.871C268.201 144.898 268.097 144.895 268 144.861Z"
        fill="#07162C" />
    <path d="M347.39 400.352L356.53 393.972L345.12 370.492L335.98 376.872L347.39 400.352Z"
        fill="#FF8B7B" />
    <path
        d="M356.292 390.938L345.192 395.858C344.992 395.938 344.831 396.091 344.74 396.286C344.649 396.481 344.635 396.703 344.702 396.908L347.602 406.468C347.682 406.707 347.811 406.926 347.98 407.113C348.15 407.299 348.357 407.449 348.587 407.551C348.817 407.654 349.066 407.707 349.319 407.708C349.571 407.709 349.82 407.658 350.052 407.558C354.052 405.718 355.142 404.848 360.182 402.628C366.072 400.018 368.902 399.498 375.812 396.438C379.982 394.588 378.812 390.048 376.892 390.438C370.692 391.658 362.772 391.948 359.172 390.618C358.205 390.361 357.178 390.475 356.292 390.938Z"
        fill="#07162C" />
    <path opacity="0.2" d="M345.12 370.5L351 382.6L341.86 388.98L335.98 376.88L345.12 370.5Z"
        fill="black" />
    <path
        d="M295.851 308.813C220.661 306.463 201.851 307.103 203.441 261.383L241.651 264.773C241.651 264.773 308.251 268.883 316.511 291.053C328.931 324.403 351.601 375.793 351.601 375.793L336.601 385.713C336.601 385.713 305.801 348.063 295.851 308.813Z"
        fill="#5AD89B" />
    <path d="M355.001 378.441L335.801 390.021L331.051 384.381L352.271 371.141L355.001 378.441Z"
        fill="#07162C" />
    <path
        d="M355.261 391.822C355.212 391.832 355.161 391.829 355.114 391.813C355.066 391.798 355.024 391.769 354.991 391.732C354.961 391.687 354.945 391.635 354.945 391.582C354.945 391.528 354.961 391.476 354.991 391.432C355.271 390.932 357.761 386.582 359.311 386.432C359.455 386.422 359.6 386.449 359.731 386.51C359.862 386.572 359.975 386.665 360.061 386.782C360.214 386.965 360.321 387.182 360.372 387.416C360.422 387.649 360.415 387.891 360.351 388.122C359.921 389.702 357.021 391.122 355.351 391.772L355.261 391.822ZM359.211 387.012C358.351 387.222 356.831 389.332 355.821 391.012C358.101 390.012 359.571 388.902 359.821 388.012C359.86 387.858 359.863 387.697 359.828 387.542C359.793 387.388 359.722 387.243 359.621 387.122C359.589 387.072 359.544 387.033 359.491 387.008C359.438 386.983 359.379 386.974 359.321 386.982L359.211 387.012Z"
        fill="#5AD89B" />
    <path
        d="M355.262 391.821H355.182C355.135 391.821 355.09 391.808 355.051 391.783C355.012 391.758 354.981 391.723 354.962 391.681C354.902 391.571 353.502 388.901 354.042 387.151C354.118 386.896 354.247 386.66 354.419 386.457C354.591 386.254 354.803 386.088 355.042 385.971C355.692 385.631 356.042 385.821 356.272 386.041C357.132 386.981 356.272 390.461 355.442 391.701C355.422 391.733 355.396 391.76 355.365 391.78C355.334 391.801 355.298 391.815 355.262 391.821ZM355.512 386.331C355.424 386.356 355.34 386.393 355.262 386.441C355.088 386.528 354.934 386.65 354.81 386.8C354.686 386.95 354.595 387.124 354.542 387.311C354.192 388.461 354.842 390.171 355.212 390.981C355.902 389.541 356.372 386.981 355.852 386.401C355.822 386.361 355.742 386.281 355.512 386.331Z"
        fill="#5AD89B" />
    <path
        d="M291.001 209.339L279.001 209.149C278.574 209.138 278.15 209.215 277.754 209.375C277.359 209.535 277 209.775 276.701 210.079L261.771 230.079C261.614 230.278 261.538 230.529 261.558 230.781C261.578 231.034 261.694 231.269 261.881 231.439C262.261 231.829 262.741 231.73 263.471 231.74L275.281 231.919C275.708 231.932 276.134 231.857 276.531 231.699C276.929 231.54 277.289 231.303 277.591 230.999L292.361 211.229C292.871 210.559 292.941 209.339 291.001 209.339Z"
        fill="#5AD89B" />
    <path
        d="M228.36 187.758L228.55 190.138L228.78 192.648C228.95 194.328 229.13 196.008 229.33 197.648C229.74 201.008 230.19 204.368 230.78 207.648C231.81 214.141 233.416 220.53 235.58 226.738C236.1 228.228 236.73 229.688 237.34 231.048C237.62 231.758 237.75 231.908 237.71 232.048C237.67 232.188 237.94 232.428 238.79 232.478C239.923 232.511 241.054 232.362 242.14 232.038C243.549 231.633 244.928 231.136 246.27 230.548C247.7 229.918 249.14 229.188 250.59 228.408C252.04 227.628 253.49 226.788 254.92 225.888C256.35 224.988 257.83 224.058 259.15 223.188L264.97 229.188C263.71 230.768 262.51 232.138 261.17 233.528C259.83 234.918 258.48 236.218 257.01 237.478C255.529 238.784 253.969 240 252.34 241.118C250.616 242.331 248.789 243.391 246.88 244.288C244.667 245.339 242.307 246.051 239.88 246.398C238.403 246.587 236.908 246.587 235.43 246.398C233.751 246.165 232.122 245.655 230.61 244.888C229.092 244.124 227.712 243.11 226.53 241.888C225.481 240.778 224.574 239.542 223.83 238.208C222.83 236.398 221.91 234.638 221.1 232.818C218.022 225.775 215.718 218.419 214.23 210.878C213.49 207.188 212.86 203.498 212.41 199.798C212.17 197.938 211.97 196.088 211.82 194.218C211.74 193.278 211.66 192.348 211.61 191.398C211.56 190.448 211.51 189.558 211.48 188.458L228.36 187.758Z"
        fill="#FF8B7B" />
    <path
        d="M209.93 182.461C203.85 191.341 213.86 217.681 213.86 217.681L238.04 207.681C238.04 207.681 237.04 200.881 232.74 187.681C228.06 173.211 217.3 171.701 209.93 182.461Z"
        fill="#07162C" />
    <path
        d="M257.09 224.769L265.36 217.109L271.36 229.199C271.36 229.199 263.03 235.199 259.11 231.319L257.09 224.769Z"
        fill="#FF8B7B" />
    <path
        d="M277.07 217.468L278.47 222.058C278.742 222.943 278.69 223.896 278.323 224.746C277.957 225.596 277.3 226.288 276.47 226.698L271.41 229.198L265.41 217.108L272.16 214.888C272.652 214.735 273.169 214.68 273.682 214.727C274.195 214.774 274.694 214.921 275.15 215.161C275.606 215.4 276.01 215.728 276.34 216.124C276.669 216.52 276.917 216.977 277.07 217.468Z"
        fill="#FF8B7B" />
</svg>