<svg width="102" height="102" viewBox="0 0 102 102" fill="none"
    xmlns="http://www.w3.org/2000/svg">
    <circle cx="51" cy="51" r="51" fill="#666666"/>
    <path d="M50.6982 0C37.1986 0.0798818 24.2813 5.50897 14.7779 15.0972C5.27446 24.6854 -0.0397172 37.6505 0.000223523 51.1504C0.0401642 64.6504 5.43096 77.5838 14.9909 87.1156C24.5509 96.6474 37.5001 102 51 102C64.4999 102 77.4491 96.6474 87.0091 87.1156C96.569 77.5838 101.96 64.6504 102 51.1504C102.04 37.6505 96.7255 24.6854 87.2221 15.0972C77.7187 5.50897 64.8014 0.0798818 51.3018 0H50.6982ZM50.6982 25.9529C56.7543 26.0326 62.533 28.5045 66.7731 32.8293C71.0133 37.154 73.3707 42.9804 73.3309 49.0369C73.291 55.0934 70.8572 60.8883 66.5604 65.1569C62.2637 69.4254 56.453 71.8211 50.3965 71.8211C44.3399 71.8211 38.5292 69.4254 34.2325 65.1569C29.9357 60.8883 27.5019 55.0934 27.462 49.0369C27.4222 42.9804 29.7796 37.154 34.0198 32.8293C38.2599 28.5045 44.0386 26.0326 50.0947 25.9529H50.6982ZM16.8994 86.4593C22.3314 79.4179 29.071 75.8971 37.1183 75.8971H64.8817C72.929 75.8971 79.6686 79.4179 85.1006 86.4593C75.9013 95.2054 63.6933 100.082 51 100.082C38.3067 100.082 26.0987 95.2054 16.8994 86.4593Z" fill="#DDDDDD"/>
</svg>
