<?xml version="1.0" encoding="UTF-8"?>
<svg id="Layer_2"
  xmlns="http://www.w3.org/2000/svg"
  xmlns:xlink="http://www.w3.org/1999/xlink" viewBox="0 0 435.06 428.88">
  <defs>
    <linearGradient id="student-female-dark" x1="135.04" y1="32.49" x2="262.98" y2="32.49" gradientUnits="userSpaceOnUse">
      <stop offset="0" stop-color="#2bb573"/>
      <stop offset=".38" stop-color="#22a364"/>
      <stop offset=".96" stop-color="#118249"/>
    </linearGradient>
    <linearGradient id="student-female-dark-2" x1="155.53" y1="64.22" x2="258.74" y2="64.22" xlink:href="#student-female-dark"/>
    <linearGradient id="student-female-dark-3" x1="267.39" y1="302.96" x2="295.51" y2="302.96" xlink:href="#student-female-dark"/>
    <linearGradient id="student-female-dark-4" x1="225.12" y1="312.44" x2="240.26" y2="312.44" gradientUnits="userSpaceOnUse">
      <stop offset="0" stop-color="blue"/>
      <stop offset="1" stop-color="#008dd4"/>
    </linearGradient>
  </defs>
  <path d="M84.99,265.73s-9.96,11.69,5.87,15.29c0,0,9.64,23.75,22.09,2.04" fill="#bbf2ff" stroke="#fafafa" stroke-miterlimit="10" stroke-width=".5"/>
  <g>
    <polygon points="184.63 .51 135.04 35.69 145.93 64.47 216.93 64.47 252.14 38.06 262.98 29.93 254.03 3.38 184.63 .51" fill="url(#student-female-dark)" stroke="#fafafa" stroke-miterlimit="10"/>
    <polygon points="155.53 64.47 164.78 90.38 220.77 90.38 258.74 61.27 252.14 38.06 216.93 64.47 155.53 64.47" fill="url(#student-female-dark-2)" stroke="#fafafa" stroke-miterlimit="10"/>
    <line x1="143.74" y1="58.68" x2="143.74" y2="81.1" fill="none" stroke="#fafafa" stroke-miterlimit="10" stroke-width="2"/>
    <circle cx="143.74" cy="91.34" r="10.25" fill="#2bb573" stroke="#fafafa" stroke-miterlimit="10"/>
  </g>
  <circle cx="37.76" cy="375" r="10.25" fill="#fbffae" stroke="#231f20" stroke-miterlimit="10" stroke-width=".5"/>
  <path d="M101.52,14.1s-3.84,17.35,11.75,23.97l-8.39,10.33s-19.19-6.24-17.63-29.86l14.27-4.44Z" fill="#bbf2ff" stroke="#fafafa" stroke-miterlimit="10" stroke-width=".75"/>
  <path d="M353.11,93.05l1.46-9.61,11.99.6s4.68,5.28,3.12,15.71c0,0,.36,3.84-7.2,4.44h-3.84s3.12,7.92-.24,10.31-12.55,2.52-15.99-4.44c0,0-2.36-6.06,1.96-10.29l8.63-2.43-.06-1.44c-.04-.96.01-1.92.16-2.86Z" fill="#fbffae" stroke="#fafafa" stroke-miterlimit="10" stroke-width=".5"/>
  <g>
    <g>
      <path d="M422.98,275.51c6.46,0,11.71,5.24,11.71,11.71s-5.24,11.69-11.71,11.69-11.69-5.24-11.69-11.69,5.24-11.71,11.69-11.71Z" fill="#9fc"/>
      <path d="M314.63,410.97c.56.63.42,1.62-.31,2.06l-18.33,11.15-.34-18.11v-.14c0-.05.01-.1.01-.15l8.46-5.07c.51-.3,1.17-.2,1.57.24l8.95,10.01Z" fill="#ffafa4"/>
      <path d="M295.66,405.78c0,.05-.01.1-.01.15v-.15h.01Z" fill="#ffafa4"/>
      <polygon points="281.45 317.64 277.66 306.92 267.39 302.96 277.66 299 281.45 288.28 285.25 299 295.51 302.96 285.25 306.92 281.45 317.64" fill="url(#student-female-dark-3)" stroke="#fafafa" stroke-miterlimit="10"/>
    </g>
    <g>
      <path d="M295.65,405.78h.01l8.46-5.07c.51-.3,1.17-.2,1.57.24l8.95,10.01c.56.63.42,1.62-.31,2.06l-18.33,11.15" fill="none" stroke="#fafafa" stroke-miterlimit="10" stroke-width=".75"/>
      <line x1="164.79" y1="90.37" x2="164.78" y2="90.38" fill="none" stroke="#231f20" stroke-miterlimit="10"/>
      <path d="M154.06,203.66c3.57,5.91,7.75,11.41,12.48,16.39.43.46.86.91,1.31,1.35,1.95,1.99,3.99,3.89,6.11,5.7,16.71,14.25,38.38,22.86,62.07,22.86,16.44,0,31.9-4.15,45.42-11.45,5.5-2.96,10.67-6.46,15.45-10.4" fill="none" stroke="#fafafa" stroke-miterlimit="10"/>
      <path d="M313.75,210.11s0,.01,0,.01c-3.65,5.08-7.78,9.77-12.34,14.04-1.46,1.36-2.95,2.67-4.5,3.94" fill="none" stroke="#fafafa" stroke-miterlimit="10"/>
      <path d="M303.51,130.11s.02.02.02.04" fill="none" stroke="#231f20" stroke-miterlimit="10"/>
      <line x1="143.74" y1="128.89" x2="143.73" y2="128.89" fill="none" stroke="#231f20" stroke-miterlimit="10"/>
      <path d="M340.13,135.73l3.92,2.26c1.06.6,1.7,1.75,1.66,2.98l-1.11,32.54c-.07,1.69-1.28,3.12-2.93,3.45l-3.74.74-.95.19" fill="none" stroke="#fafafa" stroke-miterlimit="10"/>
      <line x1="328.33" y1="179.6" x2="328.3" y2="179.61" fill="none" stroke="#231f20" stroke-miterlimit="10"/>
      <path d="M295.65,406.07c-.3,12.65-.68,21.12-1.15,22.66" fill="none" stroke="#fafafa" stroke-miterlimit="10"/>
      <path d="M296.91,228.11h0c0,.73,0,29.01-.14,64.15-.12,31.58-.34,68.7-.78,96.29-.11,6.31-.21,12.11-.33,17.23,0,.05-.01.1-.01.15" fill="none" stroke="#fafafa" stroke-miterlimit="10"/>
      <path d="M75.75,167.92s18.35,29.69,68.09,46.14c6.94,2.3,14.51,4.33,22.71,6,.01.01.02.01.03.01" fill="none" stroke="#fafafa" stroke-miterlimit="10"/>
      <polyline points="289.89 305.12 289.89 311.39 283.66 311.39" fill="none" stroke="#fafafa" stroke-miterlimit="10" stroke-width=".75"/>
      <polyline points="273.01 300.78 273.01 294.52 279.24 294.52" fill="none" stroke="#fafafa" stroke-miterlimit="10" stroke-width=".75"/>
      <polyline points="283.66 294.52 289.89 294.52 289.89 300.78" fill="none" stroke="#fafafa" stroke-miterlimit="10" stroke-width=".75"/>
      <polyline points="273.01 305.12 273.01 311.39 279.24 311.39" fill="none" stroke="#fafafa" stroke-miterlimit="10" stroke-width=".75"/>
      <path d="M434.68,287.22c0,6.45-5.24,11.69-11.71,11.69s-11.69-5.24-11.69-11.69,5.24-11.71,11.69-11.71,11.71,5.24,11.71,11.71Z" fill="none" stroke="#fafafa" stroke-miterlimit="10" stroke-width=".75"/>
      <path d="M54.29,228.46s13.71,43.97,89.45,65.31l-29.79,104.26" fill="none" stroke="#fafafa" stroke-miterlimit="10"/>
      <path d="M143.74,213.78s.03.1.1.28c1.37,3.97,16.93,50.57-.1,79.71,0,0,28.49-3.31,28.56-42.12.01-8.34-1.28-18.31-4.45-30.24,0,0,26.7,62.85,63.56,79.38,0,0,38.35-18.9,49.59-61.56" fill="none" stroke="#fafafa" stroke-miterlimit="10"/>
      <path d="M301.4,224.17s43.52,38.28,25.46,143.57c-1.41,8.18-6.35,15.52-13.74,19.31-4.63,2.38-10.44,3.62-17.13,1.5" fill="none" stroke="#fafafa" stroke-miterlimit="10"/>
      <path d="M212.6,167.92c.05-.58.07-1.16.07-1.75,0-9.01-6.11-16.31-13.65-16.31s-13.66,7.3-13.66,16.31c0,.59.02,1.17.07,1.75" fill="none" stroke="#415eef" stroke-linecap="round" stroke-miterlimit="10" stroke-width="6"/>
      <path d="M286.94,167.92c.05-.58.07-1.16.07-1.75,0-9.01-6.11-16.31-13.65-16.31s-13.66,7.3-13.66,16.31c0,.59.02,1.17.07,1.75" fill="none" stroke="#415eef" stroke-linecap="round" stroke-miterlimit="10" stroke-width="6"/>
      <path d="M172.31,251.64h-.01" fill="none" stroke="#231f20" stroke-miterlimit="10"/>
      <path d="M283.89,161.29c.57.82.95,1.74,1.45,2.6.65,1.13,1.58,2.26,2.78,2.84,1.52.73,3.14.86,4.79.49,1.33-.3,2.58-.98,3.73-1.69s1.64-2.27.9-3.42-2.23-1.63-3.42-.9c-.44.27-.88.53-1.33.76-.12.06-.24.12-.36.18-.41.2.37-.13.08-.03-.23.08-.45.16-.69.22-.13.03-.25.06-.38.09-.5.1.04-.07.13-.01-.08-.06-.64.01-.77,0-.36-.01.12-.01.21.03-.09-.05-.27-.06-.37-.09-.45-.13.03-.05.1.07-.03-.07-.27-.14-.34-.18-.08-.05-.35-.25-.03,0,.34.27.02.01-.05-.05-.05-.05-.46-.4-.44-.48,0,0,.36.5.16.19-.06-.09-.12-.18-.18-.28-.12-.19-.23-.38-.34-.58-.42-.77-.78-1.58-1.29-2.31-.74-1.07-2.23-1.67-3.42-.9-1.07.69-1.69,2.27-.9,3.42h0Z" fill="#415eef"/>
      <path d="M293,162.07c-.09.07-.17.14-.26.21l.51-.39c-.69.53-1.43.96-2.23,1.31l.6-.25c-.87.36-1.77.61-2.71.74l.66-.09c-.52.06-1.05.09-1.57.08-1.31-.03-2.56,1.17-2.5,2.5s1.1,2.46,2.5,2.5,2.95-.18,4.31-.66c1.58-.55,2.94-1.35,4.22-2.41.47-.38.73-1.19.73-1.77,0-.61-.27-1.35-.73-1.77s-1.1-.76-1.77-.73-1.23.29-1.77.73h0Z" fill="#415eef"/>
      <path d="M184.19,158.5c-.49.71-.85,1.49-1.25,2.25-.11.2-.22.39-.33.58-.13.21-.58.71-.06.14-.13.14-.25.3-.39.43-.07.07-.15.17-.24.22.15-.08.47-.33.12-.12-.09.05-.18.09-.27.15-.25.14.52-.14.1-.06-.12.02-.25.06-.37.09-.27.09.64-.03.13-.02-.23,0-.46,0-.7,0-.31,0,.57.12.13.02-.13-.03-.25-.05-.38-.08-.23-.06-.46-.14-.69-.22-.51-.17.36.18.08.04-.12-.06-.24-.11-.36-.17-.48-.24-.95-.52-1.4-.8-1.11-.69-2.8-.28-3.42.9s-.29,2.68.9,3.42,2.35,1.37,3.66,1.68c1.66.39,3.32.27,4.86-.48,1.18-.57,2.09-1.67,2.74-2.78.51-.88.9-1.82,1.48-2.66.74-1.08.24-2.82-.9-3.42-1.27-.67-2.63-.26-3.42.9h0Z" fill="#415eef"/>
      <path d="M175.86,165.34c1.29,1.06,2.64,1.85,4.22,2.41,1.37.48,2.87.7,4.31.66,1.31-.03,2.56-1.13,2.5-2.5s-1.1-2.54-2.5-2.5c-.53.01-1.05-.01-1.57-.08l.66.09c-.93-.13-1.84-.37-2.71-.74l.6.25c-.79-.34-1.54-.78-2.23-1.31l.51.39c-.09-.07-.18-.14-.26-.21-.53-.43-1.06-.73-1.77-.73-.61,0-1.35.27-1.77.73s-.76,1.1-.73,1.77c.03.63.23,1.35.73,1.77h0Z" fill="#415eef"/>
    </g>
  </g>
  <g>
    <line x1="77.71" y1="94.15" x2="77.7" y2="94.15" fill="none" stroke="#fafafa" stroke-miterlimit="10"/>
    <path d="M59.26,86.62s-.02-.02-.02-.02c-.09,2.64-.56,4.61-1.01,6.62-.96,4.33-2.09,8.63-3.24,12.91-3.46,12.95-7.19,25.82-11.01,38.66" fill="none" stroke="#fafafa" stroke-miterlimit="10"/>
    <path d="M26.93,200.93c-2.17,6.76-4.41,13.5-6.79,20.18-6.28,17.7-12.83,35.32-19.48,52.89-1.23,3.28,4.82,9.7,6.99,11.54,5.52,4.7,12.75,6.92,19.94,6.63,2.53-.11,8.98-.19,9.18-3.79.33-5.91,22.29-75.13,22.29-75.13.73-2.27,1.52-4.68,2.41-7.2,1.08-3.14,2.29-6.48,3.58-9.93.39-1.04.8-2.11,1.2-3.17,1.27-3.34,2.61-6.77,3.99-10.25,14.32-35.94,33.79-77.8,33.79-77.8h-.02l-8.05-3.31h-.02l-.17-.08h0" fill="none" stroke="#fafafa" stroke-miterlimit="10"/>
    <path d="M104.03,104.89h-.01s-.01.01-.01.01l-8.05-3.31-3.02,6.35c-.58.03-1.14.05-1.7.05-.34,0-.68-.01-1.01-.02-.18-.01-.36-.01-.54-.03-.45-.02-.88-.05-1.31-.11-.4-.04-.8-.1-1.2-.17-2.03-.31-3.97-.84-5.82-1.56-.34-.13-.68-.27-1.01-.4-.33-.14-.66-.29-.99-.44-1.63-.76-3.17-1.63-4.63-2.58h0c-.05-.03-.1-.06-.14-.1-1.12-.73-2.18-1.51-3.2-2.32-.2-.16-.4-.32-.6-.49-.2-.16-.39-.32-.59-.49-.69-.59-1.36-1.18-1.99-1.79-.23-.21-.46-.43-.67-.65-.24-.23-.48-.47-.7-.7-.22-.22-.44-.45-.65-.67-2.61-2.74-4.54-5.3-5.69-6.97-.13-.18-.23-.35-.34-.5-.52-.78-.83-1.28-.88-1.38-.02-.01-.02-.02-.02-.02,11.66-14.42,29.37-7.15,29.37-7.15,20.1,8.29,15.41,25.43,15.41,25.43Z" fill="none" stroke="#fafafa" stroke-miterlimit="10"/>
    <path d="M98.18,96.06c-.03.4-.09.8-.17,1.21l-2.06,4.31-3.02,6.35c-.58.03-1.14.05-1.7.05-.34,0-.68-.01-1.01-.02-.18-.01-.36-.01-.54-.03-.45-.02-.88-.05-1.31-.11-.4-.04-.81-.1-1.2-.17-2.03-.31-3.97-.84-5.82-1.56-.34-.13-.68-.27-1.01-.4-.33-.14-.66-.29-.99-.44-1.63-.76-3.17-1.63-4.63-2.58-.04-.03-.1-.06-.14-.1-1.12-.73-2.18-1.51-3.2-2.32-.2-.16-.4-.32-.6-.49-.2-.16-.39-.32-.59-.49-.69-.59-1.36-1.18-1.99-1.79-.23-.21-.46-.43-.67-.65-.24-.23-.48-.47-.7-.7-.22-.22-.44-.45-.65-.67-2.61-2.74-4.54-5.3-5.69-6.97-.13-.18-.23-.34-.34-.5-.52-.78-.83-1.28-.88-1.38-.02-.01-.02-.02-.02-.02,0,0,16.48-12,29.99-5.07,0,0,9.64,6.27,8.95,14.53Z" fill="none" stroke="#fafafa" stroke-miterlimit="10"/>
    <path d="M85.91,95.69l3.17-7.22c-8.03-4.29-9.31-.21-9.31-.21l-2.07,5.89-1.96,5.57" fill="none" stroke="#fafafa" stroke-miterlimit="10"/>
    <path d="M92.93,107.94c-6.98.45-13.14-1.94-18.22-5.25h0s5.08-14.44,5.08-14.44c5.14,13.17,18.4,7.81,18.4,7.81l-5.25,11.88Z" fill="none" stroke="#fafafa" stroke-miterlimit="10"/>
  </g>
  <path d="M67.41,182.74c-6,15.66-23.32,22.37-36.76,19.31-18.86-4.29-6.96-17.75-.96-33.41,6-15.66,9.84-28.22,22.69-23.3,12.85,4.92,21.03,21.74,15.03,37.4Z" fill="none" stroke="#fafafa" stroke-miterlimit="10"/>
  <path d="M253.25,41.97c53.19.61,69.87,28.92,73.55,37,.8,1.76,1.62,3.51,2.47,5.26,14.02,28.92,10.52,65.64,10.52,65.64.78,62.97-36.44,64.59-45.26,64.09-.49-.03-.61-.69-.17-.89,5.64-2.58,13.83-14.11,16.94-35.17,3.44-23.3-10.66-56.87-14.01-61.65-.12-.17-.39-.08-.39.13.02,15.16,6.19,31.07,8.36,36.19.34.8-.25,1.69-1.12,1.69h0c-7.94,0-15.78-2.14-22.42-6.49-16.84-11.04-21.53-29.03-21.98-30.9,0-.03-.05-.03-.05,0-1.16,11.07,2.1,25.24,3.05,29.05.09.37-.32.64-.64.44-13.73-9.05-15.95-42.48-16.09-44.71,0-.04-.05-.04-.07-.01-6.01,9.92-1.66,30.57-.31,36.24.13.54-.48.95-.94.64-17.43-11.85-15.43-44.04-14.81-50.76.04-.45-.49-.72-.82-.42-4.51,4.05-23.48,22.8-21.93,50.23,0,0-24.01,5.17-11.42-43.3.02-.09-.07-.16-.14-.11-3.35,2.39-45.87,33.95-22.76,80.17.23.45-.19.95-.67.8-5.23-1.72-24.8-10.31-22.28-42.03,0-.04-.05-.06-.06-.02-.92,5.71-6.52,45,11.63,60.93,19.6,17.19,17.52,13.34,17.52,13.34,0,0-54.37,13.93-43.93-75.85" fill="none" stroke="#fafafa" stroke-miterlimit="10" stroke-width="1.25"/>
  <path d="M113.22,200.49l.05-15.38c-.15-36.75,11.29-67.01,22.3-87.59" fill="none" stroke="#fafafa" stroke-miterlimit="10" stroke-width="1.25"/>
  <path d="M112.96,282.52l-.02,4.69s1.06,18.24-21.16,13.18c0,0-4.64,26.88,18.22,29.16,11.78,1.17,18.06-7.32,21.39-15.84,2.03-9.17,3.64-16.04,3.64-16.04,0,0-.51,8.03-3.64,16.04-3.06,13.85-7.07,32.95-7.93,41.62-1.43,14.42-1.24,13.75-1.24,13.75" fill="none" stroke="#fafafa" stroke-miterlimit="10" stroke-width="1.25"/>
  <path d="M156.37,66.82s-5.14,5.68-11,14.4" fill="none" stroke="#fafafa" stroke-miterlimit="10" stroke-width="1.25"/>
  <path d="M337.93,173.51s-1.26,105,26.29,129.45c0,0-20.89,22.95-29.78-9.19,0,0,18.83,39.42-6.14,66.53" fill="none" stroke="#fafafa" stroke-miterlimit="10" stroke-width="1.25"/>
  <path d="M281.45,238.51s-1.36,42.33,15.32,53.74" fill="none" stroke="#fafafa" stroke-miterlimit="10"/>
  <path d="M240.25,316.13c.2,4.21-3.03,7.78-7.21,7.98s-7.72-3.06-7.91-7.28,2.84-15.85,7.01-16.04,7.91,11.13,8.11,15.34Z" fill="url(#student-female-dark-4)" stroke="#fafafa" stroke-miterlimit="10"/>
  <circle cx="229.9" cy="319.21" r="1.57" fill="#fff"/>
  <path d="M205.31,197.68c-.64,0-1.16.54-1.14,1.18.61,17.24,14.53,31.02,31.61,31.02s31.01-13.78,31.62-31.02c.02-.65-.5-1.18-1.14-1.18h-60.95Z" fill="none" stroke="#fafafa" stroke-miterlimit="10"/>
</svg>