<svg width="100%" height="100%" viewBox="0 0 16 16" fill="none" xmlns="http://www.w3.org/2000/svg">
  <path
    d="M7.99935 12.3346C10.3926 12.3346 12.3327 10.3945 12.3327 8.0013C12.3327 5.60807 10.3926 3.66797 7.99935 3.66797C5.60612 3.66797 3.66602 5.60807 3.66602 8.0013C3.66602 10.3945 5.60612 12.3346 7.99935 12.3346Z"
    stroke="#292D32" stroke-linecap="round" stroke-linejoin="round" />
  <path
    d="M12.7606 12.7587L12.674 12.672M12.674 3.32536L12.7606 3.2387L12.674 3.32536ZM3.24065 12.7587L3.32732 12.672L3.24065 12.7587ZM8.00065 1.38536V1.33203V1.38536ZM8.00065 14.6654V14.612V14.6654ZM1.38732 7.9987H1.33398H1.38732ZM14.6673 7.9987H14.614H14.6673ZM3.32732 3.32536L3.24065 3.2387L3.32732 3.32536Z"
    stroke="#292D32" stroke-width="1.5" stroke-linecap="round" stroke-linejoin="round" />
</svg>