<svg width="100%" height="100%" viewBox="0 0 60 50" fill="none" xmlns="http://www.w3.org/2000/svg">
  <path fill-rule="evenodd" clip-rule="evenodd"
    d="M4.12469 21.5942C20.2308 14.6792 30.9707 10.1203 36.3444 7.91775C51.6876 1.6289 54.8757 0.536458 56.9537 0.500385C57.4108 0.492451 58.4327 0.604069 59.0946 1.13337C59.6536 1.58031 59.8074 2.18405 59.8809 2.6078C59.9545 3.03154 60.0462 3.99684 59.9733 4.7511C59.1419 13.3601 55.5442 34.2517 53.7139 43.8939C52.9395 47.9739 51.4145 49.3418 49.9382 49.4757C46.7298 49.7667 44.2935 47.3863 41.186 45.3789C36.3234 42.2378 33.5764 40.2825 28.8564 37.2173C23.4016 33.675 26.9377 31.7281 30.0463 28.5464C30.8599 27.7137 44.9961 15.0428 45.2697 13.8934C45.304 13.7496 45.3357 13.2138 45.0127 12.9308C44.6896 12.6478 44.2128 12.7446 43.8688 12.8216C43.3811 12.9306 35.613 17.9903 20.5646 28.0006C18.3597 29.4926 16.3625 30.2196 14.5731 30.1815C12.6004 30.1395 8.80583 29.0823 5.98493 28.1787C2.52498 27.0704 -0.224919 26.4844 0.0145356 24.6022C0.139258 23.6217 1.50931 22.6191 4.12469 21.5942Z"
    fill="#666" />
</svg>