<svg width="40" height="33" viewBox="0 0 40 33" fill="none" xmlns="http://www.w3.org/2000/svg">
<path fill-rule="evenodd" clip-rule="evenodd" d="M3.18105 14.2758C13.65 9.75985 20.631 6.78267 24.1239 5.34424C34.0969 1.23724 36.1692 0.523809 37.5199 0.500251C37.817 0.49507 38.4812 0.567964 38.9115 0.913632C39.2748 1.20551 39.3748 1.59979 39.4226 1.87652C39.4704 2.15325 39.53 2.78365 39.4827 3.27623C38.9422 8.8984 36.6037 22.5419 35.414 28.8389C34.9106 31.5033 33.9194 32.3967 32.9598 32.4841C30.8744 32.6741 29.2908 31.1196 27.2709 29.8087C24.1102 27.7573 22.3246 26.4804 19.2566 24.4787C15.711 22.1653 18.0095 20.8939 20.0301 18.816C20.5589 18.2722 29.7475 9.99735 29.9253 9.24669C29.9476 9.15281 29.9682 8.80286 29.7582 8.61807C29.5483 8.43329 29.2383 8.49648 29.0147 8.54673C28.6977 8.61797 23.6485 11.9222 13.867 18.4596C12.4338 19.4339 11.1356 19.9087 9.97251 19.8838C8.69028 19.8564 6.22379 19.166 4.3902 18.5759C2.14124 17.8521 0.353803 17.4694 0.509448 16.2402C0.590518 15.5999 1.48105 14.9451 3.18105 14.2758Z" fill="#F2F2F2"/>
</svg>
