<svg width="65" height="28" viewBox="0 0 65 28" fill="none"
    xmlns="http://www.w3.org/2000/svg">
    <rect x="0.85" y="1.35" width="63.3" height="25.3" rx="12.65" fill="#A2D1FD" stroke="url(#paint0_linear_1684_31450)" stroke-width="1.3"/>
    <mask id="mask0_1684_31450" style="mask-type:alpha" maskUnits="userSpaceOnUse" x="1" y="2" width="63" height="24">
        <rect x="1.5" y="2" width="62" height="24" rx="12" fill="#E0FDFF"/>
    </mask>
    <g mask="url(#mask0_1684_31450)">
        <g filter="url(#filter0_i_1684_31450)">
            <rect x="1.5" y="2" width="62" height="24" rx="12" fill="#A2D1FD"/>
        </g>
        <g opacity="0.95">
            <ellipse cx="5.00784" cy="5.03986" rx="5.00784" ry="5.03986" transform="matrix(0.997721 -0.0674727 0.0666143 0.997779 30.0098 19.0356)" fill="white"/>
            <ellipse cx="5.00784" cy="5.03986" rx="5.00784" ry="5.03986" transform="matrix(0.997721 -0.0674727 0.0666143 0.997779 36.957 15.6793)" fill="white"/>
            <ellipse cx="5.00784" cy="5.03986" rx="5.00784" ry="5.03986" transform="matrix(0.997721 -0.0674727 0.0666143 0.997779 37.3398 21.4264)" fill="white"/>
            <ellipse cx="5.00784" cy="5.03986" rx="5.00784" ry="5.03986" transform="matrix(0.997721 -0.0674727 0.0666143 0.997779 43.2383 16.6978)" fill="white"/>
            <ellipse cx="5.00784" cy="5.03986" rx="5.00784" ry="5.03986" transform="matrix(0.997721 -0.0674727 0.0666143 0.997779 45.9375 21.3261)" fill="white"/>
            <ellipse cx="5.00784" cy="5.03986" rx="5.00784" ry="5.03986" transform="matrix(0.997721 -0.0674727 0.0666143 0.997779 50.9473 17.6196)" fill="white"/>
        </g>
        <g opacity="0.95">
            <ellipse cx="5.00784" cy="5.03986" rx="5.00784" ry="5.03986" transform="matrix(0.997721 -0.0674727 0.0666143 0.997779 5.0293 23.5612)" fill="white"/>
            <ellipse cx="5.00784" cy="5.03986" rx="5.00784" ry="5.03986" transform="matrix(0.997721 -0.0674727 0.0666143 0.997779 11.9746 20.2046)" fill="white"/>
            <ellipse cx="5.00784" cy="5.03986" rx="5.00784" ry="5.03986" transform="matrix(0.997721 -0.0674727 0.0666143 0.997779 12.3594 25.9516)" fill="white"/>
            <ellipse cx="5.00784" cy="5.03986" rx="5.00784" ry="5.03986" transform="matrix(0.997721 -0.0674727 0.0666143 0.997779 18.2578 21.223)" fill="white"/>
            <ellipse cx="5.00784" cy="5.03986" rx="5.00784" ry="5.03986" transform="matrix(0.997721 -0.0674727 0.0666143 0.997779 20.957 25.8513)" fill="white"/>
            <ellipse cx="5.00784" cy="5.03986" rx="5.00784" ry="5.03986" transform="matrix(0.997721 -0.0674727 0.0666143 0.997779 25.9668 22.1449)" fill="white"/>
        </g>
        <g opacity="0.6">
            <ellipse cx="5.00784" cy="5.03986" rx="5.00784" ry="5.03986" transform="matrix(0.997721 -0.0674727 0.0666143 0.997779 34.3535 12.5201)" fill="white"/>
            <ellipse cx="5.00784" cy="5.03986" rx="5.00784" ry="5.03986" transform="matrix(0.997721 -0.0674727 0.0666143 0.997779 41.2988 9.16373)" fill="white"/>
            <ellipse cx="5.00784" cy="5.03986" rx="5.00784" ry="5.03986" transform="matrix(0.997721 -0.0674727 0.0666143 0.997779 41.6836 14.9108)" fill="white"/>
            <ellipse cx="5.00784" cy="5.03986" rx="5.00784" ry="5.03986" transform="matrix(0.997721 -0.0674727 0.0666143 0.997779 47.582 10.1821)" fill="white"/>
            <ellipse cx="5.00784" cy="5.03986" rx="5.00784" ry="5.03986" transform="matrix(0.997721 -0.0674727 0.0666143 0.997779 50.2812 14.8105)" fill="white"/>
            <ellipse cx="5.00784" cy="5.03986" rx="5.00784" ry="5.03986" transform="matrix(0.997721 -0.0674727 0.0666143 0.997779 55.291 11.1041)" fill="white"/>
        </g>
        <g opacity="0.6">
            <ellipse cx="5.00784" cy="5.03985" rx="5.00784" ry="5.03985" transform="matrix(0.996757 -0.080609 0.0795837 0.996817 13.1348 20.614)" fill="white"/>
            <ellipse cx="5.00784" cy="5.03985" rx="5.00784" ry="5.03985" transform="matrix(0.996757 -0.080609 0.0795837 0.996817 20.0371 17.1665)" fill="white"/>
            <ellipse cx="5.00784" cy="5.03985" rx="5.00784" ry="5.03985" transform="matrix(0.996757 -0.080609 0.0795837 0.996817 20.4961 22.908)" fill="white"/>
            <ellipse cx="5.00784" cy="5.03985" rx="5.00784" ry="5.03985" transform="matrix(0.996757 -0.080609 0.0795837 0.996817 26.332 18.1021)" fill="white"/>
            <ellipse cx="5.00784" cy="5.03985" rx="5.00784" ry="5.03985" transform="matrix(0.996757 -0.080609 0.0795837 0.996817 29.0898 22.6945)" fill="white"/>
            <ellipse cx="5.00784" cy="5.03985" rx="5.00784" ry="5.03985" transform="matrix(0.996757 -0.080609 0.0795837 0.996817 34.0527 18.9223)" fill="white"/>
        </g>
    </g>
    <defs>
        <filter id="filter0_i_1684_31450" x="1.5" y="2" width="62" height="31.8" filterUnits="userSpaceOnUse" color-interpolation-filters="sRGB">
            <feFlood flood-opacity="0" result="BackgroundImageFix"/>
            <feBlend mode="normal" in="SourceGraphic" in2="BackgroundImageFix" result="shape"/>
            <feColorMatrix in="SourceAlpha" type="matrix" values="0 0 0 0 0 0 0 0 0 0 0 0 0 0 0 0 0 0 127 0" result="hardAlpha"/>
            <feOffset dy="7.8"/>
            <feGaussianBlur stdDeviation="5.85"/>
            <feComposite in2="hardAlpha" operator="arithmetic" k2="-1" k3="1"/>
            <feColorMatrix type="matrix" values="0 0 0 0 0.445833 0 0 0 0 0.734 0 0 0 0 1 0 0 0 1 0"/>
            <feBlend mode="normal" in2="shape" result="effect1_innerShadow_1684_31450"/>
        </filter>
        <linearGradient id="paint0_linear_1684_31450" x1="33.2154" y1="-3.76" x2="33.4569" y2="33.44" gradientUnits="userSpaceOnUse">
            <stop offset="0.125" stop-color="#6CB8FF"/>
            <stop offset="1" stop-color="white" stop-opacity="0"/>
        </linearGradient>
    </defs>
</svg>
