<svg width="24" height="28" viewBox="0 0 24 28" fill="none" xmlns="http://www.w3.org/2000/svg">
    <path fill-rule="evenodd" clip-rule="evenodd"
        d="M12 27.3346C18.4482 27.3346 23.6756 22.1563 23.6756 15.7684C23.6756 9.38059 18.4482 4.20222 12 4.20222C5.55177 4.20222 0.324451 9.38059 0.324451 15.7684C0.324451 22.1563 5.55177 27.3346 12 27.3346ZM12 9.66404C12.5374 9.66404 12.973 10.0956 12.973 10.6279V15.3692L15.9312 18.2997C16.3112 18.6761 16.3112 19.2864 15.9312 19.6628C15.5512 20.0392 14.9352 20.0392 14.5552 19.6628L11.312 16.45C11.1295 16.2692 11.027 16.0241 11.027 15.7684V10.6279C11.027 10.0956 11.4626 9.66404 12 9.66404Z"
        fill="#F2F2F2" />
    <path fill-rule="evenodd" clip-rule="evenodd"
        d="M6.98733 1.12111C7.27212 1.57252 7.1336 2.16717 6.67792 2.44929L1.48876 5.66213C1.03308 5.94426 0.432816 5.80703 0.148021 5.35562C-0.136774 4.90421 0.00175116 4.30957 0.457426 4.02744L5.64659 0.814603C6.10226 0.532476 6.70253 0.669704 6.98733 1.12111Z"
        fill="#F2F2F2" />
    <path fill-rule="evenodd" clip-rule="evenodd"
        d="M17.0127 1.12111C17.2975 0.669702 17.8978 0.532476 18.3534 0.814605L23.5426 4.02744C23.9983 4.30957 24.1368 4.90422 23.852 5.35562C23.5672 5.80703 22.9669 5.94426 22.5112 5.66213L17.3221 2.44929C16.8664 2.16716 16.7279 1.57252 17.0127 1.12111Z"
        fill="#F2F2F2" />
</svg>