<?xml version="1.0" encoding="UTF-8"?>
<svg id="Layer_1"
  xmlns="http://www.w3.org/2000/svg"
  xmlns:xlink="http://www.w3.org/1999/xlink" viewBox="0 0 414.02 434.22">
  <defs>
    <linearGradient id="tutor-female-dark" x1="118.78" y1="127.43" x2="145.64" y2="127.43" gradientUnits="userSpaceOnUse">
      <stop offset="0" stop-color="blue"/>
      <stop offset="1" stop-color="#008dd4"/>
    </linearGradient>
    <linearGradient id="tutor-female-dark-2" x1="187.39" x2="214.25" xlink:href="#tutor-female-dark"/>
  </defs>
  <polygon points="25.33 406.24 22.62 386.76 3.24 383.41 22.72 380.7 26.08 361.33 28.78 380.81 48.16 384.16 28.68 386.87 25.33 406.24" fill="#455ad6" stroke="#fafafa" stroke-miterlimit="10"/>
  <polygon points="47.78 48.16 45.08 28.68 25.7 25.33 45.18 22.62 48.54 3.24 51.24 22.72 70.62 26.08 51.14 28.78 47.78 48.16" fill="#455ad6" stroke="#fafafa" stroke-miterlimit="10"/>
  <polygon points="375.29 156.68 371.09 126.41 340.98 121.2 371.25 116.99 376.46 86.88 380.67 117.15 410.78 122.37 380.51 126.57 375.29 156.68" fill="#455ad6" stroke="#fafafa" stroke-miterlimit="10"/>
  <g>
    <path d="M159.7,319.76l-.2-4.21-.12-2.46-35.38,20.12c-13.57,7.98-28.96,8.15-39.6,6.87-7.53-.92-14.66-3.83-20.77-8.31l-43.75-32.01c-5.72-4.18-10.54-9.52-13.84-15.78-7.09-13.47-3.99-24.09,1.44-31.63,10.18-14.15,29.33-18.52,45.01-10.92,14.3,6.93,26.39,19.93,34.05,25.88,12.48,9.71,24.27,0,24.27,0,20.34-20.85,32.17-35.91,44.24-43.63.09-.06.16-.1.25-.16,6.13-3.9,10.2-5.91,10.2-5.91" fill="none" stroke="#fafafa" stroke-linecap="round" stroke-miterlimit="10" stroke-width="2"/>
    <path d="M285.17,346.06l3.01,29.23h-111.03l-6.17-63.75-2.43-25.13v-.15s-4.82-49.73-4.82-49.73h110.07l2.18,21.06c-6.3-3.35-11.91-4.63-16.81-4.57-4.02.03-7.57.96-10.67,2.4-13.01,6.01-18.6,21.25-14.4,34.95.22.71.45,1.41.71,2.11.01.09.06.17.09.26.26.7.52,1.4.82,2.08.25.6.51,1.19.77,1.78.1.23.22.47.32.68.23.49.47.98.73,1.46.77,1.53,1.63,3.03,2.53,4.47.35.57.71,1.14,1.09,1.69.04.09.1.16.16.25.77,1.16,1.59,2.3,2.42,3.39.13.16.25.32.38.48.83,1.06,1.66,2.1,2.52,3.09.47.55.93,1.09,1.41,1.62t.01.03c.95,1.03,1.89,2.04,2.85,3,.39.41.79.8,1.19,1.19.55.54,1.11,1.06,1.65,1.56.23.22.47.44.7.64.7.66,1.38,1.27,2.05,1.83.45.39.89.77,1.32,1.12,1.57,1.32,3.04,2.46,4.34,3.44.13.1.28.2.41.31.83.61,1.57,1.15,2.23,1.6,2.23,1.54,4.29,3.26,6.27,5.11,1.09,1.05,2.2,2.05,3.28,3.03.19.16.38.33.57.49.6.52,1.18,1.03,1.76,1.54.71.61,1.41,1.21,2.13,1.79.7.58,1.38,1.15,2.08,1.69,1.43,1.15,2.82,2.24,4.21,3.28v.03l.07.64Z" fill="none" stroke="#fafafa" stroke-linecap="round" stroke-miterlimit="10" stroke-width="2"/>
    <path d="M121.81,173.72c9.2,20.8,23.5,33.73,43.83,43.63.17.09.36.17.54.26,3.83,1.83,9.68,2.88,16.3,3.35,15.2,1.09,34.47-.89,42.68-3.35,0,0,9.43-1.86,20.69-7.76" fill="none" stroke="#fafafa" stroke-linecap="round" stroke-miterlimit="10" stroke-width="2"/>
    <path d="M113.68,136.71c.33,12.91,3.19,25.84,8.12,37.01-5.52-9.97-7.89-22.93-8.12-37.01Z" fill="none" stroke="#fafafa" stroke-linecap="round" stroke-miterlimit="10" stroke-width="2"/>
    <path d="M304.33,187.23h.01c11.14,8.81,27.98,23.54,43.05,42.3,10.07,12.53,19.36,26.87,25.64,42.45,6.8,16.87,8.85,35.45,4.5,53.11-3.26,13.23-8.56,26.28-25.9,34.01,0,0-7.08,4.96-19.96,4.99-11.31.01-27.09-3.76-46.5-18.02-.29-.2-.58-.42-.87-.64v-.03c-1.38-1.03-2.78-2.13-4.21-3.28-.7-.54-1.38-1.11-2.08-1.69-.71-.58-1.41-1.18-2.13-1.79-.58-.51-1.16-1.02-1.76-1.54-.19-.16-.38-.33-.57-.49-3.81-3.38-7.7-6.67-11.78-9.74-.13-.1-.28-.2-.41-.31-1.3-.98-2.77-2.11-4.34-3.44-.44-.35-.87-.73-1.32-1.12-.67-.57-1.35-1.18-2.05-1.83-.23-.19-.47-.41-.7-.64-.54-.49-1.09-1.02-1.65-1.56-.41-.39-.8-.79-1.19-1.19-.96-.96-1.91-1.97-2.85-3t-.01-.03c-.48-.52-.95-1.06-1.41-1.62-.86-.99-1.7-2.02-2.52-3.09-.13-.16-.25-.32-.38-.48-.83-1.09-1.65-2.23-2.42-3.39-.06-.09-.12-.16-.16-.25-.38-.55-.74-1.12-1.09-1.69-.9-1.44-1.76-2.94-2.53-4.47-.25-.48-.49-.96-.73-1.46-.1-.22-.22-.45-.32-.68-.26-.58-.52-1.18-.77-1.78-.29-.68-.55-1.38-.82-2.08-.03-.09-.07-.17-.09-.26-.26-.7-.49-1.4-.71-2.11-4.21-13.7,1.38-28.94,14.4-34.95,3.3-1.53,7.12-2.49,11.47-2.4,4.7.07,10.04,1.4,16.01,4.57,4.12,2.15,8.49,5.21,13.2,9.38h.01c3.78,3.35,7.73,7.32,11.88,12.17l15.39,14.6h.01s13.29,12.62,13.29,12.62" fill="none" stroke="#fafafa" stroke-linecap="round" stroke-miterlimit="10" stroke-width="2"/>
    <polyline points="322.79 300.11 304.72 219.82 302.34 209.85" fill="none" stroke="#fafafa" stroke-linecap="round" stroke-miterlimit="10" stroke-width="2"/>
    <path d="M288.4,266.99c-3.54-32.58,2.94-54.82,8.66-67.37,3.8-8.33,7.26-12.39,7.26-12.39" fill="none" stroke="#fafafa" stroke-linecap="round" stroke-miterlimit="10" stroke-width="2"/>
    <path d="M263.29,236.55c-3.23-10.42,2.62-28.87,2.62-28.87" fill="none" stroke="#fafafa" stroke-linecap="round" stroke-miterlimit="10" stroke-width="2"/>
    <line x1="182.48" y1="220.96" x2="182.48" y2="236.55" fill="none" stroke="#fafafa" stroke-linecap="round" stroke-miterlimit="10" stroke-width="2"/>
    <polyline points="347.32 431.87 347.1 431.87 165.99 431.87 160.79 322.36 160.69 320.2 160.41 314.49 160.37 313.53" fill="none" stroke="#fafafa" stroke-linecap="round" stroke-miterlimit="10" stroke-width="2"/>
    <polyline points="331.67 364.09 347 431.43 347.1 431.87 347.41 433.22" fill="none" stroke="#fafafa" stroke-linecap="round" stroke-miterlimit="10" stroke-width="2"/>
    <path d="M159.71,315.54c.25-.33.48-.68.7-1.05,6.84-10.57,7.37-26.17,7.34-28.07v-.15" fill="none" stroke="#fafafa" stroke-linecap="round" stroke-miterlimit="10" stroke-width="2"/>
    <path d="M115.76,101.45s-2.69,20.76-2.08,35.26" fill="none" stroke="#fafafa" stroke-linecap="round" stroke-miterlimit="10" stroke-width="2"/>
    <line x1="166.18" y1="217.61" x2="166.18" y2="236.55" fill="none" stroke="#fafafa" stroke-linecap="round" stroke-linejoin="round" stroke-width="2"/>
    <path d="M170.2,311.62s-1.43,9.42-9.4,10.74" fill="none" stroke="#fafafa" stroke-linecap="round" stroke-linejoin="round" stroke-width="2"/>
  </g>
  <path d="M263.18,25.7s43.26-40.94,63.14,12.61c1.78,4.79,2.77,9.41,3.87,14.4,11.8,53.49-7.41,157.22,27.04,159.98,0,0,9.09,1.16,10.67-19.01,0,0,20.15,42.17-7.72,51.57" fill="none" stroke="#fafafa" stroke-miterlimit="10" stroke-width="2"/>
  <path d="M103.79,48.71s-48.81,58.71,5.77,95.4c2.58,5.86-6.31-51.25,5.16-63.22,0,0-4.5,52.68,28.76,56.35,0,0,5.12-52.48,17.09-60.36,0,0,2.65,37.79,41.95,61.93,0,0,4.14-47.23,15.68-53.53,0,0-8.43,36.69,18.57,50.8,1.1.58,2.43-.22,2.46-1.46.19-7.8,1.25-30.77,7.31-38.21,0,0-4.85,28.35,12.02,35.29.98.4,2.04-.34,1.95-1.4-.46-5.64-1.29-21.02,2.66-28.22,0,0,5.88,31.98,2.57,62.41-.37,3.37-.88,5.92-1.63,9.23-3.68,16.26-18.95,38-25.35,45.39-.22.25.02.64.34.55,9.4-2.61,76.95-24.46,74.3-112.85,0,0,1.06-70.11-73.49-87.73-4.17-.99-8.29-2.19-12.28-3.75-16.28-6.35-68.95-20.52-123.86,33.39Z" fill="none" stroke="#fafafa" stroke-miterlimit="10" stroke-width="2"/>
  <path d="M132.21,146.09c7.41,0,13.42-6.01,13.42-13.44v-10.45c0-3.7-1.5-7.06-3.93-9.49-2.43-2.43-5.78-3.93-9.49-3.93-7.42,0-13.44,6.01-13.44,13.42v10.45c0,7.42,6.01,13.44,13.44,13.44Z" fill="url(#tutor-female-dark)" stroke="#fafafa" stroke-miterlimit="10"/>
  <circle cx="126.24" cy="117.15" r="3.89" fill="#fff"/>
  <g>
    <path d="M200.81,146.09c7.42,0,13.44-6.01,13.44-13.44v-10.45c0-3.7-1.5-7.06-3.93-9.49-2.43-2.43-5.79-3.93-9.51-3.93-7.41,0-13.42,6.01-13.42,13.42v10.45c0,7.42,6.01,13.44,13.42,13.44Z" fill="url(#tutor-female-dark-2)" stroke="#fafafa" stroke-miterlimit="10"/>
    <circle cx="196.92" cy="118.32" r="3.89" fill="#fff"/>
  </g>
  <path d="M148.09,173.01c-.92,0-1.63.79-1.57,1.7.97,14.14,12.76,25.31,27.16,25.31s26.18-11.16,27.15-25.31c.06-.92-.65-1.7-1.57-1.7h-51.16Z" fill="none" stroke="#fafafa" stroke-miterlimit="10" stroke-width="2"/>
  <circle cx="270.45" cy="22.68" r="11.94" fill="#2daa3b" stroke="#fafafa" stroke-linecap="round" stroke-linejoin="round" stroke-width=".75"/>
  <circle cx="282.39" cy="34.63" r="11.94" fill="#2daa3b" stroke="#fafafa" stroke-linecap="round" stroke-linejoin="round" stroke-width=".75"/>
</svg>