<?xml version="1.0" encoding="UTF-8"?>
<svg id="Layer_1"
  xmlns="http://www.w3.org/2000/svg"
  xmlns:xlink="http://www.w3.org/1999/xlink" viewBox="0 0 414.02 434.22">
  <defs>
    <linearGradient id="tutor-female-light" x1="117.14" y1="-73.69" x2="118.48" y2="437.03" gradientUnits="userSpaceOnUse">
      <stop offset="0" stop-color="#fff"/>
      <stop offset="1" stop-color="#cceaff"/>
    </linearGradient>
    <linearGradient id="tutor-female-light-2" x1="118.78" y1="127.43" x2="145.64" y2="127.43" gradientUnits="userSpaceOnUse">
      <stop offset="0" stop-color="blue"/>
      <stop offset="1" stop-color="#008dd4"/>
    </linearGradient>
    <linearGradient id="tutor-female-light-3" x1="187.39" x2="214.25" xlink:href="#tutor-female-light-2"/>
  </defs>
  <polygon points="25.33 406.24 22.62 386.76 3.24 383.41 22.72 380.7 26.08 361.33 28.78 380.81 48.16 384.16 28.68 386.87 25.33 406.24" fill="#455ad6" stroke="#1e1b1b" stroke-miterlimit="10"/>
  <polygon points="47.78 48.16 45.08 28.68 25.7 25.33 45.18 22.62 48.54 3.24 51.24 22.72 70.62 26.08 51.14 28.78 47.78 48.16" fill="#455ad6" stroke="#1e1b1b" stroke-miterlimit="10"/>
  <polygon points="375.29 156.68 371.09 126.41 340.98 121.2 371.25 116.99 376.46 86.88 380.67 117.15 410.78 122.37 380.51 126.57 375.29 156.68" fill="#455ad6" stroke="#1e1b1b" stroke-miterlimit="10"/>
  <g>
    <path d="M113.68,136.71c.33,12.91,3.19,25.84,8.12,37.01-5.52-9.97-7.89-22.93-8.12-37.01Z" fill="url(#tutor-female-light)"/>
    <g>
      <path d="M263.42,328.07c-.26-.19-.55-.39-.84-.63" fill="none" stroke="#12121e" stroke-linecap="round" stroke-miterlimit="10" stroke-width="2"/>
      <path d="M264.21,328.61c-.23-.16-.47-.32-.71-.49" fill="none" stroke="#12121e" stroke-linecap="round" stroke-miterlimit="10" stroke-width="2"/>
      <path d="M269.81,333.15c-.93-.87-1.86-1.78-2.81-2.71,0,0-1.05-.63-2.8-1.83" fill="none" stroke="#12121e" stroke-linecap="round" stroke-miterlimit="10"/>
      <path d="M271.92,335.12c-.7-.64-1.4-1.3-2.11-1.97" fill="none" stroke="#12121e" stroke-linecap="round" stroke-miterlimit="10" stroke-width="2"/>
      <path d="M293.89,180.18c1.48,1.12,8.6,5.58,10.44,7.05" fill="none" stroke="#12121e" stroke-linecap="round" stroke-miterlimit="10" stroke-width="2"/>
      <path d="M160.14,314.91l-.09-1.82-35.38,20.12c-13.55,7.98-28.96,8.15-39.6,6.87-7.53-.92-14.66-3.83-20.77-8.31l-43.75-32.01c-5.72-4.18-10.54-9.52-13.84-15.78-7.09-13.47-3.97-24.09,1.44-31.63,10.18-14.15,29.33-18.52,45.03-10.92,14.28,6.93,26.38,19.93,34.04,25.88,12.48,9.71,24.27,0,24.27,0,20.35-20.85,32.17-35.91,44.24-43.63.09-.06.16-.1.25-.16,6.13-3.9,10.2-5.91,10.2-5.91" fill="none" stroke="#18171e" stroke-linecap="round" stroke-miterlimit="10" stroke-width="2"/>
      <line x1="160.37" y1="319.76" x2="160.14" y2="314.91" fill="none" stroke="#12121e" stroke-linecap="round" stroke-miterlimit="10" stroke-width="2"/>
      <path d="M261.78,326.86c.28.2.54.39.8.58.29.22.58.42.84.63.03,0,.06.01.07.04.17.12.35.23.51.35.07.04.13.1.2.15,1.98,1.38,3.83,2.91,5.6,4.54.16.13.31.28.47.42.55.52,1.11,1.03,1.65,1.54.55.49,1.09.99,1.63,1.48" fill="none" stroke="#12121e" stroke-linecap="round" stroke-miterlimit="10" stroke-width="2"/>
      <path d="M252.96,319.53c.23.22.47.44.7.64" fill="none" stroke="#12121e" stroke-linecap="round" stroke-miterlimit="10" stroke-width="2"/>
      <path d="M243.32,309.04c.83,1.06,1.66,2.1,2.52,3.09" fill="none" stroke="#12121e" stroke-linecap="round" stroke-miterlimit="10" stroke-width="2"/>
      <path d="M236.01,297.31c.23.49.47.98.73,1.46" fill="none" stroke="#12121e" stroke-linecap="round" stroke-miterlimit="10" stroke-width="2"/>
      <polyline points="170.2 311.62 167.75 286.42 167.74 286.28 162.93 236.55 166.18 236.55 182.48 236.55 263.29 236.55 273 236.55 275.19 257.61" fill="none" stroke="#12121e" stroke-linecap="round" stroke-miterlimit="10" stroke-width="2"/>
      <polyline points="284.3 345.42 287.38 375.3 176.35 375.3 170.2 311.65" fill="none" stroke="#12121e" stroke-linecap="round" stroke-miterlimit="10" stroke-width="2"/>
      <path d="M121.81,173.72c9.29,20.99,23.74,33.96,44.37,43.89,3.83,1.83,9.68,2.88,16.3,3.35,15.2,1.09,34.47-.89,42.68-3.35,0,0,9.43-1.86,20.69-7.76" fill="none" stroke="#18171e" stroke-linecap="round" stroke-miterlimit="10" stroke-width="2"/>
      <path d="M113.68,136.71c.33,12.91,3.19,25.84,8.12,37.01-5.52-9.97-7.89-22.93-8.12-37.01Z" fill="none" stroke="#18171e" stroke-linecap="round" stroke-miterlimit="10" stroke-width="2"/>
      <path d="M304.33,187.23h.01c11.14,8.81,27.98,23.54,43.05,42.3,10.07,12.53,19.36,26.87,25.64,42.45,6.8,16.87,8.85,35.45,4.5,53.11-3.26,13.23-8.56,26.28-25.9,34.01,0,0-7.08,4.96-19.96,4.99-11.49.01-27.57-3.87-47.37-18.66v-.03c-1.38-1.03-2.78-2.13-4.21-3.28-.7-.54-1.38-1.11-2.08-1.69-.71-.58-1.41-1.18-2.13-1.79-.58-.51-1.16-1.02-1.76-1.54-.19-.16-.38-.33-.57-.49-3.81-3.38-7.7-6.67-11.78-9.74-.13-.1-.28-.2-.41-.31-1.3-.98-2.77-2.11-4.34-3.44-.44-.35-.87-.73-1.32-1.12-.67-.57-1.35-1.18-2.05-1.83-.23-.19-.47-.41-.7-.64-.54-.49-1.09-1.02-1.65-1.56-.41-.39-.8-.79-1.19-1.19-.96-.96-1.91-1.97-2.85-3t-.01-.03c-.48-.52-.95-1.06-1.41-1.62-.86-.99-1.7-2.02-2.52-3.09-.13-.16-.25-.32-.38-.48-.83-1.09-1.65-2.23-2.42-3.39-.06-.09-.12-.16-.16-.25-.38-.55-.74-1.12-1.09-1.69-.9-1.44-1.76-2.94-2.53-4.47-.25-.48-.49-.96-.73-1.46-.1-.22-.22-.45-.32-.68-.26-.58-.52-1.18-.77-1.78-.29-.68-.55-1.38-.82-2.08-.03-.09-.07-.17-.09-.26-.26-.7-.49-1.4-.71-2.11-4.21-13.7,1.38-28.94,14.4-34.95,6.87-3.17,16.01-3.93,27.48,2.17,4.12,2.15,8.49,5.21,13.2,9.38h.01c3.78,3.35,7.73,7.32,11.88,12.17l15.39,14.6h.01s13.29,12.62,13.29,12.62" fill="none" stroke="#12121e" stroke-linecap="round" stroke-miterlimit="10" stroke-width="2"/>
      <polyline points="322.79 300.11 304.72 219.82 302.34 209.85" fill="none" stroke="#12121e" stroke-linecap="round" stroke-miterlimit="10" stroke-width="2"/>
      <path d="M288.4,266.99c-3.54-32.58,2.94-54.82,8.66-67.37,3.8-8.33,7.26-12.39,7.26-12.39" fill="none" stroke="#12121e" stroke-linecap="round" stroke-miterlimit="10" stroke-width="2"/>
      <path d="M263.29,236.55c-3.23-10.42,2.62-28.87,2.62-28.87" fill="none" stroke="#12121e" stroke-linecap="round" stroke-miterlimit="10" stroke-width="2"/>
      <line x1="182.48" y1="220.96" x2="182.48" y2="236.55" fill="none" stroke="#12121e" stroke-linecap="round" stroke-miterlimit="10" stroke-width="2"/>
      <polyline points="347.32 431.87 347.1 431.87 165.99 431.87 160.79 322.36 160.69 320.2 160.41 314.49 160.37 313.53" fill="none" stroke="#12121e" stroke-linecap="round" stroke-miterlimit="10" stroke-width="2"/>
      <polyline points="331.67 364.09 347 431.43 347.1 431.87 347.41 433.22" fill="none" stroke="#12121e" stroke-linecap="round" stroke-miterlimit="10" stroke-width="2"/>
      <path d="M159.71,315.54c.15-.2.29-.42.42-.63.1-.13.19-.28.28-.42,6.84-10.57,7.37-26.17,7.34-28.07v-.15" fill="none" stroke="#12121e" stroke-linecap="round" stroke-miterlimit="10" stroke-width="2"/>
      <path d="M115.76,101.45s-2.69,20.76-2.08,35.26" fill="none" stroke="#18171e" stroke-linecap="round" stroke-miterlimit="10" stroke-width="2"/>
      <line x1="166.18" y1="217.61" x2="166.18" y2="236.55" fill="none" stroke="#000" stroke-linecap="round" stroke-linejoin="round" stroke-width="2"/>
      <path d="M170.2,311.62v.03c-.1.58-1.69,9.43-9.4,10.71" fill="none" stroke="#000" stroke-linecap="round" stroke-linejoin="round" stroke-width="2"/>
    </g>
  </g>
  <path d="M263.18,25.7s43.26-40.94,63.14,12.61c1.78,4.79,2.77,9.41,3.87,14.4,11.8,53.49-7.41,157.22,27.04,159.98,0,0,9.09,1.16,10.67-19.01,0,0,20.15,42.17-7.72,51.57" fill="none" stroke="#231f20" stroke-miterlimit="10" stroke-width="2"/>
  <path d="M103.79,48.71s-48.81,58.71,5.77,95.4c2.58,5.86-6.31-51.25,5.16-63.22,0,0-4.5,52.68,28.76,56.35,0,0,5.12-52.48,17.09-60.36,0,0,2.65,37.79,41.95,61.93,0,0,4.14-47.23,15.68-53.53,0,0-8.43,36.69,18.57,50.8,1.1.58,2.43-.22,2.46-1.46.19-7.8,1.25-30.77,7.31-38.21,0,0-4.85,28.35,12.02,35.29.98.4,2.04-.34,1.95-1.4-.46-5.64-1.29-21.02,2.66-28.22,0,0,5.88,31.98,2.57,62.41-.37,3.37-.88,5.92-1.63,9.23-3.68,16.26-18.95,38-25.35,45.39-.22.25.02.64.34.55,9.4-2.61,76.95-24.46,74.3-112.85,0,0,1.06-70.11-73.49-87.73-4.17-.99-8.29-2.19-12.28-3.75-16.28-6.35-68.95-20.52-123.86,33.39Z" fill="none" stroke="#231f20" stroke-miterlimit="10" stroke-width="2"/>
  <path d="M132.21,146.09c7.41,0,13.42-6.01,13.42-13.44v-10.45c0-3.7-1.5-7.06-3.93-9.49-2.43-2.43-5.78-3.93-9.49-3.93-7.42,0-13.44,6.01-13.44,13.42v10.45c0,7.42,6.01,13.44,13.44,13.44Z" fill="url(#tutor-female-light-2)" stroke="#171717" stroke-miterlimit="10"/>
  <circle cx="126.24" cy="117.15" r="3.89" fill="#fff"/>
  <g>
    <path d="M200.81,146.09c7.42,0,13.44-6.01,13.44-13.44v-10.45c0-3.7-1.5-7.06-3.93-9.49-2.43-2.43-5.79-3.93-9.51-3.93-7.41,0-13.42,6.01-13.42,13.42v10.45c0,7.42,6.01,13.44,13.42,13.44Z" fill="url(#tutor-female-light-3)" stroke="#171717" stroke-miterlimit="10"/>
    <circle cx="196.92" cy="118.32" r="3.89" fill="#fff"/>
  </g>
  <path d="M148.09,173.01c-.92,0-1.63.79-1.57,1.7.97,14.14,12.76,25.31,27.16,25.31s26.18-11.16,27.15-25.31c.06-.92-.65-1.7-1.57-1.7h-51.16Z" fill="none" stroke="#231f20" stroke-miterlimit="10" stroke-width="2"/>
  <circle cx="270.45" cy="22.68" r="11.94" fill="#2daa3b" stroke="#000" stroke-linecap="round" stroke-linejoin="round" stroke-width=".75"/>
  <circle cx="282.39" cy="34.63" r="11.94" fill="#2daa3b" stroke="#000" stroke-linecap="round" stroke-linejoin="round" stroke-width=".75"/>
</svg>