<?xml version="1.0" encoding="UTF-8"?>
<svg id="Layer_1"
  xmlns="http://www.w3.org/2000/svg" viewBox="0 0 454.96 488.19">
  <g>
    <g>
      <path d="M314.33,27.6c7.45,0,13.48,6.03,13.48,13.48s-6.03,13.49-13.48,13.49-13.49-6.03-13.49-13.49,6.05-13.48,13.49-13.48Z" style="fill: #249b2c;"/>
      <path d="M242.42,135.33v11.8c0,8.38-6.79,15.17-15.17,15.17s-15.16-6.79-15.16-15.17v-11.8c0-8.37,6.79-15.16,15.16-15.16,4.19,0,7.99,1.69,10.73,4.44s4.44,6.54,4.44,10.72Z" style="fill: #439cbf;"/>
      <path d="M160.6,135.33v11.8c0,8.38-6.79,15.17-15.16,15.17s-15.17-6.79-15.17-15.17v-11.8c0-8.37,6.79-15.16,15.17-15.16,4.19,0,7.97,1.69,10.72,4.44s4.44,6.54,4.44,10.72Z" style="fill: #439cbf;"/>
    </g>
    <g>
      <path d="M296.47,368.82c-.16-.12-.35-.25-.53-.38" style="fill: none; stroke: #fafafa; stroke-miterlimit: 10; stroke-width: 2px;"/>
      <path d="M304.64,375.37c-1.18-1.12-2.38-2.28-3.6-3.47,0,0-1.25-.76-3.34-2.2" style="fill: none; stroke: #fafafa; stroke-miterlimit: 10; stroke-width: 2px;"/>
      <path d="M180.63,359.83l-.26-5.49-.1-2.04-39.94,22.72c-15.32,8.99-32.71,9.2-44.73,7.74-8.48-1.02-16.55-4.31-23.46-9.37l-49.39-36.15c-6.44-4.72-11.88-10.75-15.62-17.82-8-15.2-4.5-27.2,1.63-35.72,11.49-15.98,33.1-20.91,50.82-12.33,16.14,7.81,29.78,22.49,38.45,29.23,14.09,10.96,27.4,0,27.4,0,22.96-23.54,36.33-40.55,49.95-49.26.1-.07.18-.12.28-.18,6.92-4.41,11.52-6.67,11.52-6.67" style="fill: none; stroke: #fafafa; stroke-miterlimit: 10; stroke-width: 2px;"/>
      <path d="M295.13,367.85c.28.21.54.41.81.59.18.13.35.25.53.38.41.3.81.58,1.18.84.02.02.03.02.05.03,2.45,1.71,4.75,3.62,6.94,5.67.03.02.05.03.08.07,1.25,1.17,2.48,2.32,3.71,3.42" style="fill: none; stroke: #fafafa; stroke-miterlimit: 10; stroke-width: 2px;"/>
      <path d="M285.17,359.57c.26.25.53.49.79.72" style="fill: none; stroke: #fafafa; stroke-miterlimit: 10; stroke-width: 2px;"/>
      <path d="M274.29,347.74c.94,1.2,1.87,2.37,2.84,3.48" style="fill: none; stroke: #fafafa; stroke-miterlimit: 10; stroke-width: 2px;"/>
      <path d="M266.04,334.49c.26.56.53,1.1.82,1.64" style="fill: none; stroke: #fafafa; stroke-miterlimit: 10; stroke-width: 2px;"/>
      <polyline points="320.56 388.81 324.05 422.54 198.68 422.54 191.73 350.64 188.97 322.19 188.95 322.03 183.53 265.88 187.19 265.88 205.58 265.88 296.84 265.88 307.81 265.88 310.27 289.66" style="fill: none; stroke: #fafafa; stroke-miterlimit: 10; stroke-width: 2px;"/>
      <path d="M336.23,184.68c4.5-11.92,6.95-24.85,6.95-38.36,0-29.6-9.86-56.45-28.03-76.07l-.02-.02c-18.72-20.23-46.24-32.79-80.82-32.79-52.14,0-90.06,30.77-103.54,73.39,9.42-27.06,32.2-45.84,75.73-45.84,61.89,0,81.07,36.41,81.07,81.33s-26.78,74.87-82.89,74.87c-37.81,0-59.16-11.47-69.96-30.85,10.49,23.7,29.18,42.95,52.47,54.16,5.9,2.83,12.1,5.14,18.52,6.89,9.11,2.48,18.71,3.8,28.6,3.8,24.59,0,47.27-8.14,65.49-21.89,11.95-9.01,21.98-20.42,29.37-33.52,2.71-4.82,5.08-9.85,7.05-15.09Z" style="fill: none; stroke: #fafafa; stroke-miterlimit: 10; stroke-width: 2px;"/>
      <path d="M301.55,132.13c0-3.24,2.63-5.85,5.85-5.85h21.71c3.24,0,5.85,2.61,5.85,5.85v28.35c0,3.24-2.61,5.87-5.85,5.87h-21.71c-3.22,0-5.85-2.63-5.85-5.87v-28.35Z" style="fill: none; stroke: #fafafa; stroke-miterlimit: 10; stroke-width: 3px;"/>
      <path d="M130.78,110.83c-3.04,9.63-4.88,27.66-5.31,38.3" style="fill: none; stroke: #fafafa; stroke-miterlimit: 10; stroke-width: 2px;"/>
      <path d="M125.47,149.12c.38,14.58,3.62,28.47,9.19,41.08-6.23-11.26-8.93-25.18-9.19-41.08Z" style="fill: none; stroke: #fafafa; stroke-miterlimit: 10; stroke-width: 2px;"/>
      <path d="M391.8,257.97c11.37,14.15,21.86,30.33,28.95,47.91,7.68,19.05,9.99,40.02,5.08,59.96-3.68,14.94-9.67,29.67-29.24,38.4,0,0-7.99,5.61-22.55,5.64-12.97.02-31.13-4.37-53.47-21.07v-.03c-1.56-1.17-3.14-2.4-4.75-3.7-.79-.61-1.56-1.25-2.35-1.91-.81-.66-1.59-1.33-2.4-2.02-.66-.58-1.31-1.15-1.99-1.74-.21-.18-.43-.38-.64-.56-4.31-3.81-8.7-7.53-13.3-11-.15-.12-.31-.23-.46-.35-1.46-1.1-3.12-2.38-4.9-3.88-.49-.39-.99-.82-1.5-1.27-.76-.64-1.53-1.33-2.32-2.07-.26-.21-.53-.46-.79-.72-.61-.56-1.23-1.15-1.86-1.76-.46-.44-.9-.89-1.35-1.35-1.08-1.08-2.15-2.22-3.22-3.39t-.02-.03c-.54-.59-1.07-1.2-1.59-1.82-.97-1.12-1.92-2.28-2.84-3.48-.15-.18-.28-.36-.43-.54-.94-1.23-1.86-2.51-2.73-3.83-.07-.1-.13-.18-.18-.28-.43-.62-.84-1.27-1.23-1.91-1.02-1.63-1.99-3.32-2.86-5.05-.28-.54-.56-1.08-.82-1.64-.12-.25-.25-.51-.36-.77-.3-.66-.59-1.33-.87-2.01-.33-.77-.62-1.56-.92-2.35-.03-.1-.08-.2-.1-.3-.3-.79-.56-1.58-.81-2.38-4.75-15.47,1.56-32.68,16.26-39.47,7.76-3.58,18.08-4.44,31.03,2.45,4.65,2.43,9.58,5.88,14.91,10.59h.02c4.27,3.78,8.73,8.27,13.41,13.74l17.37,16.49.02.02,15.01,14.23" style="fill: none; stroke: #fafafa; stroke-miterlimit: 10; stroke-width: 2px;"/>
      <path d="M329.16,199.75l.02.02c.35.23,5.79,3.9,14,10.42h.02c12.57,9.94,31.59,26.58,48.6,47.77" style="fill: none; stroke: #fafafa; stroke-miterlimit: 10; stroke-width: 2px;"/>
      <polyline points="364.01 337.64 343.62 246.99 340.93 235.73" style="fill: none; stroke: #fafafa; stroke-miterlimit: 10; stroke-width: 2px;"/>
      <path d="M325.2,300.25c-3.99-36.79,3.32-61.9,9.78-76.07,4.29-9.4,8.2-13.99,8.2-13.99" style="fill: none; stroke: #fafafa; stroke-miterlimit: 10;"/>
      <path d="M296.84,265.88c-3.65-11.77,2.96-32.6,2.96-32.6" style="fill: none; stroke: #fff; stroke-miterlimit: 10;"/>
      <line x1="205.58" y1="251.86" x2="205.58" y2="265.88" style="fill: none; stroke: #fafafa; stroke-miterlimit: 10;"/>
      <polyline points="391.7 486.42 391.46 486.42 186.98 486.42 181.11 362.76 180.99 360.33 180.68 353.87 180.63 352.8" style="fill: none; stroke: #fafafa; stroke-miterlimit: 10; stroke-width: 2px;"/>
      <polyline points="374.03 409.88 391.34 485.92 391.46 486.42 391.8 487.94" style="fill: none; stroke: #fafafa; stroke-miterlimit: 10;"/>
      <path d="M179.88,355.07c.16-.25.33-.48.49-.72.12-.15.21-.31.31-.48,7.73-11.93,8.32-29.54,8.28-31.67v-.16" style="fill: none; stroke: #fafafa; stroke-miterlimit: 10;"/>
      <path d="M336.23,184.68s57.73-5.61,55.13,30.95l.44,42.33v.02" style="fill: none; stroke: #fafafa; stroke-miterlimit: 10; stroke-width: 2px;"/>
      <polyline points="318.25 126.26 315.14 70.23 314.33 55.58" style="fill: none; stroke: #fafafa; stroke-miterlimit: 10; stroke-width: 3px;"/>
      <path d="M327.81,41.08c0,7.46-6.03,13.49-13.48,13.49s-13.49-6.03-13.49-13.49,6.05-13.48,13.49-13.48,13.48,6.03,13.48,13.48Z" style="fill: none; stroke: #fafafa; stroke-miterlimit: 10; stroke-width: 3px;"/>
      <line x1="187.19" y1="244.49" x2="187.19" y2="265.88" style="fill: none; stroke: #fff; stroke-miterlimit: 10;"/>
      <path d="M191.71,350.64s-1.61,10.63-10.6,12.11" style="fill: none; stroke: #fafafa; stroke-miterlimit: 10;"/>
    </g>
  </g>
  <polygon points="411.65 176.4 406.91 142.22 372.91 136.33 407.09 131.59 412.98 97.59 417.72 131.76 451.72 137.66 417.54 142.4 411.65 176.4" style="fill: #455ad6; stroke: #fafafa; stroke-miterlimit: 10;"/>
  <polygon points="28.18 458.28 25.12 436.28 3.24 432.49 25.24 429.44 29.03 407.56 32.08 429.55 53.96 433.34 31.97 436.4 28.18 458.28" style="fill: #455ad6; stroke: #fafafa; stroke-miterlimit: 10;"/>
  <polygon points="52.54 53.96 49.48 31.97 27.6 28.18 49.6 25.12 53.39 3.24 56.44 25.24 78.32 29.03 56.33 32.08 52.54 53.96" style="fill: #455ad6; stroke: #fafafa; stroke-miterlimit: 10;"/>
</svg>