<svg width="100%" height="100%" viewBox="0 0 24 25" fill="none" xmlns="http://www.w3.org/2000/svg">
<g id="vuesax/linear/gallery-export">
<g id="gallery-export">
<path id="Vector" d="M9 10.5C10.1046 10.5 11 9.60457 11 8.5C11 7.39543 10.1046 6.5 9 6.5C7.89543 6.5 7 7.39543 7 8.5C7 9.60457 7.89543 10.5 9 10.5Z" stroke="#1D7C4E" stroke-width="1.5" stroke-linecap="round" stroke-linejoin="round"/>
<path id="Vector_2" d="M13 2.5H9C4 2.5 2 4.5 2 9.5V15.5C2 20.5 4 22.5 9 22.5H15C20 22.5 22 20.5 22 15.5V10.5" stroke="#1D7C4E" stroke-width="1.5" stroke-linecap="round" stroke-linejoin="round"/>
<path id="Vector_3" d="M18 8.5V2.5L20 4.5" stroke="#1D7C4E" stroke-width="1.5" stroke-linecap="round" stroke-linejoin="round"/>
<path id="Vector_4" d="M18 2.5L16 4.5" stroke="#1D7C4E" stroke-width="1.5" stroke-linecap="round" stroke-linejoin="round"/>
<path id="Vector_5" d="M2.67004 19.4501L7.60004 16.1401C8.39004 15.6101 9.53004 15.6701 10.24 16.2801L10.57 16.5701C11.35 17.2401 12.61 17.2401 13.39 16.5701L17.55 13.0001C18.33 12.3301 19.59 12.3301 20.37 13.0001L22 14.4001" stroke="#1D7C4E" stroke-width="1.5" stroke-linecap="round" stroke-linejoin="round"/>
</g>
</g>
</svg>
