<svg width="25" height="24" viewBox="0 0 25 24" fill="none" xmlns="http://www.w3.org/2000/svg">
    <path
        d="M18.1201 18.8597H17.3601C16.5601 18.8597 15.8001 19.1697 15.2401 19.7297L13.5301 21.4197C12.7501 22.1897 11.4801 22.1897 10.7001 21.4197L8.99011 19.7297C8.43011 19.1697 7.66012 18.8597 6.87012 18.8597H6.12012C4.46012 18.8597 3.12012 17.5298 3.12012 15.8898V4.97974C3.12012 3.33974 4.46012 2.00977 6.12012 2.00977H18.1201C19.7801 2.00977 21.1201 3.33974 21.1201 4.97974V15.8898C21.1201 17.5198 19.7801 18.8597 18.1201 18.8597Z"
        stroke="#0D0D0D" stroke-width="1.5" stroke-miterlimit="10" stroke-linecap="round" stroke-linejoin="round" />
    <path
        d="M12.1201 9.99982C13.4069 9.99982 14.4501 8.95662 14.4501 7.6698C14.4501 6.38298 13.4069 5.33984 12.1201 5.33984C10.8332 5.33984 9.79004 6.38298 9.79004 7.6698C9.79004 8.95662 10.8332 9.99982 12.1201 9.99982Z"
        stroke="#0D0D0D" stroke-width="1.5" stroke-linecap="round" stroke-linejoin="round" />
    <path
        d="M16.1201 15.6599C16.1201 13.8599 14.3301 12.3999 12.1201 12.3999C9.91012 12.3999 8.12012 13.8599 8.12012 15.6599"
        stroke="#0D0D0D" stroke-width="1.5" stroke-linecap="round" stroke-linejoin="round" />
</svg>