<svg width="100%" height="100%" viewBox="0 0 17 16" fill="none" xmlns="http://www.w3.org/2000/svg">
<path d="M15.1666 9.99992V5.99992C15.1666 2.66659 13.8333 1.33325 10.4999 1.33325H6.49992C3.16659 1.33325 1.83325 2.66659 1.83325 5.99992V9.99992C1.83325 13.3333 3.16659 14.6666 6.49992 14.6666H10.4999C13.8333 14.6666 15.1666 13.3333 15.1666 9.99992Z" stroke="#F2F2F2" stroke-width="1.5" stroke-linecap="round" stroke-linejoin="round"/>
<path d="M2.17993 4.73999H14.8199" stroke="#F2F2F2" stroke-width="1.5" stroke-linecap="round" stroke-linejoin="round"/>
<path d="M6.17993 1.40674V4.64674" stroke="#F2F2F2" stroke-width="1.5" stroke-linecap="round" stroke-linejoin="round"/>
<path d="M10.8201 1.40674V4.34674" stroke="#F2F2F2" stroke-width="1.5" stroke-linecap="round" stroke-linejoin="round"/>
<path d="M7 9.63333V8.83333C7 7.80666 7.72667 7.38666 8.61333 7.9L9.30667 8.3L10 8.7C10.8867 9.21333 10.8867 10.0533 10 10.5667L9.30667 10.9667L8.61333 11.3667C7.72667 11.88 7 11.46 7 10.4333V9.63333V9.63333Z" stroke="#F2F2F2" stroke-width="1.5" stroke-miterlimit="10" stroke-linecap="round" stroke-linejoin="round"/>
</svg>
