<svg width="50" height="50" viewBox="0 0 50 50" fill="none" xmlns="http://www.w3.org/2000/svg">
<path d="M50 25C50 38.8065 38.8119 50 25.0035 50C11.1951 50 0 38.8065 0 25C0 11.1935 11.1951 0 25.0035 0C38.8119 0 50 11.1935 50 25Z" fill="#666666"/>
<path d="M25.1988 38.9392C18.3313 38.9637 11.184 33.1011 11.1525 23.6881C11.128 17.4652 14.4935 11.4697 18.7826 7.91572C22.9703 4.45273 28.7078 2.22452 33.91 2.20703C34.5817 2.20703 35.2849 2.263 35.7117 2.40991C31.1637 3.35087 27.5463 7.58691 27.5568 12.3861C27.5568 12.547 27.5708 12.7184 27.5882 12.7954C35.2009 14.6493 38.6539 19.2422 38.6784 25.5945C38.6959 31.9503 33.6791 38.9147 25.2023 38.9427" fill="#F2F2F2"/>
</svg>
