<svg width="100%" height="100%" viewBox="0 0 25 24" fill="none" xmlns="http://www.w3.org/2000/svg">
  <path
    d="M13.0599 2.51814L13.0299 2.58814L10.1299 9.31814H7.27986C6.59986 9.31814 5.94986 9.45814 5.35986 9.70814L7.10986 5.52814L7.14986 5.42814L7.21986 5.26814C7.23986 5.20814 7.25986 5.14814 7.28986 5.09814C8.59986 2.06814 10.0799 1.37814 13.0599 2.51814Z"
    stroke="#0D0D0D" stroke-width="1.5" stroke-linecap="round" stroke-linejoin="round" />
  <path
    d="M18.4499 9.51856C17.9999 9.37856 17.5199 9.31855 17.0399 9.31855H10.1299L13.0299 2.58855L13.0599 2.51855C13.2099 2.56855 13.3499 2.63855 13.4999 2.69855L15.7099 3.62855C16.9399 4.13855 17.7999 4.66855 18.3199 5.30855C18.4199 5.42855 18.4999 5.53855 18.5699 5.66855C18.6599 5.80855 18.7299 5.94855 18.7699 6.09855C18.8099 6.18855 18.8399 6.27855 18.8599 6.35855C19.1299 7.19855 18.9699 8.22856 18.4499 9.51856Z"
    stroke="#0D0D0D" stroke-width="1.5" stroke-linecap="round" stroke-linejoin="round" />
  <path
    d="M21.9216 14.1984V16.1484C21.9216 16.3484 21.9116 16.5484 21.9016 16.7484C21.7116 20.2384 19.7616 21.9984 16.0616 21.9984H8.26162C8.02162 21.9984 7.78162 21.9784 7.55162 21.9484C4.37162 21.7384 2.67162 20.0384 2.46162 16.8584C2.43162 16.6284 2.41162 16.3884 2.41162 16.1484V14.1984C2.41162 12.1884 3.63162 10.4584 5.37162 9.70836C5.97162 9.45836 6.61162 9.31836 7.29162 9.31836H17.0516C17.5416 9.31836 18.0216 9.38836 18.4616 9.51836C20.4516 10.1284 21.9216 11.9884 21.9216 14.1984Z"
    stroke="#0D0D0D" stroke-width="1.5" stroke-linecap="round" stroke-linejoin="round" />
  <path
    d="M7.1099 5.52832L5.3599 9.70832C3.6199 10.4583 2.3999 12.1883 2.3999 14.1983V11.2683C2.3999 8.42832 4.4199 6.05832 7.1099 5.52832Z"
    stroke="#0D0D0D" stroke-width="1.5" stroke-linecap="round" stroke-linejoin="round" />
  <path
    d="M21.9185 11.2677V14.1977C21.9185 11.9977 20.4585 10.1277 18.4585 9.52766C18.9785 8.22766 19.1285 7.20766 18.8785 6.35766C18.8585 6.26766 18.8285 6.17766 18.7885 6.09766C20.6485 7.05766 21.9185 9.02766 21.9185 11.2677Z"
    stroke="#0D0D0D" stroke-width="1.5" stroke-linecap="round" stroke-linejoin="round" />
</svg>