<svg width="100%" height="100%" viewBox="0 0 20 20" fill="none" xmlns="http://www.w3.org/2000/svg">
    <path
        d="M2.27067 17.5C1.95123 17.5 1.71512 17.3611 1.56234 17.0833C1.40956 16.8056 1.40956 16.5278 1.56234 16.25L9.27067 2.91667C9.42345 2.63889 9.6665 2.5 9.99984 2.5C10.3332 2.5 10.5762 2.63889 10.729 2.91667L18.4373 16.25C18.5901 16.5278 18.5901 16.8056 18.4373 17.0833C18.2846 17.3611 18.0484 17.5 17.729 17.5H2.27067ZM9.99984 8.33333C9.76373 8.33333 9.56595 8.41305 9.4065 8.5725C9.2465 8.7325 9.1665 8.93056 9.1665 9.16667V11.6667C9.1665 11.9028 9.2465 12.1006 9.4065 12.26C9.56595 12.42 9.76373 12.5 9.99984 12.5C10.2359 12.5 10.434 12.42 10.594 12.26C10.7534 12.1006 10.8332 11.9028 10.8332 11.6667V9.16667C10.8332 8.93056 10.7534 8.7325 10.594 8.5725C10.434 8.41305 10.2359 8.33333 9.99984 8.33333ZM9.99984 15C10.2359 15 10.434 14.92 10.594 14.76C10.7534 14.6006 10.8332 14.4028 10.8332 14.1667C10.8332 13.9306 10.7534 13.7328 10.594 13.5733C10.434 13.4133 10.2359 13.3333 9.99984 13.3333C9.76373 13.3333 9.56595 13.4133 9.4065 13.5733C9.2465 13.7328 9.1665 13.9306 9.1665 14.1667C9.1665 14.4028 9.2465 14.6006 9.4065 14.76C9.56595 14.92 9.76373 15 9.99984 15ZM3.70817 15.8333H16.2915L9.99984 5L3.70817 15.8333Z"
        fill="#CC9900" />
</svg>