<svg width="50" height="50" viewBox="0 0 50 50" fill="none" xmlns="http://www.w3.org/2000/svg">
    <path
        d="M25.0031 49.9999C11.2687 50.0048 0.149345 38.934 0.00150721 25.2924C-0.148755 11.3892 10.9561 0.294183 24.4336 0.00584395C38.4685 -0.292187 49.6897 10.8488 49.9926 24.3087C50.1502 31.3136 47.7799 37.3784 42.9231 42.428C38.1268 47.4146 31.6147 50.0145 25.0007 49.9999H25.0031ZM34.6272 26.1405H41.0448C41.4495 26.1405 41.6798 25.9176 41.6798 25.5178C41.6798 24.7788 41.6943 24.0397 41.6798 23.3007C41.6458 21.7645 40.96 20.6015 39.6391 19.8237C39.0356 19.4675 38.3667 19.3173 37.6687 19.3173C35.0537 19.3173 32.4411 19.3173 29.826 19.3173C29.5037 19.3173 29.1862 19.3488 28.8712 19.4166C27.2062 19.7704 25.9071 21.2557 25.7811 22.9542C25.7472 23.4073 25.7666 23.8604 25.7666 24.3135C25.7666 25.181 25.7375 26.0484 25.7763 26.9159C25.8708 29.0287 27.6206 30.6909 29.7364 30.6909C32.3466 30.6909 34.9568 30.6909 37.5645 30.6909C37.8117 30.6909 38.0565 30.6837 38.3013 30.6425C39.77 30.388 40.7927 29.5642 41.3865 28.2073C41.5271 27.8851 41.2726 27.5895 40.8873 27.6694C40.4268 27.7663 39.9542 27.7615 39.4913 27.6694C39.2756 27.6258 39.1229 27.6621 39.0017 27.8027C38.6382 28.2267 38.1704 28.4206 37.6154 28.4181C36.7841 28.4181 35.9529 28.4181 35.1191 28.4181C33.3402 28.4181 31.5638 28.4181 29.7848 28.4181C28.9948 28.4181 28.3356 27.9311 28.1102 27.1921C28.0205 26.9013 28.0496 26.6009 28.0375 26.3028C28.0326 26.1744 28.0714 26.1453 28.1974 26.1453C30.3399 26.1502 32.4847 26.1478 34.6272 26.1478V26.1405ZM24.2494 23.7151V19.9545C24.2494 19.545 24.0264 19.3197 23.6144 19.3173C23.2751 19.3173 22.9358 19.3173 22.5989 19.3173C22.2063 19.3173 21.9761 19.5499 21.9761 19.94C21.9761 22.363 21.9761 24.7885 21.9761 27.2115C21.9761 27.9408 21.4574 28.4399 20.7158 28.4133C20.0396 28.3891 19.3635 28.3842 18.6873 28.4133C17.9602 28.4448 17.4367 27.9408 17.4367 27.226V19.94C17.4367 19.562 17.2065 19.3221 16.826 19.3173C16.4697 19.3124 16.1135 19.3124 15.7572 19.3173C15.6287 19.3173 15.5003 19.3367 15.3912 19.4263C15.224 19.562 15.161 19.734 15.161 19.9473C15.1634 22.3679 15.161 24.786 15.161 27.2066C15.161 27.9408 14.6448 28.4375 13.8983 28.4133C13.2221 28.3939 12.5484 28.3842 11.8746 28.4133C11.1427 28.4448 10.6192 27.9432 10.6192 27.2284C10.6192 24.8006 10.6192 22.3703 10.6192 19.9424C10.6192 19.562 10.3865 19.3221 10.0085 19.3173C9.65704 19.3124 9.3032 19.3124 8.95178 19.3173C8.56158 19.3221 8.33619 19.5572 8.33619 19.9497C8.33619 22.3654 8.33619 24.7812 8.33619 27.1945C8.33619 27.3229 8.34104 27.4489 8.35316 27.5773C8.49857 29.3171 9.98422 30.6861 11.7316 30.6861C12.4975 30.6861 13.2633 30.6909 14.0292 30.6861C14.8362 30.6812 15.556 30.422 16.1837 29.9131C16.2686 29.8429 16.3195 29.8307 16.4116 29.9083C17.0538 30.4389 17.7978 30.6885 18.6291 30.6885C19.3586 30.6885 20.0905 30.6885 20.82 30.6885C21.0672 30.6885 21.312 30.6618 21.552 30.611C23.1394 30.2717 24.2542 28.8906 24.2542 27.2672C24.2542 26.0848 24.2542 24.8999 24.2542 23.7175L24.2494 23.7151Z"
        fill="#666666" />
    <path
        d="M34.6276 26.1391C32.4852 26.1391 30.3403 26.1391 28.1979 26.1367C28.0719 26.1367 28.0331 26.1682 28.0379 26.2941C28.0476 26.5922 28.021 26.8926 28.1106 27.1834C28.336 27.9248 28.9952 28.4094 29.7853 28.4094C31.5642 28.4094 33.3407 28.4094 35.1196 28.4094C35.9509 28.4094 36.7822 28.4094 37.6159 28.4094C38.1709 28.4094 38.6362 28.218 39.0022 27.794C39.1234 27.6535 39.2761 27.6195 39.4918 27.6607C39.9522 27.7528 40.4273 27.7552 40.8877 27.6607C41.2731 27.5808 41.5276 27.8764 41.387 28.1986C40.7932 29.558 39.7705 30.3794 38.3018 30.6338C38.0594 30.675 37.8122 30.6822 37.565 30.6822C34.9548 30.6822 32.3446 30.6822 29.7369 30.6822C27.6211 30.6822 25.8713 29.02 25.7767 26.9072C25.738 26.0422 25.7646 25.1723 25.767 24.3049C25.767 23.8517 25.7477 23.3986 25.7816 22.9455C25.9076 21.247 27.2066 19.7617 28.8716 19.4079C29.1867 19.3401 29.5066 19.3086 29.8265 19.3086C32.4416 19.3086 35.0542 19.3086 37.6692 19.3086C38.3672 19.3086 39.0337 19.4588 39.6396 19.815C40.9604 20.5928 41.6487 21.7583 41.6803 23.292C41.6972 24.0311 41.6851 24.7701 41.6803 25.5091C41.6803 25.9089 41.4476 26.1318 41.0453 26.1318C38.9053 26.1318 36.7677 26.1318 34.6276 26.1318V26.1391ZM33.7188 23.8639H37.691C38.2194 23.8639 38.7477 23.8614 39.2736 23.8639C39.3851 23.8639 39.4069 23.8275 39.3948 23.7064C39.3851 23.607 39.3827 23.5053 39.39 23.4059C39.4603 22.4367 38.6774 21.5959 37.725 21.5959C35.0493 21.5935 32.3761 21.5959 29.7005 21.5959C29.0292 21.5959 28.3942 22.0514 28.1518 22.679C28.0185 23.0231 28.0404 23.3768 28.0307 23.7306C28.0282 23.8445 28.067 23.8663 28.1737 23.8663C30.0204 23.8639 31.8696 23.8663 33.7164 23.8663L33.7188 23.8639Z"
        fill="#F2F2F2" />
    <path
        d="M24.2501 23.7163C24.2501 24.8988 24.2501 26.0836 24.2501 27.266C24.2501 28.8895 23.1352 30.2706 21.5478 30.6098C21.3054 30.6607 21.0631 30.6874 20.8159 30.6874C20.0864 30.6874 19.3545 30.6874 18.625 30.6874C17.7937 30.6874 17.0496 30.4378 16.4074 29.9071C16.3153 29.832 16.2644 29.8441 16.1796 29.912C15.5519 30.4208 14.8321 30.6777 14.025 30.6849C13.2592 30.6898 12.4933 30.6849 11.7275 30.6849C9.98249 30.6849 8.49441 29.3159 8.34899 27.5762C8.3393 27.4502 8.33203 27.3218 8.33203 27.1934C8.33203 24.7776 8.33203 22.3619 8.33203 19.9485C8.33203 19.556 8.55742 19.321 8.94762 19.3161C9.29904 19.3113 9.65288 19.3113 10.0043 19.3161C10.3848 19.321 10.615 19.5609 10.615 19.9413C10.615 22.3691 10.615 24.7994 10.615 27.2273C10.615 27.9421 11.141 28.4436 11.8705 28.4121C12.5442 28.3831 13.2204 28.3928 13.8941 28.4121C14.6406 28.4339 15.1568 27.9372 15.1568 27.2055C15.1568 24.7849 15.1568 22.3667 15.1568 19.9461C15.1568 19.7329 15.2198 19.5633 15.3871 19.4252C15.4961 19.3355 15.6246 19.3186 15.753 19.3161C16.1093 19.3113 16.4656 19.3113 16.8218 19.3161C17.2023 19.321 17.4326 19.5609 17.4326 19.9389V27.2249C17.4326 27.9396 17.9561 28.4436 18.6831 28.4121C19.3593 28.3831 20.0355 28.3879 20.7117 28.4121C21.4557 28.4388 21.9719 27.9396 21.9719 27.2103C21.9719 24.7873 21.9719 22.3619 21.9719 19.9389C21.9719 19.5487 22.2022 19.3161 22.5948 19.3161C22.9341 19.3161 23.2734 19.3161 23.6103 19.3161C24.0223 19.3161 24.2452 19.5439 24.2452 19.9534C24.2452 21.2061 24.2452 22.4612 24.2452 23.7139L24.2501 23.7163Z"
        fill="#F2F2F2" />
    <path
        d="M33.719 23.8663C31.8723 23.8663 30.0231 23.8663 28.1763 23.8663C28.0721 23.8663 28.0309 23.8445 28.0333 23.7306C28.043 23.3768 28.0212 23.0206 28.1545 22.679C28.3968 22.0514 29.0294 21.5959 29.7031 21.5959C32.3788 21.5959 35.052 21.5911 37.7276 21.5959C38.6825 21.5959 39.4653 22.4367 39.3926 23.4059C39.3853 23.5052 39.3878 23.607 39.3975 23.7064C39.4096 23.8275 39.3853 23.8638 39.2763 23.8638C38.7479 23.859 38.2196 23.8638 37.6937 23.8638H33.7214L33.719 23.8663Z"
        fill="#666666" />
</svg>