<svg width="100%" height="100%" viewBox="0 0 68 68" fill="none" xmlns="http://www.w3.org/2000/svg">
<path fill-rule="evenodd" clip-rule="evenodd" d="M34 65.875C50.4305 65.875 63.75 52.5555 63.75 36.125C63.75 19.6945 50.4305 6.375 34 6.375C17.5695 6.375 4.25 19.6945 4.25 36.125C4.25 41.4606 5.65462 46.4682 8.11426 50.7981L4.25 65.875L19.7941 62.2706C24.0154 64.5691 28.8552 65.875 34 65.875ZM34 61.2981C47.9027 61.2981 59.1731 50.0277 59.1731 36.125C59.1731 22.2223 47.9027 10.9519 34 10.9519C20.0973 10.9519 8.82692 22.2223 8.82692 36.125C8.82692 41.4929 10.5071 46.4684 13.3702 50.5542L11.1154 59.0096L19.7199 56.8585C23.7774 59.6584 28.6972 61.2981 34 61.2981Z" fill="#DFEAFC"/>
<path d="M59.5 34C59.5 48.0833 48.0833 59.5 34 59.5C28.6284 59.5 23.6446 57.8391 19.5344 55.0028L10.8182 57.1818L13.1022 48.6166C10.202 44.4777 8.5 39.4376 8.5 34C8.5 19.9167 19.9167 8.5 34 8.5C48.0833 8.5 59.5 19.9167 59.5 34Z" fill="#666666"/>
<path fill-rule="evenodd" clip-rule="evenodd" d="M34 63.75C50.4305 63.75 63.75 50.4305 63.75 34C63.75 17.5695 50.4305 4.25 34 4.25C17.5695 4.25 4.25 17.5695 4.25 34C4.25 39.3356 5.65462 44.3432 8.11426 48.6731L4.25 63.75L19.7941 60.1456C24.0154 62.4441 28.8552 63.75 34 63.75ZM34 59.1731C47.9027 59.1731 59.1731 47.9027 59.1731 34C59.1731 20.0973 47.9027 8.82692 34 8.82692C20.0973 8.82692 8.82692 20.0973 8.82692 34C8.82692 39.3679 10.5071 44.3434 13.3702 48.4292L11.1154 56.8846L19.7199 54.7335C23.7774 57.5334 28.6972 59.1731 34 59.1731Z" fill="white"/>
<path d="M26.5625 20.1874C25.8552 18.7667 24.7701 18.8925 23.6739 18.8925C21.7149 18.8925 18.6602 21.2391 18.6602 25.6063C18.6602 29.1855 20.2373 33.1035 25.5519 38.9644C30.6808 44.6207 37.4199 47.5467 43.0147 47.4471C48.6094 47.3474 49.7605 42.533 49.7605 40.9071C49.7605 40.1865 49.3133 39.8269 49.0052 39.7292C47.0987 38.8142 43.5823 37.1094 42.7823 36.789C41.9822 36.4687 41.5644 36.902 41.3047 37.1377C40.5792 37.8291 39.1409 39.8668 38.6485 40.3252C38.156 40.7835 37.4218 40.5515 37.1163 40.3783C35.992 39.9271 32.9437 38.5712 30.5139 36.2158C27.5088 33.3027 27.3325 32.3005 26.7663 31.4083C26.3134 30.6946 26.6457 30.2567 26.8116 30.0654C27.459 29.3183 28.353 28.1649 28.754 27.5917C29.1549 27.0186 28.8366 26.1483 28.6456 25.6063C27.8243 23.2753 27.1284 21.324 26.5625 20.1874Z" fill="white"/>
</svg>
