<svg width="100%" height="100%" viewBox="0 0 24 24" fill="none" xmlns="http://www.w3.org/2000/svg">
<path d="M17.5289 14.382C17.2319 14.233 15.7709 13.515 15.4989 13.415C15.2259 13.316 15.0279 13.267 14.8289 13.565C14.6319 13.862 14.0619 14.531 13.8889 14.729C13.7159 14.928 13.5419 14.952 13.2449 14.804C12.9479 14.654 11.9899 14.341 10.8549 13.329C9.97189 12.541 9.37489 11.568 9.20189 11.27C9.02889 10.973 9.18389 10.812 9.33189 10.664C9.46589 10.531 9.62989 10.317 9.77789 10.144C9.92689 9.97004 9.97589 9.84604 10.0759 9.64704C10.1749 9.44904 10.1259 9.27604 10.0509 9.12704C9.97589 8.97804 9.38189 7.51504 9.13489 6.92004C8.89289 6.34104 8.64789 6.42004 8.46589 6.41004C8.29289 6.40204 8.09489 6.40004 7.89589 6.40004C7.69789 6.40004 7.37589 6.47404 7.10389 6.77204C6.83189 7.06904 6.06389 7.78804 6.06389 9.25104C6.06389 10.713 7.12889 12.126 7.27689 12.325C7.42589 12.523 9.37289 15.525 12.3539 16.812C13.0629 17.118 13.6159 17.301 14.0479 17.437C14.7599 17.664 15.4079 17.632 15.9189 17.555C16.4899 17.47 17.6769 16.836 17.9249 16.142C18.1729 15.448 18.1729 14.853 18.0979 14.729C18.0239 14.605 17.8269 14.531 17.5289 14.382ZM12.1069 21.785H12.1029C10.3327 21.7852 8.59497 21.3092 7.07189 20.407L6.71089 20.193L2.96989 21.175L3.96789 17.527L3.73289 17.153C2.74333 15.5773 2.21983 13.7537 2.22289 11.893C2.22389 6.44304 6.65889 2.00904 12.1109 2.00904C14.7509 2.00904 17.2329 3.03904 19.0989 4.90704C20.0196 5.82366 20.7493 6.91377 21.2459 8.11428C21.7425 9.3148 21.996 10.6019 21.9919 11.901C21.9889 17.351 17.5549 21.785 12.1069 21.785ZM20.5199 3.48804C19.4181 2.37896 18.1071 1.49958 16.663 0.900841C15.2188 0.302105 13.6702 -0.00407625 12.1069 4.09775e-05C5.55189 4.09775e-05 0.216892 5.33504 0.213892 11.892C0.213892 13.988 0.760892 16.034 1.80189 17.837L0.113892 24L6.41889 22.346C8.16248 23.296 10.1163 23.7938 12.1019 23.794H12.1069C18.6609 23.794 23.9969 18.459 23.9999 11.901C24.0047 10.3383 23.6997 8.79014 23.1023 7.34607C22.505 5.90201 21.6273 4.59071 20.5199 3.48804Z" fill="#F2F2F2"/>
</svg>
