<?xml version="1.0" encoding="UTF-8"?>
<svg id="Layer_1" data-name="Layer 1" xmlns="http://www.w3.org/2000/svg"
  xmlns:xlink="http://www.w3.org/1999/xlink" viewBox="0 0 632 632">
  <defs>
    <style>
      .cls-1 {
      fill: #fff;
      }

      .cls-2 {
      fill: url(#linear-gradient);
      }
    </style>
    <linearGradient id="linear-gradient" x1="965" y1="1609.67" x2="1597" y2="1609.67"
      gradientTransform="translate(-1293.67 1597) rotate(-90)" gradientUnits="userSpaceOnUse">
      <stop offset="0" stop-color="#56be8a" />
      <stop offset=".93" stop-color="#22875a" />
    </linearGradient>
  </defs>
  <circle class="cls-2" cx="316" cy="316" r="316" />
  <path class="cls-1"
    d="m378.2,236.45c3.72-2.64,8.92-5.22,15.91-6.39l-4.74,1.07c10.5-2.97,22.25-2.24,33.35,2.04,28.45,10.97,32.7,46.17,22.79,85.58-5.6,22.3-11.22,34.93-16.19,46.22,0,0-1.48,5.7,2.75,2.46,2.95-6.39,14.14-25.87,27.46-65.37,12.33-36.57,4.92-73.97-22.79-85.58-1.56-.66-3.14-1.2-4.72-1.64h0c-10.54-3.72-35.9-3.99-35.9-3.99-15.91-1.5-23.07-8.67-25.56-11.59-1.72-2.01-5.05-6.5-9.16-28.33-2.04-10.84-3.15-19.98-3.79-26.54-1.39-9.34-4.52-9.99-6.89-8.91-.71.32-1.14.52-1.49.86-1.34,1.33-1.62,3.38-1.67,3.93-3.1,34.35-6.92,51.07-14.49,59.33-11.3,12.33-42.26,16.18-44.41,16.36-.52.04-3.52.44-6.21,2.46-2.62,1.96-4.37,5.37,3.93,8.1,17.61,5.79,47.03-2.05,54.53,32.38l6.33,44c.4,2.79,2.83,5,5.64,4.78,1.64-.13,3.16-1.06,3.71-3.78,1.36-6.82,3.29-42.26,13.97-59.65,0,0,2.26-3.97,7.65-7.8" />
  <path class="cls-1"
    d="m234.5,403.78l7.76-3.6c-10.5,2.97-21.88,2.92-32.98-1.35-28.45-10.97-32.7-46.17-22.79-85.58,5.6-22.3,11.22-34.93,16.19-46.22,0,0,1.48-5.7-2.75-2.46-2.95,6.39-14.14,25.87-27.46,65.37-12.33,36.57-4.92,73.97,22.79,85.58,1.56.66,3.14,1.2,4.72,1.64h0c10.54,3.72,35.9,3.99,35.9,3.99,15.91,1.5,23.07,8.67,25.56,11.59,1.72,2.01,5.05,6.5,9.16,28.33,2.04,10.84,3.15,19.98,3.79,26.54,1.39,9.34,4.52,9.99,6.89,8.91.71-.32,1.14-.52,1.49-.86,1.34-1.33,1.62-3.38,1.67-3.93,3.1-34.35,6.92-51.07,14.49-59.33,11.3-12.33,42.26-16.18,44.41-16.36.52-.04,3.52-.44,6.21-2.46,2.62-1.96,4.37-5.37-3.93-8.1-17.61-5.79-47.03,2.04-54.53-32.38l-6.34-44.08c-.41-2.82-2.91-4.97-5.74-4.68-1.59.16-3.06,1.11-3.59,3.77-1.36,6.82-3.29,42.26-13.97,59.65,0,0-.57.99-1.81,2.46-2.56,3.04-5.88,5.35-9.57,6.83l-7.82,3.14" />
</svg>