<?xml version="1.0" encoding="UTF-8"?>
<svg xmlns="http://www.w3.org/2000/svg" xmlns:xlink="http://www.w3.org/1999/xlink" viewBox="0 0 286.99 288.96">
  <defs>
    <style>
      .cls-1 {
        fill: #d1d6db;
      }

      .cls-2 {
        fill: #fff;
      }

      .cls-3 {
        fill: url(#linear-gradient-4);
      }

      .cls-4 {
        fill: url(#linear-gradient-3);
      }

      .cls-5 {
        stroke: #050e4f;
        stroke-width: .75px;
      }

      .cls-5, .cls-6, .cls-7, .cls-8, .cls-9 {
        stroke-miterlimit: 10;
      }

      .cls-5, .cls-6, .cls-8, .cls-9 {
        fill: none;
      }

      .cls-6 {
        stroke: #020d2b;
      }

      .cls-7 {
        fill: url(#linear-gradient);
        stroke: url(#linear-gradient-2);
      }

      .cls-8 {
        stroke: #000b38;
        stroke-linecap: round;
      }

      .cls-9 {
        stroke: #010c2d;
      }

      .cls-10 {
        fill: #d9ebff;
      }
    </style>
    <linearGradient id="linear-gradient" x1="139.25" y1="293" x2="147.42" y2="7.14" gradientUnits="userSpaceOnUse">
      <stop offset="0" stop-color="#2bb673"/>
      <stop offset=".06" stop-color="#25a676"/>
      <stop offset=".29" stop-color="#136d81"/>
      <stop offset=".46" stop-color="#074a88"/>
      <stop offset=".55" stop-color="#033d8b"/>
      <stop offset=".68" stop-color="#05377c"/>
      <stop offset=".85" stop-color="#08316e"/>
      <stop offset="1" stop-color="#093069"/>
    </linearGradient>
    <linearGradient id="linear-gradient-2" x1="145.48" y1="288.94" x2="141.51" y2=".01" gradientUnits="userSpaceOnUse">
      <stop offset=".24" stop-color="#2bb673"/>
      <stop offset=".43" stop-color="#187e7d"/>
      <stop offset=".65" stop-color="#064589"/>
      <stop offset="1" stop-color="#033d8b"/>
    </linearGradient>
    <linearGradient id="linear-gradient-3" x1="141.91" y1="185.04" x2="143.75" y2="50.23" xlink:href="#linear-gradient"/>
    <linearGradient id="linear-gradient-4" x1="144.81" y1="291.36" x2="144" y2="232.77" xlink:href="#linear-gradient"/>
  </defs>
  <g id="Layer_3">
    <path class="cls-7" d="M261.41,63.02c-.71-.83-1.35-1.71-1.86-2.65-7.95-11.1-17.41-21.01-28.11-29.42-.62-.33-1.18-.74-1.67-1.29-7.13-5.44-14.79-10.22-22.87-14.26-.05,0-.08-.01-.09-.01-.14-.06-.28-.12-.42-.18-.06-.04-.12-.08-.18-.14-.03-.02-.04-.03-.05-.04C187.24,5.73,165.97.5,143.49.5c-11.59,0-22.85,1.4-33.63,4.02-.54.24-1.12.38-1.73.43-14.9,3.82-28.85,9.99-41.47,18.1,0,0-.01,0-.02.01C26.87,48.63.5,93.45.5,144.48c0,41.44,17.39,78.8,45.22,105.07,11.99,11.31,25.91,20.57,41.21,27.21,17.17,7.45,36.08,11.61,55.94,11.7h.62c1.58,0,3.15-.03,4.72-.08,17.34-.56,33.91-4.24,49.16-10.49,15.82-6.48,30.22-15.73,42.61-27.14,28.58-26.33,46.51-64.19,46.51-106.27,0-30.24-9.26-58.29-25.08-81.46Z"/>
  </g>
  <g id="Layer_2">
    <path class="cls-2" d="M240.44,250.75c-12.39,11.41-26.79,20.66-42.61,27.14-15.25,6.25-31.82,9.93-49.16,10.49-1.57.05-3.14.08-4.72.08h-.62c-19.86-.09-38.77-4.25-55.94-11.7-15.26-6.62-29.15-15.85-41.11-27.12-.06-.05-.08-.14-.05-.21l8.79-21.97,37.57-25.53,3.32-2.25-1.11-.95,107.77.95,21.78,18.67,8.67,23.78,7.42,8.62Z"/>
    <line class="cls-8" x1="87.39" y1="276.76" x2="87.39" y2="222.68"/>
    <line class="cls-8" x1="197.83" y1="277.89" x2="197.83" y2="222.68"/>
    <g>
      <g>
        <path class="cls-10" d="M237.4,207.74l3.04,43.01-45.54-42.09c-1.04-.98-2.41-1.53-3.84-1.53h-95.6c-1.26,0-2.47.47-3.4,1.32l-45.44,41.57,1.67-40.95c.29-6.99,5.99-12.52,12.98-12.61l41.95-.49c12.4,3.54,26.49,2.87,40.54,2.31,20.7-.84,37.91.45,42.96-1.78,1.06-.47,2.11-.99,3.14-1.55l33.8-.4c7.42-.09,13.53,5.78,13.74,13.19Z"/>
        <path class="cls-1" d="M228.54,114.94v29.67c0,2.77-1.72,5.32-4.5,6.67l-7.31,3.55-.38-.08c1.3-6.19,2.04-13.08,2.08-20.77.08-13.48-2.41-25.95-7.03-36.87l.33-.14,13.41,11.09c2.17,1.79,3.4,4.28,3.4,6.88Z"/>
        <path class="cls-2" d="M211.4,97.11c4.62,10.92,7.11,23.39,7.03,36.87-.04,7.69-.78,14.58-2.08,20.77-1.57,7.58-4.01,14.11-7.11,19.82-5.2,9.58-11.92,16.28-19.38,20.38-1.03.56-2.08,1.08-3.14,1.55-5.05,2.23-22.26.94-42.96,1.78-14.05.56-28.14,1.23-40.54-2.31-6.69-1.91-12.89-5.05-18.31-10.08-8.37-7.78-12.88-18.51-15.12-31.06-1.12-6.24-1.68-12.94-1.88-19.96-.41-14.28,2.13-26.99,6.89-37.9,12.39-28.5,39.82-44.77,68.96-44.77,31.3,0,56.11,17.66,67.64,44.91ZM199.32,167.35c3.97-3.08,14.44-12.52,9.33-52.89-3.22-25.45-31.46-46.42-67.78-46.42s-57.63,22.01-63.22,44.39c-4.23,16.89-3.57,40.92,6.78,54.03,6.06,7.68,15.99,5.6,20.22,5.11,26.74-3.11,24-4.94,39.3-4.67,10.57.19,13-.66,34.92,3.56,9.59,1.85,13.23,2.46,20.45-3.11Z"/>
        <path class="cls-4" d="M208.65,114.46c5.11,40.37-5.36,49.81-9.33,52.89-7.22,5.57-10.86,4.96-20.45,3.11-21.92-4.22-24.35-3.37-34.92-3.56-15.3-.27-12.56,1.56-39.3,4.67-4.23.49-14.16,2.57-20.22-5.11-10.35-13.11-11.01-37.14-6.78-54.03,5.59-22.38,27.44-44.39,63.22-44.39s64.56,20.97,67.78,46.42Z"/>
        <path class="cls-1" d="M74.79,96.97h.01c-4.76,10.91-7.3,23.62-6.89,37.9.2,7.02.76,13.72,1.88,19.96l-7.31-3.55c-2.78-1.35-4.5-3.9-4.5-6.67v-29.67c0-2.6,1.23-5.09,3.4-6.88l13.41-11.09Z"/>
      </g>
      <g>
        <path class="cls-6" d="M211.4,97.11c4.62,10.92,7.11,23.39,7.03,36.87-.04,7.69-.78,14.58-2.08,20.77-1.57,7.58-4.01,14.11-7.11,19.82-5.2,9.58-11.92,16.28-19.38,20.38-1.03.56-2.08,1.08-3.14,1.55-5.05,2.23-22.26.94-42.96,1.78-14.05.56-28.14,1.23-40.54-2.31-6.69-1.91-12.89-5.05-18.31-10.08-8.37-7.78-12.88-18.51-15.12-31.06-1.12-6.24-1.68-12.94-1.88-19.96-.41-14.28,2.13-26.99,6.89-37.9,12.39-28.5,39.82-44.77,68.96-44.77,31.3,0,56.11,17.66,67.64,44.91Z"/>
        <path class="cls-9" d="M74.79,96.97l-13.41,11.09c-2.17,1.79-3.4,4.28-3.4,6.88v29.67c0,2.77,1.72,5.32,4.5,6.67l7.31,3.55"/>
        <path class="cls-6" d="M211.73,96.97l13.41,11.09c2.17,1.79,3.4,4.28,3.4,6.88v29.67c0,2.77-1.72,5.32-4.5,6.67l-7.31,3.55"/>
        <path class="cls-5" d="M189.86,194.95l33.8-.4c7.42-.09,13.53,5.78,13.74,13.19l3.04,43.01-45.54-42.09c-1.04-.98-2.41-1.53-3.84-1.53h-95.6c-1.26,0-2.47.47-3.4,1.32l-45.44,41.57,1.67-40.95c.29-6.99,5.99-12.52,12.98-12.61l41.95-.49"/>
      </g>
    </g>
    <path class="cls-3" d="M173.44,266.06l-21.16,7.38c-.15.06-.26.17-.3.32l-4.31,14.62c-1.57.05-3.14.08-4.72.08h-.62l-5-14.34c-.05-.15-.17-.26-.32-.3l-21.49-6.35c-.46-.13-.47-.76-.03-.92l21.17-7.38c.14-.05.26-.17.3-.32l6.34-21.49c.13-.46.77-.47.92-.03l7.38,21.17c.06.14.17.26.32.3l21.5,6.34c.45.13.47.77.02.92Z"/>
  </g>
  <g id="Layer_6">
    <path class="cls-2" d="M83.38,105.38c-.11.07-.14.15-.19.15-.86,0-.47-1.64-.04-2.38,3.59-6.25,20.76-32.81,52.15-31.99h0c-32.15,1.87-51.58,34.01-51.92,34.23Z"/>
  </g>
</svg>