<?xml version="1.0" encoding="UTF-8"?>
<svg id="Layer_1" xmlns="http://www.w3.org/2000/svg" xmlns:xlink="http://www.w3.org/1999/xlink"
    viewBox="0 0 420.06 428.62">
    <defs>
        <linearGradient id="linear-gradient" x1="135.04" y1="32.23" x2="262.98" y2="32.23"
            gradientUnits="userSpaceOnUse">
            <stop offset="0" stop-color="#2bb573" />
            <stop offset=".38" stop-color="#22a364" />
            <stop offset=".96" stop-color="#118249" />
        </linearGradient>
        <linearGradient id="linear-gradient-2" x1="155.53" y1="63.97" x2="258.74" y2="63.97"
            xlink:href="#linear-gradient" />
        <linearGradient id="linear-gradient-3" x1="273.02" y1="302.71" x2="289.89" y2="302.71"
            xlink:href="#linear-gradient" />
        <linearGradient id="linear-gradient-4" x1="249.12" y1="267.85" x2="286.05" y2="267.85"
            xlink:href="#linear-gradient" />
        <linearGradient id="linear-gradient-5" x1="215.62" y1="346.04" x2="267.76" y2="346.04"
            xlink:href="#linear-gradient" />
        <linearGradient id="linear-gradient-6" x1="230.02" y1="290.52" x2="256.14" y2="290.52"
            xlink:href="#linear-gradient" />
        <linearGradient id="linear-gradient-7" x1="167.85" y1="260.65" x2="230.79" y2="260.65"
            xlink:href="#linear-gradient" />
    </defs>
    <path d="M84.99,265.47s-9.96,11.69,5.87,15.29c0,0,9.64,23.75,22.09,2.04" fill="#bbf2ff"
        stroke="#fafafa" stroke-miterlimit="10" stroke-width=".5" />
    <polygon
        points="184.63 .25 135.04 35.43 145.93 64.22 216.93 64.22 252.14 37.81 262.98 29.68 254.03 3.13 184.63 .25"
        fill="url(#linear-gradient)" stroke="#fafafa" stroke-miterlimit="10" stroke-width=".5" />
    <polygon
        points="155.53 64.22 164.78 90.13 220.77 90.13 258.74 61.01 252.14 37.81 216.93 64.22 155.53 64.22"
        fill="url(#linear-gradient-2)" stroke="#fafafa" stroke-miterlimit="10" stroke-width=".5" />
    <line x1="143.74" y1="58.43" x2="143.74" y2="80.85" fill="none" stroke="#fafafa"
        stroke-miterlimit="10" />
    <circle cx="143.74" cy="91.09" r="10.25" fill="#2bb573" stroke="#fafafa" stroke-miterlimit="10" />
    <circle cx="37.76" cy="374.75" r="10.25" fill="#fbffae" stroke="#fafafa" stroke-miterlimit="10"
        stroke-width=".5" />
    <path d="M101.52,13.85s-3.84,17.35,11.75,23.97l-8.39,10.33s-19.19-6.24-17.63-29.86l14.27-4.44Z"
        fill="#bbf2ff" stroke="#fafafa" stroke-miterlimit="10" stroke-width=".75" />
    <path
        d="M339,95.53l1.46-9.61,11.99.6s4.68,5.28,3.12,15.71c0,0,.36,3.84-7.2,4.44h-3.84s3.12,7.92-.24,10.31-12.55,2.52-15.99-4.44c0,0-2.36-6.06,1.96-10.29l8.63-2.43-.06-1.44c-.04-.96.01-1.92.16-2.86Z"
        fill="#fbffae" stroke="#fafafa" stroke-miterlimit="10" stroke-width=".5" />
    <g>
        <g>
            <path
                d="M407.98,275.26c6.46,0,11.71,5.24,11.71,11.71s-5.24,11.69-11.71,11.69-11.69-5.24-11.69-11.69,5.24-11.71,11.69-11.71Z"
                fill="#9fc" />
            <path
                d="M314.63,410.71c.56.63.42,1.62-.31,2.06l-18.33,11.15-.34-18.11v-.14c0-.05.01-.1.01-.15l8.46-5.07c.51-.3,1.17-.2,1.57.24l8.95,10.01Z"
                fill="#ffafa4" />
            <path d="M295.66,405.53c0,.05-.01.1-.01.15v-.15h.01Z" fill="#ffafa4" />
            <rect x="273.02" y="294.27" width="16.87" height="16.87" fill="url(#linear-gradient-3)" />
            <path
                d="M281.45,238.27s.96,18.43,4.6,33.76c-.52.63-16.83,20.14-29.92,25.39.02-3.58-.78-8.91-4.19-15.88-.68-1.38-1.65-2.59-2.83-3.54l.82-.26c12.68-13.23,31.52-39.48,31.52-39.48Z"
                fill="url(#linear-gradient-4)" />
            <path
                d="M255.29,302.71l12.47,66.68-23.35,19.99-28.79-23.19,14.4-63.49s12.79,6.23,25.26,0Z"
                fill="url(#linear-gradient-5)" />
            <path
                d="M256.14,297.42c-.03,3.47-.85,5.28-.85,5.28-12.47,6.23-25.26,0-25.26,0v-17.77c0-1.29.27-2.55.77-3.69.83-1.92,2.31-3.51,4.25-4.43,3.45-1.64,7.16-1.42,10-.78,1.5.34,2.89,1.02,4.08,1.96,1.18.95,2.15,2.15,2.83,3.54,3.41,6.97,4.21,12.3,4.19,15.88Z"
                fill="url(#linear-gradient-6)" />
            <path
                d="M230.01,281.05l.78.2c-.5,1.14-.77,2.4-.77,3.69v15.2c-21.86.16-57.04-47.82-57.72-48.75.01-8.34-1.28-18.31-4.45-30.24,1.95,1.99,3.99,3.89,6.11,5.7,20.47,33.83,42.96,48.27,56.04,54.2Z"
                fill="url(#linear-gradient-7)" />
        </g>
        <g>
            <path
                d="M295.65,405.53h.01l8.46-5.07c.51-.3,1.17-.2,1.57.24l8.95,10.01c.56.63.42,1.62-.31,2.06l-18.33,11.15"
                fill="none" stroke="#fafafa" stroke-miterlimit="10" stroke-width=".75" />
            <path
                d="M296.91,227.86c-4.78,3.94-9.96,7.43-15.45,10.4-13.52,7.31-28.98,11.45-45.42,11.45-23.69,0-45.35-8.61-62.06-22.86-2.12-1.81-4.16-3.71-6.11-5.7-.45-.45-.88-.89-1.31-1.35-10.65-11.24-18.6-25.07-22.8-40.44-2.23-8.08-3.41-16.58-3.41-25.37s1.18-17.28,3.4-25.35c3.97-14.51,11.29-27.65,21.07-38.52"
                fill="none" stroke="#fafafa" stroke-miterlimit="10" />
            <path
                d="M258.75,61.02c33.74,8.21,60.48,34.3,69.61,67.65,2.2,8.06,3.39,16.55,3.39,25.32s-1.18,17.29-3.41,25.36c-4.73,17.31-14.2,32.65-26.94,44.56-1.46,1.36-2.95,2.67-4.49,3.94"
                fill="none" stroke="#fafafa" stroke-miterlimit="10" />
            <path
                d="M310.48,160.8c0,35.23-30.72,64.44-74.44,64.44s-74.6-28.25-74.6-63.48,9.6-56.29,71.32-56.29,77.72,20.1,77.72,55.33Z"
                fill="none" stroke="#fafafa" stroke-miterlimit="10" />
            <path
                d="M143.74,128.64h-.01l-15.74,9.1c-1.05.61-1.69,1.76-1.65,2.98l1.11,32.54c.06,1.69,1.28,3.12,2.93,3.45l13.37,2.65"
                fill="none" stroke="#fafafa" stroke-miterlimit="10" />
            <path
                d="M328.31,128.64l.05.03,15.7,9.06c1.05.61,1.69,1.76,1.65,2.98l-1.11,32.54c-.06,1.69-1.28,3.12-2.93,3.45l-13.33,2.64h-.03"
                fill="none" stroke="#fafafa" stroke-miterlimit="10" />
            <path d="M295.65,405.82c-.3,12.65-.68,21.12-1.15,22.66" fill="none" stroke="#fafafa"
                stroke-miterlimit="10" />
            <path
                d="M296.91,227.85h0c0,.73,0,29.01-.14,64.15-.12,31.58-.34,68.7-.78,96.29-.11,6.31-.21,12.11-.33,17.23,0,.05-.01.1-.01.15"
                fill="none" stroke="#fafafa" stroke-miterlimit="10" />
            <path
                d="M75.75,167.67s18.35,29.69,68.09,46.14c6.94,2.3,14.51,4.33,22.71,6,.01.01.02.01.03.01"
                fill="none" stroke="#fafafa" stroke-miterlimit="10" />
            <rect x="273.02" y="294.27" width="16.87" height="16.87" fill="none" stroke="#fafafa"
                stroke-miterlimit="10" stroke-width=".5" />
            <path
                d="M419.68,286.96c0,6.45-5.24,11.69-11.71,11.69s-11.69-5.24-11.69-11.69,5.24-11.71,11.69-11.71,11.71,5.24,11.71,11.71Z"
                fill="none" stroke="#fafafa" stroke-miterlimit="10" stroke-width=".75" />
            <path d="M54.29,228.21s13.71,43.97,89.45,65.31l-29.79,104.26" fill="none"
                stroke="#fafafa" stroke-miterlimit="10" />
            <path
                d="M143.74,213.53s.03.1.1.28c1.37,3.97,16.93,50.57-.1,79.71,0,0,28.49-3.31,28.56-42.12.01-8.34-1.28-18.31-4.45-30.24"
                fill="none" stroke="#fafafa" stroke-miterlimit="10" />
            <path d="M173.97,226.85c20.47,33.83,42.96,48.27,56.04,54.2" fill="none" stroke="#fafafa"
                stroke-miterlimit="10" />
            <path
                d="M249.94,277.75c12.68-13.23,31.52-39.48,31.52-39.48,0,0,.96,18.43,4.6,33.76,2.33,9.77,5.75,18.29,10.71,19.97h.01"
                fill="none" stroke="#fafafa" stroke-miterlimit="10" />
            <path
                d="M301.4,223.91s43.52,38.28,25.46,143.57c-1.41,8.18-6.35,15.52-13.74,19.31-4.63,2.38-10.44,3.62-17.13,1.5"
                fill="none" stroke="#fafafa" stroke-miterlimit="10" />
            <path
                d="M212.6,167.67c.05-.58.07-1.16.07-1.75,0-9.01-6.11-16.31-13.65-16.31s-13.66,7.3-13.66,16.31c0,.59.02,1.17.07,1.75"
                fill="none" stroke="#3d3dc4" stroke-linecap="round" stroke-miterlimit="10"
                stroke-width="6" />
            <path
                d="M286.94,167.67c.05-.58.07-1.16.07-1.75,0-9.01-6.11-16.31-13.65-16.31s-13.66,7.3-13.66,16.31c0,.59.02,1.17.07,1.75"
                fill="none" stroke="#3d3dc4" stroke-linecap="round" stroke-miterlimit="10"
                stroke-width="6" />
            <path d="M230.02,300.14c-21.86.16-57.04-47.82-57.72-48.75h-.01" fill="none"
                stroke="#fafafa" stroke-miterlimit="10" />
            <path d="M256.14,297.42c13.09-5.25,29.4-24.76,29.92-25.39h.01" fill="none"
                stroke="#fafafa" stroke-miterlimit="10" />
            <path
                d="M230.79,281.26c-.5,1.14-.77,2.4-.77,3.69v17.77s12.79,6.23,25.26,0c0,0,.82-1.81.85-5.28.02-3.58-.78-8.91-4.19-15.88-.68-1.38-1.65-2.59-2.83-3.54-1.19-.94-2.58-1.62-4.08-1.96-2.84-.64-6.55-.86-10,.78-1.94.92-3.42,2.51-4.25,4.43Z"
                fill="none" stroke="#fafafa" stroke-miterlimit="10" />
            <polyline points="230.02 302.71 215.62 366.19 244.41 389.38 267.76 369.39 255.29 302.71"
                fill="none" stroke="#fafafa" stroke-miterlimit="10" />
        </g>
    </g>
    <g>
        <line x1="77.71" y1="93.89" x2="77.7" y2="93.89" fill="none" stroke="#fafafa"
            stroke-miterlimit="10" />
        <path
            d="M59.26,86.37s-.02-.02-.02-.02c-.09,2.64-.56,4.61-1.01,6.62-.96,4.33-2.09,8.63-3.24,12.91-3.46,12.95-7.19,25.82-11.01,38.66"
            fill="none" stroke="#fafafa" stroke-miterlimit="10" />
        <path
            d="M26.93,200.68c-2.17,6.76-4.41,13.5-6.79,20.18-6.28,17.7-12.83,35.32-19.48,52.89-1.23,3.28,4.82,9.7,6.99,11.54,5.52,4.7,12.75,6.92,19.94,6.63,2.53-.11,8.98-.19,9.18-3.79.33-5.91,22.29-75.13,22.29-75.13.73-2.27,1.52-4.68,2.41-7.2,1.08-3.14,2.29-6.48,3.58-9.93.39-1.04.8-2.11,1.2-3.17,1.27-3.34,2.61-6.77,3.99-10.25,14.32-35.94,33.79-77.8,33.79-77.8h-.02l-8.05-3.31h-.02l-.17-.08h0"
            fill="none" stroke="#fafafa" stroke-miterlimit="10" />
        <path
            d="M104.03,104.64h-.01s-.01.01-.01.01l-8.05-3.31-3.02,6.35c-.58.03-1.14.05-1.7.05-.34,0-.68-.01-1.01-.02-.18-.01-.36-.01-.54-.03-.45-.02-.88-.05-1.31-.11-.4-.04-.8-.1-1.2-.17-2.03-.31-3.97-.84-5.82-1.56-.34-.13-.68-.27-1.01-.4-.33-.14-.66-.29-.99-.44-1.63-.76-3.17-1.63-4.63-2.58h0c-.05-.03-.1-.06-.14-.1-1.12-.73-2.18-1.51-3.2-2.32-.2-.16-.4-.32-.6-.49-.2-.16-.39-.32-.59-.49-.69-.59-1.36-1.18-1.99-1.79-.23-.21-.46-.43-.67-.65-.24-.23-.48-.47-.7-.7-.22-.22-.44-.45-.65-.67-2.61-2.74-4.54-5.3-5.69-6.97-.13-.18-.23-.35-.34-.5-.52-.78-.83-1.28-.88-1.38-.02-.01-.02-.02-.02-.02,11.66-14.42,29.37-7.15,29.37-7.15,20.1,8.29,15.41,25.43,15.41,25.43Z"
            fill="none" stroke="#fafafa" stroke-miterlimit="10" />
        <path
            d="M98.18,95.81c-.03.4-.09.8-.17,1.21l-2.06,4.31-3.02,6.35c-.58.03-1.14.05-1.7.05-.34,0-.68-.01-1.01-.02-.18-.01-.36-.01-.54-.03-.45-.02-.88-.05-1.31-.11-.4-.04-.81-.1-1.2-.17-2.03-.31-3.97-.84-5.82-1.56-.34-.13-.68-.27-1.01-.4-.33-.14-.66-.29-.99-.44-1.63-.76-3.17-1.63-4.63-2.58-.04-.03-.1-.06-.14-.1-1.12-.73-2.18-1.51-3.2-2.32-.2-.16-.4-.32-.6-.49-.2-.16-.39-.32-.59-.49-.69-.59-1.36-1.18-1.99-1.79-.23-.21-.46-.43-.67-.65-.24-.23-.48-.47-.7-.7-.22-.22-.44-.45-.65-.67-2.61-2.74-4.54-5.3-5.69-6.97-.13-.18-.23-.34-.34-.5-.52-.78-.83-1.28-.88-1.38-.02-.01-.02-.02-.02-.02,0,0,16.48-12,29.99-5.07,0,0,9.64,6.27,8.95,14.53Z"
            fill="none" stroke="#fafafa" stroke-miterlimit="10" />
        <path d="M85.91,95.44l3.17-7.22c-8.03-4.29-9.31-.21-9.31-.21l-2.07,5.89-1.96,5.57"
            fill="none" stroke="#fafafa" stroke-miterlimit="10" />
        <path
            d="M92.93,107.69c-6.98.45-13.14-1.94-18.22-5.25h0s5.08-14.44,5.08-14.44c5.14,13.17,18.4,7.81,18.4,7.81l-5.25,11.88Z"
            fill="none" stroke="#fafafa" stroke-miterlimit="10" />
    </g>
    <path
        d="M67.41,182.49c-6,15.66-23.32,22.37-36.76,19.31-18.86-4.29-6.96-17.75-.96-33.41,6-15.66,9.84-28.22,22.69-23.3,12.85,4.92,21.03,21.74,15.03,37.4Z"
        fill="none" stroke="#fafafa" stroke-miterlimit="10" />
</svg>