<?xml version="1.0" encoding="UTF-8"?>
<svg id="Layer_1" xmlns="http://www.w3.org/2000/svg" xmlns:xlink="http://www.w3.org/1999/xlink" viewBox="0 0 453.96 488.93">
  <defs>
    <linearGradient id="tutor-male-light" x1="129.45" y1="-72.02" x2="130.87" y2="469.26" gradientUnits="userSpaceOnUse">
      <stop offset="0" stop-color="#fff"/>
      <stop offset="1" stop-color="#cceaff"/>
    </linearGradient>
    <linearGradient id="tutor-male-light-2" x1="125.51" y1="145.75" x2="125.55" y2="157.54" xlink:href="#tutor-male-light"/>
  </defs>
  <g>
    <g>
      <path d="M314.33,27.61c7.45,0,13.49,6.03,13.49,13.48s-6.05,13.49-13.49,13.49-13.48-6.05-13.48-13.49,6.03-13.48,13.48-13.48Z" style="fill: #4aaf56;"/>
      <path d="M242.42,135.32v11.8c0,8.38-6.79,15.17-15.17,15.17s-15.16-6.79-15.16-15.17v-11.8c0-8.37,6.79-15.16,15.16-15.16,4.19,0,7.99,1.69,10.73,4.44s4.44,6.54,4.44,10.72Z" style="fill: #203467;"/>
      <path d="M160.6,135.32v11.8c0,8.38-6.79,15.17-15.16,15.17s-15.17-6.79-15.17-15.17v-11.8c0-8.37,6.79-15.16,15.17-15.16,4.19,0,7.97,1.69,10.72,4.44s4.44,6.54,4.44,10.72Z" style="fill: #203467;"/>
      <path d="M125.57,151.66c.66,13.64,3.85,26.66,9.09,38.53-5.98-10.82-8.71-24.1-9.14-39.22,0,.16.02.33.03.49.02.07.02.13.02.2Z" style="fill: url(#tutor-male-light);"/>
      <path d="M127.44,126.35c-1.12,7.96-1.76,16.54-1.97,22.77.02.49.03,1,.05,1.5-.02.13-.02.25,0,.36-.64-7.69.46-16.77,1.92-24.62Z" style="fill: #fff;"/>
      <path d="M125.55,151.46c-.02-.16-.03-.33-.03-.49-.02-.12-.02-.23,0-.36.02.28.03.58.03.85Z" style="fill: url(#tutor-male-light-2);"/>
    </g>
    <g>
      <path d="M296.17,368.6c-.33-.23-.67-.49-1.04-.76" style="fill: none; stroke: #12121e; stroke-linecap: round; stroke-miterlimit: 10;"/>
      <path d="M304.72,375.44c-1.22-1.15-2.45-2.33-3.68-3.55,0,0-1.31-.79-3.48-2.3" style="fill: none; stroke: #12121e; stroke-linecap: round; stroke-miterlimit: 10;"/>
      <path d="M319.77,213.74c1.17-1.46,2.28-2.96,3.37-4.47" style="fill: none; stroke: #18171e; stroke-linecap: round; stroke-miterlimit: 10; stroke-width: 2px;"/>
      <path d="M312.39,222.16c1.3-1.33,2.56-2.7,3.8-4.09" style="fill: none; stroke: #18171e; stroke-linecap: round; stroke-miterlimit: 10; stroke-width: 2px;"/>
      <path d="M205.72,251.37c9.11,2.48,18.71,3.8,28.6,3.8,21.52,0,41.57-6.23,58.45-17,1.81-1.17,3.58-2.37,5.31-3.62l1.73-1.28c3.75-2.81,7.28-5.87,10.62-9.12" style="fill: none; stroke: #18171e; stroke-linecap: round; stroke-miterlimit: 10; stroke-width: 2px;"/>
      <path d="M187.17,244.5l.02-.02c2.68,1.28,5.41,2.47,8.2,3.53s5.64,2.02,8.53,2.86" style="fill: none; stroke: #18171e; stroke-linecap: round; stroke-miterlimit: 10; stroke-width: 2px;"/>
      <path d="M180.37,354.36l-.1-2.07-39.94,22.72c-15.32,9.01-32.71,9.22-44.71,7.76-8.5-1.02-16.55-4.32-23.46-9.37l-49.41-36.15c-6.44-4.72-11.88-10.75-15.62-17.83-8-15.2-4.5-27.19,1.63-35.72,11.49-15.98,33.1-20.89,50.82-12.33,16.14,7.82,29.8,22.5,38.45,29.23,14.09,10.96,27.4,0,27.4,0,22.96-23.54,36.33-40.55,49.95-49.26.1-.07.18-.12.28-.18,6.66-4.24,11.16-6.49,11.51-6.66" style="fill: none; stroke: #1e1e23; stroke-linecap: round; stroke-miterlimit: 10; stroke-width: 2px;"/>
      <line x1="180.63" y1="359.82" x2="180.37" y2="354.36" style="fill: none; stroke: #12121e; stroke-linecap: round; stroke-miterlimit: 10; stroke-width: 2px;"/>
      <path d="M295.81,368.35c.13.08.25.16.36.25.49.36.95.69,1.38.99.03.03.07.07.1.08,2.5,1.74,4.85,3.68,7.07,5.77,1.25,1.17,2.48,2.3,3.71,3.4" style="fill: none; stroke: #12121e; stroke-linecap: round; stroke-miterlimit: 10; stroke-width: 2px;"/>
      <path d="M285.17,359.56c.26.25.53.49.79.72" style="fill: none; stroke: #12121e; stroke-linecap: round; stroke-miterlimit: 10; stroke-width: 2px;"/>
      <path d="M274.29,347.72c.94,1.2,1.87,2.37,2.84,3.48" style="fill: none; stroke: #12121e; stroke-linecap: round; stroke-miterlimit: 10; stroke-width: 2px;"/>
      <path d="M266.04,334.48c.26.56.53,1.1.82,1.64" style="fill: none; stroke: #12121e; stroke-linecap: round; stroke-miterlimit: 10; stroke-width: 2px;"/>
      <polyline points="320.56 388.8 324.05 422.53 198.68 422.53 191.73 350.65 188.97 322.18 188.95 322.02 183.53 265.87 187.19 265.87 205.58 265.87 296.84 265.87 307.81 265.87 310.27 289.65" style="fill: none; stroke: #12121e; stroke-linecap: round; stroke-miterlimit: 10; stroke-width: 2px;"/>
      <path d="M299.8,233.29c3.75-2.83,7.3-5.87,10.62-9.14.69-.66,1.35-1.31,1.97-1.99,1.31-1.33,2.58-2.7,3.8-4.09,1.25-1.41,2.45-2.86,3.58-4.32,1.17-1.46,2.28-2.96,3.37-4.47,2.17-3.06,4.18-6.23,6.03-9.5v-.02c2.73-4.82,5.1-9.85,7.05-15.07,4.5-11.93,6.95-24.87,6.95-38.36,0-29.6-9.86-56.45-28.03-76.07l-.02-.02c-18.72-20.23-46.24-32.79-80.82-32.79-52.14,0-90.04,30.77-103.54,73.38" style="fill: none; stroke: #18171e; stroke-linecap: round; stroke-miterlimit: 10; stroke-width: 2px;"/>
      <path d="M205.72,251.37c9.11,2.5,18.71,3.81,28.6,3.81,21.52,0,41.57-6.23,58.45-17.01,1.81-1.15,3.58-2.35,5.31-3.62.58-.41,1.15-.82,1.71-1.25" style="fill: none; stroke: #18171e; stroke-linecap: round; stroke-miterlimit: 10; stroke-width: 2px;"/>
      <path d="M203.92,250.88c.59.18,1.18.35,1.79.49" style="fill: none; stroke: #1e1e23; stroke-linecap: round; stroke-miterlimit: 10; stroke-width: 2px;"/>
      <path d="M131.93,107.72c10.06-25.38,32.74-42.74,74.58-42.74,61.89,0,81.07,36.41,81.07,81.33s-26.78,74.87-82.89,74.87c-37.81,0-59.16-11.47-69.96-30.85,10.49,23.7,29.16,42.93,52.45,54.16h.02c2.68,1.28,5.41,2.47,8.2,3.52,2.79,1.07,5.64,2.02,8.53,2.86" style="fill: none; stroke: #18171e; stroke-linecap: round; stroke-miterlimit: 10; stroke-width: 2px;"/>
      <path d="M130.78,110.81c.36-1.02.74-2.02,1.13-3.01" style="fill: none; stroke: #18171e; stroke-linecap: round; stroke-miterlimit: 10; stroke-width: 2px;"/>
      <path d="M301.54,132.12c0-3.24,2.63-5.85,5.85-5.85h21.71c3.24,0,5.85,2.61,5.85,5.85v28.35c0,3.24-2.61,5.87-5.85,5.87h-21.71c-3.22,0-5.85-2.63-5.85-5.87v-28.35Z" style="fill: none; stroke: #18171e; stroke-linecap: round; stroke-miterlimit: 10; stroke-width: 2px;"/>
      <line x1="130.78" y1="110.83" x2="130.78" y2="110.81" style="fill: none; stroke: #18171e; stroke-linecap: round; stroke-miterlimit: 10; stroke-width: 2px;"/>
      <path d="M125.57,151.66c.66,13.64,3.85,26.66,9.09,38.53-5.98-10.82-8.71-24.1-9.14-39.22-.02-.12-.02-.23,0-.36-.02-.49-.03-1-.05-1.5" style="fill: none; stroke: #18171e; stroke-linecap: round; stroke-miterlimit: 10; stroke-width: 2px;"/>
      <path d="M125.52,150.61c.02.28.03.58.03.85" style="fill: none; stroke: #18171e; stroke-linecap: round; stroke-miterlimit: 10; stroke-width: 2px;"/>
      <path d="M329.16,199.74l.02.02c.35.23,5.79,3.9,14,10.42h.02c12.57,9.94,31.59,26.58,48.6,47.77,11.37,14.15,21.86,30.34,28.95,47.93,7.68,19.05,9.99,40.02,5.08,59.96-3.68,14.94-9.67,29.67-29.24,38.4,0,0-7.99,5.61-22.55,5.64-12.97.02-31.13-4.37-53.47-21.07v-.03c-1.56-1.17-3.14-2.4-4.75-3.7-.79-.61-1.56-1.25-2.35-1.91-.81-.66-1.59-1.33-2.4-2.02-.66-.58-1.31-1.15-1.99-1.74-.21-.18-.43-.38-.64-.56-4.09-3.63-8.27-7.17-12.62-10.49-.21-.16-.44-.35-.67-.51-.15-.12-.31-.23-.46-.35-1.46-1.1-3.12-2.38-4.9-3.88-.49-.39-.99-.82-1.5-1.27-.76-.64-1.53-1.33-2.32-2.07-.26-.21-.53-.46-.79-.72-.61-.56-1.23-1.15-1.86-1.76-.46-.44-.9-.89-1.35-1.35-1.08-1.08-2.15-2.22-3.22-3.39t-.02-.03c-.54-.59-1.07-1.2-1.59-1.82-.97-1.12-1.92-2.28-2.84-3.48-.15-.18-.28-.36-.43-.54-.94-1.23-1.86-2.51-2.73-3.83-.07-.1-.13-.18-.18-.28-.43-.62-.84-1.27-1.23-1.91-1.02-1.63-1.99-3.32-2.86-5.05-.28-.54-.56-1.08-.82-1.64-.12-.25-.25-.51-.36-.77-.3-.66-.59-1.33-.87-2.01-.33-.77-.62-1.56-.92-2.35-.03-.1-.08-.2-.1-.3-.3-.79-.56-1.58-.81-2.38-4.75-15.47,1.56-32.68,16.26-39.47,7.76-3.58,18.08-4.44,31.03,2.45,4.65,2.43,9.58,5.88,14.91,10.59h.02c4.27,3.78,8.73,8.27,13.41,13.74l17.37,16.49.02.02,15.01,14.23" style="fill: none; stroke: #12121e; stroke-linecap: round; stroke-miterlimit: 10; stroke-width: 2px;"/>
      <polyline points="364.01 337.65 343.62 246.98 340.93 235.74" style="fill: none; stroke: #12121e; stroke-linecap: round; stroke-miterlimit: 10; stroke-width: 2px;"/>
      <path d="M325.2,300.24c-3.99-36.79,3.32-61.9,9.78-76.07,4.29-9.4,8.2-13.99,8.2-13.99" style="fill: none; stroke: #12121e; stroke-linecap: round; stroke-miterlimit: 10; stroke-width: 2px;"/>
      <path d="M299.79,233.3s.02-.02.02-.02v-.02" style="fill: none; stroke: #18171e; stroke-linecap: round; stroke-miterlimit: 10; stroke-width: 2px;"/>
      <path d="M296.84,265.87c-3.57-11.47,2.65-31.58,2.94-32.56" style="fill: none; stroke: #12121e; stroke-linecap: round; stroke-miterlimit: 10; stroke-width: 2px;"/>
      <line x1="205.58" y1="251.86" x2="205.58" y2="265.87" style="fill: none; stroke: #12121e; stroke-linecap: round; stroke-miterlimit: 10; stroke-width: 2px;"/>
      <polyline points="391.7 486.4 391.46 486.4 186.98 486.4 181.11 362.76 180.99 360.31 180.68 353.89 180.63 352.79" style="fill: none; stroke: #12121e; stroke-linecap: round; stroke-miterlimit: 10; stroke-width: 2px;"/>
      <polyline points="374.03 409.87 391.34 485.91 391.46 486.4 391.8 487.93" style="fill: none; stroke: #12121e; stroke-linecap: round; stroke-miterlimit: 10; stroke-width: 2px;"/>
      <path d="M179.89,355.07c.16-.23.33-.48.48-.71.12-.15.21-.31.31-.48,7.73-11.93,8.32-29.57,8.28-31.71v-.16" style="fill: none; stroke: #12121e; stroke-linecap: round; stroke-miterlimit: 10; stroke-width: 2px;"/>
      <path d="M336.23,184.68s57.74-5.61,55.13,30.93l.44,42.33v.03" style="fill: none; stroke: #12121e; stroke-linecap: round; stroke-miterlimit: 10; stroke-width: 2px;"/>
      <polyline points="318.24 126.27 315.14 70.23 314.33 55.57" style="fill: none; stroke: #12121e; stroke-linecap: round; stroke-miterlimit: 10; stroke-width: 3px;"/>
      <path d="M327.83,41.09c0,7.45-6.05,13.49-13.49,13.49s-13.48-6.05-13.48-13.49,6.03-13.48,13.48-13.48,13.49,6.03,13.49,13.48Z" style="fill: none; stroke: #111010; stroke-miterlimit: 10; stroke-width: 2px;"/>
      <path d="M132.01,107.48s-.03.08-.08.25c0,.02-.02.05-.02.08-.44,1.46-2.28,7.73-3.91,15.68-.18.89-.36,1.81-.54,2.75,0,.03,0,.08-.02.12-1.46,7.86-2.56,16.93-1.92,24.62,0,.16.02.33.03.49.02.07.02.13.02.2" style="fill: none; stroke: #18171e; stroke-linecap: round; stroke-miterlimit: 10; stroke-width: 2px;"/>
      <line x1="187.19" y1="244.5" x2="187.19" y2="265.87" style="fill: none; stroke: #000; stroke-linecap: round; stroke-linejoin: round; stroke-width: 2px;"/>
      <path d="M191.71,350.65s-1.61,10.63-10.6,12.11" style="fill: none; stroke: #000; stroke-linecap: round; stroke-linejoin: round; stroke-width: 2px;"/>
    </g>
  </g>
  <polygon points="410.65 176.4 405.91 142.22 371.91 136.33 406.09 131.59 411.98 97.59 416.72 131.76 450.72 137.66 416.54 142.4 410.65 176.4" style="fill: #455ad6; stroke: #1e1b1b; stroke-miterlimit: 10;"/>
  <polygon points="28.18 458.28 25.12 436.28 3.24 432.49 25.24 429.44 29.03 407.56 32.08 429.55 53.96 433.34 31.97 436.4 28.18 458.28" style="fill: #455ad6; stroke: #1e1b1b; stroke-miterlimit: 10;"/>
  <polygon points="52.54 53.96 49.48 31.97 27.6 28.18 49.6 25.12 53.39 3.24 56.44 25.24 78.32 29.03 56.33 32.08 52.54 53.96" style="fill: #455ad6; stroke: #1e1b1b; stroke-miterlimit: 10;"/>
</svg>